<?xml version="1.0" encoding="utf-8"?>
<!-- Generator: Adobe Illustrator 19.0.0, SVG Export Plug-In . SVG Version: 6.00 Build 0)  -->
<svg version="1.1" id="Layer_1" xmlns="http://www.w3.org/2000/svg" xmlns:xlink="http://www.w3.org/1999/xlink" x="0px" y="0px"
	 viewBox="0 0 35 30" style="enable-background:new 0 0 35 30;" xml:space="preserve">
<style type="text/css">
	.{{$ctrl.id}}{fill:{{$ctrl.fill}};}
</style>


<g>
	<g>
		<path ng-class="{ '{{$ctrl.id}}': true}" d="M0,26c0,2.2,1.8,4,4,4h28.8v-1.8H31v-4.4h1.8V23H35v-1.8h-1.3v-4.4H35v-1.8h-1.4v-1.5l-2.2-4.1h2.3V7.1
			L27.9,0H7.5L2.3,8.3C1.4,9,0.8,10.1,0.8,11.4c0,2.2,1.8,4,3.9,4c-1.5,0.6-2.5,2-2.5,3.7c0,1.2,0.6,2.3,1.4,3C1.6,22.2,0,23.9,0,26
			L0,26z M2.5,11.4c0-0.8,0.5-1.5,1.1-1.9h26.4v4.1H4.8C3.5,13.6,2.5,12.6,2.5,11.4L2.5,11.4z M6.2,16.8h25.7v4.4H6.2
			C5,21.3,4,20.3,4,19C4,17.8,5,16.8,6.2,16.8L6.2,16.8z M4,23.8h25.2v4.4H4c-1.2,0-2.2-1-2.2-2.2S2.8,23.8,4,23.8L4,23.8z M4,23.8"
			/>
	</g>
</g>
</svg>
