<?xml version="1.0" encoding="utf-8"?>
<!-- Generator: Adobe Illustrator 19.0.0, SVG Export Plug-In . SVG Version: 6.00 Build 0)  -->
<svg version="1.1" id="Layer_1" xmlns="http://www.w3.org/2000/svg" xmlns:xlink="http://www.w3.org/1999/xlink" x="0px" y="0px"
	 viewBox="0 0 24.7 30" style="enable-background:new 0 0 24.7 30;" xml:space="preserve">
<style type="text/css">
	.{{$ctrl.id}}{fill:{{$ctrl.fill}};}
</style>
<g>
	<path ng-class="{ '{{$ctrl.id}}': true}" d="M11.2,8.9h2.8v3.2H16V1.3C16,0.6,15.4,0,14.6,0H1.3C0.6,0,0,0.6,0,1.3v27.3C0,29.4,0.6,30,1.3,30h4.8v-8.7h3.7
		v-7.3c0-0.8,0.6-1.5,1.4-1.7V8.9z M11.2,2.7h2.8v4h-2.8V2.7z M4.8,25.4H1.9v-4h2.8V25.4z M4.8,19.5H1.9v-4h2.8V19.5z M4.8,12.9H1.9
		v-4h2.8V12.9z M4.8,6.7H1.9v-4h2.8V6.7z M9.5,19.5H6.7v-4h2.8V19.5z M9.5,12.9H6.7v-4h2.8V12.9z M9.5,6.7H6.7v-4h2.8V6.7z
		 M23.5,13.2H12.3c-0.6,0-1.1,0.3-1.1,0.8v15.3c0,0.4,0.5,0.8,1.1,0.8h4v-4.9h3.2V30h3.9c0.6,0,1.1-0.3,1.1-0.8V13.9
		C24.7,13.5,24.2,13.2,23.5,13.2L23.5,13.2z M15.2,27.4h-2.4v-2.3h2.4V27.4z M15.2,24.1h-2.4v-2.3h2.4V24.1z M15.2,20.4h-2.4v-2.3
		h2.4V20.4z M15.2,17h-2.4v-2.3h2.4V17z M19.2,24.1h-2.4v-2.3h2.4V24.1z M19.2,20.4h-2.4v-2.3h2.4V20.4z M19.2,17h-2.4v-2.3h2.4V17z
		 M23.1,27.5h-2.4v-2.3h2.4V27.5z M23.1,24.1h-2.4v-2.3h2.4V24.1z M23.1,20.4h-2.4v-2.3h2.4V20.4z M23.1,17h-2.4v-2.3h2.4V17z
		 M23.1,17"/>
</g>
</svg>
