<?xml version="1.0" encoding="utf-8"?>
<!-- Generator: Adobe Illustrator 19.0.0, SVG Export Plug-In . SVG Version: 6.00 Build 0)  -->
<svg version="1.1" id="Layer_1" xmlns="http://www.w3.org/2000/svg" xmlns:xlink="http://www.w3.org/1999/xlink" x="0px" y="0px"
	 viewBox="0 0 45.8 30" style="enable-background:new 0 0 45.8 30;" xml:space="preserve">
<style type="text/css">
	.{{$ctrl.id}}{fill:{{$ctrl.fill}};}
</style>
<g>
	<path ng-class="{ '{{$ctrl.id}}': true}" d="M43,9.6c0,0-0.1-0.1-0.1-0.1l-1.6-1.5c1.3-0.3,2.8-1.4,2.8-2.6c0-1.3-1.8-1.8-3.4-1.8c-1.6,0-1.8,1.1-1.9,1.9
		l-4.1-4C33.8,0.7,32.2,0,31,0H14.8c-1.2,0-2.8,0.7-3.6,1.5l-4.1,4c0-0.8-0.2-1.9-1.9-1.9C3.6,3.6,1.8,4,1.8,5.4
		c0,1.1,1.4,2.3,2.8,2.6L2.9,9.5c0,0-0.1,0.1-0.1,0.1C1.1,11,0,13.8,0,15.7v5.9c0,1.4,0.6,2.7,1.5,3.7v2.3C1.5,28.9,2.6,30,4,30h3
		c1.4,0,2.5-1.1,2.5-2.4V27h26.9v0.6c0,1.3,1.1,2.4,2.5,2.4h3c1.4,0,2.5-1.1,2.5-2.4v-2.3c0.9-1,1.5-2.3,1.5-3.7v-5.9
		C45.8,13.8,44.7,11,43,9.6L43,9.6z M12.7,3.3c0.6-0.5,1.6-0.9,2.1-0.9H31c0.5,0,1.5,0.4,2.1,0.9l5.4,5.3H7.3L12.7,3.3z M1.9,14.9
		c0-1.4,1.1-2.6,2.5-2.6c1.4,0,6,2.7,6,4.1c0,1.4-4.6,1.1-6,1.1C3,17.5,1.9,16.3,1.9,14.9L1.9,14.9z M9.5,24.4h-1l-2.9,0
		c-0.8-0.2-1.4-0.5-1.7-0.8c-0.2-0.2-0.4-0.3-0.5-0.5c-0.1-0.2-0.2-0.3-0.3-0.5c-0.4-1,0.4-1.9,0.4-1.9h4.9l3.3,3.7H9.5z M29.9,24.4
		h-14c-1.5,0-2.6-1.2-2.6-2.6h19.3C32.6,23.2,31.4,24.4,29.9,24.4L29.9,24.4z M30.5,20H15.3c-1.6,0-2.9-2-2.9-4.4h21
		C33.4,18,32.1,20,30.5,20L30.5,20z M42.7,22.6c-0.1,0.2-0.1,0.3-0.3,0.5c-0.1,0.2-0.3,0.3-0.5,0.5c-0.4,0.3-1,0.6-1.7,0.8l-2.9,0
		h-3.2l3.3-3.7h4.9C42.3,20.7,43,21.6,42.7,22.6L42.7,22.6z M41.4,17.5c-1.4,0-6,0.3-6-1.1c0-1.4,4.6-4.1,6-4.1
		c1.4,0,2.5,1.2,2.5,2.6C44,16.3,42.8,17.5,41.4,17.5L41.4,17.5z M41.4,17.5"/>
</g>
</svg>
