<?xml version="1.0" encoding="utf-8"?>
<!-- Generator: Adobe Illustrator 19.0.0, SVG Export Plug-In . SVG Version: 6.00 Build 0)  -->
<svg version="1.1" id="Layer_1" xmlns="http://www.w3.org/2000/svg" xmlns:xlink="http://www.w3.org/1999/xlink" x="0px" y="0px"
	 viewBox="192.4 382 45.4 30" style="enable-background:new 192.4 382 45.4 30;" xml:space="preserve">
<style type="text/css">
	.{{$ctrl.id}}{fill:{{$ctrl.fill}};}
</style>
<g>
	<path ng-class="{ '{{$ctrl.id}}': true}" d="M209.2,403h11.6h4.6c1-0.9,1.8-1.9,2.5-3c0.4-0.7,0.8-1.4,1.1-2.1h2.5c3.4,0,6.1-2.8,6.1-6.1
		c0-3.4-2.8-6.1-6.1-6.1h-1.2V382h-30.7v9.7c0,2.9,0.8,5.8,2.4,8.2c0.7,1.1,1.6,2.1,2.5,3L209.2,403L209.2,403z M231.5,388.3
		c1.9,0,3.4,1.5,3.4,3.4s-1.5,3.4-3.4,3.4h-1.6c0.3-1.1,0.4-2.3,0.4-3.4v-3.4H231.5z"/>
	<path ng-class="{ '{{$ctrl.id}}': true}" d="M221.4,405.7h-12.8h-16.2v0.4c0,3.2,2.6,5.9,5.9,5.9h33.6c3.2,0,5.9-2.6,5.9-5.9v-0.4H221.4z"/>
</g>
</svg>
