<?xml version="1.0" encoding="utf-8"?>
<!-- Generator: Adobe Illustrator 19.0.0, SVG Export Plug-In . SVG Version: 6.00 Build 0)  -->
<svg version="1.1" id="Layer_1" xmlns="http://www.w3.org/2000/svg" xmlns:xlink="http://www.w3.org/1999/xlink" x="0px" y="0px"
	 viewBox="0 0 37 30" style="enable-background:new 0 0 37 30;" xml:space="preserve">
<style type="text/css">
	.{{$ctrl.id}}{fill:{{$ctrl.fill}};}
</style>
<g>
	<g>
		<path ng-class="{ '{{$ctrl.id}}': true}" d="M36.2,1c-0.1-0.2-0.2-0.3-0.4-0.3c-0.2,0-0.4,0.1-0.5,0.2c-0.6,0.9-1.5,1.2-2.5,1.6C32,2.7,31.2,3,30.3,3.6
			c-1.3,0.9-1.8,2.1-1.5,3.3l0,0c-0.5-0.8-1.1-1.5-1.7-2.1C24.2,1.9,20.3,0.2,16.3,0c-0.2,0-0.4,0-0.5,0C11.2,0,6.9,2,3.8,5.5
			c-3,3.5-4.3,8.1-3.7,12.5c0.1,0.4,0.1,0.7,0.2,1.1c1.1,4.9,4,8.6,7.8,10.2C9.1,29.8,10.1,30,11,30c2.3,0,4.4-1.2,5.6-3.4
			c0.5-0.8,0.8-1.7,0.9-2.5c0.1-0.5,0-1,0-1.5c-0.1-0.5-0.1-1,0-1.5c0.2-1.1,0.9-1.8,2.1-1.8c0.3,0,0.6,0.1,1,0.2
			c-0.4,0.7-0.7,1.4-1,2c-0.6,1.3-1.1,2.4-1.3,3.2c-0.1,0.5-0.5,1.9,0.4,2.5c0.3,0.2,0.7,0.3,1,0.2c0.3-0.1,1.4-0.3,4.4-3.7
			c0.8-0.9,1.7-2,2.6-3.1c2.3-0.8,4.1-2.7,4.6-5c0.1-0.6,0.2-1.2,0.1-1.8c0.9-1.3,1.6-2.6,2.4-4c0,0,0-0.1,0-0.1
			c1.1-0.3,2.1-1.2,2.6-2.4C37.2,5.6,37.2,3.3,36.2,1L36.2,1z M23.7,9.3c-0.4,0.6-1.1,1-1.9,1c-0.4,0-0.8-0.1-1.2-0.3
			c-0.5-0.3-0.8-0.8-1-1.4c-0.1-0.6,0-1.2,0.3-1.7c0.4-0.6,1.1-1,1.9-1c0.4,0,0.8,0.1,1.2,0.3c0.5,0.3,0.8,0.8,1,1.4
			S24,8.8,23.7,9.3L23.7,9.3z M26.5,13.3c1.1-1.6,2.3-3.3,3.4-4.7c0.2,0.2,0.4,0.3,0.6,0.5c0.4,0.3,0.7,0.4,1.1,0.6
			c-0.9,1.6-1.9,3.2-3.2,5c-2,3-4.1,5.7-5.9,7.7c-1,1.1-1.9,2-2.5,2.6c0.3-0.8,0.8-2,1.4-3.3C22.7,19.2,24.5,16.3,26.5,13.3
			L26.5,13.3z M7.1,13.3c-0.4,0-0.8-0.1-1.2-0.3c-0.5-0.3-0.8-0.8-1-1.4c-0.1-0.6,0-1.2,0.3-1.7c0.4-0.6,1.1-1,1.9-1
			c0.4,0,0.8,0.1,1.2,0.3c1,0.6,1.3,2,0.7,3C8.5,12.9,7.8,13.3,7.1,13.3L7.1,13.3z M4.8,18.1c0.4-0.6,1.1-1,1.9-1
			c0.4,0,0.8,0.1,1.2,0.3c0.5,0.3,0.8,0.8,1,1.4c0.1,0.6,0,1.2-0.3,1.7c-0.4,0.6-1.1,1-1.9,1c-0.4,0-0.8-0.1-1.2-0.3
			c-0.5-0.3-0.8-0.8-1-1.4C4.4,19.2,4.5,18.6,4.8,18.1L4.8,18.1z M11.8,5.1c0.4-0.6,1.1-1,1.9-1c0.4,0,0.8,0.1,1.2,0.3
			c1,0.6,1.3,2,0.7,3c-0.4,0.6-1.1,1-1.9,1c-0.4,0-0.8-0.1-1.2-0.3c-0.5-0.3-0.8-0.8-1-1.4S11.5,5.6,11.8,5.1L11.8,5.1z M11.8,5.1"
			/>
	</g>
</g>
</svg>
