<?xml version="1.0" encoding="utf-8"?>
<!-- Generator: Adobe Illustrator 19.0.0, SVG Export Plug-In . SVG Version: 6.00 Build 0)  -->
<svg version="1.1" id="Layer_1" xmlns="http://www.w3.org/2000/svg" xmlns:xlink="http://www.w3.org/1999/xlink" x="0px" y="0px"
	 viewBox="0 0 44.6 30" style="enable-background:new 0 0 44.6 30;" xml:space="preserve">
<style type="text/css">
	.{{$ctrl.id}}{fill:{{$ctrl.fill}};}
</style>
<g>
	<path ng-class="{ '{{$ctrl.id}}': true}" d="M42.8,9.4c0,0.1,0,0.2,0,0.4l-2.7,11c-0.1,0.6-0.6,0.9-1.2,0.9l-16.5,0.1H5.8c-0.6,0-1.1-0.4-1.2-0.9l-2.8-11
		c0-0.1,0-0.3,0-0.4C0.8,9.1,0,8.1,0,7c0-1.4,1.2-2.6,2.6-2.6c1.4,0,2.6,1.2,2.6,2.6c0,0.8-0.4,1.5-1,2l3.4,3.5
		c0.9,0.9,2.1,1.4,3.3,1.4c1.5,0,2.9-0.7,3.7-1.9l5.7-7.5C20,4,19.7,3.3,19.7,2.6c0-1.4,1.2-2.6,2.6-2.6c1.4,0,2.6,1.2,2.6,2.6
		c0,0.7-0.3,1.3-0.7,1.8c0,0,0,0,0,0l5.6,7.5c0.9,1.2,2.3,1.9,3.7,1.9c1.2,0,2.4-0.5,3.3-1.4L40.3,9c-0.6-0.5-1-1.2-1-2
		c0-1.4,1.2-2.6,2.6-2.6c1.4,0,2.6,1.2,2.6,2.6C44.6,8.1,43.8,9.1,42.8,9.4L42.8,9.4z M39.8,25.8c0-0.7-0.6-1.3-1.3-1.3H6.2
		c-0.7,0-1.3,0.6-1.3,1.3v3c0,0.7,0.6,1.3,1.3,1.3h32.3c0.7,0,1.3-0.6,1.3-1.3V25.8z M39.8,25.8"/>
</g>
</svg>
