<?xml version="1.0" encoding="utf-8"?>
<!-- Generator: Adobe Illustrator 19.0.0, SVG Export Plug-In . SVG Version: 6.00 Build 0)  -->
<svg version="1.1" id="Layer_1" xmlns="http://www.w3.org/2000/svg" xmlns:xlink="http://www.w3.org/1999/xlink" x="0px" y="0px"
	 viewBox="0 0 24 30" style="enable-background:new 0 0 24 30;" xml:space="preserve">
<style type="text/css">
	.{{$ctrl.id}}{fill:{{$ctrl.fill}};}
</style>
<g>
	<path ng-class="{ '{{$ctrl.id}}': true}" d="M20,30V14.3c2.3-0.7,4-3.3,4-6.3c0-3.6-2.4-8-5.4-8c-3,0-5.4,4.4-5.4,8c0,3,1.7,5.5,4,6.3V30H20z"/>
	<path ng-class="{ '{{$ctrl.id}}': true}" d="M1.1,4.1C0.7,5.3,0.2,6.5,0,7.8c-0.1,1.2,0.1,2.1,0.7,3.1c0.6,1,1.6,2.5,2.8,3.2v16h2.8V14.1
		c1.2-0.7,2.3-2.2,2.9-3.2c0.6-1,0.9-1.9,0.7-3.1C9.8,6.5,9.3,5.3,8.9,4.1c-0.3-0.9-1-3.3-2.2-3.4l0.7,6.8H6.5L5.7,0.7H4.3L3.5,7.5
		H2.6l0.7-6.8C2.1,0.8,1.4,3.2,1.1,4.1L1.1,4.1z M1.1,4.1"/>
</g>
</svg>
