<?xml version="1.0" encoding="utf-8"?>
<!-- Generator: Adobe Illustrator 19.0.0, SVG Export Plug-In . SVG Version: 6.00 Build 0)  -->
<svg version="1.1" id="Layer_1" xmlns="http://www.w3.org/2000/svg" xmlns:xlink="http://www.w3.org/1999/xlink" x="0px" y="0px"
	 viewBox="0 0 18.5 30" style="enable-background:new 0 0 18.5 30;" xml:space="preserve">
<style type="text/css">
	.{{$ctrl.id}}{fill:{{$ctrl.fill}};}
</style>
<g>
	<path ng-class="{ '{{$ctrl.id}}': true}" d="M10.3,26.2V16c4.6-0.5,8.3-4.4,8.3-9.2c0-1.7-0.5-3.9-1.3-6C17,0.3,16.6,0,16.1,0H2.4C1.9,0,1.5,0.3,1.3,0.7
		C0.5,2.8,0,5,0,6.8c0,4.8,3.6,8.7,8.3,9.2v10.3c-3.1,0.3-5.6,1.7-5.6,2.4c0,0.8,2.9,1.4,6.6,1.4c3.6,0,6.6-0.6,6.6-1.4
		C15.8,27.9,13.4,26.5,10.3,26.2L10.3,26.2z M10.3,26.2"/>
</g>
</svg>
