<?xml version="1.0" encoding="utf-8"?>
<!-- Generator: Adobe Illustrator 19.0.0, SVG Export Plug-In . SVG Version: 6.00 Build 0)  -->
<svg version="1.1" id="Layer_1" xmlns="http://www.w3.org/2000/svg" xmlns:xlink="http://www.w3.org/1999/xlink" x="0px" y="0px"
	 viewBox="0 0 32 30" style="enable-background:new 0 0 32 30;" xml:space="preserve">
<style type="text/css">
	.{{$ctrl.id}}{fill:{{$ctrl.fill}};}
</style>
<g>
	<g>
		<path ng-class="{ '{{$ctrl.id}}': true}" d="M31.6,23.6l-3.1-0.1V21c-4-4.1-12-1.4-13.1-1.7c-1.1-0.3-0.7-1.4-0.7-1.4c2.4-1.3,7.4-7.2,7.4-7.2
			c0.1-4.7-2.3-4-2.3-4C14.4,6.6,5.1-1,4,0.1C3.9,0.1,3.8,0,3.7,0C-0.1-0.2,0.9,5.3,0,7.6c-0.2,0.5,0.7,0.8,0.9,0.2
			c0.7-1.8-0.1-7,2.8-6.9C2.7,2.6,0.4,4.6,1.6,9.6c1.3,5.5,1.6,19.3,1.6,19.3s2.7,0.2,3,0c0,0-0.1-11-0.2-15c-0.1-4,5.8,1.2,8.3,8.9
			c2.5,7.8,5.2,7.2,8,7.2c2.8,0,6.6-1,8.6-3.6C32.9,23.7,31.6,23.6,31.6,23.6L31.6,23.6z M10.8,5.8c0,0,7.2,2.6,8.6,2.7
			c1,0,1.8,0.1,1.4,0.7c-4.6-0.4-9.2-1-13.2-3.5C7.9,5.2,8.9,5.1,10.8,5.8L10.8,5.8z M12.3,14c-0.8-0.7-4.6-5.4-4.8-7.6
			c3.8,2.4,8.2,3,12.6,3.4c-0.2,0.2-0.4,0.3-0.7,0.5C16.8,12.1,13.5,15.1,12.3,14L12.3,14z M12.3,14"/>
	</g>
</g>
</svg>
