<?xml version="1.0" encoding="utf-8"?>
<!-- Generator: Adobe Illustrator 19.0.0, SVG Export Plug-In . SVG Version: 6.00 Build 0)  -->
<svg version="1.1" id="Layer_1" xmlns="http://www.w3.org/2000/svg" xmlns:xlink="http://www.w3.org/1999/xlink" x="0px" y="0px"
	 viewBox="0 0 33.4 30" style="enable-background:new 0 0 33.4 30;" xml:space="preserve">
<style type="text/css">
	.{{$ctrl.id}}{fill:{{$ctrl.fill}};}
</style>
<g>
	<path ng-class="{ '{{$ctrl.id}}': true}" d="M22.9,6.4c-1.6,0-3.1,0.9-3.8,2.4l-0.7,1.5V8.5c0-1.1,0.4-2.3,1-3.2C19.8,4.8,20,4.1,20,3.4
		C20,1.5,18.5,0,16.6,0c-1.9,0-3.4,1.5-3.4,3.4c0,0.7,0.2,1.3,0.6,1.9c0.6,0.9,0.9,2,0.9,3.1v1.4l-0.5-1c-0.7-1.5-2.2-2.4-3.8-2.4
		H1.2c-0.4,0-0.8,0.2-1,0.6c-0.2,0.4-0.2,0.8,0,1.2c0.6,1,1.4,1.8,2.4,2.5l6.8,4.1c-0.2-0.3-0.3-0.6-0.4-1c-0.2-0.8-0.3-1.4-0.3-1.9
		c0-1.9,1.3-2.8,2.5-2.6c0.8,0.1,1.4,0.5,1.7,1.1l0.7,1.3c0,0,1.3,1,3.1,1.5c2-0.6,3.1-1.5,3.1-1.5l0.7-1.3c0.6-1.1,2-1.5,3.1-0.9
		c0.7,0.4,1.2,1.2,1.2,2.4c0,0.7,0,1.1-0.3,1.9c-0.1,0.3-0.2,0.6-0.4,0.9l6.7-4.1c1-0.6,1.8-1.4,2.4-2.5c0.2-0.4,0.2-0.8,0-1.2
		c-0.2-0.4-0.6-0.6-1-0.6H22.9z M22.9,6.4"/>
	<path ng-class="{ '{{$ctrl.id}}': true}" d="M16.7,20.7c0.2,0,1.2-0.3,1.5-0.4c-0.3-0.1-1.3-0.6-1.5-0.7c-0.2,0.1-1.2,0.5-1.5,0.7
		C15.6,20.4,16.6,20.7,16.7,20.7L16.7,20.7z M16.7,20.7"/>
	<path ng-class="{ '{{$ctrl.id}}': true}" d="M17.7,26c-0.3,0-1.7,0-2,0c-0.2,0-0.3,0-0.5,0c-0.1,0-0.2,0-0.4,0.1v2.1c0,1,0.8,1.8,1.8,1.8
		c1,0,1.8-0.8,1.8-1.8v-2.1c0,0-0.1,0-0.2,0C18,26,17.9,26,17.7,26L17.7,26z M17.7,26"/>
	<path ng-class="{ '{{$ctrl.id}}': true}" d="M11.2,25c-0.1,0.3-0.2,0.6-0.3,0.8c-0.1,0.8,0.1,1.4,0.3,1.8c0.5,0.8,0.9,1.1,0.9,1.1s0-0.1-0.1-0.4
		c-0.3-2.7,1.6-3,1.7-3c-1.5-0.3-2.3-0.5-2.5-0.6C11.2,24.9,11.2,25,11.2,25L11.2,25z M11.2,25"/>
	<path ng-class="{ '{{$ctrl.id}}': true}" d="M23.5,18.3c-0.7-1.1-2.1-2-2.4-2.1c0.5-0.3,0.9-0.7,1.3-1.1c1.4-1.5,1.4-3,1.4-3.4c0-0.3,0-0.5,0-0.5
		c-0.1-0.8-0.8-1.4-1.6-1.4c-0.8,0.1-1.4,0.8-1.4,1.6c0,0,0,0.3-0.2,0.6c-0.1,0.2-0.3,0.4-0.6,0.6c-0.3,0.2-0.7,0.5-1.3,0.8
		c-0.6,0.3-1.3,0.6-2,0.9c-0.6-0.2-1.2-0.5-1.7-0.7c-0.1-0.1-0.3-0.1-0.4-0.2c-0.6-0.3-1-0.6-1.3-0.8c-0.3-0.2-0.5-0.5-0.6-0.6
		c-0.2-0.3-0.2-0.6-0.2-0.6c0.1-0.8-0.5-1.5-1.4-1.6c-0.8-0.1-1.5,0.5-1.6,1.4c0,0,0,0.2,0,0.5c0,0.3,0,0.9,0.2,1.5
		c0.2,0.6,0.9,1.8,2.5,2.9c1.9,1,4.3,2.1,4.3,2.1c0.3,0.1,4.1,1.6,3.8,2.4c0,0.1-0.3,0.2-0.7,0.3c-0.4,0.1-0.8,0.2-1.2,0.4
		c-0.3,0.1-0.5,0.1-0.8,0.2c2.2,0.7,3.8,1.6,4.5,2c0,0,0.1,0,0.1,0.1c0.1-0.1,0.3-0.2,0.5-0.3C23.6,22.6,24.9,20.6,23.5,18.3
		L23.5,18.3z M23.5,18.3"/>
	<path ng-class="{ '{{$ctrl.id}}': true}" d="M21.6,24c-1.7-1.2-7.6-2.9-8-3c-0.3-0.1-0.6-0.3-0.6-0.3c-0.1-0.2,0.1-0.3,0.1-0.3c0.3-0.4,1.8-1.2,2.5-1.5
		c-1.7-0.7-3.5-1.5-4.2-1.9c-0.5,0.4-1,0.8-1.4,1.5c-0.6,1.2-0.6,2.5-0.6,2.5c0,0.8,0.6,1.9,1.2,2.5c0.2,0.1,0.4,0.3,0.5,0.4
		c0.5,0.3,0.9,0.5,1.4,0.6c1.1,0.3,2.1,0.4,3,0.6c0.9,0.1,1.7,0.2,2.5,0.3c0.3,0,2.4,0.3,3.1,1.2c0.2,0.3,0.3,0.8,0.4,1.2
		c0,0.4,0,0.7,0,1c0,0.2-0.1,0.4-0.1,0.4s0.5-0.2,0.9-1.1C23.4,25.2,21.6,24,21.6,24L21.6,24z M21.6,24"/>
</g>
</svg>
