<?xml version="1.0" encoding="utf-8"?>
<!-- Generator: Adobe Illustrator 19.0.0, SVG Export Plug-In . SVG Version: 6.00 Build 0)  -->
<svg version="1.1" id="Layer_1" xmlns="http://www.w3.org/2000/svg" xmlns:xlink="http://www.w3.org/1999/xlink" x="0px" y="0px"
	 viewBox="0 0 27.3 30" style="enable-background:new 0 0 27.3 30;" xml:space="preserve">
<style type="text/css">
	.{{$ctrl.id}}{fill:{{$ctrl.fill}};}
</style>
<path ng-class="{ '{{$ctrl.id}}': true}" d="M24.4,0.1l-13,4C9.9,4.5,8.6,6.2,8.6,7.7v13.7c0,0-0.9-0.6-3-0.3C2.5,21.5,0,23.9,0,26.4c0,2.5,2.5,4,5.6,3.6
	c3.1-0.4,5.3-2.7,5.3-5.2V13c0-1.1,1.3-1.6,1.3-1.6l11.5-3.6c0,0,1.3-0.4,1.3,0.8V18c0,0-1.2-0.7-3.3-0.4c-3.1,0.4-5.6,2.7-5.6,5.2
	c0,2.5,2.5,4,5.6,3.7c3.1-0.4,5.6-2.7,5.6-5.2V2.2C27.3,0.6,26-0.3,24.4,0.1L24.4,0.1z M24.4,0.1"/>
</svg>
