<?xml version="1.0" encoding="utf-8"?>
<!-- Generator: Adobe Illustrator 19.0.0, SVG Export Plug-In . SVG Version: 6.00 Build 0)  -->
<svg version="1.1" id="Layer_1" xmlns="http://www.w3.org/2000/svg" xmlns:xlink="http://www.w3.org/1999/xlink" x="0px" y="0px"
	 viewBox="0 0 31.3 30" style="enable-background:new 0 0 31.3 30;" xml:space="preserve">
<style type="text/css">
	.{{$ctrl.id}}{fill:{{$ctrl.fill}};}
</style>
<g>
	<g>
		<path ng-class="{ '{{$ctrl.id}}': true}" d="M21.7,15c-2.1-0.8-3.9-4.5-4.9-7c-1.9-5-3.8-8.1-9.3-8C0.4,0.2,0,6.7,0,6.7v21.7C0,29.3,0.7,30,1.6,30H29
			c0.9,0,1.8-0.7,1.9-1.6c0.6-3.6,1.2-12.2-5.3-12.6C24,15.7,22.7,15.4,21.7,15L21.7,15z M29.2,28.4H1.3v-6.1h1.6v4.5h1.7v-4.5h1.4
			v4.5h1.7v-4.5h1.4v4.5H11v-4.5h1.4v4.5h1.7v-4.5h1.4v4.5h1.7v-4.5h1.4v4.5h1.7v-4.5h1.4v4.5h1.7v-4.5H25v4.5h1.7v-4.5h2.5V28.4z
			 M29.2,28.4"/>
	</g>
</g>
</svg>
