<?xml version="1.0" encoding="utf-8"?>
<!-- Generator: Adobe Illustrator 19.0.0, SVG Export Plug-In . SVG Version: 6.00 Build 0)  -->
<svg version="1.1" id="Layer_1" xmlns="http://www.w3.org/2000/svg" xmlns:xlink="http://www.w3.org/1999/xlink" x="0px" y="0px"
	 viewBox="-36.1 2.4 35 30" style="enable-background:new -36.1 2.4 35 30;" xml:space="preserve">
<style type="text/css">
	.{{$ctrl.id}}{fill:{{$ctrl.fill}};}
</style>
<g>
	<g>
		<path ng-class="{ '{{$ctrl.id}}': true}" d="M-14.8,26.8c0-1.7-1.2-3.1-3-3.3c-0.3-2.3-2.2-4-4.5-4c-1.1,0-2.2,0.5-3,1.1c-0.8-0.9-1.9-1.6-3.3-1.6
			c-2,0-3.6,1.4-4,3.3c-1.9,0.2-3.6,1.9-3.6,4c0,2.3,1.9,4,4,4c0.5,0,0.9-0.2,1.4-0.3c0.8,1.1,1.9,1.9,3.3,1.9
			c0.8,0,1.6-0.3,2.2-0.6c0.8,0.8,1.7,1.1,2.8,1.1c1.6,0,3-0.9,3.7-2.3c0.2,0,0.5,0,0.6,0C-16.2,30.1-14.8,28.7-14.8,26.8
			L-14.8,26.8z"/>
		<path ng-class="{ '{{$ctrl.id}}': true}" d="M-13.5,17c-2.6-4.7-2.5-10.3,0-14.6c-2.5,0-5,0.6-7.3,1.9c-5,3-7.6,8.2-7.3,13.7c1.2,0,2.3,0.5,3.1,1.2
			c0.8-0.5,1.7-0.8,2.8-0.8c2.6,0,4.8,1.7,5.6,4.2c1.9,0.6,3.1,2.3,3.1,4.2c0,2-1.4,3.9-3.4,4.4c3.4,0.8,7.2,0.3,10.6-1.6
			c2.3-1.4,4-3.3,5.3-5.3C-6.1,24.2-10.9,21.7-13.5,17L-13.5,17z"/>
		<path ng-class="{ '{{$ctrl.id}}': true}" d="M-5.8,18.7l0.6-1.2l1.4-0.3l-1.1-0.9l0.2-1.4l-1.2,0.6l-1.2-0.6l0.3,1.6l-0.9,1.1h1.2L-5.8,18.7z"/>
		<path ng-class="{ '{{$ctrl.id}}': true}" d="M-33.7,15.3l0.9-0.5l0.9,0.5l0-1.1l0.8-0.8l-1.1-0.2l-0.6-0.9l-0.5,0.9l-1.1,0.2l0.8,0.8L-33.7,15.3z"/>
		<path ng-class="{ '{{$ctrl.id}}': true}" d="M-11.2,12.8l0.5,0.8l0.5-0.9l0.9-0.2l-0.8-0.6L-10,11l-0.8,0.5l-0.9-0.5l0.2,0.9l-0.6,0.6L-11.2,12.8z"/>
		<path ng-class="{ '{{$ctrl.id}}': true}" d="M-27.5,6.8l0.3,0.5l0.3-0.5l0.6-0.2l-0.6-0.3l0.2-0.6L-27.4,6l-0.5-0.3l0.2,0.6l-0.5,0.5H-27.5z"/>
	</g>
	<path ng-class="{ '{{$ctrl.id}}': true}" d="M-6.5,10.3l0.3,0.5l0.3-0.5l0.5-0.2l-0.5-0.5l0.2-0.6l-0.5,0.3l-0.5-0.3l0.2,0.6l-0.6,0.5L-6.5,10.3z"/>
</g>
</svg>
