<?xml version="1.0" encoding="utf-8"?>
<!-- Generator: Adobe Illustrator 19.0.0, SVG Export Plug-In . SVG Version: 6.00 Build 0)  -->
<svg version="1.1" id="Layer_1" xmlns="http://www.w3.org/2000/svg" xmlns:xlink="http://www.w3.org/1999/xlink" x="0px" y="0px"
	 viewBox="0 0 30 30" style="enable-background:new 0 0 30 30;" xml:space="preserve">
<style type="text/css">
	.{{$ctrl.id}}{fill:{{$ctrl.fill}};}
</style>
<g>
	<path ng-class="{ '{{$ctrl.id}}': true}" d="M27.3,2.7c-3.6-3.6-9.6-3.7-13.2,0L2.7,14c-3.6,3.6-3.6,9.6,0,13.2c3.6,3.6,9.6,3.7,13.2,0L27.3,16
		C30.9,12.3,30.9,6.4,27.3,2.7L27.3,2.7z M15.7,4.9c3-3,6.2-2.4,7.5-1.6c0.6,0.4,0.9,1.2,0.5,1.8c-0.4,0.6-1.2,0.9-1.8,0.5
		c-0.2-0.1-2.1-1-4.3,1.2l-3.5,3.5c-0.5,0.5-1.4,0.5-1.9,0c-0.5-0.5-0.5-1.4,0-1.9L15.7,4.9z M14,25.4c-2.6,2.6-6.8,2.6-9.4,0
		C2,22.8,2,18.6,4.6,16l4-4c0.7-0.7,2-0.7,2.7,0l6.7,6.7c0.7,0.7,0.7,2,0,2.7L14,25.4z M14,25.4"/>
</g>
</svg>
