<?xml version="1.0" encoding="utf-8"?>
<!-- Generator: Adobe Illustrator 19.0.0, SVG Export Plug-In . SVG Version: 6.00 Build 0)  -->
<svg version="1.1" id="Layer_1" xmlns="http://www.w3.org/2000/svg" xmlns:xlink="http://www.w3.org/1999/xlink" x="0px" y="0px"
	 viewBox="0 0 29.6 30" style="enable-background:new 0 0 29.6 30;" xml:space="preserve">
<style type="text/css">
	.{{$ctrl.id}}{fill:{{$ctrl.fill}};}
</style>
<g>
	<g>
		<path ng-class="{ '{{$ctrl.id}}': true}" d="M1.8,6.6c1.1,2.5,2.9,5,5.5,6.1c0.3,0.1,0.6,0.2,1,0.3c0.7-1,1.5-1.9,2.4-2.5c0.8-0.6,1.6-1,2.5-1.4
			c-0.2-0.2-0.5-0.3-0.8-0.5C11.3,8,10.1,7.5,9,7c1.1,0.3,2.3,0.4,3.3,0.8c0.6,0.2,1.2,0.6,1.8,0.9c1.6-0.6,3.3-0.8,5-1
			c-1.4-2.3-4.3-4.1-6.5-5c-2.3-0.9-4.9-1-7.5-1.2C3.5,1.3,1.8,0.7,0.5,0C0.2-0.1-0.1,0.2,0,0.5C0.6,2.4,0.9,4.7,1.8,6.6L1.8,6.6z
			 M1.8,6.6"/>
		<path ng-class="{ '{{$ctrl.id}}': true}" d="M28.9,6.3C26,7.8,22.7,8,19.5,8.4c-1.6,0.2-3.2,0.4-4.7,0.9c-0.3,0.1-0.6,0.2-1,0.3c-0.9,0.4-1.9,0.8-2.7,1.5
			c-0.8,0.6-1.5,1.3-2,2.1c-0.9,1.2-1.5,2.7-2,4.1c-0.9,2.7-1.4,5.5-1.3,8.4c0,1.2,0.1,2.4,0.3,3.5c0.1,0.2,0.1,0.6,0.3,0.7
			c0.3,0.2,0.7,0,0.6-0.4c-0.7-2.5-0.3-5.4,0.7-7.8c1.2-2.7,3.4-4.4,6.1-5.3c0.7-0.3,1.5-0.5,2.2-0.7c0,0,0,0,0,0
			c0.2,0,0.2,0.2,0.1,0.3c-0.9,0.4-1.8,0.8-2.6,1.2c-4.1,2.1-5.9,7.1-4.4,7.1c0.1,0,0.3,0,0.4-0.1c2.4-1,5.2-1,7.8-1.5
			c0.9-0.2,1.8-0.4,2.7-0.7c3.3-1.4,5.7-4.1,7.1-7.4c1.1-2.4,1.5-5.3,2.3-7.9c0.1-0.3-0.1-0.6-0.4-0.6C29.1,6.2,29,6.2,28.9,6.3
			L28.9,6.3z M28.9,6.3"/>
	</g>
</g>
</svg>
