<?xml version="1.0" encoding="utf-8"?>
<!-- Generator: Adobe Illustrator 19.0.0, SVG Export Plug-In . SVG Version: 6.00 Build 0)  -->
<svg version="1.1" id="Layer_1" xmlns="http://www.w3.org/2000/svg" xmlns:xlink="http://www.w3.org/1999/xlink" x="0px" y="0px"
	 viewBox="0 0 30 30" style="enable-background:new 0 0 30 30;" xml:space="preserve">
<style type="text/css">
	.{{$ctrl.id}}{fill:{{$ctrl.fill}};}
</style>
<g>
	<g>
		<path ng-class="{ '{{$ctrl.id}}': true}" d="M28,6.1c1.2-1.6,2-3.4,2-4.6c0-0.4-0.1-0.7-0.2-0.9c0,0-0.1-0.1-0.1-0.2c-0.1-0.1-0.1-0.1-0.2-0.1
			c-0.2-0.2-0.6-0.2-1-0.2c-1.2,0-2.9,0.7-4.6,2c-1.3,1-2.7,2.4-4.5,4.3c-0.3,0.3-0.6,0.7-1,1l-3.6-1.1l0,0c0.1-0.1,0.2-0.4,0.2-0.6
			c0-0.2-0.1-0.4-0.2-0.6l-0.6-0.6c-0.2-0.2-0.4-0.2-0.6-0.2c-0.2,0-0.4,0.1-0.6,0.2l-1,1l-0.5-0.2c0.1-0.1,0.2-0.3,0.2-0.5
			c0-0.2-0.1-0.4-0.2-0.6l-0.6-0.7c-0.1-0.1-0.4-0.2-0.6-0.2c-0.2,0-0.4,0.1-0.6,0.2L8.9,4.5L5.3,3.4c-0.1,0-0.2,0-0.3,0
			c-0.3,0-0.5,0.1-0.7,0.3L3,4.9C2.9,5.1,2.8,5.3,2.8,5.4C2.8,5.7,3,6,3.2,6.1l7.6,4.3c0,0,0.1,0.1,0.2,0.1l2.2,2.2
			c-2,2.1-3.9,4.2-5.3,6c-0.1,0.2-0.3,0.3-0.4,0.5l-5.9-0.5c0,0-0.1,0-0.1,0c-0.3,0-0.5,0.1-0.7,0.3l-0.6,0.6
			C0.1,19.7,0,19.9,0,20.1c0,0.3,0.2,0.6,0.4,0.7l4.2,2c0,0,0.1,0.1,0.2,0.1l0.3,0.3C5,23.5,4.9,23.8,4.9,24c0,0.3,0.1,0.6,0.3,0.8
			l0,0l0,0C5.4,25,5.7,25.1,6,25.1c0.2,0,0.5-0.1,0.8-0.2l0.4,0.4c0,0,0.1,0.1,0.1,0.2l2,4.1C9.3,29.8,9.6,30,9.9,30h0
			c0.2,0,0.4-0.1,0.5-0.2l0.6-0.6c0.2-0.2,0.3-0.5,0.3-0.7c0,0,0-0.1,0-0.1l-0.5-5.9c0.2-0.1,0.3-0.2,0.5-0.4c1.8-1.4,3.9-3.2,6-5.3
			l2.2,2.2c0,0,0.1,0.1,0.1,0.2l4.3,7.6c0.1,0.2,0.4,0.4,0.7,0.4c0.2,0,0.4-0.1,0.5-0.2l1.3-1.3c0.2-0.2,0.3-0.4,0.3-0.7
			c0-0.1,0-0.2,0-0.3l-1.1-3.6l0.9-0.9c0.1-0.1,0.2-0.4,0.2-0.6c0-0.2-0.1-0.4-0.2-0.6l-0.7-0.7c-0.1-0.1-0.4-0.2-0.6-0.2
			c-0.2,0-0.4,0.1-0.5,0.2l-0.2-0.5l1-1c0.1-0.1,0.2-0.4,0.2-0.6s-0.1-0.4-0.2-0.6l-0.6-0.6c-0.1-0.2-0.4-0.2-0.6-0.2
			c-0.2,0-0.4,0.1-0.6,0.2l0,0l-1.1-3.6c0.4-0.4,0.7-0.7,1.1-1C25.6,8.7,27,7.4,28,6.1L28,6.1z M28,6.1"/>
	</g>
</g>
</svg>
