<?xml version="1.0" encoding="utf-8"?>
<!-- Generator: Adobe Illustrator 19.0.0, SVG Export Plug-In . SVG Version: 6.00 Build 0)  -->
<svg version="1.1" id="Layer_1" xmlns="http://www.w3.org/2000/svg" xmlns:xlink="http://www.w3.org/1999/xlink" x="0px" y="0px"
	 viewBox="0 0 30 30" style="enable-background:new 0 0 30 30;" xml:space="preserve">
<style type="text/css">
	.{{$ctrl.id}}{fill:{{$ctrl.fill}};}
</style>
<g>
	<g>
		<path ng-class="{ '{{$ctrl.id}}': true}" d="M29.6,0c-0.7,0.2-2.2,1-4.5,2.4c-0.2,0.1-0.4,0.3-0.6,0.4l-4.7,3.9c-0.2,0.1-0.4,0.3-0.6,0.4L16,9
			c-0.2,0.1-0.4,0.3-0.6,0.4L15,9.8c-0.1,0.1-0.4,0.2-0.6,0.2L13,9.9l0.2-0.2c0.3-0.3,1.6-2.2,1.3-2.5c-0.3-0.3-2.2,0.9-2.5,1.3
			l-1.2,1.2L9.2,9.5L9.7,9c0.3-0.3,1.6-2.2,1.3-2.5c-0.3-0.3-2.2,0.9-2.5,1.3L6.9,9.3L5.6,9.2C5.4,9.2,5.1,9.3,5,9.4l-1.7,1.7
			c-0.1,0.1-0.1,0.4,0,0.5l5.6,5.6c0.1,0.1,0.1,0.4,0,0.5l-1.7,1.7c-0.1,0.1-0.4,0.2-0.6,0.2l-4.9-0.4c-0.2,0-0.5,0.1-0.6,0.2
			l-0.8,0.8C0.1,20.3,0,20.6,0,20.8V21c0,0.2,0.1,0.5,0.3,0.6l2.1,2.1c0.1,0.1,0.3,0.2,0.5,0c0.1-0.1,0.3-0.1,0.4,0
			c0.1,0.1,0.2,0.4,0.1,0.6l-0.2,0.6c-0.1,0.2,0,0.4,0.1,0.6l1.2,1.2c0.1,0.1,0.4,0.2,0.6,0.1l0.6-0.2c0.2-0.1,0.4,0,0.6,0.1
			c0.1,0.1,0.1,0.3,0,0.4c-0.1,0.1-0.1,0.3,0,0.5l2.1,2.1C8.6,29.9,8.8,30,9,30h0.2c0.2,0,0.5-0.1,0.6-0.3l0.8-0.8
			c0.1-0.1,0.2-0.4,0.2-0.6l-0.4-4.9c0-0.2,0.1-0.5,0.2-0.6l1.7-1.7c0.1-0.1,0.4-0.1,0.5,0l5.6,5.6c0.1,0.1,0.4,0.1,0.5,0l1.7-1.7
			c0.1-0.1,0.2-0.4,0.2-0.6l-0.1-1.4l1.5-1.5c0.3-0.3,1.6-2.2,1.3-2.5c-0.3-0.3-2.2,0.9-2.5,1.3l-0.5,0.5l-0.1-1.5l1.2-1.2
			c0.3-0.3,1.6-2.2,1.3-2.5c-0.3-0.3-2.2,0.9-2.5,1.3l-0.1,0.1L20,15.6c0-0.2,0.1-0.5,0.2-0.6l0.4-0.4c0.1-0.1,0.3-0.4,0.4-0.6
			l1.8-3.3c0.1-0.2,0.3-0.4,0.4-0.6l3.9-4.7c0.1-0.2,0.3-0.4,0.4-0.6C29.1,2.6,29.9,1,30,0.4C30,0.2,30,0,30,0C29.9,0,29.8,0,29.6,0
			L29.6,0z M29.6,0"/>
	</g>
</g>
</svg>
