<?xml version="1.0" encoding="utf-8"?>
<!-- Generator: Adobe Illustrator 19.0.0, SVG Export Plug-In . SVG Version: 6.00 Build 0)  -->
<svg version="1.1" id="Layer_1" xmlns="http://www.w3.org/2000/svg" xmlns:xlink="http://www.w3.org/1999/xlink" x="0px" y="0px"
	 viewBox="0 0 28.6 30" style="enable-background:new 0 0 28.6 30;" xml:space="preserve">
<style type="text/css">
	.{{$ctrl.id}}{fill:{{$ctrl.fill}};}
</style>
<g>
	<path ng-class="{ '{{$ctrl.id}}': true}" d="M6.3,6C7.5,6,8.4,5,8.4,3.9C8.4,2.4,6.3,0,6.3,0S4.2,2.4,4.2,3.9C4.2,5,5.1,6,6.3,6L6.3,6z M6.3,6"/>
	<path ng-class="{ '{{$ctrl.id}}': true}" d="M2.6,2.3C2.6,1.4,1.3,0,1.3,0S0,1.4,0,2.3c0,0.7,0.6,1.3,1.3,1.3C2,3.6,2.6,3.1,2.6,2.3L2.6,2.3z M2.6,2.3"/>
	<path ng-class="{ '{{$ctrl.id}}': true}" d="M16,1.7V1.5c0-0.6-0.5-1-1-1s-1,0.5-1,1v0.1c-1.6,0.1-3.1,0.5-4.5,1.1c0.1,0.3,0.2,0.7,0.2,1
		c0,1.8-1.5,3.3-3.3,3.3C5.6,7.1,5,6.9,4.5,6.6c-2,2.3-3.2,5.3-3.2,8.6c0-1.9,1.5-3.3,3.4-3.3c1.9,0,3.4,1.5,3.4,3.4
		c0-1.9,1.5-3.4,3.4-3.4c0.7,0,1.4,0.2,1.9,0.6V26c0,2.2,1.7,4,3.9,4h0.1c2.2-0.1,3.9-1.8,3.9-4c0-0.8-0.6-1.5-1.5-1.5
		c-0.8,0-1.5,0.7-1.5,1.5c0,0.6-0.5,1.1-1,1.1c-0.6,0-1-0.5-1-1.1V12.5c0.6-0.4,1.3-0.7,2-0.7c1.9,0,3.4,1.5,3.4,3.4
		c0-1.9,1.5-3.4,3.4-3.4c1.9,0,3.4,1.5,3.4,3.4c0,0,0,0.1,0,0.1C28.6,8.1,23.1,2.2,16,1.7L16,1.7z M16,1.7"/>
</g>
</svg>
