<?xml version="1.0" encoding="utf-8"?>
<!-- Generator: Adobe Illustrator 19.0.0, SVG Export Plug-In . SVG Version: 6.00 Build 0)  -->
<svg version="1.1" id="Layer_1" xmlns="http://www.w3.org/2000/svg" xmlns:xlink="http://www.w3.org/1999/xlink" x="0px" y="0px"
	 viewBox="0 0 22.6 30" style="enable-background:new 0 0 22.6 30;" xml:space="preserve">
<style type="text/css">
	.{{$ctrl.id}}{fill:{{$ctrl.fill}};}
</style>
<g>
	<path ng-class="{ '{{$ctrl.id}}': true}" d="M6.1,1.8c0-1,0.8-1.8,1.8-1.8c0.8,0,1.5,0.6,1.7,1.3c0,0,0,0,0.1,0c0.7,0,1.3,0.6,1.3,1.3c0,0.2,0,0.4-0.1,0.5
		h0c0.5,0,0.8,0.4,0.8,0.8c0,0.5-0.4,0.8-0.8,0.8c-0.5,0-0.8-0.4-0.8-0.8c0,0,0,0,0-0.1C10,4,9.8,4,9.7,4C9.2,4,8.8,3.8,8.6,3.4
		C8.4,3.5,8.1,3.6,7.9,3.6C6.9,3.6,6.1,2.8,6.1,1.8L6.1,1.8z M6.9,10.6H4.5c-0.4,0-0.8,0.3-0.8,0.8v5.2l7.6-3.6l7.6,3.6v-5.2
		c0-0.4-0.3-0.8-0.8-0.8h-2.4 M15.7,9.9V9.4c0-0.4-0.3-0.8-0.8-0.8H13l-0.3-3.1H9.9L9.6,8.6H7.7C7.3,8.6,6.9,9,6.9,9.4v0.5H15.7z
		 M11.3,13.8L0,19.3L3.3,29c1.6-0.7,3.6-1.4,5.6-1.4c3.3,0,5.9,1.6,9.4,2.4h0.6l3.7-10.7L11.3,13.8z M11.3,13.8"/>
</g>
</svg>
