<?xml version="1.0" encoding="utf-8"?>
<!-- Generator: Adobe Illustrator 19.0.0, SVG Export Plug-In . SVG Version: 6.00 Build 0)  -->
<svg version="1.1" id="Layer_1" xmlns="http://www.w3.org/2000/svg" xmlns:xlink="http://www.w3.org/1999/xlink" x="0px" y="0px"
	 viewBox="0 0 34.5 30" style="enable-background:new 0 0 34.5 30;" xml:space="preserve">
<style type="text/css">
	.{{$ctrl.id}}{fill:{{$ctrl.fill}};}
</style>
<g>
	<g>
		<path ng-class="{ '{{$ctrl.id}}': true}" d="M17.2,2.9c1.5,0,2.8-1,3.2-2.4c-0.9,0.2-2,0.4-3.2,0.4c-1.2,0-2.4-0.1-3.2-0.4C14.5,1.9,15.7,2.9,17.2,2.9
			L17.2,2.9z M17.2,2.9"/>
		<path ng-class="{ '{{$ctrl.id}}': true}" d="M34.4,4.6c-0.1-0.2-0.2-0.4-0.4-0.5l-6.6-3c-1.4-0.5-2.8-0.8-4.3-1.1c-0.1,0-0.1,0-0.2,0
			c-0.4,0-0.7,0.2-0.8,0.6c-0.5,2.3-2.6,4-5,4c-2.5,0-4.5-1.7-5-4C12.1,0.2,11.8,0,11.4,0c0,0-0.1,0-0.2,0C9.9,0.3,8.4,0.7,7,1.1
			l-6.6,3C0.3,4.3,0.1,4.4,0,4.6C0,4.8,0,5,0.1,5.2l2.9,5.6c0.1,0.3,0.4,0.4,0.7,0.4c0.1,0,0.1,0,0.2,0L7,10.3v18.9
			C7,29.7,7.4,30,7.8,30h18.9c0.4,0,0.8-0.3,0.8-0.8V10.3l3.2,0.9c0.1,0,0.1,0,0.2,0c0.3,0,0.6-0.2,0.7-0.4l2.9-5.6
			C34.5,5,34.5,4.8,34.4,4.6L34.4,4.6z M34.4,4.6"/>
	</g>
</g>
</svg>
