<?xml version="1.0" encoding="utf-8"?>
<!-- Generator: Adobe Illustrator 19.0.0, SVG Export Plug-In . SVG Version: 6.00 Build 0)  -->
<svg version="1.1" id="Layer_1" xmlns="http://www.w3.org/2000/svg" xmlns:xlink="http://www.w3.org/1999/xlink" x="0px" y="0px"
	 viewBox="0 0 52.5 30" style="enable-background:new 0 0 52.5 30;" xml:space="preserve">
<style type="text/css">
	.{{$ctrl.id}}{fill:{{$ctrl.fill}};}
</style>
<g>
	<g>
		<path ng-class="{ '{{$ctrl.id}}': true}" d="M52,21.8l-0.3-0.4l-0.2,0.4c-1.5,2.8-6.3,4.4-10.2,4.4c-4.9,0-29.1-0.7-32.3-0.9c-0.6,0-1.3-0.1-2-0.1
			c-0.5,0-0.9,0-1.4,0c-0.4,0-0.7,0-1.1,0c-1,0-1.9-0.3-2.5-0.5c-0.4-0.1-0.7-0.2-1-0.2c-0.2,0-0.4,0.1-0.5,0.2
			c-0.2,0.2-0.2,0.4-0.2,0.8c0,3.3,1.8,3.5,4.2,3.5c0.3,0,0.7,0,1.1,0c0.4,0,0.9,0,1.4,0c0.8,0,1.4,0,2,0.1
			c3.2,0.2,27.4,0.9,32.3,0.9c2.5,0,5.2-0.7,7.4-1.8c2.4-1.3,3.8-3,3.8-4.8C52.5,22.8,52.3,22.2,52,21.8L52,21.8z M52,21.8"/>
		<path ng-class="{ '{{$ctrl.id}}': true}" d="M4.3,23.7c0.3,0,0.7,0,1.1,0c0.4,0,0.9,0,1.3,0c0.8,0,1.4,0,2,0.1c3.1,0.2,27.2,0.9,32.1,0.9
			c2.5,0,5.2-0.7,7.3-1.8c2.4-1.3,3.8-3,3.8-4.8c0-2.7-3-3.5-6.3-4.4c-1.8-0.5-3.6-1-5.1-1.8c-0.7-0.4-1.7-0.9-3-1.6
			c0,0,0-0.1,0-0.1c0-1.1-0.9-2-2-2c-0.5,0-0.9,0.2-1.3,0.5c-0.5-0.2-0.9-0.5-1.4-0.7c0-1.1-0.9-1.9-2-1.9c-0.4,0-0.8,0.1-1.2,0.4
			c-0.4-0.2-0.9-0.4-1.3-0.6c0-0.1,0-0.2,0-0.2c0-1.1-0.9-2-2-2c-0.6,0-1.1,0.2-1.4,0.6c-4.3-2.1-7.7-3.7-8-3.9
			C16.6,0.1,16.4,0,16.2,0c-0.3,0-0.7,0.2-0.9,0.4l-2.3,3.1c-0.3,0.4-0.4,0.9-0.4,1.3c0.1,0.8,1,1.4,1.7,1.9C14.5,7,14.9,7.2,15,7.4
			l0,0c-0.4,0.4-1.6,0.9-3.4,0.9c-1,0-2.2-0.2-3.2-0.6C7.1,7.3,6.6,6,6.1,5C5.8,4.1,5.5,3.4,4.8,3.4c-0.5,0-1.1,0.5-2,1.6
			c-3,3.8-2.9,9.7-2.8,13.9c0,0.5,0,0.9,0,1.3C0.1,23.5,1.8,23.7,4.3,23.7L4.3,23.7z M29.5,11.8c0,0,0.4-0.4,0.9-0.2
			c0.4,0.1,1.4,0.4,2,0.5c0.5,0.1,0,0.5,0,0.5l-7.8,7.1c0,0-0.3,0.3-0.8,0.3c-0.8,0-2.3,0-2.9,0c-0.5,0-0.1-0.4-0.1-0.4
			S29.5,11.8,29.5,11.8L29.5,11.8z M23.6,10.2c0,0,0.6-0.6,1.3-0.4c0.4,0.1,1.2,0.3,1.8,0.5c0.5,0.1,0,0.6,0,0.6L17,19.6
			c0,0-0.2,0.4-1,0.4c-0.8,0-2.5,0-3.1,0c-0.4,0,0-0.4,0-0.4L23.6,10.2z M23.6,10.2"/>
	</g>
</g>
</svg>
