<?xml version="1.0" encoding="utf-8"?>
<!-- Generator: Adobe Illustrator 19.0.0, SVG Export Plug-In . SVG Version: 6.00 Build 0)  -->
<svg version="1.1" id="Layer_1" xmlns="http://www.w3.org/2000/svg" xmlns:xlink="http://www.w3.org/1999/xlink" x="0px" y="0px"
	 viewBox="0 0 28.6 30" style="enable-background:new 0 0 28.6 30;" xml:space="preserve">
<style type="text/css">
	.{{$ctrl.id}}{fill:{{$ctrl.fill}};}
</style>
<g>
	<g>
		<path ng-class="{ '{{$ctrl.id}}': true}" d="M14.3,7.4c-4.2,0-7.6,3.4-7.6,7.6s3.4,7.6,7.6,7.6c4.2,0,7.6-3.4,7.6-7.6C21.9,10.8,18.5,7.4,14.3,7.4
			L14.3,7.4z M14.3,7.4"/>
		<path ng-class="{ '{{$ctrl.id}}': true}" d="M25.6,15l2.8-3.7c0.2-0.3,0.2-0.6,0.1-0.9c-0.1-0.3-0.3-0.5-0.6-0.6l-4.5-1.4l0.1-4.7c0-0.3-0.1-0.6-0.4-0.8
			c-0.3-0.2-0.6-0.2-0.9-0.1l-4.4,1.5l-2.7-3.8C14.9,0.2,14.6,0,14.3,0c-0.3,0-0.6,0.2-0.8,0.4l-2.7,3.8L6.4,2.7
			C6.1,2.6,5.8,2.7,5.5,2.9C5.2,3.1,5.1,3.4,5.1,3.7l0.1,4.7L0.7,9.7C0.4,9.8,0.1,10.1,0,10.4c-0.1,0.3,0,0.6,0.1,0.9L3,15l-2.8,3.7
			C0,19-0.1,19.3,0,19.6c0.1,0.3,0.3,0.5,0.6,0.6l4.5,1.4l-0.1,4.7c0,0.3,0.1,0.6,0.4,0.8c0.3,0.2,0.6,0.2,0.9,0.1l4.4-1.5l2.7,3.8
			c0.2,0.3,0.5,0.4,0.8,0.4c0.3,0,0.6-0.2,0.8-0.4l2.7-3.8l4.4,1.5c0.3,0.1,0.6,0.1,0.9-0.1c0.3-0.2,0.4-0.5,0.4-0.8l-0.1-4.7
			l4.5-1.4c0.3-0.1,0.5-0.3,0.6-0.6c0.1-0.3,0-0.6-0.1-0.9L25.6,15z M14.3,24.6c-5.3,0-9.6-4.3-9.6-9.6c0-5.3,4.3-9.6,9.6-9.6
			c5.3,0,9.6,4.3,9.6,9.6C23.9,20.3,19.6,24.6,14.3,24.6L14.3,24.6z M14.3,24.6"/>
	</g>
</g>
</svg>
