<?xml version="1.0" encoding="utf-8"?>
<!-- Generator: Adobe Illustrator 19.0.0, SVG Export Plug-In . SVG Version: 6.00 Build 0)  -->
<svg version="1.1" id="Layer_1" xmlns="http://www.w3.org/2000/svg" xmlns:xlink="http://www.w3.org/1999/xlink" x="0px" y="0px"
	 viewBox="0 0 30 30" style="enable-background:new 0 0 30 30;" xml:space="preserve">
<style type="text/css">
	.{{$ctrl.id}}{fill:{{$ctrl.fill}};}
</style>
<g>
	<g>
		<path ng-class="{ '{{$ctrl.id}}': true}" d="M27,26.5c-0.5,0.4-0.8,1-0.8,1.6c0,0.7,0.5,1.4,1.1,1.7c0.2,0.1,0.5,0.1,0.7,0.1c1,0,1.9-0.8,1.9-1.9
			c0-1-0.8-1.9-1.9-1.9c0,0-0.1,0-0.1,0l-3.1-3.1l1.8-1.8c0.2-0.2,0.2-0.5,0-0.7L26,19.8c-0.2-0.2-0.5-0.2-0.7,0l-5.4,5.4
			c-0.2,0.2-0.2,0.5,0,0.7l0.7,0.7c0.2,0.2,0.5,0.2,0.7,0l1.8-1.8l2.6,2.6c0,0,0,0,0,0c0,0,0-0.1,0.1-0.1c0.1-0.1,0.2-0.2,0.3-0.3
			c0.2-0.2,0.4-0.3,0.6-0.4c0.2-0.1,0.3-0.1,0.5-0.2c0.1,0,0.2,0,0.2,0s-0.1,0-0.2,0.1C27.2,26.4,27.1,26.5,27,26.5L27,26.5z
			 M27,26.5"/>
		<path ng-class="{ '{{$ctrl.id}}': true}" d="M2.1,9.2c0.1,0.4,0.3,0.7,0.6,0.9l17.2,13L21,22L7.1,7.2l14.8,13.9l1.2-1.2L10.2,2.6C10,2.3,9.7,2.1,9.3,2
			L0.6,0C0.2-0.1-0.1,0.2,0,0.6L2.1,9.2z M2.1,9.2"/>
	</g>
</g>
</svg>
