<?xml version="1.0" encoding="utf-8"?>
<!-- Generator: Adobe Illustrator 19.0.0, SVG Export Plug-In . SVG Version: 6.00 Build 0)  -->
<svg version="1.1" id="Layer_1" xmlns="http://www.w3.org/2000/svg" xmlns:xlink="http://www.w3.org/1999/xlink" x="0px" y="0px"
	 viewBox="0 0 48.7 30" style="enable-background:new 0 0 48.7 30;" xml:space="preserve">
<style type="text/css">
	.{{$ctrl.id}}{fill:{{$ctrl.fill}};}
</style>
<g>
	<path ng-class="{ '{{$ctrl.id}}': true}" d="M27.1,9.5c0-0.5-0.1-1-0.2-1.5h21.8V5.4H25.3c-0.8-0.7-1.7-1.2-2.8-1.4V2.8c0,0,0.1,0,0.1-0.1
		c0-1.5-1.2-2.7-2.8-2.7H8.2v4.6C6.4,5.5,5.3,7.4,5.3,9.5c0,0,0,0,0,0.1c0.3,0,0.7-0.1,1.1-0.1H27.1z M27.1,9.5"/>
	<path ng-class="{ '{{$ctrl.id}}': true}" d="M43.3,24.7L43.3,24.7c3-0.5,5.2-3.1,5.2-6.2v-0.1c0-3.5-2.8-6.3-6.2-6.3h-36C2.9,12.1,0,15,0,18.5v0.1
		c0,3.1,2.3,5.7,5.2,6.2v0c0,1,0.3,1.9,0.7,2.7c0.9,1.6,2.6,2.6,4.6,2.6H38c2,0,3.6-1.1,4.5-2.6C43,26.6,43.3,25.7,43.3,24.7
		L43.3,24.7z M28.8,27.3c-1.5,0-2.7-1.2-2.7-2.7c0-1.5,1.2-2.7,2.7-2.7c1.5,0,2.7,1.2,2.7,2.7C31.4,26.1,30.2,27.3,28.8,27.3
		L28.8,27.3z M17.1,24.6c0-1.5,1.2-2.7,2.7-2.7c1.5,0,2.7,1.2,2.7,2.7c0,1.5-1.2,2.7-2.7,2.7C18.3,27.3,17.1,26.1,17.1,24.6
		L17.1,24.6z M8.1,24.6c0-1.5,1.2-2.7,2.7-2.7c1.5,0,2.7,1.2,2.7,2.7c0,1.5-1.2,2.7-2.7,2.7C9.3,27.3,8.1,26.1,8.1,24.6L8.1,24.6z
		 M37.8,27.3c-1.5,0-2.7-1.2-2.7-2.7c0-1.5,1.2-2.7,2.7-2.7c1.5,0,2.7,1.2,2.7,2.7C40.4,26.1,39.2,27.3,37.8,27.3L37.8,27.3z
		 M37.8,27.3"/>
</g>
</svg>
