<?xml version="1.0" encoding="utf-8"?>
<!-- Generator: Adobe Illustrator 19.0.0, SVG Export Plug-In . SVG Version: 6.00 Build 0)  -->
<svg version="1.1" id="Layer_1" xmlns="http://www.w3.org/2000/svg" xmlns:xlink="http://www.w3.org/1999/xlink" x="0px" y="0px"
	 viewBox="0 0 26.3 30" style="enable-background:new 0 0 26.3 30;" xml:space="preserve">
<style type="text/css">
	.{{$ctrl.id}}{fill:{{$ctrl.fill}};}
</style>
<g>
	<path ng-class="{ '{{$ctrl.id}}': true}" d="M25.5,8.9c0-2.3-1.7-4.1-3.9-4.4c-0.6-1.7-2.2-2.9-4.1-2.9c-0.8,0-1.6,0.2-2.3,0.6C14.4,0.9,13,0,11.3,0
		C9.1,0,7.3,1.6,7,3.7c-0.2,0-0.4,0-0.5,0C4,3.7,2,5.6,2,8.1c0,0.1,0,0.2,0,0.4C0.8,9.2,0,10.6,0,12.1c0,1.4,0.6,2.6,1.6,3.4
		c0,0.1,0,0.2,0,0.2c0,2.4,2,4.4,4.4,4.4c0.7,0,1.4-0.2,2-0.5c0.8,0.6,2,1.4,2.6,1.2c0,0,0.2,3.4,0.2,4.2c-0.1,1.6-0.6,3.4-0.9,4.9
		h5.3c0,0-0.8-3.3-0.8-4.3c0-1.1,0.3-3.1,0.3-3.1l1.8-1.9c0.7,0.5,1.6,0.8,2.5,0.8c2.3,0,4.1-1.7,4.4-3.9c1.7-0.6,2.9-2.2,2.9-4.1
		c0-1.1-0.4-2.1-1.1-2.9C25.4,10,25.5,9.4,25.5,8.9L25.5,8.9z M9.1,19c0.4-0.3,0.6-0.7,0.9-1.2l0.9,1.8C10.8,19.6,10.3,19.8,9.1,19
		L9.1,19z M12.3,20.1c-0.4,0.1-1.2-1.3-1.7-2.4c0.6,0.3,1.3,0.5,2,0.5c0.2,0,0.4,0,0.5,0C13,19,12.7,20,12.3,20.1L12.3,20.1z
		 M14.2,21c-1,0.3-0.4-1.9-0.1-3.1c0.2-0.1,0.4-0.2,0.6-0.3c0.1,0.9,0.5,1.7,1.1,2.4C15.3,20.4,14.7,20.8,14.2,21L14.2,21z M14.2,21
		"/>
</g>
</svg>
