<?xml version="1.0" encoding="utf-8"?>
<!-- Generator: Adobe Illustrator 19.0.0, SVG Export Plug-In . SVG Version: 6.00 Build 0)  -->
<svg version="1.1" id="Layer_1" xmlns="http://www.w3.org/2000/svg" xmlns:xlink="http://www.w3.org/1999/xlink" x="0px" y="0px"
	 viewBox="0 0 31.3 30" style="enable-background:new 0 0 31.3 30;" xml:space="preserve">
<style type="text/css">
	.{{$ctrl.id}}{fill:{{$ctrl.fill}};}
</style>
<g>
	<path ng-class="{ '{{$ctrl.id}}': true}" d="M7.3,5.7l12.5-3.4L19.1,1c-0.4-0.9-1.5-1.2-2.4-0.8L5.6,5.7H7.3z M7.3,5.7"/>
	<path ng-class="{ '{{$ctrl.id}}': true}" d="M23.6,2.4c-0.2,0-0.3,0-0.5,0.1l-2.9,0.8l-8.9,2.4h14.6l-0.5-2C25.1,2.9,24.4,2.4,23.6,2.4L23.6,2.4z
		 M23.6,2.4"/>
	<path ng-class="{ '{{$ctrl.id}}': true}" d="M27.7,6.9H1.8c-0.6,0-1,0.3-1.4,0.7C0.2,7.8,0.1,8,0.1,8.2C0,8.4,0,8.5,0,8.7v19.6c0,1,0.8,1.8,1.8,1.8h25.9
		c1,0,1.8-0.8,1.8-1.8v-4.9H19c-1.6,0-3-1.3-3-3v-3.9c0-0.8,0.3-1.5,0.8-2.1c0.5-0.5,1.1-0.8,1.8-0.9c0.1,0,0.2,0,0.4,0h10.4V8.7
		C29.5,7.7,28.7,6.9,27.7,6.9L27.7,6.9z M27.7,6.9"/>
	<path ng-class="{ '{{$ctrl.id}}': true}" d="M30.7,15.2c-0.2-0.2-0.4-0.3-0.6-0.4c-0.2-0.1-0.4-0.1-0.6-0.1H19c-1,0-1.8,0.8-1.8,1.8v3.9
		c0,1,0.8,1.8,1.8,1.8h10.5c0.2,0,0.4,0,0.6-0.1c0.2-0.1,0.4-0.2,0.6-0.4c0.4-0.3,0.6-0.8,0.6-1.3v-3.9C31.3,15.9,31,15.5,30.7,15.2
		L30.7,15.2z M22.7,18.8c0,0.5-0.4,0.9-0.9,0.9h-0.6c-0.5,0-0.9-0.4-0.9-0.9v-0.6c0-0.3,0.1-0.5,0.3-0.7c0.2-0.1,0.3-0.2,0.5-0.2
		h0.6c0.5,0,0.9,0.4,0.9,0.9V18.8z M22.7,18.8"/>
</g>
</svg>
