<?xml version="1.0" encoding="utf-8"?>
<!-- Generator: Adobe Illustrator 19.0.0, SVG Export Plug-In . SVG Version: 6.00 Build 0)  -->
<svg version="1.1" id="Øàð_1" xmlns="http://www.w3.org/2000/svg" xmlns:xlink="http://www.w3.org/1999/xlink" x="0px" y="0px"
	 viewBox="0 0 19.6 30" style="enable-background:new 0 0 19.6 30;" xml:space="preserve">
<style type="text/css">
	.{{$ctrl.id}}{fill:{{$ctrl.fill}};}
</style>
<path ng-class="{ '{{$ctrl.id}}': true}" d="M9.5,0.8c-1.1,0-2.1-0.1-2.9-0.2C7.6,0.2,8.7,0,9.8,0c1.1,0,2.2,0.2,3.1,0.5c-0.8,0.1-1.9,0.2-2.9,0.2
	c-0.1,0-0.2,0-0.3,0C9.7,0.7,9.6,0.7,9.5,0.8z M6.1,10.3c0,2,0.4,6.3,3.2,13h0.9c3.1-7.5,3.2-12.5,3.2-13c0-5.1-1.9-8.4-3.7-8.4
	C8,1.8,6.1,5.2,6.1,10.3z M11.7,24.4h0.5v0.9v0.4V28c0,1.1-0.9,2-2,2H9.3c-1.1,0-2-0.9-2-2v-2.4v-0.4v-0.9h0.5v0.9h3.9V24.4z
	 M10.2,25.8l0.5,0.5l0.5-0.5H10.2z M10.7,27.1l-0.5,0.5l0.5,0.5l0.5-0.5L10.7,27.1z M9.8,26.2l-0.5,0.5l0.6,0.5l0.5-0.5L9.8,26.2z
	 M8.9,27.1l-0.6,0.6l0.6,0.6l0.6-0.6L8.9,27.1z M8.3,25.8l0.5,0.5l0.5-0.5H8.3z M7.9,27.2L7.9,27.2l0.6-0.5l-0.6-0.5l-0.1,0.1V27.2z
	 M8.5,28.6L7.9,28l-0.1,0.1c0,0.3,0.1,0.6,0.3,0.8L8.5,28.6z M9.4,29.5L8.9,29l-0.3,0.3C8.8,29.4,9.1,29.5,9.4,29.5L9.4,29.5z
	 M9.8,29.1l0.6-0.6L9.8,28l-0.6,0.6L9.8,29.1z M11,29.2l-0.3-0.3l-0.5,0.5h0C10.5,29.5,10.8,29.4,11,29.2z M11.7,28.1L11.7,28.1
	l-0.6,0.5l0.3,0.3C11.6,28.6,11.7,28.4,11.7,28.1z M11.7,26.2L11.7,26.2l-0.6,0.5l0.5,0.5l0.1-0.1V26.2z M14.5,1.2
	c-0.7,0.2-1.6,0.4-2.6,0.5c1.6,1.5,2.6,4.8,2.6,8.6c0,2.5-0.8,7.3-3.1,13h1c4.8-6.1,7.2-9.1,7.2-13.5C19.6,6.1,17.5,2.9,14.5,1.2z
	 M5,10.3c0-3.8,1-7,2.6-8.5C6.6,1.7,5.7,1.5,5,1.2C2,2.9,0,6.1,0,9.8c0,4.4,2,7.1,7.2,13.5h1C5.5,16.6,5,12.3,5,10.3z"/>
</svg>
