<?xml version="1.0" encoding="utf-8"?>
<!-- Generator: Adobe Illustrator 19.0.0, SVG Export Plug-In . SVG Version: 6.00 Build 0)  -->
<svg version="1.1" id="Layer_1" xmlns="http://www.w3.org/2000/svg" xmlns:xlink="http://www.w3.org/1999/xlink" x="0px" y="0px"
	 viewBox="0 0 45.6 30" style="enable-background:new 0 0 45.6 30;" xml:space="preserve">
<style type="text/css">
	.{{$ctrl.id}}{fill:{{$ctrl.fill}};}
</style>
<g>
	<path ng-class="{ '{{$ctrl.id}}': true}" d="M37.6,14.1c-0.6,0-1.2,0.1-1.7,0.2l0.7,1.9c0.3-0.1,0.7-0.1,1-0.1c1.6,0,3.1,0.7,4.2,1.7
		c1.1,1.1,1.7,2.5,1.7,4.2c0,1.6-0.7,3.1-1.7,4.2c-1.1,1.1-2.5,1.7-4.2,1.7c-1.6,0-3.1-0.7-4.2-1.7c-1.1-1.1-1.7-2.5-1.7-4.2
		c0-1.6,0.7-3.1,1.7-4.2l0.5,1.4c0,0.1,0.1,0.2,0.2,0.3l2.7,3.1c0.4,0.4,1,0.5,1.4,0.1c0.4-0.4,0.5-1,0.1-1.4l-2.6-3l-6-17.6
		c-0.1-0.4-0.5-0.7-0.9-0.7L24.5,0c-0.6,0-1,0.4-1,1c0,0.6,0.4,1,1,1l3.6,0.1l2.9,8.4c-0.2,0.1-0.4,0.3-0.6,0.5
		c-0.7,0.6-1.3,1.4-1.8,2.3c-0.8,1.3-1.4,2.8-2,4.2c-0.3,0.7-0.6,1.3-0.9,1.9c-0.3,0.5-0.5,1-0.8,1.3c-0.4,0.5-0.8,0.8-1,1
		c-0.7-1.3-2-2.1-3.5-2.1c-0.1,0-0.2,0-0.3,0L15.5,8.6c0.1-0.1,0.1-0.3,0.1-0.4l0,0c0-0.1,0-0.1,0-0.3l1.8-0.4
		c0.2,0,0.4-0.2,0.5-0.4C18,6.9,18,6.6,17.9,6.4l-0.4-1.2c-0.1-0.3-0.4-0.5-0.7-0.5h-6.4c-0.3,0-0.5,0.1-0.7,0.4L9.3,5.8
		c-0.2,0.4-0.1,0.8,0.2,1l2.4,1.5c0.2,0.1,0.4,0.1,0.6,0.1l0.2,0L13.1,9c0.1,0.2,0.3,0.2,0.4,0.3l1.1,2.7l-7.5,9.3
		c0,0-0.1,0.1-0.1,0.1c-0.1,0.1-0.2,0.3-0.2,0.4c-0.1,0.6,0.3,1.1,0.8,1.2l8.8,1.6c0.5,1.6,2,2.9,3.8,2.9c0.7,0,1.3-0.2,1.9-0.5
		l1.2,1.4c0.1,0.2,0.4,0.3,0.6,0.3h1.4c0.4,0,0.8-0.3,0.8-0.8c0-0.4-0.3-0.8-0.8-0.8h-1l-0.9-1.2c0.5-0.6,0.8-1.4,0.9-2.3
		c0,0,0.1,0,0.1-0.1c0.6-0.3,1.3-0.9,2.1-1.8c0.6-0.7,1-1.6,1.5-2.6c0.7-1.5,1.4-3.2,2.2-4.6c0.4-0.7,0.8-1.3,1.2-1.8
		c0.1-0.1,0.2-0.2,0.3-0.3l1.1,3.3c-1.9,1.5-3.1,3.7-3.1,6.2c0,4.4,3.6,7.9,7.9,7.9c4.4,0,7.9-3.6,7.9-7.9
		C45.6,17.7,42,14.1,37.6,14.1z M9.8,21.3l2.5-3.2c0.9,1,1.5,2.4,1.5,3.9L9.8,21.3z M16.5,22.5l-0.6-0.1c0-0.1,0-0.2,0-0.3
		c0-2.2-0.9-4.1-2.3-5.6l1.9-2.4l2.5,6.1C17.3,20.7,16.7,21.5,16.5,22.5z M22.1,24.3L21,22.9c-0.3-0.3-0.8-0.4-1.1-0.1
		c-0.3,0.3-0.4,0.8-0.1,1.1l1.1,1.3c-0.2,0.1-0.4,0.1-0.6,0.1c-0.5,0-1-0.2-1.4-0.6c-0.3-0.4-0.6-0.8-0.6-1.4c0-0.5,0.2-1,0.6-1.4
		c0.4-0.3,0.8-0.6,1.4-0.6c0.5,0,1,0.2,1.4,0.6c0.3,0.4,0.6,0.8,0.6,1.4C22.2,23.7,22.2,24,22.1,24.3z"/>
	<path ng-class="{ '{{$ctrl.id}}': true}" d="M12.1,26.2C11.1,27.3,9.6,28,8,28c-1.6,0-3.1-0.7-4.2-1.7c-1.1-1.1-1.7-2.5-1.7-4.2c0-1.6,0.7-3.1,1.7-4.2
		c1.1-1.1,2.5-1.7,4.2-1.7c0.4,0,0.8,0,1.2,0.1l1.4-1.7c-0.8-0.3-1.7-0.4-2.6-0.4c-4.4,0-7.9,3.6-7.9,7.9C0,26.4,3.6,30,8,30
		c3,0,5.6-1.7,7-4.2l-2.2-0.4C12.6,25.7,12.4,26,12.1,26.2z"/>
	<path ng-class="{ '{{$ctrl.id}}': true}" d="M33.7,9l4.5,0.6c0.4,0,0.7-0.2,0.8-0.5l1.8-5.8c0.1-0.2,0-0.5-0.1-0.7c-0.1-0.2-0.4-0.3-0.6-0.3L34.1,2
		c-0.4,0-0.8,0.3-0.8,0.7l-0.2,5.5C33,8.6,33.3,8.9,33.7,9z"/>
	<path ng-class="{ '{{$ctrl.id}}': true}" d="M0.6,12.8l1.6,0.5c0.1,0,0.1,0,0.2,0h8.9c0.2,0,0.3-0.1,0.5-0.2l0.6-0.5c0.3-0.3,0.4-0.7,0.2-1.1
		c-0.3-0.3-0.7-0.4-1.1-0.2L11,11.7H2.5L1,11.3c-0.4-0.1-0.8,0.1-0.9,0.5C-0.1,12.2,0.2,12.7,0.6,12.8z"/>
</g>
</svg>
