<?xml version="1.0" encoding="utf-8"?>
<!-- Generator: Adobe Illustrator 19.0.0, SVG Export Plug-In . SVG Version: 6.00 Build 0)  -->
<svg version="1.1" id="Øàð_1" xmlns="http://www.w3.org/2000/svg" xmlns:xlink="http://www.w3.org/1999/xlink" x="0px" y="0px"
	 viewBox="0 0 49.9 30" style="enable-background:new 0 0 49.9 30;" xml:space="preserve">
<style type="text/css">
	.{{$ctrl.id}}{fill:{{$ctrl.fill}};}
</style>
<g>
	<path ng-class="{ '{{$ctrl.id}}': true}" d="M21.7,6.1c3.4,1.3,7,2.5,14.6,0.7c1.3-0.3,2.6-0.5,3.8-0.7c-0.2,2.4-9.8,4.7-12.1,5.1
		C23.7,9.2,21.1,8.1,21.7,6.1z M49.9,22.2c0,4.3-3.5,7.8-7.8,7.8c-4.3,0-7.8-3.5-7.8-7.8c0-0.3,0-0.5,0-0.7l-1.7-0.4
		C32.5,22,32.6,23,32.6,23s-2.7,0-5.6,0c-2.9,0-5.4-1.2-6.7-4.5c-0.8-2-1.7-3.8-3.2-5.4c-2.4-2.4-5.7-3.9-9.3-3.9
		C6.4,9.2,5,9.4,3.6,9.9C3,10.1,2.4,9.8,2.2,9.2C2,8.6,2.3,8,2.9,7.8C4.5,7.3,6.1,7,7.8,7c1.9,0,3.7,0.3,5.3,1
		C14,6.2,15,4.7,16.9,4.7c1,0,2,0.4,3.2,0.8L20,5.7c-0.8,3.2,2.3,4.7,6.5,6.7l1.2,0.6l0.6-0.1c8.7-1.8,13.3-4,13.4-6.7l0-0.3
		c1.1-0.1,2.1-0.2,3.1-0.2h4.5c0,0.6-1.9,1.7-3.9,2.6l0.7,1.4l-8.4,4c-2.5,1.2-4.1,3.6-4.6,5.1l1.7,0.4c1.1-2.9,4-5,7.3-5
		C46.4,14.4,49.9,17.9,49.9,22.2z M47.4,22.2c0-2.9-2.4-5.3-5.3-5.3c-2.1,0-3.9,1.2-4.8,3l2.7,0.6c0.5-0.6,1.2-1,2-1
		c1.5,0,2.6,1.2,2.6,2.6c0,1.5-1.2,2.6-2.6,2.6c-1.3,0-2.4-1-2.6-2.2L36.8,22c0,0.1,0,0.1,0,0.2c0,2.9,2.4,5.3,5.3,5.3
		C45,27.5,47.4,25.1,47.4,22.2z M17,3.1c0.7,0,1.4,0.1,2,0.3l0.7-1.3l2.2,0c0,0,0,0,0,0c0.5,0,0.8-0.4,0.8-0.8
		c0-0.5-0.4-0.8-0.8-0.8l-2,0c-0.1-0.1-0.2-0.2-0.3-0.3c-0.5-0.3-1.2-0.1-1.5,0.5l-1.3,2.5c0,0,0.1,0,0.1,0L17,3.1z M15.6,22.2
		c0,4.3-3.5,7.8-7.8,7.8C3.5,30,0,26.5,0,22.2c0-4.3,3.5-7.8,7.8-7.8c1,0,1.9,0.2,2.7,0.5l1.7-3.2c0.7,0.3,1.3,0.7,1.9,1.1l-1.7,3.2
		C14.3,17.3,15.6,19.6,15.6,22.2z M13.1,22.2c0-1.6-0.7-3-1.9-4l-1.3,2.5c0.3,0.4,0.5,1,0.5,1.5c0,1.5-1.2,2.6-2.6,2.6
		c-1.5,0-2.6-1.2-2.6-2.6c0-1.5,1.2-2.6,2.6-2.6c0.1,0,0.2,0,0.3,0l1.3-2.5c-0.5-0.1-1-0.2-1.5-0.2c-2.9,0-5.3,2.4-5.3,5.3
		c0,2.9,2.4,5.3,5.3,5.3S13.1,25.1,13.1,22.2z"/>
</g>
</svg>
