<?xml version="1.0" encoding="utf-8"?>
<!-- Generator: Adobe Illustrator 19.0.0, SVG Export Plug-In . SVG Version: 6.00 Build 0)  -->
<svg version="1.1" id="Layer_1" xmlns="http://www.w3.org/2000/svg" xmlns:xlink="http://www.w3.org/1999/xlink" x="0px" y="0px"
	 viewBox="0 0 49.9 30" style="enable-background:new 0 0 49.9 30;" xml:space="preserve">
<style type="text/css">
	.{{$ctrl.id}}{fill:{{$ctrl.fill}};}
</style>
<path ng-class="{ '{{$ctrl.id}}': true}" d="M8,29.8c3.6,0,6.7-2.4,7.7-5.8l-3.8,0.7c-0.9,1.2-2.3,2-3.9,2c-2.7,0-4.9-2.2-4.9-4.9c0-2.7,2.2-4.9,4.9-4.9
	c1.3,0,2.4,0.5,3.3,1.3l3.4-0.7c-1.4-2.2-3.9-3.7-6.7-3.7c-4.4,0-8,3.6-8,8C0,26.2,3.6,29.8,8,29.8z"/>
<path ng-class="{ '{{$ctrl.id}}': true}" d="M5.8,22.6c0.3,1.3,1.4,2.2,2.6,2.2c0.2,0,0.3,0,0.5-0.1l8.5-1.7v-5.4l-9.5,1.9C6.5,19.8,5.5,21.2,5.8,22.6z"/>
<path ng-class="{ '{{$ctrl.id}}': true}" d="M2.6,8.3c0.6,0.9,1.4,1.6,2.4,2l13.3,5.9v7.7c0,1.8,1.4,3.2,3.2,3.2h11.7c-1-1.5-1.5-3.4-1.5-5.3
	c0-5.5,4.5-10,10-10c0.5,0,1,0,1.4,0.1l2.5-1.7V8.5c0-3.4-2-6.5-5.2-7.7c-1.9-0.7-4.3-1.1-7.2-0.4c-0.7,0.2-1,1.1-0.5,1.6
	c0.7,0.9,1.4,2.1,0.6,3.5l-0.9-0.2c-0.5-0.1-1.1-0.2-1.6-0.2V4.9c0-0.2-0.2-0.4-0.4-0.4h-2c-0.2,0-0.4,0.2-0.4,0.4v0.3
	c-3.8,0.5-5.8,2.4-6.4,3.1c-0.3-0.3-0.6-0.5-1.1-0.5c-0.4,0-0.7,0.1-0.9,0.4c-0.3-0.4-0.7-0.6-1.2-0.6c-0.2,0-0.4,0.1-0.6,0.1
	c-0.3-0.4-0.7-0.6-1.2-0.6c-0.2,0-0.4,0-0.6,0.1c-0.3-0.4-0.7-0.6-1.2-0.6c-0.2,0-0.3,0-0.5,0.1c-0.2-0.5-0.7-0.9-1.3-0.9
	c-0.3,0-0.6,0.1-0.8,0.2c-0.7-0.4-1.3-0.9-1.9-1.5c-1-0.9-2.2-1.4-3.6-1.4H5.2c-0.5,0-0.9,0.1-1.3,0.3H2.3c-0.5,0-1,0.5-1,1.2v2.4
	C1.4,7.9,2,8.5,2.6,8.3z M44.7,5.6c0.4,1,0.6,2,0.6,3.1v0.8c-3.5-1.9-4.3-4.2-4.3-4.2L44.7,5.6z"/>
<path ng-class="{ '{{$ctrl.id}}': true}" d="M40.6,14.1l1.7,3c2.5,0.2,4.5,2.3,4.5,4.9c0,2.7-2.2,4.9-4.9,4.9c-2.7,0-4.9-2.2-4.9-4.9c0-0.8,0.2-1.5,0.5-2.1
	l-1.7-3c-1.2,1.4-1.9,3.2-1.9,5.1c0,4.4,3.6,8,8,8s8-3.6,8-8c0-4.4-3.6-8-8-8C41.5,14,41,14,40.6,14.1z"/>
<path ng-class="{ '{{$ctrl.id}}': true}" d="M41.9,24.2c0.4,0,0.7-0.1,1.1-0.3c1.1-0.6,1.4-1.9,0.8-3l-4.6-8.1c-1.4,0.4-2.7,1.2-3.8,2.2l4.6,8.1
	C40.4,23.8,41.1,24.2,41.9,24.2z"/>
</svg>
