<?xml version="1.0" encoding="utf-8"?>
<!-- Generator: Adobe Illustrator 19.0.0, SVG Export Plug-In . SVG Version: 6.00 Build 0)  -->
<svg version="1.1" id="Layer_1" xmlns="http://www.w3.org/2000/svg" xmlns:xlink="http://www.w3.org/1999/xlink" x="0px" y="0px"
	 viewBox="0 0 30.2 30" style="enable-background:new 0 0 30.2 30;" xml:space="preserve">
<style type="text/css">
	.{{$ctrl.id}}{fill:{{$ctrl.fill}};}
</style>
<g>
	<path ng-class="{ '{{$ctrl.id}}': true}" d="M0,30h25.2l5.1-6.9L1.6,25.9C0.7,25.9,0,26.7,0,27.6V30z"/>
	<polygon ng-class="{ '{{$ctrl.id}}': true}" points="10.6,25.5 10.6,0 12.3,0.7 12.3,25.5 	"/>
	<path ng-class="{ '{{$ctrl.id}}': true}" d="M30.2,22c0,0-10.6-4.1-17.3,1.7c0,0,3.3-10.5,0-21.2C12.9,2.5,21.2,4.8,30.2,22z"/>
	<path ng-class="{ '{{$ctrl.id}}': true}" d="M9.8,2.5c0,0-3.5,13.3,0,21.2c0,0-4.9-2.7-9.8,1.3C0,25,0.8,13.7,9.8,2.5z"/>
</g>
</svg>
