<?xml version="1.0" encoding="utf-8"?>
<!-- Generator: Adobe Illustrator 19.0.0, SVG Export Plug-In . SVG Version: 6.00 Build 0)  -->
<svg version="1.1" id="Layer_1" xmlns="http://www.w3.org/2000/svg" xmlns:xlink="http://www.w3.org/1999/xlink" x="0px" y="0px"
	 viewBox="0 0 30.5 30" style="enable-background:new 0 0 30.5 30;" xml:space="preserve">
<style type="text/css">
	.{{$ctrl.id}}{fill:{{$ctrl.fill}};}
</style>
<path ng-class="{ '{{$ctrl.id}}': true}" d="M0,27.1c0,0,0.8,1,1.2,1.5C1.8,29.1,2.6,30,3.5,30l21.7,0c1.9,0,5.3-4.1,5.3-4.1l-17,0.6v-1.6
	c2.6-0.6,8.5-2.1,14.2,0.5C25.1,14.8,23,9.3,13.5,4.1V0.8c0-0.5-0.4-0.8-0.8-0.8c-0.5,0-0.8,0.4-0.8,0.8v0.7
	c-0.4-0.1-0.9-0.1-1.2-0.1C9.4,1.4,8.2,2,6.7,2c-1,0-1.9-0.3-1.9-0.3S6.1,2.9,8.5,3C7.7,4,4.8,4.2,4.8,4.2s0.9,0.3,1.9,0.3
	c1.5,0,2.6-0.6,3.8-0.6c0.4,0,0.8,0.1,1.2,0.1v2.3c-1,7.6-1.9,12.3-7.3,18.8h7.3v1.4L0,27.1z M13.5,5.3c2.9,3.8,5.1,10.7,0,18.2V5.3
	z"/>
</svg>
