<?xml version="1.0" encoding="utf-8"?>
<!-- Generator: Adobe Illustrator 19.0.0, SVG Export Plug-In . SVG Version: 6.00 Build 0)  -->
<svg version="1.1" id="Layer_1" xmlns="http://www.w3.org/2000/svg" xmlns:xlink="http://www.w3.org/1999/xlink" x="0px" y="0px"
	 viewBox="0 0 58.3 30" style="enable-background:new 0 0 58.3 30;" xml:space="preserve">
<style type="text/css">
	.{{$ctrl.id}}{fill:{{$ctrl.fill}};}
</style>
<g>
	<path ng-class="{ '{{$ctrl.id}}': true}" d="M17.2,25.4L17.2,25.4c2.4,0.7,5.3,1.4,8.4,1.7c-0.3-0.1-0.6-0.2-0.8-0.3c-3-0.9-5.9-1.5-8.7-1.7
		C16.4,25.3,16.8,25.3,17.2,25.4L17.2,25.4z M17.2,25.4"/>
	<g>
		<path ng-class="{ '{{$ctrl.id}}': true}" d="M28.5,28.1c-3.8,0-7.7-0.8-11.5-1.9c-1.7-0.5-3.5-0.7-5.2-0.7c-4.1,0-8.1,1.2-11.4,3.7c3.2-1.4,6.3-2,9.5-2
			c2.7,0,5.5,0.5,8.4,1.3c2.6,0.9,5.4,1.4,8.3,1.4c2.5,0,5-0.4,7.4-1.3c-1.5-0.1-2.9-0.3-4.4-0.6C29.1,28.1,28.8,28.1,28.5,28.1
			L28.5,28.1z M28.5,28.1"/>
		<path ng-class="{ '{{$ctrl.id}}': true}" d="M7.3,21.6c2.8-0.9,5.7-1.4,8.7-1.4c2.6,0,5.2,0.3,7.7,1l0,0l0,0c4.4,1.2,10.2,2.6,15.9,2.6
			c3.1,0,6-0.4,8.7-1.2L58.3,3.4c0,0-21.1-2.1-58,16v5.3h0.5C2.8,23.4,5,22.4,7.3,21.6L7.3,21.6z M31.1,10.8c0.9,0,1.6,0.7,1.6,1.6
			c0,0.9-0.7,1.6-1.6,1.6c-0.9,0-1.6-0.7-1.6-1.6C29.6,11.5,30.3,10.8,31.1,10.8L31.1,10.8z M26.2,12.4c0.9,0,1.6,0.7,1.6,1.6
			s-0.7,1.6-1.6,1.6c-0.9,0-1.6-0.7-1.6-1.6S25.3,12.4,26.2,12.4L26.2,12.4z M21.4,14c0.9,0,1.6,0.7,1.6,1.6c0,0.9-0.7,1.6-1.6,1.6
			c-0.9,0-1.6-0.7-1.6-1.6C19.9,14.7,20.6,14,21.4,14L21.4,14z M21.4,14"/>
		<path ng-class="{ '{{$ctrl.id}}': true}" d="M23.3,22.4c-2.4-0.6-4.9-1-7.3-1c-5.7,0-11.3,1.7-16,5.2c4.5-1.9,8.9-2.8,13.3-2.8c3.9,0,7.7,0.7,11.7,1.9
			c3.6,1.2,7.6,1.9,11.6,1.9c6.6,0,13.2-1.9,17.9-6.5c-4.9,2.8-9.9,3.9-15,3.9C34.2,25.1,28.7,23.9,23.3,22.4L23.3,22.4z M23.3,22.4
			"/>
		<path ng-class="{ '{{$ctrl.id}}': true}" d="M12.6,3.1L13,4.7c0.9-0.4,3.3-1.3,6-2c0.5-0.1,1,0.2,1.2,0.7C20.3,4,20,4.5,19.5,4.6
			c-2.8,0.7-5.3,1.7-5.9,1.9l1.4,4.5c0,0,12.2-5.7,26.5-7.8L27.7,0.2c0,0-10.3-1.3-19.5,2.9C8.2,3.1,10.2,3.7,12.6,3.1L12.6,3.1z
			 M12.6,3.1"/>
	</g>
</g>
</svg>
