<?xml version="1.0" encoding="utf-8"?>
<!-- Generator: Adobe Illustrator 19.0.0, SVG Export Plug-In . SVG Version: 6.00 Build 0)  -->
<svg version="1.1" id="Øàð_1" xmlns="http://www.w3.org/2000/svg" xmlns:xlink="http://www.w3.org/1999/xlink" x="0px" y="0px"
	 viewBox="0 0 70 30" style="enable-background:new 0 0 70 30;" xml:space="preserve">
<style type="text/css">
	.{{$ctrl.id}}{fill:{{$ctrl.fill}};}
</style>
<path ng-class="{ '{{$ctrl.id}}': true}" d="M69.8,7.5c-1.4-2.2-3.2-4.6-6.2-4.6l-3.6,0C57.8,1.1,55.6,0,53.6,0l-49,0C1.6,0,1.1,5.7,0,10.3v11.6
	c0,2.5,2,4.6,4.5,4.6c0-0.1,0-0.3,0-0.4c0-3.4,2.7-6.1,6.1-6.1c3.4,0,6.1,2.7,6.1,6.1c0,0.1,0,0.3,0,0.4h1.2c0-0.1,0-0.3,0-0.4
	c0-3.4,2.7-6.1,6.1-6.1c3.4,0,6.1,2.7,6.1,6.1c0,0.1,0,0.3,0,0.4h16.8c0-0.1,0-0.3,0-0.4c0-3.4,2.7-6.1,6.1-6.1
	c3.4,0,6.1,2.7,6.1,6.1c0,0.1,0,0.3,0,0.4h4.4c2.6,0,4.6-2.1,4.6-4.6V17c-0.9-4.6-3.1-8.7-5.7-11.8h1.4c1.7,0,2.9,1.3,4.3,3.6
	c0.2,0.3,0.6,0.5,0.9,0.5c0.2,0,0.4-0.1,0.6-0.2C70,8.8,70.2,8.1,69.8,7.5z M44.1,12L2.9,12v-1.4c0.2-0.7,0.3-1.4,0.4-2.1
	C3.7,6.7,4.3,3.8,5,2.9l39.2,0V12z M65.3,21.9c0,0.3,0,0.5-0.1,0.8c-1.7,0-3.2,0-3.2-0.8c0-0.7,1.3-1.8,3.3-1.9V21.9z M65,17.3V18
	c-5.5-1.6-12.2-6-18.2-6h-0.4V2.9l7.2,0C57,2.9,63.2,8.9,65,17.3z M10.6,22.2c-2.2,0-3.9,1.7-3.9,3.9c0,2.1,1.7,3.9,3.9,3.9
	c2.1,0,3.9-1.7,3.9-3.9C14.5,24,12.8,22.2,10.6,22.2z M10.6,28.4c-1.3,0-2.3-1-2.3-2.3c0-1.3,1-2.3,2.3-2.3c1.3,0,2.3,1,2.3,2.3
	C12.9,27.4,11.9,28.4,10.6,28.4z M23.9,22.2c-2.2,0-3.9,1.8-3.9,3.9c0,2.1,1.8,3.9,3.9,3.9c2.1,0,3.9-1.8,3.9-3.9
	C27.8,24,26,22.2,23.9,22.2z M23.9,28.4c-1.3,0-2.3-1-2.3-2.3c0-1.3,1-2.3,2.3-2.3c1.3,0,2.3,1,2.3,2.3
	C26.2,27.4,25.2,28.4,23.9,28.4z M52.9,22.2c-2.2,0-3.9,1.7-3.9,3.9c0,2.1,1.7,3.9,3.9,3.9c2.1,0,3.9-1.7,3.9-3.9
	C56.8,24,55,22.2,52.9,22.2z M52.9,28.4c-1.3,0-2.3-1-2.3-2.3c0-1.3,1-2.3,2.3-2.3c1.3,0,2.3,1,2.3,2.3
	C55.1,27.4,54.1,28.4,52.9,28.4z"/>
</svg>
