<?xml version="1.0" encoding="utf-8"?>
<!-- Generator: Adobe Illustrator 19.0.0, SVG Export Plug-In . SVG Version: 6.00 Build 0)  -->
<svg version="1.1" id="Øàð_1" xmlns="http://www.w3.org/2000/svg" xmlns:xlink="http://www.w3.org/1999/xlink" x="0px" y="0px"
	 viewBox="0 0 47.6 30" style="enable-background:new 0 0 47.6 30;" xml:space="preserve">
<style type="text/css">
	.{{$ctrl.id}}{fill:{{$ctrl.fill}};}
</style>
<g>
	<path ng-class="{ '{{$ctrl.id}}': true}" d="M46.6,21.9c-0.5,0-0.9,0.4-0.9,0.9l0,0.9h-4.1c1.2-1.1,1.9-2.8,1.5-4.9c0,0-2-10.3-3.1-13
		C38.6,2.4,35.8,0,29.2,0H6.7C3,0,0,3,0,6.7v12.2c0,3.6,2.9,6.6,6.5,6.7c0-0.1,0-0.2,0-0.3c0-3.7,3-6.6,6.6-6.6c3.7,0,6.6,3,6.6,6.6
		c0,0.1,0,0.2,0,0.4h26.9c0.2,0,0.5-0.1,0.6-0.3c0.2-0.2,0.3-0.4,0.3-0.7v-1.9C47.5,22.3,47.1,21.9,46.6,21.9z M15.7,10.3
		c0,0.9-0.7,1.6-1.6,1.6h-5c-0.9,0-1.6-0.7-1.6-1.6v-3c0-0.9,0.7-1.6,1.6-1.6h5c0.9,0,1.6,0.7,1.6,1.6V10.3z M34.5,23.7l-11.4,0V9.1
		c0-1.9,1.5-3.4,3.4-3.4H31c1.9,0,3.4,1.5,3.4,3.4V23.7z M32.7,9.1v12.8l-7.8,0V9.1c0-0.9,0.7-1.6,1.6-1.6H31
		C31.9,7.5,32.7,8.2,32.7,9.1z M18,25.2c0,2.7-2.2,4.8-4.8,4.8c-2.7,0-4.8-2.2-4.8-4.8c0-2.7,2.2-4.8,4.8-4.8
		C15.8,20.4,18,22.5,18,25.2z M15.8,25.2c0-1.5-1.2-2.7-2.7-2.7c-1.5,0-2.7,1.2-2.7,2.7c0,1.5,1.2,2.7,2.7,2.7
		C14.6,27.8,15.8,26.7,15.8,25.2z"/>
</g>
</svg>
