<?xml version="1.0" encoding="utf-8"?>
<!-- Generator: Adobe Illustrator 19.0.0, SVG Export Plug-In . SVG Version: 6.00 Build 0)  -->
<svg version="1.1" id="Layer_1" xmlns="http://www.w3.org/2000/svg" xmlns:xlink="http://www.w3.org/1999/xlink" x="0px" y="0px"
	 viewBox="0 0 64.8 30" style="enable-background:new 0 0 64.8 30;" xml:space="preserve">
<style type="text/css">
	.{{$ctrl.id}}{fill:{{$ctrl.fill}};}
</style>
<g>
	<g>
		<path ng-class="{ '{{$ctrl.id}}': true}" d="M50.8,20.5c2,0,3.6,1.6,3.6,3.6s-1.6,3.6-3.6,3.6s-3.6-1.6-3.6-3.6S48.8,20.5,50.8,20.5 M50.8,18.3
			c-3.2,0-5.9,2.6-5.9,5.9s2.6,5.9,5.9,5.9c3.2,0,5.9-2.6,5.9-5.9S54,18.3,50.8,18.3L50.8,18.3z"/>
	</g>
	<g>
		<path ng-class="{ '{{$ctrl.id}}': true}" d="M13.4,20.5c2,0,3.6,1.6,3.6,3.6s-1.6,3.6-3.6,3.6c-2,0-3.6-1.6-3.6-3.6S11.4,20.5,13.4,20.5 M13.4,18.3
			c-3.2,0-5.9,2.6-5.9,5.9s2.6,5.9,5.9,5.9c3.2,0,5.9-2.6,5.9-5.9S16.6,18.3,13.4,18.3L13.4,18.3z"/>
	</g>
	<path ng-class="{ '{{$ctrl.id}}': true}" d="M0,22.6c0,2,0.9,2.2,3,2.9l3.2,0c-0.1-0.4-0.1-0.9-0.1-1.3c0-4,3.3-7.3,7.3-7.3c4,0,7.3,3.3,7.3,7.3
		c0,0.5,0,0.9-0.1,1.4l13.6,0.1h9.4c-0.1-0.5-0.1-0.9-0.1-1.4c0-4,3.3-7.3,7.3-7.3c4,0,7.3,3.3,7.3,7.3c0,0.5,0,1-0.1,1.4h1.8
		c0,0,4.1-1.1,4.7-1.9c0.6-0.8,0.5-2.4-1.4-3.3c-1.9-0.9-1.6-5.7-1.6-5.7s-4.5-3-12.9-4.3l0.1-0.1C48.4,9.9,41.3,0,29.3,0
		C17.8,0,8.4,11.7,8,12.2l0,0c-1.8,1.6-4.2,4.3-6,8.3C2,20.5,0,20.5,0,22.6z M28.2,11.5L28.7,3c0.2,0,0.4,0,0.6,0
		c8.4,0,14.2,5.8,16.2,8.1l-1.2,0.5L28.2,11.5z M13,11.2c2.8-2.7,7.4-6.4,12.6-7.7l-0.4,8l-11.7-0.1L13,11.2z"/>
</g>
</svg>
