<?xml version="1.0" encoding="utf-8"?>
<!-- Generator: Adobe Illustrator 19.0.0, SVG Export Plug-In . SVG Version: 6.00 Build 0)  -->
<svg version="1.1" id="Layer_1" xmlns="http://www.w3.org/2000/svg" xmlns:xlink="http://www.w3.org/1999/xlink" x="0px" y="0px"
	 viewBox="0 0 65.7 30" style="enable-background:new 0 0 65.7 30;" xml:space="preserve">
<style type="text/css">
	.{{$ctrl.id}}{fill:{{$ctrl.fill}};}
</style>
<g>
	<path ng-class="{ '{{$ctrl.id}}': true}" d="M52.1,21.5l0.1-2c-1.2,0.2-2.3,0.9-2.9,2l2,0.6C51.5,21.8,51.7,21.6,52.1,21.5z"/>
	<path ng-class="{ '{{$ctrl.id}}': true}" d="M54,19.6c-0.2-0.1-0.4-0.1-0.6-0.1l0.1,2c0.3,0.1,0.6,0.3,0.8,0.6l2-0.5C55.8,20.7,55,20,54,19.6z"/>
	<path ng-class="{ '{{$ctrl.id}}': true}" d="M50.8,23.4l-1.9-0.7c-0.2,1.2,0.2,2.5,1.1,3.3l1.1-1.7C50.9,24.1,50.8,23.8,50.8,23.4z"/>
	<path ng-class="{ '{{$ctrl.id}}': true}" d="M54.4,24.4l1.1,1.7c0.4-0.4,0.8-0.9,1-1.5c0.2-0.6,0.2-1.2,0.2-1.8l-1.9,0.7C54.7,23.8,54.6,24.1,54.4,24.4z"
		/>
	<path ng-class="{ '{{$ctrl.id}}': true}" d="M52.8,25.3c-0.2,0-0.3,0-0.5-0.1L51,26.8c0.2,0.1,0.4,0.2,0.5,0.2c1,0.3,2.1,0.2,3-0.2l-1.3-1.6
		C53.1,25.3,52.9,25.3,52.8,25.3z"/>
	<circle ng-class="{ '{{$ctrl.id}}': true}" cx="52.8" cy="23.5" r="1"/>
	<path ng-class="{ '{{$ctrl.id}}': true}" d="M59.4,23.2l-0.1-1.1l-0.4,0c0-0.1,0-0.1,0-0.2l0.3-0.1l-0.3-1.1l-0.3,0.1c0-0.1-0.1-0.1-0.1-0.2l0.3-0.2
		l-0.6-1L58,19.7c0-0.1-0.1-0.1-0.1-0.2l0.2-0.2l-0.8-0.8l-0.2,0.2c0,0-0.1-0.1-0.2-0.1l0.2-0.2l-0.9-0.7l-0.2,0.2
		c-0.1,0-0.1-0.1-0.2-0.1l0.1-0.2l-1-0.5l-0.1,0.2c-0.1,0-0.1,0-0.2-0.1l0.1-0.3l-1.1-0.2L53.5,17c-0.1,0-0.1,0-0.2,0v-0.3h-1.1v0.3
		c-0.1,0-0.1,0-0.2,0l-0.1-0.2L50.8,17l0.1,0.3c-0.1,0-0.1,0-0.2,0.1L50.6,17l-1,0.5l0.1,0.2c-0.1,0-0.1,0.1-0.2,0.1l-0.2-0.2
		l-0.9,0.7l0.2,0.2c-0.1,0-0.1,0.1-0.2,0.1l-0.2-0.2l-0.8,0.8l0.2,0.2c0,0.1-0.1,0.1-0.1,0.2l-0.3-0.2l-0.6,1l0.3,0.2
		c0,0.1-0.1,0.1-0.1,0.2l-0.3-0.1l-0.3,1.1l0.3,0.1c0,0.1,0,0.1,0,0.2l-0.4,0l-0.1,1.1l0.4,0c0,0.1,0,0.1,0,0.2l-0.4,0l0.1,1.1
		l0.4,0c0,0.1,0,0.1,0,0.2l-0.4,0.1l0.3,1.1l0.4-0.1c0,0.1,0,0.1,0.1,0.2l-0.4,0.2l0.6,1l0.4-0.2c0,0,0.1,0.1,0.1,0.1l-0.4,0.3
		l0.8,0.8l0.4-0.3c0,0,0.1,0.1,0.1,0.1l-0.3,0.4l0.9,0.7l0.3-0.4c0,0,0.1,0.1,0.1,0.1l-0.2,0.5l1,0.5l0.2-0.5c0,0,0.1,0,0.1,0
		l-0.1,0.5l1.1,0.2l0.1-0.5c0.1,0,0.1,0,0.2,0V30h1.1v-0.5c0.1,0,0.1,0,0.2,0l0.1,0.5l1.1-0.2l-0.1-0.5c0.1,0,0.1,0,0.1,0l0.2,0.5
		l1-0.5l-0.2-0.5c0,0,0.1-0.1,0.1-0.1l0.3,0.4l0.9-0.7L56.8,28c0,0,0.1-0.1,0.1-0.1l0.4,0.3l0.8-0.8l-0.4-0.3c0,0,0.1-0.1,0.1-0.1
		l0.4,0.2l0.6-1L58.4,26c0-0.1,0-0.1,0.1-0.2l0.4,0.1l0.3-1.1l-0.4-0.1c0-0.1,0-0.1,0-0.2l0.4,0l0.1-1.1l-0.4,0c0-0.1,0-0.1,0-0.2
		L59.4,23.2z M52.8,27.7c-2.4,0-4.4-2-4.4-4.4c0-2.4,2-4.4,4.4-4.4c2.4,0,4.4,2,4.4,4.4C57.1,25.8,55.2,27.7,52.8,27.7z"/>
	<path ng-class="{ '{{$ctrl.id}}': true}" d="M14.4,21.5l0.1-2c-1.2,0.2-2.3,0.9-2.9,2l2,0.6C13.8,21.8,14.1,21.6,14.4,21.5z"/>
	<path ng-class="{ '{{$ctrl.id}}': true}" d="M16.4,19.6c-0.2-0.1-0.4-0.1-0.6-0.1l0.1,2c0.3,0.1,0.6,0.3,0.8,0.6l2-0.5C18.2,20.7,17.4,20,16.4,19.6z"/>
	<path ng-class="{ '{{$ctrl.id}}': true}" d="M13.2,23.4l-1.9-0.7c-0.2,1.2,0.2,2.5,1.1,3.3l1.1-1.7C13.3,24.1,13.2,23.8,13.2,23.4z"/>
	<path ng-class="{ '{{$ctrl.id}}': true}" d="M16.8,24.4l1.1,1.7c0.4-0.4,0.8-0.9,1-1.5c0.2-0.6,0.2-1.2,0.2-1.8l-1.9,0.7C17,23.8,16.9,24.1,16.8,24.4z"/>
	<path ng-class="{ '{{$ctrl.id}}': true}" d="M15.1,25.3c-0.2,0-0.3,0-0.5-0.1l-1.3,1.6c0.2,0.1,0.4,0.2,0.5,0.2c1,0.3,2.1,0.2,3-0.2l-1.3-1.6
		C15.4,25.3,15.3,25.3,15.1,25.3z"/>
	<circle ng-class="{ '{{$ctrl.id}}': true}" cx="15.1" cy="23.5" r="1"/>
	<path ng-class="{ '{{$ctrl.id}}': true}" d="M21.8,23.2l-0.1-1.1l-0.4,0c0-0.1,0-0.1,0-0.2l0.3-0.1l-0.3-1.1l-0.3,0.1c0-0.1,0-0.1-0.1-0.2l0.3-0.2l-0.6-1
		l-0.3,0.2c0-0.1-0.1-0.1-0.1-0.2l0.2-0.2l-0.8-0.8l-0.2,0.2c0,0-0.1-0.1-0.2-0.1l0.2-0.2l-0.9-0.7l-0.2,0.2c-0.1,0-0.1-0.1-0.2-0.1
		l0.1-0.2l-1-0.5l-0.1,0.2c-0.1,0-0.1,0-0.2-0.1l0.1-0.3l-1.1-0.2L15.9,17c-0.1,0-0.1,0-0.2,0v-0.3h-1.1v0.3c-0.1,0-0.1,0-0.2,0
		l-0.1-0.2L13.2,17l0.1,0.3c-0.1,0-0.1,0-0.2,0.1L12.9,17l-1,0.5l0.1,0.2c-0.1,0-0.1,0.1-0.2,0.1l-0.2-0.2l-0.9,0.7l0.2,0.2
		c-0.1,0-0.1,0.1-0.2,0.1l-0.2-0.2l-0.8,0.8l0.2,0.2c0,0.1-0.1,0.1-0.1,0.2l-0.3-0.2l-0.6,1l0.3,0.2c0,0.1-0.1,0.1-0.1,0.2L9,20.8
		l-0.3,1.1L9,21.9c0,0.1,0,0.1,0,0.2l-0.4,0l-0.1,1.1l0.4,0c0,0.1,0,0.1,0,0.2l-0.4,0l0.1,1.1l0.4,0c0,0.1,0,0.1,0,0.2l-0.4,0.1
		L9,25.9l0.4-0.1c0,0.1,0,0.1,0.1,0.2l-0.4,0.2l0.6,1l0.4-0.2c0,0,0.1,0.1,0.1,0.1l-0.4,0.3l0.8,0.8l0.4-0.3c0,0,0.1,0.1,0.1,0.1
		l-0.3,0.4l0.9,0.7l0.3-0.4c0,0,0.1,0.1,0.1,0.1l-0.2,0.5l1,0.5l0.2-0.5c0,0,0.1,0,0.1,0l-0.1,0.5l1.1,0.2l0.1-0.5
		c0.1,0,0.1,0,0.2,0V30h1.1v-0.5c0.1,0,0.1,0,0.2,0l0.1,0.5l1.1-0.2l-0.1-0.5c0.1,0,0.1,0,0.1,0l0.2,0.5l1-0.5l-0.2-0.5
		c0,0,0.1-0.1,0.1-0.1l0.3,0.4l0.9-0.7L19.2,28c0,0,0.1-0.1,0.1-0.1l0.4,0.3l0.8-0.8l-0.4-0.3c0,0,0.1-0.1,0.1-0.1l0.4,0.2l0.6-1
		L20.8,26c0-0.1,0-0.1,0.1-0.2l0.4,0.1l0.3-1.1l-0.4-0.1c0-0.1,0-0.1,0-0.2l0.4,0l0.1-1.1l-0.4,0c0-0.1,0-0.1,0-0.2L21.8,23.2z
		 M15.1,27.7c-2.4,0-4.4-2-4.4-4.4c0-2.4,2-4.4,4.4-4.4c2.4,0,4.4,2,4.4,4.4C19.5,25.8,17.5,27.7,15.1,27.7z"/>
	<path ng-class="{ '{{$ctrl.id}}': true}" d="M65,22.2c0.1-0.9,0.2-2.5,0.2-2.5c0-0.7,0.4-2.2,0.3-2.6l-0.4-1.1c0.4-0.6,0.5-1.5,0.3-2.4
		c-0.3-1.2-1.3-1.8-1.6-2c1.1-1.4,3.3-2,0.6-2.9L62,7.8L51.2,1.2C50,0.4,48.6,0,47.2,0H32c-1.9,0-3.7,0.6-5.3,1.6L16.1,8.9l-8.7,1.1
		c-2.2,0.2-4.1,1.5-5.1,3.4c0,0,0,0,0,0c-0.2-0.1-0.4-0.1-0.7,0.2c-0.3,0.3-0.5,0.7-0.5,1.2v2.7c0,0.3,0.1,0.5,0.3,0.7v0.5
		c0,0-0.1,0-0.1,0.1c-1.2,0.5-1.6,1.9-1.1,3.1c0.4,0.9,1.2,1.4,2.1,1.4h2.1c0.9,0,1.6,0.2,2.1-0.5h1.4c0.3-3.8,3.5-6.8,7.3-6.8
		c3.9,0,7,3,7.3,6.8h23c0.3-3.8,3.5-6.8,7.3-6.8c3.6,0,6.6,2.6,7.2,6.1H65z M5.3,14.3c-0.8,1.2-1.8,1.9-2.2,1.6
		c-0.4-0.3-0.2-1.5,0.6-2.6c0.8-1.2,1.8-1.9,2.2-1.6C6.3,12,6,13.2,5.3,14.3z M8.1,13.1c-0.5,0.8-1.1,1.2-1.4,1
		c-0.3-0.2-0.1-1,0.4-1.7c0.5-0.8,1.1-1.2,1.4-1C8.7,11.5,8.6,12.3,8.1,13.1z M25.6,22.7c0,0,0-0.3-0.1-0.7
		c-0.1-0.5-0.2-1.1-0.5-1.8c-0.3-0.7-0.8-1.5-1.5-2.2c-0.3-0.3-0.7-0.7-1.2-0.9c-0.4-0.3-0.9-0.5-1.4-0.7c-1-0.3-2-0.7-2.9-1.3
		c-0.8-0.6-1.5-1.4-1.8-2.2c-0.3-0.8-0.3-1.5-0.3-2c0-0.2,0-0.3,0.1-0.4h0.7c0,0,0,0,0,0c0,0.1-0.1,0.3-0.1,0.5
		c-0.1,0.4-0.1,1,0.2,1.7c0.2,0.7,0.7,1.4,1.5,2c0.7,0.6,1.7,1,2.7,1.3c0.5,0.2,1,0.5,1.4,0.8c0.4,0.3,0.8,0.6,1.2,1
		c0.7,0.7,1.1,1.6,1.4,2.3c0.3,0.7,0.4,1.4,0.4,1.9C25.6,22.4,25.6,22.7,25.6,22.7z M38,12.4h-3.1V12c0-0.5,0.4-0.9,0.9-0.9H37
		c0.5,0,0.9,0.4,0.9,0.9V12.4z M38.6,8.9H24.4c0.2-1.6-0.6-2.3-1.3-2.6l4.4-3c1.5-1.1,3.4-1.6,5.2-1.6h5.7L38.6,8.9z M39.7,21.7
		l-0.3-11.3H40L39.7,21.7z M40.8,1.7h3.9c2.9,0,5.6,1.5,7.1,4l2,3.3H40.7L40.8,1.7z M52,12v0.3h-3.1V12c0-0.5,0.4-0.9,0.9-0.9H51
		C51.5,11.1,52,11.5,52,12z M54.4,11.8c-0.1,0.3-0.2,0.7-0.4,1.1c-0.2,0.4-0.5,0.7-0.9,1c-0.4,0.3-0.8,0.6-1.2,0.8
		c-0.4,0.2-0.9,0.5-1.4,0.6c-0.5,0.2-1,0.3-1.5,0.5c-0.5,0.1-0.9,0.4-1.3,0.7c-0.4,0.3-0.8,0.6-1.1,0.9c-0.2,0.2-0.3,0.4-0.5,0.5
		c-0.1,0.2-0.3,0.4-0.4,0.6c-0.1,0.2-0.2,0.4-0.3,0.6c-0.1,0.2-0.2,0.4-0.3,0.6c-0.1,0.4-0.3,0.7-0.3,1c-0.1,0.3-0.1,0.6-0.2,0.8
		c0,0.5-0.1,0.7-0.1,0.7s0-0.3,0-0.7c0-0.2,0.1-0.5,0.1-0.8c0-0.3,0.2-0.7,0.3-1c0.1-0.2,0.2-0.4,0.2-0.6c0.1-0.2,0.2-0.4,0.3-0.6
		c0.1-0.2,0.3-0.4,0.4-0.6c0.2-0.2,0.3-0.4,0.5-0.6c0.3-0.4,0.7-0.7,1.1-1c0.4-0.3,0.9-0.6,1.4-0.8c0.5-0.2,1-0.3,1.4-0.5
		c0.5-0.2,0.9-0.4,1.3-0.7c0.4-0.3,0.8-0.5,1.1-0.8c0.3-0.3,0.5-0.6,0.7-0.9c0.2-0.3,0.3-0.6,0.3-0.9c0-0.3,0-0.5,0-0.7
		c0-0.2-0.1-0.4-0.1-0.5c0,0,0,0,0,0h0.7c0,0.1,0,0.3,0.1,0.4C54.5,11.1,54.4,11.5,54.4,11.8z"/>
</g>
</svg>
