<?xml version="1.0" encoding="utf-8"?>
<!-- Generator: Adobe Illustrator 19.0.0, SVG Export Plug-In . SVG Version: 6.00 Build 0)  -->
<svg version="1.1" id="Layer_1" xmlns="http://www.w3.org/2000/svg" xmlns:xlink="http://www.w3.org/1999/xlink" x="0px" y="0px"
	 viewBox="0 0 66 30" style="enable-background:new 0 0 66 30;" xml:space="preserve">
<style type="text/css">
	.{{$ctrl.id}}{fill:{{$ctrl.fill}};}
</style>
<g>
	<path ng-class="{ '{{$ctrl.id}}': true}" d="M57.6,19c-3,0-5.5,2.5-5.5,5.5s2.5,5.5,5.5,5.5c3,0,5.5-2.5,5.5-5.5S60.7,19,57.6,19z M57.6,27.6
		c-1.7,0-3.1-1.4-3.1-3.1c0-1.7,1.4-3.1,3.1-3.1c1.7,0,3.1,1.4,3.1,3.1C60.8,26.2,59.4,27.6,57.6,27.6z"/>
	<path ng-class="{ '{{$ctrl.id}}': true}" d="M57.6,23.2c-0.7,0-1.3,0.6-1.3,1.3c0,0.7,0.6,1.3,1.3,1.3c0.7,0,1.3-0.6,1.3-1.3
		C58.9,23.8,58.3,23.2,57.6,23.2z M57.6,25.1c-0.3,0-0.6-0.3-0.6-0.6c0-0.3,0.3-0.6,0.6-0.6c0.3,0,0.6,0.3,0.6,0.6
		C58.2,24.8,58,25.1,57.6,25.1z"/>
	<path ng-class="{ '{{$ctrl.id}}': true}" d="M8.9,19c-3,0-5.5,2.5-5.5,5.5S5.9,30,8.9,30c3,0,5.5-2.5,5.5-5.5S12,19,8.9,19z M8.9,27.6
		c-1.7,0-3.1-1.4-3.1-3.1c0-1.7,1.4-3.1,3.1-3.1s3.1,1.4,3.1,3.1C12.1,26.2,10.6,27.6,8.9,27.6z"/>
	<path ng-class="{ '{{$ctrl.id}}': true}" d="M8.9,23.2c-0.7,0-1.3,0.6-1.3,1.3c0,0.7,0.6,1.3,1.3,1.3c0.7,0,1.3-0.6,1.3-1.3C10.2,23.8,9.6,23.2,8.9,23.2z
		 M8.9,25.1c-0.3,0-0.6-0.3-0.6-0.6c0-0.3,0.3-0.6,0.6-0.6c0.3,0,0.6,0.3,0.6,0.6C9.5,24.8,9.2,25.1,8.9,25.1z"/>
	<path ng-class="{ '{{$ctrl.id}}': true}" d="M64.2,11.3c-2.4-0.6-15-1.9-15-1.9S45,3.7,44.1,2.5C43,1.1,42.3,0.1,40.7,0L13.9,0.1c-1.2,0-3.6,0.4-4.9,2.5
		C8.4,3.5,4,9.5,4,9.5s-2.3,2-3,3.5c-1.5,3.1-1.1,6.3-0.5,8.1c0.6,1.8,2.2,2.4,2.2,1.5c0-3.5,2.7-6.3,6.1-6.3c3.5,0,6.3,2.8,6.3,6.3
		c0,0.9,0.6,2.4,2.9,2.4c7.8,0,28.6,0,29.7,0c1.4,0,3.1-0.4,3.4-2.4c0.6-3.4,2.8-6.3,6.3-6.3c3.5,0,6.4,2.8,6.3,6.3
		c0,0.6,0.2,0.4,0.2,0.2c0,0,1.6-7.3,1.8-8.6C66.2,12.9,65.5,11.6,64.2,11.3z M26.3,9.4c0,0.4-0.3,0.7-0.7,0.7H9.7
		c-0.4,0-0.7-0.3-0.7-0.7c0,0,3.4-5.6,3.7-6.2c0.7-1,1.1-1.3,2.2-1.3c1.1,0,10.7,0,10.7,0c0.4,0,0.7,0.3,0.7,0.7V9.4z M45.4,10.1
		h-17c-0.4,0-0.7-0.3-0.7-0.7V2.6c0-0.4,0.3-0.7,0.7-0.7c0,0,11.4,0,11.9,0c1.1,0,1.4,0.5,1.8,1.1c0.2,0.3,4.1,6.4,4.1,6.4
		C46.1,9.8,45.8,10.1,45.4,10.1z"/>
</g>
</svg>
