<?xml version="1.0" encoding="utf-8"?>
<!-- Generator: Adobe Illustrator 19.0.0, SVG Export Plug-In . SVG Version: 6.00 Build 0)  -->
<svg version="1.1" id="Layer_1" xmlns="http://www.w3.org/2000/svg" xmlns:xlink="http://www.w3.org/1999/xlink" x="0px" y="0px"
	 viewBox="0 0 42.8 30" style="enable-background:new 0 0 42.8 30;" xml:space="preserve">
<style type="text/css">
	.{{$ctrl.id}}{fill:{{$ctrl.fill}};}
</style>
<g>
	<path ng-class="{ '{{$ctrl.id}}': true}" d="M39.9,11.3l1.8-0.8c0.7-0.3,1.1-1.3,0.7-2c-0.2-0.4-0.5-0.7-1-0.8c0,0-1.5-0.5-2.7-0.3C38.3,7.5,38,7.7,37.8,8
		l0,0l-0.4,0.6l-1.7-4.1c-1-2.2-2.7-3.7-4.7-3.9c-6.4-0.8-12.8-0.8-19.2,0c-2,0.3-3.7,1.7-4.7,3.9L5.4,8.6L5,8l0,0
		C4.7,7.7,4.4,7.5,4,7.4C2.8,7.2,1.3,7.7,1.3,7.7c-0.5,0.1-0.8,0.4-1,0.8c-0.4,0.8,0,1.7,0.7,2l1.8,0.8C1,12.5-0.1,15,0,17.7
		c0.1,2.3,0.7,4.6,1.3,6.1v3.6c0,1.5,1.1,2.7,2.5,2.7h4c1.4,0,2.5-1.2,2.5-2.7v-0.8l6.5,0.2h4.6H26l6.5-0.2v0.8
		c0,1.5,1.1,2.7,2.5,2.7h4c1.4,0,2.5-1.2,2.5-2.7v-3.6c0.6-1.5,1.2-3.8,1.3-6.1C42.9,15,41.7,12.5,39.9,11.3z M10.3,20.1H5.9
		c-0.8,0-1.6-0.6-1.9-1.6l-0.1-0.3c-0.5-1.5,0.5-3.1,1.8-2.9c0,0,5.6,0.8,6,2.3C12,18.8,11.3,20.1,10.3,20.1z M21.8,9.9
		c-6.1,0-12.4,0.3-15.5,0.5l2.1-4.9c0.7-1.7,2-2.8,3.5-3c3.1-0.4,6.3-0.6,9.5-0.6c3.1,0,6.3,0.2,9.5,0.6c1.5,0.2,2.8,1.3,3.5,3
		l2.1,4.9C33.6,10.2,27.8,9.9,21.8,9.9z M38.8,18.2l-0.1,0.3c-0.3,0.9-1.1,1.6-1.9,1.6h-4.4c-1,0-1.7-1.2-1.4-2.4
		c0.5-1.5,6-2.3,6-2.3C38.3,15,39.4,16.7,38.8,18.2z"/>
</g>
</svg>
