<?xml version="1.0" encoding="utf-8"?>
<!-- Generator: Adobe Illustrator 19.0.0, SVG Export Plug-In . SVG Version: 6.00 Build 0)  -->
<svg version="1.1" id="Øàð_1" xmlns="http://www.w3.org/2000/svg" xmlns:xlink="http://www.w3.org/1999/xlink" x="0px" y="0px"
	 viewBox="0 0 57.6 30" style="enable-background:new 0 0 57.6 30;" xml:space="preserve">
<style type="text/css">
	.{{$ctrl.id}}{fill:{{$ctrl.fill}};}
</style>
<g>
	<path ng-class="{ '{{$ctrl.id}}': true}" d="M57.6,1c0,0-0.2,2.5-3.5,2.3c-3.4-0.2-16.6-0.6-16.6-0.6V2.1h-4.9v1.7c0,0,0,0.1,0,0.1h1.2l1.3,7.4
		c-0.2,0-0.3,0.1-0.5,0.1l-6,0l1.3-7.5H31c0,0,0-0.1,0-0.1V2.1h-4.9v0.7c0,0-13.3,0.4-16.6,0.6C6.1,3.5,5.9,1,5.9,1h0.8v0H31V0.8
		C31,0.4,31.3,0,31.8,0c0.4,0,0.8,0.4,0.8,0.8V1h24.2v0H57.6z M1.1,18.9h1.5l1.8-2.8l-2.7-0.4L1.1,18.9z M43.9,26.3v2.1h2.5
		c2.9,0,4.5-1.6,4.5-1.6l1.2,1.1C52,28,50,30,46.4,30H26v-1.6h5.8v-3.2c-4.5-1.5-7.5-4.6-9-7.9l0,0L2.1,14.2v0h0L0,4h1l4.5,8.9
		l29.2,0c11.9-3,17.4,3.2,17.4,8C52.1,24.9,47.6,26.3,43.9,26.3z M42.8,26.3c-2.3,0-1.1-0.1-4.8-0.1c-1.8,0-3.4-0.2-4.9-0.6v2.9h9.8
		V26.3z M50.3,21.8c0.1-0.3,0.2-0.6,0.2-1c0-2.8-2.7-7.2-9.9-7.2c-1.6,0-3.4,0.2-5.3,0.7c0.3,3.9,1.6,5.5,5.7,5.5
		C46.2,19.9,48.6,20.9,50.3,21.8z"/>
</g>
</svg>
