<?xml version="1.0" encoding="utf-8"?>
<!-- Generator: Adobe Illustrator 19.0.0, SVG Export Plug-In . SVG Version: 6.00 Build 0)  -->
<svg version="1.1" id="Øàð_1" xmlns="http://www.w3.org/2000/svg" xmlns:xlink="http://www.w3.org/1999/xlink" x="0px" y="0px"
	 viewBox="0 0 60.8 30" style="enable-background:new 0 0 60.8 30;" xml:space="preserve">
<style type="text/css">
	.{{$ctrl.id}}{fill:{{$ctrl.fill}};}
</style>
<path ng-class="{ '{{$ctrl.id}}': true}" d="M40.9,18.9c-1.1,1.4-1.7,3.1-1.7,5c0,0.4,0,0.9,0.1,1.3l-19,0c0.1-0.4,0.1-0.8,0.1-1.3c0-1.9-0.6-3.6-1.7-5
	H40.9z M60.5,20.3c-0.2-0.9-0.6-1.1-1.1-1.4h-5.1c1.1,1.4,1.7,3.1,1.7,5c0,0.4,0,0.9-0.1,1.3h2.3c2.3,0,3-1.2,2.7-3.4L60.5,20.3z
	 M3.8,23.9c0-1.9,0.6-3.6,1.7-5H0.6c-0.3,0.5-0.6,1-0.6,1.9l0,1.4c0,1.9,1.5,2.2,3.9,2.8C3.8,24.7,3.8,24.3,3.8,23.9z M12.1,17.9
	c-3.3,0-6.1,2.7-6.1,6.1c0,3.3,2.7,6.1,6.1,6.1s6.1-2.7,6.1-6.1C18.2,20.6,15.5,17.9,12.1,17.9z M12.1,27.4c-1.9,0-3.4-1.5-3.4-3.4
	c0-1.9,1.5-3.4,3.4-3.4s3.4,1.5,3.4,3.4C15.6,25.8,14,27.4,12.1,27.4z M47.6,17.9c-3.3,0-6.1,2.7-6.1,6.1c0,3.3,2.7,6.1,6.1,6.1
	c3.3,0,6.1-2.7,6.1-6.1C53.6,20.6,50.9,17.9,47.6,17.9z M47.6,27.4c-1.9,0-3.4-1.5-3.4-3.4c0-1.9,1.5-3.4,3.4-3.4
	c1.9,0,3.4,1.5,3.4,3.4C51,25.8,49.5,27.4,47.6,27.4z M57.8,13.2c-0.6-2.4-1.8-3-4.9-3.4c-4.3-0.6-11.6-1.7-11.6-1.7
	C37.9,5.5,35,2.8,29.7,2.3l-0.3-0.7c0-0.1-0.6-1.6-2.5-1.6H15c-1.9,0-2.3,1.1-2.5,1.5c-0.2,0.4-0.4,0.8-0.4,0.8
	C6.6,2.8,0.9,8.3,0.9,10.9l0,6.2h6.6c1.1-0.8,2.4-1.2,3.8-1.4V8.7H4.5C5.6,7.1,9.3,4,12.8,4l3.3,0l-3,4.7v7c1.3,0.2,2.5,0.6,3.6,1.4
	h7.2V8.7h-8.1l3-4.7l8.4,0c5.3,0,7.7,1.8,11.4,4.7H25.8V17h17.1c1.3-0.9,2.9-1.4,4.7-1.4c1.7,0,3.3,0.5,4.7,1.4h6.3L57.8,13.2z
	 M5,13.8c-0.3,0.3-1.6,1.9-1.6,1.9H2.2l0-3.3h2.3C5.1,12.3,5.6,13,5,13.8z M13.6,2.2L13.6,2C13.8,1.7,14,1.3,15,1.3h11.9
	c0.8,0,1.2,0.5,1.3,0.8l0,0.1l0,0C25.1,2.2,18.2,2.2,13.6,2.2z M55.3,15.7c-1.2,0-1.8-0.3-2.3-1.3l-0.6-1.1
	c-0.3-0.7,0.2-0.9,0.5-0.9c0.2,0,2.2,0,3.2,0c0.2,0.3,0.3,0.6,0.4,1.1l0.4,2.3H55.3z"/>
</svg>
