<?xml version="1.0" encoding="utf-8"?>
<!-- Generator: Adobe Illustrator 19.0.0, SVG Export Plug-In . SVG Version: 6.00 Build 0)  -->
<svg version="1.1" id="Layer_1" xmlns="http://www.w3.org/2000/svg" xmlns:xlink="http://www.w3.org/1999/xlink" x="0px" y="0px"
	 viewBox="0 0 30 30" style="enable-background:new 0 0 30 30;" xml:space="preserve">
<style type="text/css">
	.{{$ctrl.id}}{fill:{{$ctrl.fill}};}
</style>
<path ng-class="{ '{{$ctrl.id}}': true}" d="M24.5,28.9c0.8-0.9,0.4-2.1,0.4-2.1l-0.6-3.3c0.3-0.2,0.6-0.4,0.9-0.7c0.6-0.6,0.9-1.2,1.1-1.7
	c-0.2-0.1-0.4-0.2-0.6-0.4c-0.2-0.2-0.3-0.4-0.4-0.6c-0.4,0.1-0.9,0.4-1.4,0.9l-0.5-3.2c0.4-0.2,0.7-0.5,1.1-0.8
	c0.6-0.6,0.9-1.2,1.1-1.7c-0.2-0.1-0.4-0.2-0.6-0.4c-0.2-0.2-0.3-0.4-0.4-0.6c-0.5,0.2-1.1,0.5-1.6,1.1l-0.7-4
	c3.5-3.8,6.3-7.2,6.3-7.2c2.3-2.7,1.1-4,1.1-4s-1.4-1.2-4,1.1c0,0-3.3,2.7-7.2,6.3l-4-0.7c0.5-0.5,0.9-1.1,1.1-1.6
	C15.3,5.3,15.2,5.1,15,5c-0.2-0.2-0.3-0.4-0.4-0.6c-0.5,0.2-1.1,0.5-1.7,1.1c-0.4,0.4-0.6,0.7-0.8,1.1L8.9,6c0.4-0.5,0.7-1,0.9-1.4
	C9.6,4.5,9.4,4.4,9.2,4.2C9,4,8.9,3.8,8.8,3.6C8.3,3.8,7.7,4.2,7.1,4.7C6.8,5,6.6,5.3,6.4,5.6L3.1,5.1c0,0-1.2-0.4-2.1,0.4
	C0.2,6.3-0.3,6.7,0.8,7.7l11.7,5.9c-4.2,4.5-7,8.4-7,8.4l-5.1-0.3L0,22.8l4.3,2.9L7.2,30l1.2-0.3l-0.3-5.1c0,0,3.9-2.9,8.4-7
	l5.9,11.7C23.3,30.3,23.7,29.8,24.5,28.9z"/>
</svg>
