<?xml version="1.0" encoding="utf-8"?>
<!-- Generator: Adobe Illustrator 19.0.0, SVG Export Plug-In . SVG Version: 6.00 Build 0)  -->
<svg version="1.1" id="Øàð_1" xmlns="http://www.w3.org/2000/svg" xmlns:xlink="http://www.w3.org/1999/xlink" x="0px" y="0px"
	 viewBox="0 0 57.2 30" style="enable-background:new 0 0 57.2 30;" xml:space="preserve">
<style type="text/css">
	.{{$ctrl.id}}{fill:{{$ctrl.fill}};}
</style>
<path ng-class="{ '{{$ctrl.id}}': true}" d="M29.3,5.6l-1.5-1.6h0.5c0.4,0,0.6,0.1,0.8,0.2c0.2,0.1,2.1,1.6,2.1,1.6l0,0C31.7,6,31.9,6.6,32,6.9
	c0.2,0.6,0.5,1.6,0.7,2.6c-1.6,0-3.1,0-4.6,0c0,0,0,0,0,0L29.3,5.6z M13.6,2.1l0-2.1h-3l-0.5,0.7C11.3,0.9,12.6,1.4,13.6,2.1z
	 M16.5,14.1c-3.3,0-5.9,0.8-5.9,1.9c0,1,2.6,1.9,5.9,1.9c0.8,0,1.5-0.1,2.2-0.1c-0.3-0.5-0.5-1.1-0.5-1.8c0-0.7,0.2-1.3,0.5-1.8
	C18.1,14.2,17.3,14.1,16.5,14.1z M51.8,15.3c-2.4-3.3-5.7-4.2-11.5-4.2c-4.2,0-16.4,0.1-18.2,0.1c-1.9,0-3.1-0.5-4.2-1.8
	c-1.2-1.4-3.3-3.9-4.4-5.3c-0.9-1.1-3.3-2-4.9-2c-1.6,0-2.7,0-2.7,0S6.5,3.3,7.2,5L0,9.8l4.7,0l3.8-2c0.9,2,1.9,4.1,2.9,6.1
	c1.4-0.6,3.3-0.8,5.1-0.8c1.5,0,2.9,0.2,4,0.5l0,0c0.9,0.2,1.5,1.2,1.5,2.5c0,1.3-0.6,2.3-1.5,2.5l0,0c-1.1,0.3-2.4,0.4-3.7,0.5
	c1.2,0.5,2.6,1,4.3,1.4l-12,8.6c-0.8-0.3-1.6-0.7-1.9-0.8C6.7,28,6.2,28,5.7,28l1.9,2h3.9c1.6,0,2.8-0.3,4.2-0.9
	c1.8-0.8,11.9-5.7,15.5-7.1c0.8-0.4,1.7-0.7,2.5-1c5.2,0,12.2,0,13.7,0c8.9,0,9.9-1.7,9.9-2.8C57.2,17.1,55,16.5,51.8,15.3z
	 M29.9,15.7c0,0.3-0.3,0.6-0.6,0.6h-0.6c-0.3,0-0.6-0.3-0.6-0.6v-0.9c0-0.3,0.3-0.6,0.6-0.6h0.6c0.3,0,0.6,0.3,0.6,0.6V15.7z
	 M33.9,15.7c0,0.3-0.3,0.6-0.6,0.6h-0.6c-0.3,0-0.6-0.3-0.6-0.6v-0.9c0-0.3,0.3-0.6,0.6-0.6h0.6c0.3,0,0.6,0.3,0.6,0.6V15.7z
	 M37.9,15.7c0,0.3-0.3,0.6-0.6,0.6h-0.6c-0.3,0-0.6-0.3-0.6-0.6v-0.9c0-0.3,0.3-0.6,0.6-0.6h0.6c0.3,0,0.6,0.3,0.6,0.6V15.7z
	 M46.5,16.4L46.5,16.4c-2.3,0-4.1-0.6-4.9-1.5c-0.3-0.4-0.1-0.8,0.3-0.9c0.8,0,3-0.1,4-0.9c1.9,0.5,3.2,1.3,4.2,2.5
	C49.3,16.2,47.9,16.4,46.5,16.4z M20.2,17.5c-0.5,0-0.9-0.7-0.9-1.5c0-0.8,0.4-1.5,0.9-1.5c0.5,0,0.9,0.7,0.9,1.5
	C21,16.8,20.6,17.5,20.2,17.5z"/>
</svg>
