<?xml version="1.0" encoding="utf-8"?>
<!-- Generator: Adobe Illustrator 19.0.0, SVG Export Plug-In . SVG Version: 6.00 Build 0)  -->
<svg version="1.1" id="Layer_1" xmlns="http://www.w3.org/2000/svg" xmlns:xlink="http://www.w3.org/1999/xlink" x="0px" y="0px"
	 viewBox="0 0 37 30" style="enable-background:new 0 0 37 30;" xml:space="preserve">
<style type="text/css">
	.{{$ctrl.id}}{fill:{{$ctrl.fill}};}
</style>
<g>
	<path ng-class="{ '{{$ctrl.id}}': true}" d="M34.5,13.8l1.6-0.7c0.6-0.3,1-1.1,0.6-1.8c-0.2-0.3-0.5-0.6-0.9-0.7c0,0-1.3-0.4-2.3-0.2
		c-0.3,0.1-0.6,0.2-0.8,0.5l0,0l-0.3,0.5L30.8,8c-0.8-1.9-2.3-3.2-4-3.4c-0.4-0.1-0.8-0.1-1.2-0.1V3.9h2.1c0.8,0,1.4-0.6,1.4-1.4
		V1.4c0-0.8-0.6-1.4-1.4-1.4H9.3C8.6,0,7.9,0.6,7.9,1.4v1.1c0,0.8,0.6,1.4,1.4,1.4h1.9v0.5c-0.4,0-0.7,0.1-1.1,0.1
		C8.5,4.8,7,6.1,6.2,8l-1.5,3.5L4.3,11l0,0c-0.2-0.3-0.5-0.5-0.8-0.5c-1.1-0.2-2.3,0.2-2.3,0.2c-0.4,0.1-0.7,0.3-0.9,0.7
		c-0.3,0.7,0,1.5,0.6,1.8l1.6,0.7C0.9,14.9-0.1,17,0,19.3c0.1,2,0.6,4,1.1,5.3v3.1c0,1.3,1,2.3,2.1,2.3h3.5c1.2,0,2.1-1,2.1-2.3
		v-0.7l5.6,0.2h4h4l5.6-0.2v0.7c0,1.3,1,2.3,2.1,2.3h3.5c1.2,0,2.1-1,2.1-2.3v-3.1c0.6-1.3,1-3.3,1.1-5.3
		C37.1,17,36.1,14.9,34.5,13.8z M24.5,0.3h3.1c0.6,0,1.1,0.5,1.1,1.1v1.1c0,0.6-0.5,1.1-1.1,1.1h-3.1c-0.9,0-1.7-0.7-1.7-1.7
		S23.6,0.3,24.5,0.3z M9.3,3.6c-0.6,0-1.1-0.5-1.1-1.1V1.4c0-0.6,0.5-1.1,1.1-1.1h3.1c0.9,0,1.7,0.7,1.7,1.7s-0.7,1.7-1.7,1.7H9.3z
		 M8.9,21.4H5.1c-0.7,0-1.3-0.5-1.6-1.3l-0.1-0.3c-0.4-1.3,0.4-2.7,1.5-2.5c0,0,4.8,0.7,5.2,2C10.4,20.3,9.8,21.4,8.9,21.4z
		 M18.8,12.6c-5.3,0-10.7,0.2-13.4,0.4l1.8-4.3c0.6-1.5,1.8-2.4,3-2.6c2.7-0.3,5.5-0.5,8.2-0.5c2.7,0,5.5,0.2,8.2,0.5
		c1.3,0.2,2.4,1.1,3,2.6l1.8,4.3C29,12.9,24,12.6,18.8,12.6z M33.6,19.8l-0.1,0.3c-0.3,0.8-0.9,1.3-1.6,1.3h-3.8
		c-0.9,0-1.5-1.1-1.2-2.1c0.4-1.3,5.2-2,5.2-2C33.2,17.1,34,18.5,33.6,19.8z"/>
</g>
</svg>
