<?xml version="1.0" encoding="utf-8"?>
<!-- Generator: Adobe Illustrator 19.0.0, SVG Export Plug-In . SVG Version: 6.00 Build 0)  -->
<svg version="1.1" id="Layer_1" xmlns="http://www.w3.org/2000/svg" xmlns:xlink="http://www.w3.org/1999/xlink" x="0px" y="0px"
	 viewBox="0 0 45.4 30" style="enable-background:new 0 0 45.4 30;" xml:space="preserve">
<style type="text/css">
	.{{$ctrl.id}}{fill:{{$ctrl.fill}};}
</style>
<g>
	<path ng-class="{ '{{$ctrl.id}}': true}" d="M39.9,23.2c-0.7,0-1.3,0.6-1.3,1.3c0,0.7,0.6,1.3,1.3,1.3c0.7,0,1.3-0.6,1.3-1.3
		C41.1,23.7,40.6,23.2,39.9,23.2z M39.9,25c-0.3,0-0.6-0.3-0.6-0.6c0-0.3,0.3-0.6,0.6-0.6c0.3,0,0.6,0.3,0.6,0.6
		C40.4,24.8,40.2,25,39.9,25z"/>
	<path ng-class="{ '{{$ctrl.id}}': true}" d="M43.9,20.7c0.2,0,0.4,0,0.7,0.1c0.4,0.1-0.1-0.7-0.2-1c-0.7-1.5-3.9-3.7-6.4-3.6c1.2-0.3,0.9-1.3,0.2-2.3
		c-0.9-1.2-4.8-8-5.8-9.2c-0.1-0.1-0.2-0.1-0.3-0.1c-0.1,0-0.2,0.1-0.4,0.2C31.9,4.5,32,4.2,32.3,4L34.3,4v0C34.7,4,35,3.1,35,2.1
		c0-1.1-0.3-1.9-0.7-2v0c0,0-1.7-0.1-1.9-0.1c-0.4,0-0.9,0.2-1.2,0.3c-0.1,0-0.7,0.3-1.4,0.5c-1.6,0.3-2.8,1.1-2.7,1.9
		c0.1,0.5,0.5,0.8,1.3,1c0.3,0.7,1,2.2,1,2.2l0,0C29.4,6,29.3,6,29.3,6c-0.1,0.1-0.1,0.2-0.1,0.3c0.3,0.7,2.9,5.4,3.4,7.6
		c0.1,0.4,0.6,3.3-1.9,6.9c-0.6,0.9-1.5,1.9-2.6,1.9c-0.5,0-2.9,0.1-3.6,0c-1.5-0.3-2.4-0.9-2.2-2.3c0.2-1.9,2.3-3.5,1.3-5.8
		c-0.1-0.2-0.2-0.5-0.3-0.7c0.1,0.1,1.2,0.6,1.4,0.4c0.4-0.3,0.9-1.3,1-1.7c0.1-0.6-0.4-2-1.9-2.2c-2.5-0.3-13.6-2.8-15.3-2.8
		c-0.9,0-1.3,1.5-0.7,2c0.4,0.3,1.6,1,2.8,1.5c-2.4,0.5-5.6,1.9-8.4,4.1c-0.1,0.1-0.3,0.2-0.2,0.4c0.2,0.4,0.6,1.4,0.5,1.5
		c-0.4,0.6-0.6,1-0.6,1.2c0,0.1,0.1,0.2,0.3,0.3c-0.1,0.2-0.3,0.5-0.6,0.9c-0.7,1-1.6,3.1-1.6,3.1s0.5,0.2,1-0.2
		c0.3-0.3,2-2.5,2.5-2.9c0.1-0.1,0.3-0.2,0.4-0.3c0.6,0.1,1.2,0.3,1.9,0.4c-1.7,1-2.8,2.8-2.8,4.8C3,27.5,5.5,30,8.5,30
		c2.4,0,4.5-1.6,5.2-3.7c0,0,12.6,0,15.1,0c1.8,0,2.9-2,3.4-2.7c0.7,0.2,1.4,0.3,2,0.3c0,0.2,0,0.3,0,0.5c0,3.1,2.5,5.5,5.5,5.5
		c3.1,0,5.5-2.5,5.5-5.5C45.4,23,44.8,21.7,43.9,20.7z M8.5,27.6c-1.7,0-3.2-1.4-3.2-3.2c0-1.7,1.4-3.2,3.2-3.2c0.9,0,1.7,0.4,2.3,1
		l-2,0c-1.1,0-2,0.9-2,2c0,1.1,0.9,2,2,2l2.3,0C10.5,27.1,9.6,27.6,8.5,27.6z M39.9,27.6c-1.7,0-3.2-1.4-3.2-3.2
		c0-0.3,0-0.6,0.1-0.9c1.2-0.6,2.5-1.8,3.5-2.2c1.5,0.2,2.7,1.5,2.7,3.1C43,26.2,41.6,27.6,39.9,27.6z"/>
</g>
</svg>
