<?xml version="1.0" encoding="utf-8"?>
<!-- Generator: Adobe Illustrator 19.0.0, SVG Export Plug-In . SVG Version: 6.00 Build 0)  -->
<svg version="1.1" id="Layer_1" xmlns="http://www.w3.org/2000/svg" xmlns:xlink="http://www.w3.org/1999/xlink" x="0px" y="0px"
	 viewBox="0 0 19.5 30" style="enable-background:new 0 0 19.5 30;" xml:space="preserve">
<style type="text/css">
	.{{$ctrl.id}}{fill:{{$ctrl.fill}};}
</style>
<g>
	<path ng-class="{ '{{$ctrl.id}}': true}" d="M18.6,8.8V2.1c0-1.2-1-2.1-2.1-2.1H3.1C1.9,0,0.9,1,0.9,2.1v6.6C3.8,7.6,6.8,7,9.8,7C12.7,7,15.7,7.6,18.6,8.8
		L18.6,8.8z M10.6,2.5h6v3.2h-6V2.5z M8.9,5.7h-6V2.5h6V5.7z M8.9,5.7"/>
	<path ng-class="{ '{{$ctrl.id}}': true}" d="M18.9,10.1c-3-1.3-6.1-2-9.2-2c-3.1,0-6.2,0.7-9.2,2C0.2,10.3,0,10.6,0,11l0,11c0,0.3,0.1,0.5,0.3,0.7
		C0.5,22.9,0.7,23,1,23h0l2.2,0l-0.4,1.1L0.5,30h2.4l0.7-1.8H16l0.7,1.8h2.4l-2.3-5.9L16.3,23l2.2,0h0c0.3,0,0.5-0.1,0.7-0.3
		c0.2-0.2,0.3-0.4,0.3-0.7l0-11C19.5,10.6,19.3,10.3,18.9,10.1L18.9,10.1z M9.8,10.5c1.1,0,2,0.9,2,2c0,1.1-0.9,2-2,2
		c-1.1,0-2-0.9-2-2C7.8,11.4,8.7,10.5,9.8,10.5L9.8,10.5z M5.6,23c1.4,0,2.8,0,4.1,0c1.4,0,2.7,0,4.1,0l0.4,1.1H5.2L5.6,23z M4,27.1
		l0.8-1.9h10l0.8,1.9H4z M4,27.1"/>
</g>
</svg>
