<?xml version="1.0" encoding="utf-8"?>
<!-- Generator: Adobe Illustrator 19.0.0, SVG Export Plug-In . SVG Version: 6.00 Build 0)  -->
<svg version="1.1" id="Layer_1" xmlns="http://www.w3.org/2000/svg" xmlns:xlink="http://www.w3.org/1999/xlink" x="0px" y="0px"
	 viewBox="0 0 45.2 30" style="enable-background:new 0 0 45.2 30;" xml:space="preserve">
<style type="text/css">
	.{{$ctrl.id}}{fill:{{$ctrl.fill}};}
</style>
<g>
	<rect x="19" ng-class="{ '{{$ctrl.id}}': true}" width="26.2" height="17"/>
	<path ng-class="{ '{{$ctrl.id}}': true}" d="M17.1,6c0-0.7-0.6-1.3-1.3-1.3H3c-0.6,0-1.2,0.5-1.2,1.1l-1.2,8.3c0,0.1,0,0.1,0,0.2v4.3H0v5h2.7
		C2.6,24,2.5,24.5,2.5,25c0,2.8,2.2,5,5,5c2.8,0,5-2.2,5-5c0-0.5-0.1-0.9-0.2-1.4h18.6c-0.1,0.4-0.2,0.9-0.2,1.4c0,2.8,2.2,5,5,5
		c2.8,0,5-2.2,5-5c0-0.5-0.1-1-0.2-1.4h4.7v-5H17.1V6z M7.5,27.4c-1.3,0-2.4-1.1-2.4-2.4c0-1.3,1.1-2.4,2.4-2.4s2.4,1.1,2.4,2.4
		C9.9,26.3,8.8,27.4,7.5,27.4L7.5,27.4z M14.6,9.8l-3.9,3.9H3.2l0.9-6.4h10.5V9.8z M35.7,22.6c1.3,0,2.4,1.1,2.4,2.4
		c0,1.3-1.1,2.4-2.4,2.4c-1.3,0-2.4-1.1-2.4-2.4C33.3,23.7,34.4,22.6,35.7,22.6L35.7,22.6z M35.7,22.6"/>
</g>
</svg>
