<?xml version="1.0" encoding="utf-8"?>
<!-- Generator: Adobe Illustrator 19.0.0, SVG Export Plug-In . SVG Version: 6.00 Build 0)  -->
<svg version="1.1" id="Layer_1" xmlns="http://www.w3.org/2000/svg" xmlns:xlink="http://www.w3.org/1999/xlink" x="0px" y="0px"
	 viewBox="0 0 46.7 30" style="enable-background:new 0 0 46.7 30;" xml:space="preserve">
<style type="text/css">
	.{{$ctrl.id}}{fill:{{$ctrl.fill}};}
</style>
<g>
	<path ng-class="{ '{{$ctrl.id}}': true}" d="M46.7,18.2h-27v-13c0-0.7-0.6-1.3-1.3-1.3H5.3c-0.5,0-1,0.3-1.2,0.8l-3.5,8.5c-0.1,0.2-0.1,0.3-0.1,0.5v4.4H0
		v5.1h1.8c0,0,0,0,0.1,0h0.9c-0.1,0.4-0.2,0.9-0.2,1.4c0,2.8,2.3,5.2,5.2,5.2c2.8,0,5.2-2.3,5.2-5.2c0-0.5-0.1-0.9-0.2-1.4h5.7
		c0,0,0,0,0.1,0h13.5c-0.1,0.5-0.2,0.9-0.2,1.5c0,2.8,2.3,5.2,5.2,5.2c2.8,0,5.2-2.3,5.2-5.2c0-0.5-0.1-1-0.2-1.5h4.8V18.2z
		 M7.7,27.3c-1.4,0-2.5-1.1-2.5-2.5c0-1.4,1.1-2.5,2.5-2.5c1.4,0,2.5,1.1,2.5,2.5C10.2,26.2,9.1,27.3,7.7,27.3L7.7,27.3z M17.1,13.1
		H3.6l2.6-6.5h10.9V13.1z M36.9,27.4c-1.4,0-2.5-1.1-2.5-2.5c0-1.4,1.1-2.5,2.5-2.5c1.4,0,2.5,1.1,2.5,2.5
		C39.4,26.2,38.3,27.4,36.9,27.4L36.9,27.4z M36.9,27.4"/>
	<path ng-class="{ '{{$ctrl.id}}': true}" d="M22.4,15.9h21.8L45.7,0L24,0v0h-3.9v2.7h2.3V15.9z M22.4,15.9"/>
</g>
</svg>
