<?xml version="1.0" encoding="utf-8"?>
<!-- Generator: Adobe Illustrator 19.0.0, SVG Export Plug-In . SVG Version: 6.00 Build 0)  -->
<svg version="1.1" id="Layer_1" xmlns="http://www.w3.org/2000/svg" xmlns:xlink="http://www.w3.org/1999/xlink" x="0px" y="0px"
	 viewBox="0 0 30 30" style="enable-background:new 0 0 30 30;" xml:space="preserve">
<style type="text/css">
	.{{$ctrl.id}}{fill:{{$ctrl.fill}};}
</style>
<g>
	<path ng-class="{ '{{$ctrl.id}}': true}" d="M15,0C6.7,0,0,6.7,0,15c0,8.3,6.7,15,15,15c8.3,0,15-6.7,15-15C30,6.7,23.3,0,15,0z M15,24.9
		c-5.4,0-9.9-4.4-9.9-9.9c0-5.4,4.4-9.9,9.9-9.9s9.9,4.4,9.9,9.9C24.9,20.4,20.4,24.9,15,24.9z"/>
	<path ng-class="{ '{{$ctrl.id}}': true}" d="M18.4,19.4c-1.1,0.8-1.5,2.4-0.8,3.6l0.3,0.6c1.8-0.6,3.4-1.8,4.5-3.4L22,19.8C21.1,18.7,19.5,18.6,18.4,19.4z
		"/>
	<path ng-class="{ '{{$ctrl.id}}': true}" d="M14.9,9.4c1.4,0,2.6-1.1,2.7-2.5l0.1-0.6C16.9,6.1,15.9,6,15,6c-1,0-2,0.2-2.9,0.5L12.2,7
		C12.4,8.4,13.5,9.4,14.9,9.4z"/>
	<path ng-class="{ '{{$ctrl.id}}': true}" d="M20.3,13.2c0.4,1.3,1.8,2.1,3.2,1.8l0.6-0.1c0-2-0.7-3.8-1.8-5.3l-0.5,0.2C20.5,10.4,19.8,11.8,20.3,13.2z"/>
	<path ng-class="{ '{{$ctrl.id}}': true}" d="M11.9,19.5c-1.1-0.8-2.7-0.7-3.6,0.4l-0.4,0.5c1.1,1.5,2.7,2.7,4.6,3.2l0.3-0.5C13.3,21.9,13,20.3,11.9,19.5z"
		/>
	<path ng-class="{ '{{$ctrl.id}}': true}" d="M9.7,13.4c0.4-1.3-0.2-2.8-1.5-3.3L7.7,9.8C6.6,11.2,6,13.1,6,15c0,0,0,0,0,0.1l0.6,0.1
		C7.9,15.5,9.3,14.7,9.7,13.4z"/>
	<circle ng-class="{ '{{$ctrl.id}}': true}" cx="14.9" cy="15" r="3.1"/>
</g>
</svg>
