<?xml version="1.0" encoding="utf-8"?>
<!-- Generator: Adobe Illustrator 19.0.0, SVG Export Plug-In . SVG Version: 6.00 Build 0)  -->
<svg version="1.1" id="_x2014_ëîé_x5F_1" xmlns="http://www.w3.org/2000/svg" xmlns:xlink="http://www.w3.org/1999/xlink"
	 x="0px" y="0px" viewBox="0 0 16.9 30" style="enable-background:new 0 0 16.9 30;" xml:space="preserve">
<style type="text/css">
	.{{$ctrl.id}}{fill:{{$ctrl.fill}};}
</style>
<g>
	<path ng-class="{ '{{$ctrl.id}}': true}" d="M8.4,0C3.8,0-0.7,4.7,0.1,10.3c0.8,6.1,6.7,10.3,8.4,10.3c1.7,0,7.7-4.3,8.4-10.3C17.5,4.6,13.1,0,8.4,0z
		 M6,3.2c-0.8,0.6-0.9,0.7-1.9,2C2.9,6.8,3,7.6,2.6,8.3C1.7,9.2,2,8,2,8c1.4-4.9,4.1-5.8,4.1-5.8C7.5,1.9,6,3.2,6,3.2z"/>
	<polygon ng-class="{ '{{$ctrl.id}}': true}" points="9,20.5 8.4,20.3 7.9,20.5 6.6,22.6 8.4,22.6 10.3,22.6 	"/>
	<g>
		<path ng-class="{ '{{$ctrl.id}}': true}" d="M8.5,30l-0.3-0.8l0.1,0.4l-0.1-0.4c0.1,0,0.7-0.3,0.3-1.5c-0.1-0.5-0.3-0.8-0.5-1c-0.5-0.8-0.8-1.3,0-3.5
			l0.9,0c-0.6,1.8-0.5,2.4-0.1,3c0.2,0.3,0.4,0.7,0.6,1.3C9.8,29.1,9,29.8,8.5,30z"/>
	</g>
</g>
</svg>
