<?xml version="1.0" encoding="utf-8"?>
<!-- Generator: Adobe Illustrator 19.0.0, SVG Export Plug-In . SVG Version: 6.00 Build 0)  -->
<svg version="1.1" id="_x2014_ëîé_x5F_1" xmlns="http://www.w3.org/2000/svg" xmlns:xlink="http://www.w3.org/1999/xlink"
	 x="0px" y="0px" viewBox="0 0 34.7 30" style="enable-background:new 0 0 34.7 30;" xml:space="preserve">
<style type="text/css">
	.{{$ctrl.id}}{fill:{{$ctrl.fill}};}
</style>
<g>
	<path ng-class="{ '{{$ctrl.id}}': true}" d="M5,5.7H3.9C1.7,5.7,0,7.4,0,9.6v16.6C0,28.3,1.7,30,3.9,30H5V5.7z"/>
	<g>
		<path ng-class="{ '{{$ctrl.id}}': true}" d="M23.4,3.9c0-2.1-1.7-3.9-3.9-3.9h-4.3c-2.2,0-3.9,1.7-3.9,3.9v1.8H7.9V30h19V5.7h-3.5V3.9z M13.8,3.9
			c0-0.8,0.6-1.4,1.4-1.4h4.3c0.8,0,1.4,0.6,1.4,1.4v1.8h-7.1V3.9z"/>
		<path ng-class="{ '{{$ctrl.id}}': true}" d="M30.8,5.7h-1.1V30h1.1c2.1,0,3.9-1.7,3.9-3.9V9.6C34.7,7.4,33,5.7,30.8,5.7z"/>
	</g>
</g>
</svg>
