<?xml version="1.0" encoding="utf-8"?>
<!-- Generator: Adobe Illustrator 19.0.0, SVG Export Plug-In . SVG Version: 6.00 Build 0)  -->
<svg version="1.1" id="_x2014_ëîé_x5F_1" xmlns="http://www.w3.org/2000/svg" xmlns:xlink="http://www.w3.org/1999/xlink"
	 x="0px" y="0px" viewBox="0 0 26.4 30" style="enable-background:new 0 0 26.4 30;" xml:space="preserve">
<style type="text/css">
	.{{$ctrl.id}}{fill:{{$ctrl.fill}};}
</style>
<g>
	<g>
		<path ng-class="{ '{{$ctrl.id}}': true}" d="M22,3.8v0.6c0,0.5-0.1,0.9-0.4,1.3c-0.1,0.1-0.2,0.2-0.3,0.3c-0.5,0.5-1.1,0.9-1.9,0.9c-0.8,0-1.6-0.4-2-1
			c-0.1-0.2-0.2-0.3-0.3-0.5c-0.1-0.3-0.2-0.7-0.2-1V3.6H9.5v0.8c0,0.4-0.1,0.7-0.2,1C9.2,5.6,9.1,5.7,9,5.9c-0.5,0.6-1.2,1-2,1
			c-0.8,0-1.4-0.3-1.9-0.9C5,5.9,4.9,5.8,4.8,5.7C4.6,5.3,4.4,4.9,4.4,4.4V3.8C1.9,4.6,0,6.9,0,9.7v14.1C0,27.2,2.8,30,6.2,30h14.1
			c3.4,0,6.2-2.8,6.2-6.2V9.7C26.4,6.9,24.6,4.6,22,3.8z M24.1,23.8c0,2.1-1.7,3.8-3.8,3.8H6.2c-2.1,0-3.8-1.7-3.8-3.8V12.6h21.8
			V23.8z"/>
		<path ng-class="{ '{{$ctrl.id}}': true}" d="M18.7,5.9c0.2,0.1,0.5,0.2,0.8,0.2c0.3,0,0.6-0.1,0.8-0.2c0.2-0.1,0.4-0.2,0.5-0.4c0.2-0.3,0.4-0.7,0.4-1.1
			V3.6V1.7c0-0.9-0.8-1.7-1.7-1.7c-0.9,0-1.7,0.8-1.7,1.7v1.9v0.8c0,0.4,0.1,0.7,0.3,1C18.2,5.6,18.4,5.8,18.7,5.9z"/>
		<path ng-class="{ '{{$ctrl.id}}': true}" d="M6.2,5.9C6.4,6,6.7,6.1,7,6.1c0.3,0,0.6-0.1,0.8-0.2C8,5.8,8.2,5.6,8.4,5.4c0.2-0.3,0.3-0.6,0.3-1V3.6V1.7
			C8.7,0.8,7.9,0,7,0C6,0,5.3,0.8,5.3,1.7v1.9v0.7c0,0.4,0.1,0.8,0.4,1.1C5.8,5.6,6,5.8,6.2,5.9z"/>
	</g>
	<g>
		<path ng-class="{ '{{$ctrl.id}}': true}" d="M11.9,23.6c0,0.1,0,0.2,0,0.3s0,0.2-0.1,0.2c0,0.1-0.1,0.1-0.1,0.1c0,0-0.1,0-0.1,0H6.4c-0.1,0-0.2,0-0.3,0
			c-0.1,0-0.1-0.1-0.2-0.1c0-0.1-0.1-0.1-0.1-0.2c0-0.1,0-0.2,0-0.4c0-0.2,0-0.3,0-0.4c0-0.1,0-0.2,0.1-0.3c0-0.1,0.1-0.2,0.1-0.3
			c0.1-0.1,0.1-0.2,0.2-0.3l1.6-1.7c0.3-0.3,0.6-0.6,0.8-0.9c0.2-0.3,0.3-0.5,0.4-0.7c0.1-0.2,0.2-0.4,0.2-0.6
			c0-0.2,0.1-0.4,0.1-0.5c0-0.2,0-0.3-0.1-0.4c0-0.1-0.1-0.3-0.2-0.4C8.9,17,8.8,17,8.7,16.9c-0.1-0.1-0.3-0.1-0.5-0.1
			c-0.3,0-0.5,0-0.7,0.1c-0.2,0.1-0.4,0.1-0.6,0.2c-0.2,0.1-0.3,0.2-0.4,0.2c-0.1,0.1-0.2,0.1-0.3,0.1c0,0-0.1,0-0.1,0
			c0,0-0.1-0.1-0.1-0.1c0-0.1,0-0.2,0-0.3c0-0.1,0-0.2,0-0.4c0-0.1,0-0.2,0-0.3c0-0.1,0-0.1,0-0.2c0-0.1,0-0.1,0.1-0.1
			c0,0,0.1-0.1,0.1-0.1c0.1-0.1,0.2-0.1,0.3-0.2c0.2-0.1,0.3-0.2,0.6-0.3c0.2-0.1,0.5-0.1,0.8-0.2c0.3-0.1,0.6-0.1,0.9-0.1
			c0.5,0,0.9,0.1,1.2,0.2c0.4,0.1,0.6,0.3,0.9,0.5c0.2,0.2,0.4,0.5,0.5,0.8c0.1,0.3,0.2,0.6,0.2,0.9c0,0.3,0,0.6-0.1,0.9
			c-0.1,0.3-0.2,0.6-0.3,0.9c-0.2,0.3-0.4,0.7-0.7,1.1c-0.3,0.4-0.7,0.9-1.3,1.4L8,22.9h3.5c0,0,0.1,0,0.1,0c0,0,0.1,0.1,0.1,0.1
			c0,0.1,0,0.1,0.1,0.2C11.9,23.4,11.9,23.5,11.9,23.6z"/>
		<path ng-class="{ '{{$ctrl.id}}': true}" d="M20.8,23.6c0,0.1,0,0.2,0,0.3c0,0.1,0,0.2-0.1,0.2c0,0.1-0.1,0.1-0.1,0.1c0,0-0.1,0-0.1,0h-5c0,0-0.1,0-0.1,0
			c0,0-0.1-0.1-0.1-0.1c0-0.1,0-0.1-0.1-0.2c0-0.1,0-0.2,0-0.3c0-0.1,0-0.2,0-0.3c0-0.1,0-0.2,0.1-0.2c0-0.1,0.1-0.1,0.1-0.1
			c0,0,0.1,0,0.1,0h1.7v-5.9l-1.4,0.8c-0.1,0.1-0.2,0.1-0.3,0.1c-0.1,0-0.1,0-0.2,0c0,0-0.1-0.1-0.1-0.2c0-0.1,0-0.2,0-0.4
			c0-0.1,0-0.2,0-0.3c0-0.1,0-0.1,0-0.2c0-0.1,0-0.1,0.1-0.1c0,0,0.1-0.1,0.1-0.1l1.9-1.3c0,0,0.1,0,0.1,0c0,0,0.1,0,0.1,0
			c0.1,0,0.1,0,0.2,0c0.1,0,0.2,0,0.4,0c0.2,0,0.3,0,0.4,0c0.1,0,0.2,0,0.2,0c0.1,0,0.1,0,0.1,0.1c0,0,0,0.1,0,0.1v7.4h1.5
			c0,0,0.1,0,0.1,0c0,0,0.1,0.1,0.1,0.1c0,0.1,0,0.1,0.1,0.2C20.8,23.4,20.8,23.5,20.8,23.6z"/>
	</g>
</g>
</svg>
