<?xml version="1.0" encoding="utf-8"?>
<!-- Generator: Adobe Illustrator 19.0.0, SVG Export Plug-In . SVG Version: 6.00 Build 0)  -->
<svg version="1.1" id="_x2014_ëîé_x5F_1" xmlns="http://www.w3.org/2000/svg" xmlns:xlink="http://www.w3.org/1999/xlink"
	 x="0px" y="0px" viewBox="0 0 40.2 30" style="enable-background:new 0 0 40.2 30;" xml:space="preserve">
<style type="text/css">
	.{{$ctrl.id}}{fill:{{$ctrl.fill}};}
</style>
<path ng-class="{ '{{$ctrl.id}}': true}" d="M40.2,25.5L39.3,9.1c0-5-4.1-9.1-9.1-9.1c-3,0-5.6,1.4-7.3,3.7c-1.8,1.1-2.8,0.8-2.8,0.8s-1,0.3-2.8-0.8
	C15.6,1.4,13,0,10,0C5,0,0.9,4.1,0.9,9.1L0,25.5l0,0c0,0.1,0,0.3,0,0.4C0,28.2,1.8,30,4.1,30c1.2,0,2.2-0.5,3-1.3l0.1,0l5.8-6.9
	c0,0,2.2-1.9,4.8-1.7h1.4h1h1h1.4c2.6-0.2,4.8,1.7,4.8,1.7l5.8,6.9l0.1,0c0.7,0.8,1.8,1.3,3,1.3c2.2,0,4.1-1.8,4.1-4.1
	C40.2,25.8,40.2,25.7,40.2,25.5L40.2,25.5z M15.7,12.2h-3.9v3.9H8.5v-3.9H4.6V8.9h3.9V5h3.3v3.9h3.9V12.2z M26,12.5
	c-1.1,0-2-0.9-2-2c0-1.1,0.9-2,2-2c1.1,0,2,0.9,2,2C28,11.6,27.1,12.5,26,12.5z M30,16.6c-1.1,0-2-0.9-2-2c0-1.1,0.9-2,2-2
	c1.1,0,2,0.9,2,2C32,15.7,31.1,16.6,30,16.6z M30,8.5c-1.1,0-2-0.9-2-2s0.9-2,2-2c1.1,0,2,0.9,2,2S31.1,8.5,30,8.5z M34.1,12.5
	c-1.1,0-2-0.9-2-2c0-1.1,0.9-2,2-2c1.1,0,2,0.9,2,2C36.1,11.6,35.2,12.5,34.1,12.5z"/>
</svg>
