<?xml version="1.0" encoding="utf-8"?>
<!-- Generator: Adobe Illustrator 19.0.0, SVG Export Plug-In . SVG Version: 6.00 Build 0)  -->
<svg version="1.1" id="_x2014_ëîé_x5F_1" xmlns="http://www.w3.org/2000/svg" xmlns:xlink="http://www.w3.org/1999/xlink"
	 x="0px" y="0px" viewBox="0 0 16.2 30" style="enable-background:new 0 0 16.2 30;" xml:space="preserve">
<style type="text/css">
	.{{$ctrl.id}}{fill:{{$ctrl.fill}};}
</style>
<g>
	<g>
		<path ng-class="{ '{{$ctrl.id}}': true}" d="M11.1,22.6h-6c-2.8,0-5.1-2.3-5.1-5.1v-6.7h1.8v6.7c0,1.8,1.5,3.3,3.3,3.3h6c1.8,0,3.3-1.5,3.3-3.3v-6.7h1.8
			v6.7C16.2,20.3,13.9,22.6,11.1,22.6z"/>
	</g>
	<path ng-class="{ '{{$ctrl.id}}': true}" d="M13.7,16.8c0,1.8-1.5,3.3-3.3,3.3H5.7c-1.8,0-3.3-1.5-3.3-3.3V3.3C2.5,1.5,3.9,0,5.7,0h4.7
		c1.8,0,3.3,1.5,3.3,3.3V16.8z"/>
	<g>
		<rect x="7.2" y="21.7" ng-class="{ '{{$ctrl.id}}': true}" width="1.8" height="5.7"/>
	</g>
	<g>
		<path ng-class="{ '{{$ctrl.id}}': true}" d="M13.7,30v-0.1c0-1.8-1.5-3.3-3.3-3.3H5.7c-1.8,0-3.3,1.5-3.3,3.3V30H13.7z"/>
	</g>
</g>
</svg>
