<?xml version="1.0" encoding="utf-8"?>
<!-- Generator: Adobe Illustrator 19.0.0, SVG Export Plug-In . SVG Version: 6.00 Build 0)  -->
<svg version="1.1" id="_x2014_ëîé_x5F_1" xmlns="http://www.w3.org/2000/svg" xmlns:xlink="http://www.w3.org/1999/xlink"
	 x="0px" y="0px" viewBox="0 0 28.1 30" style="enable-background:new 0 0 28.1 30;" xml:space="preserve">
<style type="text/css">
	.{{$ctrl.id}}{fill:{{$ctrl.fill}};}
</style>
<path ng-class="{ '{{$ctrl.id}}': true}" d="M28.1,0L8.9,6.2v14c-1.5-0.7-3.3-0.7-5.1,0.1c-3,1.3-4.5,4.4-3.4,6.9c1.1,2.5,4.4,3.5,7.4,2.1
	c2.7-1.2,4.2-3.8,3.7-6.1V10.7l13.9-3.9l0.2,10.4c-1.5-0.7-3.4-0.7-5.1,0.1c-3,1.3-4.5,4.4-3.4,6.9c1.1,2.5,4.4,3.5,7.4,2.1
	c2.4-1.1,3.9-3.3,3.8-5.4l0,0V0z"/>
</svg>
