<?xml version="1.0" encoding="utf-8"?>
<!-- Generator: Adobe Illustrator 19.0.0, SVG Export Plug-In . SVG Version: 6.00 Build 0)  -->
<svg version="1.1" id="_x2014_ëîé_x5F_1" xmlns="http://www.w3.org/2000/svg" xmlns:xlink="http://www.w3.org/1999/xlink"
	 x="0px" y="0px" viewBox="0 0 39.6 30" style="enable-background:new 0 0 39.6 30;" xml:space="preserve">
<style type="text/css">
	.{{$ctrl.id}}{fill:{{$ctrl.fill}};}
</style>
<g>
	<path ng-class="{ '{{$ctrl.id}}': true}" d="M19.8,9.8c-4.2,0-7.6,3.4-7.6,7.6c0,4.2,3.4,7.6,7.6,7.6c4.2,0,7.6-3.4,7.6-7.6C27.4,13.2,24,9.8,19.8,9.8z"/>
	<path ng-class="{ '{{$ctrl.id}}': true}" d="M38.3,5.4h-8.1l-5-5.4h-5.4h-5.4l-5,5.4H1.3L0,6.5V30h19.8h19.8V6.5L38.3,5.4z M19.8,27.4c-5.5,0-10-4.5-10-10
		s4.5-10,10-10c5.5,0,10,4.5,10,10S25.3,27.4,19.8,27.4z"/>
</g>
</svg>
