<?xml version="1.0" encoding="utf-8"?>
<!-- Generator: Adobe Illustrator 19.0.0, SVG Export Plug-In . SVG Version: 6.00 Build 0)  -->
<svg version="1.1" id="_x2014_ëîé_x5F_1" xmlns="http://www.w3.org/2000/svg" xmlns:xlink="http://www.w3.org/1999/xlink"
	 x="0px" y="0px" viewBox="0 0 23.8 30" style="enable-background:new 0 0 23.8 30;" xml:space="preserve">
<style type="text/css">
	.{{$ctrl.id}}{fill:{{$ctrl.fill}};}
</style>
<path ng-class="{ '{{$ctrl.id}}': true}" d="M21.2,0H2.6C1.1,0,0,1.1,0,2.6v24.9C0,28.9,1.1,30,2.6,30h18.7c1.4,0,2.6-1.1,2.6-2.6V2.6
	C23.8,1.1,22.6,0,21.2,0z M4.1,6.4C3.8,6.2,2.9,5.5,2.5,4.9c-0.3-0.6-0.3-1.2,0-1.6c0.3-0.4,0.8-1.1,2-0.8c0,0,0.6,0.3,0.7,0.8
	c0,0,0.3-1,1.5-0.8C8,2.6,8.2,3.9,8.1,4.6c-0.2,0.7-0.6,1-1.3,1.6C6,6.6,5.4,7,5.2,7.2C5.2,7.2,4.3,6.6,4.1,6.4z M11.7,20.3
	c0,0-1.8-1.2-2.4-1.7c-0.6-0.4-2.6-1.9-3.2-3.1c-0.7-1.2-0.6-2.6,0-3.4c0.5-0.9,1.8-2.4,4.2-1.7c0,0,1.3,0.6,1.5,1.7
	c0,0,0.6-2.1,3.2-1.8c2.7,0.3,3.2,3,2.8,4.4c-0.4,1.4-1.2,2.2-2.8,3.3C13.5,19.2,12.3,19.8,11.7,20.3z M21.6,26.8
	c-0.3,0.4-0.8,1.1-2,0.8c0,0-0.6-0.3-0.7-0.8c0,0-0.3,1-1.5,0.8c-1.3-0.1-1.5-1.4-1.3-2.1c0.2-0.7,0.6-1,1.3-1.6
	c0.7-0.5,1.3-0.8,1.6-1.1c0,0,0.8,0.6,1.1,0.8c0.3,0.2,1.2,0.9,1.5,1.5C21.9,25.8,21.8,26.4,21.6,26.8z"/>
</svg>
