<?xml version="1.0" encoding="utf-8"?>
<!-- Generator: Adobe Illustrator 19.0.0, SVG Export Plug-In . SVG Version: 6.00 Build 0)  -->
<svg version="1.1" id="_x2014_ëîé_x5F_1" xmlns="http://www.w3.org/2000/svg" xmlns:xlink="http://www.w3.org/1999/xlink"
	 x="0px" y="0px" viewBox="0 0 31.5 30" style="enable-background:new 0 0 31.5 30;" xml:space="preserve">
<style type="text/css">
	.{{$ctrl.id}}{fill:{{$ctrl.fill}};}
</style>
<path ng-class="{ '{{$ctrl.id}}': true}" d="M15.1,0.8c0.3-1,0.9-1,1.2,0l2.7,8.4c0.3,1,1.5,1.9,2.6,1.9h8.8c1.1,0,1.3,0.5,0.4,1.2l-7.2,5.2
	c-0.9,0.6-1.3,2-1,3.1l2.7,8.4c0.3,1-0.1,1.4-1,0.7l-7.2-5.2c-0.9-0.6-2.3-0.6-3.2,0L7,29.7c-0.9,0.6-1.3,0.3-1-0.7l2.7-8.4
	c0.3-1-0.1-2.4-1-3.1l-7.2-5.2c-0.9-0.6-0.7-1.2,0.4-1.2h8.8c1.1,0,2.3-0.9,2.6-1.9L15.1,0.8z"/>
</svg>
