<?xml version="1.0" encoding="utf-8"?>
<!-- Generator: Adobe Illustrator 19.0.0, SVG Export Plug-In . SVG Version: 6.00 Build 0)  -->
<svg version="1.1" id="_x2014_ëîé_x5F_1" xmlns="http://www.w3.org/2000/svg" xmlns:xlink="http://www.w3.org/1999/xlink"
	 x="0px" y="0px" viewBox="0 0 32.8 30" style="enable-background:new 0 0 32.8 30;" xml:space="preserve">
<style type="text/css">
	.{{$ctrl.id}}{fill:{{$ctrl.fill}};}
</style>
<path ng-class="{ '{{$ctrl.id}}': true}" d="M31.2,17.4c-0.4-0.1-0.8,0.1-1,0.5c-0.6,1.8-1.4,3.4-2.5,4.8L25.5,9.5c0,0-0.5-3.1,2-2.1l1.6,2.4
	c0,0,1.7,0.6,2.5-1.7l-0.4-4.5l-0.4-0.8l-0.1-0.8l2.1-0.7l-0.4-0.4l-4.5-0.7c0,0-5.8-1.2-9.1,3.5c0,0-1.3,1.8-1.2,5.9H2.4
	c0,0-1,0.2-1,1.1c0,0.8,0.9,1.1,0.9,1.1h3.2l-1.6,11c-1-1.3-1.9-2.9-2.4-4.5c-0.1-0.4-0.6-0.6-1-0.5c-0.4,0.1-0.6,0.6-0.5,1
	C2.3,25.4,8.6,30,15.8,30c3.6,0,7.1-1.1,9.9-3.3c2.8-2.1,4.9-5.1,5.9-8.4C31.8,17.9,31.6,17.5,31.2,17.4z M6.5,25.2
	c0.1-1.4,1-7.4,9.3-7.4c8.5,0,9.2,6.2,9.3,7.5c-2.6,2-5.8,3.1-9.2,3.1C12.3,28.5,9.1,27.3,6.5,25.2z"/>
</svg>
