<?xml version="1.0" encoding="utf-8"?>
<!-- Generator: Adobe Illustrator 19.0.0, SVG Export Plug-In . SVG Version: 6.00 Build 0)  -->
<svg version="1.1" id="_x2014_ëîé_x5F_1" xmlns="http://www.w3.org/2000/svg" xmlns:xlink="http://www.w3.org/1999/xlink"
	 x="0px" y="0px" viewBox="0 0 50.3 30" style="enable-background:new 0 0 50.3 30;" xml:space="preserve">
<style type="text/css">
	.{{$ctrl.id}}{fill:{{$ctrl.fill}};}
</style>
<g>
	<circle ng-class="{ '{{$ctrl.id}}': true}" cx="12.9" cy="26.8" r="3.2"/>
	<circle ng-class="{ '{{$ctrl.id}}': true}" cx="21.6" cy="26.8" r="3.2"/>
	<circle ng-class="{ '{{$ctrl.id}}': true}" cx="30.3" cy="26.8" r="3.2"/>
	<circle ng-class="{ '{{$ctrl.id}}': true}" cx="39" cy="26.8" r="3.2"/>
	<path ng-class="{ '{{$ctrl.id}}': true}" d="M50.3,15.6c0-3-2.2-6.1-2.2-6.1l-2.7-0.2V2.5h-5.2v6.8l-4.1,0.2V6.6h-3.9v2.7l-2.9,0.2V6.6l-5.2-0.2v3L21,9.3
		V0H0v5.2h2.3l0.5,16.1H1.1v3.9h7.3L8.5,22h35.9l0.5,4.1h5.4v-3.8l-2-2.3C48.4,20.1,50.3,18.6,50.3,15.6z M17.2,9.3h-10V3.4h10V9.3z
		"/>
</g>
</svg>
