<?xml version="1.0" encoding="utf-8"?>
<!-- Generator: Adobe Illustrator 19.0.0, SVG Export Plug-In . SVG Version: 6.00 Build 0)  -->
<svg version="1.1" id="Layer_1" xmlns="http://www.w3.org/2000/svg" xmlns:xlink="http://www.w3.org/1999/xlink" x="0px" y="0px"
	 viewBox="6 0 41.7 30" style="enable-background:new 6 0 41.7 30;" xml:space="preserve">
<style type="text/css">
	.{{$ctrl.id}}{fill:{{$ctrl.fill}};}
</style>
<g>
	<g>
		<path ng-class="{ '{{$ctrl.id}}': true}" d="M17.5,0c-4.9,0-4.9,4.3-4.9,4.3l0,2.3c-0.4,0-0.5,0.4-0.5,1.2c0,1.2,0.7,2.4,1.4,3.1c0.2,0.9,0.7,1.8,1.2,2.4
			c0,0,0,0-0.1,0c-2,1.2-4.3,2-5.8,2.8c-0.4,0.2-0.9,0.6-1.2,1.1c-0.2,0.3-0.5,0.7-0.7,1.1c0,0,0,0,0,0c0,0.1-0.1,0.1-0.1,0.2
			c-0.4,0.8-0.6,1.6-0.8,2.5c0,0,0,0,0,0c0,0,0,0.1,0,0.1c0,0.1-0.1,0.3-0.1,0.4c0,0.1,0,0.4,0,0.5c0,0,0,0,0,0
			c-0.1,0.8,1.4,1,1.4,1c0.5,0.2,1.5,0.3,2.7,0.5c1.1,0.2,2.3,0.3,3.4,0.4c0.4-1.1,0.9-2.1,1.7-2.9c1.8-1.8,4.5-2.4,6.7-3.6
			c0.3-0.2-1.7-3.4-1.9-3.7c-0.4-1.2-0.8-2.8,0-3.9c0.2-1.2,0-2.6,0.4-3.8c0.3-1.1,0.9-2,1.8-2.7C22,2.1,21,0,17.5,0L17.5,0z"/>
		<path ng-class="{ '{{$ctrl.id}}': true}" d="M26.9,3c-5.5,0-5.4,4.8-5.4,4.8l0,2.5c-0.5,0-0.6,0.4-0.6,1.3c0,1.3,0.8,2.7,1.6,3.4c0.2,1,0.7,2,1.4,2.7
			c0,0,0,0-0.1,0l0,0c-2.2,1.3-4.8,2.2-6.5,3.1c-0.5,0.2-1,0.7-1.4,1.2c-0.3,0.4-0.5,0.8-0.7,1.2c0,0,0,0,0,0c0,0.1-0.1,0.1-0.1,0.2
			c-0.4,0.9-0.7,1.8-0.9,2.8c0,0,0,0,0,0.1c0,0,0,0.1,0,0.1c0,0.2-0.1,0.3-0.1,0.5c0,0.1,0,0.4,0,0.6c0,0,0,0,0,0
			c-0.1,0.9,1.6,1.1,1.6,1.1c0.6,0.2,1.7,0.4,3.1,0.6c2.4,0.4,4.9,0.5,7.3,0.6c0.2,0,0.5,0,0.7,0c0,0,0,0,0,0c0.1,0,0.3,0,0.4,0
			c0.3,0,0.5,0,0.7,0c2.4-0.1,4.9-0.2,7.3-0.6c1.4-0.2,2.5-0.4,3.1-0.6c0,0,1.6-0.3,1.6-1.1c0,0,0,0,0,0c0-0.1,0-0.4,0-0.6
			c0-0.2-0.1-0.5-0.1-0.7c-0.2-1-0.5-2.1-1-3c0,0,0,0,0,0c-0.2-0.4-0.4-0.8-0.7-1.1c-0.4-0.6-0.9-1-1.4-1.2
			c-1.7-0.9-4.3-1.8-6.5-3.1l0,0c0,0,0,0-0.1,0c0.6-0.7,1.1-1.6,1.4-2.7c0.7-0.7,1.6-2.1,1.6-3.4c0-0.9-0.1-1.3-0.6-1.3l0-2.5
			C32.3,7.8,32.3,3,26.9,3L26.9,3z"/>
		<path ng-class="{ '{{$ctrl.id}}': true}" d="M36.2,0C41.1,0,41,4.3,41,4.3l0,2.3c0.4,0,0.5,0.4,0.5,1.2c0,1.2-0.7,2.4-1.4,3.1c-0.2,0.9-0.7,1.8-1.2,2.4
			c0,0,0,0,0.1,0c2,1.2,4.3,2,5.8,2.8c0.4,0.2,0.9,0.6,1.2,1.1c0.2,0.3,0.5,0.7,0.7,1.1c0,0,0,0,0,0c0,0.1,0.1,0.1,0.1,0.2
			c0.4,0.8,0.6,1.6,0.8,2.5c0,0,0,0,0,0c0,0,0,0.1,0,0.1c0,0.1,0.1,0.3,0.1,0.4c0,0.1,0,0.4,0,0.5c0,0,0,0,0,0c0.1,0.8-1.4,1-1.4,1
			c-0.5,0.2-1.5,0.3-2.7,0.5c-1.1,0.2-2.3,0.3-3.4,0.4c-0.4-1.1-0.9-2.1-1.7-2.9c-1.8-1.8-4.5-2.4-6.7-3.6c-0.3-0.2,1.7-3.4,1.9-3.7
			c0.4-1.2,0.8-2.8,0-3.9c-0.2-1.2,0-2.6-0.4-3.8c-0.3-1.1-0.9-2-1.8-2.7C31.7,2.1,32.7,0,36.2,0L36.2,0z"/>
	</g>
</g>
</svg>
