<?xml version="1.0" encoding="utf-8"?>
<!-- Generator: Adobe Illustrator 19.0.0, SVG Export Plug-In . SVG Version: 6.00 Build 0)  -->
<svg version="1.1" id="Layer_3" xmlns="http://www.w3.org/2000/svg" xmlns:xlink="http://www.w3.org/1999/xlink" x="0px" y="0px"
	 viewBox="0 0 30.9 30" style="enable-background:new 0 0 30.9 30;" xml:space="preserve">
<style type="text/css">
	.{{$ctrl.id}}{fill:{{$ctrl.fill}};}
</style>
<g>
	<ellipse ng-class="{ '{{$ctrl.id}}': true}" cx="7.7" cy="3.5" rx="2.1" ry="2.6"/>
	<ellipse ng-class="{ '{{$ctrl.id}}': true}" cx="25" cy="3.5" rx="2.1" ry="2.6"/>
	<path ng-class="{ '{{$ctrl.id}}': true}" d="M10.3,19.5l-0.7-0.1l0.9-11.6c0-0.3,0.1-0.6,0.3-0.9c-0.1,0-0.1,0-0.2,0c0,0,0,0-0.1,0c-0.4,0-0.7-0.1-1-0.1
		l0,0l0.9,0.8L9.3,8.1L9.8,9l-1.4,3.1L8.2,7.7l0.2-0.2L8.1,6.7H7.2L7,7.5l0.2,0.2l-0.2,4.4L5.6,9l0.5-0.9L5,7.5l0.9-0.8l0,0
		c-0.3,0-0.7,0.1-1,0.1c0,0-0.1,0-0.1,0C4.4,6.9,4.1,7,3.8,7.3l-3.6,3.9l0,0l0,0c-0.3,3.1-0.1,0.9-0.2,1.5l0,0l0,0l0,0l0,0.1L0.2,13
		l0.1,0.3l0.3,0.6l0.6,1.2l1.2,2.4c0.5-0.3,1.1-0.6,1.6-0.9c0,0.5,0,1,0,1.5c0,0,0,0,0,0.1c0.1,0,0.2,0,0.3,0l0.3,10.2h2.9
		c0.1-3,0-8.2,0-10.2c0.1,0,0.2,0,0.3,0l0.3,10.2h2.9c0.1-2.5,0-6.4,0-8.9C10.8,19.5,10.6,19.5,10.3,19.5z M4.1,14.3l-0.3-0.6
		l-0.7-1.1l-0.2-0.3l1.3-1.6C4.1,11.9,4.1,13.1,4.1,14.3z"/>
	<path ng-class="{ '{{$ctrl.id}}': true}" d="M30.9,13L30.9,13L30.9,13L30.9,13l-0.1-0.2l-1.9-5c-0.2-0.5-0.6-0.9-1.1-0.9c0,0,0,0-0.1,0
		c-0.4,0-0.7-0.1-1-0.1l0,0l0.9,0.8l-1.1,0.6L27.1,9l-1.4,3.1l-0.2-4.4l0.2-0.2l-0.3-0.8h-0.9l-0.3,0.8l0.2,0.2l-0.2,4.4L22.8,9
		l0.5-0.9l-1.1-0.6l0.9-0.8l0,0c-0.3,0-0.7,0.1-1,0.1c0,0-0.1,0-0.1,0c-0.3,0-0.6,0.1-0.8,0.3c0.1,0.2,0.1,0.4,0.1,0.6l0.9,11.6
		l-0.7,0.1l0.3,8.9h2.9c0.1-3,0-8.2,0-10.2c0.1,0,0.2,0,0.3,0l0.3,10.2h2.9c0.1-2.8,0-7.7,0-9.9c0.2,0.1,0.4,0.2,0.5,0.2l1-2.5
		l0.5-1.2l0.3-0.6l0.1-0.3l0-0.1l0,0l0,0C30.9,13.6,30.8,15,30.9,13z"/>
	<ellipse ng-class="{ '{{$ctrl.id}}': true}" cx="15.9" cy="2.9" rx="2.3" ry="2.9"/>
	<path ng-class="{ '{{$ctrl.id}}': true}" d="M19.1,6.5C19.1,6.5,19.1,6.5,19.1,6.5c-0.5-0.1-0.8-0.1-1.2-0.1l0,0l1,0.8l-1.2,0.6l0.6,1l-1.5,3.4l-0.2-4.8
		l0.2-0.2l-0.3-0.9h-0.9l-0.3,0.9l0.2,0.2l-0.2,4.8l-1.5-3.4l0.6-1L13,7.3l1-0.8l0,0c-0.4,0-0.8,0.1-1.1,0.1c0,0-0.1,0-0.1,0
		c-0.7,0-1.3,0.5-1.3,1.3l-1,10.9c0.5,0,1,0.1,1.5,0.1c0,0,0,0,0,0c0,0,0.1,0,0.1,0c0.1,0,0.1,0,0.2,0L12.6,30h3.2
		c0.1-3.3,0-9,0-11.2c0.1,0,0.2,0,0.3,0L16.4,30h3.2c0.1-3.2,0-8.9,0-11.2c0.1,0,0.2,0,0.3,0c0,0,0,0,0.1,0c0,0,0,0,0,0
		c0.5,0,1-0.1,1.6-0.1l-1-10.9C20.4,7,19.8,6.5,19.1,6.5z"/>
</g>
</svg>
