<?xml version="1.0" encoding="utf-8"?>
<!-- Generator: Adobe Illustrator 19.0.0, SVG Export Plug-In . SVG Version: 6.00 Build 0)  -->
<svg version="1.1" id="Layer_1" xmlns="http://www.w3.org/2000/svg" xmlns:xlink="http://www.w3.org/1999/xlink" x="0px" y="0px"
	 viewBox="-676.3 -235 28.7 30" style="enable-background:new -676.3 -235 28.7 30;" xml:space="preserve">
<style type="text/css">
	.{{$ctrl.id}}{fill:{{$ctrl.fill}};}
</style>
<g>
	<path ng-class="{ '{{$ctrl.id}}': true}" d="M-666.8-217.7c-2.6,1.3-5.8,2-7.4,4.1c-1.4,1.8-2,3.7-2,5.5c0,0.1,0,0.1,0,0.2c0,0.1,0,0.3,0,0.4
		c0.1,0.9,1,1.1,1.7,1.3c4.4,0.8,8.6,1.3,12.6,1.3c4,0,8.2-0.5,12.6-1.3c0.7-0.2,1.7-0.4,1.7-1.3c0-0.1,0-0.3,0-0.4
		c0-0.1,0-0.1,0-0.2c0-1.8-0.6-3.6-2-5.5c-1.6-2.1-4.8-2.7-7.4-4.1c-0.8,3.9-1.6,7.1-4.4,10.6c-0.3,0.3-0.4,0.4-0.5,0.4
		c-0.1,0-0.2-0.1-0.5-0.4C-665.2-210.7-666-213.8-666.8-217.7L-666.8-217.7z"/>
	<path ng-class="{ '{{$ctrl.id}}': true}" d="M-663.2-215.5c-0.1,0-0.3,0.1-0.2,0.3l0.4,1.9c0,0.1,0.1,0.2,0.2,0.2h1.7c0.1,0,0.2-0.1,0.2-0.2l0.4-1.9
		c0-0.1-0.1-0.3-0.2-0.3H-663.2z M-662.8-212.7c-0.1,0-0.2,0.1-0.2,0.2l-0.5,2c0.4,0.9,0.9,1.9,1.5,2.8c0.5-0.9,1-1.8,1.5-2.8
		l-0.5-2c0-0.1-0.1-0.2-0.2-0.2H-662.8L-662.8-212.7L-662.8-212.7z"/>
	<path ng-class="{ '{{$ctrl.id}}': true}" d="M-661.9-235c-6.1,0-6,5.3-6,5.3l0,2.8c-0.5,0-0.6,0.5-0.6,1.5c0,1.5,0.9,3,1.7,3.8c0,0.1,0.1,0.2,0.1,0.3
		c0.7,2.3,2.6,4.1,4.9,4.1c2.3-0.1,4.1-1.8,4.9-4.1c0-0.1,0.1-0.2,0.1-0.3c0.8-0.8,1.7-2.3,1.7-3.8c0-1-0.1-1.5-0.6-1.5l0-2.8
		C-655.9-229.7-655.8-235-661.9-235L-661.9-235z"/>
</g>
</svg>
