<?xml version="1.0" encoding="utf-8"?>
<!-- Generator: Adobe Illustrator 19.0.0, SVG Export Plug-In . SVG Version: 6.00 Build 0)  -->
<svg version="1.1" id="Layer_3" xmlns="http://www.w3.org/2000/svg" xmlns:xlink="http://www.w3.org/1999/xlink" x="0px" y="0px"
	 viewBox="0 0 31.1 30" style="enable-background:new 0 0 31.1 30;" xml:space="preserve">
<style type="text/css">
	.{{$ctrl.id}}{fill:{{$ctrl.fill}};}
</style>
<g>
	<ellipse ng-class="{ '{{$ctrl.id}}': true}" cx="16.2" cy="5.4" rx="4.4" ry="5.4"/>
	<polygon ng-class="{ '{{$ctrl.id}}': true}" points="16.2,26.1 16.2,26.1 16.2,26 	"/>
	<path ng-class="{ '{{$ctrl.id}}': true}" d="M11.9,16.5l1-1.8l-2.2-1.1l1.9-1.6l0-0.1c-0.7,0.1-1.4,0.1-2.1,0.2c0,0,0,0,0,0c-1.1,0-2,0.3-2.1,0.9l-0.9,5
		h5.3L11.9,16.5z"/>
	<path ng-class="{ '{{$ctrl.id}}': true}" d="M15.5,18.9H0.3c-0.2,0-0.3,0.1-0.3,0.3v10.4C0,29.9,0.1,30,0.3,30h15.2c0.2,0,0.3-0.1,0.3-0.3V19.2
		C15.8,19.1,15.7,18.9,15.5,18.9z M7.9,26.1c-0.9,0-1.6-0.7-1.6-1.6c0-0.9,0.7-1.6,1.6-1.6c0.9,0,1.6,0.7,1.6,1.6
		C9.5,25.4,8.8,26.1,7.9,26.1z"/>
	<path ng-class="{ '{{$ctrl.id}}': true}" d="M30.4,21l-6.2-7.8c-0.5-0.7-1.3-1-2-1c0,0,0,0-0.1,0c-0.7-0.1-1.4-0.2-2.1-0.2l0,0.1l1.9,1.6l-2.2,1.1l1,1.8
		l-2.9,6.3l-0.5-8.9l0.4-0.4l-0.5-2h-1.8l-0.5,2l0.4,0.4L15,18.1h0.5c0.6,0,1.2,0.5,1.2,1.2v7h3.1c0.1,0,0.2,0,0.3,0h0.7
		c0.1,0.7,0.2,1.4,0.4,2.1l4.9-1l2.5-0.5l0.6-0.1l0.3-0.1l0,0l0,0c0.2-0.7,1.7-4.7,1.7-4.7L30.4,21z M20.5,22.1c0-0.2,0-0.4,0-0.5
		l3-0.2c0-0.2,0-0.4,0-0.6l0.6,0.9L20.5,22.1z"/>
	<polygon ng-class="{ '{{$ctrl.id}}': true}" points="16.6,29.2 19,27.3 16.6,27.3 	"/>
</g>
</svg>
