<?xml version="1.0" encoding="utf-8"?>
<!-- Generator: Adobe Illustrator 19.0.0, SVG Export Plug-In . SVG Version: 6.00 Build 0)  -->
<svg version="1.1" id="Layer_1" xmlns="http://www.w3.org/2000/svg" xmlns:xlink="http://www.w3.org/1999/xlink" x="0px" y="0px"
	 viewBox="0 0 24.7 30" style="enable-background:new 0 0 24.7 30;" xml:space="preserve">
<style type="text/css">
	.{{$ctrl.id}}{fill:{{$ctrl.fill}};}
</style>
<g>
	<path ng-class="{ '{{$ctrl.id}}': true}" d="M19.7,10.4c0-0.8-0.3-1.8-0.6-2.3C13.2,5.1,8.2,6.8,6,7.9c-0.3,0.6-0.8,1.8-0.6,2.7C5.5,10.8,5.7,10.9,6,11
		c0.7,0.3,2,0.4,4.5-0.8c0.1,0,0.1,0,0.2,0c0.6-0.2,1-0.3,1.7-0.3c0,0,0.1,0,0.1,0c0.1,0,0.1,0,0.1,0c0.7,0,1.2,0.1,1.8,0.3
		c0,0,0,0,0,0c0,0,0,0,0,0c0.2,0.1,0.4,0.2,0.6,0.3c2.1,0.9,3.3,0.8,4,0.5C19.4,10.9,19.6,10.6,19.7,10.4z"/>
	<path ng-class="{ '{{$ctrl.id}}': true}" d="M16.1,14.5c1-0.2,1.6-1.1,1.9-2.4c0,0,0-0.2,0-0.3c-0.1,0-0.1,0-0.2,0c-1,0-2.3-0.3-3.7-1c0,0,0,0,0,0
		c-0.7,0.1-1.3,0.4-1.5,0.9c-0.3-0.1-0.5,0-0.7,0c-0.2-0.4-0.7-0.7-1.3-0.8c-1.4,0.7-2.6,1-3.6,1c-0.2,0-0.3,0-0.5,0
		c0,0.2,0,0.3,0,0.4c0.2,1.3,0.9,2.2,1.9,2.4c0.3,0.1,0.5,0.1,0.8,0.1c0.3,0,0.6,0,0.9-0.1c1.1-0.3,1.8-1,1.9-1.9c0-0.1,0-0.3,0-0.4
		c0.1,0,0.3-0.1,0.5,0c0,0.1,0,0.3,0,0.4c0.1,1,0.7,1.6,1.9,1.9c0.3,0.1,0.6,0.1,0.9,0.1C15.6,14.6,15.8,14.6,16.1,14.5z"/>
	<path ng-class="{ '{{$ctrl.id}}': true}" d="M14.1,16.2c-0.6,0.6-1.2,0.9-1.8,0.9c0,0,0,0,0,0c-0.9,0-1.6-0.8-1.6-0.8c-0.1-0.1-0.2-0.1-0.3-0.1
		c-0.1,0-0.2,0-0.3,0.1c-0.2,0.1-0.2,0.4,0,0.6c0,0,0.9,1,2.2,1.1l0.1,0c0.8,0,1.6-0.4,2.4-1.2c0.2-0.2,0.1-0.4,0-0.6
		c-0.1-0.1-0.2-0.1-0.3-0.1C14.3,16.1,14.2,16.1,14.1,16.2z"/>
	<path ng-class="{ '{{$ctrl.id}}': true}" d="M18.9,7.2c0-0.9-0.2-2.5-0.7-3.3c-1.1-1.7-2.9-2.5-4.5-2.7c0-0.1,0-0.2,0-0.2c0-0.6-0.6-1-1.4-1
		s-1.4,0.4-1.4,1c0,0.1,0,0.2,0.1,0.3C9.4,1.6,7.8,2.3,6.9,3.9C6.4,4.7,6.2,6.2,6.2,7.1C8.6,6,13.3,4.6,18.9,7.2z"/>
	<path ng-class="{ '{{$ctrl.id}}': true}" d="M24.6,28C24.6,28,24.6,28,24.6,28C24.6,28,24.6,27.9,24.6,28c-0.5-4.9-3.8-6.4-6.2-7.4
		c-0.4-0.2-0.9-0.4-1.2-0.6c-0.2-0.1-0.3-0.2-0.4-0.3c-0.2-0.4-0.3-0.8-0.4-1.1c0.8-0.9,1.5-2,1.9-3.3c0.2,0.1,0.4,0.2,0.5,0.2
		c0.1,0,0.2,0,0.3,0c0.4-0.1,0.6-0.6,0.6-1.1c0-0.6,0.1-1,0.4-2.1l0.1-0.2c0.1-0.4,0.1-0.8-0.2-1c-0.1,0.1-0.3,0.2-0.5,0.4
		c0.1,0.1,0.1,0.3,0.1,0.5l-0.1,0.2c-0.3,1.1-0.4,1.5-0.4,2.2c0,0.3-0.1,0.5-0.2,0.5c-0.1,0-0.2,0-0.3-0.2c0,0,0,0,0,0
		c0.2-0.8,0.3-1.7,0.3-2.6l0-0.4c-0.2,0-0.4,0.1-0.6,0.1l0,0.3c0,4.3-2.7,7.8-5.9,7.8c-3.2,0-5.9-3.6-5.9-7.9c0-0.1,0-0.2,0-0.3
		c-0.2,0-0.4-0.1-0.6-0.2c0,0,0,0.1,0,0.1c0,0.1,0,0.2,0,0.4c0,0.9,0.1,1.9,0.3,2.7c-0.1,0.1-0.2,0.2-0.3,0.2
		c-0.1,0-0.2-0.2-0.2-0.5c0-0.7-0.1-1.2-0.4-2.2l-0.1-0.2c-0.1-0.2-0.1-0.3,0-0.4c0-0.1,0.1-0.1,0.2-0.2c-0.2-0.1-0.3-0.3-0.4-0.4
		c-0.1,0.1-0.2,0.2-0.2,0.3c-0.2,0.3-0.2,0.6-0.1,0.9l0.1,0.2c0.3,1,0.4,1.5,0.4,2.1c0,0.5,0.2,0.9,0.6,1.1c0.1,0,0.1,0,0.3,0
		c0.1,0,0.3,0,0.4-0.1c0.4,1.3,1.1,2.4,1.9,3.3C8.2,18.8,8.1,19,8,19.2c-0.1,0.2-0.1,0.4-0.2,0.5c-0.1,0.1-0.3,0.2-0.4,0.3
		c-0.4,0.2-0.8,0.4-1.2,0.6c-2.4,1.1-5.7,2.5-6.2,7.3C0,27.9,0,28,0,28c0,0.2,0.1,0.3,0.2,0.3C3.9,29.4,8,30,12.3,30
		c4.3,0,8.5-0.6,12.1-1.6C24.6,28.3,24.7,28.2,24.6,28z M12.3,22.7c-3,0-5.1-1-5.1-1.8c0,0,0-0.1,0-0.1c0,0,0,0,0,0
		c0.1-0.1,0.3-0.1,0.4-0.2c0.2-0.1,0.4-0.3,0.6-0.4c0,0,0.1-0.1,0.1-0.1c0.1-0.1,0.1-0.4,0.2-0.6c0-0.1,0.1-0.2,0.1-0.3
		c1,0.9,2.3,1.5,3.6,1.5c1.3,0,2.6-0.5,3.6-1.5c0.1,0.2,0.2,0.6,0.4,0.9c0,0,0,0.1,0.1,0.1c0.2,0.2,0.4,0.3,0.6,0.4
		c0.2,0.1,0.3,0.2,0.5,0.2c0,0,0,0.1,0,0.1C17.5,21.8,15.4,22.7,12.3,22.7z"/>
</g>
</svg>
