<?xml version="1.0" encoding="utf-8"?>
<!-- Generator: Adobe Illustrator 19.0.0, SVG Export Plug-In . SVG Version: 6.00 Build 0)  -->
<svg version="1.1" id="Layer_1" xmlns="http://www.w3.org/2000/svg" xmlns:xlink="http://www.w3.org/1999/xlink" x="0px" y="0px"
	 viewBox="0 0 29.1 30" style="enable-background:new 0 0 29.1 30;" xml:space="preserve">
<style type="text/css">
	.{{$ctrl.id}}{fill:{{$ctrl.fill}};}
</style>
<path ng-class="{ '{{$ctrl.id}}': true}" d="M25.9,22.5c-2.1-0.6-7.4-3.4-7.4-3.4v-2.7c0.7-0.8,1.2-1.8,1.6-2.9c0.5,0.1,1.1-0.6,1.5-1.8
	c0.4-1.3,0.5-2.6,0-2.8c0,0,0,0,0,0c0.6-4.9-1-8.8-5.8-8.8c-1.3,0-3.7,0.4-4.4,1.4c-1.2-0.3-3.8,1.2-4,2.9c-0.2,2.1,0,3.3,0.2,4.6
	c0,0,0,0,0,0C7,9,7.1,10.4,7.5,11.7c0.4,1.3,1,2,1.5,1.8c0.4,1.2,0.9,2.2,1.6,2.9v2.7c0,0-5.4,2.9-7.4,3.4C2.6,22.7,0,23.9,0,26.7
	V30h29.1v-3.3C29.1,23.9,26.5,22.7,25.9,22.5z"/>
</svg>
