<?xml version="1.0" encoding="utf-8"?>
<!-- Generator: Adobe Illustrator 19.0.0, SVG Export Plug-In . SVG Version: 6.00 Build 0)  -->
<svg version="1.1" id="Layer_1" xmlns="http://www.w3.org/2000/svg" xmlns:xlink="http://www.w3.org/1999/xlink" x="0px" y="0px"
	 viewBox="0 0 28.7 30" style="enable-background:new 0 0 28.7 30;" xml:space="preserve">
<style type="text/css">
	.{{$ctrl.id}}{fill:{{$ctrl.fill}};}
</style>
<path ng-class="{ '{{$ctrl.id}}': true}" d="M14.3,0c-6.1,0-6,5.3-6,5.3l0,2.8c-0.5,0-0.6,0.5-0.6,1.5c0,1.5,0.9,3,1.7,3.8c0.3,1.2,0.8,2.2,1.5,3
	c0,0-0.1,0-0.1,0l0,0C8.4,18,5.5,19,3.6,20C3,20.2,2.5,20.7,2,21.4c-0.3,0.4-0.6,0.9-0.8,1.4c0,0,0,0,0,0.1c0,0.1-0.1,0.1-0.1,0.2
	c-0.5,1-0.8,2-0.9,3.1c0,0,0,0,0,0.1c0,0,0,0.1,0,0.1c0,0.2-0.1,0.4-0.1,0.5c0,0.1-0.1,0.5,0,0.6c0,0,0,0,0,0
	c-0.1,1,1.7,1.3,1.7,1.3c0.7,0.2,1.9,0.4,3.4,0.6c2.7,0.4,5.4,0.6,8.1,0.7c0.3,0,0.5,0,0.8,0c0,0,0,0,0.1,0c0.1,0,0.3,0,0.4,0
	c0.3,0,0.6,0,0.8,0c2.7-0.1,5.4-0.2,8.1-0.7c1.5-0.2,2.7-0.4,3.4-0.6c0,0,1.8-0.3,1.7-1.3c0,0,0,0,0,0c0-0.2,0-0.5,0-0.6
	c0-0.3-0.1-0.5-0.1-0.8c-0.2-1.1-0.6-2.3-1.1-3.3c0,0,0,0,0,0c-0.2-0.4-0.5-0.9-0.8-1.3c-0.5-0.6-1-1.1-1.5-1.4
	c-1.9-1-4.8-2-7.2-3.5l0,0c0,0-0.1,0-0.1,0c0.7-0.8,1.2-1.8,1.5-3c0.8-0.8,1.7-2.3,1.7-3.8c0-1-0.1-1.5-0.6-1.5l0-2.8
	C20.4,5.3,20.4,0,14.3,0L14.3,0z"/>
</svg>
