<?xml version="1.0" encoding="utf-8"?>
<!-- Generator: Adobe Illustrator 19.0.0, SVG Export Plug-In . SVG Version: 6.00 Build 0)  -->
<svg version="1.1" id="Layer_1" xmlns="http://www.w3.org/2000/svg" xmlns:xlink="http://www.w3.org/1999/xlink" x="0px" y="0px"
	 viewBox="-1106 561.2 28.7 30" style="enable-background:new -1106 561.2 28.7 30;" xml:space="preserve">
<style type="text/css">
	.{{$ctrl.id}}{fill:{{$ctrl.fill}};}
</style>
<g>
	<g>
		<g>
			<path ng-class="{ '{{$ctrl.id}}': true}" d="M-1091.7,561.2c-6.1,0-6,5.3-6,5.3l0,2.8c-0.5,0-0.6,0.5-0.6,1.5c0,1.5,0.9,3,1.7,3.8c0,0.1,0.1,0.2,0.1,0.3
				c0.7,2.4,2.6,4.1,4.9,4.2c2.3-0.1,4.2-1.8,4.9-4.2c0-0.1,0.1-0.2,0.1-0.3c0.8-0.8,1.7-2.3,1.7-3.8c0-1-0.1-1.5-0.6-1.5l0-2.8
				C-1085.7,566.5-1085.6,561.2-1091.7,561.2L-1091.7,561.2z"/>
		</g>
	</g>
	<path ng-class="{ '{{$ctrl.id}}': true}" d="M-1095.8,578c-2.7,1.7-6.4,2.2-8.2,4.5c-1.4,1.8-2,3.7-2,5.5c0,0.1,0,0.1,0,0.2c0,0.1,0,0.2,0,0.4
		c0,0.9,1,1.1,1.7,1.3c4.4,0.8,8.6,1.3,12.6,1.3c4,0,8.2-0.5,12.6-1.3c0.7-0.2,1.7-0.4,1.7-1.3c0-0.1,0-0.2,0-0.4c0-0.1,0-0.1,0-0.2
		c0-1.8-0.6-3.6-2-5.5c-1.8-2.3-5.5-2.8-8.2-4.5c-1.1,1.2-2.6,1.9-4.3,1.9C-1093.4,579.9-1094.7,579.1-1095.8,578z"/>
</g>
</svg>
