<?xml version="1.0" encoding="utf-8"?>
<!-- Generator: Adobe Illustrator 19.0.0, SVG Export Plug-In . SVG Version: 6.00 Build 0)  -->
<svg version="1.1" id="Icons" xmlns="http://www.w3.org/2000/svg" xmlns:xlink="http://www.w3.org/1999/xlink" x="0px" y="0px"
	 viewBox="0 0 22.4 30" style="enable-background:new 0 0 22.4 30;" xml:space="preserve">
<style type="text/css">
	.{{$ctrl.id}}{fill:{{$ctrl.fill}};}
</style>
<path id="_x33_" ng-class="{ '{{$ctrl.id}}': true}" d="M14.8,16l-0.5-1.9c0.8-1.1,1.3-2.5,1.5-3.3c0,0,0,0,0,0c0,0,0.2-0.7,0.2-1.5c0.1,0,0.2-0.1,0.2-0.2
	c0.8-1,1.1-1.9,1.1-3.2c0-1.9-0.7-3.5-2.1-4.6C14.1,0.5,12.7,0,11,0C9.8,0,8.6,0.3,7.8,0.8C6.4,1.6,5.5,3,5.2,4.8
	C5,6.4,5.2,7.9,5.8,9C5.9,9.1,6,9.2,6.1,9.2c0.2,0.8,0.3,1.4,0.4,1.5c0,0,0,0,0,0c0.2,0.7,0.7,2.1,1.5,3.2C8,14,8,14,8.1,14.1
	L7.6,16C3.4,16.2,0,19.7,0,23.9v4C0,29.1,0.9,30,2.1,30h18.2c1.2,0,2.1-0.9,2.1-2.1v-4C22.4,19.7,19,16.2,14.8,16z M11.2,15.8
	c0.9,0,1.6-0.3,2.2-0.8l0.3,1.3c-0.5,0.3-1.5,0.8-2.6,0.8c-1.2,0-2.1-0.5-2.6-0.8L8.9,15C9.6,15.6,10.4,15.8,11.2,15.8z M14.6,8.5
	c-0.1-0.3-0.4-0.4-0.7-0.4h-2c-0.3,0-0.6,0.2-0.7,0.5h-0.4c-0.1-0.3-0.4-0.5-0.7-0.5h-2C8,8.1,7.7,8.3,7.6,8.5L7.1,8.3
	c0-0.4,0.1-0.8,0.2-1C7.3,7,7.5,6.7,7.6,6.5c0.2,0.4,0.5,0.7,0.8,0.8c0.4,0.2,0.8,0.3,1.2,0.3c1.1,0,2.1-0.7,3-1.3
	c0.6-0.4,1.1-0.7,1.5-0.7c0.1,0,0.1,0,0.2,0.1c0.7,0.6,0.8,2,0.8,2.7L14.6,8.5z M13.7,9.1v0.6h-1.4V9.1H13.7z M10,9.1v0.6H8.6V9.1
	H10z M7.5,10.4c0,0-0.1-0.4-0.2-1l0.3,0.2V10c0,0.4,0.3,0.7,0.7,0.7h2c0.4,0,0.7-0.3,0.7-0.7V9.6h0.3V10c0,0.4,0.3,0.7,0.7,0.7h2
	c0.4,0,0.7-0.3,0.7-0.7V9.6l0.2-0.1c-0.1,0.6-0.2,1-0.2,1c-0.3,1.3-1.3,4.2-3.6,4.2C8.9,14.7,7.8,11.4,7.5,10.4z M15.2,21
	c-0.3,0.6-0.7,1.2-1,1.8c-0.3,0.5-0.6,1-1,1.4c-0.3,0.4-0.6,0.7-1,1c-0.1,0.1-0.3,0.2-0.5,0.3c-0.2,0.1-0.4,0.3-0.7,0.2
	c-0.2,0-0.4-0.2-0.5-0.3c-0.2-0.1-0.3-0.2-0.5-0.4c-0.4-0.3-0.7-0.7-1-1.1c-0.4-0.5-0.7-1-1-1.5c-0.3-0.5-0.6-1.1-0.9-1.6
	c-0.8-1.6-1.4-3.1-1.6-3.5c0.7-0.2,1.3-0.4,2.1-0.4c0.3,0.2,1.1,0.7,2.1,1l0.4,1.1c0,0,0,0,0,0c0,0,0,0,0,0l-1,2.9c0,0,0,0.1,0,0.1
	c0.5,0.9,1.1,1.6,1.7,2.1c0.2,0.2,0.5,0.2,0.6,0c0.6-0.5,1.2-1.3,1.7-2.2c0,0,0-0.1,0-0.1l-1.1-2.8c0,0,0,0,0-0.1c0,0,0,0,0,0
	l0.4-1.2c1-0.3,1.7-0.7,2.1-0.9c0.8,0,1.5,0.2,2.2,0.4C16.6,18,16.1,19.4,15.2,21z"/>
</svg>
