<?xml version="1.0" encoding="utf-8"?>
<!-- Generator: Adobe Illustrator 19.0.0, SVG Export Plug-In . SVG Version: 6.00 Build 0)  -->
<svg version="1.1" id="Ñëîé_1" xmlns="http://www.w3.org/2000/svg" xmlns:xlink="http://www.w3.org/1999/xlink" x="0px" y="0px"
	 viewBox="0 0 31.1 30" style="enable-background:new 0 0 31.1 30;" xml:space="preserve">
<style type="text/css">
	.st0{fill-rule:evenodd;clip-rule:evenodd;fill:#FFFFFF;}
</style>
<path ng-class="{ '{{$ctrl.id}}': true}" d="M10.2,10c0-0.7,0.3-0.9,0.9-1.8c0.7-1,0.7-1.3,2-1.2c1.9,0.1,3.9,0,5.7-0.6c0.7-0.3,0.8-0.2,1.1,0.3
	c1,1.7,1.2,3,1,4.9C19.4,22.4,9.9,19.5,10.2,10L10.2,10z M9.7,8c-1.4-5,2.1-9.2,7.5-7.7c0.5,0.1,0.5,0.1,1.1,0.1
	c2.9-0.2,3.7,3.9,3.1,6.7c-0.2,0.7-0.3,0.8-0.7,0.1C20.6,6.7,20,5,19.3,5.3c-2,1-4.6,1-7.2,0.9c-0.5,0-1.6,1.4-1.8,1.8
	C10,8.5,9.9,8.5,9.7,8L9.7,8z M29.8,30c1.4,0,1.4-0.2,1-1.4c-0.7-2.2-1.5-4.3-2.2-6.5c-0.6-1.8-4.9-3.3-7-4.1
	c-0.9-0.4-1.2-0.3-2,0.5c-2.4,2.4-5.8,2.4-8.3,0c-0.7-0.7-0.9-0.8-2.1-0.3C7,19,3,20.4,2.4,22.1c-0.8,2.1-1.5,4.3-2.2,6.5
	c-0.4,1.2-0.4,1.4,1,1.4C10.8,30,20.3,30,29.8,30L29.8,30z"/>
</svg>
