<?xml version="1.0" encoding="utf-8"?>
<!-- Generator: Adobe Illustrator 19.0.0, SVG Export Plug-In . SVG Version: 6.00 Build 0)  -->
<svg version="1.1" id="Layer_3" xmlns="http://www.w3.org/2000/svg" xmlns:xlink="http://www.w3.org/1999/xlink" x="0px" y="0px"
	 viewBox="0 0 11.1 30" style="enable-background:new 0 0 11.1 30;" xml:space="preserve">
<style type="text/css">
	.{{$ctrl.id}}{fill:{{$ctrl.fill}};}
</style>
<ellipse ng-class="{ '{{$ctrl.id}}': true}" cx="5.6" cy="2.9" rx="2.3" ry="2.9"/>
<path ng-class="{ '{{$ctrl.id}}': true}" d="M1.5,18.8c0,0,0.1,0,0.1,0c0.1,0,0.1,0,0.2,0L2.2,30h3.2c0.1-3.3,0-9,0-11.2c0.1,0,0.2,0,0.3,0L6.1,30h3.2
	c0.1-3.3,0-8.9,0-11.2c0.1,0,0.1,0,0.2,0c0,0,0,0,0.1,0c0,0,0,0,0,0c0.5,0,1-0.1,1.6-0.1L10.2,7.8c-0.1-0.8-0.7-1.3-1.4-1.3
	c0,0-1-0.1-1.4-0.2l0,0l1,0.8L7.3,7.9l0.6,0.9l-1.5,3.3L6.1,7.6l0.2-0.2L6,6.3h-1L4.8,7.4L5,7.6l-0.2,4.6L3.2,8.8l0.6-0.9L2.6,7.3
	l1-0.8l0,0c-0.4,0-1.3,0.2-1.3,0.2c-0.7,0-1.3,0.5-1.4,1.3L0,18.7C0.5,18.8,1,18.8,1.5,18.8C1.5,18.8,1.5,18.8,1.5,18.8z"/>
</svg>
