<?xml version="1.0" encoding="utf-8"?>
<!-- Generator: Adobe Illustrator 19.0.0, SVG Export Plug-In . SVG Version: 6.00 Build 0)  -->
<svg version="1.1" id="Ebene_1" xmlns="http://www.w3.org/2000/svg" xmlns:xlink="http://www.w3.org/1999/xlink" x="0px" y="0px"
	 viewBox="0 0 27.6 30" style="enable-background:new 0 0 27.6 30;" xml:space="preserve">
<style type="text/css">
	.{{$ctrl.id}}{fill:{{$ctrl.fill}};}
</style>
<g>
	<path ng-class="{ '{{$ctrl.id}}': true}" d="M26.2,21.1l-9.8-3.2l-2.6,2.8l-2.6-2.8l-9.8,3.2L0,30h27.6L26.2,21.1z M4.1,28.4H2l0.8-6l1.3-0.8V28.4z
		 M11.2,28.4l-2.3-8.1l1.9-0.5l3,3.1l3-3.1l1.9,0.5l-2.3,8.1H11.2z M22.4,27.5h-4v-1.2l2-0.4l2,0.4V27.5z M23.5,28.4v-6.7l1.3,0.8
		l0.8,6H23.5z"/>
	<path ng-class="{ '{{$ctrl.id}}': true}" d="M13.8,24.3c-0.7,0-1.2,0.5-1.2,1.2c0,0.7,0.5,1.2,1.2,1.2c0.7,0,1.2-0.5,1.2-1.2C15,24.8,14.5,24.3,13.8,24.3z
		"/>
	<path ng-class="{ '{{$ctrl.id}}': true}" d="M13.8,16.8c4.2,0,7.6-3.8,7.6-8.4c0-0.8-0.1-1.5-0.3-2.2c-0.5-1.9-1.5-3.5-2.8-4.6C17.3,0.8,16,0.2,14.6,0
		c-0.3,0-0.5,0-0.8,0C9.9,0,6.7,3.2,6.2,7.4c0,0.3,0,0.6,0,1C6.2,13,9.6,16.8,13.8,16.8z M7.8,7.6c1.5,0.1,3.1-0.2,4.8-0.8
		c1.4-0.6,2.6-1.3,3.6-2.2c1,1.2,2.3,2,3.4,2.1c0.1,0.6,0.2,1.1,0.2,1.7c0,3.7-2.7,6.8-6,6.8c-3.3,0-6-3-6-6.8
		C7.8,8.1,7.8,7.9,7.8,7.6z"/>
</g>
</svg>
