<?xml version="1.0" encoding="utf-8"?>
<!-- Generator: Adobe Illustrator 19.0.0, SVG Export Plug-In . SVG Version: 6.00 Build 0)  -->
<svg version="1.1" id="Ebene_1" xmlns="http://www.w3.org/2000/svg" xmlns:xlink="http://www.w3.org/1999/xlink" x="0px" y="0px"
	 viewBox="0 0 27.3 30" style="enable-background:new 0 0 27.3 30;" xml:space="preserve">
<style type="text/css">
	.{{$ctrl.id}}{fill:{{$ctrl.fill}};}
</style>
<g>
	<path ng-class="{ '{{$ctrl.id}}': true}" d="M13.6,16.9c4.2,0,7.7-3.8,7.7-8.4c0-0.8-0.1-1.5-0.3-2.2c-0.5-1.9-1.5-3.5-2.8-4.6c-1.1-0.9-2.4-1.5-3.8-1.6
		c-0.3,0-0.5,0-0.8,0C9.7,0,6.5,3.3,6,7.5C6,7.8,6,8.1,6,8.4C6,13.1,9.4,16.9,13.6,16.9z M7.6,7.7c1.5,0.1,3.2-0.2,4.8-0.9
		c1.4-0.6,2.7-1.3,3.6-2.2c1,1.3,2.3,2,3.4,2.1c0.1,0.6,0.2,1.1,0.2,1.7c0,3.8-2.7,6.8-6.1,6.8c-3.3,0-6.1-3.1-6.1-6.8
		C7.6,8.2,7.6,7.9,7.6,7.7z"/>
	<path ng-class="{ '{{$ctrl.id}}': true}" d="M26.2,21.7l-8.9-3.1l-2,8.7l-1.1-6.9l0.4-0.5l0.9-1h-3.8l0.9,1l0.4,0.5L12,27.3l-2-8.7l-8.9,3.1L0,30h27.3
		L26.2,21.7z M24,27.1h-5.1v-1.5l2.6-0.5l2.6,0.5V27.1z"/>
</g>
</svg>
