<?xml version="1.0" encoding="utf-8"?>
<!-- Generator: Adobe Illustrator 19.0.0, SVG Export Plug-In . SVG Version: 6.00 Build 0)  -->
<svg version="1.1" id="Layer_1" xmlns="http://www.w3.org/2000/svg" xmlns:xlink="http://www.w3.org/1999/xlink" x="0px" y="0px"
	 viewBox="0 0 24.9 30" style="enable-background:new 0 0 24.9 30;" xml:space="preserve">
<style type="text/css">
	.st0{fill-rule:evenodd;clip-rule:evenodd;fill:#FFFFFF;}
</style>
<g>
	<g>
		<g>
			<g>
				<path ng-class="{ '{{$ctrl.id}}': true}" d="M13.5,7.1c-0.8,0.2-1.5,0.2-2.2,0C9.1,6.5,6.9,5.9,4.7,5.3c0,0.5,0,1.1,0,1.7c0,1.5,3.4,2.6,7.7,2.6
					c4.2,0,7.6-1.2,7.7-2.6c0-0.2,0-1,0-1.6C18.7,5.8,14.8,6.8,13.5,7.1z"/>
			</g>
			<path ng-class="{ '{{$ctrl.id}}': true}" d="M23.9,3.2c-0.3-0.1-9.7-2.8-10.4-3c-0.6-0.2-1.3-0.2-2.2,0C7.8,1,4.7,2,1.2,2.9C1,2.9,0.6,3.1,0.6,3.3
				c0,0.3,0.4,0.4,0.6,0.4c3.4,0.9,6.7,1.8,10.1,2.8c0.8,0.2,1.5,0.2,2.2,0c1.4-0.4,6-1.6,7-1.8c0,0-5.7-1.6-5.6-1.6
				c0,0,0.6-0.2,0.6-0.2c0,0,5.9,1.7,5.9,1.6c0,0,1.9-0.5,2.6-0.7c0.3-0.1,0.4-0.2,0.4-0.4C24.3,3.3,24.2,3.2,23.9,3.2z"/>
			<path ng-class="{ '{{$ctrl.id}}': true}" d="M20.7,14.6l0,1.5c0.1,0,0.3,0,0.4,0l0.1-1.8l0.2,1.8c0.2,0,0.4,0,0.4,0c0,0-0.5-4.8-0.5-5.1c0-1.7,0-4,0-5.7
				c0,0-0.7,0.2-0.7,0.2c0,2,0,3.5,0,5.5c0,0.2-0.5,5.1-0.5,5.1c0,0,0.1,0,0.3,0L20.7,14.6z"/>
			<g>
				<path ng-class="{ '{{$ctrl.id}}': true}" d="M18.6,11.2c0,0,0.2-0.9,0.2-2.1c-0.3,0.1-0.5,0.3-0.9,0.4c0,0.4-0.1,0.9-0.1,1.3c-0.1,0.8,0.3,1.1,0.6,1.2
					c0.1,0,0.2,0.5,0.1,1.1c-0.2,1.2-0.5,1.4-0.5,1.4c0,0-0.1,0-0.1,0c-0.5,0-0.8,0.3-0.9,0.6c-1.2,4.1-3.9,4.6-4.2,4.7
					c0,0-0.1,0-0.3,0c-0.1,0-0.3,0-0.3,0c-1.1-0.1-3.2-1.3-4.2-4.7c-0.1-0.3-0.4-0.6-0.9-0.6l-0.1,0c0,0,0,0,0,0
					c0,0-0.3-0.2-0.5-1.4c-0.1-0.6,0-1.1,0.1-1.1c0.4-0.1,0.7-0.4,0.6-1.2C7.1,10.3,7,9.9,7,9.5C6.7,9.4,6.4,9.2,6.1,9.1
					c0,1.2,0.2,2,0.2,2c-0.9,0.2-0.9,1.4-0.8,2.1c0.5,2.6,1.5,2,1.5,2.1c1.1,3.8,3.6,5.1,4.9,5.3c0.2,0,0.6,0,0.8,0
					c1.3-0.2,3.8-1.5,4.9-5.3c0-0.1,1.1,0.4,1.5-2.1C19.4,12.6,19.5,11.4,18.6,11.2z"/>
				<g>
					<path ng-class="{ '{{$ctrl.id}}': true}" d="M6.1,9.1c0,0.8,0.1,1.5,0.1,1.8c0.3,0.1,1,0.3,1.2-0.6c0.1-0.3,0.2-0.5,0.3-0.6C7.2,9.6,6.6,9.4,6.1,9.1z"
						/>
					<path ng-class="{ '{{$ctrl.id}}': true}" d="M17,9.7c0.2,0.3,0.3,0.7,0.4,1.1c0.4,1,0.9,0.2,1.2,0.2c0-0.3,0.2-1,0.2-2C18.3,9.3,17.7,9.5,17,9.7z"/>
				</g>
			</g>
			<path ng-class="{ '{{$ctrl.id}}': true}" d="M24.7,26.4c-0.4-2.1-1.1-4-3.1-5.1c-1.5-0.9-3.3-1.5-3.3-1.5C18,20.6,16.7,23,14.1,25
				c-0.1-0.1-0.7-2.6-0.6-2.5c0,0,1.5-1.7,1.4-1.6c-2.3,1.1-3.6,0.6-4.4,0c0,0,1.5,1.6,1.4,1.6c0,0-0.6,2.5-0.7,2.5
				c0,0-2.7-1.8-4.1-5c-0.1-0.1-0.6,0.6-2.1,1.3c-3,1.5-4.5,2.7-5,5.9c-0.1,1-0.1,1.2,0.9,1.4c1.2,0.3,2.4,0.7,3.6,0.9
				c2.6,0.4,5.2,0.6,7.9,0.6c0,0,0,0,0,0c0,0,0,0,0,0c0.9,0,1.7,0,2.6-0.1c0,0,0,0,0,0c0,0,0,0,0,0c0.5,0,1.1-0.1,1.6-0.1
				c2.2-0.2,4.4-0.5,6.6-1.1C25.1,28.3,25.1,28.6,24.7,26.4z"/>
		</g>
	</g>
</g>
</svg>
