<?xml version="1.0" encoding="utf-8"?>
<!-- Generator: Adobe Illustrator 19.0.0, SVG Export Plug-In . SVG Version: 6.00 Build 0)  -->
<svg version="1.1" id="Layer_1" xmlns="http://www.w3.org/2000/svg" xmlns:xlink="http://www.w3.org/1999/xlink" x="0px" y="0px"
	 viewBox="0 0 26.6 30" style="enable-background:new 0 0 26.6 30;" xml:space="preserve">
<style type="text/css">
	.{{$ctrl.id}}{fill:{{$ctrl.fill}};}
</style>
<path ng-class="{ '{{$ctrl.id}}': true}" d="M11.5,0C5.1,0,1.8,2.8,0.6,6.1c-0.7,2-0.8,4.4-0.3,6.2C0.5,13,1.1,14.5,1.4,15c0.8,1.3,2.4,4.4,2.6,5
	c0.2,0.6,0.2,1.1,0.2,1.8c0,2.3-1.7,4.9-2.7,7.3C1.4,29.5,1.6,30,2.1,30H16c0.4,0,0.6-0.3,0.6-0.7c0-0.2,0-1,0-1.9
	c0.8,0,1.6,0,2.9,0c1.3,0,2.1-0.6,2.9-2c0.8-1.3,0.5-3.3,1.1-6.1c0.1-0.5,1.1-0.1,1.6-0.2c0.5-0.1,1.2-0.3,1.5-1
	c0.3-0.6,0-1.2-0.3-1.7c-0.3-0.6-0.7-1.2-1.2-1.8c-0.4-0.6-0.9-1.3-1.2-1.9c-0.2-0.4-0.4-1.1-0.5-1.5c0-0.2-0.2-2.4-0.5-3.5
	C21.6,2.9,17.9,0,11.5,0L11.5,0z M10.6,2.4c1.9,0,3.8,0.7,5.3,2.2c2.9,2.9,2.9,7.6,0,10.5c-2.9,2.9-7.6,2.9-10.5,0
	c-2.9-2.9-2.9-7.6,0-10.5C6.7,3.2,8.7,2.4,10.6,2.4L10.6,2.4z M10.6,3.8C9,3.8,7.5,4.4,6.3,5.6c-2.4,2.4-2.4,6.2,0,8.5
	c2.4,2.4,6.2,2.4,8.5,0c2.4-2.4,2.4-6.2,0-8.5C13.6,4.4,12.1,3.8,10.6,3.8z M10.6,4.8c0.4,0,0.7,0.3,0.7,0.7v3.7H15
	c0.4,0,0.7,0.3,0.7,0.7c0,0.4-0.3,0.7-0.7,0.7H11h-0.5h-0.5c-0.1,0-0.2-0.1-0.2-0.2V9.9V9.4V5.5C9.9,5.1,10.2,4.8,10.6,4.8L10.6,4.8
	z"/>
</svg>
