<?xml version="1.0" encoding="utf-8"?>
<!-- Generator: Adobe Illustrator 19.0.0, SVG Export Plug-In . SVG Version: 6.00 Build 0)  -->
<svg version="1.1" id="Ñëîé_1" xmlns="http://www.w3.org/2000/svg" xmlns:xlink="http://www.w3.org/1999/xlink" x="0px" y="0px"
	 viewBox="0 0 23.5 30" style="enable-background:new 0 0 23.5 30;" xml:space="preserve">
<style type="text/css">
	.st0{fill-rule:evenodd;clip-rule:evenodd;fill:#FFFFFF;}
</style>
<path ng-class="{ '{{$ctrl.id}}': true}" d="M23.4,29.3c-0.7-3.1-1.3-6.2-2-9.3c-0.4-1.8-0.5-2-2.3-3.1c-1.4-0.8-2.7-1.6-4-2.3c-0.3-0.2-0.7-0.1-0.9,0.2
	c-0.6,0.7-1.1,1.4-1.7,2.1c-0.7,0.9-0.9,0.9-1.6,0c-0.6-0.7-1.1-1.4-1.7-2.1c-0.2-0.3-0.6-0.3-0.9-0.2c-1.3,0.8-2.7,1.6-4,2.3
	C2.5,18,2.4,18.3,2,20c-0.7,3.1-1.4,6.2-2,9.3C-0.1,29.7,0.2,30,0.5,30c7.5,0,14.9,0,22.4,0C23.3,30,23.5,29.7,23.4,29.3L23.4,29.3z
	 M10.7,24.4c-0.5-1-1.6-2.1-3.1-3.1c-0.2-0.1-0.3-0.3-0.1-0.6c0.4-0.5,0.8-1,1.2-1.5c0.1-0.1,0.2-0.3-0.1-0.3
	c-1-0.1-2.1-0.2-3.1-0.3c-0.7-0.1-0.6-0.3-0.2-0.7c1-1,2.1-1.8,3.2-2.8C8.7,14.9,8.9,15,9,15.2c1.3,3,1.9,6,2.4,9
	C11.7,26,11.5,25.9,10.7,24.4L10.7,24.4z M12.7,24.4c0.5-1,1.6-2.1,3.1-3.1c0.2-0.1,0.3-0.3,0.1-0.6c-0.4-0.5-0.8-1-1.2-1.5
	c-0.1-0.1-0.2-0.3,0.1-0.3c1-0.1,2.1-0.2,3.1-0.3c0.7-0.1,0.6-0.3,0.2-0.7c-1-1-2.1-1.8-3.2-2.8c-0.2-0.1-0.4-0.1-0.5,0.1
	c-1.3,3-1.9,6-2.4,9C11.8,26,11.9,25.9,12.7,24.4L12.7,24.4z M14.5,1.3c5.1,0,0.2,9,4,13.2c0.5,0.6,0.3,0.8-0.5,0.6
	c-2-0.6-3.6-1.7-4-3.5c0-0.2-0.2-0.2-0.3-0.1c-1.5,1.4-2.3,1.4-3.8,0c-0.1-0.1-0.3,0-0.3,0.1c-0.4,1.9-2,3-4,3.5
	c-0.8,0.2-0.9,0.1-0.5-0.6C8.6,9.2,3.9,1.3,10.8,0.1c1.2-0.2,2.4,0.2,3.3,1.1C14.2,1.3,14.3,1.3,14.5,1.3L14.5,1.3z M15.7,6.8
	c0-0.1,0-0.3-0.2-0.4C15,6,14.1,4.7,14.1,3.8c0-0.1,0-0.3-0.3-0.1C12,5,9.8,3.5,8.2,5c-1.5,1.5,0.4,4.8,1.7,6.1
	c1.9,1.9,2.7,1.2,4.3-0.6C15,9.5,15.6,8.6,15.7,6.8L15.7,6.8z"/>
</svg>
