<?xml version="1.0" encoding="utf-8"?>
<!-- Generator: Adobe Illustrator 19.0.0, SVG Export Plug-In . SVG Version: 6.00 Build 0)  -->
<svg version="1.1" id="Layer_1" xmlns="http://www.w3.org/2000/svg" xmlns:xlink="http://www.w3.org/1999/xlink" x="0px" y="0px"
	 viewBox="0 0 25.3 30" style="enable-background:new 0 0 25.3 30;" xml:space="preserve">
<style type="text/css">
	.{{$ctrl.id}}{fill:{{$ctrl.fill}};}
</style>
<g>
	<g>
		<g>
			<g>
				<circle ng-class="{ '{{$ctrl.id}}': true}" cx="10.4" cy="11.9" r="0.7"/>
				<circle ng-class="{ '{{$ctrl.id}}': true}" cx="14.9" cy="11.9" r="0.7"/>
			</g>
			<g>
				<path ng-class="{ '{{$ctrl.id}}': true}" d="M20,30h5.3l-0.5-4.2c-0.1-0.6-2.6-1.7-4.5-2.6c-1.9-0.9-4.7-3.4-4.7-3.4v-1.2c0.9-1,1.8-3,2.1-3.4
					c0.3-0.4,0.8-2,0.8-2.4S17.9,12,17.9,12V9.2c-0.5-4.8-5.3-4.5-5.3-4.5S7.8,4.4,7.4,9.2V12c0,0-0.5,0.4-0.5,0.8s0.5,2,0.8,2.4
					c0.3,0.4,1.2,2.4,2.1,3.4v1.2c0,0-2.9,2.5-4.7,3.4c-1.9,0.9-4.4,2-4.5,2.6L0,30h5.3H20z M12.7,19c0,0-2.5,0.6-4.1-4.1
					c0,0-0.8-3.5,0-5.9c0.8-2.4,2.6-0.8,2.6-0.8s2.3-1.8,5.2-0.5c0,0,1.4,1.7,0.3,6.9C15.6,19.8,12.7,19,12.7,19z"/>
			</g>
		</g>
		<path ng-class="{ '{{$ctrl.id}}': true}" d="M16.3,6.9c0,0,3.5,5.7-1.2,11.8c0,0,1.2,0.5,3.5-2.1c0,0,1.8-1.9,2.1-6.9c0,0,0.1-0.7-0.1-1.4
			c-0.2-0.7-2.7-8.9-6.8-8.2c0,0-2.6-0.6-4.3,0.5c-1.7,1.1-3.7,2.6-4.9,9.8c0,0-0.1,5,3.2,7.2c0,0,1.7,1.2,2.4,1.5l0.3,0l-0.4-0.6
			L10,18.2c0,0-0.7-0.7-0.6-1.1c0,0-1.5-2.6-1.5-3.4s0-2.9,0.1-3.1c0.1-0.2,1.4,0.1,1.7-0.2c0.3-0.3,0.7-0.9,1.2-1.8
			c0,0-0.4,1.5-0.9,1.9c0,0,2.1,0.4,2.8,0C13.5,10.1,14.7,9.6,16.3,6.9z"/>
	</g>
	<g>
		<g>
			<g>
				<path ng-class="{ '{{$ctrl.id}}': true}" d="M14.2,16.9v-0.6c1.5,0,2.8-1.3,2.8-2.8h0.6C17.6,15.4,16.1,16.9,14.2,16.9z"/>
			</g>
		</g>
		<g>
			<path ng-class="{ '{{$ctrl.id}}': true}" d="M14.1,17.3h-0.9c-0.4,0-0.8-0.3-0.8-0.8v0c0-0.4,0.3-0.8,0.8-0.8h0.9c0.4,0,0.8,0.3,0.8,0.8v0
				C14.8,17,14.5,17.3,14.1,17.3z"/>
		</g>
	</g>
</g>
</svg>
