<?xml version="1.0" encoding="utf-8"?>
<!-- Generator: Adobe Illustrator 19.0.0, SVG Export Plug-In . SVG Version: 6.00 Build 0)  -->
<svg version="1.1" id="Layer_1" xmlns="http://www.w3.org/2000/svg" xmlns:xlink="http://www.w3.org/1999/xlink" x="0px" y="0px"
	 viewBox="0 0 27.9 30" style="enable-background:new 0 0 27.9 30;" xml:space="preserve">
<style type="text/css">
	.st0{fill-rule:evenodd;clip-rule:evenodd;fill:#FFFFFF;}
</style>
<g>
	<g>
		<g>
			<path ng-class="{ '{{$ctrl.id}}': true}" d="M22.3,6.8C20.8,2.1,18.1,0,13.8,0c-4.2,0-8,2.5-8.6,7.3c-0.9,6.5,5.4,11,5.4,11c0,0,0.4-0.3,0.4-0.3
				c2.2,1.9,3.9,1.7,5.7,0c0,0,0.5,0.2,0.6,0.2c0.4-0.2,1.7-1.8,1.7-1.8s-0.4,1-1.2,2c-0.1,0.1,0.6,0.2,0.7,0.2c0.4-0.2,2-2.6,2-2.5
				c0.1,0.2-0.9,2.4-1.2,2.8c-0.1,0.1,0.7,0.2,0.8,0.2C21,18,24.1,12.4,22.3,6.8z M19.7,13.2c-0.4,0.5-0.5,0.3-0.7,0.7
				c-0.9,1.7-2.2,3.2-3.9,4.2c-0.9,0.5-1.7,0.6-2.5,0c-1.8-1-3.1-2.5-4-4.3c-0.2-0.4-0.4-0.4-0.7-0.6c-0.5-0.5-0.8-2-0.6-2.6
				c0.2-0.4,0.8-0.1,0.8,0c0.1-0.2,0-1.7,0-2.3c2.3-0.6,4.4-1.7,5.8-3.7c1.4,2,3.3,3.2,5.6,3.7c-0.1,0.5,0,2.1,0.1,2.3
				c0.4-0.5,0.8-0.5,0.9,0C20.5,11,20.2,12.5,19.7,13.2z"/>
			<g>
				<g>
					<path ng-class="{ '{{$ctrl.id}}': true}" d="M16.5,8.4c-1.4,0-2.5,1.1-2.5,2.5s1.1,2.5,2.5,2.5c1.4,0,2.5-1.1,2.5-2.5S17.9,8.4,16.5,8.4z M16.5,12.6
						c-1,0-1.8-0.8-1.8-1.8c0-1,0.8-1.8,1.8-1.8c1,0,1.8,0.8,1.8,1.8C18.3,11.9,17.5,12.6,16.5,12.6z"/>
					<path ng-class="{ '{{$ctrl.id}}': true}" d="M11,8.4c-1.4,0-2.5,1.1-2.5,2.5s1.1,2.5,2.5,2.5c1.4,0,2.5-1.1,2.5-2.5S12.3,8.4,11,8.4z M11,12.6
						c-1,0-1.8-0.8-1.8-1.8c0-1,0.8-1.8,1.8-1.8c1,0,1.8,0.8,1.8,1.8C12.7,11.9,11.9,12.6,11,12.6z"/>
				</g>
				<rect x="12.9" y="10.5" ng-class="{ '{{$ctrl.id}}': true}" width="1.6" height="0.7"/>
				
					<rect x="18.5" y="9.8" transform="matrix(0.9212 -0.3891 0.3891 0.9212 -2.4101 8.2267)" ng-class="{ '{{$ctrl.id}}': true}" width="1.2" height="0.6"/>
				<rect x="7.9" y="9.8" transform="matrix(0.9212 0.3891 -0.3891 0.9212 4.5836 -2.5043)" ng-class="{ '{{$ctrl.id}}': true}" width="1.2" height="0.6"/>
			</g>
			<path ng-class="{ '{{$ctrl.id}}': true}" d="M0.2,26.5c0.3-2.4,1.4-4.2,3.7-4.9c1.8-0.5,3.5-1.2,5.3-1.7C9.8,26,14,27.9,14,27.9c0.1,0,4.2-2.3,4.7-8.1
				c1.8,0.6,3.6,1.2,5.5,1.7c2.4,0.8,3.4,2.5,3.5,4.9c0.1,1.2,0.1,2.3,0.1,3.5C18.6,30,9.3,30,0,30C0,29.1-0.1,28.2,0.2,26.5z"/>
		</g>
	</g>
</g>
</svg>
