<?xml version="1.0" encoding="utf-8"?>
<!-- Generator: Adobe Illustrator 19.0.0, SVG Export Plug-In . SVG Version: 6.00 Build 0)  -->
<svg version="1.1" id="Layer_1" xmlns="http://www.w3.org/2000/svg" xmlns:xlink="http://www.w3.org/1999/xlink" x="0px" y="0px"
	 viewBox="0 0 30.1 30" style="enable-background:new 0 0 30.1 30;" xml:space="preserve">
<style type="text/css">
	.{{$ctrl.id}}{fill:{{$ctrl.fill}};}
</style>
<g>
	<path ng-class="{ '{{$ctrl.id}}': true}" d="M5.4,15.7L15.7,5.5L12.4,2C9.7-0.7,5-0.7,2.1,2c-2.8,2.9-2.8,7.4,0,10.4L5.4,15.7z"/>
	<path ng-class="{ '{{$ctrl.id}}': true}" d="M27.9,17.7l-3.1-3.7L14.6,24.9l3.4,2.9c2.8,2.9,7.3,2.9,10,0C30.9,25.1,30.9,20.4,27.9,17.7z"/>
	<path ng-class="{ '{{$ctrl.id}}': true}" d="M22.3,15.3l3.4-3c0.7-0.5,0.8-0.9,1.1-1.6c0,0,0,0-0.2,0c0-0.2,0-0.2,0-0.6c0.2,0,0.4,0,0.6,0
		C27.5,8.9,27.5,7.1,27,6h-0.2c-0.2,0-0.2-0.4-0.2-0.4c0-0.2,0-0.2,0-0.3c0-0.4-0.2-0.6-0.8-0.9c0,0.2,0,0.2,0,0.2
		c-0.1,0.2-0.3,0.2-0.3,0c-0.2-0.2-0.2-0.4,0-0.4V3.9c-0.2-0.1-0.5-0.2-0.7-0.6c0,0.2-0.3,0.3-0.3,0.3c-0.3,0-0.3-0.3-0.3-0.5l0,0
		c-1.4-0.8-3-0.8-4.5,0l0,0c0,0.2-0.1,0.2-0.1,0.2c-0.2,0-0.2,0-0.2-0.2c-0.8,0.2-1.1,0.6-1.4,1l-3.4,3.4l-8.3,8.2l0,0l-3.1,3
		c-0.5,0.5-0.9,0.8-1.1,1.6c0.2,0,0.2,0.2,0.2,0.2c0,0.3-0.2,0.5-0.4,0.5l0,0c-0.2,0.6-0.3,1.4-0.2,1.9l0.2-0.2
		c0.2,0,0.4,0.2,0.4,0.3c0,0.2-0.2,0.3-0.4,0.3l-0.2-0.2c0,0.5,0.2,1.1,0.4,1.8c0-0.1,0.2,0,0.3,0c0.2,0.2,0.2,0.3,0,0.6
		c0,0,0,0,0,0.3c0,0,0.2,0.3,0.6,0.3c0.2,0,0.2,0,0.2,0c0.2,0,0.4,0.2,0.4,0.4c0,0.4,0,0.4,0,0.4c0.1,0.2,0.3,0.3,0.7,0.5
		c0-0.2,0.2-0.2,0.4-0.2c0.2,0,0.4,0.2,0.4,0.3c0,0,0,0,0,0.1C5.6,28,6,28,6.5,28.6c0-0.6,0-0.6,0-0.6c0-0.2,0.2-0.2,0.4-0.2
		c0.2,0,0.4,0,0.4,0.2c0,0,0,0.6-0.2,0.6c0.6,0,1.1,0,1.8-0.6l0,0c0-0.2,0.4-0.2,0.4-0.2c0.2,0,0.4,0,0.4,0c0.5,0,1.3-0.5,1.6-1
		l2.9-2.9L22.3,15.3L22.3,15.3z M27,7.6c0.2,0,0.5,0.2,0.5,0.2c0,0.3-0.3,0.3-0.5,0.3c-0.2,0-0.4,0-0.4-0.3
		C26.6,7.9,26.8,7.6,27,7.6z M25.7,6.5c0.1,0,0.5,0.1,0.5,0.2c0,0-0.4,0.3-0.5,0.3c-0.2,0-0.2-0.3-0.2-0.3
		C25.5,6.6,25.5,6.5,25.7,6.5z M25.7,9.1c0.1,0,0.5,0,0.5,0.1c0,0.2-0.4,0.3-0.5,0.3c-0.2,0-0.2-0.2-0.2-0.3
		C25.5,9.1,25.5,9.1,25.7,9.1z M25.7,11.4c0.1,0,0.5,0.2,0.5,0.3c0,0.1-0.4,0.4-0.5,0.4c-0.2,0-0.2-0.3-0.2-0.4
		C25.5,11.6,25.5,11.4,25.7,11.4z M23.3,14.6c-0.2,0-0.5,0-0.5-0.5c0,0,0.3-0.3,0.5-0.3l0.2,0.3C23.5,14.6,23.3,14.6,23.3,14.6z
		 M22.9,11.6c0.2-0.2,0.3-0.2,0.3,0c0.2,0,0.2,0.2,0,0.2c0,0.3-0.2,0.3-0.3,0C22.8,11.8,22.8,11.6,22.9,11.6z M24.5,13.4
		c-0.3,0-0.3-0.4-0.3-0.4c0-0.2,0-0.4,0.3-0.4c0.3,0,0.3,0.2,0.3,0.4C24.8,13,24.8,13.4,24.5,13.4z M24.2,5.3c0.2-0.4,0.6-0.4,0.6,0
		c0.2,0.2,0.2,0.3,0,0.3c0,0.4-0.4,0.4-0.6,0C24.2,5.6,24.2,5.5,24.2,5.3z M24.5,7.6c0.3,0,0.3,0.2,0.3,0.2c0,0.3,0,0.3-0.3,0.3
		c-0.3,0-0.3,0-0.3-0.3C24.2,7.9,24.2,7.6,24.5,7.6z M24.2,10.2c0.2,0,0.3,0,0.6,0c0,0.3,0,0.4,0,0.6c-0.3,0-0.4,0-0.6,0
		C24,10.6,24,10.5,24.2,10.2z M23.3,3.8c0.2,0,0.4,0.4,0.4,0.4c0,0.4-0.2,0.6-0.4,0.6c-0.2,0-0.3-0.2-0.3-0.6
		C22.9,4.2,23.1,3.8,23.3,3.8z M23.1,6.6c0-0.1,0.2-0.1,0.4,0c0,0.2,0,0.2,0,0.5c-0.2,0-0.4,0-0.4,0C22.9,6.7,22.9,6.7,23.1,6.6z
		 M23.3,9.1c0,0,0.2,0,0.2,0.1c0,0.2-0.2,0.3-0.2,0.3c-0.2,0-0.5-0.2-0.5-0.3C22.8,9.1,23.1,9.1,23.3,9.1z M3.3,24.9
		c-0.2,0-0.2,0-0.5,0c-0.2-0.5-0.2-0.5,0-0.9c0.3,0,0.3,0,0.5,0C3.6,24.4,3.6,24.4,3.3,24.9z M3.2,22.2C3,22.2,2.8,22,2.8,22
		c0-0.3,0.2-0.5,0.3-0.5c0.2,0,0.4,0.2,0.4,0.5C3.6,22,3.3,22.2,3.2,22.2z M3.2,19.7c-0.2,0-0.3,0-0.3-0.3c0,0,0.2-0.5,0.3-0.5
		c0.2,0,0.4,0.5,0.4,0.5C3.6,19.7,3.3,19.7,3.2,19.7z M4.7,26c-0.2,0.2-0.6,0.2-0.6,0c-0.2,0-0.2-0.6,0-0.7c0-0.2,0.4-0.2,0.6,0
		C4.7,25.5,4.7,26,4.7,26z M4.7,23.3c-0.2,0.2-0.4,0.2-0.6,0c-0.2,0-0.2-0.3,0-0.3c0.2-0.2,0.4-0.2,0.6,0C4.8,23,4.8,23.3,4.7,23.3z
		 M4.7,20.9c-0.2,0.2-0.4,0.2-0.6,0c-0.2-0.2-0.2-0.3,0-0.5c0.2-0.2,0.4-0.2,0.6,0C4.8,20.6,4.8,20.8,4.7,20.9z M4.7,18.4
		c-0.2,0.2-0.4,0.2-0.6,0c-0.2-0.2-0.2-0.2,0-0.6c0.2,0,0.4,0,0.6,0C4.8,18.2,4.8,18.2,4.7,18.4z M5.6,27.3c-0.3,0-0.4-0.2-0.4-0.6
		c0-0.2,0.2-0.4,0.4-0.4c0.2,0,0.3,0.2,0.3,0.4C6,27.2,5.8,27.3,5.6,27.3z M5.8,24.9c0,0-0.2,0-0.4,0c-0.2-0.5-0.2-0.9,0-0.9
		c0.3,0,0.4,0,0.4,0C6,24,6,24.4,5.8,24.9z M5.6,22.2L5.2,22c0-0.3,0.4-0.5,0.4-0.5c0.3,0,0.5,0.2,0.5,0.5C6.1,22,6,22.2,5.6,22.2z
		 M5.6,19.7c0,0-0.4,0-0.4-0.3l0.4-0.5c0.3,0,0.5,0.5,0.5,0.5C6.1,19.7,6,19.7,5.6,19.7z M5.6,17.3c0,0-0.4-0.1-0.4-0.5l0.4-0.3
		c0.3,0,0.5,0.3,0.5,0.3C6.1,17.2,6,17.3,5.6,17.3z M6.9,26c-0.2,0-0.4,0-0.4-0.6c0-0.2,0.2-0.3,0.4-0.3c0.2,0,0.4,0.2,0.4,0.3
		C7.2,26,7.1,26,6.9,26z M6.9,23.3c-0.2,0-0.4,0-0.4-0.2c0-0.2,0.2-0.6,0.4-0.6c0.2,0,0.4,0.4,0.4,0.6C7.2,23.3,7.1,23.3,6.9,23.3z
		 M7.1,21.1c-0.4,0-0.6-0.2-0.6-0.5c0-0.2,0.2-0.2,0.6-0.2c0.2,0,0.2,0,0.2,0.2C7.2,20.9,7.2,21.1,7.1,21.1z M7.1,18.5
		c-0.4,0-0.6-0.3-0.6-0.3c0-0.2,0.2-0.5,0.6-0.5c0.2,0,0.2,0.3,0.2,0.5C7.2,18.2,7.2,18.5,7.1,18.5z M7.1,16c-0.4,0-0.6-0.2-0.6-0.2
		c0-0.4,0.2-0.6,0.6-0.6c0.2,0,0.2,0.2,0.2,0.6C7.2,15.8,7.2,16,7.1,16z M8,14.1c0-0.2,0.2-0.2,0.4,0c0.1,0,0.1,0.5,0,0.5
		c-0.2,0.3-0.4,0.3-0.4,0C7.8,14.6,7.8,14.1,8,14.1z M8.2,27.2c0,0.2-0.2,0.2-0.3,0c-0.2,0-0.2-0.4,0-0.6c0.2-0.2,0.3-0.2,0.3,0
		C8.4,26.8,8.4,27.2,8.2,27.2z M7.8,24.4C7.8,24,8,23.8,8,23.8c0.2,0,0.4,0.2,0.4,0.6c0,0-0.2,0.5-0.4,0.5L7.8,24.4z M8,22.2
		c0,0-0.2-0.2-0.2-0.3c0-0.2,0.2-0.5,0.2-0.5c0.2,0,0.4,0.3,0.4,0.5C8.4,22,8.2,22.2,8,22.2z M8.4,19.7C8.2,20,8,20,8,19.7
		c-0.2,0-0.2-0.3,0-0.8c0,0,0.2,0,0.4,0C8.5,19.3,8.5,19.7,8.4,19.7z M8.2,17.3c-0.2,0-0.3-0.1-0.3-0.5c0,0,0.2-0.3,0.3-0.3
		c0.2,0,0.4,0.3,0.4,0.3C8.5,17.2,8.4,17.3,8.2,17.3z M9.3,26c0,0-0.4,0-0.4-0.6c0-0.2,0.4-0.3,0.4-0.3c0.4,0,0.4,0.2,0.4,0.3
		C9.7,26,9.7,26,9.3,26z M9.3,23.3c0,0-0.4,0-0.4-0.3l0.4-0.4c0.4,0,0.4,0.4,0.4,0.4C9.7,23.3,9.7,23.3,9.3,23.3z M9.3,21.1
		c0,0-0.4-0.3-0.4-0.5c0-0.2,0.4-0.3,0.4-0.3c0.4,0,0.4,0.2,0.4,0.3C9.7,20.8,9.7,21.1,9.3,21.1z M9.4,18.5c-0.2,0-0.4-0.3-0.4-0.3
		c0-0.2,0.2-0.5,0.4-0.5c0.2,0,0.4,0.3,0.4,0.5C9.8,18.2,9.7,18.5,9.4,18.5z M9.4,16c-0.2,0-0.4-0.2-0.4-0.2c0-0.4,0.2-0.6,0.4-0.6
		c0.2,0,0.4,0.2,0.4,0.6C9.8,15.8,9.7,16,9.4,16z M9.7,13.4c0,0.2-0.4,0.2-0.4,0c-0.4,0-0.4-0.4,0-0.4c0-0.4,0.4-0.4,0.4,0
		C9.8,13,9.8,13.4,9.7,13.4z M10.9,27.2c-0.2,0.2-0.6,0.2-0.6,0c-0.2,0-0.2-0.4,0-0.6c0-0.2,0.4-0.2,0.6,0
		C11.1,26.8,11.1,27.2,10.9,27.2z M10.8,24.9c-0.4,0-0.6-0.5-0.6-0.5c0-0.4,0.2-0.6,0.6-0.6c0.2,0,0.3,0.2,0.3,0.6
		C11.1,24.4,10.9,24.9,10.8,24.9z M10.8,22.2c-0.4,0-0.6-0.2-0.6-0.3c0-0.3,0.2-0.5,0.6-0.5c0.2,0,0.3,0.2,0.3,0.5
		C11.1,22,10.9,22.2,10.8,22.2z M10.9,19.7c0,0-0.4,0-0.6,0c-0.2,0-0.2-0.3,0-0.8c0.2,0,0.6,0,0.6,0C11.1,19.3,11.1,19.7,10.9,19.7z
		 M11.1,17.2c-0.2,0.1-0.3,0.1-0.8,0c-0.2,0-0.2-0.4,0-0.4c0.4-0.3,0.6-0.3,0.8,0V17.2z M11.1,14.6c-0.2,0.3-0.3,0.3-0.8,0
		c-0.2,0-0.2-0.5,0-0.5c0.4-0.2,0.6-0.2,0.8,0V14.6z M10.8,12.3c-0.4,0-0.4-0.5-0.4-0.5c0-0.2,0-0.2,0.4-0.2c0.2,0,0.3,0,0.3,0.2
		C11.1,11.8,10.9,12.3,10.8,12.3z M14.6,7.9c0.3,0,0.3,0,0.3,0.3c0,0,0,0.2-0.3,0.2c-0.3,0-0.5-0.2-0.5-0.2
		C14.1,7.9,14.3,7.9,14.6,7.9z M11.9,26c-0.2,0-0.4,0-0.4-0.6c0-0.2,0.2-0.3,0.4-0.3c0.2,0,0.5,0.2,0.5,0.3C12.4,26,12.1,26,11.9,26
		z M11.9,23.3c-0.2,0-0.4,0-0.4-0.3c0,0,0.2-0.4,0.4-0.4c0.2,0,0.5,0.4,0.5,0.4C12.4,23.3,12.1,23.3,11.9,23.3z M11.9,20.9
		c-0.2,0-0.4-0.2-0.4-0.3c0-0.2,0.2-0.6,0.4-0.6c0.2,0,0.5,0.5,0.5,0.6C12.4,20.8,12.1,20.9,11.9,20.9z M11.9,18.5
		c-0.2,0-0.4-0.3-0.4-0.3c0-0.5,0.2-0.5,0.4-0.5c0.2,0,0.5,0,0.5,0.5C12.4,18.2,12.1,18.5,11.9,18.5z M12.4,16c-0.3,0-0.5,0-0.7,0
		c-0.2-0.2-0.2-0.6,0-0.8c0.2,0,0.4,0,0.7,0C12.5,15.3,12.5,15.8,12.4,16z M12.4,13.4c-0.3,0.2-0.5,0.2-0.7,0c-0.2,0-0.2-0.4,0-0.4
		c0.2-0.4,0.4-0.4,0.7,0C12.5,13,12.5,13.4,12.4,13.4z M12.4,10.7c-0.3,0.5-0.5,0.5-0.7,0c-0.2,0-0.2-0.2,0-0.2
		c0.2-0.3,0.4-0.3,0.7,0C12.5,10.5,12.5,10.7,12.4,10.7z M13.1,24.9c-0.2,0-0.3-0.5-0.3-0.5c0-0.4,0.2-0.6,0.3-0.6
		c0.2,0,0.4,0.2,0.4,0.6C13.6,24.4,13.3,24.9,13.1,24.9z M13.1,22.2c-0.2,0-0.3-0.2-0.3-0.3c0-0.3,0.2-0.5,0.3-0.5
		c0.2,0,0.4,0.2,0.4,0.5C13.6,22,13.3,22.2,13.1,22.2z M12.8,19.3c0-0.5,0.2-0.5,0.3-0.5c0.2,0,0.4,0,0.4,0.5c0,0.3-0.3,0.3-0.4,0.3
		C13,19.7,12.8,19.7,12.8,19.3z M13.1,17.3c-0.2,0-0.3-0.1-0.3-0.5c0,0,0.2-0.5,0.3-0.5c0.2,0,0.4,0.5,0.4,0.5
		C13.6,17.2,13.3,17.3,13.1,17.3z M13.3,14.9c-0.3,0-0.3-0.3-0.3-0.8c0,0,0-0.2,0.3-0.2c0.3,0,0.3,0.2,0.3,0.2
		C13.6,14.6,13.6,14.9,13.3,14.9z M13.3,12.3c-0.3,0-0.3-0.5-0.3-0.5c0-0.2,0-0.2,0.3-0.2c0.3,0,0.3,0,0.3,0.2
		C13.6,11.8,13.6,12.3,13.3,12.3z M13.3,9.6C13,9.6,13,9.5,13,9.3c0-0.2,0-0.2,0.3-0.2c0.3,0,0.3,0,0.3,0.2
		C13.6,9.5,13.6,9.6,13.3,9.6z M14.4,23.3c-0.2,0-0.4,0-0.4-0.3c0,0,0.2-0.4,0.4-0.4c0.2,0,0.4,0.4,0.4,0.4
		C14.8,23.3,14.6,23.3,14.4,23.3z M14.4,20.9c-0.2,0-0.4-0.2-0.4-0.3c0-0.2,0.2-0.6,0.4-0.6c0.2,0,0.4,0.5,0.4,0.6
		C14.8,20.8,14.6,20.9,14.4,20.9z M14.4,18.4c-0.2,0-0.4-0.2-0.4-0.2c0-0.5,0.2-0.5,0.4-0.5c0.2,0,0.4,0,0.4,0.5
		C14.8,18.2,14.6,18.4,14.4,18.4z M14.4,16c-0.2,0-0.4-0.2-0.4-0.2c0-0.6,0.2-0.6,0.4-0.6c0.2,0,0.4,0,0.4,0.6
		C14.8,15.8,14.6,16,14.4,16z M14.6,13.4c-0.3,0-0.5,0-0.5-0.4c0,0,0.2-0.4,0.5-0.4c0.3,0,0.3,0.4,0.3,0.4
		C14.8,13.4,14.8,13.4,14.6,13.4z M14.8,10.7c-0.3,0.5-0.4,0.5-0.6,0c-0.2,0-0.2-0.2,0-0.2c0.2-0.3,0.3-0.3,0.6,0
		C15,10.5,15,10.7,14.8,10.7z M15.7,22.2c-0.4,0-0.4-0.2-0.4-0.3c0-0.3,0-0.5,0.4-0.5c0.2,0,0.4,0.2,0.4,0.5
		C16.1,22,15.9,22.2,15.7,22.2z M15.7,19.7c-0.4,0-0.4,0-0.4-0.3c0-0.5,0-0.5,0.4-0.5c0.2,0,0.4,0,0.4,0.5
		C16.1,19.7,15.9,19.7,15.7,19.7z M15.7,17.2c-0.4,0-0.4-0.2-0.4-0.4c0,0,0-0.5,0.4-0.5c0.2,0,0.4,0.5,0.4,0.5
		C16.1,16.9,15.9,17.2,15.7,17.2z M16.1,14.6c-0.2,0.3-0.5,0.3-0.8,0v-0.5c0.3-0.3,0.6-0.3,0.8,0C16.3,14.1,16.3,14.6,16.1,14.6z
		 M16.1,12.2c-0.2,0.2-0.4,0.2-0.5,0c-0.3-0.3-0.3-0.4,0-0.6c0.1,0,0.3,0,0.5,0C16.3,11.8,16.3,11.8,16.1,12.2z M15.7,9.6
		c-0.1,0-0.4-0.2-0.4-0.3c0-0.2,0.3-0.2,0.4-0.2c0.4,0,0.6,0,0.6,0.2C16.3,9.5,16.1,9.6,15.7,9.6z M15.7,7.1c-0.1,0-0.4,0-0.4-0.3
		c0,0,0.3-0.2,0.4-0.2c0.4,0,0.6,0.2,0.6,0.2C16.3,7.1,16.1,7.1,15.7,7.1z M17,20.9c-0.4,0-0.6-0.2-0.6-0.3c0-0.2,0.2-0.6,0.6-0.6
		c0.2,0,0.2,0.5,0.2,0.6C17.2,20.8,17.2,20.9,17,20.9z M17,18.4c-0.4,0-0.6-0.2-0.6-0.2c0-0.5,0.2-0.5,0.6-0.5c0.2,0,0.2,0,0.2,0.5
		C17.2,18.2,17.2,18.4,17,18.4z M17,16c-0.4,0-0.6-0.2-0.6-0.6c0-0.2,0.2-0.2,0.6-0.2c0.2,0,0.2,0,0.2,0.2C17.2,15.8,17.2,16,17,16z
		 M17.2,13.4c0,0-0.4,0-0.6,0c-0.2-0.4-0.2-0.4,0-0.6c0.2-0.2,0.6-0.2,0.6,0C17.2,13,17.2,13,17.2,13.4z M17.2,10.7
		c0,0.5-0.2,0.5-0.4,0c-0.4,0-0.4-0.2,0-0.2c0.2-0.3,0.4-0.3,0.4,0C17.4,10.5,17.4,10.7,17.2,10.7z M17,8.3c-0.2,0-0.6-0.2-0.6-0.2
		c0-0.3,0.4-0.3,0.6-0.3c0.2,0,0.3,0,0.3,0.3C17.4,8.2,17.2,8.3,17,8.3z M17,6c-0.2,0-0.6-0.4-0.6-0.4c0-0.2,0.4-0.3,0.6-0.3
		c0.2,0,0.3,0.2,0.3,0.3C17.4,5.6,17.2,6,17,6z M18.3,19.7c0,0-0.2,0-0.3,0c0-0.3,0-0.8,0-0.8c0.2,0,0.3,0,0.3,0
		C18.5,18.9,18.5,19.3,18.3,19.7z M18.3,17.2c0,0.1-0.2,0.1-0.3,0c0-0.4,0-0.4,0-0.7c0.2-0.2,0.3-0.2,0.3,0
		C18.5,16.8,18.5,16.8,18.3,17.2z M18.3,14.6c-0.2,0-0.3,0-0.3-0.5c0,0,0.2-0.3,0.3-0.3l0.2,0.3C18.5,14.6,18.3,14.6,18.3,14.6z
		 M18.3,12.2c-0.2,0-0.3-0.3-0.3-0.3c0-0.2,0.2-0.2,0.3-0.2c0,0,0.2,0,0.2,0.2L18.3,12.2z M18.3,9.6c-0.2,0-0.3-0.2-0.3-0.3
		c0-0.2,0.2-0.2,0.3-0.2c0.2,0,0.4,0,0.4,0.2C18.6,9.5,18.5,9.6,18.3,9.6z M18.3,7.1c-0.2,0-0.3,0-0.3-0.3c0,0,0.2-0.2,0.3-0.2
		c0.2,0,0.4,0.2,0.4,0.2C18.6,7.1,18.5,7.1,18.3,7.1z M18.3,4.7c-0.2,0-0.3-0.2-0.3-0.6c0,0,0.2-0.4,0.3-0.4c0.2,0,0.4,0.4,0.4,0.4
		C18.6,4.6,18.5,4.7,18.3,4.7z M19.6,18.2c0,0.3-0.2,0.3-0.4,0c-0.2,0-0.2-0.2,0-0.5c0.2,0,0.4,0,0.4,0
		C19.7,18.1,19.7,18.2,19.6,18.2z M19.6,15.8c0,0.2-0.2,0.2-0.4,0c-0.2-0.1-0.2-0.6,0-0.6c0.2,0,0.4,0,0.4,0
		C19.7,15.2,19.7,15.7,19.6,15.8z M19.6,13.4c0,0-0.2,0-0.4,0C19,13,19,13,19.2,12.6c0.2,0,0.4,0,0.4,0C19.7,13,19.7,13,19.6,13.4z
		 M19.6,10.7h-0.2c-0.4,0-0.4-0.2,0-0.2c0-0.3,0.2-0.3,0.2,0C19.7,10.5,19.7,10.7,19.6,10.7z M19.6,8.3c-0.2,0-0.4-0.2-0.4-0.2
		c0-0.3,0.2-0.3,0.4-0.3c0,0,0.1,0,0.1,0.3L19.6,8.3z M19.6,6c-0.2,0-0.4-0.4-0.4-0.4c0-0.2,0.2-0.3,0.4-0.3c0,0,0.1,0.2,0.1,0.3
		L19.6,6z M20.9,3.8l0.2,0.4c0,0.4-0.2,0.6-0.2,0.6c-0.4,0-0.6-0.2-0.6-0.6C20.3,4.2,20.5,3.8,20.9,3.8z M20.9,17.2
		c0,0.1-0.4,0.1-0.6,0c0-0.4,0-0.4,0-0.7c0.2-0.2,0.6-0.2,0.6,0C21.1,16.8,21.1,16.8,20.9,17.2z M20.9,14.6c0,0-0.4,0-0.6,0
		c0-0.5,0-0.5,0-0.6c0.2-0.2,0.6-0.2,0.6,0C21.1,14.1,21.1,14.1,20.9,14.6z M20.9,11.8c0,0.3-0.4,0.3-0.6,0v-0.2
		c0.2-0.2,0.6-0.2,0.6,0C21.1,11.6,21.1,11.8,20.9,11.8z M20.9,9.5c0,0.2-0.2,0.2-0.4,0c-0.2-0.2-0.2-0.4,0-0.4c0.3,0,0.4,0,0.4,0
		C21.1,9.1,21.1,9.3,20.9,9.5z M21.1,7.1c-0.2,0-0.3,0-0.6,0c-0.2-0.3-0.2-0.3,0-0.3c0.3-0.2,0.4-0.2,0.6,0
		C21.1,6.7,21.1,6.7,21.1,7.1z M21.7,16c0,0-0.1-0.2-0.1-0.6c0-0.2,0.1-0.2,0.1-0.2c0.3,0,0.6,0,0.6,0.2C22.3,15.8,22,16,21.7,16z
		 M21.7,13.4L21.7,13c0-0.2,0.1-0.4,0.1-0.4c0.3,0,0.6,0.2,0.6,0.4C22.3,13,22,13.4,21.7,13.4z M22,10.7c0,0-0.3,0-0.4,0
		c0-0.2,0-0.2,0-0.6c0.1,0,0.4,0,0.4,0C22.3,10.5,22.3,10.6,22,10.7z M21.7,8.3c0,0-0.1-0.2-0.1-0.3c0-0.2,0.1-0.2,0.1-0.2
		c0.3,0,0.6,0,0.6,0.2C22.3,8.2,22,8.3,21.7,8.3z M22.3,6c-0.3,0-0.6,0-0.6,0c-0.1-0.4-0.1-0.6,0-0.7c0,0,0.3,0,0.6,0
		C22.3,5.5,22.3,5.6,22.3,6z M22,3.3c-0.3,0-0.4,0-0.4-0.2c0,0,0.1-0.6,0.4-0.6c0.2,0,0.3,0.6,0.3,0.6C22.3,3.3,22.2,3.3,22,3.3z"/>
</g>
</svg>
