<?xml version="1.0" encoding="utf-8"?>
<!-- Generator: Adobe Illustrator 19.0.0, SVG Export Plug-In . SVG Version: 6.00 Build 0)  -->
<svg version="1.1" id="Layer_2" xmlns="http://www.w3.org/2000/svg" xmlns:xlink="http://www.w3.org/1999/xlink" x="0px" y="0px"
	 viewBox="0 0 31.9 30" style="enable-background:new 0 0 31.9 30;" xml:space="preserve">
<style type="text/css">
	.st0{fill-rule:evenodd;clip-rule:evenodd;fill:#FFFFFF;}
</style>
<path ng-class="{ '{{$ctrl.id}}': true}" d="M13.9,0.3c0.4,0.6,0.3,2.3,0.1,3.1c-2.1,0.7-6.4,0.5-8.7,0.1C4.9,2.9,4.9,1,5.3,0.3C7.6-0.1,11.6-0.1,13.9,0.3
	L13.9,0.3z"/>
<path ng-class="{ '{{$ctrl.id}}': true}" d="M8.6,4.9c0,2,0,4.1,0,6.2c-3.8,0.9-6.2,3.3-6.2,8.1c4.2,0.5,9.8,0.3,14.2,0.1c0.5-4.7-2.2-7.4-6-8.2
	c0-2.1,0-4.2,0-6.3c0.8,0.1,1.9-0.1,2.6,0.1c0,1.4,0,2.8,0,4.2c2.7,1.3,6.9,5.1,6,9.5c-0.3,1.3-1.8,2.8-2.6,4.1
	c-0.9,1.5-1.7,2.9-2.6,4.1C4.1,31.6-3.8,19.6,2,12.2c1-1.2,2.4-2.3,4.2-3C6.3,7.8,6,6,6.3,4.8C7.1,4.9,8.1,4.7,8.6,4.9L8.6,4.9z"/>
<path ng-class="{ '{{$ctrl.id}}': true}" d="M26.7,9.7c0.4,0.8,0.4,2.2-0.1,2.8c-2,0.4-5.8,0.6-7.6-0.1C16.6,8,24.2,9.5,26.7,9.7L26.7,9.7z"/>
<path ng-class="{ '{{$ctrl.id}}': true}" d="M22.3,13.8c-0.3,2.2,0.4,3.9,0,5.6c-0.4,1.7-2.2,2.7-2.4,4.2c1.4,0.5,4.2,0.3,5.8,0.1c-0.2-1.5-1.7-2.9-2.4-4.4
	c0-1.9,0-3.8,0-5.6c0.8,0,1.6,0,2.4,0c0.2,1.9-0.3,3.2,0,4.7c0.3,1.6,2.4,4,3.3,5.4c0.6,0.9,1.1,1.8,1.7,2.7
	c0.5,0.8,1.5,1.8,1.2,2.9c-1.1,0.7-2.8,0.4-4.4,0.4c-3,0-6.1,0-9.4,0c-1.5,0-3.7,0.2-4.2-0.4c-0.9-0.9,2-4.3,2.7-5.4
	c0.5-0.8,1.1-1.7,1.7-2.7c0.6-1,1.5-2,1.7-2.7c0.4-1.6-0.3-3.4,0-5C20.7,13.8,21.5,13.8,22.3,13.8L22.3,13.8z"/>
</svg>
