<?xml version="1.0" encoding="utf-8"?>
<!-- Generator: Adobe Illustrator 19.0.0, SVG Export Plug-In . SVG Version: 6.00 Build 0)  -->
<svg version="1.1" id="Layer_1" xmlns="http://www.w3.org/2000/svg" xmlns:xlink="http://www.w3.org/1999/xlink" x="0px" y="0px"
	 viewBox="0 0 25 30" style="enable-background:new 0 0 25 30;" xml:space="preserve">
<style type="text/css">
	.{{$ctrl.id}}{fill:{{$ctrl.fill}};}
</style>
<g>
	<path ng-class="{ '{{$ctrl.id}}': true}" d="M24.8,5.6c-0.3-0.2-0.6-0.2-0.7-0.2c-0.5,0-0.8,0.3-0.8,0.8c0,0.1-0.1,0.6-0.2,1.1L15,2.2
		c0.4-0.2,0.8-0.3,0.8-0.3c0.5-0.3,0.7-0.8,0.4-1.3c-0.2-0.5-0.8-0.7-1.3-0.5c0,0-6.7,3.7-3,13.7c-0.6,0-1,0-1.5,0.3
		C2,16.1,0.1,22.2,0,22.4c0,0.5,0.1,0.7,0.5,1.1c0.1,0,0.1,0,0.2,0c0.5,0.2,1.1,0,1.3-0.7c0,0,0.1-0.5,0.5-1.2l9.3,5.6
		c-0.5,0.8-0.8,1-0.9,1.3c-0.5,0-0.5,0.8,0,1.2c0,0,0.1,0.1,0.2,0.1c0.2,0.2,0.5,0.2,0.7,0.2c0.2,0,0.4-0.2,0.5-0.3
		c0.2-0.3,5.1-5.1,2.2-14.5c0.9-0.2,1.5-0.2,2.3-0.4C25,12.8,25,6.2,25,6.2C25,5.9,24.9,5.6,24.8,5.6z M12.4,15.5
		c0.6,1.5,0.9,2.6,1.1,4.1l-4.9-3C9.8,16.1,11.1,15.8,12.4,15.5z M13.5,22.2c-0.1,1.1-0.4,2.2-0.9,3.3l-0.2,0.2l-8.8-5.5l0-0.2
		c0.9-0.8,1.7-1.6,2.7-2.2l0.2-0.3l7,4.3V22.2z M13.8,13.5c-0.6-1.4-0.8-2.5-1-3.9l4.8,3C16.5,13.1,15.2,13.4,13.8,13.5z M22.3,9.1
		c-0.7,1-1.5,1.9-2.7,2.5l-0.1,0.2l-7-4.4l0,0c0-1.2,0.4-2.3,1-3.5l0,0L22.3,9.1L22.3,9.1z"/>
</g>
</svg>
