<?xml version="1.0" encoding="utf-8"?>
<!-- Generator: Adobe Illustrator 19.0.0, SVG Export Plug-In . SVG Version: 6.00 Build 0)  -->
<svg version="1.1" id="Layer_1" xmlns="http://www.w3.org/2000/svg" xmlns:xlink="http://www.w3.org/1999/xlink" x="0px" y="0px"
	 viewBox="0 0 20.4 30" style="enable-background:new 0 0 20.4 30;" xml:space="preserve">
<style type="text/css">
	.{{$ctrl.id}}{fill:{{$ctrl.fill}};}
</style>
<path ng-class="{ '{{$ctrl.id}}': true}" d="M18.2,13.5c-2-3.2-7.1-11.1-7.9-13.3L10.4,0C8.6,7.9-6,18.8,2.8,27C12.1,35.3,25.8,24.8,18.2,13.5z M9,27.7
	c-0.4,0-0.7,0-1,0c-2.9-0.7-5.2-3.6-5.4-6.5c-0.3-3.3,1.4-6.1,3-8.2v0.3c-1.2,1.9-2.5,6.2,0,9.7c0.3,0.3,0.8,0.6,1.4,0.8
	c0.5-0.6,1.1-1,2.1-1c1.2,0,2.3,1,2.3,2.3C11.4,26.7,10.3,27.7,9,27.7z"/>
</svg>
