<?xml version="1.0" encoding="utf-8"?>
<!-- Generator: Adobe Illustrator 19.0.0, SVG Export Plug-In . SVG Version: 6.00 Build 0)  -->
<svg version="1.1" id="Group_4" xmlns="http://www.w3.org/2000/svg" xmlns:xlink="http://www.w3.org/1999/xlink" x="0px" y="0px"
	 viewBox="0 0 18.3 30" style="enable-background:new 0 0 18.3 30;" xml:space="preserve">
<style type="text/css">
	.{{$ctrl.id}}{fill:{{$ctrl.fill}};}
</style>
<g>
	<path ng-class="{ '{{$ctrl.id}}': true}" d="M9.1,11.7c-5,0-9.1,4.1-9.1,9.1c0,5,4.1,9.1,9.1,9.1s9.1-4.1,9.1-9.1C18.3,15.8,14.2,11.7,9.1,11.7z M9.1,28.7
		c-4.3,0-7.8-3.5-7.8-7.8c7.7-2,7.5,1.3,15.7,0C17,25.2,13.4,28.7,9.1,28.7z"/>
	<circle ng-class="{ '{{$ctrl.id}}': true}" cx="9.1" cy="25.8" r="0.7"/>
	<circle ng-class="{ '{{$ctrl.id}}': true}" cx="11.1" cy="23.2" r="1"/>
	<circle ng-class="{ '{{$ctrl.id}}': true}" cx="6.8" cy="20.5" r="1.3"/>
	<rect x="5.2" y="7.8" ng-class="{ '{{$ctrl.id}}': true}" width="7.8" height="11.1"/>
	<path ng-class="{ '{{$ctrl.id}}': true}" d="M13,7.2H5.2c-0.4,0-0.7-0.3-0.7-0.7c0-0.4,0.3-0.7,0.7-0.7H13c0.4,0,0.7,0.3,0.7,0.7C13.7,6.9,13.4,7.2,13,7.2
		z"/>
	<circle ng-class="{ '{{$ctrl.id}}': true}" cx="9.1" cy="4.6" r="0.7"/>
	<circle ng-class="{ '{{$ctrl.id}}': true}" cx="11.1" cy="2.3" r="1"/>
	<circle ng-class="{ '{{$ctrl.id}}': true}" cx="7.2" cy="1.3" r="1.3"/>
</g>
</svg>
