<?xml version="1.0" encoding="utf-8"?>
<!-- Generator: Adobe Illustrator 19.0.0, SVG Export Plug-In . SVG Version: 6.00 Build 0)  -->
<svg version="1.1" id="Layer_5" xmlns="http://www.w3.org/2000/svg" xmlns:xlink="http://www.w3.org/1999/xlink" x="0px" y="0px"
	 viewBox="0 0 24.6 30" style="enable-background:new 0 0 24.6 30;" xml:space="preserve">
<style type="text/css">
	.{{$ctrl.id}}{fill:{{$ctrl.fill}};}
</style>
<g>
	<path ng-class="{ '{{$ctrl.id}}': true}" d="M23.8,23.5l-5.7-9.9V2.8h-1.4v11.2l5.9,10.2c0.7,1.1,0.7,2.2,0.2,3.1c-0.5,0.9-1.5,1.3-2.8,1.3H4.5
		c-1.3,0-2.3-0.5-2.8-1.3c-0.5-0.9-0.4-2,0.2-3.1l5.9-10.2V2.8H6.5v10.8l-5.7,9.9c-0.9,1.6-1,3.2-0.2,4.5c0.7,1.3,2.2,2,4,2h15.6
		c1.8,0,3.3-0.7,4-2C24.8,26.7,24.7,25,23.8,23.5z M9.1,12.4c0,0.9,0.7,1.6,1.6,1.6c0.9,0,1.6-0.7,1.6-1.6c0-0.9-0.7-1.6-1.6-1.6
		C9.8,10.8,9.1,11.5,9.1,12.4z M12.4,8.4c-0.5,0-0.9,0.4-0.9,0.9c0,0.5,0.4,0.9,0.9,0.9c0.5,0,0.9-0.4,0.9-0.9
		C13.3,8.8,12.9,8.4,12.4,8.4z M6.7,1.7H18c0.5,0,0.8-0.4,0.8-0.8C18.8,0.4,18.4,0,18,0H6.7C6.2,0,5.8,0.4,5.8,0.8
		C5.8,1.3,6.2,1.7,6.7,1.7z M7.9,17.1C7.6,17.7,3.4,25,3.4,25c-0.2,0.3-0.5,1-0.2,1.4c0.3,0.5,1,0.5,1.4,0.5h15.6
		c0.3,0,1.1,0,1.4-0.5c0.3-0.5-0.1-1.2-0.2-1.4L17,17.8c-0.3-0.4-0.7-0.9-1.4-0.9c-0.3,0-0.5,0.1-0.6,0.2l4.1,7.1
		c0.2,0.3,0.1,0.6-0.2,0.8c-0.3,0.2-0.6,0.1-0.8-0.2l-4-6.9c-0.3,0.2-0.6,0.4-1,0.4c-1.3,0-1.6-2.3-3.5-2.3
		C9,16.1,8.3,16.6,7.9,17.1z M13.7,20.9c0.5,0,0.9,0.4,0.9,0.9c0,0.5-0.4,0.9-0.9,0.9c-0.5,0-0.9-0.4-0.9-0.9
		C12.8,21.3,13.2,20.9,13.7,20.9z M9.9,18.4c0.7,0,1.3,0.6,1.3,1.3c0,0.7-0.6,1.3-1.3,1.3c-0.7,0-1.3-0.6-1.3-1.3
		C8.6,19,9.2,18.4,9.9,18.4z M9,23.1c0.6,0,1,0.5,1,1c0,0.6-0.5,1-1,1c-0.6,0-1-0.5-1-1C8,23.6,8.4,23.1,9,23.1z M12.1,15.3
		c0,0.6,0.5,1.2,1.2,1.2c0.6,0,1.2-0.5,1.2-1.2c0-0.6-0.5-1.2-1.2-1.2C12.6,14.1,12.1,14.6,12.1,15.3z"/>
</g>
</svg>
