<?xml version="1.0" encoding="utf-8"?>
<!-- Generator: Adobe Illustrator 19.0.0, SVG Export Plug-In . SVG Version: 6.00 Build 0)  -->
<svg version="1.1" id="Group_4" xmlns="http://www.w3.org/2000/svg" xmlns:xlink="http://www.w3.org/1999/xlink" x="0px" y="0px"
	 viewBox="0 0 23.3 30" style="enable-background:new 0 0 23.3 30;" xml:space="preserve">
<style type="text/css">
	.{{$ctrl.id}}{fill:{{$ctrl.fill}};}
</style>
<g>
	<path ng-class="{ '{{$ctrl.id}}': true}" d="M22.9,25.7l-7-12V8.5H7.4v5.3h0l-7,12C-0.7,27.6,0.6,30,2.8,30h17.7C22.7,30,24,27.6,22.9,25.7z M21.7,27.9
		c-0.1,0.2-0.5,0.7-1.2,0.7H2.8c-0.7,0-1.1-0.5-1.2-0.7c-0.1-0.2-0.4-0.8,0-1.4l3.1-5.3c6.5-1.3,7.2,1.4,14.2,0.5l2.8,4.8
		C22.1,27.1,21.8,27.7,21.7,27.9z"/>
	<circle ng-class="{ '{{$ctrl.id}}': true}" cx="11.7" cy="26.8" r="0.7"/>
	<circle ng-class="{ '{{$ctrl.id}}': true}" cx="13.8" cy="24" r="1.1"/>
	<circle ng-class="{ '{{$ctrl.id}}': true}" cx="9.2" cy="21.2" r="1.4"/>
	<path ng-class="{ '{{$ctrl.id}}': true}" d="M15.9,7.8H7.4C7,7.8,6.7,7.4,6.7,7.1S7,6.4,7.4,6.4h8.5c0.4,0,0.7,0.3,0.7,0.7S16.3,7.8,15.9,7.8z"/>
	<circle ng-class="{ '{{$ctrl.id}}': true}" cx="11.7" cy="4.9" r="0.7"/>
	<circle ng-class="{ '{{$ctrl.id}}': true}" cx="13.8" cy="2.5" r="1.1"/>
	<circle ng-class="{ '{{$ctrl.id}}': true}" cx="9.5" cy="1.4" r="1.4"/>
</g>
</svg>
