<?xml version="1.0" encoding="utf-8"?>
<!-- Generator: Adobe Illustrator 19.0.0, SVG Export Plug-In . SVG Version: 6.00 Build 0)  -->
<svg version="1.1" id="Layer_2" xmlns="http://www.w3.org/2000/svg" xmlns:xlink="http://www.w3.org/1999/xlink" x="0px" y="0px"
	 viewBox="0 0 33.6 30" style="enable-background:new 0 0 33.6 30;" xml:space="preserve">
<style type="text/css">
	.st0{fill-rule:evenodd;clip-rule:evenodd;fill:#FFFFFF;}
</style>
<g>
	<path ng-class="{ '{{$ctrl.id}}': true}" d="M16.7,4.6C18.3,2.3,20.7,0,24.5,0c7.2-0.1,11.4,8.3,7.7,15.2c-2.6,0-5.3,0-7.9,0c-0.5-1.4-0.8-2.6-1.5-4.3
		c-0.3-0.9-1-3.7-1.9-3.8c-1.2-0.2-2.7,4.1-3.1,5c-1,2.1-1.7,3.7-2.6,5.5c-1.6-1.7-2.1-4.5-3.9-5.9c-1.4,0.6-1.7,2.2-2.4,3.5
		c-2.5,0-5,0-7.5,0c-2-4.3-2-9.1,1.1-12.4C6.3-1.3,14.3-0.6,16.7,4.6L16.7,4.6z"/>
	<path ng-class="{ '{{$ctrl.id}}': true}" d="M20.5,12.6c0.8,1.6,1.2,3.6,2,5.1c2.4,0.3,5.3,0.1,7.9,0.1c-2.6,3.7-6,6.6-9.8,9.6C19.9,28,17.8,30,16.8,30
		c-1,0-3.1-2-3.9-2.6c-3.7-2.8-7.2-5.9-9.8-9.6c2.8-0.4,7.6,1.2,8.1-1.6c0.7,0.9,1.2,1.9,1.9,3.2c0.4,0.7,1.2,2.9,2,3
		c1.3,0.1,2.2-3.4,2.8-4.6C19,15.6,19.7,14.5,20.5,12.6L20.5,12.6z"/>
</g>
</svg>
