<?xml version="1.0" encoding="utf-8"?>
<!-- Generator: Adobe Illustrator 19.0.0, SVG Export Plug-In . SVG Version: 6.00 Build 0)  -->
<svg version="1.1" id="Layer_2" xmlns="http://www.w3.org/2000/svg" xmlns:xlink="http://www.w3.org/1999/xlink" x="0px" y="0px"
	 viewBox="0 0 44.3 30" style="enable-background:new 0 0 44.3 30;" xml:space="preserve">
<style type="text/css">
	.st0{fill-rule:evenodd;clip-rule:evenodd;fill:#FFFFFF;}
</style>
<path ng-class="{ '{{$ctrl.id}}': true}" d="M31.8,0.4c0.5,0.8,0.6,3-0.2,3.5c-1.1,0.4-3,0.1-4.4,0.2c-0.4,6.4-0.1,13.6-0.2,20.4c-3.9,0-7.8,0-11.7,0
	c-1.2-6.4-11.3-6.7-12.2,0c-0.9-0.1-2.2,0.2-2.7-0.4C-0.2,18.9,0.1,12,0.1,5.9c0-1.9-0.4-4,0.5-5.5C10.2-0.1,22.2-0.1,31.8,0.4
	L31.8,0.4z M12.1,4.7c-0.8,0.7,0,3.1-0.5,4.1c-1.5,0-3.3-0.2-4.1,0.5C7,9.9,7,11.9,7.5,12.5c0.9,0.7,2.8,0.2,4.2,0.4
	c0.1,1.3-0.2,3,0.2,4.1c0.6,0.7,2.5,0.7,3.4,0.2c0.6-1,0.3-2.8,0.4-4.2c1.3-0.1,3,0.2,4.1-0.2c0.5-0.6,0.4-2.5,0.2-3.4
	c-0.8-0.8-3-0.3-4.2-0.7c-0.1-1.3,0.2-3-0.4-3.9C14.6,4.2,12.8,4.1,12.1,4.7L12.1,4.7z"/>
<path ng-class="{ '{{$ctrl.id}}': true}" d="M37.8,5.7c1,1,2.2,2.6,3.4,4.2c1,1.4,2.7,3.4,3,4.6c0.4,1.5,0,4.1,0,6c0,1.8,0.5,4.4-1.9,3.9
	c-0.9-5-7.9-6.8-11-2.8c-0.6,0.8-0.5,3-2.3,2.8c-0.8-5.5-0.1-12.6-0.4-18.8C31.7,5.7,34.7,5.7,37.8,5.7L37.8,5.7z M38.9,10.9
	c-0.6-0.9-1-2.3-2.1-2.7c-1.5-0.5-3.3,0.3-5.5,0c-1.2,0.7-0.8,4.4-0.4,5.7c1.1,0.6,3.1,0.4,4.8,0.4c1.8,0,3.9,0.4,4.8-0.5
	C40.7,12.7,39.6,11.9,38.9,10.9L38.9,10.9z"/>
<path ng-class="{ '{{$ctrl.id}}': true}" d="M8.2,21.1c2.8-0.5,4.9,1,5.3,3.2c1.1,5.8-5.9,7.1-8.1,3.9C3.5,25.6,4.9,21.8,8.2,21.1L8.2,21.1z"/>
<path ng-class="{ '{{$ctrl.id}}': true}" d="M35.1,21.1c6.9-1.3,6.6,8.7,1.1,8.8C30.7,30.2,29.9,22.1,35.1,21.1L35.1,21.1z"/>
</svg>
