<?xml version="1.0" encoding="utf-8"?>
<!-- Generator: Adobe Illustrator 19.0.0, SVG Export Plug-In . SVG Version: 6.00 Build 0)  -->
<svg version="1.1" id="Layer_1" xmlns="http://www.w3.org/2000/svg" xmlns:xlink="http://www.w3.org/1999/xlink" x="0px" y="0px"
	 viewBox="0 0 29.1 30" style="enable-background:new 0 0 29.1 30;" xml:space="preserve">
<style type="text/css">
	.{{$ctrl.id}}{fill:{{$ctrl.fill}};}
</style>
<path ng-class="{ '{{$ctrl.id}}': true}" d="M28.6,18.1l-4.8-2.6c-0.7-0.3-0.7-1.1,0-1.5l4.8-2.3c0.3-0.2,0.7-1.3,0.3-2L26.2,5C26,4.4,25,4.1,24.5,4.7
	L19.9,7c-0.8,0.6-1.1,0.3-1.1-0.6V1.4c0-0.9-0.8-1.4-1.5-1.4H12c-0.9,0-1.7,0.5-1.7,1.4v5.1c0,0.9-0.3,1.1-1.2,0.6L4.9,4.7
	C4.1,4.1,3.3,4.4,2.9,5L0.3,9.8c-0.5,0.7-0.3,1.8,0.5,2l4.5,2.3c0.8,0.3,0.8,1.1,0,1.5l-4.5,2.6c-0.8,0.5-1,1.1-0.5,1.9l2.6,4.8
	c0.3,0.5,1.3,0.7,2.1,0.5l4.1-2.7c0.9-0.3,1.2-0.2,1.2,0.8v5.1c0,0.9,0.8,1.5,1.7,1.5h5.3c0.7,0,1.5-0.6,1.5-1.5v-5.1
	c0-1,0.3-1.1,1.1-0.8l4.7,2.7c0.5,0.2,1.5,0,1.8-0.5l2.6-4.8C29.3,19.3,28.9,18.6,28.6,18.1z M21.2,17.2h-5.3v5.2h-2.6v-5.2H7.9
	v-2.7h5.3V9.4h2.6v5.1h5.3V17.2z"/>
</svg>
