<?xml version="1.0" encoding="utf-8"?>
<!-- Generator: Adobe Illustrator 19.0.0, SVG Export Plug-In . SVG Version: 6.00 Build 0)  -->
<svg version="1.1" id="Layer_5" xmlns="http://www.w3.org/2000/svg" xmlns:xlink="http://www.w3.org/1999/xlink" x="0px" y="0px"
	 viewBox="0 0 23.9 30" style="enable-background:new 0 0 23.9 30;" xml:space="preserve">
<style type="text/css">
	.{{$ctrl.id}}{fill:{{$ctrl.fill}};}
</style>
<path ng-class="{ '{{$ctrl.id}}': true}" d="M8.2,24.3l-4.7-1L3,26.1c0.8-0.2,1.8-0.2,2.8-0.2c0.8,0,1.5,0,2.1-0.1L8.2,24.3z M0,30h23.9
	c0,0-1.5-10.2-6.4-10.2c-4.9,0,0,7.2-11.6,7.2C-0.7,27,0,30,0,30z M10.3,22.3l-7.8-1.6l-0.3,1.4l7.8,1.6L10.3,22.3z M17.5,18.7
	c1.4,0,2.6,0.6,3.5,1.6c-0.7-4-3.1-7.3-6.4-9.3c-0.5,0.4-1.2,0.7-1.9,0.7c-1.6,0-3-1.3-3-3c0-1.6,1.2-2.8,2.7-2.9l0.2-1.1
	c0.1-0.6-0.3-1.2-0.9-1.3L8.5,2.6C7.9,2.5,7.3,2.9,7.2,3.5L4.8,15.2c-0.1,0.6,0.3,1.2,0.9,1.3l0.5,0.1L6,19.9l1.3,0.3L8.5,17L9,17.1
	c0.6,0.1,1.2-0.3,1.3-0.9l0.7-3.6C14,13.7,16.3,15.9,17.5,18.7C17.4,18.7,17.4,18.7,17.5,18.7z M11.6,2.6l0.4-2.1L9.4,0L8.9,2.1
	L11.6,2.6z M14.2,8.7c0-0.8-0.7-1.5-1.5-1.5c-0.2,0-0.4,0-0.5,0.1c-0.6,0.2-1,0.8-1,1.4c0,0.8,0.7,1.5,1.5,1.5c0.1,0,0.2,0,0.3,0
	C13.7,10,14.2,9.4,14.2,8.7z"/>
</svg>
