<?xml version="1.0" encoding="utf-8"?>
<!-- Generator: Adobe Illustrator 19.0.0, SVG Export Plug-In . SVG Version: 6.00 Build 0)  -->
<svg version="1.1" id="Symbol" xmlns="http://www.w3.org/2000/svg" xmlns:xlink="http://www.w3.org/1999/xlink" x="0px" y="0px"
	 viewBox="0 0 20 30" style="enable-background:new 0 0 20 30;" xml:space="preserve">
<style type="text/css">
	.{{$ctrl.id}}{fill:{{$ctrl.fill}};}
</style>
<path ng-class="{ '{{$ctrl.id}}': true}" d="M20,21v0.6c0,0.3-0.2,0.5-0.5,0.5H9.7c-0.3,0-0.5-0.2-0.5-0.5V21c0-0.3,0.2-0.5,0.5-0.5h9.7
	C19.8,20.5,20,20.7,20,21z M12.7,16.1c-0.4,0.3-0.7,0.7-0.5,1.1c0.2,0.3,0.7,0.4,1.2,0.1l2.9-1.7c0.4-0.3,0.7-0.7,0.5-1.1
	c-0.2-0.3-0.7-0.4-1.2-0.1L12.7,16.1z M4.8,2.2c0.2,0.3,0.5,0.4,0.8,0.2l1.8-1c0.3-0.2,0.4-0.5,0.2-0.8L7.3,0.3
	C7.2,0,6.8-0.1,6.6,0.1l-1.8,1C4.5,1.2,4.4,1.6,4.6,1.8L4.8,2.2z M9,23.5c-3.5,0-6.3-2.8-6.3-6.3c0-3.3,2.6-6.1,5.9-6.3L11,15
	c0.3,0.4,0.8,0.6,1.3,0.3l2.9-1.7c0.4-0.3,0.6-0.8,0.3-1.3l-6-10.3C9.3,1.6,8.7,1.5,8.3,1.7L5.3,3.4C4.9,3.7,4.7,4.2,5,4.7l2.2,3.8
	C3,9.5,0,13.2,0,17.7c0,4.3,2.8,8,6.8,9.2c0.4,0.1,0.7,0.2,0.9,0.3c-0.2,0-0.4,0.1-0.6,0.1c-1.9,0.5-3.6,1.3-3.6,2
	c0,0.4,0.3,0.7,0.7,0.7h10.4c0.3,0,0.7-0.3,0.7-0.7c0-0.6-1.4-1.5-3.3-1.9c-0.2-0.1-0.5-0.1-0.8-0.2c0.4-0.1,0.7-0.2,1.1-0.3
	c2.1-0.6,3.8-1.9,5-3.7h-6.6C10.2,23.4,9.6,23.5,9,23.5z"/>
</svg>
