<?xml version="1.0" encoding="utf-8"?>
<!-- Generator: Adobe Illustrator 19.0.0, SVG Export Plug-In . SVG Version: 6.00 Build 0)  -->
<svg version="1.1" id="Medical__x26__Anatomy" xmlns="http://www.w3.org/2000/svg" xmlns:xlink="http://www.w3.org/1999/xlink"
	 x="0px" y="0px" viewBox="0 0 21.4 30" style="enable-background:new 0 0 21.4 30;" xml:space="preserve">
<style type="text/css">
	.{{$ctrl.id}}{fill:{{$ctrl.fill}};}
</style>
<g>
	<path ng-class="{ '{{$ctrl.id}}': true}" d="M2.9,0.1c-3.5,0-3.7,6.3-1.3,7.6c0.7-0.2,17.4-0.2,18.1,0c1.8-1,1.5-2.9,1.5-4.6C21.3-0.9,18.2,0.1,2.9,0.1z"
		/>
	<path ng-class="{ '{{$ctrl.id}}': true}" d="M19.8,8.2C19.1,8,20.2,8.1,2.5,8.1c-1.3,0-2.4,0.9-2.4,2V28c0,1.1,1.1,2,2.4,2h16.4c1.3,0,2.4-0.9,2.4-2
		C21.3,10.9,22.2,9.1,19.8,8.2z M3.9,17.6c0-1.5,2.8-1,4.4-1c0-1.6-0.5-4.4,1-4.4c4.5,0,3.9-0.6,3.9,4.4c1.6,0,4.4-0.5,4.4,1
		c0,4.5,0.6,3.9-4.4,3.9c0,1.6,0.5,4.4-1,4.4c-4.5,0-3.9,0.6-3.9-4.4C3.2,21.5,3.9,22,3.9,17.6z"/>
</g>
</svg>
