<?xml version="1.0" encoding="utf-8"?>
<!-- Generator: Adobe Illustrator 19.0.0, SVG Export Plug-In . SVG Version: 6.00 Build 0)  -->
<svg version="1.1" id="Layer_1" xmlns="http://www.w3.org/2000/svg" xmlns:xlink="http://www.w3.org/1999/xlink" x="0px" y="0px"
	 viewBox="0 0 30 30" style="enable-background:new 0 0 30 30;" xml:space="preserve">
<style type="text/css">
	.{{$ctrl.id}}{fill:{{$ctrl.fill}};}
</style>
<path ng-class="{ '{{$ctrl.id}}': true}" d="M17.3,2.2L2.2,17.3c-2.9,2.9-2.9,7.6,0,10.5c2.9,2.9,7.6,2.9,10.5,0l15.2-15.2c2.9-2.9,2.9-7.6,0-10.5
	C24.9-0.7,20.2-0.7,17.3,2.2z M3.7,18.8l6.9-6.9c0.3-0.3,0.9-0.3,1.2,0l6.3,6.3c0.3,0.3,0.3,0.9,0,1.2l-6.9,6.9
	c-2.1,2.1-5.4,2.1-7.5,0C1.6,24.3,1.6,20.9,3.7,18.8z"/>
</svg>
