<?xml version="1.0" encoding="utf-8"?>
<!-- Generator: Adobe Illustrator 19.0.0, SVG Export Plug-In . SVG Version: 6.00 Build 0)  -->
<svg version="1.1" id="Layer_1" xmlns="http://www.w3.org/2000/svg" xmlns:xlink="http://www.w3.org/1999/xlink" x="0px" y="0px"
	 viewBox="0 0 31.3 30" style="enable-background:new 0 0 31.3 30;" xml:space="preserve">
<style type="text/css">
	.{{$ctrl.id}}{fill:{{$ctrl.fill}};}
</style>
<g>
	<path ng-class="{ '{{$ctrl.id}}': true}" d="M31.3,18.6l-2.5-2.4v-1h0.7v-3.6h-8.4v3.6h0.7v1l-2.5,2.4h0v-7.2h0l-4-3.9V5.9h1.2V0H2.8v5.9H4v1.6l-4,3.9h0
		v14.8C0,28.3,1.7,30,3.8,30h11.8c2.1,0,3.8-1.7,3.8-3.8v1.5c0,1.3,1.1,2.4,2.3,2.4H29c1.3,0,2.3-1.1,2.3-2.4L31.3,18.6L31.3,18.6z
		 M9,23.9H0.5V13.6H9V23.9z M14.2,7.4h-9V5.9h9V7.4z M22.6,15.2h5.5v0.9h-5.5V15.2z M31,26.3h-5.2v-6.3H31V26.3z"/>
</g>
</svg>
