<?xml version="1.0" encoding="utf-8"?>
<!-- Generator: Adobe Illustrator 19.0.0, SVG Export Plug-In . SVG Version: 6.00 Build 0)  -->
<svg version="1.1" id="Layer_1" xmlns="http://www.w3.org/2000/svg" xmlns:xlink="http://www.w3.org/1999/xlink" x="0px" y="0px"
	 viewBox="0 0 19.8 30" style="enable-background:new 0 0 19.8 30;" xml:space="preserve">
<style type="text/css">
	.{{$ctrl.id}}{fill:{{$ctrl.fill}};}
</style>
<path ng-class="{ '{{$ctrl.id}}': true}" d="M4.4,23.8c0.1,0,0.2,0,0.3,0.2c0.2,0.7,0.7,3.2-0.2,4.9c-0.6,1.1-2.1,1.4-3.2,0.8c-1.2-0.7-1.6-2.1-1-3.2
	C1.2,24.8,3.7,24,4.4,23.8z"/>
<g>
	<path ng-class="{ '{{$ctrl.id}}': true}" d="M4.8,21.3c0,0.4,0.2,0.9,0.6,1.1l0.2,0.1c0.4,0.2,0.9,0.2,1.3-0.1l3.7-2.7c0.3-0.2,0.8-0.7,1-1.1l0.4-0.7
		l3.8-6.5c0.2-0.4,0.1-0.8-0.3-1l-4.6-2.7C10.5,7.5,10,7.6,9.8,8L6,14.5l-0.4,0.7c-0.2,0.4-0.4,1-0.4,1.4L4.8,21.3z"/>
	<path ng-class="{ '{{$ctrl.id}}': true}" d="M18.5,7.7c-0.3-0.2-0.4-0.6-0.1-0.9l1-1.7c0.9-1.6,0.4-3.7-1.3-4.7c-1.6-0.9-3.7-0.4-4.6,1.2l0,0l-1,1.7
		c-0.2,0.4-0.6,0.5-0.9,0.3L11,3.4c-0.6-0.4-1.4-0.1-1.8,0.5C8.9,4.5,9.1,5.3,9.7,5.7l1,0.6l5.9,3.4l1,0.6c0.6,0.4,1.4,0.1,1.8-0.5
		C19.8,9.2,19.6,8.4,19,8C19,8,18.8,7.9,18.5,7.7z"/>
</g>
</svg>
