<?xml version="1.0" encoding="utf-8"?>
<!-- Generator: Adobe Illustrator 19.0.0, SVG Export Plug-In . SVG Version: 6.00 Build 0)  -->
<svg version="1.1" id="Layer_1" xmlns="http://www.w3.org/2000/svg" xmlns:xlink="http://www.w3.org/1999/xlink" x="0px" y="0px"
	 viewBox="0 0 25.8 30" style="enable-background:new 0 0 25.8 30;" xml:space="preserve">
<style type="text/css">
	.{{$ctrl.id}}{fill:{{$ctrl.fill}};}
</style>
<g>
	<path ng-class="{ '{{$ctrl.id}}': true}" d="M21.2,28.7c2.5-0.5,4.4-1.9,4.1-3.2c-0.1-1.5-1.9-2.2-4.2-1.8l0,0c-0.8-1.4-1.9-2.2-3.1-2.5
		c-2.3-0.2-4.5,1.2-6.5,2.2c-0.2,0.4-0.3,0.4-0.4,0.6c-2.6,2.3-5.4,4.5-8.5,1.9c-0.2-0.3-0.2-0.3-0.2-0.3c-0.9-0.8-1.2-1.7-1.2-2.6
		c0.1-1.7,1.8-3,2.2-3.7c0.5,0,0.5,0,0.5,0l0,0c0.2,0,0.6,0,1-0.5l1.2-1.1l2.2,0.9c0.2,0.2,0.7,0.2,1.2,0l0,0
		c1.8,0.4,3.8,0.2,5.5-0.5c4.5-2.1,5.5-8.9,5.5-9.2l0,0c0.2-0.5,0.2-0.5,0.2-0.8c0-0.3,0-1.1,0-1.4l0.3-1.1c0-0.6-0.1-1.2-0.9-1.2
		h-1.5c-0.6,0-0.8,0.5-0.8,1.2l0.6,0.9c0,0.5,0.2,1.2,0,1.5c0,0.2,0.2,0.2,0.5,0.8c0,0.5-1.1,5.9-4.6,7.8c-1,0.7-2.6,1.1-4.3,0.5
		l0,0c-0.2-0.4-0.3-0.5-0.5-0.8L7,15l-1.5-2.6c-0.1-0.3-0.7-0.5-0.9-0.5l0,0c-0.3-1.5-0.3-2.8,0.1-4c1.6-4.2,7.7-5.4,7.7-5.4
		s0,0,0.1,0v0.1c0,0.2,0.5,0.2,0.6,0c0.4,0,1.1,0,1.8,0l0.8,0.3c0.6,0,0.9-0.3,0.8-0.6V0.5c0-0.4-0.6-0.7-1.1-0.4h-0.9
		c-0.3,0.4-1.2,0.4-1.5,0.4s-0.7,0-0.5,0.1V1c-0.2,0-0.2,0-0.3,0c-0.2,0.1-6.8,1.5-8.8,6.1c-0.6,1.6-0.6,3.3,0,5.1l0,0
		c-0.2,0.5-0.2,1,0,1.5l1.2,2.1l-1.2,1.2c-0.2,0.2-0.6,0.7-0.6,1l0,0C2,18.8,0,20.9,0,22.8c-0.2,1.1,0.3,2.6,1.5,3.7v0.2
		c4,3.6,7.5,0.8,10.2-1.8c0.4,0,0.5-0.2,0.8-0.5c1.9-1.5,3.9-2.1,5.2-1.9c0.6,0,1.2,0.6,1.9,1.2l0,0c-2,0.7-3.4,1.8-3.2,3.2
		C16.7,28.2,18.9,28.9,21.2,28.7z M19.1,25.5c0-0.5,0.5-0.8,0.9-1.1c0.1,0,0.1,0,0.1,0s0.2,0.5,0.2,0.5c0,0.5,0.6,0.5,0.9,0.5
		c0.2,0,0.6-0.6,0.2-1.1h-0.1l0,0c0.6,0,1.1,0,1.1,0.5c0,0.5-0.5,1-1.5,1.2C20.1,26.2,19.1,25.9,19.1,25.5z"/>
	<path ng-class="{ '{{$ctrl.id}}': true}" d="M25.8,26.7c-0.2-0.2-0.5,0-0.6,0.5c-0.6,0.6-1.5,1.5-3.2,1.8c-2.2,0.4-3.5,0-4.3-0.2c-0.6-0.5-0.8-0.5-0.6,0
		c0.3,0.2,0.8,1.1,1.1,1.1c0.9,0.3,1.9,0.3,3.9,0c1.7-0.5,2.8-0.9,3.3-1.5C25.8,27.8,25.8,27.2,25.8,26.7z"/>
	<path ng-class="{ '{{$ctrl.id}}': true}" d="M20.3,3.7c-0.2-0.3-1.1-0.3-1.5,0C18.6,4,18.6,4,18.6,4.4h2.3C20.9,4,20.7,4,20.3,3.7z"/>
	<path ng-class="{ '{{$ctrl.id}}': true}" d="M17,2.1c0.6-0.6,0.6-1.1,0-1.6c-0.2,0-0.3-0.4-0.5-0.4l0.2,2.5C16.7,2.4,17,2.3,17,2.1z"/>
</g>
</svg>
