<?xml version="1.0" encoding="utf-8"?>
<!-- Generator: Adobe Illustrator 19.0.0, SVG Export Plug-In . SVG Version: 6.00 Build 0)  -->
<svg version="1.1" id="Layer_1" xmlns="http://www.w3.org/2000/svg" xmlns:xlink="http://www.w3.org/1999/xlink" x="0px" y="0px"
	 viewBox="0 0 30 30" style="enable-background:new 0 0 30 30;" xml:space="preserve">
<style type="text/css">
	.{{$ctrl.id}}{fill:{{$ctrl.fill}};}
</style>
<g>
	<g>
		<path ng-class="{ '{{$ctrl.id}}': true}" d="M27.7,6.4l-4.2-4.2l-2-2c-0.3-0.3-0.7-0.3-0.9,0c-0.3,0.3-0.3,0.7,0,0.9l1.7,1.7c0.2,0.2,0.2,0.4,0,0.6
			l-2.7,2.7c-0.2,0.2-0.2,0.4,0,0.6l3.7,3.7c0.2,0.2,0.4,0.2,0.6,0l2.7-2.7c0.2-0.2,0.4-0.2,0.6,0l1.8,1.8c0.3,0.3,0.7,0.3,0.9,0
			c0.3-0.3,0.3-0.7,0-0.9L27.7,6.4z"/>
		<path ng-class="{ '{{$ctrl.id}}': true}" d="M6.7,24.2l-0.9-0.9c-0.3-0.3-0.7-0.2-0.9,0l-4.7,5.8c-0.2,0.3-0.3,0.7-0.1,0.8c0.2,0.2,0.5,0.1,0.8-0.1
			l5.8-4.7C7,24.9,7,24.5,6.7,24.2z"/>
		<path ng-class="{ '{{$ctrl.id}}': true}" d="M23.8,12.2l-6.1-6.1L16.6,5c-0.3-0.3-0.7-0.3-0.9,0c-0.3,0.3-0.3,0.7,0,0.9l0.8,0.8c0.1,0.1,0.1,0.3,0,0.5
			L4,19.7c-0.1,0.1-0.1,0.3,0,0.5l5.7,5.7c0.1,0.1,0.3,0.1,0.5,0l12.5-12.5c0.1-0.1,0.3-0.1,0.5,0l0.9,0.9c0.3,0.3,0.7,0.3,0.9,0
			c0.3-0.3,0.3-0.7,0-0.9L23.8,12.2z M9.7,24l-3.8-3.8c-0.1-0.1-0.1-0.3,0-0.5l1.4-1.4c0.1-0.1,0.3-0.1,0.5,0l1.9,1.9c0,0,0,0,0,0
			c0.3,0.3,0.7,0.3,0.9,0c0.2-0.2,0.2-0.4,0.2-0.7c-0.1-0.2-0.3-0.4-0.4-0.5c-0.4-0.4-1.3-1.3-1.7-1.7c-0.1-0.1-0.1-0.3,0-0.5
			l2.2-2.2c0.1-0.1,0.3-0.1,0.5,0l1.9,1.9c0.3,0.3,0.7,0.3,0.9,0c0.3-0.3,0.3-0.7,0-0.9c0,0,0,0,0,0l-1.9-1.9
			c-0.1-0.1-0.1-0.3,0-0.5l2.2-2.2c0.1-0.1,0.3-0.1,0.5,0L17,13c0.3,0.3,0.7,0.3,0.9,0c0.2-0.2,0.2-0.4,0.2-0.7
			c-0.1-0.2-0.3-0.4-0.4-0.5c-0.4-0.4-1.3-1.3-1.7-1.7c-0.1-0.1-0.1-0.3,0-0.5l1.4-1.4c0.1-0.1,0.3-0.1,0.5,0l3.8,3.8
			c0.1,0.1,0.1,0.3,0,0.5L10.2,24C10,24.1,9.8,24.1,9.7,24z"/>
	</g>
</g>
</svg>
