<?xml version="1.0" encoding="utf-8"?>
<!-- Generator: Adobe Illustrator 19.0.0, SVG Export Plug-In . SVG Version: 6.00 Build 0)  -->
<svg version="1.1" id="Layer_2" xmlns="http://www.w3.org/2000/svg" xmlns:xlink="http://www.w3.org/1999/xlink" x="0px" y="0px"
	 viewBox="0 0 31.1 30" style="enable-background:new 0 0 31.1 30;" xml:space="preserve">
<style type="text/css">
	.st0{fill-rule:evenodd;clip-rule:evenodd;fill:#FFFFFF;}
</style>
<g>
	<path ng-class="{ '{{$ctrl.id}}': true}" d="M10.2,0.1c0.2,5,0.2,10.8,0,15.8c-1.8,1.3-4.5,1.7-4.6,4.6C-0.6,17.8-1.8,8.3,2.8,3.4
		C4.5,1.6,7.2-0.1,10.2,0.1L10.2,0.1z"/>
	<path ng-class="{ '{{$ctrl.id}}': true}" d="M12.1,0c6.4,0.4,12,7.2,9.3,14.5c-3.3,0.1-6.6,0.4-9.5,0.9c-0.2-4.7-0.2-10.3,0-15C11.8,0.2,11.9,0.1,12.1,0
		L12.1,0z"/>
	<path ng-class="{ '{{$ctrl.id}}': true}" d="M25.4,16.4c-1,1.1-2.4,1.4-3.8,2c-2.6,1.2-4.9,2.3-7.9,3.6c-1.2,0.5-2.9,1.8-4,1.8c-1.3,0-3-1.7-2.9-3.4
		c0.1-1.9,2.3-2.8,4-3.5C14.8,15.4,20.9,15,25.4,16.4L25.4,16.4z"/>
	<path ng-class="{ '{{$ctrl.id}}': true}" d="M12,24.7c2.1-1.4,4.8-2.5,7.5-3.8c2.6-1.2,5.3-2.5,7.6-3.5c1.4-0.6,3.8,1.8,3.9,3.1c0.1,2-2.2,3.1-3.8,3.8
		C23.3,25.8,16.2,26.4,12,24.7L12,24.7z"/>
	<path ng-class="{ '{{$ctrl.id}}': true}" d="M6.6,21.9c3.1,5.8,20.9,6.4,24.4,0c0.3,1,0,2.5,0.1,3.6c-2.9,5.3-17.9,5.8-23,1.8C6.7,26.2,6.4,24.5,6.6,21.9
		L6.6,21.9z"/>
</g>
</svg>
