<?xml version="1.0" encoding="utf-8"?>
<!-- Generator: Adobe Illustrator 19.0.0, SVG Export Plug-In . SVG Version: 6.00 Build 0)  -->
<svg version="1.1" id="Icons" xmlns="http://www.w3.org/2000/svg" xmlns:xlink="http://www.w3.org/1999/xlink" x="0px" y="0px"
	 viewBox="0 0 25.3 30" style="enable-background:new 0 0 25.3 30;" xml:space="preserve">
<style type="text/css">
	.{{$ctrl.id}}{fill:{{$ctrl.fill}};}
</style>
<g>
	<path ng-class="{ '{{$ctrl.id}}': true}" d="M23.9,24.1c-0.2,0-0.5,0-0.7,0v-1.5l0.9,0.1c0,0,0,0,0,0c0.1,0,0.1,0,0.1-0.1c0.2-1.2,0.2-2.3,0-3.4
		c-0.1-0.9-0.4-1.8-0.8-2.6c-0.6-1.4-1.3-2.2-1.4-2.2c0,0-0.1,0-0.1,0c0,0-0.1,0.1,0,0.2c0.1,0.4-0.2,1.3-0.4,1.6c0,0,0,0.1,0,0.2
		c0,0,0,0.2-0.5,0.7c-0.3,0.3-0.6,0.5-0.6,0.5c0,0-0.1,0.1,0,0.2c0.3,0.5-0.4,1.6-0.7,2c0,0,0,0.1,0,0.2c0.2,0.4,0.2,0.9-0.1,1.4
		C19.3,21.7,19,22,19,22c0,0-0.1,0.1,0,0.1c0,0.1,0.1,0.1,0.1,0.1l3.4,0.4v1.6c-2.5,0-4.9,0-7.4,0v-2.8l2.1,0.2c0,0,0,0,0,0
		c0.2,0,0.3-0.1,0.3-0.3c0.6-3,0.6-6,0-8.8c-0.4-2.3-1.3-4.5-2.4-6.7c-2-3.6-4.2-5.6-4.3-5.7c-0.1-0.1-0.3-0.1-0.4,0
		c-0.1,0.1-0.2,0.3-0.1,0.4c0.4,1.1-0.7,3.4-1.2,4.1C9.1,4.7,9.1,4.9,9.2,5c0,0.1-0.1,0.5-1.7,1.8C6.6,7.5,5.7,8.2,5.7,8.2
		C5.5,8.3,5.5,8.5,5.6,8.6c0.8,1.4-1.2,4.2-2.1,5.2c-0.1,0.1-0.1,0.3,0,0.4c0.6,1.1,0.5,2.3-0.4,3.6c-0.7,1-1.6,1.7-1.6,1.7
		c-0.1,0.1-0.2,0.2-0.1,0.4c0,0.1,0.2,0.2,0.3,0.3L6,20.6l-2.2,3.6c-0.8,0-1.6,0-2.4,0c-1.2,0-1.7,0.5-1.1,1.2
		c1.1,1.2,2.3,2.3,3.4,3.5C4.4,29.5,5.5,30,6.1,30c4.3,0,8.6,0,13,0c0.7,0,1.8-0.5,2.4-1.2c1.1-1.2,2.3-2.3,3.4-3.5
		C25.6,24.7,25.2,24.1,23.9,24.1z M4.4,24.1l2.2-3.5l6.9,0.6v2.9C10.4,24.1,7.4,24.1,4.4,24.1z"/>
</g>
</svg>
