<?xml version="1.0" encoding="utf-8"?>
<!-- Generator: Adobe Illustrator 19.0.0, SVG Export Plug-In . SVG Version: 6.00 Build 0)  -->
<svg version="1.1" id="Layer_1" xmlns="http://www.w3.org/2000/svg" xmlns:xlink="http://www.w3.org/1999/xlink" x="0px" y="0px"
	 viewBox="0 0 29.7 30" style="enable-background:new 0 0 29.7 30;" xml:space="preserve">
<style type="text/css">
	.{{$ctrl.id}}{fill:{{$ctrl.fill}};}
</style>
<g>
	<path ng-class="{ '{{$ctrl.id}}': true}" d="M29.7,1.5c0-0.4-0.2-0.7-0.5-1l0,0c0,0-0.1-0.1-0.1-0.1c0,0,0,0,0,0c0,0,0,0-0.1-0.1c0,0,0,0,0,0
		c0,0,0,0-0.1,0c0,0,0,0-0.1,0c0,0-0.1,0-0.1,0c0,0,0,0-0.1,0c0,0-0.1,0-0.1,0c0,0,0,0-0.1,0c0,0-0.1,0-0.1,0c0,0,0,0,0,0
		c0,0-0.1,0-0.1,0c0,0,0,0,0,0c0,0-0.1,0-0.1,0c0,0,0,0,0,0c0,0-0.1,0-0.1,0c0,0,0,0,0,0c0,0-0.1,0-0.1,0c0,0,0,0,0,0
		c0,0-0.1,0-0.1,0c0,0,0,0,0,0c0,0,0,0-0.1,0c0,0,0,0,0,0c0,0,0,0-0.1,0c0,0,0,0,0,0c0,0-0.1,0-0.1,0c0,0,0,0,0,0c0,0-0.1,0-0.1,0.1
		l-4.7,3.1C20.4,1.9,17.7,1,14.9,1C7.3,1,1.1,7.3,1.1,14.9c0,2.1,0.5,4.1,1.3,6C0.1,23.9,0,29,0,29.2L0,30l0.8,0
		c0.2,0,5.3-0.1,8.4-2.5c1.7,0.8,3.6,1.2,5.7,1.2c3.2,0,6.3-1.1,8.7-3.1v1.5c0,0.9,0.7,1.6,1.6,1.6c0.9,0,1.6-0.7,1.6-1.6v-4.9
		c0.1-0.1,0.1-0.2,0.1-0.3c0-0.4-0.1-0.7-0.4-1c-0.3-0.4-0.7-0.6-1.2-0.6c-0.1,0-0.3,0-0.4,0H20c-0.9,0-1.6,0.7-1.6,1.6
		c0,0.9,0.7,1.6,1.6,1.6h1.2c-1.8,1.3-4,2.1-6.3,2.1c-1.2,0-2.4-0.2-3.5-0.6c0.6-1.1,0.6-2,0.5-2.5l8.2-5.4l9.4-14.7
		c0.1-0.1,0.1-0.2,0.2-0.4c0-0.1,0.1-0.3,0.1-0.4C29.7,1.6,29.7,1.6,29.7,1.5L29.7,1.5z M14.9,4.2c1.7,0,3.3,0.4,4.8,1.1l-6.8,4.5
		L7.2,18c-0.1,0-0.2,0-0.3,0c-0.6,0-1.3,0.2-2,0.6c-0.4-1.2-0.7-2.4-0.7-3.7C4.3,9,9.1,4.2,14.9,4.2L14.9,4.2z M11.7,20.7l-2.6-2.6
		l4-5.7l4.4,4.4L11.7,20.7z M11.7,20.7"/>
</g>
</svg>
