<?xml version="1.0" encoding="utf-8"?>
<!-- Generator: Adobe Illustrator 19.0.0, SVG Export Plug-In . SVG Version: 6.00 Build 0)  -->
<svg version="1.1" id="Layer_1" xmlns="http://www.w3.org/2000/svg" xmlns:xlink="http://www.w3.org/1999/xlink" x="0px" y="0px"
	 viewBox="189.7 382 34.6 30" style="enable-background:new 189.7 382 34.6 30;" xml:space="preserve">
<style type="text/css">
	.{{$ctrl.id}}{fill:{{$ctrl.fill}};}
</style>
<g>
	<path ng-class="{ '{{$ctrl.id}}': true}" d="M216.2,410.8v-3.5c0-1.3,1-2.3,2.3-2.3c1.3,0,2.3,1,2.3,2.3v3.5H216.2z M193.2,407.4c0-1.3,1-2.3,2.3-2.3
		s2.3,1,2.3,2.3v3.5h-4.6V407.4z M209.3,410.8h-4.6v-3.5c0-1.3,1-2.3,2.3-2.3s2.3,1,2.3,2.3V410.8z M203.5,410.8h-4.6v-3.5
		c0-1.3,1-2.3,2.3-2.3c1.3,0,2.3,1,2.3,2.3V410.8z M215.1,410.8h-4.6v-3.5c0-1.3,1-2.3,2.3-2.3s2.3,1,2.3,2.3V410.8z M191.4,401.6
		h31.2c0.3,0,0.6,0.3,0.6,0.6c0,0.3-0.3,0.6-0.6,0.6h-31.2c-0.3,0-0.6-0.3-0.6-0.6C190.8,401.9,191.1,401.6,191.4,401.6L191.4,401.6
		z M191.4,391.2h21.3h9.8c0.3,0,0.6,0.3,0.6,0.6c0,0.3-0.3,0.6-0.6,0.6h-31.2c-0.3,0-0.6-0.3-0.6-0.6
		C190.8,391.5,191.1,391.2,191.4,391.2L191.4,391.2z M195.5,384.3c1.3,0,2.3,1,2.3,2.3v3.5h-4.6v-3.5
		C193.2,385.3,194.2,384.3,195.5,384.3L195.5,384.3z M201.2,384.3c1.3,0,2.3,1,2.3,2.3v3.5h-4.6v-3.5
		C198.9,385.3,200,384.3,201.2,384.3L201.2,384.3z M207,384.3c1.3,0,2.3,1,2.3,2.3v3.5h-4.6v-3.5C204.7,385.3,205.7,384.3,207,384.3
		L207,384.3z M216.2,400.5V397c0-1.3,1-2.3,2.3-2.3c1.3,0,2.3,1,2.3,2.3v3.5H216.2z M210.5,400.5V397c0-1.3,1-2.3,2.3-2.3
		s2.3,1,2.3,2.3v3.5H210.5z M204.7,400.5V397c0-1.3,1-2.3,2.3-2.3s2.3,1,2.3,2.3v3.5H204.7z M198.9,400.5V397c0-1.3,1-2.3,2.3-2.3
		c1.3,0,2.3,1,2.3,2.3v3.5H198.9z M193.2,400.5V397c0-1.3,1-2.3,2.3-2.3s2.3,1,2.3,2.3v3.5H193.2z M224.3,402.2
		c0-0.8-0.5-1.4-1.2-1.6v-7.1c0.7-0.2,1.2-0.9,1.2-1.6c0-1-0.8-1.7-1.7-1.7h-9.4l-2.6-7.3c-0.2-0.5-0.6-0.8-1.1-0.8H192
		c-0.6,0-1.2,0.5-1.2,1.2v7c-0.7,0.2-1.2,0.9-1.2,1.6c0,0.8,0.5,1.4,1.2,1.6v7.1c-0.7,0.2-1.2,0.9-1.2,1.6c0,0.8,0.5,1.4,1.2,1.6v7
		h-0.6c-0.3,0-0.6,0.3-0.6,0.6c0,0.3,0.3,0.6,0.6,0.6h1.2h31.2h1.2c0.3,0,0.6-0.3,0.6-0.6c0-0.3-0.3-0.6-0.6-0.6h-0.6v-7
		C223.8,403.6,224.3,402.9,224.3,402.2L224.3,402.2z"/>
	<path ng-class="{ '{{$ctrl.id}}': true}" d="M212.8,406.2c-0.6,0-1.2,0.5-1.2,1.2v3.5h2.3v-3.5C213.9,406.7,213.4,406.2,212.8,406.2"/>
	<path ng-class="{ '{{$ctrl.id}}': true}" d="M207,406.2c-0.6,0-1.2,0.5-1.2,1.2v3.5h2.3v-3.5C208.2,406.7,207.6,406.2,207,406.2"/>
	<path ng-class="{ '{{$ctrl.id}}': true}" d="M201.2,406.2c-0.6,0-1.2,0.5-1.2,1.2v3.5h2.3v-3.5C202.4,406.7,201.9,406.2,201.2,406.2"/>
	<path ng-class="{ '{{$ctrl.id}}': true}" d="M218.5,406.2c-0.6,0-1.2,0.5-1.2,1.2v3.5h2.3v-3.5C219.7,406.7,219.2,406.2,218.5,406.2"/>
	<path ng-class="{ '{{$ctrl.id}}': true}" d="M195.5,406.2c-0.6,0-1.2,0.5-1.2,1.2v3.5h2.3v-3.5C196.6,406.7,196.1,406.2,195.5,406.2"/>
	<path ng-class="{ '{{$ctrl.id}}': true}" d="M212.8,395.8c-0.6,0-1.2,0.5-1.2,1.2v3.5h2.3V397C213.9,396.4,213.4,395.8,212.8,395.8"/>
	<path ng-class="{ '{{$ctrl.id}}': true}" d="M207,395.8c-0.6,0-1.2,0.5-1.2,1.2v3.5h2.3V397C208.2,396.4,207.6,395.8,207,395.8"/>
	<path ng-class="{ '{{$ctrl.id}}': true}" d="M201.2,395.8c-0.6,0-1.2,0.5-1.2,1.2v3.5h2.3V397C202.4,396.4,201.9,395.8,201.2,395.8"/>
	<path ng-class="{ '{{$ctrl.id}}': true}" d="M195.5,395.8c-0.6,0-1.2,0.5-1.2,1.2v3.5h2.3V397C196.6,396.4,196.1,395.8,195.5,395.8"/>
	<path ng-class="{ '{{$ctrl.id}}': true}" d="M218.5,395.8c-0.6,0-1.2,0.5-1.2,1.2v3.5h2.3V397C219.7,396.4,219.2,395.8,218.5,395.8"/>
	<path ng-class="{ '{{$ctrl.id}}': true}" d="M208.2,386.6c0-0.6-0.5-1.2-1.2-1.2s-1.2,0.5-1.2,1.2v3.5h2.3V386.6z"/>
	<path ng-class="{ '{{$ctrl.id}}': true}" d="M196.6,386.6c0-0.6-0.5-1.2-1.2-1.2c-0.6,0-1.2,0.5-1.2,1.2v3.5h2.3V386.6z"/>
	<path ng-class="{ '{{$ctrl.id}}': true}" d="M202.4,386.6c0-0.6-0.5-1.2-1.2-1.2c-0.6,0-1.2,0.5-1.2,1.2v3.5h2.3V386.6z"/>
</g>
</svg>
