<?xml version="1.0" encoding="utf-8"?>
<!-- Generator: Adobe Illustrator 19.0.0, SVG Export Plug-In . SVG Version: 6.00 Build 0)  -->
<svg version="1.1" id="icons" xmlns="http://www.w3.org/2000/svg" xmlns:xlink="http://www.w3.org/1999/xlink" x="0px" y="0px"
	 viewBox="0 0 20.9 30" style="enable-background:new 0 0 20.9 30;" xml:space="preserve">
<style type="text/css">
	.{{$ctrl.id}}{fill:{{$ctrl.fill}};}
</style>
<path ng-class="{ '{{$ctrl.id}}': true}" d="M9.9,21c2.7-0.6,4.9-0.8,7.3-4.2c0.8-1.2,1.6-2.8,2.2-4.5c-0.8,0.2-1.7,0.3-2.7,0.4c1.7-1.2,3.2-2,3.9-4.8
	C21.1,5,21,2.2,20,0c-2.5,3.3-5.9,4.5-9.6,6.2C9.5,6.6,8.6,7.1,7.8,7.7c-2.2,1.8-2.3,3.6-2.7,5.6c-0.4-0.8-0.7-1.6-0.8-2.3
	C0.8,15-0.5,20.3,0.7,23.5c3-5.4,6.8-10.4,13.7-14.2C8.1,14.8,2.2,24.1,0.1,29c-0.3,0.7,0.5,1.3,1.1,0.9l0,0c0.8-0.6,3-4.2,3.2-4.6
	c2.8-0.7,5.4-1.9,7.7-3.4C11.4,21.6,10.6,21.4,9.9,21z"/>
</svg>
