<?xml version="1.0" encoding="utf-8"?>
<!-- Generator: Adobe Illustrator 19.0.0, SVG Export Plug-In . SVG Version: 6.00 Build 0)  -->
<svg version="1.1" id="Layer_1" xmlns="http://www.w3.org/2000/svg" xmlns:xlink="http://www.w3.org/1999/xlink" x="0px" y="0px"
	 viewBox="0 0 27.8 30" style="enable-background:new 0 0 27.8 30;" xml:space="preserve">
<style type="text/css">
	.st0{fill-rule:evenodd;clip-rule:evenodd;fill:#FFFFFF;}
</style>
<path ng-class="{ '{{$ctrl.id}}': true}" d="M0,30c1.1-2.6,2.5-5.1,4.1-7.6c0.2-2.7-0.2-9.8-0.2-9.8l0-0.3L4.1,12c3-3.8,6.5-6.3,10.3-8.2
	C18.2,2,22.2,1,26.5,0.2L27.8,0l-0.3,1.3c-0.7,3.3-1.8,6.5-3.5,9.7c-1.7,3.2-4.2,6.4-7.5,9.6l-0.2,0.2L16,20.8l-7.7,1.8
	c-0.6,1.2-1.1,2.4-1.7,3.7C4.4,27.6,2.2,28.8,0,30L0,30z M12.6,6.8c-2.5,1.5-4.8,3.5-6.9,6c0.1,1.1,0.2,4.3,0.2,6.9
	c4.2-5.8,9.8-11.1,16.8-15.6c0.3,0.2,0.6,0.4,0.9,0.6c-4,3.3-9.4,7.4-14.1,15.9l5.9-1.4c0.5-0.5,1-1,1.5-1.4l-4.7-0.1l0.7-0.9
	l5.5-0.7c0.1-0.1,0.2-0.2,0.3-0.4l-3.9,0l0.9-0.7l3.7-0.2c1.1-1.5,2.1-3,2.9-4.5c1.4-2.6,2.4-5.3,3.1-8c-3.6,0.7-7.1,1.7-10.3,3.2
	c-0.4,0.2-0.8,0.4-1.2,0.6l0,3.5l-0.7,0.4L12.6,6.8z"/>
</svg>
