<?xml version="1.0" encoding="utf-8"?>
<!-- Generator: Adobe Illustrator 19.0.0, SVG Export Plug-In . SVG Version: 6.00 Build 0)  -->
<svg version="1.1" id="Ñëîé_2" xmlns="http://www.w3.org/2000/svg" xmlns:xlink="http://www.w3.org/1999/xlink" x="0px" y="0px"
	 viewBox="0 0 22.1 30" style="enable-background:new 0 0 22.1 30;" xml:space="preserve">
<style type="text/css">
	.{{$ctrl.id}}{fill:{{$ctrl.fill}};}
</style>
<g>
	<g>
		<path ng-class="{ '{{$ctrl.id}}': true}" d="M4,15.6c2.8-5.7,4.1-5.4,4-12.2c0-4.1-4.7-3.4-5.6-3.2c-0.1,0-0.1,0-0.2,0l0,0l0,0C0.9,0.5,0,1.6,0,2.9
			c0,1.5,1.2,2.8,2.8,2.8c1.3,0,2.4-0.9,2.7-2.2c1.1,8.1-3.5,7.9-4.7,14.2c-1.1,6.3,2.8,9.4,6.1,9.2l3.2-2C6.8,25,1.1,21.4,4,15.6z"
			/>
		<path ng-class="{ '{{$ctrl.id}}': true}" d="M18.1,15.6c-2.8-5.7-4.1-5.4-4-12.2c0-4.1,4.7-3.4,5.6-3.2c0.1,0,0.1,0,0.2,0l0,0l0,0
			c1.2,0.3,2.1,1.4,2.1,2.7c0,1.5-1.2,2.8-2.8,2.8c-1.3,0-2.4-0.9-2.7-2.2c-1.1,8.1,3.5,7.9,4.7,14.2c1.1,6.3-2.8,9.4-6.1,9.2
			l-3.2-2C15.3,25,21,21.4,18.1,15.6z"/>
	</g>
	<rect x="4" y="23.4" ng-class="{ '{{$ctrl.id}}': true}" width="14" height="5.5"/>
	<rect x="6.6" y="4.5" ng-class="{ '{{$ctrl.id}}': true}" width="8.8" height="1.2"/>
	<g>
		<rect x="8.4" y="5.2" ng-class="{ '{{$ctrl.id}}': true}" width="1" height="18.3"/>
		<rect x="10.5" y="5.2" ng-class="{ '{{$ctrl.id}}': true}" width="1" height="18.3"/>
		<rect x="12.6" y="5.2" ng-class="{ '{{$ctrl.id}}': true}" width="1" height="18.3"/>
	</g>
	<rect x="2.5" y="28.2" ng-class="{ '{{$ctrl.id}}': true}" width="17" height="1.8"/>
</g>
</svg>
