<?xml version="1.0" encoding="utf-8"?>
<!-- Generator: Adobe Illustrator 19.0.0, SVG Export Plug-In . SVG Version: 6.00 Build 0)  -->
<svg version="1.1" id="Icons" xmlns="http://www.w3.org/2000/svg" xmlns:xlink="http://www.w3.org/1999/xlink" x="0px" y="0px"
	 viewBox="0 0 29.8 30" style="enable-background:new 0 0 29.8 30;" xml:space="preserve">
<style type="text/css">
	.{{$ctrl.id}}{fill:{{$ctrl.fill}};}
</style>
<g>
	<path ng-class="{ '{{$ctrl.id}}': true}" d="M28.3,22.2c-4-1.7-4.4-4.1-4.4-4.1c1.6,0.7,3.1,0.9,4.1,1c-0.3-3.4-0.5-6.2-0.5-6.2c-4.2,6.7-7.2,4.7-7.8,4.3
		c0,0-0.1-0.1-0.1-0.1h0c-0.5-0.5-1.3-0.8-2-0.8c-1.7,0-3.1,1.4-3.1,3.1c0,1.5,1.1,2.8,2.6,3.1l4.6,1.1c1,4.2,8,6.4,8,6.4
		C29.2,29.7,28.7,26,28.3,22.2z"/>
	<path ng-class="{ '{{$ctrl.id}}': true}" d="M21.2,24.2l-4.2-1c-1.8-0.3-3.1-1.9-3.1-3.7c0-2.1,1.7-3.8,3.8-3.8c0.9,0,1.8,0.3,2.5,0.9c0,0,0.1,0.1,0.1,0.1
		c0.2,0.1,0.6,0.5,1.4,0.5c0,0,0,0,0,0c1.1,0,3-0.8,5.4-4.6l0,0c-1.4-3.5-4.8-6-8.9-6c-5.3,0-9.5,4.3-9.5,9.5c0,0.3,0,0.6,0,0.9
		c0,0.5,0.9,10.8-2.5,12.8c0,0,9.3,1.2,13.1-4.1c0,0,0,0,0-0.1c0.8-0.1,1.6-0.3,2.3-0.6C21.4,24.7,21.3,24.4,21.2,24.2z"/>
	<path ng-class="{ '{{$ctrl.id}}': true}" d="M8,22.7c0.2-2.8,0-5.4,0-5.7c0-0.3,0-0.6,0-0.9c0-5.6,4.6-10.2,10.2-10.2c2.1,0,4.1,0.6,5.8,1.8
		c0.4,0.3,0.8,0.6,1.1,0.9l2.5-3.6C25.1,1.9,21.2,0,16.8,0C9.4,0,3.5,5.3,3.5,11.9c0,0.4,0,0.7,0.1,1.1C3.6,13.6,4.8,26.5,0,29
		c0,0,2.5-1.1,5.8-1.4C6.9,26.9,7.7,26.1,8,22.7z"/>
</g>
</svg>
