<?xml version="1.0" encoding="utf-8"?>
<!-- Generator: Adobe Illustrator 19.0.0, SVG Export Plug-In . SVG Version: 6.00 Build 0)  -->
<svg version="1.1" id="Layer_1" xmlns="http://www.w3.org/2000/svg" xmlns:xlink="http://www.w3.org/1999/xlink" x="0px" y="0px"
	 viewBox="0 0 25.6 30" style="enable-background:new 0 0 25.6 30;" xml:space="preserve">
<style type="text/css">
	.{{$ctrl.id}}{fill:{{$ctrl.fill}};}
</style>
<g>
	<path ng-class="{ '{{$ctrl.id}}': true}" d="M25.6,3.3C22.8,1.1,19.4,0,15.9,0C7.1,0,0,7.1,0,15.9c0,2,0.4,3.9,1.1,5.8c0.1,0.1,0.2,0.1,0.2,0.1
		c0.2,0,6.4-2.5,6.4-2.5c0.1,0,0.1-0.1,0.1-0.2c-0.4-1-0.6-2.1-0.6-3.1c0-4.8,3.9-8.7,8.7-8.7c1.9,0,3.7,0.6,5.3,1.8
		c0,0,0.1,0,0.1,0c0,0,0.1,0,0.1-0.1l4.2-5.4c0,0,0-0.1,0-0.1C25.6,3.4,25.6,3.3,25.6,3.3L25.6,3.3z M25.6,3.3"/>
	<path ng-class="{ '{{$ctrl.id}}': true}" d="M14.3,8.2c0,0-0.1-0.1-0.2,0c-1.7,0.4-3.3,1.4-4.4,2.8c0,0.1,0,0.1,0,0.2c0,0.1,0.1,0.1,0.1,0.1
		c0.6,0.1,1.1,0.4,1.7,0.7c0,0,0.1,0,0.1,0c0,0,0.1,0,0.1,0c0.8-0.7,1.6-1.2,2.6-1.6c0.1,0,0.1-0.1,0.1-0.2
		c-0.1-0.7-0.1-1.3-0.1-1.8C14.3,8.3,14.3,8.3,14.3,8.2L14.3,8.2z M14.3,8.2"/>
	<path ng-class="{ '{{$ctrl.id}}': true}" d="M17.6,10.6c-4.3,0-7.8,3.2-7.8,7c0,1.7,0.4,3.4,1.1,4.6c0.6,1.2-0.6,2.4-1.5,3.5c-0.7,0.7-1.2,1.3-1.1,1.7
		c0,0.2,0.2,0.4,0.5,0.5C9,28,9.4,28.1,9.9,28.1c1.2,0,2.4-0.5,3.2-1.4c1-1.1,1.4-2.6,1.2-4.6c0-0.5,0-0.9,0.3-1.2
		c0.1-0.1,0.3-0.2,0.5-0.2c0.8,0,2.2,1.4,2.5,5.4c0.2,2.6,2.6,3.9,6.9,3.9c0,0,0.4,0,0.4-0.2c0.1-0.3-0.3-0.6-1.2-1.4
		c-0.9-0.7-2.2-1.9-2.1-2.5c0-0.2,0.1-0.3,0.3-0.4c0.7-0.4,1.1-0.8,1.1-1.3c0.1-0.4-0.1-0.7-0.4-1.1c-0.2-0.2-0.7-0.5-1.2-0.9
		c-0.9-0.6-2.4-1.6-2.5-2.1h6.4c0,0,0.1,0,0.1-0.1c0,0,0.1-0.1,0.1-0.1v-2.3C25.4,13.7,21.9,10.6,17.6,10.6L17.6,10.6z M14.5,19.2
		c-0.5,0-1-0.4-1-1c0-0.5,0.4-1,1-1c0.5,0,1,0.4,1,1C15.4,18.8,15,19.2,14.5,19.2L14.5,19.2z M23,19h-5.6c-0.4,0-0.8-0.3-0.8-0.8
		c0-0.4,0.4-0.8,0.8-0.8H23c0.4,0,0.8,0.3,0.8,0.8C23.8,18.7,23.5,19,23,19L23,19z M23,19"/>
</g>
</svg>
