<?xml version="1.0" encoding="utf-8"?>
<!-- Generator: Adobe Illustrator 19.0.0, SVG Export Plug-In . SVG Version: 6.00 Build 0)  -->
<svg version="1.1" id="Layer_1" xmlns="http://www.w3.org/2000/svg" xmlns:xlink="http://www.w3.org/1999/xlink" x="0px" y="0px"
	 viewBox="0 0 31.7 30" style="enable-background:new 0 0 31.7 30;" xml:space="preserve">
<style type="text/css">
	.{{$ctrl.id}}{fill:{{$ctrl.fill}};}
</style>
<path ng-class="{ '{{$ctrl.id}}': true}" d="M31.7,21.8l-1.5-0.5c-2-0.6-4.3-1.6-6.1-3.6l-0.5-0.6c0-0.4-0.1-0.8-0.3-1.1l-0.2-0.4c0.1-0.4,0.1-0.8,0.1-1.2
	c0.2-0.2,0.4-0.3,0.7-0.5c1.7-1.3,3.5-2.5,5.1-3.6c1.1-0.8,1.7-2.3,1.7-4.3c0-1.8-0.5-3.7-1.4-5.1c-0.2-0.2-0.4-0.4-0.7-0.5
	c-0.2,0-0.4,0-0.6,0L28,0.3l-0.4,0.5c-0.2,0.3-0.5,0.6-0.8,0.9c-0.6-0.5-1.2-0.9-1.9-1.2C23.8,0,22.5-0.1,21,0.1
	c-0.1,0-0.2,0-0.3,0.1l-0.1-0.1l-0.3,0.5c-1.4,2.1-2.9,3.9-4.7,5.7c-0.6,0-1.1,0.1-1.5,0.2l-0.1,0l-0.1,0.1c-0.5,0.5-1.1,1-1.7,1.5
	c-0.6,0.5-1.2,1.1-1.7,1.5c-0.3,0.3-0.3,0.8-0.3,1.2c-2.2,1.6-4.7,3.1-7.7,4.7c-1.2,0.6-2,1.7-2.3,3.2c-0.3,1.3-0.2,3,0.3,4.6
	l0.5-0.1l0,0l-0.4,0.2C1,25,2.1,26.7,3.5,27.7c1.6,1.2,3.4,1.6,5,1.2l0.1,0c0.3-0.1,0.6-0.2,0.9-0.4c0.2-0.2,0.5-0.4,0.6-0.5
	c0,0,0.1-0.1,0.1-0.1c0.1-0.1,0.2-0.2,0.2-0.3c1.5-1.9,2.8-3.5,4.1-4.9c1.2-1.4,2.4-2.6,3.6-3.8c0.4,0.1,0.9,0.1,1.3,0l0,0
	c-0.4,4.3,0.1,6.7,2.3,10.1l0.7,1l0.6-3.2l3.2,1l-0.9-1.2c-1.4-1.8-2.3-3.4-2.7-5.7c1.8,2.2,4,3.4,6.2,4.3l1.1,0.5l-1.3-2.9
	L31.7,21.8z M25.4,3.4c-1.6,1.8-3.1,3.4-4.7,4.9c-0.7-0.6-1.5-1.1-2.4-1.5c1.3-1.4,2.5-2.9,3.7-4.5c0.8-0.1,1.6,0,2.2,0.3
	C24.6,2.7,25,3,25.4,3.4z M22.8,11.9c-0.2-0.6-0.5-1.2-0.8-1.8c1.9-1.8,3.8-3.7,5.6-5.9c0,0,0.1-0.1,0.1-0.1
	c0.2-0.2,0.3-0.4,0.4-0.5c0.2,0.8,0.4,1.6,0.4,2.4c0,1.2-0.3,2.1-0.8,2.5C26.1,9.5,24.5,10.6,22.8,11.9z M2.4,19.2
	c0.2-0.8,0.5-1.3,1.1-1.6c0,0,0.1,0,0.1,0c0.5-0.1,0.9,0.1,1.4,0.6c0.2,0.2,0.5,0.5,0.7,0.9l-2.4,1.7c-0.4,0.2-0.6,0.7-0.5,1.1
	c0.1,0.9,0.6,1.8,1.2,2.4l0.3,0.3l0,0c0.6,0.5,1.3,0.7,2,0.6c0,0,0.1,0,0.1,0c0,0,0,0,0.1,0l0.1,0C7.1,25,7.7,24.6,8.1,24
	c0.1-0.1,0.1-0.1,0.2-0.2c0.4-0.5,0.8-0.8,1.2-1.1c0,0.6,0,1.1-0.1,1.6c-0.1,0.7-0.4,1.3-0.6,1.7l-0.3,0.3c-0.1,0.1-0.2,0.2-0.3,0.2
	c-0.1,0.1-0.2,0.1-0.3,0.1c-0.9,0.3-2,0-3-0.8c-1.1-0.8-1.9-2-2.2-3.1l-0.5,0.1l0.5-0.2C2.2,21.4,2.1,20.2,2.4,19.2z M6.4,24.6
	L6.4,24.6L6.4,24.6L6.4,24.6z M6.4,22.5c0,0,0,0.1-0.1,0.1c-0.1,0.2-0.2,0.2-0.3,0.3c-0.1,0-0.3-0.1-0.4-0.2l-0.1-0.1
	c-0.1-0.1-0.3-0.3-0.4-0.5l1.3-0.9C6.5,21.7,6.5,22.2,6.4,22.5z M8.6,16.9c-0.5,0.3-0.8,1-0.5,1.5c0,0.1,0.1,0.1,0.1,0.1
	c0.3,0.5,0.6,1,0.8,1.6l0,0c-0.1,0.1-0.3,0.2-0.4,0.3c-0.1-0.3-0.2-0.7-0.3-1c-0.4-1.2-1-2.2-1.8-2.9c-0.1-0.1-0.3-0.3-0.4-0.4
	c3-1.7,5.6-3.5,7.8-5.2l0,0c0.8,0.3,1.6,0.8,2.3,1.2C13.7,14,11.2,15.5,8.6,16.9z M18.3,15.7c-0.3,0.3-0.6,0.5-0.9,0.8
	c-1.7,1.6-3.1,3.1-4.5,4.7c-0.4,0.4-0.8,0.9-1.2,1.3c0-0.9-0.2-1.8-0.4-2.6c-0.2-0.5-0.4-1-0.6-1.5c2.4-1.3,4.7-2.8,6.9-4.5
	C17.9,14.4,18.1,15,18.3,15.7z"/>
</svg>
