<?xml version="1.0" encoding="utf-8"?>
<!-- Generator: Adobe Illustrator 19.0.0, SVG Export Plug-In . SVG Version: 6.00 Build 0)  -->
<svg version="1.1" id="Icons" xmlns="http://www.w3.org/2000/svg" xmlns:xlink="http://www.w3.org/1999/xlink" x="0px" y="0px"
	 viewBox="0 0 22.1 30" style="enable-background:new 0 0 22.1 30;" xml:space="preserve">
<style type="text/css">
	.{{$ctrl.id}}{fill:{{$ctrl.fill}};}
</style>
<path ng-class="{ '{{$ctrl.id}}': true}" d="M20.7,3.2h0.8c0.4,0,0.6-0.3,0.6-0.7s-0.3-0.7-0.6-0.7h-0.8C20.5,0.8,19.9,0,19.1,0H3.4C2.6,0,2,0.8,1.8,1.8
	H1.2c-0.4,0-0.7,0.3-0.7,0.7s0.3,0.7,0.7,0.7h0.6C1.9,4.1,2.4,4.8,3.1,5c3.6,6.7-4.5,13.4-0.6,20c-0.6,0.2-1,0.9-1.2,1.7H0.7
	c-0.4,0-0.7,0.3-0.7,0.7c0,0.4,0.3,0.7,0.7,0.7h0.6C1.5,29.2,2.2,30,3,30h15.7c0.8,0,1.4-0.8,1.6-1.8h0.8c0.4,0,0.6-0.3,0.6-0.7
	c0-0.4-0.3-0.7-0.6-0.7h-0.8c-0.2-1.1-0.8-1.8-1.6-1.8c-3.8-6.6,4.2-13.3,0.6-19.9C20,4.9,20.6,4.2,20.7,3.2z M18.7,25.8
	c0.3,0,0.6,0.4,0.7,1h-0.5v1.4h0.5c-0.1,0.6-0.5,1-0.7,1h0c-0.4,0-0.8-0.7-0.8-1.7C17.8,26.5,18.3,25.8,18.7,25.8z M15.4,22.9
	c-3.8,0-7.5,0-11.3,0c-1.3-5.3,3.5-10.7,2.2-16c3.8,0,7.5,0,11.3,0C18.9,12.2,14.1,17.6,15.4,22.9z M19.8,3.2c-0.1,0.6-0.5,1-0.7,1
	h0c-0.4,0-0.8-0.7-0.8-1.7c0-0.9,0.4-1.7,0.8-1.7c0.3,0,0.6,0.4,0.7,1h-0.5v1.4H19.8z"/>
</svg>
