<?xml version="1.0" encoding="utf-8"?>
<!-- Generator: Adobe Illustrator 19.0.0, SVG Export Plug-In . SVG Version: 6.00 Build 0)  -->
<svg version="1.1" id="Layer_1" xmlns="http://www.w3.org/2000/svg" xmlns:xlink="http://www.w3.org/1999/xlink" x="0px" y="0px"
	 viewBox="0 0 31 30" style="enable-background:new 0 0 31 30;" xml:space="preserve">
<style type="text/css">
	.st0{fill-rule:evenodd;clip-rule:evenodd;fill:#FFFFFF;}
</style>
<path ng-class="{ '{{$ctrl.id}}': true}" d="M7.3,9.7h16.5c0,0,0-0.1,0-0.1v0l0-0.1l0,0c-0.1-0.8,0.2-1.5,0.6-2c0.4-0.6,1.1-0.9,1.8-1h0l0,0l0,0
	c0.7-0.1,1.4,0.2,1.9,0.6c0.5,0.4,0.9,1.1,0.9,1.8v0l0,0l0,0c0,0.5-0.1,0.9-0.4,1.3c-0.3,0.4-0.7,0.6-1.2,0.6h0l0,0l0,0
	c-0.5,0-0.9-0.1-1.2-0.4v0c-0.3-0.3-0.5-0.7-0.6-1.2v0l0,0l1.5-0.1l0,0h0c0,0.1,0,0.1,0.1,0.2l0,0c0,0,0.1,0.1,0.1,0v0l0,0v0
	c0.1,0,0.1,0,0.2-0.1c0-0.1,0.1-0.1,0.1-0.2h0l0,0h0c0-0.4-0.2-0.7-0.4-0.9c-0.2-0.2-0.5-0.3-0.8-0.3v0l0,0v0
	c-0.3,0-0.6,0.2-0.8,0.5c-0.2,0.3-0.3,0.6-0.3,1h0l0,0h0c0.1,0.6,0.4,1.2,0.8,1.5c0.4,0.4,0.9,0.6,1.5,0.5l0,0l0,0v0
	c0.6-0.1,1.1-0.4,1.5-0.8c0.4-0.5,0.6-1.1,0.5-1.7h0l0-0.1h0c-0.1-0.9-0.5-1.7-1.1-2.2c-0.6-0.5-1.4-0.8-2.2-0.7l0,0l-0.1,0l0,0H4.9
	l0,0l-0.1,0v0C4,5.8,3.2,6.1,2.6,6.6C2,7.2,1.6,7.9,1.5,8.8h0l0,0.1h0C1.4,9.6,1.6,10.2,2,10.6c0.4,0.5,0.9,0.8,1.5,0.8v0l0,0l0,0
	c0.6,0,1.1-0.1,1.5-0.5c0.4-0.4,0.7-0.9,0.8-1.5h0l0,0h0c0-0.4-0.1-0.7-0.3-1C5.3,8.1,5,8,4.7,7.9v0l0,0v0C4.4,7.9,4.1,8,3.9,8.2
	l0,0C3.6,8.4,3.5,8.7,3.4,9.1h0l0,0l0,0c0,0.1,0,0.2,0.1,0.2c0,0.1,0.1,0.1,0.2,0.1v0l0,0v0c0.1,0,0.1,0,0.1,0l0,0
	c0,0,0.1-0.1,0.1-0.2h0l0,0l1.5,0.1l0,0v0c0,0.5-0.3,0.9-0.6,1.2v0c-0.3,0.3-0.8,0.4-1.2,0.4l0,0l0,0h0c-0.5,0-0.9-0.3-1.2-0.6
	C2.1,9.9,1.9,9.5,1.9,9l0,0l0,0v0C2,8.2,2.4,7.5,2.9,7.1v0c0.5-0.5,1.2-0.7,1.9-0.6l0,0l0,0h0c0.7,0.1,1.4,0.5,1.8,1
	c0.4,0.5,0.7,1.3,0.6,2l0,0l0,0.1v0C7.3,9.6,7.3,9.7,7.3,9.7L7.3,9.7z M3.1,4.6L2,2.6V0h27.4v2.6l-1.2,2.1c0.5,0.2,0.9,0.5,1.2,0.8
	c0.9,0.8,1.5,1.9,1.6,3.2v0l0,0.1l0,0c0.1,1-0.2,2-0.8,2.8c-0.6,0.8-1.5,1.3-2.5,1.4h0l-0.1,0l0,0c-1,0.1-1.9-0.3-2.6-0.9
	c-0.1-0.1-0.2-0.2-0.2-0.2V25L22,25.6v-8.1c0-0.7-0.1-1.2-0.8-1.2l0,0c-0.7,0-0.9,0.4-0.9,1.2v8.8L17.3,27v-9.7
	c0-0.8-0.7-1.5-1.5-1.5l0,0c-0.8,0-1.5,0.7-1.5,1.5v10.6l-2.8,0.7V17.5c0-0.7-0.3-1.3-1-1.3l0,0c-0.7,0-0.9,0.5-0.9,1.3v11.7L6.5,30
	V11.5c-0.2,0.2-0.3,0.4-0.5,0.6c-0.7,0.6-1.6,1-2.6,0.9l0,0l-0.1,0h0c-1-0.1-1.9-0.6-2.5-1.4C0.2,10.8-0.1,9.8,0,8.8l0,0l0-0.1v0
	c0.1-1.3,0.7-2.4,1.6-3.2C2.1,5.1,2.6,4.8,3.1,4.6z"/>
</svg>
