<?xml version="1.0" encoding="utf-8"?>
<!-- Generator: Adobe Illustrator 19.0.0, SVG Export Plug-In . SVG Version: 6.00 Build 0)  -->
<svg version="1.1" id="Layer_1" xmlns="http://www.w3.org/2000/svg" xmlns:xlink="http://www.w3.org/1999/xlink" x="0px" y="0px"
	 viewBox="0 0 31.3 30" style="enable-background:new 0 0 31.3 30;" xml:space="preserve">
<style type="text/css">
	.{{$ctrl.id}}{fill:{{$ctrl.fill}};}
</style>
<g>
	<rect x="2.1" y="10.7" ng-class="{ '{{$ctrl.id}}': true}" width="3.5" height="13.7"/>
	<rect x="10" y="10.7" ng-class="{ '{{$ctrl.id}}': true}" width="3.5" height="13.7"/>
	<rect x="17.9" y="10.7" ng-class="{ '{{$ctrl.id}}': true}" width="3.5" height="13.7"/>
	<rect x="25.8" y="10.7" ng-class="{ '{{$ctrl.id}}': true}" width="3.5" height="13.7"/>
	<path ng-class="{ '{{$ctrl.id}}': true}" d="M30.7,6h-0.3V5.9c0-0.3-0.2-0.5-0.4-0.6L15.9,0C15.7,0,15.6,0,15.4,0L1.4,5.3C1.1,5.4,1,5.6,1,5.9V6H0.6
		C0.3,6,0,6.2,0,6.6v2.1C0,9,0.3,9.3,0.6,9.3h30.1c0.3,0,0.6-0.3,0.6-0.6V6.6C31.3,6.2,31,6,30.7,6L30.7,6z M30.7,6"/>
	<path ng-class="{ '{{$ctrl.id}}': true}" d="M30.7,25.9H0.6c-0.3,0-0.6,0.3-0.6,0.6v2.8C0,29.7,0.3,30,0.6,30h30.1c0.3,0,0.6-0.3,0.6-0.6v-2.8
		C31.3,26.2,31,25.9,30.7,25.9L30.7,25.9z M30.7,25.9"/>
</g>
</svg>
