<?xml version="1.0" encoding="utf-8"?>
<!-- Generator: Adobe Illustrator 19.0.0, SVG Export Plug-In . SVG Version: 6.00 Build 0)  -->
<svg version="1.1" id="Layer_1" xmlns="http://www.w3.org/2000/svg" xmlns:xlink="http://www.w3.org/1999/xlink" x="0px" y="0px"
	 viewBox="0 0 35.3 30" style="enable-background:new 0 0 35.3 30;" xml:space="preserve">
<style type="text/css">
	.{{$ctrl.id}}{fill:{{$ctrl.fill}};}
</style>
<g>
	<path ng-class="{ '{{$ctrl.id}}': true}" d="M7,13.4V30h4.5V11.9H9.8C9,12.6,8,13.1,7,13.4L7,13.4z"/>
	<path ng-class="{ '{{$ctrl.id}}': true}" d="M7,13.4"/>
	<path ng-class="{ '{{$ctrl.id}}': true}" d="M12.7,11.9V30H17V11.9L12.7,11.9L12.7,11.9z M12.7,11.9"/>
	<path ng-class="{ '{{$ctrl.id}}': true}" d="M23.8,11.9V30h4.5V13.4c-1.1-0.2-2-0.7-2.8-1.4H23.8z M23.8,11.9"/>
	<path ng-class="{ '{{$ctrl.id}}': true}" d="M28.7,0H6.5C2.9,0,0,2.9,0,6.5c0,3.1,2.5,5.7,5.7,5.7c1.4,0,2.8-0.6,3.7-1.7c0.7-0.8,1.2-1.9,1.2-3.1
		c0-1.8-1.4-3.2-3.1-3.2c-1.7,0-3.1,1.5-3.1,3.2H3.1c0-2.5,2-4.5,4.4-4.5c0.4,0,0.9,0.1,1.3,0.2c1.4,0.4,2.5,1.6,2.9,3
		c0.5,1.5,0.1,3.2-0.7,4.5h13.3c-0.8-1.3-1.1-3-0.7-4.5c0.4-1.4,1.5-2.5,2.9-3c0.4-0.1,0.8-0.2,1.3-0.2c2.4,0,4.4,2,4.4,4.5h-1.3
		c0-1.8-1.4-3.2-3.1-3.2c-1.7,0-3,1.4-3.1,3.2c0,1.2,0.5,2.3,1.2,3.1c0.9,1.1,2.3,1.7,3.7,1.7c3.1,0,5.7-2.5,5.7-5.7
		C35.3,2.9,32.3,0,28.7,0L28.7,0z M28.7,0"/>
	<path ng-class="{ '{{$ctrl.id}}': true}" d="M18.3,11.9V30h4.2V11.9L18.3,11.9L18.3,11.9z M18.3,11.9"/>
</g>
</svg>
