<?xml version="1.0" encoding="utf-8"?>
<!-- Generator: Adobe Illustrator 19.0.0, SVG Export Plug-In . SVG Version: 6.00 Build 0)  -->
<svg version="1.1" id="_x2014_ëîé_x5F_1" xmlns="http://www.w3.org/2000/svg" xmlns:xlink="http://www.w3.org/1999/xlink"
	 x="0px" y="0px" viewBox="0 0 52.2 30" style="enable-background:new 0 0 52.2 30;" xml:space="preserve">
<style type="text/css">
	.{{$ctrl.id}}{fill:{{$ctrl.fill}};}
</style>
<g>
	<g>
		<path ng-class="{ '{{$ctrl.id}}': true}" d="M50.8,30H32.7c-0.3,0-0.7-0.1-0.9-0.3l-5.7-4.8l-5.7,4.8c-0.3,0.2-0.6,0.3-0.9,0.3H1.5C0.7,30,0,29.3,0,28.5
			V11.6c0-0.8,0.7-1.5,1.5-1.5h49.3c0.8,0,1.5,0.7,1.5,1.5v16.9C52.2,29.3,51.6,30,50.8,30z M33.2,27.1h16.1v-14H2.9v14H19l6.2-5.3
			c0.5-0.5,1.3-0.5,1.9,0L33.2,27.1z"/>
	</g>
	<g>
		<path ng-class="{ '{{$ctrl.id}}': true}" d="M17.7,17.4V22H8.3v-4.6H17.7 M18.1,15.3H7.8c-0.9,0-1.7,0.7-1.7,1.7v5.4c0,0.9,0.7,1.7,1.7,1.7h10.2
			c0.9,0,1.7-0.7,1.7-1.7V17C19.8,16.1,19,15.3,18.1,15.3L18.1,15.3z"/>
	</g>
	<g>
		<path ng-class="{ '{{$ctrl.id}}': true}" d="M31.5,22.4c0,0.9,0.7,1.7,1.7,1.7h10.2c0.9,0,1.7-0.7,1.7-1.7V17c0-0.9-0.7-1.7-1.7-1.7H33.1
			c-0.9,0-1.7,0.7-1.7,1.7V22.4z"/>
	</g>
	<g>
		<path ng-class="{ '{{$ctrl.id}}': true}" d="M51.6,10.6c0,0-18.7-11.3-20.2-10.6c-1.5,0.7-2.7,4.2-2,5.3c0.7,1.1,2,2.7,4.1,0c2.1-2.7,3.4,5.8,3.4,6.3
			c0,0.5,0-0.5,0-0.5L51.6,11"/>
	</g>
	<g>
		<path ng-class="{ '{{$ctrl.id}}': true}" d="M0.6,10.6c0,0,18.7-11.3,20.2-10.6s2.7,4.2,2,5.3c-0.7,1.1-2,2.7-4.1,0c-2.1-2.7-3.4,5.8-3.4,6.3
			c0,0.5,0-0.5,0-0.5L0.6,11"/>
	</g>
</g>
</svg>
