<?xml version="1.0" encoding="utf-8"?>
<!-- Generator: Adobe Illustrator 19.0.0, SVG Export Plug-In . SVG Version: 6.00 Build 0)  -->
<svg version="1.1" id="Layer_1" xmlns="http://www.w3.org/2000/svg" xmlns:xlink="http://www.w3.org/1999/xlink" x="0px" y="0px"
	 viewBox="0 0 34.3 30" style="enable-background:new 0 0 34.3 30;" xml:space="preserve">
<style type="text/css">
	.st0{fill-rule:evenodd;clip-rule:evenodd;fill:#FFFFFF;}
</style>
<g>
	<path ng-class="{ '{{$ctrl.id}}': true}" d="M32.1,12.9l-6.4,4.3c0-1.3-0.6-2.5-1.5-3.2c2.2-1.3,3.7-3.7,3.7-6.4c0-4.1-3.4-7.5-7.5-7.5
		c-4.1,0-7.5,3.4-7.5,7.5c0,2.1,0.9,4,2.3,5.4h-3.9c1-1.1,1.7-2.6,1.7-4.3c0-3.5-2.9-6.4-6.4-6.4C2.9,2.1,0,5,0,8.6
		c0,1.9,0.9,3.7,2.2,4.8C0.9,14.1,0,15.5,0,17.1v8.6C0,28.1,1.9,30,4.3,30h17.1c2.4,0,4.3-1.9,4.3-4.3l6.4,4.3c1.2,0,2.1-1,2.1-2.1
		V15C34.3,13.8,33.3,12.9,32.1,12.9L32.1,12.9z M6.4,12.9c-2.4,0-4.3-1.9-4.3-4.3c0-2.4,1.9-4.3,4.3-4.3c2.4,0,4.3,1.9,4.3,4.3
		C10.7,10.9,8.8,12.9,6.4,12.9L6.4,12.9z M20.4,12.9c-3,0-5.4-2.4-5.4-5.4c0-3,2.4-5.4,5.4-5.4c3,0,5.4,2.4,5.4,5.4
		C25.7,10.5,23.3,12.9,20.4,12.9L20.4,12.9z M20.4,12.9"/>
</g>
</svg>
