<?xml version="1.0" encoding="utf-8"?>
<!-- Generator: Adobe Illustrator 19.0.0, SVG Export Plug-In . SVG Version: 6.00 Build 0)  -->
<svg version="1.1" id="Layer_1" xmlns="http://www.w3.org/2000/svg" xmlns:xlink="http://www.w3.org/1999/xlink" x="0px" y="0px"
	 viewBox="0 0 28.6 30" style="enable-background:new 0 0 28.6 30;" xml:space="preserve">
<style type="text/css">
	.{{$ctrl.id}}{fill:{{$ctrl.fill}};}
</style>
<g>
	<g>
		<path ng-class="{ '{{$ctrl.id}}': true}" d="M5.7,12.7c-0.1-0.5-0.2-0.9-0.5-1.2l21.9-7.3L26,0.7c-0.2-0.5-0.7-0.8-1.2-0.6L1,8C0.5,8.2,0.2,8.7,0.4,9.2
			l0.6,1.7C0.4,11.4,0,12.2,0,13c0,1.1,0.6,2,1.5,2.5V29c0,0.5,0.4,1,1,1h25.2c0.5,0,1-0.4,1-1V12.7H5.7z M19.7,2.9l2.9-1l-0.7,2.8
			l-2.9,1L19.7,2.9z M12.5,5.3l2.9-1l-0.7,2.8l-2.9,1L12.5,5.3z M2.9,14.5c-0.8,0-1.5-0.7-1.5-1.5c0-0.8,0.7-1.5,1.5-1.5
			c0.8,0,1.5,0.7,1.5,1.5C4.3,13.8,3.7,14.5,2.9,14.5L2.9,14.5z M5.3,7.7l2.9-1L7.5,9.5l-2.9,1L5.3,7.7z M8.2,15.9H5.1l1.6-2.5h3.1
			L8.2,15.9z M14.3,13.5h3.1l-1.6,2.5h-3.1L14.3,13.5z M13.5,25.3v-6.5l5.2,3.2L13.5,25.3z M23.3,15.9h-3.1l1.6-2.5h3.1L23.3,15.9z
			 M23.3,15.9"/>
	</g>
</g>
</svg>
