<?xml version="1.0" encoding="utf-8"?>
<!-- Generator: Adobe Illustrator 19.0.0, SVG Export Plug-In . SVG Version: 6.00 Build 0)  -->
<svg version="1.1" id="Layer_1" xmlns="http://www.w3.org/2000/svg" xmlns:xlink="http://www.w3.org/1999/xlink" x="0px" y="0px"
	 viewBox="0 0 24.7 30" style="enable-background:new 0 0 24.7 30;" xml:space="preserve">
<style type="text/css">
	.{{$ctrl.id}}{fill:{{$ctrl.fill}};}
</style>
<g>
	<g>
		<path ng-class="{ '{{$ctrl.id}}': true}" d="M24.6,13.4l-2.7-3.7V5.1c0,0,0-0.1,0-0.1V1c0-0.6-0.4-1-1-1c-0.6,0-1,0.4-1,1v0.4h0V2H4.8V1.4h0V1
			c0-0.6-0.4-1-1-1c-0.6,0-1,0.4-1,1v4c0,0,0,0,0,0v4.6l-2.7,3.7C0,13.5,0,13.7,0,13.8v5.3c0,0.4,0.3,0.7,0.7,0.7h1.8
			c0,0,0.1,0,0.1,0.1l7.5,4l-7.5,4c-0.5,0.3-0.7,0.9-0.4,1.4C2.4,29.8,2.8,30,3.1,30c0.2,0,0.3,0,0.5-0.1l8.8-4.7l8.8,4.7
			c0.2,0.1,0.3,0.1,0.5,0.1c0.4,0,0.7-0.2,0.9-0.5c0.3-0.5,0.1-1.1-0.4-1.4l-7.5-4l7.5-4c0,0,0.1,0,0.1-0.1H24
			c0.4,0,0.7-0.3,0.7-0.7v-5.3C24.7,13.7,24.7,13.5,24.6,13.4L24.6,13.4z M2.8,13.8l-1.2,4.6H1.5v-4.4l1.3-1.8V13.8z M12.4,22.8
			l-6.7-3.6H19L12.4,22.8z M20,10.4H4.7v-3H20V10.4z M23.2,18.4L23.2,18.4l-1.3-4.6v-1.6l1.3,1.8V18.4z M23.2,18.4"/>
	</g>
</g>
</svg>
