<?xml version="1.0" encoding="utf-8"?>
<!-- Generator: Adobe Illustrator 19.0.0, SVG Export Plug-In . SVG Version: 6.00 Build 0)  -->
<svg version="1.1" id="Layer_1" xmlns="http://www.w3.org/2000/svg" xmlns:xlink="http://www.w3.org/1999/xlink" x="0px" y="0px"
	 viewBox="0 0 47.1 30" style="enable-background:new 0 0 47.1 30;" xml:space="preserve">
<style type="text/css">
	.{{$ctrl.id}}{fill:{{$ctrl.fill}};}
</style>
<g>
	<g>
		<path ng-class="{ '{{$ctrl.id}}': true}" d="M25.1,11.3C24.6,5.8,22.5,1,22.4,0.8c-0.2-0.4-0.6-0.7-1.1-0.8c-0.5-0.1-0.9,0.1-1.3,0.4
			c-2.9,3.1-5.6,4.9-8.4,5.7C8.8,6.9,5.7,6.7,1.8,5.4c-0.5-0.1-1,0-1.3,0.3C0.1,6,0,6.4,0,6.9c0,0.2,0.6,5.3,2.9,10.4
			c3.2,7,8.2,10.3,14.3,9.7c0.1,0,0.2,0,0.2,0c0.1,0,0.1,0,0.2-0.1C23.3,24.3,25.9,18.9,25.1,11.3L25.1,11.3z M4.2,12.5
			c-0.1-1.2,1.4-2.2,3.3-2.3C9.3,10,10.9,10.8,11,12c0.1,1.2-1.4,1.6-3.3,1.7C5.8,13.8,4.3,13.6,4.2,12.5L4.2,12.5z M16.3,22.5
			c-3.5,0.9-6.8,0.1-7.3-1.9c0-0.1-0.1-0.3-0.1-0.4c1.7,0.7,4.2,0.8,6.8,0.1c2.6-0.7,4.7-2,5.8-3.5c0.1,0.1,0.1,0.3,0.2,0.4
			C22.1,19.1,19.7,21.5,16.3,22.5L16.3,22.5z M19.2,10.6c-1.7,0.8-3.2,1.3-3.7,0.2c-0.5-1,0.5-2.6,2.2-3.4c1.7-0.8,3.5-0.7,4,0.4
			C22.1,8.8,20.9,9.7,19.2,10.6L19.2,10.6z M19.2,10.6"/>
		<path ng-class="{ '{{$ctrl.id}}': true}" d="M46.9,12.8c-0.3-0.4-0.7-0.6-1.2-0.6c-4.3,0.1-7.4-0.5-10-2c-2.5-1.5-4.6-3.8-6.4-7.4C29,2.3,28.6,2.1,28.1,2
			c-0.5,0-0.9,0.2-1.2,0.5c-0.1,0.1-0.8,1-1.8,2.5c0.4,1.2,0.7,2.7,1,4.2c0.8-0.7,2.5-0.3,3.8,0.8c1.4,1.2,2,2.9,1.2,3.8
			c-0.8,0.9-2.1,0.1-3.5-1.1c-0.4-0.4-0.8-0.8-1.2-1.1c0.3,3.2,0.1,6-0.7,8.5c1.2,0.1,2.5,0.6,3.7,1.3c3.1,1.8,4.9,4.7,3.8,6.5
			c-0.1,0.1-0.2,0.2-0.3,0.4c-0.7-1.7-2.4-3.5-4.7-4.9c-1.1-0.6-2.2-1.1-3.3-1.4c-0.1,0.1-0.1,0.2-0.2,0.3c-0.7,1.4-1.5,2.7-2.6,3.7
			c0.7,1,1.6,2,2.6,2.8c0.1,0,0.1,0.1,0.2,0.1c0.1,0,0.1,0.1,0.2,0.1c5.8,2.2,11.4,0.2,16.3-5.8c3.5-4.3,5.4-9.1,5.5-9.3
			C47.2,13.7,47.1,13.2,46.9,12.8L46.9,12.8z M41.6,18.4c-0.4,1.1-1.9,0.9-3.7,0.3c-1.8-0.6-3.2-1.4-2.8-2.5
			c0.4-1.1,2.1-1.5,3.9-0.9C40.8,15.9,41.9,17.3,41.6,18.4L41.6,18.4z M41.6,18.4"/>
	</g>
</g>
</svg>
