<?xml version="1.0" encoding="utf-8"?>
<!-- Generator: Adobe Illustrator 19.0.0, SVG Export Plug-In . SVG Version: 6.00 Build 0)  -->
<svg version="1.1" id="Layer_1" xmlns="http://www.w3.org/2000/svg" xmlns:xlink="http://www.w3.org/1999/xlink" x="0px" y="0px"
	 viewBox="0 0 34.4 30" style="enable-background:new 0 0 34.4 30;" xml:space="preserve">
<style type="text/css">
	.{{$ctrl.id}}{fill:{{$ctrl.fill}};}
</style>
<g>
	<g>
		<path ng-class="{ '{{$ctrl.id}}': true}" d="M33.8,26.7c-2.6-1.6-5.3-1.9-7.6-1.7c2.3-2.6,3.7-6.1,3.7-9.9c0-8.3-6.7-15-15-15C6.7,0,0,6.7,0,15
			c0,8.3,6.7,15,15,15c2.1,0,4.2-0.5,6-1.3c0.1,0,0.5-0.2,0.6-0.3c1.7-0.8,6.5-2.6,11,0.1c0.5,0.3,1.2,0.2,1.6-0.4
			C34.5,27.7,34.4,27,33.8,26.7L33.8,26.7z M21.5,9.3c1.7-0.6,3.5,0.4,4.1,2.1c0.6,1.7-0.4,3.5-2.1,4.1c-1.7,0.6-3.5-0.4-4.1-2.1
			C18.8,11.7,19.8,9.9,21.5,9.3L21.5,9.3z M15,3.7c1.8,0,3.2,1.5,3.2,3.2c0,1.8-1.5,3.2-3.2,3.2c-1.8,0-3.2-1.5-3.2-3.2
			C11.8,5.2,13.2,3.7,15,3.7L15,3.7z M4.4,11.4C5,9.7,6.8,8.8,8.5,9.3c1.7,0.6,2.6,2.4,2.1,4.1c-0.6,1.7-2.4,2.6-4.1,2.1
			C4.8,14.9,3.9,13.1,4.4,11.4L4.4,11.4z M13,23.1c-1.1,1.4-3.1,1.8-4.5,0.7c-1.4-1.1-1.8-3.1-0.7-4.5c1.1-1.4,3.1-1.8,4.5-0.7
			C13.7,19.6,14.1,21.6,13,23.1L13,23.1z M15,16.3c-0.7,0-1.3-0.6-1.3-1.3c0-0.7,0.6-1.3,1.3-1.3c0.7,0,1.3,0.6,1.3,1.3
			C16.3,15.7,15.7,16.3,15,16.3L15,16.3z M17,23.1c-1.1-1.4-0.7-3.5,0.7-4.5c1.4-1.1,3.5-0.7,4.5,0.7c1.1,1.4,0.7,3.5-0.7,4.5
			C20.1,24.8,18,24.5,17,23.1L17,23.1z M17,23.1"/>
	</g>
</g>
</svg>
