<?xml version="1.0" encoding="utf-8"?>
<!-- Generator: Adobe Illustrator 19.0.0, SVG Export Plug-In . SVG Version: 6.00 Build 0)  -->
<svg version="1.1" id="Layer_1" xmlns="http://www.w3.org/2000/svg" xmlns:xlink="http://www.w3.org/1999/xlink" x="0px" y="0px"
	 viewBox="0 0 11.4 30" style="enable-background:new 0 0 11.4 30;" xml:space="preserve">
<style type="text/css">
	.{{$ctrl.id}}{fill:{{$ctrl.fill}};}
</style>
<g>
	<g>
		<path ng-class="{ '{{$ctrl.id}}': true}" d="M10.6,28.5H10v-3.3h0.2c0.2,0,0.3-0.2,0.3-0.3c0-0.2-0.2-0.3-0.3-0.3H10v-1.3H7.4c-0.2,0-0.2-0.1-0.3-0.3
			C7,22.2,7,21.6,7.2,20.9c0.3-0.8,0.4-1.7,0.2-2.7c0-0.1,0-0.1,0-0.2c-0.1-0.6-0.1-1.1,0-1.6c0.3-1.2,0.6-2.7,0.4-4.2
			c0-0.4-0.1-0.8-0.1-1.1c0-0.1,0-0.2,0-0.3c0-0.1,0-0.1,0-0.1c0.8-0.4,1-1.1,1.1-1.7c0-0.2,0.1-0.4,0.1-0.6C9,8.2,9,8,9.1,7.7
			c0.2-0.6,0.2-1.5,0.1-2.3c-0.1-0.5-0.4-0.9-0.8-1C8.2,4.3,6.7,3.9,6.8,3.3C6.9,2.8,7.2,2,7.2,1.4C7.2,0.9,7,0.1,5.7,0l0,0l0,0
			C4.3,0.1,4.2,0.9,4.2,1.4c0,0.6,0.3,1.4,0.4,1.9c0.1,0.6-1.4,1-1.7,1.1c-0.4,0.2-0.7,0.5-0.8,1C2.1,6.2,2.1,7.1,2.3,7.7
			C2.4,8,2.4,8.2,2.4,8.5c0,0.2,0,0.4,0.1,0.6c0.1,0.5,0.3,1.3,1.1,1.7c0,0,0,0.1,0,0.1l0,0.3c0,0.4,0,0.8-0.1,1.1
			c-0.1,1.5,0.2,2.9,0.4,4.2c0.1,0.5,0,1.1,0,1.6c0,0.1,0,0.1,0,0.2c-0.1,1,0,1.9,0.2,2.7c0.2,0.6,0.3,1.3,0.1,1.9
			c-0.1,0.2-0.1,0.3-0.3,0.3H1.3v1.3c-0.2,0-0.3,0.2-0.3,0.3c0,0.2,0.1,0.3,0.3,0.3v3.4H0.8c-0.4,0-0.8,0.3-0.8,0.8
			C0,29.7,0.3,30,0.8,30h9.9c0.4,0,0.8-0.3,0.8-0.8C11.4,28.8,11,28.5,10.6,28.5L10.6,28.5z M9.1,27.2H2.3v-1.7h6.8V27.2z M9.1,27.2
			"/>
	</g>
</g>
</svg>
