<?xml version="1.0" encoding="utf-8"?>
<!-- Generator: Adobe Illustrator 19.0.0, SVG Export Plug-In . SVG Version: 6.00 Build 0)  -->
<svg version="1.1" id="Layer_1" xmlns="http://www.w3.org/2000/svg" xmlns:xlink="http://www.w3.org/1999/xlink" x="0px" y="0px"
	 viewBox="-25.7 1.2 19.5 29.8" style="enable-background:new -25.7 1.2 19.5 29.8;" xml:space="preserve">
<style type="text/css">
	.{{$ctrl.id}}{fill:{{$ctrl.fill}};}
</style>
<g>
	<g>
		<path ng-class="{ '{{$ctrl.id}}': true}" d="M-19.1,5.8c0.2-0.1,0.4-0.2,0.6-0.2c0-0.2,0-0.3,0-0.5c0-1,0.6-1.9,1.4-2.4c-0.3-0.6-1-1.1-1.7-1.1
			c-1.1,0-1.9,0.9-1.9,1.9c0,0.1,0,0.1,0,0.2l0,0c-0.4,0-0.7,0.1-1,0.3C-20.5,4.1-19.5,4.8-19.1,5.8L-19.1,5.8z"/>
		<path ng-class="{ '{{$ctrl.id}}': true}" d="M-17.4,5.5c0.1,0,0.3,0,0.4,0c0.6-0.6,1.4-0.9,2.2-0.9c0.6,0,1.1,0.2,1.6,0.5c0.2,0.1,0.4,0.3,0.6,0.5
			c0.3-0.6,0.8-1.1,1.5-1.4C-11.3,4-11.6,3.8-12,3.8c0.1-0.2,0.1-0.4,0.1-0.6c0-1.1-0.8-2-1.9-2s-1.9,0.9-1.9,1.9c0,0.1,0,0.1,0,0.2
			l0,0c-1,0-1.8,0.8-1.8,1.8C-17.5,5.2-17.5,5.4-17.4,5.5L-17.4,5.5z"/>
		<path ng-class="{ '{{$ctrl.id}}': true}" d="M-11.9,6.8c0,0.1,0.1,0.2,0.1,0.3c0.2,0.8,0,1.6-0.4,2.3c0,0,0,0,0,0.1c0.4,0.7,0.4,1.5,0.3,2.2
			c0.2,0.1,0.4,0.1,0.7,0.1c1,0,1.8-0.6,2-1.5c0.3,0.3,0.7,0.5,1.2,0.5c1,0,1.8-0.8,1.8-1.8S-7,7.2-8,7.2l0,0C-8,7.1-8,7.1-8,7
			c0-1.1-0.9-1.9-1.9-1.9C-11,5-11.8,5.8-11.9,6.8L-11.9,6.8z"/>
		<path ng-class="{ '{{$ctrl.id}}': true}" d="M-23.8,10.7c0.5,0,0.9-0.2,1.2-0.5c0.3,0.9,1.1,1.5,2,1.5c0.6,0,1.2-0.3,1.6-0.7c-0.1,0-0.2-0.1-0.3-0.2
			c-1.3-0.8-1.8-2.6-0.9-3.9c0.1-0.1,0.2-0.2,0.2-0.3C-20.1,5.7-20.9,5-21.9,5c-1.1,0-1.9,0.9-1.9,1.9c0,0.1,0,0.1,0,0.2l0,0
			c-1,0-1.8,0.8-1.8,1.8S-24.8,10.7-23.8,10.7L-23.8,10.7z"/>
		<path ng-class="{ '{{$ctrl.id}}': true}" d="M-13.7,5.9c-0.3-0.2-0.7-0.3-1.1-0.3c-0.7,0-1.4,0.3-1.8,1c0,0.1-0.1,0.1-0.1,0.2l0,0c-0.3-0.2-0.7-0.3-1-0.3
			c-0.6,0-1.3,0.3-1.6,0.9c-0.6,0.9-0.4,2.1,0.6,2.6c0.3,0.2,0.6,0.3,1,0.3c0.1,0,0.2,0,0.3,0c-0.3,1,0.1,2,1,2.6
			c0.4,0.2,0.8,0.4,1.2,0.4c0.8,0,1.5-0.4,2-1.1c0.6-0.9,0.4-2.1-0.3-2.8c0.2-0.1,0.3-0.3,0.5-0.5C-12.5,7.8-12.8,6.5-13.7,5.9
			L-13.7,5.9z"/>
	</g>
	<path ng-class="{ '{{$ctrl.id}}': true}" d="M-6.8,11.3c-0.4,0.2-0.8,0.3-1.2,0.3c-0.3,0-0.5,0-0.8-0.1c-0.6,0.7-1.5,1.2-2.4,1.2c-0.4,0-0.7-0.1-1-0.2
		c0,0,0,0.1-0.1,0.1c-0.5,0.8-1.3,1.3-2.2,1.5l-0.8,14h-1.1l-0.9-14.7c-0.5-0.4-0.8-1-1-1.6c-0.6,0.6-1.4,0.9-2.2,0.9
		c-1,0-1.9-0.4-2.4-1.2c-0.3,0.1-0.5,0.1-0.8,0.1c-0.5,0-0.9-0.1-1.3-0.3c-0.5,0.6-0.7,1.4-0.6,2.2l1.7,14.9
		c0.2,1.5,1.4,2.6,2.9,2.6h10.3c1.5,0,2.8-1.1,2.9-2.6l1.7-14.9C-6.1,12.7-6.3,12-6.8,11.3L-6.8,11.3z M-21,28.1l-1.7-14.9h2.4
		l0.9,14.9H-21z M-10.8,28.1h-1.5l0.8-14.9h2.3L-10.8,28.1z"/>
</g>
</svg>
