<?xml version="1.0" encoding="utf-8"?>
<!-- Generator: Adobe Illustrator 19.0.0, SVG Export Plug-In . SVG Version: 6.00 Build 0)  -->
<svg version="1.1" id="icons" xmlns="http://www.w3.org/2000/svg" xmlns:xlink="http://www.w3.org/1999/xlink" x="0px" y="0px"
	 viewBox="0 0 30 30" style="enable-background:new 0 0 30 30;" xml:space="preserve">
<style type="text/css">
	.{{$ctrl.id}}{fill:{{$ctrl.fill}};}
</style>
<g>
	<path ng-class="{ '{{$ctrl.id}}': true}" d="M27.9,24.6V11.8c0-1.2-1-2.1-2.1-2.1h-2.1v2.1v2.1v10.7L21.4,30H30L27.9,24.6z"/>
	<path ng-class="{ '{{$ctrl.id}}': true}" d="M6.4,13.9v-2.1V9.6H4.3c-1.2,0-2.1,1-2.1,2.1v12.9L0,30h8.6l-2.1-5.4V13.9z"/>
	<path ng-class="{ '{{$ctrl.id}}': true}" d="M22.5,8.6L22.5,8.6l0-1.1C22.5,3.4,19.1,0,15,0c-4.1,0-7.5,3.4-7.5,7.5v1.1h0H22.5z M19.3,5.4
		c0.6,0,1.1,0.5,1.1,1.1s-0.5,1.1-1.1,1.1c-0.6,0-1.1-0.5-1.1-1.1S18.7,5.4,19.3,5.4z M15,1.6c1.2,0,2.1,1,2.1,2.1s-1,2.1-2.1,2.1
		c-1.2,0-2.1-1-2.1-2.1S13.8,1.6,15,1.6z"/>
	<path ng-class="{ '{{$ctrl.id}}': true}" d="M22.5,9.6h-15v15l2.1,2.1h10.7l2.1-2.1V9.6z M18.2,18.2h-6.4c-0.6,0-1.1-0.5-1.1-1.1s0.5-1.1,1.1-1.1h6.4
		c0.6,0,1.1,0.5,1.1,1.1S18.8,18.2,18.2,18.2z M18.2,13.9h-6.4c-0.6,0-1.1-0.5-1.1-1.1c0-0.6,0.5-1.1,1.1-1.1h6.4
		c0.6,0,1.1,0.5,1.1,1.1C19.3,13.4,18.8,13.9,18.2,13.9z"/>
</g>
</svg>
