<?xml version="1.0" encoding="utf-8"?>
<!-- Generator: Adobe Illustrator 19.0.0, SVG Export Plug-In . SVG Version: 6.00 Build 0)  -->
<svg version="1.1" id="icons" xmlns="http://www.w3.org/2000/svg" xmlns:xlink="http://www.w3.org/1999/xlink" x="0px" y="0px"
	 viewBox="0 0 30 30" style="enable-background:new 0 0 30 30;" xml:space="preserve">
<style type="text/css">
	.{{$ctrl.id}}{fill:{{$ctrl.fill}};}
</style>
<path ng-class="{ '{{$ctrl.id}}': true}" d="M25.7,12.4V8.6c0-4.7-3.9-8.6-8.6-8.6h-4.3C8.1,0,4.3,3.9,4.3,8.6v3.9L0,23.6C0,25.7,6.7,30,15,30
	c8.3,0,15-4.3,15-6.4L25.7,12.4z M8.6,26.5c-0.4,0-0.8-0.4-0.8-0.8c0-0.4,0.4-0.8,0.8-0.8c0.4,0,0.8,0.4,0.8,0.8
	C9.4,26.2,9,26.5,8.6,26.5z M7.5,15c0-0.6,0.3-1.5,0.7-1.9c0,0,1-1.3,3.1-1.3c1.1,0,1.8,0.5,1.8,0.5c0.5,0.3,0.9,1.1,0.9,1.7v1.6
	c0,0.3-0.5,0.5-1.1,0.5H8.6C8,16.1,7.5,15.6,7.5,15z M11.8,25.7h-1.1v-2.1l1.1-1.1V25.7z M14.5,25.7h-1.6v-4.3h1.6V25.7z M13.4,20.4
	v-1.6c0-0.9,0.7-1.6,1.6-1.6c0.9,0,1.6,0.7,1.6,1.6v1.6H13.4z M17.1,25.7h-1.6v-4.3h1.6V25.7z M19.3,25.7h-1.1v-3.2l1.1,1.1V25.7z
	 M21.4,26.5c-0.4,0-0.8-0.4-0.8-0.8c0-0.4,0.4-0.8,0.8-0.8s0.8,0.4,0.8,0.8C22.2,26.2,21.9,26.5,21.4,26.5z M21.4,16.1h-4.3
	c-0.6,0-1.1-0.2-1.1-0.5v-1.6c0-0.6,0.4-1.3,0.9-1.7c0,0,0.7-0.5,1.8-0.5c2.1,0,3.1,1.3,3.1,1.3c0.4,0.5,0.7,1.3,0.7,1.9
	S22,16.1,21.4,16.1z M28.1,24.1c-0.1,0-0.1,0-0.2,0c-0.2,0-0.4-0.1-0.5-0.3l-3.9-10c-1-2.6-2.3-3.6-4.5-3.6c-1.5,0-2.7,0.9-2.7,0.9
	c-0.7,0.5-1.7,0.5-2.4,0c0,0-1.3-0.9-2.7-0.9c-2.2,0-3.5,1-4.5,3.6l-3.9,10c-0.1,0.3-0.4,0.4-0.7,0.3c-0.3-0.1-0.4-0.4-0.3-0.7
	l3.9-10c1.2-3,2.9-4.3,5.5-4.3c1.8,0,3.3,1.1,3.4,1.1c0.3,0.2,0.8,0.2,1.1,0c0.1,0,1.5-1.1,3.4-1.1c2.7,0,4.3,1.3,5.5,4.3l3.9,10
	C28.5,23.7,28.3,24,28.1,24.1z"/>
</svg>
