<?xml version="1.0" encoding="utf-8"?>
<!-- Generator: Adobe Illustrator 19.0.0, SVG Export Plug-In . SVG Version: 6.00 Build 0)  -->
<svg version="1.1" id="Layer_1" xmlns="http://www.w3.org/2000/svg" xmlns:xlink="http://www.w3.org/1999/xlink" x="0px" y="0px"
	 viewBox="0 0 30.7 30" style="enable-background:new 0 0 30.7 30;" xml:space="preserve">
<style type="text/css">
	.{{$ctrl.id}}{fill:{{$ctrl.fill}};}
</style>
<g>
	<g>
		<path ng-class="{ '{{$ctrl.id}}': true}" d="M22.7,9.5l-5.5,5.5c-0.2-0.5-0.5-0.9-0.9-1.3c-0.4-0.4-0.8-0.7-1.3-0.9l5.5-5.5c0.4,0.3,0.8,0.7,1.2,1
			C22.1,8.7,22.4,9.1,22.7,9.5L22.7,9.5z M10.6,19.4c0.6,0.6,1.3,0.9,2.1,0.9c0.8,0,1.5-0.3,2.1-0.9c1.2-1.2,1.2-3.1,0-4.2
			c-0.6-0.6-1.3-0.9-2.1-0.9c-0.8,0-1.5,0.3-2.1,0.9C9.4,16.3,9.4,18.2,10.6,19.4L10.6,19.4z M30.2,16.1
			C30.2,16.1,30.2,16.1,30.2,16.1c-0.3-0.3-0.8-0.5-1.2-0.5c-0.5,0-0.9,0.2-1.2,0.5l-1.4,1.4l0,0l3.5-8.2C30.1,8.8,30,8.3,29.7,8
			l-1.2-1.2L17.8,17.4c0,1.3-0.5,2.5-1.5,3.5c-1,1-2.3,1.5-3.6,1.5c-1.4,0-2.7-0.5-3.6-1.5c-2-2-2-5.3,0-7.3
			c0.9-0.9,2.2-1.5,3.5-1.5L23.2,1.5L22,0.3c-0.3-0.3-0.8-0.4-1.2-0.2L9,5.1C8,5.4,6.9,5.9,5.9,6.5C5.7,6.7,5.5,7,5.4,7.3
			c0,0.3,0,0.5,0.2,0.7l-2.1,2.1C3.3,10.1,3,10,2.7,10c-0.3,0-0.6,0.2-0.8,0.5c-1.5,2.4-2.2,5.3-1.9,8.1c0.3,2.9,1.6,5.6,3.7,7.6
			c2.4,2.4,5.6,3.7,9,3.7h0c2.4,0,4.8-0.7,6.8-2c0.3-0.2,0.5-0.5,0.5-0.8c0-0.3,0-0.5-0.2-0.7l2.1-2.1c0.2,0.1,0.5,0.2,0.7,0.2
			c0.3,0,0.6-0.2,0.8-0.5c0.5-0.8,0.9-1.7,1.3-2.6l2,0.1c0,0,0,0,0,0c0.3,0,0.6-0.1,0.8-0.3c0,0,0,0,0,0l2.6-2.6
			c0.3-0.3,0.5-0.7,0.5-1.2C30.7,16.9,30.5,16.4,30.2,16.1L30.2,16.1z M30.2,16.1"/>
	</g>
</g>
</svg>
