<?xml version="1.0" encoding="utf-8"?>
<!-- Generator: Adobe Illustrator 19.0.0, SVG Export Plug-In . SVG Version: 6.00 Build 0)  -->
<svg version="1.1" id="icons" xmlns="http://www.w3.org/2000/svg" xmlns:xlink="http://www.w3.org/1999/xlink" x="0px" y="0px"
	 viewBox="0 0 30 30" style="enable-background:new 0 0 30 30;" xml:space="preserve">
<style type="text/css">
	.{{$ctrl.id}}{fill:{{$ctrl.fill}};}
</style>
<path ng-class="{ '{{$ctrl.id}}': true}" d="M7.5,26.9c0,0,5.4,3.1,7.5,3.1c3.2,0,7.5-3.1,7.5-3.1c0,0,0.1-0.1,0.1-0.1H7.4C7.4,26.8,7.5,26.9,7.5,26.9z
	 M12.9,1.9V0.3C9.6,1,3.4,3.4,1.6,11.8H0.5C0.2,11.8,0,12,0,12.3v2.1C0,14.8,0.2,15,0.5,15h0.6c0,0.3,0,0.7-0.1,1.1H0.5
	c-0.3,0-0.5,0.2-0.5,0.5v2.1c0,0.3,0.2,0.5,0.5,0.5h0.7c0.1,1.2,0.4,2.8,0.9,4.4v4.1h4.1C2.7,24,2.7,17.2,2.7,17
	C2.7,5.8,9.3,2.7,12.9,1.9z M16.1,0h-2.1v3.2h2.1V0z M17.1,3.5v0.7h-4.3V3.5C9.7,4.3,4.3,7.1,4.3,17c0,0,0,5.2,2.3,8.8h6.3v-1.1h4.3
	v1.1h6.3c2.3-3.5,2.3-8.8,2.3-8.8C25.7,7.1,20.3,4.3,17.1,3.5z M7.2,18.2c-0.5-0.6-0.8-1.3-0.8-2.1c0-0.8,0.3-1.5,0.8-2.1V18.2z
	 M9.4,15c-0.5,0.1-0.8,0.5-0.8,1c0,0.5,0.3,0.9,0.8,1v2.2c-0.6-0.1-1.1-0.3-1.6-0.6v-5.2c0.5-0.3,1-0.5,1.6-0.6V15z M11.5,18.7
	c-0.5,0.3-1,0.5-1.6,0.6v-2.2c0.5-0.1,0.8-0.5,0.8-1c0-0.5-0.3-0.9-0.8-1v-2.2c0.6,0.1,1.1,0.3,1.6,0.6V18.7z M12.1,18.2V14
	c0.5,0.6,0.8,1.3,0.8,2.1C12.9,16.9,12.5,17.6,12.1,18.2z M15,20.4l-2.1,1.1l2.1-2.1l2.1,2.1L15,20.4z M17.9,18.2
	c-0.5-0.6-0.8-1.3-0.8-2.1c0-0.8,0.3-1.5,0.8-2.1V18.2z M20.1,15c-0.5,0.1-0.8,0.5-0.8,1c0,0.5,0.3,0.9,0.8,1v2.2
	c-0.6-0.1-1.1-0.3-1.6-0.6v-5.2c0.5-0.3,1-0.5,1.6-0.6V15z M22.2,18.7c-0.5,0.3-1,0.5-1.6,0.6v-2.2c0.5-0.1,0.8-0.5,0.8-1
	c0-0.5-0.3-0.9-0.8-1v-2.2c0.6,0.1,1.1,0.3,1.6,0.6V18.7z M22.8,18.2V14c0.5,0.6,0.8,1.3,0.8,2.1C23.6,16.9,23.3,17.6,22.8,18.2z
	 M30,14.5v-2.1c0-0.3-0.2-0.5-0.5-0.5h-1.1C26.6,3.4,20.4,1,17.1,0.3v1.6c3.5,0.8,10.2,3.8,10.2,15c0,0.3,0,7.1-3.5,10.9h4.1v-4.1
	c0.5-1.6,0.8-3.2,0.9-4.4h0.7c0.3,0,0.5-0.2,0.5-0.5v-2.1c0-0.3-0.2-0.5-0.5-0.5h-0.6c0-0.4,0-0.7-0.1-1.1h0.6
	C29.8,15,30,14.8,30,14.5z"/>
</svg>
