<?xml version="1.0" encoding="utf-8"?>
<!-- Generator: Adobe Illustrator 19.0.0, SVG Export Plug-In . SVG Version: 6.00 Build 0)  -->
<svg version="1.1" id="Layer_1" xmlns="http://www.w3.org/2000/svg" xmlns:xlink="http://www.w3.org/1999/xlink" x="0px" y="0px"
	 viewBox="0 0 45.1 30" style="enable-background:new 0 0 45.1 30;" xml:space="preserve">
<style type="text/css">
	.{{$ctrl.id}}{fill:{{$ctrl.fill}};}
</style>
<g>
	<path ng-class="{ '{{$ctrl.id}}': true}" d="M43.6,0H1.5C0.7,0,0,0.7,0,1.5V28c0,0.8,0.7,1.5,1.5,1.5H7l1.6-6.4l0.2-0.7h0.8h26.8H37l0.2,0.7l1.5,6.4h4.9
		c0.8,0,1.5-0.7,1.5-1.5V1.5C45.1,0.7,44.5,0,43.6,0z M2,27.7c-0.6,0-1.1-0.5-1.1-1.1c0-0.6,0.5-1.1,1.1-1.1s1.1,0.5,1.1,1.1
		C3.1,27.2,2.6,27.7,2,27.7z M2,2.9c-0.6,0-1.1-0.5-1.1-1.1c0-0.6,0.5-1.1,1.1-1.1s1.1,0.5,1.1,1.1C3.1,2.4,2.6,2.9,2,2.9z
		 M41.4,21.6H3.9V7.5l3.1-3.8h34.4V21.6z M43,27.7c-0.6,0-1.1-0.5-1.1-1.1c0-0.6,0.5-1.1,1.1-1.1c0.6,0,1.1,0.5,1.1,1.1
		C44.1,27.2,43.6,27.7,43,27.7z M43,2.9c-0.6,0-1.1-0.5-1.1-1.1c0-0.6,0.5-1.1,1.1-1.1c0.6,0,1.1,0.5,1.1,1.1
		C44.1,2.4,43.6,2.9,43,2.9z"/>
	<path ng-class="{ '{{$ctrl.id}}': true}" d="M33.5,14.4c0.5,0,0.9-0.2,1.2-0.5c0.3-0.3,0.5-0.7,0.5-1.2c0-0.5-0.2-0.9-0.5-1.2c-0.3-0.3-0.7-0.5-1.2-0.5
		c-0.5,0-0.9,0.2-1.2,0.5c-0.3,0.3-0.5,0.7-0.5,1.2c0,0.5,0.2,0.9,0.5,1.2C32.6,14.3,33,14.4,33.5,14.4z"/>
	<path ng-class="{ '{{$ctrl.id}}': true}" d="M11.8,16.5h22.1c2,0,3.7-1.7,3.7-3.7s-1.7-3.7-3.7-3.7H11.8c-2,0-3.7,1.7-3.7,3.7S9.8,16.5,11.8,16.5z
		 M31.3,10.6c0.6-0.6,1.3-0.9,2.2-0.9c0.8,0,1.6,0.3,2.2,0.9c0.6,0.6,0.9,1.3,0.9,2.2s-0.3,1.6-0.9,2.2c-0.6,0.6-1.3,0.9-2.2,0.9
		c-0.8,0-1.6-0.3-2.2-0.9c-0.6-0.6-0.9-1.3-0.9-2.2S30.8,11.2,31.3,10.6z M17.2,10.7h11.1v3.5H17.2V10.7z M9.9,10.6
		c0.6-0.6,1.3-0.9,2.2-0.9c0.8,0,1.6,0.3,2.2,0.9c0.6,0.6,0.9,1.3,0.9,2.2s-0.3,1.6-0.9,2.2c-0.6,0.6-1.3,0.9-2.2,0.9
		c-0.8,0-1.6-0.3-2.2-0.9C9.4,14.4,9,13.6,9,12.8S9.4,11.2,9.9,10.6z"/>
	<path ng-class="{ '{{$ctrl.id}}': true}" d="M12.1,14.4c0.5,0,0.9-0.2,1.2-0.5c0.3-0.3,0.5-0.7,0.5-1.2c0-0.5-0.2-0.9-0.5-1.2c-0.3-0.3-0.7-0.5-1.2-0.5
		c-0.5,0-0.9,0.2-1.2,0.5c-0.3,0.3-0.5,0.7-0.5,1.2c0,0.5,0.2,0.9,0.5,1.2C11.2,14.3,11.6,14.4,12.1,14.4z"/>
	<path ng-class="{ '{{$ctrl.id}}': true}" d="M10.3,23.7L8.8,30H37l-1.5-6.3H10.3z M12.4,29c-0.4,0-0.7-0.3-0.7-0.7c0-0.4,0.3-0.7,0.7-0.7
		c0.4,0,0.7,0.3,0.7,0.7C13.1,28.6,12.8,29,12.4,29z M14.2,27.2c-0.4,0-0.7-0.3-0.7-0.7c0-0.4,0.3-0.7,0.7-0.7
		c0.4,0,0.7,0.3,0.7,0.7C14.9,26.9,14.6,27.2,14.2,27.2z M31.4,27.2c-0.4,0-0.7-0.3-0.7-0.7c0-0.4,0.3-0.7,0.7-0.7
		c0.4,0,0.7,0.3,0.7,0.7C32.2,26.9,31.8,27.2,31.4,27.2z M33.3,29c-0.4,0-0.7-0.3-0.7-0.7c0-0.4,0.3-0.7,0.7-0.7
		c0.4,0,0.7,0.3,0.7,0.7C34,28.6,33.7,29,33.3,29z"/>
</g>
</svg>
