<?xml version="1.0" encoding="utf-8"?>
<!-- Generator: Adobe Illustrator 19.0.0, SVG Export Plug-In . SVG Version: 6.00 Build 0)  -->
<svg version="1.1" id="Vrstva_1" xmlns="http://www.w3.org/2000/svg" xmlns:xlink="http://www.w3.org/1999/xlink" x="0px" y="0px"
	 viewBox="0 0 19.4 30" style="enable-background:new 0 0 19.4 30;" xml:space="preserve">
<style type="text/css">
	.{{$ctrl.id}}{fill:{{$ctrl.fill}};}
</style>
<g>
	<polygon ng-class="{ '{{$ctrl.id}}': true}" points="9.1,17.9 8,20 8.3,20.2 9.4,18 	"/>
	<polygon ng-class="{ '{{$ctrl.id}}': true}" points="8.5,20.3 8.8,20.4 9.8,18.2 9.5,18.1 	"/>
	<path ng-class="{ '{{$ctrl.id}}': true}" d="M11.9,24.1c0.1-0.2,0.5-0.4,0.4-0.6c-0.1-0.2-0.3,0.1-0.7-0.3c-0.3-0.3-0.6-0.8,0-2.4c0.2-0.6,0.7-1.6,1.1-1.8
		c0.6-0.3,0.8,0.3,1,0.2c0.2-0.1,0-0.5,0.3-0.9c0.9-1.1,2.4-2.6,1.4-5.1c-0.3-0.7-1-1.3-1.7-1.8l2.9-6.9l0.8,0.4
		c0,0.3,0.1,0.6,0.3,0.7c0.3,0.2,0.7,0,0.9-0.3c0.2-0.3,0-0.7-0.3-0.9c-0.3-0.1-0.6-0.1-0.8,0.1L16.9,4l0,0.1l0.6-1.3l0.7,0.4
		c0,0.3,0.1,0.6,0.4,0.7c0.3,0.2,0.7,0,0.9-0.3c0.2-0.3,0-0.7-0.3-0.9c-0.3-0.1-0.6-0.1-0.8,0.1l-0.7-0.4l0.4-0.8l1-0.3
		c0,0-0.3-0.5-0.4-0.7c-0.1-0.2,0-0.5-0.2-0.6c-0.2-0.1-0.5,0.2-0.7,0.2C17.5,0.3,17,0.3,17,0.3l0.3,0.9l-0.8,1.3l-0.8-0.4
		c0-0.3-0.1-0.6-0.3-0.7c-0.3-0.2-0.7,0-0.9,0.3c-0.2,0.3,0,0.7,0.3,0.9c0.3,0.1,0.6,0.1,0.8-0.1l0.7,0.4L15.7,4l-0.8-0.4
		c0-0.3-0.1-0.6-0.3-0.7c-0.3-0.2-0.7,0-0.9,0.3c-0.2,0.3,0,0.7,0.3,0.9c0.3,0.1,0.6,0.1,0.8-0.1l0.7,0.4l-3.6,6.1
		c-0.7-0.2-1.6-0.4-2.3-0.2c-2.6,0.7-2.9,2.8-3.3,4.2c-0.1,0.6-0.6,0.6-0.6,0.8c0,0.3,0.7,0,0.7,0.7c0.1,0.5-0.4,1.4-0.8,2
		c-0.9,1.4-1.5,1.5-1.9,1.4c-0.5-0.1-0.5-0.4-0.6-0.4C3,18.9,3,19.4,2.9,19.5c-0.4,0.6-1.8,1.4-2.7,3.7c-0.5,1.3-0.4,3.7,3.5,5.8
		c4.1,1.9,6,0.5,6.8-0.6C11.9,26.3,11.7,24.7,11.9,24.1z M7.2,18.4c0.1-0.1,0.2-0.2,0.3-0.2c0,0,0-0.2-0.1-0.4c0,0-0.1-0.1-0.2-0.1
		l-0.1,0c0,0,0,0,0,0c0,0,0,0-0.1,0c-0.1,0-0.2,0.1-0.3,0.2c-0.4,0.4-0.7,0.9-1,1.4c0,0.1-0.1,0.3-0.2,0.4c-0.1,0.3-0.3,0.6-0.5,0.8
		C5,20.7,4.8,21,4.5,21.2c-0.1,0.1-0.3,0.2-0.5,0.2c0,0-0.1,0-0.1,0c0,0,0,0-0.1,0l0,0c-0.1,0-0.2-0.1-0.2-0.1
		c-0.4-0.4-0.2-0.8-0.2-0.9c0,0,0-0.1,0-0.1C3.4,20,3.6,19.9,3.8,20c0.2,0.1,0.2,0.3,0.1,0.4c-0.1,0.1-0.2,0.2-0.3,0.2
		c0,0,0,0.2,0.1,0.4c0,0,0.1,0.1,0.2,0.1l0.1,0c0,0,0,0,0,0c0,0,0.1,0,0.1,0c0.1,0,0.2-0.1,0.3-0.2c0.4-0.4,0.7-0.9,1-1.4
		c0-0.1,0.1-0.3,0.2-0.4c0.1-0.3,0.3-0.6,0.5-0.8c0.2-0.2,0.4-0.5,0.7-0.7c0.1-0.1,0.3-0.2,0.5-0.2c0,0,0.1,0,0.1,0c0,0,0,0,0.1,0
		l0.1,0c0.1,0,0.2,0.1,0.2,0.1c0.4,0.4,0.2,0.8,0.2,0.9c0,0,0,0.1,0,0.1c-0.1,0.2-0.3,0.2-0.4,0.1C7.2,18.8,7.2,18.6,7.2,18.4z
		 M9.4,21l-0.5-0.3l-1.4,2.4l0.6,0.3l-3.9,5.7l-0.9-0.5l2.2-6.5l0.6,0.3l1.2-2.6l-0.5-0.2l0.1-0.2l0.5,0.2l1.2-2.1L8,17.3l3.7-6.5
		l0.2-0.3l0.3,0.1L12,10.9l-3.5,6.2l0.3,0.1l3.4-6.3l0.2-0.3l0-0.1l5-9.1l0,0v0l0.1,0l0,0l0,0l0,0v0l0,0l0,0h0l0,0l0,0l0,0l0.1,0v0
		l0,0.1L13.3,11l0,0.1l-0.2,0.4l-3,6.5l0.3,0.1l2.9-6.6l0.2-0.4l0.3,0.2l-0.2,0.4l-3.1,6.9L10,18.3l-1,2.2l0.5,0.3L9.4,21z M11,24.2
		c-0.1,0.1-0.3,0.4-0.8,0.3c-0.1,0-0.2,0-0.2-0.1l0,0c0,0,0,0-0.1,0c0,0-0.1-0.1-0.1-0.1c-0.1-0.2-0.1-0.3-0.2-0.5
		c0-0.3,0-0.6,0.1-0.9c0.1-0.3,0.2-0.6,0.4-0.9c0-0.1,0.2-0.3,0.2-0.3c0.3-0.5,0.5-1.1,0.5-1.6c0-0.1,0-0.3-0.1-0.4c0,0,0,0,0-0.1
		c0,0,0,0,0,0l0,0c0,0-0.1-0.1-0.2-0.1c-0.2,0-0.4,0.1-0.4,0.1c0.1,0.1,0.1,0.2,0.1,0.4c-0.1,0.2-0.3,0.2-0.4,0.1
		c-0.2-0.1-0.2-0.3-0.1-0.4c0,0,0-0.1,0.1-0.1c0.1-0.1,0.3-0.4,0.8-0.3c0.1,0,0.2,0,0.2,0.1l0,0c0,0,0,0,0.1,0c0,0,0.1,0.1,0.1,0.1
		c0.1,0.2,0.1,0.3,0.2,0.5c0,0.3,0,0.6-0.1,0.9c-0.1,0.3-0.2,0.6-0.4,0.9c0,0.1-0.2,0.3-0.2,0.3c-0.3,0.5-0.5,1-0.5,1.6
		c0,0.1,0,0.3,0.1,0.4c0,0,0,0,0,0.1c0,0,0,0,0,0l0,0c0,0,0.1,0.1,0.2,0.1c0.2,0,0.4-0.1,0.4-0.1c-0.1-0.1-0.1-0.2-0.1-0.4
		c0.1-0.2,0.3-0.2,0.4-0.1C11.1,23.7,11.2,23.9,11,24.2C11.1,24.1,11.1,24.1,11,24.2z"/>
	<polygon ng-class="{ '{{$ctrl.id}}': true}" points="7.3,23.1 8.7,20.6 8.4,20.5 7.1,23 	"/>
	<polygon ng-class="{ '{{$ctrl.id}}': true}" points="6.6,22.7 6.9,22.9 8.2,20.4 7.9,20.2 	"/>
	<polygon ng-class="{ '{{$ctrl.id}}': true}" points="6.5,22.7 7.8,20.1 7.4,20 6.3,22.5 	"/>
	<polygon ng-class="{ '{{$ctrl.id}}': true}" points="9,17.8 8.7,17.7 7.5,19.8 7.9,20 	"/>
	<path ng-class="{ '{{$ctrl.id}}': true}" d="M4.1,29.2c-0.1-0.1-0.2-0.1-0.3-0.2c-0.1-0.1-0.2-0.1-0.3-0.2L4.1,29.2z"/>
</g>
</svg>
