<?xml version="1.0" encoding="utf-8"?>
<!-- Generator: Adobe Illustrator 19.0.0, SVG Export Plug-In . SVG Version: 6.00 Build 0)  -->
<svg version="1.1" id="Layer_1" xmlns="http://www.w3.org/2000/svg" xmlns:xlink="http://www.w3.org/1999/xlink" x="0px" y="0px"
	 viewBox="0 0 35.6 30" style="enable-background:new 0 0 35.6 30;" xml:space="preserve">
<style type="text/css">
	.{{$ctrl.id}}{fill:{{$ctrl.fill}};}
</style>
<g>
	<path ng-class="{ '{{$ctrl.id}}': true}" d="M35.6,10.2c0-0.3,0-0.6,0-1c0-0.9-0.3-1.5-1.4-1.3c-2.6,0.4-5.3,0.8-7.9,1.2c-1,0.2-1.3,0.7-1.3,1.4
		c0,0.4,0,0.8,0,1.3c0,2.6,0,5.2,0,7.8c-0.7-0.5-1.6-0.7-2.6-0.7c-2,0-3.6,1.1-3.6,2.4c0,1.3,1.6,2.4,3.6,2.4c2,0,3.6-1.1,3.6-2.4
		c0-3.2,0-6.1,0-9.3c2.9-0.4,5.7-0.8,8.6-1.3c0,2.7,0,5,0,7.6C34,17.8,33,17.5,32,17.5c-2,0-3.6,1.1-3.6,2.4c0,1.3,1.6,2.4,3.6,2.4
		c2,0,3.6-1.1,3.6-2.4C35.6,16.7,35.6,13.4,35.6,10.2z"/>
	<path ng-class="{ '{{$ctrl.id}}': true}" d="M29.9,13.2l-2.1,0.3c0,1.3,0,2.5,0,3.8c0.6-0.5,1.3-0.9,2.1-1.2C30,15.1,30,14.1,29.9,13.2z"/>
	<path ng-class="{ '{{$ctrl.id}}': true}" d="M22.4,25.4c-2.3,0-5.3-0.9-5.4-4.2c0-2.8,3-4.2,5.4-4.2c0.3,0,0.6,0,0.8,0c0-1.8,0-3.6,0-5.4
		c0-0.4,0-0.8,0-1.2c-0.1-1.7,1-2.9,2.7-3.2l0,0l0,0L27.7,7c0-0.1-0.1-0.1-0.1-0.2c-2.2-3.5-5.7-5.7-9.5-6.5
		c-3.8-0.8-7.8-0.2-11.3,2.1c-3.5,2.3-5.7,5.7-6.5,9.4c-0.8,3.8-0.2,7.8,2.1,11.3c2.2,3.5,5.7,5.7,9.5,6.5c3.8,0.8,7.8,0.2,11.3-2.1
		c2-1.3,3.6-3,4.7-4.9c-0.1-0.1-0.2-0.2-0.3-0.3C26.9,24.4,24.5,25.4,22.4,25.4z M18.4,2.4L18.4,2.4c0.1,0,0.3,0.1,0.4,0.1l0,0
		c0,0,0.1,0,0.1,0l0,0c0.1,0,0.2,0.1,0.2,0.1l0,0l0.1,0l0,0l0.1,0l0.1,0l0.1,0l0,0l0.1,0l0,0C20,3,20.1,3,20.2,3l0.1,0l0.1,0l0,0
		l0.1,0l0.1,0l0.1,0l0,0l0.1,0l0.1,0l0,0l0.1,0l0.1,0l0,0l0.1,0l0.1,0l0,0l0.1,0.1l0.1,0l0.1,0l0,0h0l0,0l0.1,0.1l0,0l0.1,0.1l0,0
		l0.1,0.1l0.1,0l0.1,0L22,4L22,4l0,0l0,0l0.1,0.1l0,0l0,0l0.1,0.1l0.1,0l0.1,0.1l0,0l0.1,0.1l0,0l0.1,0.1l0,0l0,0l0.1,0.1l0,0l0,0
		L23,4.7l0,0l0.1,0.1l0,0l0.1,0.1l0,0h0l0,0L23.3,5l0,0l0.1,0.1l0,0c0,0,0.1,0.1,0.1,0.1l-5.1,5.6l0,0l0,0l0,0l0,0l0,0l0,0h0l0,0
		l0,0l0,0l0,0l0,0l0,0l0,0l0,0l0,0l0,0l0,0l0,0l0,0l0,0l0,0l0,0l0,0l0,0l0,0l0,0l0,0l0,0l0,0l0,0l0,0l0,0l0,0l0,0l0,0l0,0l0,0l0,0
		l0,0l0,0l0,0l0,0l0,0h0l0,0l0,0l0,0l0,0l0,0l0,0l0,0l0,0l0,0l0,0l0,0l0,0l0,0l0,0h0l0,0l0,0l0,0l0,0l0,0l0,0l0,0l0,0l0,0l0,0l0,0
		l0,0l0,0l0,0l0,0l0,0l0,0l0,0l0,0l0,0l0,0l0,0l0,0l0,0l0,0l0,0l0,0l0,0l0,0l0,0l0,0l0,0l0,0l0,0l0,0l0,0l0,0l0,0l0,0l0,0l0,0
		L18.4,2.4z M12.2,27.7c-0.4-0.1-0.8-0.2-1.2-0.3l0,0c0,0-0.1,0-0.1,0l0,0c-0.3-0.1-0.7-0.2-1-0.4l0,0c-0.1,0-0.2-0.1-0.3-0.1l0,0
		c-0.2-0.1-0.4-0.2-0.6-0.3l0,0c0,0-0.1,0-0.1-0.1l0,0l-0.1-0.1l0,0l-0.1-0.1l0,0l-0.1-0.1l0,0c-0.1,0-0.2-0.1-0.2-0.1l0,0L8,26l0,0
		l-0.1-0.1l0,0c0,0-0.1-0.1-0.1-0.1l0,0l-0.1-0.1l0,0l-0.1-0.1l0,0l-0.1-0.1l0,0l-0.1-0.1l0,0l-0.1-0.1l0,0L7,25.3l0,0l-0.1-0.1l0,0
		l-0.1-0.1l0,0L6.6,25l0,0l-0.1-0.1l0,0l-0.1-0.1l0,0l-0.1-0.1l0,0l-0.1-0.1l0,0L6,24.5l0,0l-0.1-0.1l0,0l-0.1-0.1l0,0
		c0,0-0.1-0.1-0.1-0.1l0,0L5.6,24l0,0l-0.1-0.1l0-0.1l-0.1-0.1l0-0.1l-0.1-0.1l0,0l-0.1-0.1l0,0l-0.1-0.1l0,0l0-0.1l-0.1-0.1
		c0,0-0.1-0.1-0.1-0.1l0,0l0-0.1L4.7,23c0,0-0.1-0.1-0.1-0.1l0,0c0,0-0.1-0.1-0.1-0.1l0,0c0,0-0.1-0.1-0.1-0.1l0,0l0,0
		c-0.1-0.1-0.1-0.2-0.2-0.3c0,0-0.1-0.1-0.1-0.1l0,0c0,0-0.1-0.1-0.1-0.1L4,22l0,0l0,0l0,0l0,0l0,0l0,0l0,0l0,0l0,0l0,0l0,0l0,0l0,0
		l0,0l0-0.1l0,0l0,0l0,0l0,0l0,0l0,0l0,0l0,0l-0.1-0.1l0,0l0,0l0,0l6.2-4.5l0,0l0,0l0,0l0,0l0,0l0,0v0l0,0l0,0l0,0l0,0l0,0l0,0l0,0
		l0,0l0,0h0l0,0l0,0l0,0l0,0l0,0l0,0l0,0l0,0l0,0l0,0l0,0l0,0l0,0l0,0l0,0l0,0v0l0,0l0,0l0,0l0,0v0l0,0l0,0l0,0l0,0l0,0l0,0l0,0l0,0
		l0,0l0,0l0,0l0,0l0,0l0,0l0,0l0,0l0,0l0,0l0,0l0,0l0,0l0,0l0,0l0,0l0,0v0l0,0l0,0l0,0l0,0l0,0l0,0.1c0.8,1.3,2.1,2.1,3.4,2.4l0,0
		l0,0l0,0l0,0l0,0h0h0l0,0l0,0l0,0h0h0l0,0l0,0l0,0h0l0,0l0,0l0,0h0l0,0l0,0h0l0,0h0l0,0l0,0l0,0h0l0,0l0,0h0l0,0l0,0l0,0h0l0,0l0,0
		h0l0,0l0,0h0l0,0l0,0l0,0h0l0,0L12.2,27.7z M14.3,18.4c-0.9-0.2-1.7-0.7-2.2-1.5c-0.5-0.8-0.7-1.8-0.5-2.6c0.2-0.9,0.7-1.7,1.5-2.2
		c0.8-0.5,1.8-0.7,2.6-0.5c0.9,0.2,1.7,0.7,2.2,1.5c0.5,0.8,0.7,1.8,0.5,2.6c-0.2,0.9-0.7,1.7-1.5,2.2
		C16.1,18.5,15.1,18.6,14.3,18.4z"/>
</g>
</svg>
