<?xml version="1.0" encoding="utf-8"?>
<!-- Generator: Adobe Illustrator 19.0.0, SVG Export Plug-In . SVG Version: 6.00 Build 0)  -->
<svg version="1.1" id="Layer_1" xmlns="http://www.w3.org/2000/svg" xmlns:xlink="http://www.w3.org/1999/xlink" x="0px" y="0px"
	 viewBox="0 0 30 30" style="enable-background:new 0 0 30 30;" xml:space="preserve">
<style type="text/css">
	.st0{fill-rule:evenodd;clip-rule:evenodd;fill:#FFFFFF;}
</style>
<path ng-class="{ '{{$ctrl.id}}': true}" d="M28,7.5c4.1,7.2,1.7,16.3-5.5,20.5C15.3,32.1,6.2,29.7,2,22.5C-2.1,15.3,0.3,6.2,7.5,2
	C14.7-2.1,23.8,0.3,28,7.5L28,7.5z M19.5,12.4L19.5,12.4c-0.7-1.2-1.9-2.1-3.1-2.4c-1.3-0.3-2.7-0.2-3.9,0.5h0
	c-1.2,0.7-2.1,1.9-2.4,3.1c-0.3,1.3-0.2,2.7,0.5,3.9v0c0.7,1.2,1.9,2.1,3.1,2.4c1.3,0.3,2.7,0.2,3.9-0.5h0c1.2-0.7,2.1-1.9,2.4-3.1
	C20.4,15.1,20.2,13.7,19.5,12.4L19.5,12.4z M18.1,15.8c0.2-0.8,0.1-1.7-0.3-2.5h0c-0.4-0.8-1.2-1.3-2-1.5c-0.8-0.2-1.7-0.1-2.5,0.3
	l0,0c-0.8,0.4-1.3,1.2-1.5,2c-0.2,0.8-0.1,1.7,0.3,2.5l0,0c0.4,0.8,1.2,1.3,2,1.5c0.8,0.2,1.7,0.1,2.5-0.3l0,0
	C17.4,17.4,17.9,16.6,18.1,15.8L18.1,15.8z M7.2,5.7c-4,3.7-4.9,8.1-3.7,12.9c0.9-0.2,1.7-0.5,2.6-0.7C4.6,13.3,4.9,9.3,7.2,5.7
	L7.2,5.7z M19.9,9.6c0.5,0.5,0.9,1,1.3,1.7c0.2,0.3,0.3,0.6,0.4,0.9l5.3-2.2c-0.2-0.5-0.4-1-0.7-1.5c-0.6-1-1.2-1.8-2-2.5L19.9,9.6
	L19.9,9.6z M27.4,11.6L21.9,13c0.2,0.6,0.2,1.2,0.3,1.8l5.5,0.2C27.8,13.8,27.7,12.7,27.4,11.6L27.4,11.6z M20.3,12
	c-1.7-2.9-5.4-3.9-8.3-2.2c-2.9,1.7-3.9,5.4-2.2,8.3c1.7,2.9,5.4,3.9,8.3,2.2C20.9,18.6,21.9,14.9,20.3,12z"/>
</svg>
