<?xml version="1.0" encoding="utf-8"?>
<!-- Generator: Adobe Illustrator 19.0.0, SVG Export Plug-In . SVG Version: 6.00 Build 0)  -->
<svg version="1.1" id="Layer_1" xmlns="http://www.w3.org/2000/svg" xmlns:xlink="http://www.w3.org/1999/xlink" x="0px" y="0px"
	 viewBox="0 0 30.7 30" style="enable-background:new 0 0 30.7 30;" xml:space="preserve">
<style type="text/css">
	.{{$ctrl.id}}{fill:{{$ctrl.fill}};}
</style>
<g>
	<g>
		<g>
			<path ng-class="{ '{{$ctrl.id}}': true}" d="M24.6,2.8l-0.1-0.1c-0.1-0.2-0.3-0.2-0.4-0.1C24,2.6,23.9,2.8,24,3l0.1,0.1L24.6,2.8z"/>
			<path ng-class="{ '{{$ctrl.id}}': true}" d="M29.2,0.3l-0.1-0.1C29,0,28.8,0,28.7,0c-0.2,0.1-0.2,0.3-0.1,0.4l0.1,0.1L29.2,0.3z"/>
			<path ng-class="{ '{{$ctrl.id}}': true}" d="M28.3,0.8l-0.1-0.1c-0.1-0.2-0.3-0.2-0.4-0.1c-0.2,0.1-0.2,0.3-0.1,0.4l0.1,0.1L28.3,0.8z"/>
			<path ng-class="{ '{{$ctrl.id}}': true}" d="M27.4,1.3l-0.1-0.1C27.2,1,27,0.9,26.8,1c-0.2,0.1-0.2,0.3-0.1,0.4l0.1,0.1L27.4,1.3z"/>
			<path ng-class="{ '{{$ctrl.id}}': true}" d="M26.5,1.8l-0.1-0.1c-0.1-0.2-0.3-0.2-0.4-0.1c-0.2,0.1-0.2,0.3-0.1,0.4l0.1,0.1L26.5,1.8z"/>
			<path ng-class="{ '{{$ctrl.id}}': true}" d="M25.5,2.3l-0.1-0.1C25.4,2,25.2,1.9,25,2c-0.2,0.1-0.2,0.3-0.1,0.4L25,2.6L25.5,2.3z"/>
			<path ng-class="{ '{{$ctrl.id}}': true}" d="M17.1,19c-0.6-0.6-2.1,1.6-3.4,0.4c-0.4-0.4-0.4-0.6-0.4-1.1L13,18.6c-0.1,0.1-0.1,0.1-0.2,0.1
				c0.1,0.4,0.2,0.7,0.8,1.2c1.2,1,2.7-0.5,2.9-0.4c0.3,0.2-0.1,0.6-0.3,0.8c-0.9,1.2-2.7,1.6-3.6,2.3c-1.3,1.2-1.1,4.1-2.6,5.5
				c-0.3,0.3-0.8,0.3-0.9-0.4c-0.2-1,0.1-1.8-0.9-3c-1-1.3-3.2-2.8-3-3.8c0.8-2.2,2.8-2.1,4.2-3.3c0.6-0.6,1-1.1,1.5-1.9
				c0.2-0.4,0.7,0,0.9,0.2c0.1,0.1,0.1,0.2,0.2,0.2l0.8-0.8c-1.2-0.1-1.3-1.5-1-2.3c0.4-0.9,1.4-1.4,1.1-1.8c-0.8-0.7-2-0.1-3,1.2
				c-1,1.3-1.7,3.2-2.7,4.2c-0.3,0.3-0.3,0.5-2,1.1c-8.5,2.9-3.8,7.9-2.2,9.5c5.9,6.2,8.4,0.3,8.9-1.2c0.6-2,1-2.5,1.3-2.9
				c0.8-0.7,2.1-1,3-1.7C16.9,20.8,17.4,19.7,17.1,19z"/>
			<path ng-class="{ '{{$ctrl.id}}': true}" d="M12.1,19.2c0.1,0.1,0.1,0.3,0,0.4c-0.1,0.1-0.3,0.1-0.4,0L10.1,18c-0.1-0.1-0.1-0.3,0-0.4
				c0.1-0.1,0.3-0.1,0.4,0L12.1,19.2z"/>
			<path ng-class="{ '{{$ctrl.id}}': true}" d="M10.5,20.9c0.1,0.1,0.1,0.3,0,0.4c-0.1,0.1-0.3,0.1-0.4,0l-1.6-1.6c-0.1-0.1-0.1-0.3,0-0.4
				c0.1-0.1,0.3-0.1,0.4,0L10.5,20.9z"/>
			<path ng-class="{ '{{$ctrl.id}}': true}" d="M8.7,22.7c0.1,0.1,0,0.3-0.1,0.4c-0.1,0.1-0.3,0-0.4-0.1l-1.1-2c-0.1-0.1,0-0.3,0.1-0.4
				c0.1-0.1,0.3,0,0.4,0.1L8.7,22.7z"/>
			<g>
				<path ng-class="{ '{{$ctrl.id}}': true}" d="M28.8,2.8c0.3-0.4,0.9,0.3,1.5-0.3c0.7-0.7,0.4-1.3,0-1.7c-0.2-0.2-0.5-0.3-0.7-0.4l-5.9,3.2
					c0,0,0.2,0.4,0.1,0.8L25,5.6c0.8-0.4,1.6,0,1.9,0.3C28.1,5.1,28.3,3.5,28.8,2.8z"/>
				<path ng-class="{ '{{$ctrl.id}}': true}" d="M23.2,5.2c-0.9,0.9-10,10-11.8,11.8c-0.1,0.1-0.1,0.4,0,0.5l0.9,0.9c0.1,0.1,0.4,0.1,0.5,0L24.3,6.2
					L23.2,5.2z"/>
			</g>
		</g>
	</g>
</g>
</svg>
