<?xml version="1.0" encoding="utf-8"?>
<!-- Generator: Adobe Illustrator 19.0.0, SVG Export Plug-In . SVG Version: 6.00 Build 0)  -->
<svg version="1.1" id="Layer_1" xmlns="http://www.w3.org/2000/svg" xmlns:xlink="http://www.w3.org/1999/xlink" x="0px" y="0px"
	 viewBox="192 382 30 30" style="enable-background:new 192 382 30 30;" xml:space="preserve">
<style type="text/css">
	.{{$ctrl.id}}{fill:{{$ctrl.fill}};}
</style>
<g>
	<path ng-class="{ '{{$ctrl.id}}': true}" d="M207.2,401.3L207.2,401.3C207.2,401.3,207.2,401.3,207.2,401.3c-0.6,0.6-1.4,0.9-2.2,0.9s-1.6-0.3-2.2-0.9l0,0
		c-0.6-0.6-0.9-1.4-0.9-2.2c0-0.8,0.3-1.6,0.9-2.2c0,0,0,0,0,0l0,0l5.7-5.7c-1.9-0.6-3.9-0.4-5.7,0.7l0,0c-0.1,0-0.1,0.1-0.2,0.1
		l-0.1,0c-0.1,0-0.1,0.1-0.2,0.1c0,0,0,0-0.1,0.1l0,0c0,0-0.1,0-0.1,0.1c-0.1,0-0.1,0.1-0.2,0.1l0,0c0,0,0,0,0,0
		c0,0-0.1,0.1-0.1,0.1l0,0c-0.1,0-0.1,0.1-0.2,0.1c-0.3,0.3-0.6,0.7-0.9,1c-0.3,0.4-0.7,0.7-1.2,0.7c-1.9,0.3-3.6,1.1-4.9,2.5
		c-3.4,3.4-3.5,9-0.1,12.4c0,0,0,0,0,0l0,0c0,0,0,0,0,0c1.7,1.7,3.9,2.5,6.2,2.5c2.3,0,4.5-0.9,6.2-2.6c1.3-1.3,2.2-3,2.5-4.9
		c0.1-0.5,0.3-0.9,0.7-1.2c0.4-0.3,0.7-0.6,1-0.9c0-0.1,0.1-0.1,0.1-0.2l0,0c0,0,0.1-0.1,0.1-0.1c0,0,0,0,0,0l0,0
		c0-0.1,0.1-0.1,0.1-0.2c0,0,0-0.1,0.1-0.1l0,0c0,0,0,0,0.1-0.1c0-0.1,0.1-0.1,0.1-0.2c0,0,0,0,0-0.1c0-0.1,0.1-0.1,0.1-0.2l0,0
		c1.1-1.7,1.3-3.8,0.7-5.7L207.2,401.3z M203.9,404.1l-1.3,1.3l-4-4l1.3-1.3L203.9,404.1z"/>
	<path ng-class="{ '{{$ctrl.id}}': true}" d="M220.7,388l1.3-1.3l-4.7-4.7l-1.3,1.3l0.7,0.7l-0.6,0.6l-0.8-0.8l-1.3,1.3l0.8,0.8l-0.6,0.6l0,0l-0.9-0.9
		l-1.3,1.3l1.4,1.4l-7.8,7.7c0.4,0.2,0.8,0.4,1.2,0.7c0.3,0.3,0.6,0.7,0.7,1.2l7.7-7.8l1.4,1.4l1.3-1.3l-0.9-0.9l0,0l0.6-0.6
		l0.8,0.8l1.3-1.3l-0.8-0.8l0.6-0.6L220.7,388z"/>
	<path ng-class="{ '{{$ctrl.id}}': true}" d="M206.3,399.1c0-0.4-0.1-0.7-0.4-1c-0.3-0.3-0.6-0.4-1-0.4s-0.7,0.1-1,0.4c-0.3,0.3-0.4,0.6-0.4,1
		c0,0.4,0.1,0.7,0.4,1l0,0c0.5,0.5,1.4,0.5,2,0C206.2,399.8,206.3,399.4,206.3,399.1z"/>
</g>
</svg>
