<?xml version="1.0" encoding="utf-8"?>
<!-- Generator: Adobe Illustrator 19.0.0, SVG Export Plug-In . SVG Version: 6.00 Build 0)  -->
<svg version="1.1" id="Layer_1" xmlns="http://www.w3.org/2000/svg" xmlns:xlink="http://www.w3.org/1999/xlink" x="0px" y="0px"
	 viewBox="0 0 20.5 30" style="enable-background:new 0 0 20.5 30;" xml:space="preserve">
<style type="text/css">
	.st0{fill-rule:evenodd;clip-rule:evenodd;fill:#FFFFFF;}
</style>
<path ng-class="{ '{{$ctrl.id}}': true}" d="M1.6,5.5H4v21.6H1.6V5.5L1.6,5.5z M12.2,11.2v4h-0.7v-4H12.2L12.2,11.2z M10.3,6.6v10.6H9.6V6.6H10.3L10.3,6.6z
	 M8.2,5.9v12.8H7.6V5.9H8.2L8.2,5.9z M6.3,5.9v14.1H5.7V5.9H6.3L6.3,5.9z M5.4,0.5L5.6,0H0l1,4.6h3.5l0.1-0.5c2.8,0,5.4-0.3,6.5,3.5
	L11.3,8c0.6,2.1,1.1,3.1,2.9,3.3c1.3,0.1,2.2-0.5,3-1.1c2.7-2,2-0.8,0.2,1l-12.3,12l0.1,3.5L6.3,29l12.9-16.6c0.5-0.7,1-1.5,1.2-2.3
	c0.3-1.1,0-2.1-1.3-2.6C17.8,7,16.9,7.7,16,8.4c-0.5,0.4-1.1,0.8-1.5,0.8c-0.4,0-0.6-0.7-1-1.8L13.4,7c-0.8-2.6-1.8-4.1-3.4-5.2
	C8.8,1.1,7.4,0.7,5.4,0.5L5.4,0.5z M5.6,30H0l1-2.3h3.5L5.6,30z"/>
</svg>
