<?xml version="1.0" encoding="utf-8"?>
<!-- Generator: Adobe Illustrator 19.0.0, SVG Export Plug-In . SVG Version: 6.00 Build 0)  -->
<svg version="1.1" id="Layer_1" xmlns="http://www.w3.org/2000/svg" xmlns:xlink="http://www.w3.org/1999/xlink" x="0px" y="0px"
	 viewBox="190.4 382 33.2 30" style="enable-background:new 190.4 382 33.2 30;" xml:space="preserve">
<style type="text/css">
	.{{$ctrl.id}}{fill:{{$ctrl.fill}};}
</style>
<g>
	<path ng-class="{ '{{$ctrl.id}}': true}" d="M215.7,391.3l1.1-1.1c1,1.1,1.7,2.4,2.3,3.8c0.1,0.3,0.2,0.6,0.3,0.9l1.7,0.3l0.5,0.1c-0.2-0.7-0.4-1.4-0.6-2
		c-0.6-1.7-1.5-3.2-2.7-4.5l1.2-1.2l-0.7-0.7c-3.1-3.1-7.3-4.9-11.8-4.9c-4.4,0-8.6,1.7-11.8,4.9l-0.7,0.7l1.2,1.2
		c-1.2,1.3-2.1,2.8-2.7,4.5c-0.3,0.7-0.5,1.3-0.6,2l0.6-0.1l1.6-0.3c0.1-0.3,0.2-0.6,0.3-0.9c0.5-1.4,1.3-2.7,2.3-3.8l1.1,1.1
		l0.7-0.7c2.1-2.1,5-3.3,8-3.3s5.9,1.2,8,3.3L215.7,391.3z"/>
	<path ng-class="{ '{{$ctrl.id}}': true}" d="M192.3,398.3c-1.3,0.3-2.1,1.5-1.9,2.8l1.7,8.5c0.1,0.6,0.5,1.2,1,1.5c0.4,0.3,0.9,0.4,1.3,0.4
		c0.2,0,0.3,0,0.5,0l0.6-0.1l-2.6-13.2L192.3,398.3z"/>
	
		<rect x="196.1" y="396.3" transform="matrix(-0.9808 0.1951 -0.1951 -0.9808 471.3997 761.6221)" ng-class="{ '{{$ctrl.id}}': true}" width="4.2" height="15.4"/>
	<path ng-class="{ '{{$ctrl.id}}': true}" d="M223.2,399.3c-0.4-0.5-0.9-0.9-1.5-1l-0.6-0.1l-2.6,13.2l0.6,0.1c0.2,0,0.3,0,0.5,0c0.5,0,0.9-0.1,1.3-0.4
		c0.5-0.4,0.9-0.9,1-1.5l1.7-8.5C223.7,400.5,223.6,399.9,223.2,399.3z"/>
	
		<rect x="208.1" y="401.9" transform="matrix(-0.1951 0.9808 -0.9808 -0.1951 654.1731 271.1884)" ng-class="{ '{{$ctrl.id}}': true}" width="15.4" height="4.2"/>
</g>
</svg>
