<?xml version="1.0" encoding="utf-8"?>
<!-- Generator: Adobe Illustrator 19.0.0, SVG Export Plug-In . SVG Version: 6.00 Build 0)  -->
<svg version="1.1" id="Layer_1" xmlns="http://www.w3.org/2000/svg" xmlns:xlink="http://www.w3.org/1999/xlink" x="0px" y="0px"
	 viewBox="0 0 41.6 30" style="enable-background:new 0 0 41.6 30;" xml:space="preserve">
<style type="text/css">
	.st0{fill-rule:evenodd;clip-rule:evenodd;fill:#FFFFFF;}
</style>
<path ng-class="{ '{{$ctrl.id}}': true}" d="M4.9,0h31.9c1.3,0,2.5,0.5,3.4,1.4l0,0c0.9,0.9,1.4,2.1,1.4,3.4v20.3c0,1.3-0.5,2.6-1.4,3.4h0
	c-0.9,0.9-2.1,1.4-3.4,1.4H4.9c-1.3,0-2.6-0.5-3.4-1.4C0.5,27.7,0,26.5,0,25.1V4.9c0-1.3,0.5-2.5,1.4-3.4v0C2.3,0.5,3.5,0,4.9,0
	L4.9,0z M37.7,11.6h-2.1v9h-0.9V26h2c0.3,0,0.5-0.1,0.6-0.3l0,0c0.2-0.2,0.3-0.4,0.3-0.6V11.6L37.7,11.6z M32.8,26v-5.4h-0.9v-9
	h-2.1v9h-0.9V26H32.8L32.8,26z M27,26v-5.4h-0.8v-9h-2.2v9h-0.8V26H27L27,26z M21.2,26v-5.4h-1v-9h-4.5v9h-0.9V26H21.2L21.2,26z
	 M12.9,26v-5.4H12v-9H9.8v9H8.9V26H12.9L12.9,26z M7,26v-5.4H6.1v-9H4v13.5c0,0.2,0.1,0.5,0.3,0.6C4.4,25.9,4.6,26,4.9,26H7z"/>
</svg>
