<?xml version="1.0" encoding="utf-8"?>
<!-- Generator: Adobe Illustrator 19.0.0, SVG Export Plug-In . SVG Version: 6.00 Build 0)  -->
<svg version="1.1" id="Layer_1" xmlns="http://www.w3.org/2000/svg" xmlns:xlink="http://www.w3.org/1999/xlink" x="0px" y="0px"
	 viewBox="0 0 18 30" style="enable-background:new 0 0 18 30;" xml:space="preserve">
<style type="text/css">
	.st0{fill-rule:evenodd;clip-rule:evenodd;fill:#FFFFFF;}
</style>
<path ng-class="{ '{{$ctrl.id}}': true}" d="M14.3,1.3c2.1,1.2,3.6,3.1,3.7,5.5l-0.9-0.3c-0.5-0.2-1.1,0-1.2,0.6c-0.2,0.5,0.1,1.1,0.7,1.3l1.3,0.4l-0.4,1.7
	l-1.2-0.4c-0.5-0.2-1.1,0.1-1.3,0.7c-0.2,0.5,0.2,1,0.7,1.2l1.3,0.4l-0.4,1.8l-1.2-0.4c-0.5-0.2-1.1,0.1-1.3,0.7
	c-0.2,0.5,0.2,1,0.7,1.2l1.3,0.4l-0.3,1.2c-0.1,0.3-0.2,0.8-0.3,1l-1.1-0.4c-0.5-0.2-1.1,0-1.2,0.6c-0.2,0.5,0.1,1.1,0.7,1.3
	l0.8,0.3c-1,1.4-2.6,2.3-4.3,2.7l-0.7,3c-0.2,0.1-0.4,0.1-0.5,0.1V30H4.6v-4.6v-0.8v-1.8l1.2-0.2l-0.1-0.4l-1.6,0.2l-0.3,1.8
	c-0.3-0.2-0.6-0.4-0.8-0.7l0.5-2.3c-1.9-1.1-3.2-2.9-3.5-5l1.9,0l0.4-1.8l-2.4,0c0-0.2,0.1-0.4,0.1-0.6l0.3-1.1l2.4,0l0.4-1.8
	l-2.4,0l0.4-1.8l2.4,0L4,7.2l-2.4,0L2,5.4l2.4,0l0.4-1.8H2.7C5.1-1,10.3-0.4,14.3,1.3L14.3,1.3z M3.3,16.3l2,0l4.5,1.5
	c0.5,0.2,1.1,0.1,1.2-0.5c0.2-0.5-0.1-1.1-0.7-1.3l-4.7-1.6l0,0c-0.1,0-0.2-0.1-0.3,0l-1.6,0L3.3,16.3L3.3,16.3z M4.1,12.7l2,0
	l4.5,1.5c0.5,0.2,1.1-0.1,1.3-0.7c0.2-0.5-0.2-0.9-0.7-1.1L6.5,11l0,0c-0.1,0-0.2-0.1-0.3,0l-1.6,0L4.1,12.7L4.1,12.7z M5,9.1l2,0
	l4.5,1.5c0.5,0.2,1.1-0.1,1.3-0.7C12.9,9.4,12.6,9,12,8.8L7.3,7.3l0,0c-0.1,0-0.2-0.1-0.3,0l-1.6,0L5,9.1L5,9.1z M5.8,5.3l2,0
	l4.5,1.5c0.5,0.2,1.1-0.1,1.3-0.7c0.2-0.5-0.2-0.9-0.7-1.1L8.2,3.6l0,0c-0.1,0-0.2,0-0.3,0l-1.6,0L5.8,5.3L5.8,5.3z M9.1,22.7
	L9.1,22.7L9.1,22.7L9.1,22.7L9.1,22.7L9.1,22.7L9.1,22.7L9.1,22.7L9.1,22.7L9.1,22.7L9.1,22.7L9.1,22.7L9.1,22.7L9.1,22.7L9.1,22.7
	L9,22.6l0,0l0,0l0,0l0,0l0,0l0,0l0,0l0,0v0l0,0l0,0l0,0l0,0l0,0l0,0l0,0l0,0l0,0l0,0l0,0l0,0l0,0l0,0h0l0,0l0,0h0l0,0l0,0h0l0,0l0,0
	l0,0l0,0l0,0l0,0l0,0l0,0l0,0l0,0l0,0l0,0l0,0l0,0h0l0,0l0,0h0l0,0l0,0l0,0l0,0h0l0,0l0,0l0,0h0l0,0l0,0l0,0l0,0l0,0l0,0l0,0l0,0
	l0,0l0,0l0,0h0l0,0h0l0,0h0h0h0h0l0,0l0,0h0h0h0l0,0h0l0,0h0h0h0l0,0l0,0c0,0,0,0,0,0h0h0l0,0l0,0l0,0h0l0,0l0,0h0c0,0,0,0-0.1,0
	l0,0c0,0,0,0,0,0h0l0,0l0,0l0,0l0,0l0,0l0,0l0,0l0,0l0,0l0,0c0,0,0,0-0.1,0h0l0,0l0,0l0,0l0,0l0,0l0,0l0,0l0,0l0,0l0,0l0,0l0,0l0,0
	l0,0l0,0l0,0l0,0l0,0l0,0l0,0l0,0l0,0l0,0l0,0v0l0,0l0,0l0,0l0,0c-0.3,0.2-0.5,0.6-0.5,0.9c0,0.7,0.5,1.2,1.2,1.2
	c0.7,0,1.2-0.5,1.2-1.2C9.5,23.2,9.4,22.9,9.1,22.7z"/>
</svg>
