<?xml version="1.0" encoding="utf-8"?>
<!-- Generator: Adobe Illustrator 19.0.0, SVG Export Plug-In . SVG Version: 6.00 Build 0)  -->
<svg version="1.1" id="Layer_1" xmlns="http://www.w3.org/2000/svg" xmlns:xlink="http://www.w3.org/1999/xlink" x="0px" y="0px"
	 viewBox="0 0 18.7 30" style="enable-background:new 0 0 18.7 30;" xml:space="preserve">
<style type="text/css">
	.{{$ctrl.id}}{fill:{{$ctrl.fill}};}
</style>
<g>
	<g>
		<path ng-class="{ '{{$ctrl.id}}': true}" d="M5.6,0C2.8,0,0.5,2,0,4.7h11.3C10.8,2,8.5,0,5.6,0L5.6,0z M5.6,0"/>
		<path ng-class="{ '{{$ctrl.id}}': true}" d="M16.9,14.1c-3.1,0-5.6,2.5-5.6,5.6v4.7c0,1-0.8,1.9-1.9,1.9s-1.9-0.8-1.9-1.9v-1.1c0.6-0.3,1-0.8,1-1.4
			l0.7-10.7c0.1-0.8,0.4-1.5,0.9-2.1c0.6-0.7,1-1.6,1.1-2.5H0c0.2,0.9,0.6,1.8,1.1,2.5c0.5,0.6,0.8,1.3,0.9,2.1l0.7,10.7
			c0,0.6,0.5,1.1,1,1.4v1.1c0,3.1,2.5,5.6,5.6,5.6s5.6-2.5,5.6-5.6v-4.7c0-1,0.8-1.9,1.9-1.9c1,0,1.9-0.8,1.9-1.9
			C18.7,14.9,17.9,14.1,16.9,14.1L16.9,14.1z M5.6,15.9c-1,0-1.9-0.8-1.9-1.9c0-1,0.8-1.9,1.9-1.9c1,0,1.9,0.8,1.9,1.9
			C7.5,15.1,6.7,15.9,5.6,15.9L5.6,15.9z M5.6,15.9"/>
	</g>
</g>
</svg>
