<?xml version="1.0" encoding="utf-8"?>
<!-- Generator: Adobe Illustrator 19.0.0, SVG Export Plug-In . SVG Version: 6.00 Build 0)  -->
<svg version="1.1" id="Layer_1" xmlns="http://www.w3.org/2000/svg" xmlns:xlink="http://www.w3.org/1999/xlink" x="0px" y="0px"
	 viewBox="0 0 19.5 30" style="enable-background:new 0 0 19.5 30;" xml:space="preserve">
<style type="text/css">
	.{{$ctrl.id}}{fill:{{$ctrl.fill}};}
</style>
<g>
	<g>
		<g>
			<path ng-class="{ '{{$ctrl.id}}': true}" d="M9.7,0C6.8,0,4.5,2.4,4.5,5.3v6.9c0,2.9,2.4,5.3,5.3,5.3s5.3-2.4,5.3-5.3V5.3C15,2.4,12.6,0,9.7,0z M9.7,3.5
				C8.8,3.5,8,4.3,8,5.2v0l0,6.3c0,0.4-0.4,0.8-0.8,0.8c-0.4,0-0.8-0.4-0.8-0.8V5.2c0-1.8,1.5-3.3,3.3-3.3c0.4,0,0.8,0.4,0.8,0.8
				C10.5,3.2,10.2,3.5,9.7,3.5z"/>
		</g>
	</g>
	<path ng-class="{ '{{$ctrl.id}}': true}" d="M19.5,12.3c0-0.7-0.6-1.4-1.4-1.4c-0.7,0-1.4,0.6-1.4,1.4c0,3.9-3.2,7-7,7s-7-3.2-7-7c0-0.7-0.6-1.4-1.4-1.4
		C0.6,11,0,11.6,0,12.3c0,4.9,3.6,9,8.4,9.6v5.3H4.9c-0.7,0-1.4,0.6-1.4,1.4c0,0.7,0.6,1.4,1.4,1.4h9.7c0.7,0,1.4-0.6,1.4-1.4
		c0-0.7-0.6-1.4-1.4-1.4h-3.5v-5.3C15.8,21.3,19.5,17.2,19.5,12.3L19.5,12.3z M19.5,12.3"/>
</g>
</svg>
