<?xml version="1.0" encoding="utf-8"?>
<!-- Generator: Adobe Illustrator 19.0.0, SVG Export Plug-In . SVG Version: 6.00 Build 0)  -->
<svg version="1.1" id="Symbol" xmlns="http://www.w3.org/2000/svg" xmlns:xlink="http://www.w3.org/1999/xlink" x="0px" y="0px"
	 viewBox="0 0 33.4 30" style="enable-background:new 0 0 33.4 30;" xml:space="preserve">
<style type="text/css">
	.{{$ctrl.id}}{fill:{{$ctrl.fill}};}
</style>
<g>
	<path ng-class="{ '{{$ctrl.id}}': true}" d="M18.9,6.5c-2.6,0-4.9,1.1-6.5,2.9c0.3,0.2,0.6,0.4,0.9,0.6c1.5,1.3,2.5,3.4,2.6,5.4c0.1,1.9-0.8,4.1-2.2,5.8
		c0.1,0.6,0.2,1.1,0.3,1.6c1.4,1,3.2,1.6,5.1,1.6c4.9,0,8.9-4,8.9-8.9C27.8,10.5,23.8,6.5,18.9,6.5z M18.9,17.8
		c-1.3,0-2.4-1.1-2.4-2.4c0-1.3,1.1-2.4,2.4-2.4c1.3,0,2.4,1.1,2.4,2.4C21.2,16.8,20.2,17.8,18.9,17.8z M31.7,22.3
		c1.1-2,1.7-4.4,1.7-6.9c0-2.5-0.6-4.8-1.7-6.9c-0.9-1.7-3.2-4-3.2-4c-2.6-2.3-5.9-3.7-9.6-3.7c-3.5,0-6.6,1.2-9.1,3.2
		c0,0.5-0.1,1.1-0.2,1.6c-0.2,1-0.7,2.1-1.2,3.2c0.1,0,0.3-0.1,0.4-0.1c0.1,0,0.3-0.1,0.4-0.1c0.3,0,0.6,0,0.9,0
		c2-2.6,5.2-4.3,8.7-4.3c6.1,0,11,4.9,11,11c0,6.1-4.9,11-11,11c-1.9,0-3.7-0.5-5.2-1.3c-0.3,1.3-1,2.3-1.8,3
		c2.1,1.2,4.5,1.9,7.1,1.9c3.7,0,7.1-1.4,9.7-3.7C30.4,24.7,31.7,22.3,31.7,22.3z M8.6,27.9c-1,0-2.1-0.5-2.5-1.8
		C6,25.6,6,25,6.3,24.5c0.2-0.5,0.6-0.8,1.1-1c0.2,0,0.3-0.1,0.5-0.1c0.9,0,1.8,0.6,1.9,1.6c0,0.1,0,0.2,0,0.3c0,0.2,0,0.4,0.2,0.4
		c0.1,0,0.1,0,0.2-0.1c0.8-0.5,1.6-1.7,1-4.2l-0.1-0.2l-0.2,0.2c-0.4,0.3-0.8,0.6-1.2,0.8c-0.8,0.5-2.1,0.8-3.3,0.8
		c-1.6,0-5.4-0.5-6.5-5.3c-0.5-1.9,0-5.2,2.9-8.2c0.2-0.2,0.5-0.5,0.7-0.7l0.1-0.1l0-0.1c-1.3-3-1.4-6-0.3-7.6C4,0.4,4.7,0,5.5,0
		C5.6,0,5.8,0,6,0.1c0.6,0.1,1.2,0.5,1.6,1.2C8.3,2.3,8.5,4,8.2,5.5c-0.4,1.6-1.6,4-2.4,5.2l-0.1,0.1l0.1,0.1c0.1,0.2,0.6,1,0.8,1.2
		l0.1,0.2l0.1-0.1c0.7-0.7,1.5-1.1,2.6-1.4c0.3-0.1,0.5-0.1,0.8-0.1c2.6,0,4.1,2.3,4.2,4.9c0.1,1.7-0.8,3.8-2.3,5.3l-0.1,0.1l0,0.1
		c1,3.4,0.2,5.9-2.2,6.8C9.4,27.9,9,27.9,8.6,27.9z M5.3,11.4l-0.1,0.2c-0.9,1.8-1.7,4.6-0.7,6.6c1,2,2.5,2.4,3.7,2.4
		c0.5,0,0.9-0.1,1.2-0.1c0.5-0.1,0.9-0.4,1.3-0.8l0.1-0.1l0-0.1c-0.5-1.2-1.3-2.5-2.2-3.8l-0.1-0.1l-0.1,0.1
		c-0.9,0.6-1.2,1.3-1.1,1.9c0,0,0,0.1,0,0.1c0,0.1-0.1,0.1-0.2,0.1c-0.1,0-0.1,0-0.2-0.1c-0.8-0.4-1.2-1.1-1.2-2.6
		c0-0.8,0.3-1.6,0.7-2.2l0.1-0.1l-0.1-0.1c-0.1-0.2-0.6-0.9-0.7-1.1L5.3,11.4z M9.9,14.9c-0.1,0-0.4,0.1-0.5,0.1L9,15.2l0.1,0.2
		c0.8,1.1,1.5,2.2,2,3.3l0.1,0.3l0.3-0.4c0.5-0.9,0.5-1.7,0.2-2.4C11.2,15.4,10.7,14.9,9.9,14.9z M4.7,2.6c0,0-0.1,0-0.1,0
		c-0.4,0-0.7,0.2-0.9,0.6C3.2,4.1,3.4,5.8,4.3,7.9l0.1,0.3l0.2-0.2C5.5,6.7,5.9,5.6,6,4.6C6,4,5.8,3.3,5.4,3C5.2,2.7,5,2.6,4.7,2.6z
		"/>
</g>
</svg>
