<?xml version="1.0" encoding="utf-8"?>
<!-- Generator: Adobe Illustrator 19.0.0, SVG Export Plug-In . SVG Version: 6.00 Build 0)  -->
<svg version="1.1" id="Layer_1" xmlns="http://www.w3.org/2000/svg" xmlns:xlink="http://www.w3.org/1999/xlink" x="0px" y="0px"
	 viewBox="0 0 30.6 29.3" style="enable-background:new 0 0 30.6 29.3;" xml:space="preserve">
<style type="text/css">
	.{{$ctrl.id}}{fill:{{$ctrl.fill}};}
</style>
<g>
	<g>
		<path ng-class="{ '{{$ctrl.id}}': true}" d="M21.2,14.7c-2-0.8-3.8-4.4-4.8-6.9C14.5,2.9,12.6-0.1,7.3,0C0.4,0.2,0,6.5,0,6.5v21.2c0,0.9,0.7,1.6,1.6,1.6
			h26.8c0.9,0,1.8-0.7,1.9-1.6c0.6-3.6,1.2-12-5.2-12.3C23.4,15.4,22.2,15.1,21.2,14.7L21.2,14.7z M28.5,27.8H1.3v-6h1.6v4.4h1.7
			v-4.4h1.4v4.4h1.7v-4.4H9v4.4h1.7v-4.4h1.4v4.4h1.7v-4.4h1.4v4.4h1.7v-4.4h1.4v4.4H20v-4.4h1.4v4.4H23v-4.4h1.4v4.4h1.7v-4.4h2.4
			V27.8z M28.5,27.8"/>
	</g>
</g>
</svg>
