<?xml version="1.0" encoding="utf-8"?>
<!-- Generator: Adobe Illustrator 19.0.0, SVG Export Plug-In . SVG Version: 6.00 Build 0)  -->
<svg version="1.1" id="Layer_1" xmlns="http://www.w3.org/2000/svg" xmlns:xlink="http://www.w3.org/1999/xlink" x="0px" y="0px"
	 viewBox="196.6 382 20.9 30" style="enable-background:new 196.6 382 20.9 30;" xml:space="preserve">
<style type="text/css">
	.{{$ctrl.id}}{fill:{{$ctrl.fill}};}
</style>
<g>
	<path ng-class="{ '{{$ctrl.id}}': true}" d="M206.2,411.7C206.2,411.7,206.2,411.7,206.2,411.7C206.2,411.7,206.2,411.7,206.2,411.7L206.2,411.7z"/>
	<path ng-class="{ '{{$ctrl.id}}': true}" d="M212.3,399.1c-0.2,0.1-0.5,0.1-0.7,0.2c-0.1,0-0.1,0-0.2,0l0,0c-3,1.1-5.8,2.8-8.1,5.1c-0.5,0.5-1.2,0.5-1.7,0
		c-0.4-0.5-0.4-1.2,0-1.6l13.6-14.8l0.5-0.6c1.2-1.2,1.2-3.2,0-4.5s-3.2-1.2-4.5,0l-0.8,0.8l-0.3-0.3c-0.4-0.4-1.1-0.4-1.5,0l0,0
		c-0.4,0.4-0.4,1.1,0,1.5l1.5,1.5c0.3,0.3,0.8,0.3,1.1,0l1.8-1.8c0.2-0.2,0.7-0.3,0.9,0c0.2,0.2,0.2,0.7,0,0.9c0,0-1,1-1.2,1.2
		l-2.5,2.3l-0.4-0.4c-0.4-0.4-1.1-0.5-1.6-0.1c-0.5,0.4-0.5,1.2,0,1.6l0.4,0.4l-0.7,0.7l-0.4-0.4c-0.4-0.4-1.1-0.5-1.6-0.1
		c-0.5,0.4-0.5,1.2,0,1.6l0.4,0.4l-0.8,0.8l-0.4-0.4c-0.4-0.4-1.1-0.5-1.6-0.1c-0.5,0.4-0.5,1.2,0,1.6l0.4,0.4l-0.7,0.7l-0.4-0.4
		c-0.4-0.4-1.1-0.5-1.6-0.1c-0.5,0.4-0.5,1.2,0,1.6l0.4,0.4l-3.3,3.3c-2.5,2.5-2.5,6.6,0,9.1c2.5,2.5,6.6,2.5,9.1,0l0.1-0.1
		c1.4-1.4,3.3-2.3,5.3-2.6c0.3,0.2,0.6,0.3,0.9,0.5C213.4,405.2,212.7,401.3,212.3,399.1z"/>
	<path ng-class="{ '{{$ctrl.id}}': true}" d="M217.4,407.3l-1.4-8c-0.1-0.7-0.8-1.2-1.5-1.1l0,0c-0.2,0-0.4,0.1-0.7,0.2c0,0.1,0.1,0.2,0.1,0.3l1.7,10
		c0.2,0.1,0.5,0,0.7,0l0,0C217.1,408.7,217.5,408,217.4,407.3z"/>
</g>
</svg>
