<?xml version="1.0" encoding="utf-8"?>
<!-- Generator: Adobe Illustrator 19.0.0, SVG Export Plug-In . SVG Version: 6.00 Build 0)  -->
<svg version="1.1" id="Layer_1" xmlns="http://www.w3.org/2000/svg" xmlns:xlink="http://www.w3.org/1999/xlink" x="0px" y="0px"
	 viewBox="0 0 30 30" style="enable-background:new 0 0 30 30;" xml:space="preserve">
<style type="text/css">
	.{{$ctrl.id}}{fill:{{$ctrl.fill}};}
</style>
<g>
	<path ng-class="{ '{{$ctrl.id}}': true}" d="M15,11.2c-2.1,0-3.8,1.7-3.8,3.8c0,2.1,1.7,3.8,3.8,3.8c2.1,0,3.8-1.7,3.8-3.8C18.8,12.9,17.1,11.2,15,11.2z"
		/>
	<path ng-class="{ '{{$ctrl.id}}': true}" d="M28.4,1.6c-8.8-2.1-18-2.1-26.8,0c-2.1,8.8-2.1,18,0,26.8c8.8,2.1,18,2.1,26.8,0C30.5,19.6,30.5,10.4,28.4,1.6
		z M4.5,3.3c0.7,0,1.3,0.6,1.3,1.3S5.2,5.8,4.5,5.8c-0.7,0-1.3-0.6-1.3-1.3S3.8,3.3,4.5,3.3z M4.5,26.7c-0.7,0-1.3-0.6-1.3-1.3
		c0-0.7,0.6-1.3,1.3-1.3c0.7,0,1.3,0.6,1.3,1.3C5.8,26.2,5.2,26.7,4.5,26.7z M15,25.7C9.1,25.7,4.3,20.9,4.3,15
		C4.3,9.1,9.1,4.3,15,4.3c5.9,0,10.7,4.8,10.7,10.7C25.7,20.9,20.9,25.7,15,25.7z M25.3,26.7c-0.7,0-1.3-0.6-1.3-1.3
		c0-0.7,0.6-1.3,1.3-1.3c0.7,0,1.3,0.6,1.3,1.3C26.5,26.2,26,26.7,25.3,26.7z M25.3,5.8c-0.7,0-1.3-0.6-1.3-1.3s0.6-1.3,1.3-1.3
		c0.7,0,1.3,0.6,1.3,1.3S26,5.8,25.3,5.8z"/>
</g>
</svg>
