<?xml version="1.0" encoding="utf-8"?>
<!-- Generator: Adobe Illustrator 19.0.0, SVG Export Plug-In . SVG Version: 6.00 Build 0)  -->
<svg version="1.1" id="Layer_1" xmlns="http://www.w3.org/2000/svg" xmlns:xlink="http://www.w3.org/1999/xlink" x="0px" y="0px"
	 viewBox="0 0 28.9 30" style="enable-background:new 0 0 28.9 30;" xml:space="preserve">
<style type="text/css">
	.{{$ctrl.id}}{fill:{{$ctrl.fill}};}
</style>
<g>
	<path ng-class="{ '{{$ctrl.id}}': true}" d="M28.3,10.8c0.3,0,0.5-0.2,0.6-0.5c0.1-0.3,0-0.5-0.2-0.7l-9.4-9.4C19.2,0.1,19.1,0,18.9,0c-0.1,0-0.2,0-0.2,0
		c-0.3,0.1-0.4,0.3-0.5,0.6c0,0.1-1,7.6-5,11.7l-12.9,13c-0.3,0.3-0.3,0.7,0,1l2.6,2.6C2.9,28.9,3.1,29,3.2,29
		c0.2,0,0.4-0.1,0.5-0.2l12.9-13C20.7,11.8,28.3,10.8,28.3,10.8L28.3,10.8z M28.3,10.8"/>
	<path ng-class="{ '{{$ctrl.id}}': true}" d="M10.3,13.2l1.4-1.4l-0.3-0.3c-0.4-0.4-1-0.4-1.4,0c-0.4,0.4-0.4,1,0,1.4L10.3,13.2z M10.3,13.2"/>
	<path ng-class="{ '{{$ctrl.id}}': true}" d="M7.9,15.6l1.4-1.4L9,13.9c-0.4-0.4-1-0.4-1.4,0c-0.4,0.4-0.4,1,0,1.4L7.9,15.6z M7.9,15.6"/>
	<path ng-class="{ '{{$ctrl.id}}': true}" d="M22.4,23.1c1.8-1.8,1.8-4.7,0-6.4L21.6,16c-0.4-0.4-1-0.8-1.5-1c-0.9,0.5-1.7,1.1-2.3,1.8
		c0.2-0.1,0.4-0.1,0.7-0.1c0.7,0,1.3,0.3,1.8,0.8l0.7,0.7c0.9,0.9,1,2.3,0.3,3.3l-4.1-4.1l-1.4,1.4l4.1,4.1l-1,1l-4.1-4.1l-1.4,1.4
		l4.1,4.1l-1,1l-4.1-4.1L11,23.5l4.1,4.1c-0.4,0.3-0.9,0.4-1.4,0.4c-0.7,0-1.3-0.3-1.8-0.8l-0.7-0.7c-0.7-0.7-0.9-1.6-0.7-2.5
		L8.5,26c0.2,0.7,0.6,1.4,1.2,2l0.7,0.7c0.9,0.9,2,1.3,3.2,1.3c1.2,0,2.4-0.5,3.2-1.3L22.4,23.1z M22.4,23.1"/>
	<path ng-class="{ '{{$ctrl.id}}': true}" d="M5.5,18l1.4-1.4l-0.3-0.3c-0.4-0.4-1-0.4-1.4,0c-0.4,0.4-0.4,1,0,1.4L5.5,18z M5.5,18"/>
</g>
</svg>
