<?xml version="1.0" encoding="utf-8"?>
<!-- Generator: Adobe Illustrator 19.0.0, SVG Export Plug-In . SVG Version: 6.00 Build 0)  -->
<svg version="1.1" id="Layer_1" xmlns="http://www.w3.org/2000/svg" xmlns:xlink="http://www.w3.org/1999/xlink" x="0px" y="0px"
	 viewBox="0 0 30 30" style="enable-background:new 0 0 30 30;" xml:space="preserve">
<style type="text/css">
	.{{$ctrl.id}}{fill:{{$ctrl.fill}};}
</style>
<g>
	<path ng-class="{ '{{$ctrl.id}}': true}" d="M15,0C6.7,0,0,6.7,0,15s6.7,15,15,15c8.3,0,15-6.7,15-15S23.3,0,15,0L15,0z M4.2,16H3.5c0-3.4,1.2-6.5,3.3-8.9
		C7,7.3,7.1,7.4,7.3,7.6C5.3,9.9,4.2,12.8,4.2,16L4.2,16z M6.3,16H5.7c0-2.8,1-5.4,2.7-7.4l0.4,0.4C7.3,11,6.3,13.4,6.3,16L6.3,16z
		 M15,20.9c-3.3,0-5.9-2.7-5.9-5.9c0-3.3,2.7-5.9,5.9-5.9c3.3,0,5.9,2.7,5.9,5.9C20.9,18.3,18.3,20.9,15,20.9L15,20.9z M21.4,21.4
		c1.5-1.9,2.5-4.3,2.5-6.9h0.6c0,2.8-1,5.4-2.7,7.4L21.4,21.4z M23.4,23.4L22.9,23c1.9-2.3,3.1-5.2,3.1-8.5h0.6
		C26.7,17.9,25.4,21,23.4,23.4L23.4,23.4z M17,15c0,1.1-0.9,2-2,2c-1.1,0-2-0.9-2-2c0-1.1,0.9-2,2-2C16.1,13,17,13.9,17,15L17,15z
		 M17,15"/>
</g>
</svg>
