<?xml version="1.0" encoding="utf-8"?>
<!-- Generator: Adobe Illustrator 19.0.0, SVG Export Plug-In . SVG Version: 6.00 Build 0)  -->
<svg version="1.1" id="Layer_1" xmlns="http://www.w3.org/2000/svg" xmlns:xlink="http://www.w3.org/1999/xlink" x="0px" y="0px"
	 viewBox="0 0 18.5 30" style="enable-background:new 0 0 18.5 30;" xml:space="preserve">
<style type="text/css">
	.st0{fill-rule:evenodd;clip-rule:evenodd;fill:#FFFFFF;}
</style>
<path ng-class="{ '{{$ctrl.id}}': true}" d="M8.8,0c1.8,0,3.3,2.4,4.3,5.9c0.4,1.5,0.8,3.2,1.1,4.9c1.2-1,2.6-1.8,4.3-2.1c-1.4,2.4-1.7,3.9-2.1,6.4
	c-0.5,3.7-0.9,9.7-2.6,11c-0.6,0.5-1.3,0.8-1.9,1c-0.7,0.8-0.9,1.5-1.1,2.8c-1.1,0-2.3,0-3.4,0c0.1-1.3-0.2-1.9-0.9-2.5
	c-0.8-0.1-1.7-0.6-2.5-1.5c-1.4-1.7-1.8-9.1-2.2-13.6C1.5,9.2,1.1,7.4,0,4.4c1.6,1.1,2.9,2.1,4,3.2C4.1,7,4.3,6.4,4.4,5.9
	C5.5,2.4,7,0,8.8,0L8.8,0z M9.9,16.1l-1,0L9,18.1l1,0L9.9,16.1L9.9,16.1z M9.3,2.8l-1,0l0,1.9l1,0L9.3,2.8L9.3,2.8z M10.2,5.4l-1,0
	l0,1.9l1,0L10.2,5.4L10.2,5.4z M8.4,5.3l-1,0l0,1.9l1,0L8.4,5.3L8.4,5.3z M7.5,7.9l-1,0L6.4,9.8l1,0L7.5,7.9L7.5,7.9z M9.3,7.9l-1,0
	l0,1.9l1,0L9.3,7.9L9.3,7.9z M11.1,7.8l-1,0.1l0.2,1.9l1-0.1L11.1,7.8L11.1,7.8z M8.4,13.2l-0.1,1.9l-0.4,0
	c0.6,2.9,0.7,6.3,0.7,10.7c0.1,0,0.1,0,0.2,0c0.4,0,0.9,0,1.2-0.2c0-2.7,0-5-0.2-7c0.4-1.3,0.8-2.5,1.4-3.6L11,15l-0.1-1.9l1,0
	l0,0.6c0.2-0.3,0.4-0.6,0.6-0.9c-0.3-2.2-0.7-4.5-1.3-6.4c-0.8-2.6-1.6-4.5-2.4-4.5S7.2,3.8,6.4,6.4c-0.3,1-0.6,2.1-0.8,3.2
	c0.3,0.5,0.7,1,0.9,1.6l0-0.6l1,0l0,1.9l-0.4,0c0.1,0.2,0.2,0.4,0.2,0.7L8.4,13.2L8.4,13.2z M10.2,13.1l-1,0l0.1,1.9l1,0L10.2,13.1
	L10.2,13.1z M9.3,10.6l-1,0l0,1.9l1,0L9.3,10.6L9.3,10.6z M11.1,10.5l-1,0l0.1,1.9l1,0L11.1,10.5z"/>
</svg>
