<?xml version="1.0" encoding="utf-8"?>
<!-- Generator: Adobe Illustrator 19.0.0, SVG Export Plug-In . SVG Version: 6.00 Build 0)  -->
<svg version="1.1" id="Layer_1" xmlns="http://www.w3.org/2000/svg" xmlns:xlink="http://www.w3.org/1999/xlink" x="0px" y="0px"
	 viewBox="0 0 28.2 30" style="enable-background:new 0 0 28.2 30;" xml:space="preserve">
<style type="text/css">
	.st0{fill-rule:evenodd;clip-rule:evenodd;fill:#FFFFFF;}
</style>
<path ng-class="{ '{{$ctrl.id}}': true}" d="M17.8,8.2c2.9-4.2,10.2-4,10.4,1c0.1,3.2-2.9,5-6.5,5.5c2.9,1.5,6.4,1.9,6.5,5.5c0.2,5.7-7.8,5.5-10.4,1.3
	c4.9,11.5-12.3,11-7.5,0.3c-1.4,0.1-2.6,2.6-4.2,2.9c-8.1,1.7-7.6-10.1,0.3-9.7C3.8,13.7,0.1,13.2,0,9.8C-0.2,4,7.3,3.9,10.4,8.2
	C5.2-2.7,23-2.8,17.8,8.2z M13.9,19.9c6.3,0.1,6.9-11-0.6-9.7C7.4,11.2,8.3,19.8,13.9,19.9z"/>
</svg>
