<?xml version="1.0" encoding="utf-8"?>
<!-- Generator: Adobe Illustrator 19.0.0, SVG Export Plug-In . SVG Version: 6.00 Build 0)  -->
<svg version="1.1" id="Layer_1" xmlns="http://www.w3.org/2000/svg" xmlns:xlink="http://www.w3.org/1999/xlink" x="0px" y="0px"
	 viewBox="0 0 30.6 30" style="enable-background:new 0 0 30.6 30;" xml:space="preserve">
<style type="text/css">
	.{{$ctrl.id}}{fill:{{$ctrl.fill}};}
</style>
<g>
	<path ng-class="{ '{{$ctrl.id}}': true}" d="M15.3,14.5c-1,0-1.9,0.8-1.9,1.9c0,1,0.8,1.9,1.9,1.9s1.9-0.8,1.9-1.9C17.2,15.3,16.4,14.5,15.3,14.5
		L15.3,14.5z M15.3,14.5"/>
	<path ng-class="{ '{{$ctrl.id}}': true}" d="M25.5,21.6c-0.3-0.5-0.7-1-1.1-1.4c-0.7,0.2-1.4,0.3-2.1,0.3c-1.6,0-3.4-0.4-5.2-1.3c-0.3,0.2-0.6,0.3-0.9,0.4
		v4.6c0.4,0.9,0.8,1.8,1.3,2.6c1.4,2.1,2.9,3.2,4.5,3.2c0.8,0,1.7-0.3,2.7-0.9c1.2-0.8,1.9-1.7,2.1-2.8C27.1,25,26.7,23.4,25.5,21.6
		L25.5,21.6z M25.5,21.6"/>
	<path ng-class="{ '{{$ctrl.id}}': true}" d="M13.5,19.1c-1.7,0.9-3.4,1.4-4.9,1.4c-0.7,0-1.4-0.1-2-0.2c-0.4,0.4-0.7,0.8-1,1.3c-1.2,1.8-1.6,3.4-1.4,4.7
		c0.2,1.1,0.9,2,2.1,2.8C7.2,29.7,8.1,30,9,30c1.6,0,3.1-1.1,4.5-3.2c0.5-0.8,1-1.7,1.4-2.7v-4.5C14.3,19.6,13.9,19.4,13.5,19.1
		L13.5,19.1z M13.5,19.1"/>
	<path ng-class="{ '{{$ctrl.id}}': true}" d="M12,16.4c0-1.2,0.7-2.3,1.7-2.9c-1.3-2.1-3-3.4-5-3.9C5.1,8.8,1.3,11.1,0,11.9c0.6,1.4,2.6,5.4,6,6.7
		c2,0.7,4.1,0.5,6.4-0.6C12.2,17.5,12,17,12,16.4L12,16.4z M12,16.4"/>
	<path ng-class="{ '{{$ctrl.id}}': true}" d="M20.1,7.7C19.8,4,16.5,1,15.3,0c-1.2,1-4.4,4-4.7,7.7c0,0.3,0,0.7,0,1c1.8,0.8,3.3,2.2,4.5,4.3
		c0.1,0,0.1,0,0.2,0c0.1,0,0.2,0,0.3,0c1.2-2.1,2.6-3.6,4.4-4.4C20.1,8.3,20.1,8,20.1,7.7L20.1,7.7z M20.1,7.7"/>
	<path ng-class="{ '{{$ctrl.id}}': true}" d="M21.8,9.6c-1.9,0.5-3.5,1.8-4.8,3.9c1,0.6,1.6,1.6,1.6,2.9c0,0.6-0.2,1.2-0.5,1.7c2.4,1.1,4.6,1.3,6.6,0.4
		c3.4-1.4,5.3-5.5,5.8-6.9C29.3,10.8,25.4,8.7,21.8,9.6L21.8,9.6z M21.8,9.6"/>
</g>
</svg>
