<?xml version="1.0" encoding="utf-8"?>
<!-- Generator: Adobe Illustrator 19.0.0, SVG Export Plug-In . SVG Version: 6.00 Build 0)  -->
<svg version="1.1" id="Layer_1" xmlns="http://www.w3.org/2000/svg" xmlns:xlink="http://www.w3.org/1999/xlink" x="0px" y="0px"
	 viewBox="0 0 40.3 30" style="enable-background:new 0 0 40.3 30;" xml:space="preserve">
<style type="text/css">
	.{{$ctrl.id}}{fill:{{$ctrl.fill}};}
</style>
<g>
	<path ng-class="{ '{{$ctrl.id}}': true}" d="M20.2,8.6c1.4-1.6,3.1-2.9,5-3.9c-1.3-1.9-3-3.5-5-4.7c-2,1.2-3.7,2.8-5,4.7C17.1,5.7,18.8,7,20.2,8.6
		L20.2,8.6z M20.2,8.6"/>
	<g>
		<path ng-class="{ '{{$ctrl.id}}': true}" d="M15.1,15.9c1.9,0.9,3.6,2.1,5.1,3.6c1.5-1.5,3.2-2.7,5.1-3.6c2.6-1.2,5.3-1.9,8.2-1.9c0-3.3-1-6.5-2.9-9.1
			c-4,0.5-7.8,2.6-10.3,6c-2.5-3.4-6.3-5.5-10.3-6c-1.9,2.6-3,5.8-2.9,9.1C9.8,14,12.5,14.6,15.1,15.9L15.1,15.9z M15.1,15.9"/>
		<path ng-class="{ '{{$ctrl.id}}': true}" d="M25.9,17.5c-2.3,1.1-4.2,2.6-5.7,4.5c-1.5-1.8-3.5-3.4-5.7-4.5c-4.7-2.3-10-2.2-14.4-0.3
			c1.3,4.7,4.5,8.8,9.2,11.1c3.5,1.7,7.4,2.1,11,1.4c3.6,0.7,7.4,0.3,11-1.4c4.7-2.3,7.9-6.4,9.2-11.1
			C35.9,15.2,30.6,15.2,25.9,17.5L25.9,17.5z M25.9,17.5"/>
	</g>
</g>
</svg>
