<?xml version="1.0" encoding="utf-8"?>
<!-- Generator: Adobe Illustrator 19.0.0, SVG Export Plug-In . SVG Version: 6.00 Build 0)  -->
<svg version="1.1" id="Layer_1" xmlns="http://www.w3.org/2000/svg" xmlns:xlink="http://www.w3.org/1999/xlink" x="0px" y="0px"
	 viewBox="0 0 36.9 30" style="enable-background:new 0 0 36.9 30;" xml:space="preserve">
<style type="text/css">
	.{{$ctrl.id}}{fill:{{$ctrl.fill}};}
</style>
<g>
	<path ng-class="{ '{{$ctrl.id}}': true}" d="M7.5,21c0.1-3.2,0.3-7.4-1.8-10.7c-1,0.2-2.4,0.5-3.8,0.6c-0.6,0.1-1.4,0.2-1.7,0.8c-0.3,0.5-0.1,1.4,0.5,2.3
		c0.7,1,1.3,2,1.8,3c1.6,2.6,3,5,5.2,7.5c-0.2-0.8-0.2-1.6-0.2-2.4C7.4,21.8,7.4,21.4,7.5,21L7.5,21z M7.5,21"/>
	<path ng-class="{ '{{$ctrl.id}}': true}" d="M14.1,1.2c0,0.1,0.3,0.4,1.2,0.7c0.9,0.3,2.2,0.5,3.5,0.5c1.3,0,2.5-0.2,3.5-0.5c0.9-0.3,1.2-0.6,1.2-0.7
		c0-0.1-0.3-0.4-1.2-0.7C21.3,0.2,20.1,0,18.8,0c-1.3,0-2.5,0.2-3.5,0.5C14.4,0.8,14.1,1.1,14.1,1.2L14.1,1.2z M14.1,1.2"/>
	<path ng-class="{ '{{$ctrl.id}}': true}" d="M18.8,5.5c2.6,0,5-0.2,6.9-0.7c2-0.5,2.6-1,2.7-1.2c-0.1-0.2-0.7-0.7-2.7-1.2c-0.3-0.1-0.7-0.1-1-0.2
		C23.7,3.5,21.2,4,18.8,4c-2.4,0-4.9-0.6-5.9-1.8c-0.3,0.1-0.7,0.1-1,0.2c-2,0.5-2.6,1-2.7,1.2c0.1,0.2,0.7,0.7,2.7,1.2
		C13.8,5.3,16.2,5.5,18.8,5.5L18.8,5.5z M18.8,5.5"/>
	<path ng-class="{ '{{$ctrl.id}}': true}" d="M15.6,7c1.3,0.4,2.5,0.8,3.7,1.4C19.9,8.7,20.5,9,21,9.3c0.7-0.7,1.9-1.7,3.9-2.7c-2,0.4-4.3,0.5-6.1,0.5
		C17.8,7.1,16.7,7.1,15.6,7L15.6,7z M15.6,7"/>
	<path ng-class="{ '{{$ctrl.id}}': true}" d="M31.3,8.5c0.4-0.9,0.3-1.7-0.1-2.1C30.9,6.1,30.5,6,30,6.2c-4.3,1.5-6.6,3.1-7.7,4.1c1.1,0.9,2.1,1.9,2.9,2.9
		c1.2,1.7,2.1,3.7,2.5,5.9C29,14.3,30.8,9.6,31.3,8.5L31.3,8.5z M31.3,8.5"/>
	<path ng-class="{ '{{$ctrl.id}}': true}" d="M9,22.2c-0.1,2.2,0.6,4,1.9,5.4c1.5,1.6,4,2.5,7,2.5c3.1,0,5.4-0.7,6.8-2.2c1.3-1.3,1.9-3.4,1.8-6
		c-0.2-5.6-2.9-9.6-7.8-12c-3.1-1.5-7.2-2.4-11.8-2.5c0,0,0,0,0,0C6.4,7.3,6.1,7.4,6,7.6C5.9,7.9,6,8.2,6.3,8.6
		c3.1,3.9,2.9,9.1,2.7,12.5C9,21.5,9,21.8,9,22.2L9,22.2z M9,22.2"/>
	<path ng-class="{ '{{$ctrl.id}}': true}" d="M34.5,17.1c0.6-1,1.2-2,1.8-3c0.6-0.9,0.8-1.8,0.5-2.3c-0.3-0.6-1.1-0.8-1.7-0.8c-1.1-0.1-2.1-0.3-3-0.4
		c-1.3,3.3-3.9,10.8-4.5,15.8C30.8,23.2,32.5,20.3,34.5,17.1L34.5,17.1z M34.5,17.1"/>
</g>
</svg>
