<?xml version="1.0" encoding="utf-8"?>
<!-- Generator: Adobe Illustrator 19.0.0, SVG Export Plug-In . SVG Version: 6.00 Build 0)  -->
<svg version="1.1" id="Layer_1" xmlns="http://www.w3.org/2000/svg" xmlns:xlink="http://www.w3.org/1999/xlink" x="0px" y="0px"
	 viewBox="0 0 27.6 30" style="enable-background:new 0 0 27.6 30;" xml:space="preserve">
<style type="text/css">
	.{{$ctrl.id}}{fill:{{$ctrl.fill}};}
</style>
<g>
	<path ng-class="{ '{{$ctrl.id}}': true}" d="M16.9,13.3c0.2,0.4,0.5,0.8,0.8,1.1c1.8-1.8,4.7-2.3,7-0.9c0.5,0.3,0.9,0.6,1.3,1c1.7-1.8,2.2-4.5,0.9-6.8
		c-1.5-2.8-5-3.8-7.8-2.2C16.3,7,15.3,10.5,16.9,13.3L16.9,13.3z M16.9,13.3"/>
	<path ng-class="{ '{{$ctrl.id}}': true}" d="M24.7,14.8c-2.7-1.6-6.2-0.7-7.9,2c-0.2,0.4-0.4,0.8-0.6,1.2c2.5,0.6,4.3,2.9,4.3,5.6c0,0.6-0.1,1.1-0.3,1.6
		c2.4,0.6,5-0.4,6.4-2.6C28.3,19.9,27.4,16.4,24.7,14.8L24.7,14.8z M24.7,14.8"/>
	<path ng-class="{ '{{$ctrl.id}}': true}" d="M13.8,18.5c-0.5,0-0.9,0-1.4,0.1c0.7,2.5-0.4,5.2-2.7,6.5c-0.5,0.3-1,0.5-1.5,0.6C8.8,28.2,11,30,13.6,30
		c3.2,0,5.8-2.5,5.8-5.7C19.5,21.2,17,18.6,13.8,18.5L13.8,18.5z M13.8,18.5"/>
	<path ng-class="{ '{{$ctrl.id}}': true}" d="M10.8,16.7c-0.2-0.4-0.5-0.8-0.8-1.1c-1.8,1.8-4.7,2.3-7,0.9c-0.5-0.3-0.9-0.6-1.3-1c-1.7,1.8-2.2,4.5-0.9,6.8
		c1.5,2.8,5,3.8,7.8,2.2C11.3,23,12.3,19.5,10.8,16.7L10.8,16.7z M10.8,16.7"/>
	<path ng-class="{ '{{$ctrl.id}}': true}" d="M2.9,15.2c2.7,1.6,6.2,0.7,7.9-2c0.2-0.4,0.4-0.8,0.6-1.2C8.8,11.3,7,9,7,6.3c0-0.6,0.1-1.1,0.3-1.6
		c-2.4-0.6-5,0.4-6.4,2.6C-0.7,10.1,0.2,13.6,2.9,15.2L2.9,15.2z M2.9,15.2"/>
	<path ng-class="{ '{{$ctrl.id}}': true}" d="M13.8,11.5c0.5,0,0.9,0,1.4-0.1c-0.7-2.5,0.4-5.2,2.7-6.5c0.5-0.3,1-0.5,1.5-0.6C18.8,1.8,16.6,0,14,0
		c-3.2,0-5.8,2.5-5.8,5.6C8.1,8.8,10.7,11.4,13.8,11.5L13.8,11.5z M13.8,11.5"/>
	<path ng-class="{ '{{$ctrl.id}}': true}" d="M16.1,15c0,1.3-1,2.3-2.3,2.3c-1.3,0-2.3-1-2.3-2.3c0-1.3,1-2.3,2.3-2.3C15.1,12.7,16.1,13.7,16.1,15L16.1,15z
		 M16.1,15"/>
</g>
</svg>
