<?xml version="1.0" encoding="utf-8"?>
<!-- Generator: Adobe Illustrator 19.0.0, SVG Export Plug-In . SVG Version: 6.00 Build 0)  -->
<svg version="1.1" id="Layer_1" xmlns="http://www.w3.org/2000/svg" xmlns:xlink="http://www.w3.org/1999/xlink" x="0px" y="0px"
	 viewBox="0 0 17.1 30" style="enable-background:new 0 0 17.1 30;" xml:space="preserve">
<style type="text/css">
	.{{$ctrl.id}}{fill:{{$ctrl.fill}};}
</style>
<g>
	<g>
		<path ng-class="{ '{{$ctrl.id}}': true}" d="M15.5,21.1H2.7c-0.2,0-0.4,0.1-0.5,0.2C2,21.5,1.9,21.7,2,21.9l1.3,7.4C3.3,29.7,3.6,30,4,30h10
			c0.4,0,0.8-0.3,0.8-0.7l1.3-7.4l0,0c0-0.2,0-0.4-0.2-0.6C15.9,21.2,15.7,21.1,15.5,21.1L15.5,21.1z M15.5,21.1"/>
		<path ng-class="{ '{{$ctrl.id}}': true}" d="M16.3,15.4h-7v-3.7c0,0,0,0,0,0c0.4-0.4,1.1-0.6,1.9-0.9c1.4-0.5,3.2-1,4.3-3.1c0.6-1.1,0.9-2.6,0.9-4.2
			c0-1.3-0.3-2.6-0.6-3.1C15.6,0.1,15.5,0,15.3,0c-0.1,0-0.3,0-0.4,0.2c-0.3,0.4-1.1,0.7-1.9,0.9c-1.4,0.4-3.2,1-4.3,3
			c-0.5,1-0.8,2.2-0.9,3.4C7.6,7,7.3,6.6,6.8,6.2C5.3,5,3.1,4.6,1.6,4.6C0.7,4.6,0.2,4.8,0,5.1c0,0.1-0.1,0.3,0.1,0.5
			c0.3,0.4,0.4,1,0.5,1.8c0.1,1.3,0.3,2.9,1.9,4.2c1.4,1.2,3.5,1.6,5,1.6c0.2,0,0.4,0,0.7,0v2.3H1.8c-0.4,0-0.8,0.3-0.8,0.8v2.9
			c0,0.4,0.3,0.8,0.8,0.8h14.5c0.4,0,0.8-0.3,0.8-0.8v-2.9C17.1,15.8,16.8,15.4,16.3,15.4L16.3,15.4z M7,11L7,11L7,11L7,11
			C7,10.9,7,10.9,7,11L7,11L7,11c-0.1-0.1-0.1-0.1-0.1-0.1c-0.1-0.1-0.1-0.1-0.2-0.2c-0.3-0.2-0.7-0.4-1-0.6
			C5.3,9.8,4.9,9.6,4.5,9.4C4.3,9.3,4.2,9.2,4,9C3.8,8.9,3.7,8.8,3.6,8.6C3.5,8.5,3.4,8.3,3.3,8.2c0,0,0-0.1,0-0.1c0,0,0-0.1,0-0.1
			c0-0.1,0-0.1,0-0.2c0-0.1,0-0.1,0-0.1c0,0,0-0.1,0-0.1c0-0.1,0-0.1,0-0.1s0,0,0,0.1c0,0,0,0.1,0.1,0.1c0,0,0,0.1,0.1,0.1
			c0,0,0.1,0.1,0.1,0.1c0,0,0.1,0.1,0.1,0.1c0,0,0,0,0.1,0.1c0,0,0.1,0,0.1,0.1c0,0,0.1,0,0.1,0.1c0,0,0.1,0,0.1,0.1
			C4,8.4,4.2,8.5,4.3,8.5c0.2,0.1,0.3,0.2,0.5,0.2C5.2,8.9,5.6,9.1,6,9.3c0.2,0.1,0.4,0.2,0.6,0.4C6.8,9.8,7,9.9,7.2,10.1
			c0.1,0.1,0.2,0.2,0.2,0.3c0,0,0.1,0.1,0.1,0.1l0,0l0,0c0,0,0,0,0,0l0,0l0,0l0,0c0,0,0,0,0,0.1c0.1,0.2,0.2,0.3,0.3,0.5
			c0,0.1,0.1,0.1,0.1,0.2c0,0.1,0.1,0.1,0.1,0.2c0,0,0,0.1,0.1,0.1v0.3c0,0,0,0,0,0c-0.1-0.1-0.2-0.1-0.3-0.2
			c-0.1-0.1-0.2-0.2-0.3-0.3C7.4,11.3,7.2,11.1,7,11C7.1,11,7.1,11,7,11L7,11z M10.3,9.2L10.3,9.2L10.3,9.2L10.3,9.2
			C10.3,9.2,10.3,9.2,10.3,9.2L10.3,9.2L10.3,9.2c0.1-0.1,0.1-0.1,0.1-0.2c0.1-0.1,0.1-0.2,0.2-0.3c0.2-0.4,0.4-0.8,0.6-1.3
			c0.2-0.5,0.3-0.9,0.5-1.4c0.1-0.2,0.2-0.4,0.3-0.6c0.1-0.2,0.2-0.4,0.4-0.5c0.1-0.2,0.3-0.3,0.4-0.4c0,0,0.1,0,0.1-0.1
			c0,0,0.1,0,0.1-0.1c0.1,0,0.1-0.1,0.2-0.1c0.1,0,0.1,0,0.2,0c0,0,0.1,0,0.1,0c0.1,0,0.1,0,0.1,0l-0.1,0.1c0,0-0.1,0-0.1,0.1
			c0,0-0.1,0.1-0.1,0.1c0,0-0.1,0.1-0.1,0.1c0,0,0,0-0.1,0.1c0,0,0,0.1-0.1,0.1c0,0,0,0.1-0.1,0.1c0,0,0,0.1-0.1,0.1
			c0,0,0,0.1-0.1,0.1c0,0,0,0,0,0.1c0,0,0,0,0,0.1c-0.1,0.2-0.2,0.3-0.2,0.5c-0.1,0.2-0.1,0.4-0.2,0.6c-0.1,0.4-0.3,0.9-0.4,1.4
			c-0.1,0.2-0.2,0.5-0.3,0.7c-0.1,0.2-0.3,0.5-0.4,0.7c-0.1,0.1-0.2,0.2-0.2,0.3c0,0-0.1,0.1-0.1,0.1l0,0l0,0l0,0l0,0l0,0l0,0
			c0,0,0,0-0.1,0.1c-0.1,0.1-0.2,0.1-0.2,0.2c-0.1,0.1-0.2,0.1-0.2,0.2c-0.1,0.1-0.2,0.1-0.2,0.2c-0.1,0.1-0.1,0.1-0.2,0.1
			c-0.1,0.1-0.2,0.2-0.3,0.2c-0.2,0.1-0.3,0.2-0.3,0.2s0.1-0.1,0.2-0.3c0.1-0.1,0.1-0.2,0.2-0.3c0.1-0.1,0.2-0.3,0.3-0.4
			C10,9.6,10.1,9.5,10.3,9.2C10.3,9.3,10.3,9.2,10.3,9.2L10.3,9.2z M10.3,9.2"/>
	</g>
</g>
</svg>
