<?xml version="1.0" encoding="utf-8"?>
<!-- Generator: Adobe Illustrator 19.0.0, SVG Export Plug-In . SVG Version: 6.00 Build 0)  -->
<svg version="1.1" id="Layer_1" xmlns="http://www.w3.org/2000/svg" xmlns:xlink="http://www.w3.org/1999/xlink" x="0px" y="0px"
	 viewBox="0 0 21 30" style="enable-background:new 0 0 21 30;" xml:space="preserve">
<style type="text/css">
	.{{$ctrl.id}}{fill:{{$ctrl.fill}};}
</style>
<path ng-class="{ '{{$ctrl.id}}': true}" d="M15.9,0.2C16.2,2.4,5.3,5.3,2.6,11.7c-2.1,4.9,0.6,9,3.5,11c-5.4,7.9-5.6,6.2-6,6.7L3.1,30c0,0,5.2-8.8,5.7-9.7
	c0,0-1.4-1.3-2.6-2.7c-0.3-0.4-0.6-0.7-0.8-1.1c-0.2-0.4-0.4-0.7-0.6-1.1c-0.1-0.2-0.1-0.3-0.1-0.5c0-0.1-0.1-0.3-0.1-0.4
	c0-0.2,0-0.3,0-0.3s0,0.1,0,0.3c0,0.1,0.1,0.2,0.1,0.3c0,0.1,0.1,0.3,0.2,0.4c0.2,0.3,0.4,0.6,0.7,1c0.3,0.3,0.6,0.7,0.9,1
	c0.7,0.6,1.4,1.2,1.9,1.6c0.4,0.3,0.6,0.5,0.8,0.6c0.5-0.9,1.1-1.9,1.6-3l0,0c0,0-1.1-1-2-2.1c-0.2-0.3-0.4-0.6-0.6-0.9
	c-0.2-0.3-0.3-0.6-0.4-0.8c-0.1-0.1-0.1-0.2-0.1-0.3c0-0.1-0.1-0.2-0.1-0.3c0-0.2,0-0.2,0-0.2s0,0.1,0,0.2c0,0.1,0,0.2,0.1,0.3
	c0,0.1,0.1,0.2,0.1,0.3c0.1,0.2,0.3,0.5,0.5,0.7C8.5,13.8,8.8,14,9,14.3c0.5,0.5,1,0.9,1.5,1.3c0.3,0.2,0.5,0.4,0.6,0.4
	c0.6-1.1,1.1-2.3,1.7-3.5l-0.1,0.1c0,0-0.9-0.8-1.6-1.7c-0.2-0.2-0.3-0.5-0.5-0.7c-0.1-0.2-0.3-0.4-0.3-0.7c0-0.1-0.1-0.2-0.1-0.3
	c0-0.1,0-0.2,0-0.2c0-0.1,0-0.2,0-0.2s0,0.1,0,0.2c0,0.1,0,0.1,0.1,0.2c0,0.1,0.1,0.2,0.1,0.3c0.1,0.2,0.2,0.4,0.4,0.6
	c0.2,0.2,0.4,0.4,0.6,0.6c0.4,0.4,0.8,0.8,1.2,1c0.2,0.2,0.4,0.3,0.5,0.3c0,0,0,0,0,0c0,0,0.4-0.9,0.6-1.3c1.8-4.1,1.1-2.4-0.3,1.2
	c0.1,0,0.3,0,0.5,0c0.5,0,1.1-0.1,1.7-0.2c0.3-0.1,0.6-0.1,0.9-0.2c0.3-0.1,0.5-0.2,0.7-0.3c0.1-0.1,0.2-0.1,0.3-0.2
	c0.1-0.1,0.1-0.1,0.2-0.2c0.1-0.1,0.1-0.2,0.1-0.2s0,0.1-0.1,0.2c0,0.1-0.1,0.1-0.2,0.2c-0.1,0.1-0.2,0.1-0.3,0.2
	c-0.2,0.1-0.4,0.3-0.7,0.4c-0.3,0.1-0.6,0.2-0.9,0.3c-1.2,0.4-2.5,0.6-2.5,0.6l0-0.1c-0.4,1-0.8,2.1-1.3,3.2c0.1,0,0.3,0,0.5,0
	c0.6-0.1,1.4-0.1,2.2-0.3c0.4-0.1,0.8-0.2,1.1-0.3c0.4-0.1,0.7-0.2,0.9-0.4c0.1-0.1,0.2-0.1,0.3-0.2c0.1-0.1,0.2-0.1,0.2-0.2
	c0.1-0.1,0.2-0.2,0.2-0.2s-0.1,0.1-0.2,0.2c0,0.1-0.1,0.1-0.2,0.2c-0.1,0.1-0.2,0.2-0.3,0.3c-0.2,0.2-0.6,0.4-0.9,0.5
	c-0.4,0.2-0.7,0.3-1.1,0.4c-1.3,0.4-2.7,0.7-3.1,0.8c-0.4,1-1,2.1-1.4,3.1c0.2,0,0.5,0,0.7,0c0.7-0.1,1.6-0.2,2.5-0.3
	c0.4-0.1,0.9-0.2,1.3-0.3c0.4-0.1,0.8-0.3,1.1-0.4c0.2-0.1,0.3-0.2,0.4-0.2c0.1-0.1,0.2-0.2,0.3-0.2c0.1-0.2,0.2-0.2,0.2-0.2
	s-0.1,0.1-0.2,0.3c0,0.1-0.1,0.2-0.2,0.3c-0.1,0.1-0.2,0.2-0.4,0.3c-0.3,0.2-0.7,0.4-1.1,0.6c-0.4,0.2-0.8,0.3-1.3,0.5
	c-1.5,0.5-3.3,0.7-3.7,0.8c-0.5,1.2-1.3,2.4-1.7,3.3c3.6,1.3,9.9,1.6,12.4-4.3C23.1,13,15.7-2,15.9,0.2L15.9,0.2z M15.9,0.2"/>
</svg>
