<?xml version="1.0" encoding="utf-8"?>
<!-- Generator: Adobe Illustrator 19.0.0, SVG Export Plug-In . SVG Version: 6.00 Build 0)  -->
<svg version="1.1" id="Layer_1" xmlns="http://www.w3.org/2000/svg" xmlns:xlink="http://www.w3.org/1999/xlink" x="0px" y="0px"
	 viewBox="0 0 29.6 30" style="enable-background:new 0 0 29.6 30;" xml:space="preserve">
<style type="text/css">
	.st0{fill-rule:evenodd;clip-rule:evenodd;fill:#FFFFFF;}
</style>
<path ng-class="{ '{{$ctrl.id}}': true}" d="M16,18.8c-0.8,1.3,0.6,6.3-0.8,6.9c-2.6,1.2-8.9-3.2-12.2-2.6c0,0,3.6-4.8,7.3-4.2c1.7,0.2,1.5-0.1,1.5-0.5
	c0-0.6-1.2-0.6-1.8-0.2c-3.8,1.5-5.5-1.9-7.5-4.1C1.2,12.8,0,11.7,0,11.7c0,0,1.8-1.5,5.2-1.3c3.5,0.2,6.2,2.9,6.2,2.1
	c0.1-2.1-4.2-1.5-4.6-5.2C6.3,3.5,8.8,0,8.8,0s0.7-0.2,3.9,0.9c4.7,1.6,6,4.6,4.4,8.6c-0.6,1.6-0.1,2.6,0.9,1.7
	c2.5-5.2-1.1-7.1,5.5-10.5c1.2-0.6,1.2-0.6,1.2-0.6s2.9,5.6,1.7,9.5c-1.2,3.8-6.7,4-6.8,5.4c-0.1,1.3,0.2,1.3,1.2,0.2
	c1.7-1.9,5.7-3.2,9,0.3c-2.1,2.4-7.8,12.4-9.2,6.3C20.1,20,19,19,18.1,18.5C16.7,17.7,16.2,18.6,16,18.8L16,18.8z M18.8,30
	c2.9-3.6,0.7-6.9-0.9-9.5l-0.5,0.1c0.7,3.2,0.5,5.5-1.6,8.1L18.8,30z"/>
</svg>
