<?xml version="1.0" encoding="utf-8"?>
<!-- Generator: Adobe Illustrator 19.0.0, SVG Export Plug-In . SVG Version: 6.00 Build 0)  -->
<svg version="1.1" id="Layer_1" xmlns="http://www.w3.org/2000/svg" xmlns:xlink="http://www.w3.org/1999/xlink" x="0px" y="0px"
	 viewBox="0 0 28.7 30" style="enable-background:new 0 0 28.7 30;" xml:space="preserve">
<style type="text/css">
	.st0{fill-rule:evenodd;clip-rule:evenodd;fill:#FFFFFF;}
</style>
<g>
	<path ng-class="{ '{{$ctrl.id}}': true}" d="M14.2,1.9c1.6-3,6.7-2.2,6.9,1.6c0.3,4.3-5.3,7.8-6.6,9.5C10.5,12.6,3.4-0.7,11.7,0
		C12.8,0.1,13.7,0.6,14.2,1.9z"/>
	<path ng-class="{ '{{$ctrl.id}}': true}" d="M13.6,14.2c-1.3,3.2-4.4,10.8-9.5,9.1c-1.9-0.6-2.8-3.6-1.3-5.7c-1.4-1-2.7-1.7-2.8-3.5
		C-0.3,7.6,11.4,11.2,13.6,14.2z"/>
	<path ng-class="{ '{{$ctrl.id}}': true}" d="M25.9,17.4c2.1,2.7,0.4,6.4-3.5,6c-3.8-0.4-6.5-7.2-7.3-9.5c2.6-2.2,14-6.5,13.6,0.3
		C28.6,15.8,27.6,16.9,25.9,17.4z"/>
	<path ng-class="{ '{{$ctrl.id}}': true}" d="M13.6,15.8c0.3,0,0.6,0,0.9,0c2,3.4,1.8,8.9,4.7,11.4c-0.5,1.1-0.9,2.3-1.9,2.8C13.6,27.8,13.4,22,13.6,15.8z"
		/>
</g>
</svg>
