<?xml version="1.0" encoding="utf-8"?>
<!-- Generator: Adobe Illustrator 19.0.0, SVG Export Plug-In . SVG Version: 6.00 Build 0)  -->
<svg version="1.1" id="Layer_1" xmlns="http://www.w3.org/2000/svg" xmlns:xlink="http://www.w3.org/1999/xlink" x="0px" y="0px"
	 viewBox="0 0 26.6 30" style="enable-background:new 0 0 26.6 30;" xml:space="preserve">
<style type="text/css">
	.st0{fill-rule:evenodd;clip-rule:evenodd;fill:#FFFFFF;}
</style>
<path ng-class="{ '{{$ctrl.id}}': true}" d="M23.9,2.5c-4.8,1.3-8.2,3.8-11,7.1C13.5,2.7,17.4-1,26.5,0.2c0.9,7.6-2.2,14.8-11.9,14.4
	c-0.6,1.1-1.7,4.2-2,8.5c0.7,0.6,1.2,1.3,1.5,2.1c0.5-0.2,1.1-0.3,1.7-0.3c1.4,0,2.7,0.6,3.6,1.5c0.6-0.6,1.5-0.9,2.4-0.9
	c2,0,3.6,1.6,3.6,3.6c0,0.3,0,0.6-0.1,0.8H0v-0.1c0-2.1,1.7-3.9,3.9-3.9c0.1,0,0.3,0,0.4,0c0.5-2.4,2.6-4.1,5.1-4.1
	c0.2,0,0.4,0,0.6,0c0.2-0.8,0.4-1.6,0.6-2.5c-0.2-0.9-0.5-1.7-0.8-2.4c-6.9,0.3-9.1-4.9-8.5-10.3c6.5-0.9,9.3,1.7,9.7,6.7
	c-2-2.3-4.4-4.1-7.8-5c4.1,2.1,6.6,4.9,8.2,8.8C13.5,11.1,17.8,5,23.9,2.5z"/>
</svg>
