<?xml version="1.0" encoding="utf-8"?>
<!-- Generator: Adobe Illustrator 19.0.0, SVG Export Plug-In . SVG Version: 6.00 Build 0)  -->
<svg version="1.1" id="Layer_1" xmlns="http://www.w3.org/2000/svg" xmlns:xlink="http://www.w3.org/1999/xlink" x="0px" y="0px"
	 viewBox="0 0 27.5 30" style="enable-background:new 0 0 27.5 30;" xml:space="preserve">
<style type="text/css">
	.st0{fill-rule:evenodd;clip-rule:evenodd;fill:#FFFFFF;}
</style>
<path ng-class="{ '{{$ctrl.id}}': true}" d="M6.1,18.5c1.1,2,3.6,2.5,4.1,5.1c1.1-1.6,1.2-4.2,2.9-5.1c-2.9-2.8-2.2-7.9,0.6-10.5c2.1-2,6.3-2.2,8.6-4.5
	c1.4-1.4,1-2.7,2.9-3.5c5.2,7.6,1.3,24.1-8.9,20.4c0.1,0-1.9-1.6-1.9-1.6c-3.3,0.5-2.6,8.6-2.9,11.2c-2.3-1.4-0.6-6.9-2.9-8.3
	c-4.8,4-7.4-3.6-8.6-7.3c3.5-0.6,11.6,2.2,8.9,6.1C8.3,21.4,7.1,18.9,6.1,18.5z M21.7,10.2c-0.6-0.7,0.6-1.8-0.3-2.6
	c-0.4,1.5-0.6,2.3-0.3,3.8c-1.2,0.7-1.9,1.9-3.5,2.2c-0.3-1.8,0.3-2.6-0.3-3.8c0.6,4.3-2.5,6.3-3.5,8.6c1.9-2.1,4.7-3.4,8.3-3.8
	c-1.1-0.2-3,0.4-3.5-0.3c1.8-1.5,3.7-2.9,6.1-3.8c-1-0.2-1.1,0.6-2.2,0.3c0.7-1.2,2.2-3.3,1.6-4.8C23.4,7.7,22.7,9.1,21.7,10.2z"/>
</svg>
