<?xml version="1.0" encoding="utf-8"?>
<!-- Generator: Adobe Illustrator 19.0.0, SVG Export Plug-In . SVG Version: 6.00 Build 0)  -->
<svg version="1.1" id="Layer_1" xmlns="http://www.w3.org/2000/svg" xmlns:xlink="http://www.w3.org/1999/xlink" x="0px" y="0px"
	 viewBox="0 0 26 30" style="enable-background:new 0 0 26 30;" xml:space="preserve">
<style type="text/css">
	.{{$ctrl.id}}{fill:{{$ctrl.fill}};}
</style>
<g>
	<path ng-class="{ '{{$ctrl.id}}': true}" d="M15.1,26.2h-4.2c-0.5,0-0.8,0.4-0.8,0.8v2.1c0,0.5,0.4,0.8,0.8,0.8h4.2c0.5,0,0.8-0.4,0.8-0.8V27
		C15.9,26.6,15.6,26.2,15.1,26.2L15.1,26.2z M15.1,26.2"/>
	<path ng-class="{ '{{$ctrl.id}}': true}" d="M25.8,23.9L21.9,19h1.4c0.4,0,0.6-0.2,0.7-0.3c0.1-0.1,0.1-0.4-0.2-0.7l-4.5-5.3h1.9c0.5,0,0.6-0.2,0.7-0.3
		c0.1-0.1,0.1-0.4-0.2-0.7l-4.3-4.7h1c0.5,0,0.6-0.2,0.7-0.3c0.1-0.1,0.1-0.4-0.2-0.7l-5.1-5.5C13.6,0.1,13.3,0,13,0
		c-0.3,0-0.6,0.1-0.8,0.3L7.2,5.8C6.9,6.2,6.9,6.4,7,6.5C7,6.7,7.2,6.9,7.6,6.9h1l-4.3,4.7c-0.3,0.3-0.3,0.6-0.2,0.7
		c0.1,0.1,0.2,0.3,0.7,0.3h1.9l-4.5,5.3c-0.3,0.3-0.2,0.6-0.2,0.7C2.1,18.8,2.3,19,2.7,19h1.4l-3.9,4.9c-0.3,0.3-0.2,0.6-0.2,0.7
		C0.1,24.8,0.3,25,0.7,25h24.6c0.4,0,0.6-0.2,0.7-0.3C26,24.6,26.1,24.3,25.8,23.9L25.8,23.9z M25.8,23.9"/>
</g>
</svg>
