<svg xmlns="http://www.w3.org/2000/svg" xmlns:xlink="http://www.w3.org/1999/xlink" width="35" height="36" viewBox="0 0 35 36">
    <defs>
        <path id="a" d="M0 34.239V.529h34.458v33.71z"/>
    </defs>
    <g fill="none" fill-rule="evenodd">
        <g transform="translate(0 .232)">
            <mask id="b" fill="#fff">
                <use xlink:href="#a"/>
            </mask>
            <path fill="#000" d="M34.458 17.384c0 9.31-7.713 16.855-17.229 16.855C7.713 34.239 0 26.693 0 17.384 0 8.074 7.714.53 17.23.53s17.23 7.546 17.23 16.855" mask="url(#b)"/>
        </g>
        <path fill="#FFF" d="M.687 21.454h33.085c.2-.831.337-1.686.405-2.558H.281c.07.872.205 1.727.406 2.558M2.905 26.572h28.648c.53-.808.991-1.664 1.375-2.56H1.532c.382.896.844 1.752 1.373 2.56M8.173 31.689h18.113a16.937 16.937 0 0 0 3.205-2.558H4.968a16.942 16.942 0 0 0 3.205 2.558M26.288 3.544H8.171a16.882 16.882 0 0 0-3.205 2.558h24.526a16.877 16.877 0 0 0-3.204-2.558"/>
        <path fill="#BF0A30" d="M1.532 24.013h31.396c.35-.822.63-1.677.843-2.56H.687c.214.883.495 1.738.845 2.56M4.967 29.13h24.524a16.71 16.71 0 0 0 2.062-2.557H2.906a16.847 16.847 0 0 0 2.061 2.558M17.23 34.249c3.33 0 6.433-.94 9.056-2.56H8.173a17.191 17.191 0 0 0 9.056 2.56M.687 13.778h33.086a16.344 16.344 0 0 0-.845-2.559H1.53c-.35.822-.631 1.677-.844 2.56M.226 17.616c0 .43.022.856.056 1.28h33.895c.033-.424.055-.85.055-1.28 0-.432-.022-.858-.055-1.28H.282a16.15 16.15 0 0 0-.056 1.28M4.967 6.102c-.77.783-1.46 1.639-2.061 2.558h28.648a16.591 16.591 0 0 0-2.062-2.558H4.967zM17.23.983c-3.331 0-6.436.94-9.059 2.56h18.117a17.191 17.191 0 0 0-9.059-2.56"/>
        <path fill="#FFF" d="M.281 16.337h33.896a16.295 16.295 0 0 0-.404-2.559H.687c-.201.831-.337 1.684-.406 2.56M1.53 11.22h31.398a16.479 16.479 0 0 0-1.374-2.56H2.906c-.53.808-.992 1.662-1.376 2.56"/>
        <path fill="#002868" d="M17.218.983C7.833.988.226 8.433.226 17.614c0 .44.022.87.057 1.3h16.935V.983z"/>
        <path fill="#FFF" d="M1.263 11.882c-.023.06-.042.124-.065.186h.003l.062-.186zM1.077 12.418a24.05 24.05 0 0 0-.17.537l.177-.532-.007-.005zM1.898 17.955l-.502-.358-.504.358.191-.58-.501-.355h.62l.194-.577.19.577h.622l-.502.356zM4.175 15.459l-.503-.36-.502.36.192-.58-.505-.356h.622l.193-.576.191.576h.623l-.504.357zM4.028 9.809l.192.578-.502-.36-.503.36.192-.578-.503-.358h.623l.19-.576.193.576h.62zM6.545 17.955l-.5-.358-.506.358.193-.58-.502-.355h.62l.194-.577.191.577h.623l-.505.356zM6.579 12.263l-.226.16.192.58-.5-.36-.506.36.193-.58-.225-.16-.278-.196h.621l.195-.58.19.58h.622zM6.353 7.234l.192.576-.501-.355-.505.355.193-.576-.502-.359h.62l.194-.576.191.576h.623zM8.824 15.64l-.503-.358-.502.359.191-.581-.502-.354h.62l.193-.582.192.582h.622l-.504.354zM8.68 9.99l.19.577-.503-.359-.502.359.192-.577-.503-.358h.62l.193-.577.192.577h.621zM8.726 4.859l.191.576-.502-.355-.504.355.192-.576-.501-.358h.619l.194-.577.19.577h.622zM11.194 17.955l-.501-.358-.504.358.192-.58-.502-.355h.621l.193-.577.19.577h.621l-.502.356zM11.228 12.263l-.225.16.191.58-.5-.36-.505.36.192-.58-.224-.16-.278-.196h.62l.194-.58.19.58h.622zM11.003 7.234l.191.576-.5-.355-.505.355.192-.576-.502-.359h.621l.193-.576.19.576h.621zM13.474 15.64l-.505-.358-.5.359.191-.581-.504-.354h.623l.19-.582.194.582h.62l-.503.354zM13.327 9.99l.192.577-.503-.359-.502.359.191-.577-.502-.358h.623l.19-.577.192.577h.62zM13.375 4.859l.19.576-.5-.355-.505.355.192-.576-.501-.358h.619l.195-.577.189.577h.621zM15.845 17.955l-.502-.358-.505.358.193-.58-.503-.355h.62l.195-.577.19.577h.62l-.501.356zM15.877 12.263l-.225.16.193.58-.502-.36-.505.36.193-.58-.224-.16-.279-.196h.62l.195-.58.19.58h.62zM15.652 7.234l.194.576-.503-.355-.505.355.193-.576-.503-.359h.62l.195-.576.19.576h.62zM15.652 2.16l.194.577-.503-.356-.505.356.193-.577-.503-.358h.62l.195-.577.19.577h.62zM10.693 2.38l.5.358-.19-.577.07-.05c-.265.1-.526.207-.783.32l-.1.307.503-.357z"/>
        <path fill="#FFF" d="M10.693 6.299l-.193.576h-.62l.501.359-.191.576.503-.355.5.355-.19-.576.501-.359h-.621zM10.693 11.488l-.193.58h-.62l.276.195.225.16-.191.58.503-.36.5.36-.19-.58.224-.16.277-.195h-.621zM10.883 17.02l-.19-.578-.193.577H9.88l.502.357-.192.578.504-.357.5.357-.19-.578.501-.357zM6.044 6.299l-.194.576h-.62l.502.359-.193.576.505-.355.501.355-.192-.576.505-.359h-.623zM6.044 11.488l-.194.58h-.62l.277.195.225.16-.193.58.505-.36.501.36-.192-.58.225-.16.28-.195h-.623zM6.235 17.02l-.19-.578-.195.577h-.62l.502.357-.193.578.505-.357.501.357-.192-.578.505-.357zM.892 13.002L.895 13a.525.525 0 0 0 .013-.045l-.016.047zM1.396 11.488l-.133.394c.045-.12.097-.24.145-.357l-.012-.037z"/>
        <path fill="#FFF" d="M1.898 13.002l-.192-.58.224-.16.278-.195h-.622l-.178-.542c-.048.118-.1.236-.145.357l-.061.185h-.004l-.122.35.007.006-.175.532L.894 13l.502-.357.502.36zM1.586 17.02l-.19-.578-.195.577H.58l.502.357-.192.578.504-.357.504.357-.193-.578.502-.357zM13.016 9.055l-.19.578h-.622l.501.357-.191.576.502-.357.503.357-.192-.576.501-.357h-.62zM13.163 14.705l-.194-.58-.19.58h-.623l.504.355-.192.58.5-.358.506.359-.194-.581.503-.355zM8.367 9.055l-.193.578h-.62l.504.357-.193.576.502-.357.503.357-.19-.576.5-.357h-.621zM8.512 14.705l-.191-.58-.193.58h-.62l.502.355-.192.58.503-.358.502.359-.192-.581.503-.355zM3.718 8.876l-.19.576h-.624l.503.357-.192.578.503-.36.502.36-.192-.578.503-.357H3.91zM3.863 14.523l-.191-.576-.193.576h-.622l.504.357-.192.579.503-.359.503.359-.193-.579.504-.357zM15.343 6.299l-.195.576h-.62l.503.359-.193.576.505-.355.502.355-.193-.576.501-.359h-.62zM8.415 3.923l-.194.578h-.62l.502.357-.192.577.504-.355.502.355-.191-.577.5-.357h-.622zM13.065 3.923l-.196.578h-.618l.5.357-.19.577.504-.355.5.355-.19-.577.5-.357h-.62zM15.343 1.225l-.195.577h-.62l.503.358-.193.577.505-.356.502.356-.193-.577.501-.358h-.62zM15.343 11.488l-.195.58h-.62l.279.195.224.16-.193.58.505-.36.502.36-.193-.58.225-.16.276-.195h-.62zM15.532 17.02l-.19-.578-.194.577h-.62l.503.357-.193.578.505-.357.502.357-.193-.578.501-.357z"/>
    </g>
</svg>
