<svg xmlns="http://www.w3.org/2000/svg" xmlns:xlink="http://www.w3.org/1999/xlink" width="35" height="36" viewBox="0 0 35 36">
    <defs>
        <path id="a" d="M0 .541V35h34.458V.541z"/>
    </defs>
    <g fill="none" fill-rule="evenodd">
        <g transform="translate(0 .236)">
            <mask id="b" fill="#fff">
                <use xlink:href="#a"/>
            </mask>
            <path fill="#000" d="M34.458 17.77c0 9.517-7.713 17.23-17.229 17.23C7.713 35 0 27.287 0 17.77 0 8.256 7.714.542 17.23.542s17.229 7.714 17.229 17.23" mask="url(#b)"/>
        </g>
        <path fill="#002F66" d="M.226 18.007c0 6.86 4.067 12.768 9.918 15.455V2.55C4.293 5.238.226 11.146.226 18.007"/>
        <path fill="#EF4135" d="M34.231 18.007c0-6.86-4.067-12.769-9.918-15.457v30.912c5.85-2.687 9.918-8.594 9.918-15.455"/>
        <path fill="#FFF" d="M17.229 1.004c-2.529 0-4.927.557-7.085 1.547v30.91a16.944 16.944 0 0 0 7.085 1.549 16.94 16.94 0 0 0 7.084-1.548V2.55a16.939 16.939 0 0 0-7.084-1.547"/>
    </g>
</svg>
