<svg xmlns="http://www.w3.org/2000/svg" xmlns:xlink="http://www.w3.org/1999/xlink" width="35" height="36" viewBox="0 0 35 36">
    <defs>
        <path id="a" d="M0 .541V35h34.458V.541z"/>
    </defs>
    <g fill="none" fill-rule="evenodd">
        <g transform="translate(0 .236)">
            <mask id="b" fill="#fff">
                <use xlink:href="#a"/>
            </mask>
            <path fill="#000" d="M34.458 17.77c0 9.517-7.714 17.23-17.227 17.23C7.712 35 0 27.287 0 17.77 0 8.256 7.712.542 17.23.542c9.514 0 17.228 7.714 17.228 17.23" mask="url(#b)"/>
        </g>
        <path fill="#FFD900" d="M17.23 35.009c6.861 0 12.768-4.066 15.456-9.918H1.774C4.46 30.943 10.37 35.01 17.23 35.01"/>
        <path fill="#000" d="M17.23 1.004c-6.861 0-12.77 4.067-15.456 9.917h30.912c-2.688-5.85-8.595-9.917-15.456-9.917"/>
        <path fill="#ED1C24" d="M.226 18.006c0 2.529.558 4.927 1.548 7.085h30.911a16.918 16.918 0 0 0 1.547-7.085c0-2.53-.555-4.927-1.547-7.085H1.775a16.94 16.94 0 0 0-1.549 7.085"/>
    </g>
</svg>
