<svg xmlns="http://www.w3.org/2000/svg" xmlns:xlink="http://www.w3.org/1999/xlink" width="35" height="35" viewBox="0 0 35 35">
    <defs>
        <path id="a" d="M34.459.529v33.71H0V.529z"/>
    </defs>
    <g fill="none" fill-rule="evenodd">
        <g transform="translate(0 .233)">
            <mask id="b" fill="#fff">
                <use xlink:href="#a"/>
            </mask>
            <path fill="#000" d="M34.459 17.385c0 9.31-7.714 16.854-17.23 16.854C7.714 34.239 0 26.694 0 17.385 0 8.077 7.714.529 17.23.529c9.515 0 17.229 7.548 17.229 16.856" mask="url(#b)"/>
        </g>
        <path fill="#F00" d="M17.23 34.25c6.86 0 12.768-3.978 15.455-9.702H1.774c2.687 5.724 8.595 9.701 15.456 9.701"/>
        <path fill="#FFF" d="M17.23.984c-6.861 0-12.77 3.978-15.456 9.702h30.91C29.999 4.962 24.09.984 17.23.984"/>
        <path fill="#00F" d="M.227 17.617c0 2.474.556 4.82 1.547 6.93h30.91a16.28 16.28 0 0 0 1.548-6.93c0-2.474-.558-4.821-1.547-6.93H1.774a16.253 16.253 0 0 0-1.547 6.93"/>
    </g>
</svg>
