<?xml version="1.0" encoding="utf-8"?>
<!-- Generator: Adobe Illustrator 19.0.0, SVG Export Plug-In . SVG Version: 6.00 Build 0)  -->
<svg version="1.1" id="_1" xmlns="http://www.w3.org/2000/svg" xmlns:xlink="http://www.w3.org/1999/xlink" x="0px" y="0px"
	 viewBox="0 0 27 30" style="enable-background:new 0 0 27 30;" xml:space="preserve">
<style type="text/css">
	.{{$ctrl.id}}{fill:{{$ctrl.fill}};}
</style>
<g>
	<g>
		<path ng-class="{ '{{$ctrl.id}}': true}" d="M13.5,30c-3.5,0-5-7.8-5-15c0-7.2,1.6-15,5-15s5,7.8,5,15C18.5,22.2,16.9,30,13.5,30z M13.5,1.9
			c-1.1,0-3.1,4.6-3.1,13.1c0,8.5,2.1,13.1,3.1,13.1c1.1,0,3.1-4.6,3.1-13.1C16.6,6.5,14.6,1.9,13.5,1.9z"/>
	</g>
	<g>
		<path ng-class="{ '{{$ctrl.id}}': true}" d="M3.6,24c-1.4,0-2.4-0.4-2.9-1.3c-1.8-3,4.1-8.3,10.3-12C15.7,7.8,20.5,6,23.4,6c1.4,0,2.4,0.4,2.9,1.3
			c1.8,3-4.1,8.3-10.3,12C11.3,22.2,6.5,24,3.6,24z M23.4,7.9c-2.6,0-7.1,1.7-11.6,4.4c-7.3,4.4-10.2,8.5-9.6,9.4
			c0.1,0.2,0.5,0.3,1.3,0.3c2.6,0,7.1-1.7,11.6-4.4c7.3-4.4,10.2-8.5,9.6-9.4C24.6,8.1,24.2,7.9,23.4,7.9z"/>
	</g>
	<g>
		<path ng-class="{ '{{$ctrl.id}}': true}" d="M23.5,23.5c-2.9,0-7.7-1.6-12.4-4.1c-3.4-1.8-6.4-3.9-8.4-5.9c-2.4-2.3-3.2-4.2-2.4-5.6
			C0.8,7,1.9,6.5,3.5,6.5c2.9,0,7.7,1.6,12.4,4.1c3.4,1.8,6.4,3.9,8.4,5.9c2.4,2.3,3.2,4.2,2.4,5.6C26.2,23,25.1,23.5,23.5,23.5z
			 M3.5,8.4c-1,0-1.5,0.2-1.6,0.4C1.7,9.2,2.1,10.3,4,12.2c1.9,1.9,4.7,3.9,8,5.6c4.4,2.4,8.8,3.8,11.5,3.8c1,0,1.5-0.2,1.6-0.4
			c0.5-0.9-2.6-5-10.1-9C10.6,9.9,6.2,8.4,3.5,8.4z"/>
	</g>
	<g>
		<circle ng-class="{ '{{$ctrl.id}}': true}" cx="13.5" cy="15" r="1.9"/>
	</g>
</g>
</svg>
