<?xml version="1.0" encoding="utf-8"?>
<!-- Generator: Adobe Illustrator 19.0.0, SVG Export Plug-In . SVG Version: 6.00 Build 0)  -->
<svg version="1.1" id="Vrstva_1" xmlns="http://www.w3.org/2000/svg" xmlns:xlink="http://www.w3.org/1999/xlink" x="0px" y="0px"
	 viewBox="0 0 21.5 30" style="enable-background:new 0 0 21.5 30;" xml:space="preserve">
<style type="text/css">
	.{{$ctrl.id}}{fill:{{$ctrl.fill}};}
</style>
<g>
	<path ng-class="{ '{{$ctrl.id}}': true}" d="M18,0H3.5C1.6,0,0,1.6,0,3.5v23C0,28.4,1.6,30,3.5,30H18c1.9,0,3.5-1.6,3.5-3.5v-23C21.5,1.6,19.9,0,18,0z
		 M9.6,25.7C9.6,26.4,9,27,8.3,27H4.8c-0.7,0-1.3-0.6-1.3-1.3v-3.4c0-0.7,0.6-1.3,1.3-1.3h3.4c0.7,0,1.3,0.6,1.3,1.3V25.7z
		 M9.6,17.2c0,0.7-0.6,1.3-1.3,1.3H4.8c-0.7,0-1.3-0.6-1.3-1.3v-3.4c0-0.7,0.6-1.3,1.3-1.3h3.4c0.7,0,1.3,0.6,1.3,1.3V17.2z
		 M18,25.7c0,0.7-0.6,1.3-1.3,1.3h-3.4c-0.7,0-1.3-0.6-1.3-1.3v-3.4c0-0.7,0.6-1.3,1.3-1.3h3.4c0.7,0,1.3,0.6,1.3,1.3V25.7z
		 M18,17.2c0,0.7-0.6,1.3-1.3,1.3h-3.4c-0.7,0-1.3-0.6-1.3-1.3v-3.4c0-0.7,0.6-1.3,1.3-1.3h3.4c0.7,0,1.3,0.6,1.3,1.3V17.2z
		 M18.3,7.7c0,1-0.8,1.8-1.8,1.8H5.1c-1,0-1.8-0.8-1.8-1.8V5.1c0-1,0.8-1.8,1.8-1.8h11.4c1,0,1.8,0.8,1.8,1.8V7.7z"/>
	<path ng-class="{ '{{$ctrl.id}}': true}" d="M8.3,15.2H6.9v-1.4c0-0.1-0.1-0.2-0.2-0.2H6.4c-0.1,0-0.2,0.1-0.2,0.2v1.4H4.8c-0.1,0-0.2,0.1-0.2,0.2v0.4
		c0,0.1,0.1,0.2,0.2,0.2h1.4v1.4c0,0.1,0.1,0.2,0.2,0.2h0.4c0.1,0,0.2-0.1,0.2-0.2v-1.4h1.4c0.1,0,0.2-0.1,0.2-0.2v-0.4
		C8.4,15.3,8.4,15.2,8.3,15.2z"/>
	<path ng-class="{ '{{$ctrl.id}}': true}" d="M16.7,15.2h-3.4c-0.1,0-0.2,0.1-0.2,0.2v0.4c0,0.1,0.1,0.2,0.2,0.2h3.4c0.1,0,0.2-0.1,0.2-0.2v-0.4
		C16.9,15.3,16.8,15.2,16.7,15.2z"/>
	<path ng-class="{ '{{$ctrl.id}}': true}" d="M8,22.8l-0.2-0.2c-0.1-0.1-0.2-0.1-0.2,0l-1,1l-1-1c-0.1-0.1-0.2-0.1-0.2,0l-0.2,0.2C5,22.9,5,23,5.1,23l1,1
		l-1,1C5,25,5,25.1,5.1,25.2l0.2,0.2c0.1,0.1,0.2,0.1,0.2,0l1-1l1,1c0.1,0.1,0.2,0.1,0.2,0L8,25.2C8.1,25.1,8.1,25,8,25l-1-1l1-1
		C8.1,23,8.1,22.9,8,22.8z"/>
	<path ng-class="{ '{{$ctrl.id}}': true}" d="M16.7,23.7h-3.4c-0.1,0-0.2,0.1-0.2,0.2v0.4c0,0.1,0.1,0.2,0.2,0.2h3.4c0.1,0,0.2-0.1,0.2-0.2v-0.4
		C16.9,23.7,16.8,23.7,16.7,23.7z"/>
	<circle ng-class="{ '{{$ctrl.id}}': true}" cx="15" cy="22.9" r="0.4"/>
	<circle ng-class="{ '{{$ctrl.id}}': true}" cx="15" cy="25.1" r="0.4"/>
	<polygon ng-class="{ '{{$ctrl.id}}': true}" points="14.6,6.9 14.3,6.4 14.1,6.9 14.1,7.8 14.3,8.3 14.6,7.8 	"/>
	<polygon ng-class="{ '{{$ctrl.id}}': true}" points="14.6,5.9 14.6,5 14.3,4.5 14.1,5 14.1,5.9 14.3,6.4 	"/>
	<polygon ng-class="{ '{{$ctrl.id}}': true}" points="16.1,6.9 16.1,7.8 16.3,8.3 16.6,7.8 16.6,6.9 16.3,6.4 	"/>
	<polygon ng-class="{ '{{$ctrl.id}}': true}" points="16.1,5 16.1,5.9 16.3,6.4 16.6,5.9 16.6,5 16.3,4.5 	"/>
	<polygon ng-class="{ '{{$ctrl.id}}': true}" points="15.8,4.7 16.3,4.4 15.8,4.2 14.9,4.2 14.4,4.4 14.9,4.7 	"/>
	<polygon ng-class="{ '{{$ctrl.id}}': true}" points="14.9,8.1 14.4,8.3 14.9,8.6 15.8,8.6 16.3,8.3 15.8,8.1 	"/>
</g>
</svg>
