<?xml version="1.0" encoding="utf-8"?>
<!-- Generator: Adobe Illustrator 19.0.0, SVG Export Plug-In . SVG Version: 6.00 Build 0)  -->
<svg version="1.1" id="_1" xmlns="http://www.w3.org/2000/svg" xmlns:xlink="http://www.w3.org/1999/xlink" x="0px" y="0px"
	 viewBox="0 0 25.5 30" style="enable-background:new 0 0 25.5 30;" xml:space="preserve">
<style type="text/css">
	.{{$ctrl.id}}{fill:{{$ctrl.fill}};}
</style>
<g>
	<path ng-class="{ '{{$ctrl.id}}': true}" d="M16.4,1.6v1h-1.2v8.9l8.7,16.9H12.8H1.6l8.7-16.9V2.6H9.1v-1h3.6H16.4 M16.4,0h-3.6H9.1C8.3,0,7.5,0.7,7.5,1.6
		v1c0,0.7,0.5,1.4,1.2,1.5v7L0.2,27.7c-0.3,0.5-0.2,1.1,0.1,1.5C0.5,29.7,1,30,1.6,30h11.2h11.2c0.6,0,1.1-0.3,1.3-0.8
		c0.3-0.5,0.3-1.1,0.1-1.5l-8.6-16.6v-7C17.5,4,18,3.4,18,2.6v-1C18,0.7,17.3,0,16.4,0L16.4,0z"/>
	<path ng-class="{ '{{$ctrl.id}}': true}" d="M17.4,19.7H7.9l-3.7,7.1h17L17.4,19.7z M10.9,24.4c-1,0-1.8-0.8-1.8-1.8c0-1,0.8-1.8,1.8-1.8
		c1,0,1.8,0.8,1.8,1.8C12.7,23.6,11.9,24.4,10.9,24.4z M16.1,25.7c-0.6,0-1.2-0.5-1.2-1.2c0-0.6,0.5-1.2,1.2-1.2
		c0.6,0,1.2,0.5,1.2,1.2C17.2,25.2,16.7,25.7,16.1,25.7z"/>
</g>
</svg>
