<?xml version="1.0" encoding="utf-8"?>
<!-- Generator: Adobe Illustrator 19.0.0, SVG Export Plug-In . SVG Version: 6.00 Build 0)  -->
<svg version="1.1" id="_1" xmlns="http://www.w3.org/2000/svg" xmlns:xlink="http://www.w3.org/1999/xlink" x="0px" y="0px"
	 viewBox="0 0 31.6 30" style="enable-background:new 0 0 31.6 30;" xml:space="preserve">
<style type="text/css">
	.{{$ctrl.id}}{fill:{{$ctrl.fill}};}
</style>
<g>
	<path ng-class="{ '{{$ctrl.id}}': true}" d="M15.1,9.5c4.5,0,8.2,3.7,8.2,8.2c0,4.5-3.7,8.2-8.2,8.2c-4.5,0-8.2-3.7-8.2-8.2C6.9,13.2,10.6,9.5,15.1,9.5
		 M15.1,6.7c-6.1,0-11,4.9-11,11c0,6.1,4.9,11,11,11c6.1,0,11-4.9,11-11C26.1,11.6,21.2,6.7,15.1,6.7L15.1,6.7z"/>
	<circle ng-class="{ '{{$ctrl.id}}': true}" cx="15.1" cy="5.4" r="5.4"/>
	<circle ng-class="{ '{{$ctrl.id}}': true}" cx="26.2" cy="23.1" r="5.4"/>
	<circle ng-class="{ '{{$ctrl.id}}': true}" cx="5.4" cy="24.6" r="5.4"/>
</g>
</svg>
