<?xml version="1.0" encoding="utf-8"?>
<!-- Generator: Adobe Illustrator 19.0.0, SVG Export Plug-In . SVG Version: 6.00 Build 0)  -->
<svg version="1.1" id="Vrstva_1" xmlns="http://www.w3.org/2000/svg" xmlns:xlink="http://www.w3.org/1999/xlink" x="0px" y="0px"
	 viewBox="0 0 19.4 30" style="enable-background:new 0 0 19.4 30;" xml:space="preserve">
<style type="text/css">
	.{{$ctrl.id}}{fill:{{$ctrl.fill}};}
</style>
<g>
	<path ng-class="{ '{{$ctrl.id}}': true}" d="M14.9,3.9c0.1-0.6,0.2-1.2,0.2-1.7H4.3c0,0.5,0.1,1,0.2,1.7H14.9z"/>
	<path ng-class="{ '{{$ctrl.id}}': true}" d="M14.4,6H5.1c0.2,0.5,0.4,1.1,0.6,1.7h8.1C14,7.1,14.2,6.5,14.4,6z"/>
	<path ng-class="{ '{{$ctrl.id}}': true}" d="M11.2,11.3c0.5-0.5,1-1.1,1.4-1.7H6.8c0.4,0.6,0.9,1.1,1.4,1.7H11.2z"/>
	<path ng-class="{ '{{$ctrl.id}}': true}" d="M4.6,26.1c-0.1,0.6-0.2,1.2-0.2,1.7h10.8c0-0.5-0.1-1-0.2-1.7H4.6z"/>
	<path ng-class="{ '{{$ctrl.id}}': true}" d="M5.1,24h9.3c-0.2-0.5-0.4-1.1-0.6-1.7H5.7C5.4,22.9,5.2,23.5,5.1,24z"/>
	<path ng-class="{ '{{$ctrl.id}}': true}" d="M8.2,18.7c-0.5,0.5-1,1.1-1.4,1.7h5.8c-0.4-0.6-0.9-1.1-1.4-1.7H8.2z"/>
	<path ng-class="{ '{{$ctrl.id}}': true}" d="M12,15c7.6-4.4,7.4-13.7,7.4-14.1c0-0.5-0.6-0.9-1.4-0.9c0,0,0,0-0.1,0c-0.8,0-1.4,0.4-1.4,0.9
		c0,0,0.1,2.4-0.8,5.1c-0.2,0.5-0.3,1-0.6,1.5c-0.3,0.7-0.6,1.4-1,2c-0.4,0.6-0.8,1.1-1.2,1.7c-0.9,1-1.9,1.9-3.3,2.5
		c-1.3-0.7-2.4-1.6-3.3-2.5C6,10.8,5.6,10.2,5.2,9.7C4.8,9,4.5,8.3,4.2,7.6C4,7.1,3.8,6.6,3.6,6.1C2.8,3.3,2.8,1,2.8,0.9
		C2.9,0.4,2.2,0,1.5,0c0,0,0,0,0,0C0.7,0,0,0.4,0,0.9C0,1.3-0.2,10.6,7.4,15C-0.2,19.4,0,28.7,0,29.1C0,29.6,0.7,30,1.4,30
		c0,0,0,0,0,0c0.8,0,1.4-0.4,1.4-0.9c0,0-0.1-2.4,0.8-5.1c0.2-0.5,0.3-1,0.6-1.5c0.3-0.7,0.6-1.4,1-2c0.4-0.6,0.8-1.1,1.2-1.7
		c0.9-1,1.9-1.9,3.3-2.5c1.3,0.7,2.4,1.6,3.3,2.5c0.5,0.5,0.9,1.1,1.2,1.7c0.4,0.7,0.8,1.4,1.1,2c0.2,0.5,0.4,1,0.6,1.5
		c0.8,2.8,0.8,5.1,0.8,5.1c0,0.5,0.6,0.9,1.4,0.9c0,0,0,0,0,0c0.8,0,1.4-0.4,1.4-0.9C19.5,28.7,19.7,19.4,12,15z"/>
</g>
</svg>
