<?xml version="1.0" encoding="utf-8"?>
<!-- Generator: Adobe Illustrator 19.0.0, SVG Export Plug-In . SVG Version: 6.00 Build 0)  -->
<svg version="1.1" id="_1" xmlns="http://www.w3.org/2000/svg" xmlns:xlink="http://www.w3.org/1999/xlink" x="0px" y="0px"
	 viewBox="0 0 32.1 30" style="enable-background:new 0 0 32.1 30;" xml:space="preserve">
<style type="text/css">
	.{{$ctrl.id}}{fill:{{$ctrl.fill}};}
</style>
<g>
	<path ng-class="{ '{{$ctrl.id}}': true}" d="M4.3,27.8c0,1.2-1,2.2-2.2,2.2l0,0C1,30,0,29,0,27.8V3.2C0,2,1,1.1,2.2,1.1l0,0c1.2,0,2.2,1,2.2,2.2V27.8z"/>
	<path ng-class="{ '{{$ctrl.id}}': true}" d="M2.2,30C1,30,0,29,0,27.8l0,0c0-1.2,1-2.2,2.2-2.2h24.6c1.2,0,2.2,1,2.2,2.2l0,0c0,1.2-1,2.2-2.2,2.2H2.2z"/>
	<g>
		<path ng-class="{ '{{$ctrl.id}}': true}" d="M7,23.8c-0.9,0-1.7-0.7-1.8-1.6c-0.1-1,0.6-1.9,1.6-2c0.6-0.1,15.6-2,17.1-15.7c0.1-1,1-1.7,2-1.6
			c1,0.1,1.7,1,1.6,2c-0.7,6.9-4.5,12.3-10.9,15.8c-4.7,2.5-9.2,3.1-9.3,3.1C7.1,23.8,7,23.8,7,23.8z"/>
	</g>
	<g>
		<path ng-class="{ '{{$ctrl.id}}': true}" d="M30.4,9.3c-0.6,0-1.1-0.3-1.5-0.8L25.8,4l-4.3,3c-0.8,0.6-1.9,0.4-2.5-0.5c-0.6-0.8-0.4-1.9,0.5-2.5l5.3-3.6
			c0.5-0.4,1.2-0.5,1.8-0.4c0.6,0.1,1.2,0.5,1.6,1l3.7,5.4c0.6,0.8,0.4,1.9-0.5,2.5C31.1,9.2,30.7,9.3,30.4,9.3z"/>
	</g>
	<path ng-class="{ '{{$ctrl.id}}': true}" d="M10.7,12.4c0,0.5-0.4,0.9-0.9,0.9h-3c-0.5,0-0.9-0.4-0.9-0.9v-0.7c0-0.5,0.4-0.9,0.9-0.9h3
		c0.5,0,0.9,0.4,0.9,0.9V12.4z"/>
	<path ng-class="{ '{{$ctrl.id}}': true}" d="M17.6,12.4c0,0.5-0.4,0.9-0.9,0.9h-3c-0.5,0-0.9-0.4-0.9-0.9v-0.7c0-0.5,0.4-0.9,0.9-0.9h3
		c0.5,0,0.9,0.4,0.9,0.9V12.4z"/>
	<path ng-class="{ '{{$ctrl.id}}': true}" d="M22.4,23.2c-0.5,0-0.9-0.4-0.9-0.9v-3c0-0.5,0.4-0.9,0.9-0.9h0.7c0.5,0,0.9,0.4,0.9,0.9v3
		c0,0.5-0.4,0.9-0.9,0.9H22.4z"/>
</g>
</svg>
