<?xml version="1.0" encoding="utf-8"?>
<!-- Generator: Adobe Illustrator 19.0.0, SVG Export Plug-In . SVG Version: 6.00 Build 0)  -->
<svg version="1.1" id="Vrstva_1" xmlns="http://www.w3.org/2000/svg" xmlns:xlink="http://www.w3.org/1999/xlink" x="0px" y="0px"
	 viewBox="0 0 44.7 30" style="enable-background:new 0 0 44.7 30;" xml:space="preserve">
<style type="text/css">
	.{{$ctrl.id}}{fill:{{$ctrl.fill}};}
</style>
<g>
	<path ng-class="{ '{{$ctrl.id}}': true}" d="M22.7,17.8c-0.9,0-1.8-0.2-2.5-0.4L8.3,12.7v3.1c0,1.1,0.8,2.5,1.8,3.1c0,0,8.5,4.7,12.6,4.7
		c4.1,0,12.6-4.7,12.6-4.7c1-0.6,1.8-1.9,1.8-3.1v-3.1l-11.9,4.7C24.5,17.6,23.7,17.8,22.7,17.8z"/>
	<path ng-class="{ '{{$ctrl.id}}': true}" d="M6.5,21.9c0-1.1-0.7-2.1-1.7-2.4v-8.2l-1.7-0.7v8.8c-1,0.4-1.8,1.3-1.8,2.4c0,1,0.5,1.8,1.3,2.2L0,28.8
		c0,0,1.3,1.2,3.9,1.2c2.6,0,3.9-1.2,3.9-1.2l-2.6-4.6C6,23.7,6.5,22.9,6.5,21.9z"/>
	<path ng-class="{ '{{$ctrl.id}}': true}" d="M43.9,6.9L24.7,0.3c-0.5-0.2-1.2-0.3-2-0.3c-0.7,0-1.4,0.1-2,0.3L1.6,6.9c-1.1,0.4-1.1,1,0,1.4l19.2,7.5
		c0.5,0.2,1.2,0.3,1.9,0.3c0.7,0,1.4-0.1,1.9-0.3l19.2-7.5C45,8,44.9,7.3,43.9,6.9z"/>
</g>
</svg>
