<?xml version="1.0" encoding="utf-8"?>
<!-- Generator: Adobe Illustrator 19.0.0, SVG Export Plug-In . SVG Version: 6.00 Build 0)  -->
<svg version="1.1" id="_1" xmlns="http://www.w3.org/2000/svg" xmlns:xlink="http://www.w3.org/1999/xlink" x="0px" y="0px"
	 viewBox="0 0 37.7 30" style="enable-background:new 0 0 37.7 30;" xml:space="preserve">
<style type="text/css">
	.{{$ctrl.id}}{fill:{{$ctrl.fill}};}
</style>
<g>
	<path ng-class="{ '{{$ctrl.id}}': true}" d="M18.9,7.9c-6.1,0-11.1,5-11.1,11.1c0,6.1,5,11.1,11.1,11.1c6.1,0,11.1-5,11.1-11.1C29.9,12.8,25,7.9,18.9,7.9z
		 M13.6,17.2c-1.3,0-2.4-1.1-2.4-2.4c0-1.3,1.1-2.4,2.4-2.4c1.3,0,2.4,1.1,2.4,2.4C16,16.2,14.9,17.2,13.6,17.2z"/>
	<rect x="17.6" ng-class="{ '{{$ctrl.id}}': true}" width="2.5" height="4.5"/>
	<rect x="11.9" y="1" transform="matrix(0.9397 -0.342 0.342 0.9397 -0.3256 4.6998)" ng-class="{ '{{$ctrl.id}}': true}" width="2.5" height="4.5"/>
	<rect x="6.9" y="3.9" transform="matrix(0.766 -0.6428 0.6428 0.766 -2.0562 6.6836)" ng-class="{ '{{$ctrl.id}}': true}" width="2.5" height="4.5"/>
	<rect x="3.2" y="8.3" transform="matrix(0.5 -0.866 0.866 0.5 -6.9623 9.1394)" ng-class="{ '{{$ctrl.id}}': true}" width="2.5" height="4.5"/>
	<rect x="1.2" y="13.8" transform="matrix(0.1736 -0.9848 0.9848 0.1736 -13.7646 15.6692)" ng-class="{ '{{$ctrl.id}}': true}" width="2.5" height="4.5"/>
	
		<rect x="1.2" y="19.6" transform="matrix(-0.1736 -0.9848 0.9848 -0.1736 -18.6106 28.0298)" ng-class="{ '{{$ctrl.id}}': true}" width="2.5" height="4.5"/>
	<rect x="23.3" y="1" transform="matrix(-0.9397 -0.342 0.342 -0.9397 46.522 14.7493)" ng-class="{ '{{$ctrl.id}}': true}" width="2.5" height="4.5"/>
	<rect x="28.3" y="3.9" transform="matrix(-0.766 -0.6428 0.6428 -0.766 48.2625 29.8992)" ng-class="{ '{{$ctrl.id}}': true}" width="2.5" height="4.5"/>
	<rect x="32" y="8.3" transform="matrix(-0.5 -0.866 0.866 -0.5 40.7585 44.7304)" ng-class="{ '{{$ctrl.id}}': true}" width="2.5" height="4.5"/>
	<rect x="34" y="13.8" transform="matrix(-0.1736 -0.9848 0.9848 -0.1736 25.6028 53.5565)" ng-class="{ '{{$ctrl.id}}': true}" width="2.5" height="4.5"/>
	<rect x="34" y="19.6" transform="matrix(0.1736 -0.9848 0.9848 0.1736 7.6548 52.7686)" ng-class="{ '{{$ctrl.id}}': true}" width="2.5" height="4.5"/>
</g>
</svg>
