<?xml version="1.0" encoding="utf-8"?>
<!-- Generator: Adobe Illustrator 19.0.0, SVG Export Plug-In . SVG Version: 6.00 Build 0)  -->
<svg version="1.1" id="_1" xmlns="http://www.w3.org/2000/svg" xmlns:xlink="http://www.w3.org/1999/xlink" x="0px" y="0px"
	 viewBox="0 0 26.1 30" style="enable-background:new 0 0 26.1 30;" xml:space="preserve">
<style type="text/css">
	.{{$ctrl.id}}{fill:{{$ctrl.fill}};}
</style>
<path ng-class="{ '{{$ctrl.id}}': true}" d="M25.9,1.6L25,0.4C24.6,0,24-0.1,23.6,0.2l-0.2,0.1c-0.4,0.3-1,0.3-1.2-0.1C22-0.1,21.4-0.1,21,0.2L10.1,7.9
	C9.6,8.2,9.5,8.7,9.7,9c0.2,0.3,0.1,0.8-0.4,1.1l-0.2,0.1c-0.4,0.3-0.5,0.9-0.2,1.4l0.8,1.2c0.3,0.4,0.9,0.5,1.3,0.2l0.2-0.2
	c0.4-0.3,1-0.3,1.2,0.1c0.2,0.4,0.8,0.4,1.3,0.1l4.9-3.3c2.3,6.2-1.7,10.4-6,10.4c-2.3,0-4.4-1-5.9-2.5h2c0.5,0,1-0.4,1-1v-0.6
	c0-0.5-0.4-1-1-1H1c-0.5,0-1,0.4-1,1v0.6c0,0.5,0.4,1,1,1h2.2c1.8,3,5,5.1,8.7,5.4V28c-1.9,0.5-3.7,1.5-3.7,1.5
	C7.7,29.8,7.7,30,8.3,30h10.3c0.5,0,0.6-0.2,0.1-0.5c0,0-1.8-1.1-3.7-1.5v-5c5-1,8.8-5.5,8.8-10.8c0-1.8-0.4-3.4-1.2-4.9l2.2-1.5
	c0.4-0.3,0.6-0.9,0.3-1.3c-0.3-0.4-0.2-1,0.3-1.3L25.7,3C26.1,2.7,26.2,2.1,25.9,1.6z"/>
</svg>
