<?xml version="1.0" encoding="utf-8"?>
<!-- Generator: Adobe Illustrator 19.0.0, SVG Export Plug-In . SVG Version: 6.00 Build 0)  -->
<svg version="1.1" id="_1" xmlns="http://www.w3.org/2000/svg" xmlns:xlink="http://www.w3.org/1999/xlink" x="0px" y="0px"
	 viewBox="0 0 30 30" style="enable-background:new 0 0 30 30;" xml:space="preserve">
<style type="text/css">
	.{{$ctrl.id}}{fill:{{$ctrl.fill}};}
</style>
<g>
	<path ng-class="{ '{{$ctrl.id}}': true}" d="M15,21.8L15,21.8c-3.7,0-6.8-3.1-6.8-6.8v0c0-3.7,3.1-6.8,6.8-6.8h0c3.7,0,6.8,3.1,6.8,6.8v0
		C21.8,18.7,18.7,21.8,15,21.8z"/>
	<g>
		<path ng-class="{ '{{$ctrl.id}}': true}" d="M19,25.3H11c-3.5,0-6.4-2.9-6.4-6.4V11c0-3.5,2.9-6.4,6.4-6.4H19c3.5,0,6.4,2.9,6.4,6.4V19
			C25.3,22.5,22.5,25.3,19,25.3z M11,6.8c-2.3,0-4.2,1.9-4.2,4.2V19c0,2.3,1.9,4.2,4.2,4.2H19c2.3,0,4.2-1.9,4.2-4.2V11
			c0-2.3-1.9-4.2-4.2-4.2H11z"/>
	</g>
	<rect x="8.2" ng-class="{ '{{$ctrl.id}}': true}" width="1.6" height="3.7"/>
	<rect x="20.2" ng-class="{ '{{$ctrl.id}}': true}" width="1.6" height="3.7"/>
	<rect x="17.2" ng-class="{ '{{$ctrl.id}}': true}" width="1.6" height="3.7"/>
	<rect x="14.2" ng-class="{ '{{$ctrl.id}}': true}" width="1.6" height="3.7"/>
	<rect x="11.2" ng-class="{ '{{$ctrl.id}}': true}" width="1.6" height="3.7"/>
	<rect x="8.2" y="26.3" ng-class="{ '{{$ctrl.id}}': true}" width="1.6" height="3.7"/>
	<rect x="20.2" y="26.3" ng-class="{ '{{$ctrl.id}}': true}" width="1.6" height="3.7"/>
	<rect x="17.2" y="26.3" ng-class="{ '{{$ctrl.id}}': true}" width="1.6" height="3.7"/>
	<rect x="14.2" y="26.3" ng-class="{ '{{$ctrl.id}}': true}" width="1.6" height="3.7"/>
	<rect x="11.2" y="26.3" ng-class="{ '{{$ctrl.id}}': true}" width="1.6" height="3.7"/>
	<rect x="26.3" y="8.2" ng-class="{ '{{$ctrl.id}}': true}" width="3.7" height="1.6"/>
	<rect x="26.3" y="20.2" ng-class="{ '{{$ctrl.id}}': true}" width="3.7" height="1.6"/>
	<rect x="26.3" y="17.2" ng-class="{ '{{$ctrl.id}}': true}" width="3.7" height="1.6"/>
	<rect x="26.3" y="14.2" ng-class="{ '{{$ctrl.id}}': true}" width="3.7" height="1.6"/>
	<rect x="26.3" y="11.2" ng-class="{ '{{$ctrl.id}}': true}" width="3.7" height="1.6"/>
	<rect y="8.2" ng-class="{ '{{$ctrl.id}}': true}" width="3.7" height="1.6"/>
	<rect y="20.2" ng-class="{ '{{$ctrl.id}}': true}" width="3.7" height="1.6"/>
	<rect y="17.2" ng-class="{ '{{$ctrl.id}}': true}" width="3.7" height="1.6"/>
	<rect y="14.2" ng-class="{ '{{$ctrl.id}}': true}" width="3.7" height="1.6"/>
	<rect y="11.2" ng-class="{ '{{$ctrl.id}}': true}" width="3.7" height="1.6"/>
</g>
</svg>
