<?xml version="1.0" encoding="utf-8"?>
<!-- Generator: Adobe Illustrator 19.0.0, SVG Export Plug-In . SVG Version: 6.00 Build 0)  -->
<svg version="1.1" id="_1" xmlns="http://www.w3.org/2000/svg" xmlns:xlink="http://www.w3.org/1999/xlink" x="0px" y="0px"
	 viewBox="0 0 16.5 30" style="enable-background:new 0 0 16.5 30;" xml:space="preserve">
<style type="text/css">
	.{{$ctrl.id}}{fill:{{$ctrl.fill}};}
</style>
<g>
	<path ng-class="{ '{{$ctrl.id}}': true}" d="M14.1,4.1H2.4C1.1,4.1,0,5.2,0,6.5v21.1C0,28.9,1.1,30,2.4,30h11.7c1.3,0,2.4-1.1,2.4-2.4V6.5
		C16.5,5.2,15.4,4.1,14.1,4.1z M6.5,5.7H10c0.4,0,0.7,0.3,0.7,0.7c0,0.4-0.3,0.7-0.7,0.7H6.5c-0.4,0-0.7-0.3-0.7-0.7
		C5.7,6.1,6.1,5.7,6.5,5.7z M2.8,8.8c0-0.2,0.1-0.3,0.3-0.3h10.4c0.2,0,0.3,0.1,0.3,0.3v14.1c0,0.2-0.1,0.3-0.3,0.3H3.1
		c-0.2,0-0.3-0.1-0.3-0.3V8.8z M4.9,27.2c0,0.2-0.1,0.3-0.3,0.3H2.9c-0.2,0-0.3-0.1-0.3-0.3v-1.5c0-0.2,0.1-0.3,0.3-0.3h1.7
		c0.2,0,0.3,0.1,0.3,0.3V27.2z M9.4,27.2c0,0.2-0.1,0.3-0.3,0.3H7.4c-0.2,0-0.3-0.1-0.3-0.3v-1.5c0-0.2,0.1-0.3,0.3-0.3h1.7
		c0.2,0,0.3,0.1,0.3,0.3V27.2z M13.9,27.2c0,0.2-0.1,0.3-0.3,0.3h-1.7c-0.2,0-0.3-0.1-0.3-0.3v-1.5c0-0.2,0.1-0.3,0.3-0.3h1.7
		c0.2,0,0.3,0.1,0.3,0.3V27.2z"/>
	<path ng-class="{ '{{$ctrl.id}}': true}" d="M5.4,3.4V1.6C5.4,0.7,4.7,0,3.8,0S2.3,0.7,2.3,1.6v1.9H5.4z"/>
</g>
</svg>
