<?xml version="1.0" encoding="utf-8"?>
<!-- Generator: Adobe Illustrator 19.0.0, SVG Export Plug-In . SVG Version: 6.00 Build 0)  -->
<svg version="1.1" id="_1" xmlns="http://www.w3.org/2000/svg" xmlns:xlink="http://www.w3.org/1999/xlink" x="0px" y="0px"
	 viewBox="0 0 16.9 30" style="enable-background:new 0 0 16.9 30;" xml:space="preserve">
<style type="text/css">
	.{{$ctrl.id}}{fill:{{$ctrl.fill}};}
</style>
<path ng-class="{ '{{$ctrl.id}}': true}" d="M15.9,0H1C0.4,0,0,0.4,0,1V29c0,0.5,0.4,1,1,1h15c0.5,0,1-0.4,1-1V1C16.9,0.4,16.5,0,15.9,0z M8.5,1.1
	c0.7,0,1.2,0.6,1.2,1.2c0,0.7-0.6,1.2-1.2,1.2c-0.7,0-1.2-0.6-1.2-1.2C7.3,1.7,7.8,1.1,8.5,1.1z M15.1,26H1.9V4.8h13.2V26z"/>
</svg>
