<?xml version="1.0" encoding="utf-8"?>
<!-- Generator: Adobe Illustrator 19.0.0, SVG Export Plug-In . SVG Version: 6.00 Build 0)  -->
<svg version="1.1" id="Vrstva_1" xmlns="http://www.w3.org/2000/svg" xmlns:xlink="http://www.w3.org/1999/xlink" x="0px" y="0px"
	 viewBox="0 0 29.6 30" style="enable-background:new 0 0 29.6 30;" xml:space="preserve">
<style type="text/css">
	.{{$ctrl.id}}{fill:{{$ctrl.fill}};}
</style>
<g>
	<path ng-class="{ '{{$ctrl.id}}': true}" d="M7.4,7.3v3.8C7.6,11.1,7.8,11,8.1,11c0.3,0,0.5,0,0.7,0.1V7.3C8.6,7.4,8.3,7.5,8.1,7.5
		C7.8,7.5,7.6,7.4,7.4,7.3z"/>
	<path ng-class="{ '{{$ctrl.id}}': true}" d="M9.3,11.9l-0.7-0.2c-0.4-0.1-0.8-0.1-1.1,0l-0.7,0.2V6.6l0.7,0.2C7.9,7,8.3,7,8.6,6.9l0.7-0.2V11.9z M7.8,7.9
		v2.6c0.2,0,0.3,0,0.5,0V7.9C8.2,8,8,8,7.8,7.9z"/>
</g>
<g>
	<path ng-class="{ '{{$ctrl.id}}': true}" d="M10.2,13.5c-0.1,0.5-0.3,0.9-0.6,1.2c0,0-0.1,0.1-0.1,0.1l3.3,1.9c0,0,0-0.1,0-0.1c0.1-0.5,0.3-0.9,0.6-1.2
		c0,0,0.1-0.1,0.1-0.1l-3.2-1.9C10.2,13.4,10.2,13.5,10.2,13.5z"/>
	<path ng-class="{ '{{$ctrl.id}}': true}" d="M13.1,17.4l-0.7-0.3l-3.9-2.2l0.6-0.5c0.3-0.2,0.4-0.6,0.5-0.9l0,0l0.1-0.8l0.7,0.3l3.9,2.2l-0.6,0.5
		c-0.2,0.2-0.4,0.6-0.5,0.9L13.1,17.4z M10.2,14.6l2.2,1.3c0.1-0.2,0.2-0.4,0.3-0.5l-2.2-1.2C10.4,14.3,10.3,14.5,10.2,14.6z"/>
</g>
<g>
	<path ng-class="{ '{{$ctrl.id}}': true}" d="M10.1,4.9L13.4,3c-0.4-0.3-0.6-0.8-0.7-1.3L9.3,3.7C9.7,4,10,4.4,10.1,4.9z"/>
	<path ng-class="{ '{{$ctrl.id}}': true}" d="M9.8,5.7L9.7,5C9.6,4.6,9.4,4.3,9.1,4.1L8.5,3.6L13.1,1l0.1,0.7c0.1,0.4,0.3,0.7,0.6,1l0.5,0.4L9.8,5.7z
		 M10.1,3.8c0.1,0.1,0.2,0.3,0.3,0.4l2.3-1.3c-0.1-0.1-0.2-0.3-0.2-0.4L10.1,3.8z"/>
</g>
<g>
	<path ng-class="{ '{{$ctrl.id}}': true}" d="M19.4,4.9c0.1-0.5,0.4-0.9,0.8-1.2l-3.4-1.9c-0.1,0.5-0.4,0.9-0.7,1.3L19.4,4.9z"/>
	<path ng-class="{ '{{$ctrl.id}}': true}" d="M19.8,5.7l-4.5-2.6l0.5-0.4c0.3-0.2,0.5-0.6,0.6-1L16.5,1l4.6,2.7l-0.6,0.4C20.2,4.3,20,4.6,19.9,5L19.8,5.7z
		 M16.9,2.9l2.3,1.3c0.1-0.1,0.2-0.3,0.3-0.4l-2.3-1.3C17.1,2.6,17,2.7,16.9,2.9z"/>
</g>
<g>
	<path ng-class="{ '{{$ctrl.id}}': true}" d="M22.2,11.2V7.3c-0.2,0.1-0.5,0.1-0.7,0.1c-0.3,0-0.5,0-0.7-0.1v3.8c0.2-0.1,0.5-0.1,0.7-0.1
		C21.7,11,22,11.1,22.2,11.2z"/>
	<path ng-class="{ '{{$ctrl.id}}': true}" d="M22.7,11.9L22,11.6c-0.4-0.1-0.8-0.1-1.1,0l-0.7,0.2V6.6l0.7,0.2C21.3,7,21.7,7,22,6.9l0.7-0.2V11.9z
		 M21.2,7.9v2.6c0.2,0,0.3,0,0.5,0V7.9C21.6,8,21.4,8,21.2,7.9z"/>
</g>
<g>
	<path ng-class="{ '{{$ctrl.id}}': true}" d="M0.6,18.8v4c0.2-0.1,0.5-0.1,0.7-0.1c0.3,0,0.5,0,0.7,0.1v-4c-0.2,0.1-0.5,0.1-0.7,0.1
		C1.1,18.9,0.9,18.9,0.6,18.8z"/>
	<path ng-class="{ '{{$ctrl.id}}': true}" d="M0.2,23.5v-5.4l0.7,0.2c0.4,0.1,0.8,0.1,1.1,0l0.7-0.2v5.4l-0.7-0.2c-0.4-0.1-0.8-0.1-1.1,0L0.2,23.5z
		 M1.1,19.4v2.8c0.2,0,0.3,0,0.5,0v-2.8C1.5,19.4,1.3,19.4,1.1,19.4z"/>
</g>
<g>
	<path ng-class="{ '{{$ctrl.id}}': true}" d="M3.5,25.1c-0.1,0.5-0.3,1-0.7,1.3L6,28.3c0.1-0.5,0.4-1,0.7-1.3L3.5,25.1z"/>
	<path ng-class="{ '{{$ctrl.id}}': true}" d="M6.4,29l-4.5-2.6L2.4,26c0.3-0.2,0.5-0.6,0.5-1l0.1-0.7l4.5,2.6L7,27.4c-0.3,0.2-0.5,0.6-0.6,1L6.4,29z
		 M3.5,26.3l2.2,1.3c0.1-0.1,0.1-0.3,0.2-0.4l-2.2-1.3C3.7,26,3.6,26.1,3.5,26.3z"/>
</g>
<g>
	<path ng-class="{ '{{$ctrl.id}}': true}" d="M6.7,14.8C6.4,14.4,6.1,14,6,13.5l-3.2,1.8c0.4,0.3,0.6,0.8,0.6,1.3L6.7,14.8z"/>
	<path ng-class="{ '{{$ctrl.id}}': true}" d="M3.1,17.5L3,16.7c0-0.4-0.2-0.7-0.5-1L2,15.2l4.3-2.5l0.1,0.7c0.1,0.4,0.3,0.7,0.6,1l0.5,0.4L3.1,17.5z
		 M3.6,15.5c0.1,0.1,0.2,0.3,0.2,0.4L6,14.6c-0.1-0.1-0.2-0.3-0.2-0.4L3.6,15.5z"/>
</g>
<g>
	<path ng-class="{ '{{$ctrl.id}}': true}" d="M12.7,25.1L9.4,27c0.4,0.3,0.6,0.8,0.7,1.3l3.3-1.9C13,26.1,12.8,25.6,12.7,25.1z"/>
	<path ng-class="{ '{{$ctrl.id}}': true}" d="M9.8,29l-0.1-0.7c-0.1-0.4-0.3-0.7-0.6-1l-0.5-0.4l4.5-2.6l0.1,0.7c0.1,0.4,0.3,0.7,0.5,1l0.5,0.4L9.8,29z
		 M10.2,27.1c0.1,0.1,0.2,0.3,0.2,0.4l2.2-1.3c-0.1-0.1-0.2-0.3-0.2-0.4L10.2,27.1z"/>
</g>
<g>
	<path ng-class="{ '{{$ctrl.id}}': true}" d="M27.5,18.8v4c0.2-0.1,0.5-0.1,0.7-0.1c0.3,0,0.5,0,0.7,0.1v-4c-0.2,0.1-0.5,0.1-0.7,0.1
		C27.9,18.9,27.7,18.9,27.5,18.8z"/>
	<path ng-class="{ '{{$ctrl.id}}': true}" d="M29.4,23.5l-0.7-0.2c-0.4-0.1-0.8-0.1-1.1,0L27,23.5v-5.4l0.7,0.2c0.4,0.1,0.8,0.1,1.1,0l0.7-0.2V23.5z
		 M27.9,19.4v2.8c0.2,0,0.3,0,0.5,0v-2.8C28.3,19.4,28.1,19.4,27.9,19.4z"/>
</g>
<g>
	<path ng-class="{ '{{$ctrl.id}}': true}" d="M16.9,25.1c-0.1,0.5-0.3,1-0.7,1.3l3.3,1.9c0.1-0.5,0.4-1,0.7-1.3L16.9,25.1z"/>
	<path ng-class="{ '{{$ctrl.id}}': true}" d="M19.8,29l-4.5-2.6l0.5-0.4c0.3-0.3,0.5-0.6,0.5-1l0.1-0.7l4.5,2.6l-0.5,0.4c-0.3,0.2-0.5,0.6-0.6,1L19.8,29z
		 M16.9,26.3l2.2,1.3c0.1-0.1,0.1-0.3,0.2-0.4l-2.2-1.3C17.1,26,17,26.1,16.9,26.3z"/>
</g>
<g>
	<path ng-class="{ '{{$ctrl.id}}': true}" d="M26.1,25.1L22.8,27c0.4,0.3,0.6,0.8,0.7,1.3l3.3-1.9C26.4,26.1,26.2,25.6,26.1,25.1z"/>
	<path ng-class="{ '{{$ctrl.id}}': true}" d="M23.2,29l-0.1-0.7c-0.1-0.4-0.3-0.7-0.6-1L22,26.9l4.5-2.6l0.1,0.7c0.1,0.4,0.3,0.7,0.5,1l0.5,0.4L23.2,29z
		 M23.6,27.1c0.1,0.1,0.2,0.3,0.2,0.4l2.2-1.3c-0.1-0.1-0.2-0.3-0.2-0.4L23.6,27.1z"/>
</g>
<g>
	<path ng-class="{ '{{$ctrl.id}}': true}" d="M26.1,16.6c0-0.5,0.3-1,0.6-1.3l-3.2-1.8c-0.1,0.5-0.4,0.9-0.7,1.3L26.1,16.6z"/>
	<path ng-class="{ '{{$ctrl.id}}': true}" d="M26.5,17.5L22,14.8l0.5-0.4c0.3-0.2,0.5-0.6,0.6-1l0.1-0.7l4.3,2.5l-0.5,0.5c-0.3,0.3-0.4,0.6-0.5,1L26.5,17.5
		z M23.6,14.6l2.2,1.2c0.1-0.1,0.1-0.3,0.2-0.4l-2.1-1.2C23.8,14.4,23.7,14.5,23.6,14.6z"/>
</g>
<g>
	<path ng-class="{ '{{$ctrl.id}}': true}" d="M16.9,16.5c0,0,0,0.1,0,0.1l3.3-1.9c0,0-0.1-0.1-0.1-0.1c-0.3-0.3-0.5-0.7-0.6-1.2c0,0,0-0.1,0-0.1l-3.2,1.9
		c0,0,0.1,0.1,0.1,0.1C16.6,15.6,16.8,16,16.9,16.5z"/>
	<path ng-class="{ '{{$ctrl.id}}': true}" d="M16.5,17.4l-0.1-0.9c-0.1-0.3-0.2-0.7-0.5-0.9l-0.6-0.5l4.5-2.6l0.1,0.9c0.1,0.3,0.2,0.6,0.5,0.9l0.6,0.5
		L16.5,17.4z M16.9,15.3c0.1,0.2,0.2,0.4,0.3,0.5l2.2-1.2c-0.1-0.2-0.2-0.4-0.3-0.5L16.9,15.3z"/>
</g>
<g>
	<path ng-class="{ '{{$ctrl.id}}': true}" d="M14.8,18.9c-0.3,0-0.5,0-0.7-0.1l0,0v4l0,0c0.2-0.1,0.5-0.1,0.7-0.1c0.3,0,0.5,0,0.7,0.1l0,0v-4l0,0
		C15.3,18.9,15,18.9,14.8,18.9z"/>
	<path ng-class="{ '{{$ctrl.id}}': true}" d="M13.6,23.5v-5.4l0.7,0.2c0.4,0.1,0.8,0.1,1.1,0l0.7-0.2v5.4l-0.7-0.2c-0.4-0.1-0.8-0.1-1.1,0L13.6,23.5z
		 M14.8,22.2c0.1,0,0.2,0,0.2,0v-2.8c-0.2,0-0.3,0-0.5,0v2.8C14.6,22.2,14.7,22.2,14.8,22.2z"/>
</g>
<g>
	<path ng-class="{ '{{$ctrl.id}}': true}" d="M14.1,2.6c0.2,0.1,0.4,0.2,0.6,0.2c0.2,0,0.5-0.1,0.6-0.2c0.4-0.2,0.7-0.7,0.7-1.2c0,0,0,0,0,0
		c0-0.7-0.6-1.3-1.4-1.3c-0.7,0-1.4,0.6-1.4,1.3c0,0,0,0,0,0C13.4,1.9,13.7,2.4,14.1,2.6z"/>
</g>
<g>
	<path ng-class="{ '{{$ctrl.id}}': true}" d="M7.4,14.4c0.2,0.1,0.4,0.2,0.6,0.2c0.2,0,0.5-0.1,0.6-0.2c0,0,0.1-0.1,0.1-0.1c0.4-0.2,0.6-0.7,0.6-1.1
		c0,0,0,0,0,0c0-0.1,0-0.1,0-0.2c-0.1-0.4-0.3-0.7-0.6-1c-0.2-0.1-0.5-0.2-0.7-0.2c-0.3,0-0.5,0.1-0.7,0.2c-0.4,0.2-0.6,0.6-0.6,1.1
		c0,0,0,0,0,0C6.7,13.7,7,14.1,7.4,14.4z"/>
</g>
<g>
	<path ng-class="{ '{{$ctrl.id}}': true}" d="M0.6,18c0.2,0.1,0.5,0.2,0.7,0.2c0.3,0,0.5-0.1,0.7-0.2c0.3-0.2,0.6-0.5,0.6-0.9c0-0.1,0-0.2,0-0.2
		c0-0.5-0.2-0.9-0.6-1.1c-0.2-0.2-0.5-0.3-0.8-0.3c-0.8,0-1.4,0.6-1.4,1.4C0,17.3,0.3,17.8,0.6,18z"/>
</g>
<g>
	<path ng-class="{ '{{$ctrl.id}}': true}" d="M27.5,18c0.2,0.1,0.5,0.2,0.7,0.2c0.3,0,0.5-0.1,0.7-0.2c0.4-0.2,0.6-0.7,0.6-1.2c0-0.8-0.6-1.4-1.4-1.4
		c-0.3,0-0.6,0.1-0.8,0.3c-0.4,0.3-0.6,0.7-0.6,1.1c0,0.1,0,0.2,0,0.2C26.9,17.5,27.1,17.8,27.5,18z"/>
</g>
<g>
	<path ng-class="{ '{{$ctrl.id}}': true}" d="M2.8,24.7c0-0.5-0.3-0.9-0.6-1.1c-0.2-0.1-0.5-0.2-0.7-0.2c-0.3,0-0.5,0.1-0.7,0.2C0.3,23.9,0,24.3,0,24.8
		c0,0.8,0.6,1.4,1.4,1.4c0.2,0,0.5-0.1,0.7-0.2C2.5,25.7,2.8,25.3,2.8,24.7C2.8,24.8,2.8,24.7,2.8,24.7z"/>
</g>
<g>
	<path ng-class="{ '{{$ctrl.id}}': true}" d="M28.9,23.6c-0.2-0.1-0.5-0.2-0.7-0.2c-0.3,0-0.5,0.1-0.7,0.2c-0.4,0.2-0.6,0.6-0.6,1.1c0,0,0,0,0,0.1
		c0,0.5,0.3,1,0.7,1.2c0.2,0.1,0.4,0.2,0.7,0.2c0.8,0,1.4-0.6,1.4-1.4C29.6,24.3,29.3,23.9,28.9,23.6z"/>
</g>
<g>
	<path ng-class="{ '{{$ctrl.id}}': true}" d="M20.7,14.3c0,0,0.1,0.1,0.1,0.1c0.2,0.1,0.4,0.2,0.6,0.2c0.2,0,0.5-0.1,0.6-0.2c0.4-0.2,0.7-0.7,0.7-1.2
		c0,0,0,0,0,0c0-0.5-0.3-0.9-0.6-1.1c-0.2-0.1-0.5-0.2-0.7-0.2c-0.3,0-0.5,0.1-0.7,0.2c-0.3,0.2-0.6,0.6-0.6,1c0,0.1,0,0.1,0,0.2
		c0,0,0,0,0,0C20.1,13.6,20.3,14,20.7,14.3z"/>
</g>
<g>
	<path ng-class="{ '{{$ctrl.id}}': true}" d="M7.4,6.5c0.2,0.1,0.5,0.2,0.7,0.2c0.3,0,0.5-0.1,0.7-0.2c0.4-0.2,0.6-0.7,0.6-1.2c0,0,0,0,0-0.1
		c0-0.5-0.4-1-0.8-1.2C8.5,4,8.3,4,8.1,4C7.3,4,6.7,4.6,6.7,5.4C6.7,5.9,7,6.3,7.4,6.5z"/>
</g>
<g>
	<path ng-class="{ '{{$ctrl.id}}': true}" d="M20.1,5.4c0,0.5,0.3,0.9,0.6,1.2c0.2,0.1,0.5,0.2,0.7,0.2c0.3,0,0.5-0.1,0.7-0.2c0.4-0.2,0.6-0.7,0.6-1.2
		c0-0.8-0.6-1.4-1.4-1.4c-0.2,0-0.4,0-0.5,0.1C20.5,4.3,20.1,4.8,20.1,5.4C20.1,5.3,20.1,5.3,20.1,5.4z"/>
</g>
<g>
	<path ng-class="{ '{{$ctrl.id}}': true}" d="M8.7,27.4c-0.2-0.1-0.4-0.2-0.6-0.2c-0.2,0-0.5,0.1-0.6,0.2c-0.4,0.2-0.7,0.7-0.7,1.2c0,0,0,0,0,0
		c0,0.7,0.6,1.3,1.4,1.3c0.7,0,1.4-0.6,1.4-1.3c0,0,0,0,0,0C9.5,28.1,9.2,27.6,8.7,27.4z"/>
</g>
<g>
	<path ng-class="{ '{{$ctrl.id}}': true}" d="M22.1,27.4c-0.2-0.1-0.4-0.2-0.6-0.2c-0.2,0-0.5,0.1-0.6,0.2c-0.4,0.2-0.7,0.7-0.7,1.2c0,0,0,0,0,0
		c0,0.7,0.6,1.3,1.4,1.3c0.7,0,1.3-0.6,1.4-1.3c0,0,0,0,0,0C22.9,28.1,22.6,27.6,22.1,27.4z"/>
</g>
<g>
	<path ng-class="{ '{{$ctrl.id}}': true}" d="M16.1,17.1c0-0.1,0-0.1,0-0.2c0,0,0,0,0-0.1c0-0.5-0.2-0.9-0.6-1.1c0,0-0.1-0.1-0.1-0.1
		c-0.2-0.1-0.4-0.2-0.7-0.2c-0.2,0-0.5,0.1-0.7,0.2c0,0-0.1,0.1-0.1,0.1c-0.4,0.3-0.6,0.7-0.6,1.1c0,0,0,0,0,0.1c0,0.1,0,0.1,0,0.2
		c0.1,0.4,0.3,0.7,0.6,0.9l0,0c0.2,0.1,0.5,0.2,0.7,0.2c0.3,0,0.5-0.1,0.7-0.2l0,0C15.8,17.8,16.1,17.5,16.1,17.1z"/>
</g>
<g>
	<path ng-class="{ '{{$ctrl.id}}': true}" d="M16.2,24.7c0-0.5-0.3-0.9-0.6-1.1l0,0c-0.2-0.1-0.5-0.2-0.7-0.2c-0.3,0-0.5,0.1-0.7,0.2l0,0
		c-0.4,0.2-0.6,0.6-0.6,1.1c0,0,0,0,0,0.1c0,0.5,0.3,1,0.7,1.2c0.2,0.1,0.4,0.2,0.7,0.2c0.2,0,0.5-0.1,0.7-0.2
		C15.9,25.7,16.2,25.3,16.2,24.7C16.2,24.8,16.2,24.7,16.2,24.7z"/>
</g>
</svg>
