<?xml version="1.0" encoding="utf-8"?>
<!-- Generator: Adobe Illustrator 19.0.0, SVG Export Plug-In . SVG Version: 6.00 Build 0)  -->
<svg version="1.1" id="_1" xmlns="http://www.w3.org/2000/svg" xmlns:xlink="http://www.w3.org/1999/xlink" x="0px" y="0px"
	 viewBox="0 0 30.2 30" style="enable-background:new 0 0 30.2 30;" xml:space="preserve">
<style type="text/css">
	.{{$ctrl.id}}{fill:{{$ctrl.fill}};}
</style>
<g>
	<g>
		<path ng-class="{ '{{$ctrl.id}}': true}" d="M21.7,29.2l-0.9-0.9c-1.4-1.2-1.2-3.6-1.2-3.6h-4.1h-0.6h-4.1c0,0,0.2,2.4-1.2,3.6l-0.9,0.9
			c0,0-0.6,0.8,0.6,0.8h5.7h0.6h5.7C22.3,30,21.7,29.2,21.7,29.2z"/>
	</g>
	<path ng-class="{ '{{$ctrl.id}}': true}" d="M29.8,0H0.4C0.2,0,0,0.2,0,0.4v22.3c0,0.2,0.2,0.4,0.4,0.4h29.4c0.2,0,0.4-0.2,0.4-0.4V0.4
		C30.2,0.2,30,0,29.8,0z M26.8,18.2H3.4V3h23.4V18.2z"/>
</g>
</svg>
