<?xml version="1.0" encoding="utf-8"?>
<!-- Generator: Adobe Illustrator 19.0.0, SVG Export Plug-In . SVG Version: 6.00 Build 0)  -->
<svg version="1.1" id="Vrstva_1" xmlns="http://www.w3.org/2000/svg" xmlns:xlink="http://www.w3.org/1999/xlink" x="0px" y="0px"
	 viewBox="0 0 30 30" style="enable-background:new 0 0 30 30;" xml:space="preserve">
<style type="text/css">
	.{{$ctrl.id}}{fill:{{$ctrl.fill}};}
</style>
<g>
	<path ng-class="{ '{{$ctrl.id}}': true}" d="M15,10.6c0.8,0,1.6,0.2,2.2,0.6L21,4.6c-1.8-1-3.8-1.6-6-1.6c-2.2,0-4.2,0.6-6,1.6l3.8,6.6
		C13.4,10.8,14.2,10.6,15,10.6z"/>
	<path ng-class="{ '{{$ctrl.id}}': true}" d="M10.6,15H3c0,4.4,2.4,8.3,6,10.4l3.8-6.6C11.5,18.1,10.6,16.6,10.6,15z"/>
	<path ng-class="{ '{{$ctrl.id}}': true}" d="M19.4,15c0,1.6-0.9,3.1-2.2,3.8l3.8,6.6c3.6-2.1,6-5.9,6-10.4H19.4z"/>
	<circle ng-class="{ '{{$ctrl.id}}': true}" cx="15" cy="15" r="3.1"/>
	<path ng-class="{ '{{$ctrl.id}}': true}" d="M15,0C6.7,0,0,6.7,0,15c0,8.3,6.7,15,15,15c8.3,0,15-6.7,15-15C30,6.7,23.3,0,15,0z M15,28.4
		c-7.4,0-13.4-6-13.4-13.4c0-7.4,6-13.4,13.4-13.4s13.4,6,13.4,13.4C28.4,22.4,22.4,28.4,15,28.4z"/>
</g>
</svg>
