<?xml version="1.0" encoding="utf-8"?>
<!-- Generator: Adobe Illustrator 19.0.0, SVG Export Plug-In . SVG Version: 6.00 Build 0)  -->
<svg version="1.1" id="Vrstva_1" xmlns="http://www.w3.org/2000/svg" xmlns:xlink="http://www.w3.org/1999/xlink" x="0px" y="0px"
	 viewBox="0 0 61.6 30" style="enable-background:new 0 0 61.6 30;" xml:space="preserve">
<style type="text/css">
	.{{$ctrl.id}}{fill:{{$ctrl.fill}};}
</style>
<g>
	<path ng-class="{ '{{$ctrl.id}}': true}" d="M17.6,19.8c0.3,0.7,0.7,1.3,1.1,1.9c3.9-1.1,8.6-2.7,13-4.7c4.4-1.9,8.7-4.2,12.1-6.4
		c-0.2-0.7-0.4-1.4-0.7-2.1c-0.5-0.9-1-1.8-1.7-2.5c-0.6-0.7-1.3-1.4-2-2c-4-3.2-9.5-4.2-14.5-2c-5,2.2-8,7-8.3,12
		c-0.1,0.9,0,1.9,0.1,2.8C17,17.9,17.2,18.9,17.6,19.8z"/>
	<path ng-class="{ '{{$ctrl.id}}': true}" d="M61.5,1.5C60.4-1,52.6-0.2,42.2,3.1c0.2,0.2,0.4,0.5,0.7,0.7c0.4,0.5,0.8,1,1.1,1.5c3.8-0.9,6.6-1,7,0
		c0.5,1.2-2.3,3.7-6.6,6.4c-3.4,2.2-7.7,4.4-12.1,6.4c-4.5,2-9.1,3.6-13,4.7c-4.9,1.3-8.6,1.7-9.1,0.5c-0.4-1,1.4-2.9,4.6-5.1
		c-0.2-0.6-0.3-1.2-0.4-1.9c0-0.3-0.1-0.7-0.1-1C4.8,20.9-1,26.1,0.1,28.5c1.2,2.7,10.3,1.5,22-2.6c3.6-1.2,7.5-2.8,11.5-4.5
		c3.9-1.7,7.6-3.6,11-5.4C55.6,10.1,62.7,4.2,61.5,1.5z"/>
	<path ng-class="{ '{{$ctrl.id}}': true}" d="M23.4,26.8c3.8,2.3,8.6,2.8,12.9,0.9c4.3-1.9,7.2-5.8,8.1-10.1c-3.1,1.7-6.6,3.4-10.3,5
		C30.4,24.2,26.8,25.6,23.4,26.8z"/>
</g>
</svg>
