<?xml version="1.0" encoding="utf-8"?>
<!-- Generator: Adobe Illustrator 19.0.0, SVG Export Plug-In . SVG Version: 6.00 Build 0)  -->
<svg version="1.1" id="_1" xmlns="http://www.w3.org/2000/svg" xmlns:xlink="http://www.w3.org/1999/xlink" x="0px" y="0px"
	 viewBox="0 0 25.3 30" style="enable-background:new 0 0 25.3 30;" xml:space="preserve">
<style type="text/css">
	.{{$ctrl.id}}{fill:{{$ctrl.fill}};}
</style>
<g>
	<path ng-class="{ '{{$ctrl.id}}': true}" d="M17.1,27.7c-5.9,0-10.7-4.8-10.7-10.7c0-5.2,3.7-9.5,8.5-10.5V0.1c-0.3,0-0.7-0.1-1,0C6.2,0.7-0.6,7.4,0,16.2
		C0.6,23.8,6.2,30,13.9,30c4.8,0,8.9-2.4,11.4-6C23.3,26.3,20.4,27.7,17.1,27.7z"/>
	<path ng-class="{ '{{$ctrl.id}}': true}" d="M16.8,10.5c-3.8,0-6.9,3.1-6.9,6.9c0,3.8,3.1,6.9,6.9,6.9c3.8,0,6.9-3.1,6.9-6.9
		C23.7,13.6,20.6,10.5,16.8,10.5z M15.6,16.6c-0.3,0.3-0.9,0.3-1.2,0l-1.9-1.9c-0.3-0.3-0.3-0.9,0-1.2c0.3-0.3,0.9-0.3,1.2,0
		l1.9,1.9C16,15.7,16,16.2,15.6,16.6z"/>
</g>
</svg>
