<?xml version="1.0" encoding="utf-8"?>
<!-- Generator: Adobe Illustrator 19.0.0, SVG Export Plug-In . SVG Version: 6.00 Build 0)  -->
<svg version="1.1" id="_1" xmlns="http://www.w3.org/2000/svg" xmlns:xlink="http://www.w3.org/1999/xlink" x="0px" y="0px"
	 viewBox="0 0 30 30" style="enable-background:new 0 0 30 30;" xml:space="preserve">
<style type="text/css">
	.{{$ctrl.id}}{fill:{{$ctrl.fill}};}
</style>
<g>
	<path ng-class="{ '{{$ctrl.id}}': true}" d="M7.9,16.2c0,0,1.2-3.9,3.8-7.1l-0.5-0.5c-0.2-0.2-0.5-0.3-0.8-0.1l-9.2,5.1c-0.6,0.3-0.4,1.1,0.2,1.3L7.9,16.2
		z"/>
	<path ng-class="{ '{{$ctrl.id}}': true}" d="M13.8,22.1c0,0,3.9-1.2,7.1-3.8l0.5,0.5c0.2,0.2,0.3,0.5,0.1,0.8l-5.1,9.2c-0.3,0.6-1.1,0.4-1.3-0.2L13.8,22.1
		z"/>
	<path ng-class="{ '{{$ctrl.id}}': true}" d="M24.6,14.6C30,8.8,30,0,30,0s-8.8,0-14.6,5.4C11,9.5,8.3,16.6,8.3,16.6l2.6,2.6l2.6,2.6
		C13.4,21.7,20.5,19,24.6,14.6z M18.2,11.8c-1.2-1.2-1.2-3.2,0-4.4c1.2-1.2,3.2-1.2,4.4,0c1.2,1.2,1.2,3.2,0,4.4
		C21.4,13,19.4,13,18.2,11.8z"/>
	<path ng-class="{ '{{$ctrl.id}}': true}" d="M12.4,22.5c-1.4,1.7-4,3.3-8.3,3.4c0.1-4.3,1.7-6.8,3.4-8.3C5.3,18.5,0.1,21.4,0,30
		C8.6,29.9,11.5,24.7,12.4,22.5z"/>
	<path ng-class="{ '{{$ctrl.id}}': true}" d="M11.5,21c-0.6,0.7-1.7,1.3-3.6,1.1c-0.2-2,0.5-3,1.1-3.6c-1,0.3-3.2,1.4-2.8,5.3C10.1,24.2,11.2,21.9,11.5,21z
		"/>
</g>
</svg>
