<?xml version="1.0" encoding="utf-8"?>
<!-- Generator: Adobe Illustrator 19.0.0, SVG Export Plug-In . SVG Version: 6.00 Build 0)  -->
<svg version="1.1" id="_1" xmlns="http://www.w3.org/2000/svg" xmlns:xlink="http://www.w3.org/1999/xlink" x="0px" y="0px"
	 viewBox="0 0 30.3 30" style="enable-background:new 0 0 30.3 30;" xml:space="preserve">
<style type="text/css">
	.{{$ctrl.id}}{fill:{{$ctrl.fill}};}
</style>
<g>
	<path ng-class="{ '{{$ctrl.id}}': true}" d="M4,3.7c-1.6,2.5-2.5,5.5-2.5,8.7c0,9.1,7.4,16.5,16.5,16.5c3.2,0,6.2-0.9,8.7-2.5L4,3.7z M7.4,22.5
		c-3-2.9-4.7-7-4.5-11.2l1,0c-0.2,3.9,1.4,7.7,4.2,10.5L7.4,22.5z"/>
	<polygon ng-class="{ '{{$ctrl.id}}': true}" points="13.6,13.9 18.1,12.2 16.4,16.7 	"/>
	<circle ng-class="{ '{{$ctrl.id}}': true}" cx="18.1" cy="12.2" r="2.2"/>
	<path ng-class="{ '{{$ctrl.id}}': true}" d="M3.5,23.3L0,30h11.5v-0.8C8.3,28.1,5.5,26,3.5,23.3z"/>
	<g>
		<path ng-class="{ '{{$ctrl.id}}': true}" d="M23.9,12.2h-1.4c0-2.4-1.9-4.3-4.3-4.3V6.4C21.3,6.4,23.9,9,23.9,12.2z"/>
	</g>
	<g>
		<path ng-class="{ '{{$ctrl.id}}': true}" d="M27,12.1h-1.4c0-4.1-3.3-7.4-7.4-7.4V3.3C23,3.3,27,7.2,27,12.1z"/>
	</g>
	<g>
		<path ng-class="{ '{{$ctrl.id}}': true}" d="M30.3,12.2h-1.4c0-5.9-4.8-10.7-10.7-10.7V0C24.9,0,30.3,5.5,30.3,12.2z"/>
	</g>
</g>
</svg>
