<?xml version="1.0" encoding="utf-8"?>
<!-- Generator: Adobe Illustrator 19.0.0, SVG Export Plug-In . SVG Version: 6.00 Build 0)  -->
<svg version="1.1" id="Vrstva_1" xmlns="http://www.w3.org/2000/svg" xmlns:xlink="http://www.w3.org/1999/xlink" x="0px" y="0px"
	 viewBox="0 0 27.7 30" style="enable-background:new 0 0 27.7 30;" xml:space="preserve">
<style type="text/css">
	.{{$ctrl.id}}{fill:{{$ctrl.fill}};}
</style>
<g>
	<path ng-class="{ '{{$ctrl.id}}': true}" d="M8.7,21L5,27.9c-0.4,0.7-0.1,1.6,0.6,1.9C5.9,29.9,6.1,30,6.3,30c0.5,0,1-0.3,1.3-0.8l4.3-8.2H8.7L8.7,21z"/>
	<path ng-class="{ '{{$ctrl.id}}': true}" d="M16.1,21L16.1,21h-3.2l4.3,8.2c0.3,0.5,0.8,0.8,1.3,0.8c0.2,0,0.5-0.1,0.7-0.2c0.7-0.4,1-1.2,0.6-1.9L16.1,21z
		"/>
	<path ng-class="{ '{{$ctrl.id}}': true}" d="M27.7,9.9l-2.5-9.5c-0.1-0.3-0.3-0.4-0.6-0.3l-0.6,0.2c-0.3,0.1-0.4,0.3-0.3,0.6l2.5,9.5
		c0.1,0.3,0.3,0.4,0.6,0.3l0.6-0.2C27.6,10.4,27.8,10.1,27.7,9.9z"/>
	<path ng-class="{ '{{$ctrl.id}}': true}" d="M23.1,2c-0.1-0.3-0.3-0.4-0.6-0.3l-6,1.6c-0.3,0.1-0.4,0.3-0.3,0.6l1.9,7.4c0.1,0.3,0.3,0.4,0.6,0.3l6-1.6
		c0.3-0.1,0.4-0.3,0.3-0.6L23.1,2z"/>
	<path ng-class="{ '{{$ctrl.id}}': true}" d="M7,12.6c0.1,0.3,0.3,0.4,0.6,0.3l1.1-0.3c0.3-1.7,1.8-3,3.6-3c1.1,0,2.1,0.5,2.8,1.3l1.2-0.3
		c0.3-0.1,0.4-0.3,0.3-0.6l-1.2-4.5c-0.1-0.3-0.3-0.4-0.6-0.3L6.2,7.5C6,7.5,5.8,7.8,5.9,8L7,12.6z"/>
	<path ng-class="{ '{{$ctrl.id}}': true}" d="M5.9,11.9L5.2,9.2C5.1,8.9,4.9,8.8,4.6,8.9L0.4,10C0.1,10-0.1,10.3,0,10.5l0.7,2.7c0.1,0.3,0.3,0.4,0.6,0.3
		l4.2-1.1C5.8,12.4,5.9,12.2,5.9,11.9z"/>
	<path ng-class="{ '{{$ctrl.id}}': true}" d="M16,20v-4.9h-0.5c-0.3,0.6-0.8,1-1.3,1.4c-0.1,0.1-0.3,0.1-0.4,0.2c-0.4,0.2-0.9,0.3-1.5,0.3
		c-0.5,0-1-0.1-1.5-0.3c-0.1-0.1-0.3-0.1-0.4-0.2c-0.6-0.3-1-0.8-1.3-1.4H8.7V20h0.4h3.2h0.1h3.2H16z"/>
	<path ng-class="{ '{{$ctrl.id}}': true}" d="M14.1,11.2c-0.5-0.4-1.1-0.6-1.7-0.6c-1.1,0-2.1,0.7-2.5,1.7c-0.1,0.3-0.2,0.6-0.2,1c0,0.3,0,0.6,0.1,0.8
		c0.1,0.2,0.1,0.3,0.2,0.5c0.1,0.2,0.2,0.3,0.3,0.5c0.1,0.1,0.2,0.2,0.3,0.3c0.2,0.2,0.5,0.3,0.7,0.4c0.3,0.1,0.7,0.2,1,0.2
		c0.4,0,0.7-0.1,1-0.2c0.3-0.1,0.5-0.3,0.7-0.4c0.1-0.1,0.2-0.2,0.3-0.3c0.1-0.1,0.2-0.3,0.3-0.5c0.1-0.2,0.2-0.3,0.2-0.5
		c0.1-0.3,0.1-0.6,0.1-0.8C15.1,12.5,14.7,11.7,14.1,11.2z"/>
</g>
</svg>
