<?xml version="1.0" encoding="utf-8"?>
<!-- Generator: Adobe Illustrator 19.0.0, SVG Export Plug-In . SVG Version: 6.00 Build 0)  -->
<svg version="1.1" id="_1" xmlns="http://www.w3.org/2000/svg" xmlns:xlink="http://www.w3.org/1999/xlink" x="0px" y="0px"
	 viewBox="0 0 32.4 30" style="enable-background:new 0 0 32.4 30;" xml:space="preserve">
<style type="text/css">
	.{{$ctrl.id}}{fill:{{$ctrl.fill}};}
</style>
<g>
	<path ng-class="{ '{{$ctrl.id}}': true}" d="M32.3,5.7l-3.4,3.4l-2-1.9l0,0l-2-2.1l3.5-3.3c0,0-2.5-0.7-4.5,1.2c-2.1,1.9-1.7,5.3-1.7,5.3l-6.1,6.1
		l-5.5,5.4c0,0-3.4-0.4-5.3,1.7C3.4,23.6,4.1,26,4.1,26l3.3-3.5l2.1,2l0,0l1.9,2L8,29.9c0,0,2.5,0.6,4.5-1.3c2-2,1.6-5.3,1.6-5.3
		l5.3-5.6l6.3-5.9c0,0,3.4,0.4,5.3-1.6C32.9,8.1,32.3,5.7,32.3,5.7z"/>
	<path ng-class="{ '{{$ctrl.id}}': true}" d="M27.8,29.2l2.8-3l-18.7-19c0,0,0.8-1.3,0.1-2.8c0,0,1.6-2.3,5.6-1.2c0,0,1.1-0.1,0.3-1.3c0,0-1.7-2.5-5.3-1.9
		c0,0-2.3,0.7-3.1,2.5c0,0-1.9-0.2-3.6,1.3C4.1,5.5,4.5,8.3,4.5,8.3L2.2,8.4L0,10.6l3.7,3.9l2.4-2.2l0.4-2.1c0,0,1.8,0.3,2.6-0.1
		L27.8,29.2z"/>
</g>
</svg>
