<?xml version="1.0" encoding="utf-8"?>
<!-- Generator: Adobe Illustrator 19.0.0, SVG Export Plug-In . SVG Version: 6.00 Build 0)  -->
<svg version="1.1" id="Layer_1" xmlns="http://www.w3.org/2000/svg" xmlns:xlink="http://www.w3.org/1999/xlink" x="0px" y="0px"
	 viewBox="0 0 32.6 30" style="enable-background:new 0 0 32.6 30;" xml:space="preserve">
<style type="text/css">
	.{{$ctrl.id}}{fill:{{$ctrl.fill}};}
</style>
<g>
	<path ng-class="{ '{{$ctrl.id}}': true}" d="M32.2,8.4V7.7h0.4V5.8l-1,0V1.7H32V0.6h-0.8V0H1.4v0.6H0.6v1.1H1v4.1l-1,0v1.9h0.4v0.6H1v19.7H0.2V30h11.6
		v-1.9H11V15.7h0.2c0.4-2.4,2.5-4.3,5.1-4.3c2.6,0,4.7,1.9,5.1,4.3h0.1v12.4h-0.8V30h11.6v-1.9h-0.8V8.4H32.2z M2.5,7.5H0.2V6.1h2.3
		V7.5z M5.2,7.5H2.9V6.1h2.3V7.5z M7.9,7.5H5.6V6.1h2.3V7.5z M10.6,7.5H8.3V6.1h2.3V7.5z M13.3,7.5H11V6.1h2.3V7.5z M16,7.5h-2.3
		V6.1H16V7.5z M18.7,7.5h-2.3V6.1h2.3V7.5z M21.4,7.5h-2.3V6.1h2.3V7.5z M24.2,7.5h-2.3V6.1h2.3V7.5z M26.9,7.5h-2.3V6.1h2.3V7.5z
		 M29.6,7.5h-2.3V6.1h2.3V7.5z M30,7.5V6.1h2.3v1.3H30z M30,7.5"/>
</g>
</svg>
