<?xml version="1.0" encoding="utf-8"?>
<!-- Generator: Adobe Illustrator 19.0.0, SVG Export Plug-In . SVG Version: 6.00 Build 0)  -->
<svg version="1.1" id="Layer_1" xmlns="http://www.w3.org/2000/svg" xmlns:xlink="http://www.w3.org/1999/xlink" x="0px" y="0px"
	 viewBox="0 0 36.9 30" style="enable-background:new 0 0 36.9 30;" xml:space="preserve">
<style type="text/css">
	.st0{fill-rule:evenodd;clip-rule:evenodd;fill:#FFFFFF;}
</style>
<path ng-class="{ '{{$ctrl.id}}': true}" d="M31.4,8.3c-0.4-3-2.7-5-3-8.3c-1.3,1.8-1.5,3.5-1.6,5.1c-0.1,1-0.6,2.4-1.3,2.2c-1.4-0.4-2.7-1.5-3.8-2.5
	c-0.8-0.7-0.2-1.5,0.4-2.2C22.5,2,22.2,0.8,21.9,1c-1.7,1.1-3.5-1.3-5.2,0.3c-1.4,1.3-2.4,3.4-5.3,2.5c-0.8-0.3-3.2,2.1-3.6,3.6
	c-0.6,2.2-1.9,2.8-3.6,3.4c-4.9,1.9-5.1,4.2-2.7,8.6c0.9,1.7,2.1,3.3,1.7,5.4c-0.3,1.5,1.3,1.8,1.7,1.5c1.9-1.3,4.3-1.1,6.1-2.6
	c3.1-2.7,6.7-2.5,9.2,0.7c0.5,0.6,0.8,0.8,1.2,0.1c0.1,0.2,0.2,0.3,0.4,0.5c0.9,0.9,1.9,1.7,2.5,3c1,2.1,7,2.6,8.2,0.5
	c1.2-2,2.7-3.9,3.7-6c1.7-3.4,0.7-6.4-1.3-9.5C33.6,11.5,31.6,10.3,31.4,8.3L31.4,8.3z M31.4,8.3"/>
</svg>
