<?xml version="1.0" encoding="utf-8"?>
<!-- Generator: Adobe Illustrator 19.0.0, SVG Export Plug-In . SVG Version: 6.00 Build 0)  -->
<svg version="1.1" id="Layer_1" xmlns="http://www.w3.org/2000/svg" xmlns:xlink="http://www.w3.org/1999/xlink" x="0px" y="0px"
	 viewBox="0 0 69.4 30" style="enable-background:new 0 0 69.4 30;" xml:space="preserve">
<style type="text/css">
	.st0{fill-rule:evenodd;clip-rule:evenodd;fill:#FFFFFF;}
</style>
<path ng-class="{ '{{$ctrl.id}}': true}" d="M14.2,25.6c3.9-2.3,7.7-4.2,11.2,0.7c0.7,1,1.7,1.4,2.9,1.4c7.5,0.1,15,5.2,22.6,0.2c0.4-0.3,1.3,0,1.9-0.1
	c7.3-0.5,10.6-3.7,11.9-11.5c0,0-0.1,0-0.1,0c0,0,0.1-0.1,0.1-0.1c0,0,0,0,0,0c2.7-0.8,4.5-1.9,4.7-3.8c0-0.3,0-0.6-0.1-1
	c0-0.1,0-0.1,0-0.2c-0.1-0.4-0.3-0.8-0.5-1.3c0,0,0-0.1,0-0.1c-0.2-0.5-0.6-1-1-1.6c-0.4-0.5-0.3-1.6-0.2-2.3
	c0.7-2.9-1.6-3.7-3.3-3.5c-3.9,0.5-7.1-1.2-10.6-2c-1.9-0.5-3.9-1.4-5.2,1.7c-0.8,2-4,3.4-5.7,2.2c-2.7-1.9-4.5-0.7-6.1,0.6
	c-2,1.7-4.5,2.8-6.2,4.5c-2.3,2.2,1.2,4.6,1.3,7c0,0.1-0.2,0.2-0.7,0.8c-1.6-2.2-4.1-2.4-6.5-2.1c-4.8,0.6-9.2,4.4-14.5,1.6
	c-0.5-0.3-1.9,0.2-2.1,0.6c-1,2.7-2,1.7-3.4,0.3C3.6,16.6,1.9,16,1,17.4c-0.8,1.1-1.4,2.9-0.5,4.5C1.6,24.1,12.1,26.8,14.2,25.6
	L14.2,25.6z M14.2,25.6"/>
</svg>
