<?xml version="1.0" encoding="utf-8"?>
<!-- Generator: Adobe Illustrator 19.0.0, SVG Export Plug-In . SVG Version: 6.00 Build 0)  -->
<svg version="1.1" id="Layer_1" xmlns="http://www.w3.org/2000/svg" xmlns:xlink="http://www.w3.org/1999/xlink" x="0px" y="0px"
	 viewBox="199.5 382 15 30" style="enable-background:new 199.5 382 15 30;" xml:space="preserve">
<style type="text/css">
	.{{$ctrl.id}}{fill:{{$ctrl.fill}};}
</style>
<path ng-class="{ '{{$ctrl.id}}': true}" d="M214,411h-2.5v-10h1c0.3,0,0.5-0.2,0.5-0.5v-10c0-0.3-0.2-0.5-0.5-0.5h-0.4l-1.2-2.3c-0.1-0.1-0.3-0.3-0.4-0.3
	H210v-1c0-0.3-0.2-0.5-0.5-0.5h-0.3l-1.8-2.2l0,0v-1.3c0-0.3-0.2-0.5-0.5-0.5s-0.5,0.2-0.5,0.5v1.3l0,0l-1.8,2.2h-0.3
	c-0.3,0-0.5,0.2-0.5,0.5v1h-0.5c-0.2,0-0.4,0.1-0.4,0.3l-1.2,2.3h-0.4c-0.3,0-0.5,0.2-0.5,0.5v10c0,0.3,0.2,0.5,0.5,0.5h1v10H200
	c-0.3,0-0.5,0.2-0.5,0.5s0.2,0.5,0.5,0.5h1.5h11h1.5c0.3,0,0.5-0.2,0.5-0.5S214.3,411,214,411z M205.5,409.5c0,0.3-0.2,0.5-0.5,0.5
	s-0.5-0.2-0.5-0.5v-7c0-0.3,0.2-0.5,0.5-0.5s0.5,0.2,0.5,0.5V409.5z M207.5,409.5c0,0.3-0.2,0.5-0.5,0.5s-0.5-0.2-0.5-0.5v-7
	c0-0.3,0.2-0.5,0.5-0.5s0.5,0.2,0.5,0.5V409.5z M209.5,409.5c0,0.3-0.2,0.5-0.5,0.5s-0.5-0.2-0.5-0.5v-7c0-0.3,0.2-0.5,0.5-0.5
	s0.5,0.2,0.5,0.5V409.5z M207,399c-1.9,0-3.5-1.5-3.5-3.5s1.6-3.5,3.5-3.5s3.5,1.5,3.5,3.5S208.9,399,207,399z"/>
<path ng-class="{ '{{$ctrl.id}}': true}" d="M208,395h-0.5v-1c0-0.3-0.2-0.5-0.5-0.5s-0.5,0.2-0.5,0.5v1.5c0,0.3,0.2,0.5,0.5,0.5h1c0.3,0,0.5-0.2,0.5-0.5
	S208.3,395,208,395z"/>
</svg>
