<?xml version="1.0" encoding="utf-8"?>
<!-- Generator: Adobe Illustrator 19.0.0, SVG Export Plug-In . SVG Version: 6.00 Build 0)  -->
<svg version="1.1" id="Layer_1" xmlns="http://www.w3.org/2000/svg" xmlns:xlink="http://www.w3.org/1999/xlink" x="0px" y="0px"
	 viewBox="0 0 50.9 30" style="enable-background:new 0 0 50.9 30;" xml:space="preserve">
<style type="text/css">
	.{{$ctrl.id}}{fill:{{$ctrl.fill}};}
</style>
<g>
	<path ng-class="{ '{{$ctrl.id}}': true}" d="M31.8,23.9H19V30l12.8-2.3V23.9z M31.8,23.9"/>
	<g>
		<path ng-class="{ '{{$ctrl.id}}': true}" d="M4,19.7h4c3-1.2,5.8-2.8,8.4-4.8c0.6-0.5,1.2-1,1.8-1.5v-1.8c-3.6,3.4-7.9,6-12.7,7.6
			C5.1,19.4,4.5,19.5,4,19.7L4,19.7z M4,19.7"/>
		<path ng-class="{ '{{$ctrl.id}}': true}" d="M50.3,19.7c-0.2-0.1-4.6-2.7-5.9-3.6c-2.1-1.4-4-2.9-5.8-4.7c-0.4-0.4-0.9-0.9-1.3-1.3
			c-2.1-2.3-4-4.9-5.5-7.6V0h-1.6v2.2h-1.2V1.7c0-0.1,0-0.2-0.1-0.3c-0.2-0.2-0.5-0.2-0.6,0c-0.1,0.1-0.1,0.2-0.1,0.3v0.5h-2.5V1.7
			c0-0.1,0-0.2-0.1-0.3c-0.2-0.2-0.5-0.2-0.6,0c-0.1,0.1-0.1,0.2-0.1,0.3v0.5h-2.5V1.7c0-0.1,0-0.2-0.1-0.3c-0.2-0.2-0.5-0.2-0.6,0
			c-0.1,0.1-0.1,0.2-0.1,0.3v0.5h-0.9c0,0,0,0,0,0V0H19v3.5c0,0.1-0.1,0.1-0.1,0.2c-1.9,2.6-4.1,5-6.4,7.2c-2.2,1.9-4.5,3.7-6.9,5.3
			c-1.7,1.1-3.4,2.2-5.1,3.3C0.2,19.7,0,20.1,0,20.4V22c0,0.6,0.5,1.1,1.1,1.1h48.7c0.6,0,1.1-0.5,1.1-1.1v-1.4
			C50.9,20.3,50.6,19.9,50.3,19.7L50.3,19.7z M19,10.8v9.7H1.5c0,0,0.2-0.1,0.3-0.2c0.1,0,0.1-0.1,0.1-0.1c3.4-2.2,6.8-4.5,10-7
			c1.5-1.2,3-2.6,4.3-4c0.9-0.9,1.7-1.8,2.4-2.8C18.8,6.2,18.9,6,19,5.8L19,10.8L19,10.8z M28.5,20.5h-6.1V9.8
			c0-0.6,0.2-1.2,0.5-1.7c1.8,1.8,3.6,3.4,5.6,4.9V20.5z M28.5,11.3c-1.6-1.3-3.2-2.7-4.7-4.1c0.5-0.3,1-0.5,1.6-0.5
			c1.7,0,3.1,1.4,3.1,3.1V11.3z M31.8,20.5v-5.1c2.1,1.4,4.4,2.6,6.7,3.5c1.9,0.7,3.9,1.2,5.9,1.7L31.8,20.5z M38.7,17.4
			c-1.3-0.5-2.5-1.1-3.8-1.8c-0.9-0.5-1.8-1.1-2.7-1.6c-0.1-0.1-0.3-0.2-0.4-0.3V5.2c2.2,3.6,5.1,6.8,8.2,9.5c0.8,0.7,1.6,1.4,2.4,2
			c1.2,1,2.6,1.9,4,2.7c0,0,0.1,0,0.1,0.1C43.9,19,41.2,18.4,38.7,17.4L38.7,17.4z M38.7,17.4"/>
	</g>
</g>
</svg>
