<?xml version="1.0" encoding="utf-8"?>
<!-- Generator: Adobe Illustrator 19.0.0, SVG Export Plug-In . SVG Version: 6.00 Build 0)  -->
<svg version="1.1" id="Layer_1" xmlns="http://www.w3.org/2000/svg" xmlns:xlink="http://www.w3.org/1999/xlink" x="0px" y="0px"
	 viewBox="0 0 19.1 30" style="enable-background:new 0 0 19.1 30;" xml:space="preserve">
<style type="text/css">
	.{{$ctrl.id}}{fill:{{$ctrl.fill}};}
</style>
<g>
	<path ng-class="{ '{{$ctrl.id}}': true}" d="M19.1,19.8c-0.1-0.1-0.1-0.3-0.1-0.6c0-0.2,0-0.4-0.1-0.4c0,0-0.2,0-0.3,0.1c-0.1,0.1-0.8,0.3-1.5,0.2
		c-0.4-0.1-0.8-0.2-1.2-0.4C14.5,18,14,16.5,14,16.5c0,0,0,0,0,0c0,0-0.1,0-0.1,0c-0.1,0-0.1-0.1-0.1-0.1c0-0.1,0-0.1-0.1-0.1
		c-0.1,0-0.7,0-1.3,0c-2.2,0-6.7,0-6.7,0H5.5c-0.1,0-0.1,0.1-0.1,0.1c0,0.1-0.1,0.1-0.1,0.1c-0.1,0-0.1,0-0.1,0l0,0
		c0,0-0.6,1.5-1.9,2.2c-0.4,0.2-0.9,0.4-1.2,0.4c-0.7,0.1-1.3-0.1-1.5-0.2c-0.1-0.1-0.3-0.2-0.3-0.1c0,0-0.1,0.2-0.1,0.4
		c0,0.2-0.1,0.4-0.1,0.6C0,19.9,0,20,0,20c0,0.3,0.3,0.3,0.5,0.3c0.1,0,0.2-0.1,0.3-0.2c0.1-0.1,0.1-0.2,0.1-0.2
		c0-0.1,0-0.1-0.1-0.2c-0.1-0.1-0.2-0.2-0.2-0.2c0,0,0.3,0.2,0.6,0.4c0.4,0.2,0.7,0.3,0.7,0.4c0,0.1,0.1,0.2,0.2,0.2h0.5
		c0.2,0,0.3,0.1,0.3,0.2c0,0.1,0.3,0.2,0.6,0.2C3.8,20.9,4,21,4,21.1c0,0,0,0.1,0,0.2c-0.1,0.5-0.1,1.1-0.2,1.7
		c-0.1,0.6-0.1,1.3-0.2,1.9c-0.1,0.7-0.2,1.3-0.2,1.9c0,0,0,0.1,0,0.1c0,0.1-0.1,0.2-0.3,0.2c-0.1,0-0.3,0.1-0.3,0.2
		c0,0.1-0.2,0.2-0.5,0.2c-0.3,0-0.5,0.6-0.5,1.2v0c0,0.7,0.5,1.2,1.2,1.2h13c0.6,0,1.2-0.6,1.2-1.2v0c0-0.7-0.2-1.2-0.5-1.2
		c-0.3,0-0.5-0.1-0.5-0.2c0-0.1-0.1-0.2-0.3-0.2c-0.1,0-0.3-0.1-0.2-0.2c0,0,0-0.1,0-0.1c0-0.6-0.2-1.3-0.2-1.9
		c-0.1-0.6-0.1-1.3-0.2-1.9c-0.1-0.6-0.1-1.2-0.2-1.7c0-0.1,0-0.1,0-0.2c0-0.1,0.2-0.2,0.6-0.2c0.3,0,0.6-0.1,0.6-0.2
		c0-0.1,0.2-0.2,0.5-0.2c0.3,0,0.5-0.1,0.5-0.2c0-0.1,0.4-0.2,0.7-0.4c0.4-0.2,0.6-0.5,0.6-0.4c0,0-0.1,0.1-0.2,0.2
		c0,0.1-0.1,0.1-0.1,0.2c0,0.1,0,0.2,0.1,0.2c0.1,0.1,0.2,0.2,0.3,0.2c0.2,0,0.5-0.1,0.5-0.3C19.1,20,19.1,19.9,19.1,19.8L19.1,19.8
		z M9.2,21.2c-0.1,0.5-0.1,1.1-0.2,1.7c-0.1,0.6-0.1,1.3-0.2,1.9c-0.1,0.6-0.2,1.3-0.2,1.9c0,0.1,0,0.1,0,0.2c0,0.1-0.1,0.1-0.2,0.1
		c-0.1,0-0.3,0.1-0.3,0.2c0,0.1-0.5,0.2-1.1,0.2c-0.6,0-1.1-0.1-1.1-0.2c0-0.1-0.1-0.2-0.3-0.2c-0.1,0-0.3-0.1-0.2-0.1
		c0-0.1,0-0.1,0-0.2c0-0.6-0.2-1.3-0.2-1.9C5,24.1,5,23.5,4.9,22.9c-0.1-0.6-0.1-1.2-0.2-1.7c0-0.1,0-0.1,0-0.2
		c0-0.1,0.2-0.2,0.6-0.2c0.3,0,0.6-0.1,0.6-0.2c0-0.1,0.5-0.2,1.1-0.2c0.6,0,1.1,0.1,1.1,0.2c0,0.1,0.3,0.2,0.6,0.2
		c0.3,0,0.6,0.1,0.6,0.2C9.2,21.1,9.2,21.2,9.2,21.2L9.2,21.2z M14.4,21.2c-0.1,0.5-0.1,1.1-0.2,1.7c-0.1,0.6-0.1,1.3-0.2,1.9
		c-0.1,0.6-0.2,1.3-0.2,1.9c0,0.1,0,0.1,0,0.2c0,0.1-0.1,0.1-0.3,0.1c-0.1,0-0.3,0.1-0.3,0.2c0,0.1-0.5,0.2-1.1,0.2
		c-0.6,0-1.1-0.1-1.1-0.2c0-0.1-0.1-0.2-0.3-0.2c-0.1,0-0.3-0.1-0.2-0.1c0-0.1,0-0.1,0-0.2c0-0.6-0.2-1.3-0.2-1.9
		c-0.1-0.7-0.1-1.3-0.2-1.9c-0.1-0.6-0.1-1.2-0.2-1.7c0-0.1,0-0.1,0-0.2c0-0.1,0.2-0.2,0.6-0.2c0.3,0,0.6-0.1,0.6-0.2
		c0-0.1,0.5-0.2,1.1-0.2c0.6,0,1.1,0.1,1.1,0.2c0,0.1,0.3,0.2,0.6,0.2c0.3,0,0.6,0.1,0.6,0.2C14.4,21.1,14.4,21.2,14.4,21.2
		L14.4,21.2z M14.4,21.2"/>
	<path ng-class="{ '{{$ctrl.id}}': true}" d="M4.7,8.8c0.1,0,0.2-0.1,0.3-0.2c0-0.1,0-0.1,0-0.2c0-0.1,0.1,0,0.3,0.1C5.4,8.8,5.6,9,5.6,9.1
		c0,0.1,0.1,0.2,0.2,0.2h7.6c0.1,0,0.2-0.1,0.2-0.2c0-0.1,0.2-0.3,0.4-0.5c0.2-0.2,0.3-0.2,0.3-0.1c0,0.1,0,0.1,0,0.2
		c0,0.1,0.1,0.2,0.3,0.2c0.1,0,0.2,0,0.2-0.1c0.1-0.1,0.1-0.1,0.1-0.2c0-0.1-0.1-0.4-0.1-0.6c0-0.2,0-0.4,0-0.4l0,0
		c0,0-0.3,0.1-0.7,0.1c-0.5,0-1.2-0.1-2-0.6c-0.6-0.4-1-0.8-1.2-1.1c-0.4-0.6-0.4-1.1-0.3-1.1c0.1,0,0.1,0,0.2,0
		c0.7,0,0.9-0.2,0.9-0.2c0,0,0,0,0,0c0,0,0,0,0,0l0,0c-0.3-0.1-0.5-0.3-0.7-0.4c-0.4-0.2-0.6-0.5-0.6-0.6c0,0-0.1-0.6-0.2-1.3
		C9.9,1.7,9.8,1.1,9.7,0.5c-0.1-0.7-0.3-0.7-0.4,0L9.1,2.3C9,3,9,3.5,9,3.6c0,0-0.2,0.3-0.6,0.6C8.2,4.3,7.9,4.4,7.7,4.5
		c0,0,0,0,0,0c0,0,0,0,0,0l0,0c0,0,0.2,0.2,0.9,0.2c0.1,0,0.1,0,0.2,0c0.1,0,0.1,0.5-0.3,1.1C8.2,6.3,7.9,6.7,7.3,7.1
		c-0.8,0.5-1.6,0.6-2,0.6c-0.5,0-0.7-0.1-0.7-0.1c0,0,0,0,0,0c0,0,0,0.2,0,0.4c0,0.2-0.1,0.5-0.1,0.6c0,0.1,0,0.2,0.1,0.2
		C4.5,8.8,4.6,8.8,4.7,8.8L4.7,8.8z M4.7,8.8"/>
	<path ng-class="{ '{{$ctrl.id}}': true}" d="M0.5,14.7c0.1,0,0.2-0.1,0.3-0.2c0.1-0.1,0.1-0.2,0.1-0.2c0-0.1,0-0.1-0.1-0.2c-0.1-0.1-0.2-0.2-0.2-0.2
		c0,0,0.3,0.2,0.6,0.4c0.4,0.2,0.7,0.3,0.7,0.4c0,0.1,0.1,0.2,0.2,0.2h13.8c0.7,0,1.2-0.1,1.2-0.2c0-0.1,0.4-0.2,0.7-0.4
		c0.4-0.2,0.6-0.5,0.6-0.4c0,0-0.1,0.1-0.2,0.2c0,0.1-0.1,0.1-0.1,0.2c0,0.1,0,0.2,0.1,0.2c0.1,0.1,0.2,0.2,0.3,0.2
		c0.2,0,0.5-0.1,0.5-0.3c0-0.1,0-0.2,0-0.2c-0.1-0.1-0.1-0.3-0.1-0.6c0-0.2,0-0.4-0.1-0.4c0,0-0.2,0-0.3,0.1
		c-0.1,0.1-0.8,0.3-1.5,0.2c-0.4-0.1-0.8-0.2-1.2-0.4c-1.3-0.7-1.9-2.2-1.9-2.2c0,0,0,0,0,0c0,0-0.1,0-0.1,0c-0.1,0-0.1-0.1-0.1-0.1
		c0-0.1,0-0.1-0.1-0.1c-0.1,0-0.7,0-1.3,0c-2.2,0-6.7,0-6.7,0H5.5c-0.1,0-0.1,0.1-0.1,0.1c0,0.1-0.1,0.1-0.1,0.1c-0.1,0-0.1,0-0.1,0
		l0,0c0,0-0.6,1.5-1.9,2.2c-0.4,0.2-0.9,0.4-1.2,0.4c-0.7,0.1-1.3-0.1-1.5-0.2c-0.1-0.1-0.3-0.2-0.3-0.1c0,0-0.1,0.2-0.1,0.4
		S0.1,14,0,14.1c0,0.1,0,0.1,0,0.2C0,14.6,0.3,14.7,0.5,14.7L0.5,14.7z M0.5,14.7"/>
</g>
</svg>
