<?xml version="1.0" encoding="utf-8"?>
<!-- Generator: Adobe Illustrator 19.0.0, SVG Export Plug-In . SVG Version: 6.00 Build 0)  -->
<svg version="1.1" id="Layer_1" xmlns="http://www.w3.org/2000/svg" xmlns:xlink="http://www.w3.org/1999/xlink" x="0px" y="0px"
	 viewBox="0 0 43.8 30" style="enable-background:new 0 0 43.8 30;" xml:space="preserve">
<style type="text/css">
	.{{$ctrl.id}}{fill:{{$ctrl.fill}};}
</style>
<path ng-class="{ '{{$ctrl.id}}': true}" d="M42.6,17.4l-8.5-2.1c-0.8-0.2-1.3-0.9-1.3-1.7l0-5.3c0-0.9-0.6-1.6-1.5-1.7l-1.5-0.2c-0.9-0.1-1.5-0.9-1.5-1.8
	V1.9c0-0.9-0.8-1.7-1.7-1.8C25.1,0,23.5,0,21.9,0C9.8,0,0,1.9,0,4.2c0,0,0,0.1,0,0.1v24C0,29.3,0.7,30,1.6,30h40.6
	c0.9,0,1.6-0.7,1.6-1.6V19C43.8,18.3,43.3,17.6,42.6,17.4L42.6,17.4z M8.1,23.8c0,0.3-0.3,0.6-0.6,0.6h-3c-0.3,0-0.6-0.3-0.6-0.6
	v-2.9c0-1.1,0.9-2.1,2.1-2.1h0c1.1,0,2.1,0.9,2.1,2.1V23.8z M8.1,12.2c0,0.3-0.3,0.6-0.6,0.6h-3c-0.3,0-0.6-0.3-0.6-0.6V9.3
	c0-1.1,0.9-2.1,2.1-2.1h0c1.1,0,2.1,0.9,2.1,2.1V12.2z M18,23.8c0,0.3-0.3,0.6-0.6,0.6h-3c-0.3,0-0.6-0.3-0.6-0.6v-2.9
	c0-1.1,0.9-2.1,2.1-2.1h0c1.1,0,2.1,0.9,2.1,2.1L18,23.8L18,23.8z M18,12.2c0,0.3-0.3,0.6-0.6,0.6h-3c-0.3,0-0.6-0.3-0.6-0.6V9.3
	c0-1.1,0.9-2.1,2.1-2.1h0C17,7.3,18,8.2,18,9.3L18,12.2L18,12.2z M27.8,23.8c0,0.3-0.3,0.6-0.6,0.6h-3c-0.3,0-0.6-0.3-0.6-0.6v-2.9
	c0-1.1,0.9-2.1,2.1-2.1h0c1.1,0,2.1,0.9,2.1,2.1V23.8z M27.8,12.2c0,0.3-0.3,0.6-0.6,0.6h-3c-0.3,0-0.6-0.3-0.6-0.6V9.3
	c0-1.1,0.9-2.1,2.1-2.1h0c1.1,0,2.1,0.9,2.1,2.1V12.2z M37.3,23.8c0,0.3-0.2,0.6-0.6,0.6h-3c-0.3,0-0.6-0.3-0.6-0.6v-2.9
	c0-1.1,0.9-2.1,2-2.1h0c1.1,0,2,0.9,2,2.1V23.8z M37.3,23.8"/>
</svg>
