<?xml version="1.0" encoding="utf-8"?>
<!-- Generator: Adobe Illustrator 19.0.0, SVG Export Plug-In . SVG Version: 6.00 Build 0)  -->
<svg version="1.1" id="Layer_1" xmlns="http://www.w3.org/2000/svg" xmlns:xlink="http://www.w3.org/1999/xlink" x="0px" y="0px"
	 viewBox="0 0 30 30" style="enable-background:new 0 0 30 30;" xml:space="preserve">
<style type="text/css">
	.{{$ctrl.id}}{fill:{{$ctrl.fill}};}
</style>
<g>
	<path ng-class="{ '{{$ctrl.id}}': true}" d="M15,13.4c-0.9,0-1.6,0.7-1.6,1.6c0,0.9,0.7,1.6,1.6,1.6s1.6-0.7,1.6-1.6C16.6,14.1,15.9,13.4,15,13.4L15,13.4z
		 M15,0C6.8,0,0,6.8,0,15c0,8.2,6.8,15,15,15c8.2,0,15-6.8,15-15C30,6.8,23.2,0,15,0L15,0z M18.3,18.3L6,24l5.7-12.3L24,6L18.3,18.3
		z M18.3,18.3"/>
</g>
</svg>
