<?xml version="1.0" encoding="utf-8"?>
<!-- Generator: Adobe Illustrator 19.0.0, SVG Export Plug-In . SVG Version: 6.00 Build 0)  -->
<svg version="1.1" id="Layer_1" xmlns="http://www.w3.org/2000/svg" xmlns:xlink="http://www.w3.org/1999/xlink" x="0px" y="0px"
	 viewBox="0 0 33.5 30" style="enable-background:new 0 0 33.5 30;" xml:space="preserve">
<style type="text/css">
	.{{$ctrl.id}}{fill:{{$ctrl.fill}};}
</style>
<path ng-class="{ '{{$ctrl.id}}': true}" d="M33.5,7.9c0.1-0.3-0.3-0.5-0.3-0.5c0.2-0.5,0-1.2-0.3-1.3c-0.3-0.1-0.7,0.2-0.9,0.5c-0.2,0.3-0.2,0.9-0.2,0.9
	s-0.3,0.2-0.5,0.5c-0.2,0.2-0.4,0.9-0.4,0.9s-0.4,0.2-1.1,0.5c-0.7,0.3-2.2,0-2.2,0S26.7,8,26.3,7.6c-0.5-0.4-0.9-0.6-1-0.9
	c-0.1-0.3-0.5-0.4-0.7-0.5C24.3,6.2,24,6,23.7,5.9c-0.3-0.2-1.1,0.1-1.4,0c-0.3-0.1-0.7,0.3-0.7,0.3l-0.7-0.4l0-0.9
	c0.3-0.1,0.3-0.4,0.3-0.6c0-0.2,0.1-0.8,0.2-1.4c0.1-0.6-0.2-0.6-0.2-0.6L21.3,2l-0.2-0.6c0,0,0.1-0.2,0.1-0.4
	c0-0.2-0.3-0.5-0.9-0.8c-0.6-0.3-2.5-0.2-2.9,1c-0.4,1.2,0.4,2.4,0.5,2.6C18,3.8,18.3,4,18.3,4.3c0,0.3,0.2,1.2-0.1,1.4
	c-0.3,0.1-0.7-0.3-1.4-0.3c-0.7,0-1,0.6-1,0.6s-1.1,0.1-1.3,0.2c-0.2,0.1-0.1,0.3-0.1,0.3s-1.3,0.2-1.5,0.3C12.6,6.8,12.5,7,12.5,7
	s-0.4,0-1.2,0.2C10.5,7.4,9.9,7.6,9,7.5C8.1,7.4,5.4,8.2,4.3,8.4C3.2,8.6,2.7,8.8,2.2,9.3C1.8,9.7,0.8,10.5,0.5,11
	c-0.3,0.5-0.6,1.2-0.5,1.3c0.1,0,0.6-0.8,0.6-0.8s0,0.3,0.1,0.5c0.1,0.2,0.3,0.7,0.5,0.7c0.2,0,0.1-0.4,0.1-0.4s0.1,0,0.1-0.1
	c0-0.1-0.1-0.2-0.2-0.3c-0.1-0.1,0-0.6,0-0.6s0.2,0.4,0.4,0.5c0.2,0.1,0.4,0.1,0.5,0c0.1-0.1-0.2-0.2-0.3-0.2
	c-0.2-0.1-0.1-0.4-0.1-0.5c0-0.2,0.2-0.3,0.5-0.3c0.2,0.1,0.2,0.4,0.2,0.8c0,0.4,0,0.5,0.2,0.5c0.1,0,0.1-0.3,0.2-0.6
	c0.1-0.3,0.2-0.6,0.4-0.8c0.2-0.2,0.1-0.8,0.3-1C3.5,9.6,4.8,9.6,6,9.6c1.2,0.1,2.8-0.1,2.8-0.1s0,8.6,0,9.1c0,0.4-0.2,0.7-0.2,0.7
	s-0.3,0.3-0.3,0.8c0.1,0.5,0.5,0.6,0.5,0.6l0,0.5c0,0-0.4,0.2-0.5,1c-0.1,0.7,0.5,1,0.5,1s0.2,0.2,0.3,1.1C9.3,25.2,9,26.2,9,26.2
	s-0.3,0.1-0.6,0.1c-0.2,0.1-0.3,0.3-0.4,0.5c0,0.2-0.4,0.7-0.6,1H5.2V30h27v-2.1h-4.5c0,0,0,0,0,0c-0.1-0.2-0.3-0.5-0.2-1
	c0.1-0.5,0.5-0.9,0.5-1.3c0-0.2-0.1-0.6-0.3-0.9l4-12.6c0,0,0.9,0.4,1.2,0.3c0.3-0.1,0.4-0.5,0.2-0.8c-0.2-0.3-0.7-0.2-0.7-0.2
	s0-0.2-0.1-0.3c-0.1-0.1-0.5-0.3-0.5-0.3l0.3-1c0,0,0.2,0,0.4-0.1c0.2-0.1,0.5-0.2,0.8-0.7c0.3-0.5,0-1,0-1S33.4,8.1,33.5,7.9
	L33.5,7.9z M11.1,16c0,0-0.6-1.1-0.7-2c-0.2-0.9,0-2.1,0-2.1h1.1c0,0-0.1,1.4,0,2.3c0.2,0.9,0.8,1.8,0.8,1.8L11.1,16L11.1,16z
	 M24.2,6.8C25.3,7,26,7.6,26,7.6s-0.6-0.2-1.7-0.3c-1-0.1-3.2,0.2-3.2,0.2S23.1,6.6,24.2,6.8L24.2,6.8z M19.1,8.2
	c0,0,1.1,0.2,1.7,0.2c0.7,0,1.7-0.2,3.3-0.4c1.6-0.3,2.2,0.2,2.3,0.2c0.1,0-0.8,0.1-1.8,0.2c-1,0.2-2.1,0.8-3.4,1.1
	c-1.3,0.4-2.6-0.9-2.6-0.9c0.9,0.2,1.5,0.1,1.5,0.1L19.1,8.2z M17,5.9c0,0-0.2,0.8,0.2,1.6c0.4,0.8,1.5,1.6,1.5,1.6s-2-0.8-2.3-1.7
	C16.1,6.4,16.9,5.9,17,5.9L17,5.9z M17,27.9H14c0-0.2,0.1-0.5,0-0.7c-0.1-0.4-0.3-0.7-0.6-0.7c-0.3,0-0.4-0.2-0.7-1.2
	c-0.3-1.1,0.6-1.8,0.8-2.4c0.2-0.6,0.1-1.9,0.1-1.9h0.7c0,0-0.2,0.4-0.1,0.8c0,0.5,0.3,0.7,0.3,0.7s0,0.2,0.1,0.5
	c0.2,0.3,0.6,0.4,0.6,0.4l-0.1-0.9c0,0,0,0.4,0.4,1c0.3,0.6,0.7,1.1,1.1,1.9c0.4,0.8,0.2,2.1,0.2,2.5C17,27.8,17,27.9,17,27.9
	L17,27.9z M21.7,23.4c-0.1,1-0.4,1.5-0.7,2c-0.3,0.6-0.7,1.3-0.9,1.6c-0.1-0.2-0.3-0.4-0.4-0.5c-0.2-0.3-0.9-1.7-1-2.2
	c-0.1-0.6-0.1-0.8,0-1.4c0.2-0.6,0-1.3,0-1.3s0.3,0.1,0.7,0.1c0.4,0.1,0.6-0.1,1.1,0c0.5,0.1,1.5-0.1,1.5-0.1
	C21.7,22.1,21.8,22.4,21.7,23.4L21.7,23.4z M24.1,27.5c0,0-0.1,0.1-0.2,0.2c-0.1-0.1-0.2-0.2-0.3-0.2c-0.2-0.2-0.8-0.8-0.7-1.4
	c0.1-0.6,1.1-1.9,1.1-1.9S24,25.8,24,26.3C24,26.7,24.1,27.4,24.1,27.5L24.1,27.5z M23.2,14.3c-0.8,0.5-1.2,1.6-2.8,2.1
	c-1.6,0.5-3-1.1-3.9-1.6c-0.9-0.5-1.8,0.5-1.8,0.5c1.1-1.1,1.4-1.1,2.4-0.6c1.1,0.6,1.2,1,2.6,1.3c1.1,0.2,1.8-1.2,3-1.9
	c1.3-0.7,2.6-0.2,2.6-0.2S23.9,13.8,23.2,14.3L23.2,14.3z M26.1,10.1C26,10.6,26,13.3,26,13.3l-0.8-0.2c0,0,0-2.9,0.4-3.5
	C26,9,27.1,9.2,27.1,9.2S26.2,9.6,26.1,10.1L26.1,10.1z M27.8,19.6c0-0.6,0-1.3,0-2c0-1.4-0.3-6-0.3-6s0.6-0.1,0.8-0.2
	c0.3-0.1,0.8-0.3,0.8-0.3s0.1,0.1,0.4,0.3c0.2,0.1,0.8,0.4,0.8,0.4L27.8,19.6z M27.8,19.6"/>
</svg>
