<?xml version="1.0" encoding="utf-8"?>
<!-- Generator: Adobe Illustrator 19.0.0, SVG Export Plug-In . SVG Version: 6.00 Build 0)  -->
<svg version="1.1" id="Layer_1" xmlns="http://www.w3.org/2000/svg" xmlns:xlink="http://www.w3.org/1999/xlink" x="0px" y="0px"
	 viewBox="0 0 14.1 30" style="enable-background:new 0 0 14.1 30;" xml:space="preserve">
<style type="text/css">
	.{{$ctrl.id}}{fill:{{$ctrl.fill}};}
</style>
<g>
	<g>
		<path ng-class="{ '{{$ctrl.id}}': true}" d="M14,28.5l-2.5-4.4V23c0-0.5-0.3-0.9-0.8-1l-1-3.3l0.3-0.3c0.2-0.3,0.3-0.7,0.1-1C10,17,9.7,16.9,9.4,16.8
			c-0.2-1-0.5-3.1-0.6-6.2C8.7,6.9,8.6,4.8,8.6,4.1c0.1-0.2,0.2-0.4,0.2-0.7V2.6c0-0.5-0.3-1-0.7-1.2V1c0-0.5-0.4-1-1-1
			c-0.5,0-1,0.4-1,1v0.5C5.6,1.7,5.3,2.1,5.3,2.6v0.8c0,0.3,0.1,0.5,0.2,0.7c0,0.6-0.1,2.7-0.3,6.5c-0.1,3.1-0.4,5.1-0.6,6.2
			C4.4,16.9,4.2,17,4,17.3c-0.2,0.3-0.1,0.7,0.1,1l0.3,0.3l-1,3.3c-0.4,0.1-0.8,0.5-0.8,1v1.1l-2.5,4.4c-0.2,0.3-0.2,0.7,0,1
			C0.3,29.8,0.6,30,1,30h2.5c0.5,0,1-0.4,1-1c0-1.4,1.2-2.6,2.6-2.6c1.4,0,2.6,1.2,2.6,2.6c0,0.5,0.4,1,1,1h2.5c0,0,0,0,0,0
			c0.5,0,1-0.4,1-1C14.1,28.8,14.1,28.6,14,28.5L14,28.5z M6.5,18.7h1.1l0.7,3.8H5.8L6.5,18.7z M6.5,18.7"/>
	</g>
</g>
</svg>
