<?xml version="1.0" encoding="utf-8"?>
<!-- Generator: Adobe Illustrator 19.0.0, SVG Export Plug-In . SVG Version: 6.00 Build 0)  -->
<svg version="1.1" id="Layer_1" xmlns="http://www.w3.org/2000/svg" xmlns:xlink="http://www.w3.org/1999/xlink" x="0px" y="0px"
	 viewBox="0 0 27.5 30" style="enable-background:new 0 0 27.5 30;" xml:space="preserve">
<style type="text/css">
	.{{$ctrl.id}}{fill:{{$ctrl.fill}};}
</style>
<g>
	<g>
		<path ng-class="{ '{{$ctrl.id}}': true}" d="M3,1.5C3,0.7,2.3,0,1.5,0C0.7,0,0,0.7,0,1.5v27C0,29.3,0.7,30,1.5,30C2.3,30,3,29.3,3,28.5V16.7c0,0,0,0,0,0
			L3,1.5z M3,1.5"/>
		<path ng-class="{ '{{$ctrl.id}}': true}" d="M22.8,8.2c-0.3-0.3-0.3-0.8,0-1.1C24.2,5.3,25.7,4,27,2.9c1.2-1-0.4-1.7-0.7-1.8C19.1-2,12,4.3,4.8,2.4v14.9
			c7.2,1.9,14.4-4.4,21.6-1.4c0.4,0.1,0.7,0.1,0.8-0.1c0.2-0.2,0.1-0.6-0.1-1C25.7,12.3,24.2,10.1,22.8,8.2L22.8,8.2z M22.8,8.2"/>
	</g>
</g>
</svg>
