<?xml version="1.0" encoding="utf-8"?>
<!-- Generator: Adobe Illustrator 19.0.0, SVG Export Plug-In . SVG Version: 6.00 Build 0)  -->
<svg version="1.1" id="Layer_1" xmlns="http://www.w3.org/2000/svg" xmlns:xlink="http://www.w3.org/1999/xlink" x="0px" y="0px"
	 viewBox="0 0 27.2 30" style="enable-background:new 0 0 27.2 30;" xml:space="preserve">
<style type="text/css">
	.st0{fill-rule:evenodd;clip-rule:evenodd;fill:#FFFFFF;}
</style>
<path ng-class="{ '{{$ctrl.id}}': true}" d="M27.1,14.6c-1.2-1.5-0.7-3.2-1.1-4.8c-0.2-0.8-1.5-1.2-1.1-1.9c2.1-3.2-2.1-4.4-2.1-6.9c0-0.2-0.6-0.6-0.9-0.2
	c-1.4,1.4-3.5,1.3-5,2.4c-0.7,0.5-1.3,0.4-2,0.1c0.3-0.6,0.6-1.2,0.9-1.8c-1.2,0.9-2.7,0.8-3.2,0c-1.2-2.2-3.1-1.2-4.9-1.4
	c1.5,0.7,0.1,1.7,0.5,2.4C8.7,3.1,9.1,3.7,8.2,4c-0.7,0.2-0.5,1.8-2.1,1c-1.9-1-2.7-0.1-2.6,2c0,0.8-0.1,1.6-0.8,2.1
	C2.4,9.2,2.2,9.3,2.3,9.7c0.5,1.5,0.2,2.1-1.3,2.4c-0.4,0.1-1.2,0.2-0.9,0.5c1.2,1.6-1.2,3.6,0.6,5.1c0.2,0.2,0.2,0.4,0.1,0.8
	c-0.4,2.9,0.6,4.2,3.5,4.7c0.6,0.1,1.2,0.3,2.2,0.5c-1.1,1.2-1.4,2.5-1.7,3.8c-0.2,1.3,0.3,1.9,1.5,1.4c1.8-0.6,3.4-0.1,5.1,0.2
	c0.6,0.1,1.3,0.9,1.4,0.8c1.3-1.7,3.2,0.3,4.6-0.9c0.7-0.6,1.9-0.6,2.9-0.1c1.1,0.6,1.3,0.1,0.9-0.8c-0.4-0.9-0.5-1.4,0.8-2
	c2.4-1.2,2.3-1.4,0.1-3.1c-0.5-0.4-1.1-0.7-1.5-1.1c-0.9-0.9-1.8-2.6-0.9-3.3c1.8-1.3,4.1-2.4,6.1-2.4
	C27.5,16.2,27.3,14.9,27.1,14.6L27.1,14.6z M27.1,14.6"/>
</svg>
