<?xml version="1.0" encoding="utf-8"?>
<!-- Generator: Adobe Illustrator 19.0.0, SVG Export Plug-In . SVG Version: 6.00 Build 0)  -->
<svg version="1.1" id="Layer_1" xmlns="http://www.w3.org/2000/svg" xmlns:xlink="http://www.w3.org/1999/xlink" x="0px" y="0px"
	 viewBox="0 0 30 30" style="enable-background:new 0 0 30 30;" xml:space="preserve">
<style type="text/css">
	.{{$ctrl.id}}{fill:{{$ctrl.fill}};}
</style>
<g>
	<path ng-class="{ '{{$ctrl.id}}': true}" d="M15,0C6.7,0,0,6.7,0,15c0,8.3,6.7,15,15,15c8.3,0,15-6.7,15-15C30,6.7,23.3,0,15,0L15,0z M12.1,5.4l0.7,0.2
		V4.6l0.3-0.3L13.4,5l0.6,0.7l-0.2,0.3l-0.9,0.2V5.6l-0.7,0.5l-0.2-0.3L12.1,5.4z M1.3,14.7c0.1-2.9,1-5.6,2.7-7.8
		c0.1,0,0.1,0,0.1,0c0,0.2-0.3,0.3,0,0.8c0.4,0.7,0.1,1,0.1,1s-0.9,0.6-1,0.7c-0.2,0.1-0.6,0.7-0.3,0.5C3,9.8,3.3,9.6,3.1,10
		c-0.3,0.4-0.7,1.1-0.8,1.3c-0.1,0.3-0.6,0.9-0.6,1.2c0,0.3-0.2,0.9-0.2,1.2C1.5,13.9,1.4,14.4,1.3,14.7L1.3,14.7z M6.6,23.3
		l-0.2,0.8l0.2,0.6c0,0-0.3,0.3-0.5,0.3c-0.2,0-0.3,0.1-0.5,0.1c-2-1.8-3.4-4.2-4-7c0.1,0,0.2,0.1,0.3,0.2c0.2,0.2,0.3,0.3,0.6,0.4
		c0.3,0.1,0.4,0.3,0.7,0.4c0.3,0.2,0.2,0.1,0.6,0.5C4.2,20,4.2,20,4.3,20.2c0.1,0.3,0.3,0.5,0.4,0.7c0.1,0.2,0.4,0.3,0.6,0.4
		c0.1,0.1,0.4,0.2,0.6,0.2c0.2,0,0.6,0.5,0.9,0.5c0.3,0.1,0.3,0.6,0.3,0.6L6.6,23.3z M8.7,3.4C8,4.1,8.2,3.9,8,4.1
		C7.9,4.3,7.9,4.3,7.6,4.6C7.2,4.9,7.1,5.2,7.1,5.2L6.5,5.4L6,5.2c0,0-0.4,0.2-0.4-0.1c0-0.1,0-0.1,0.1-0.2C7,3.8,8.5,2.8,10.1,2.2
		C9.9,2.4,9.7,2.6,9.7,2.6S9.4,2.6,8.7,3.4L8.7,3.4z M24.5,21.9c-0.1,0.2-0.2,0.6-0.2,0.8c-0.1,0.2-0.3,0.6-0.5,0.7
		c-0.2,0.1-0.4,0.4-0.6,0.5c-0.1,0.1-0.3-0.4-0.2-0.6c0.1-0.2,0.3-0.8,0.3-0.8s0.1-0.3,0.1-0.5c0.1-0.2,0.7-0.5,0.7-0.5l0.4-0.8
		c0,0,0.1,0.2,0.1,0.4C24.6,21.3,24.5,21.7,24.5,21.9L24.5,21.9z M24.6,17c-0.1,0.2-0.4,0.6-0.6,0.8c-0.2,0.2-0.4,0.5-0.7,0.8
		c-0.3,0.3-0.3,0.5-0.5,0.7c-0.2,0.2-0.4,0.7-0.4,0.7s0.1,1,0.2,1.2c0.1,0.2-0.4,0.8-0.4,0.8l-0.5,0.5l-0.6,0.8l0.1,0.8
		c0,0-0.5,0.4-0.7,0.6c-0.3,0.2-0.2,0.4-0.4,0.6c-0.2,0.2-0.8,0.6-1,0.6C19,25.9,18.1,26,18.1,26v-0.5L17.8,25c0,0-0.3-0.6-0.4-0.8
		c-0.2-0.2-0.2-0.5-0.4-0.8c-0.3-0.3-0.4-0.5-0.4-0.6c-0.1-0.2,0-0.6,0-0.6s0.2-0.6,0.3-0.8c0.1-0.2,0-0.5-0.1-0.7
		c-0.1-0.2-0.2-0.7-0.2-0.9c0-0.1-0.4-0.4-0.6-0.6c-0.2-0.2-0.1-0.4-0.1-0.6c0-0.2-0.2-0.7-0.1-1c0.1-0.4-0.5-0.1-0.8,0
		c-0.3,0.1-0.5-0.1-0.5-0.4c0-0.3-0.6-0.1-0.9,0.1c-0.4,0.2-0.8,0.2-1.2,0.4c-0.4,0.2-0.6-0.2-0.6-0.2s-0.4-0.3-0.6-0.5
		c-0.3-0.2-0.5-0.5-0.7-0.7c-0.2-0.3-0.7-1-0.8-1.3c-0.1-0.3,0-0.5,0-0.9c0-0.4,0-0.6,0.1-0.8c0.1-0.3,0.2-0.6,0.4-0.8
		c0.2-0.3,0.7-0.6,0.9-0.7c0.1-0.1,0.5-0.4,0.5-0.6c0-0.2,0.2-0.3,0.3-0.5c0.1-0.2,0.5-0.7,0.9-0.5c0,0,0.4-0.1,0.6-0.1
		c0.2-0.1,0.6-0.2,0.8-0.3c0.2-0.1,0.7-0.1,0.7-0.1s0.4,0.2,0.6,0.2c0.2,0,0.7-0.1,0.7-0.1s0.2,0.7,0.2,0.9c0,0.2,0.2,0.3,0.4,0.4
		c0.3,0.1,1.4,0.4,2-0.1c0.1-0.1,0.5,0.2,0.5,0.2s1.3,0.3,1.5,0.4c0.2,0.2,0.6,0.3,0.7,0.4c0.1,0.2,0.5,0.6,0.5,0.8
		c0.1,0.2,0.3,0.7,0.4,0.9c0.1,0.2,0.2,0.7,0.4,1c0.2,0.3,1,1.4,1.3,1.9l0.9-0.2C24.8,16.4,24.7,16.9,24.6,17L24.6,17z M28.4,15.1
		c-0.1-0.2-0.4-0.9-0.4-0.9s-0.3-0.4-0.5-0.5c-0.2-0.1-0.4-0.4-0.7-0.6c-0.4-0.2-0.5-0.3-0.8-0.3c-0.3,0-0.6-0.4-1-0.6
		c-0.4-0.2-0.4-0.1-0.4-0.1s0.4,0.6,0.4,0.8c0,0.2,0.5,0.4,0.9,0.3c0,0,0.3,0.6,0.5,0.7c0.1,0.2-0.1,0.3-0.4,0.5
		c-0.3,0.2-0.3,0.2-0.4,0.3c-0.1,0.2-0.7,0.4-0.8,0.5c-0.2,0.1-0.8,0.4-1.1,0.1c-0.1-0.1-0.1-0.5-0.2-0.7c-0.1-0.2-1.2-1.8-1.7-2.5
		c-0.1-0.1-0.3-0.5-0.5-0.6c-0.2-0.1,0.4-0.1,0.4-0.1s0-0.4-0.1-0.6c-0.1-0.3,0.1-0.6,0.1-0.6s-0.5,0.3-0.7,0.4
		c-0.2,0.1-0.3-0.2-0.5-0.5c-0.2-0.3-0.4-0.6-0.5-0.8C20,9,20.3,8.9,20.3,8.9l0.5-0.3c0,0,0.6-0.1,0.9-0.1c0.4,0.1,0.9,0.1,0.9,0.1
		s0.2-0.4-0.1-0.5c-0.2-0.2-0.7-0.4-0.9-0.4c-0.2,0.1,0.1-0.3,0.4-0.5l-0.6-0.1c0,0-0.5,0.3-0.7,0.3c-0.2,0.1-0.4,0.2-0.6,0.4
		C20,8.2,20.2,8.6,20,8.7c-0.2,0.1-0.3,0.2-0.5,0.2c-0.2,0.1-0.6,0-0.6,0c-0.5,0-0.2,0.5-0.1,0.7L18.4,9l-0.3-0.7
		c0,0-0.4-0.3-0.6-0.4c-0.2-0.1-0.8-0.5-0.8-0.5l0,0.5l0.6,0.6l0.1,0l0.4,0.4L17.1,9V8.6c-1.1-0.2-0.5-0.3-0.6-0.4
		c-0.2-0.1-0.5-0.4-0.5-0.4S15.3,8,15.1,8c-0.2,0.1-0.2,0.2-0.5,0.3c-0.3,0.1-0.5,0.3-0.6,0.4c-0.1,0.2-0.4,0.6-0.6,0.8
		c-0.2,0.2-0.6,0.1-0.8,0.1c-0.2,0-0.9-0.2-0.9-0.2V8.6c0,0,0.1-0.5,0.1-0.6l0.5-0.1L13,7.7l0.2-0.2l0.3-0.4c0,0-0.4-0.3-0.1-0.6
		c0.1-0.2,0.6-0.2,0.8-0.4c0.2-0.2,0.5-0.3,0.5-0.3s0.4-0.3,0.7-0.7c0,0,0.3-0.2,0.6-0.3c0,0,0.9,0.8,1,0.8c0.2,0,0.7-0.4,0.7-0.4
		S18,5,17.9,4.8c-0.1-0.2-0.3-0.7-0.3-0.7s-0.2,0.3-0.3,0.5C17.1,4.8,17,5.1,17,5.1S16.3,5,16.3,4.9c-0.1-0.2-0.1-0.4-0.2-0.6
		c0-0.2-0.5-0.1-0.8,0c-0.3,0.1,0.1-0.6,0.1-0.6s0.3-0.4,0.5-0.4C16,3.3,16.5,3,16.7,3c0.2-0.1,0.8-0.4,1.1-0.4c0.3,0,0.6,0,0.7,0
		h0.8l1.1,0.1c0,0,0.9,0.4,0.6,0.6c0,0,0.4,0.3,0.5,0.4c0.1,0.1,0.5-0.1,0.7-0.2c3.9,2.4,6.5,6.7,6.5,11.6c0,0.3,0,0.5,0,0.8
		C28.6,15.5,28.4,15.2,28.4,15.1L28.4,15.1z M28.4,15.1"/>
	<path ng-class="{ '{{$ctrl.id}}': true}" d="M12.4,5.6L12.4,5.6L12.4,5.6L12.4,5.6z M12.4,5.6"/>
</g>
</svg>
