<?xml version="1.0" encoding="utf-8"?>
<!-- Generator: Adobe Illustrator 19.0.0, SVG Export Plug-In . SVG Version: 6.00 Build 0)  -->
<svg version="1.1" id="Layer_1" xmlns="http://www.w3.org/2000/svg" xmlns:xlink="http://www.w3.org/1999/xlink" x="0px" y="0px"
	 viewBox="0 0 30 30" style="enable-background:new 0 0 30 30;" xml:space="preserve">
<style type="text/css">
	.{{$ctrl.id}}{fill:{{$ctrl.fill}};}
</style>
<g>
	<path ng-class="{ '{{$ctrl.id}}': true}" d="M15,0C6.7,0,0,6.7,0,15c0,8.3,6.7,15,15,15c8.3,0,15-6.7,15-15C30,6.7,23.3,0,15,0L15,0z M10.6,4.7
		C9.7,6,8.8,7.6,8.2,9.6h-3C6.4,7.4,8.3,5.7,10.6,4.7L10.6,4.7z M4.3,18.2c-0.3-1-0.5-2.1-0.5-3.2c0-1.1,0.2-2.2,0.5-3.2h3.4
		c-0.2,1-0.3,2-0.3,3.2c0,1.1,0.1,2.2,0.3,3.2H4.3z M5.2,20.4h3c0.6,2,1.5,3.6,2.4,4.9C8.3,24.3,6.4,22.6,5.2,20.4L5.2,20.4z
		 M13.9,25.7c-1.1-1.1-2.4-2.8-3.3-5.3h3.3V25.7z M13.9,18.2H9.9c-0.2-1-0.3-2-0.3-3.2s0.1-2.2,0.3-3.2h3.9L13.9,18.2L13.9,18.2z
		 M13.9,9.6h-3.3c0.9-2.5,2.2-4.2,3.3-5.3V9.6z M24.8,9.6h-3c-0.6-2-1.5-3.6-2.4-4.9C21.7,5.7,23.6,7.4,24.8,9.6L24.8,9.6z
		 M16.1,4.3c1.1,1.1,2.4,2.8,3.3,5.3h-3.3V4.3z M16.1,11.8h3.9c0.2,1,0.3,2,0.3,3.2s-0.1,2.2-0.3,3.2h-3.9L16.1,11.8L16.1,11.8z
		 M16.1,20.4h3.3c-0.9,2.5-2.3,4.2-3.3,5.3V20.4z M19.4,25.3c0.9-1.3,1.8-2.9,2.4-4.9h3C23.6,22.6,21.7,24.3,19.4,25.3L19.4,25.3z
		 M22.4,18.2c0.2-1,0.3-2,0.3-3.2c0-1.1-0.1-2.2-0.3-3.2h3.4c0.3,1,0.5,2.1,0.5,3.2c0,1.1-0.2,2.2-0.5,3.2H22.4z M22.4,18.2"/>
</g>
</svg>
