<?xml version="1.0" encoding="utf-8"?>
<!-- Generator: Adobe Illustrator 19.0.0, SVG Export Plug-In . SVG Version: 6.00 Build 0)  -->
<svg version="1.1" id="Layer_1" xmlns="http://www.w3.org/2000/svg" xmlns:xlink="http://www.w3.org/1999/xlink" x="0px" y="0px"
	 viewBox="194.4 382 25.1 30" style="enable-background:new 194.4 382 25.1 30;" xml:space="preserve">
<style type="text/css">
	.{{$ctrl.id}}{fill:{{$ctrl.fill}};}
</style>
<path ng-class="{ '{{$ctrl.id}}': true}" d="M201.9,399.7c1.6,1.6,3.8,2.5,6.1,2.5c2.3,0,4.4-0.9,6.1-2.5c3.3-3.3,3.3-8.8,0-12.1c-1.6-1.6-3.8-2.5-6.1-2.5
	s-4.4,0.9-6.1,2.5C198.5,390.9,198.5,396.3,201.9,399.7z"/>
<path ng-class="{ '{{$ctrl.id}}': true}" d="M219.2,399.7c-0.5-0.5-1.3-0.5-1.7,0l-1.7,1.7c0,0,0,0,0,0c-2.1,2.1-4.9,3.2-7.8,3.2c0,0,0,0,0,0c0,0,0,0,0,0
	c-2.9,0-5.7-1.1-7.8-3.2c-2.1-2.1-3.2-4.9-3.2-7.8c0-2.9,1.1-5.7,3.2-7.8c0,0,0,0,0,0l1.7-1.7c0.5-0.5,0.5-1.3,0-1.7
	c-0.5-0.5-1.3-0.5-1.7,0l-1.7,1.7c0,0,0,0,0,0c-2.5,2.5-3.9,5.9-3.9,9.5c0,3.6,1.4,7,3.9,9.5c2.3,2.3,5.2,3.6,8.3,3.9v2.5l-6.9,0
	c-0.7,0-1.2,0.5-1.2,1.2c0,0.7,0.5,1.2,1.2,1.2l8.2,0c0,0,0,0,0,0c0,0,0,0,0,0l8.2,0c0.7,0,1.2-0.5,1.2-1.2c0-0.7-0.5-1.2-1.2-1.2
	l-6.9,0V407c3.1-0.3,6.1-1.6,8.3-3.9c0,0,0,0,0,0l1.7-1.7C219.7,400.9,219.7,400.2,219.2,399.7z"/>
</svg>
