<?xml version="1.0" encoding="utf-8"?>
<!-- Generator: Adobe Illustrator 19.0.0, SVG Export Plug-In . SVG Version: 6.00 Build 0)  -->
<svg version="1.1" id="Layer_1" xmlns="http://www.w3.org/2000/svg" xmlns:xlink="http://www.w3.org/1999/xlink" x="0px" y="0px"
	 viewBox="0 0 28.4 30" style="enable-background:new 0 0 28.4 30;" xml:space="preserve">
<style type="text/css">
	.st0{fill-rule:evenodd;clip-rule:evenodd;fill:#FFFFFF;}
</style>
<g>
	<path ng-class="{ '{{$ctrl.id}}': true}" d="M27.7,19.3c-1.2-1-2.6-1.6-4-2.3c-0.5-0.2-1.5-0.3-1.3-1c0.4-1.3-0.3-1.1-1-1c-2,0.1-3.4-1-4-2.7
		c-0.5-1.5-1.4-2.6-2.8-3.1c-2.2-0.8-0.6-2.6-1.1-3.9c-0.3-0.6,1.1-0.5,1.6-0.9C15.3,4.1,15.7,4,16,3.9c1,0,0.7-0.7,0.5-1.2
		c-0.2-0.5,0.6-1.4-0.7-1.5c-0.7,0-1.7,0-2-0.4c-1.2-1.6-2.5-0.5-3.8-0.5c-1.6,0-2.2,2.5-4,1.2C5.6,3,4.9,3.3,4,1.9
		c0-0.1-0.5,0-0.5,0.1C3,3.3,1.9,3.1,0.9,3.2C0.5,3.3,0,3.6,0.1,3.7c1,1.3-0.6,2.5,0.1,3.9C0.8,9,2.4,10.1,3.4,9.3
		C5.7,7.4,7.9,8,8.7,10.9c0.4,1.4,1.4,2.2,2.4,2.9c1.8,1.3,3.3,3,5.7,3.6c1.6,0.4,2.9,2.3,4.5,3.3c1,0.7,1.3,2.1,1.2,3.1
		c0,0.6-0.9,1.4-2,1.7c-1.9,0.6-3.8,0.3-5.7,0.2c-0.6,0-1,0.1-1.1,0.7c-0.1,0.6,0.2,0.8,0.8,1.1c1.3,0.6,2.7,1.2,3.9,1.9
		c0.6,0.3,1.1,0.8,1.7,0.4c0.6-0.4,0.6-1,0.3-1.8c0.1-0.6,0.1-1.8,0.9-1.7c1.9,0.3,1.8-1.3,2.7-2c1.4-1.2,1.7-2,0-3
		c-0.1-0.1-0.1-0.7,0.1-1c0.4-1.1,1.7-1.1,2.9,0c0.4,0.3,0.6,1.1,1.2,0.5C28.7,20.3,28.2,19.7,27.7,19.3L27.7,19.3z M27.7,19.3"/>
	<path ng-class="{ '{{$ctrl.id}}': true}" d="M7.5,17.2c-0.9,0.3-3.4,0.5-1.8,2.8c0.2,0.3,0,0.9,0,1.6c-0.2,0.8-0.5,2.1,0.9,2c0.9-0.1,2.5-0.4,2.2-2.2
		c-0.1-0.7,0.4-1.5,0.3-2.2C9,18.3,8.8,16.7,7.5,17.2L7.5,17.2z M7.5,17.2"/>
</g>
</svg>
