<?xml version="1.0" encoding="utf-8"?>
<!-- Generator: Adobe Illustrator 19.0.0, SVG Export Plug-In . SVG Version: 6.00 Build 0)  -->
<svg version="1.1" id="Layer_1" xmlns="http://www.w3.org/2000/svg" xmlns:xlink="http://www.w3.org/1999/xlink" x="0px" y="0px"
	 viewBox="192 377.8 30 30" style="enable-background:new 192 377.8 30 30;" xml:space="preserve">
<style type="text/css">
	.{{$ctrl.id}}{fill:{{$ctrl.fill}};}
</style>
<g>
	<path ng-class="{ '{{$ctrl.id}}': true}" d="M219,380.3h-2.5h-2H209h-4h-5.5h-2H195c-0.9,0-1.7-0.6-1.9-1.4c6.4,0.7,21.2,0.5,27.8,0
		C220.7,379.7,219.9,380.3,219,380.3L219,380.3z M209,382.8h5v-1.5h-5V382.8z M206,387.3h2v-1h-2V387.3z M208.5,391.3h-1
		c-0.3,0-0.5-0.2-0.5-0.5s0.2-0.5,0.5-0.5h1c0.3,0,0.5,0.2,0.5,0.5S208.8,391.3,208.5,391.3L208.5,391.3z M208.5,394.3
		c-0.3,0-0.5-0.2-0.5-0.5s0.2-0.5,0.5-0.5c0.3,0,0.5,0.2,0.5,0.5S208.8,394.3,208.5,394.3L208.5,394.3z M207,397.8c-0.6,0-1-0.4-1-1
		h2C208,397.4,207.6,397.8,207,397.8L207,397.8z M205.5,393.3h1c0.3,0,0.5,0.2,0.5,0.5s-0.2,0.5-0.5,0.5h-1c-0.3,0-0.5-0.2-0.5-0.5
		S205.2,393.3,205.5,393.3L205.5,393.3z M205.5,390.3c0.3,0,0.5,0.2,0.5,0.5s-0.2,0.5-0.5,0.5s-0.5-0.2-0.5-0.5
		S205.2,390.3,205.5,390.3L205.5,390.3z M206,382.8h2v-1.5h-2V382.8z M200,382.8h5v-1.5h-5V382.8z M221.8,378
		c-0.1-0.1-0.2-0.1-0.4-0.1c-6.4,0.6-22.8,0.8-28.9,0c-0.1,0-0.3,0-0.4,0.1c-0.1,0.1-0.2,0.2-0.2,0.4c0,1.7,1.3,3,3,3h2v1.5h-1
		c-0.3,0-0.5,0.2-0.5,0.5v2.5c0,0.3,0.2,0.5,0.5,0.5h0.5v6.5h3.5v-6.5h5v1.5c-1.2,0.7-2,2.1-2,3.6v4.4c0,0.5,0.4,1,1,1h1
		c0,1.1,0.9,2,2,2s2-0.9,2-2h1c0.5,0,1-0.4,1-1v-4.5c0-1.1-0.5-2.2-1.4-3c-0.2-0.2-0.4-0.3-0.6-0.4v-1.5h5v6.5h3.5v-6.5h0.5
		c0.3,0,0.5-0.2,0.5-0.5v-2.5c0-0.3-0.2-0.5-0.5-0.5h-1v-1.5h2c1.7,0,3-1.3,3-3C222,378.2,221.9,378.1,221.8,378L221.8,378z"/>
	<polygon ng-class="{ '{{$ctrl.id}}': true}" points="214,395.3 217.5,395.3 217.5,393.8 214,393.8 	"/>
	<polygon ng-class="{ '{{$ctrl.id}}': true}" points="196.5,395.3 200,395.3 200,393.8 196.5,393.8 	"/>
	<path ng-class="{ '{{$ctrl.id}}': true}" d="M200,402.8h14v-1.5h-14V402.8z M217.5,405v-8.6H214v4h-14v-4h-3.5v8.6c-0.9,0.3-1.5,1.2-1.5,2.1
		c0,0.4,0.3,0.8,0.8,0.8h5c0.4,0,0.8-0.3,0.8-0.8c0-1-0.6-1.8-1.5-2.1v-1.1h14v1.1c-0.9,0.3-1.5,1.2-1.5,2.1c0,0.4,0.3,0.8,0.8,0.8
		h5c0.4,0,0.8-0.3,0.8-0.8C219,406.1,218.4,405.3,217.5,405L217.5,405z"/>
</g>
</svg>
