<?xml version="1.0" encoding="utf-8"?>
<!-- Generator: Adobe Illustrator 19.0.0, SVG Export Plug-In . SVG Version: 6.00 Build 0)  -->
<svg version="1.1" id="Layer_1" xmlns="http://www.w3.org/2000/svg" xmlns:xlink="http://www.w3.org/1999/xlink" x="0px" y="0px"
	 viewBox="0 0 26.2 30" style="enable-background:new 0 0 26.2 30;" xml:space="preserve">
<style type="text/css">
	.{{$ctrl.id}}{fill:{{$ctrl.fill}};}
</style>
<path ng-class="{ '{{$ctrl.id}}': true}" d="M25.8,28v-4.5H26c0,0,0-0.6-0.1-0.9c-0.1-0.3-0.5-0.3-0.5-0.3s0-0.3-0.3-0.6c-0.1-0.1-0.3-0.2-0.4-0.2v-1.8H25
	V19h-0.2c0.2-0.2,0.9-0.9,0.7-1.8c-0.2-1.2-1.9-1.8-2.3-3c-0.2-0.5-0.3-0.9-0.3-1.2v-1.9h0.4v-0.1h-0.4v-0.4h-0.1v0.4h-0.4v0.1h0.4
	v1.6c0,0.3-0.1,0.8-0.4,1.5c-0.4,1.2-2.1,1.8-2.3,3c-0.2,0.9,0.5,1.6,0.7,1.8h-0.2v0.7h0.3v1.8c-0.6,0.1-0.7,0.8-0.7,0.8
	s-0.2,0-0.4,0.1v-1.7h0c0,0,0.8-0.6,0.6-1.6c-0.1-0.9-1.2-1.4-1.7-2.2c0-0.1,0-0.2,0.1-0.5c0-0.3-0.2-0.6-0.2-0.6s0-0.3,0.1-0.6
	c0.1-0.3-0.3-0.7-0.3-0.8c0-0.1-0.3-0.6-0.2-0.8c0-0.1,0-0.6-0.1-0.8h0.2v-0.3h-0.7l-1.7-6.2V5.8h0.1V4.6h0.1V4.2
	c0.1-0.2,0.5-0.6,0.3-1.1c-0.2-0.4-1-1.2-1.1-1.5c-0.1-0.2-0.1-0.3-0.1-0.4V0.4h0.3V0.3h-0.3V0h-0.1v0.3h-0.3v0.1h0.3v0.8
	c0,0.1,0,0.2-0.1,0.4c-0.1,0.3-1,1.1-1.1,1.5c-0.2,0.5,0.1,0.9,0.3,1.1v0.4h0.1v1.2H14v0.6l-1.7,6.2h-0.8v0.3h0.3
	c-0.1,0.2,0,0.7-0.1,0.9c-0.1,0.2-0.1,0.7-0.3,1c-0.2,0.3-0.1,0.9-0.1,0.9s-0.1,0.1-0.2,0.3c-0.1,0.2,0.1,0.6,0,0.9
	c-0.6-0.5-1.4-1-1.6-1.6c-0.2-0.5-0.3-0.9-0.4-1.2v-1.4h0.4v-0.1H9.2v-0.3H9.1v0.3H8.8v0.1h0.3V14c-0.1,0.3-0.2,0.7-0.4,1.2
	c-0.3,0.7-1,1.1-1.6,1.6c-0.6-0.6-1.5-1.1-1.7-1.8c-0.2-0.6-0.4-1.1-0.4-1.4v-1.6h0.4v-0.1H5v-0.3H4.9v0.3H4.5v0.1h0.4v1.6
	c-0.1,0.3-0.2,0.8-0.4,1.4C4,16.2,2.1,16.8,1.8,18c-0.2,1,0.6,1.7,0.8,1.9v6.4c-0.3-0.2-0.5-0.5-0.6-0.8c-0.1-0.3-0.2-0.6-0.2-0.8
	v-0.6H2v-0.1H1.8v-0.3H1.7v0.3H1.4v0.1h0.3v0.7c0,0.2-0.1,0.4-0.2,0.7c-0.3,0.7-1.3,1-1.5,1.7c-0.1,0.6,0.4,1,0.5,1.1V30h25.7v-2
	H25.8z M25.8,28"/>
</svg>
