<?xml version="1.0" encoding="utf-8"?>
<!-- Generator: Adobe Illustrator 19.0.0, SVG Export Plug-In . SVG Version: 6.00 Build 0)  -->
<svg version="1.1" id="Layer_1" xmlns="http://www.w3.org/2000/svg" xmlns:xlink="http://www.w3.org/1999/xlink" x="0px" y="0px"
	 viewBox="0 0 30 30" style="enable-background:new 0 0 30 30;" xml:space="preserve">
<style type="text/css">
	.{{$ctrl.id}}{fill:{{$ctrl.fill}};}
</style>
<g>
	<path ng-class="{ '{{$ctrl.id}}': true}" d="M29.7,15.7L22.5,4.5c-0.8-1.2-2.5-1.2-3.3,0l-1.1,1.7l-3.4-5.3c-0.7-1.1-2.4-1.2-3.2-0.1L0.4,15.6
		c-1,1.3,0,3.1,1.6,3.1h26.1C29.6,18.7,30.5,17,29.7,15.7L29.7,15.7z M21.5,10l-2.4,1.8l-4.9-4.3L12.4,8L9.6,6.5L13,1.9l5,7.8
		l2.7-4.3l3.1,4.8L21.5,10z M21.5,10"/>
	<path ng-class="{ '{{$ctrl.id}}': true}" d="M22.8,27.4c-1.7-1.7-4.4-1.7-6.1,0c-0.4,0.4-1,0.7-1.7,0.7c-0.6,0-1.2-0.2-1.7-0.7c-0.8-0.8-1.9-1.3-3.1-1.3
		S8,26.5,7.2,27.4c-0.4,0.4-0.4,1,0,1.4c0.4,0.4,1,0.4,1.4,0c0.9-0.9,2.4-0.9,3.4,0c0.8,0.8,1.9,1.3,3.1,1.3s2.2-0.4,3.1-1.3
		c0.9-0.9,2.4-0.9,3.4,0c0.4,0.4,1,0.4,1.4,0C23.2,28.4,23.2,27.7,22.8,27.4L22.8,27.4z M22.8,27.4"/>
	<path ng-class="{ '{{$ctrl.id}}': true}" d="M27.5,22.5c-0.4-0.4-1-0.4-1.4,0c-0.9,0.9-2.4,0.9-3.4,0c-0.8-0.8-1.9-1.3-3.1-1.3s-2.2,0.4-3.1,1.3
		c-0.4,0.4-1,0.7-1.7,0.7c-0.6,0-1.2-0.2-1.7-0.7c-1.7-1.7-4.4-1.7-6.1,0c-0.4,0.4-1,0.7-1.7,0.7c-0.6,0-1.2-0.2-1.7-0.7
		c-0.4-0.4-1-0.4-1.4,0c-0.4,0.4-0.4,1,0,1.4c0.8,0.8,1.9,1.3,3.1,1.3c1.2,0,2.2-0.4,3.1-1.3c0.9-0.9,2.4-0.9,3.4,0
		c0.8,0.8,1.9,1.3,3.1,1.3c1.2,0,2.2-0.4,3.1-1.3c0.9-0.9,2.4-0.9,3.4,0c1.7,1.7,4.4,1.7,6.1,0C27.9,23.4,27.9,22.8,27.5,22.5
		L27.5,22.5z M27.5,22.5"/>
</g>
</svg>
