<?xml version="1.0" encoding="utf-8"?>
<!-- Generator: Adobe Illustrator 19.0.0, SVG Export Plug-In . SVG Version: 6.00 Build 0)  -->
<svg version="1.1" id="Layer_1" xmlns="http://www.w3.org/2000/svg" xmlns:xlink="http://www.w3.org/1999/xlink" x="0px" y="0px"
	 viewBox="0 0 10.4 30" style="enable-background:new 0 0 10.4 30;" xml:space="preserve">
<style type="text/css">
	.{{$ctrl.id}}{fill:{{$ctrl.fill}};}
</style>
<g>
	<path ng-class="{ '{{$ctrl.id}}': true}" d="M7.5,29l0-0.1l-0.1-1.7c0,0,0.1-0.3,0.2-0.6c0.2-0.2-0.1-4.8-0.1-4.8s0.2-0.5,0.3-0.6c0.1-0.1-0.3-3.1-0.2-3.1
		c0.1,0,0.5-0.3,0.7-0.4c0.2-0.1,0.7-1.5,0.7-1.5s0.1-0.2,0.4-0.3c0.2-0.2,0.4-0.6,0.5-0.8c0.1-0.2-0.1-0.5-0.1-0.5l0.3-0.8
		l-0.1-0.2L8.8,13l-0.6,0.8c0,0-0.5-0.3-0.8-0.6c-0.3-0.3-0.2-1.1-0.5-1.6c-0.1-0.2-0.4-0.4-0.7-0.5C6.2,10.9,6,10.5,6,10.3
		C5.9,10,6,9.5,6,9.3c0-0.1,0-0.4,0-0.6c0-0.1,0.1-0.1,0.1-0.1c0.4,0,1.3-0.3,1.2-0.3c0,0-0.8-0.1-1.3-0.1c0-0.1,0-0.1,0-0.1
		l1.1-0.7L5.8,7.8c-0.1-0.1,0-0.1-0.1-0.1c0.1-0.2,0.6-1.2,0.6-1.1c-0.2,0.2-0.9,0.9-1,1C5.2,7.4,5.1,7.4,5,7.4L4.8,5.8L4.6,7.4
		c-0.2,0-0.1,0-0.3,0.1c0,0-1-1-1.1-1c-0.1,0,0.6,1.2,0.6,1.2L3.7,7.8L2.9,7.6c0,0.1,0,0.1,0,0.2l0.7,0.3l0,0.1c0,0-0.4,0-0.6,0
		C2.9,8.3,3,8.4,3,8.5c0.2,0,0.5,0.1,0.5,0.1s0,0,0,0.1c0,0.1,0.1,0.2,0.1,0.2c0,0.4,0.1,0.6,0.1,0.6l-0.1,0.6c0,0-0.2,0-0.3-0.2
		C3.3,9.9,3,9.5,3,9.2C3,9,2.9,8.6,2.9,8.5c0-0.1-0.2-0.5-0.2-0.6c0-0.1,0-0.2,0-0.3c0,0,0-0.1,0-0.1h0c0,0,0-0.1,0-0.1
		c0-0.7-0.5-1.9-0.5-2.1c0-0.2,0-0.8,0-1.2c0-0.4-0.3-0.8-0.3-0.8s0-0.1,0.2-0.2C2,3,2,3,2,2.9c0.3-0.1,0.5-0.2,0.5-0.3
		c0,0,0-0.1-0.1-0.1V2.2c0,0,0.1-0.1,0.1-0.1c0-0.2-0.3-0.3-0.7-0.3c0-0.1,0-0.2,0.1-0.3C2,1.5,2.1,1.4,2.1,1.1c0-0.2,0-0.4,0-0.4
		c0.1-0.1,0.2-0.2,0.2-0.2L1.9,0.7L2.3,0c0,0-0.8,0.3-1.1,0.5C1,0.7,0.9,0.9,1,1.3c0.1,0.2,0.1,0.4,0.2,0.5C0.8,1.8,0.5,2,0.5,2.1
		c0,0,0,0.1,0.1,0.1v0.3c0,0-0.1,0.1-0.1,0.1c0,0.1,0.2,0.2,0.4,0.3C0.9,3.1,1,3.3,1,3.3c0,0-0.1,0.2-0.1,0.6c0,0.4,0.2,0.7,0.2,0.7
		s0,0.1,0,0.4c0,0.2,0.2,0.7,0.2,0.7s0.1,0.4,0,1.1c0,0.7,0.3,1.9,0.3,1.9S1.4,9.1,1.2,9.7C0.9,10.2,1.7,11,1.7,11s0.5,1.3,0.5,1.8
		c0,0.5,0.2,4.7,0.1,5.6c-0.1,0.9-0.2,3.7-0.2,4.1c0,0.4,0.3,1.9,0.2,3c-0.1,1.2-0.1,3.1-0.1,3.1l0,0.3H0v1h10.4v-1L7.5,29z
		 M8.9,13.2l1.1,0.5l-0.2,0.5c0,0-0.3,0-0.4,0.1c-0.2,0.1-0.4,0.5-0.4,0.7c0,0.1,0.1,0.4,0.1,0.4l-0.9,1.5L8,16.8l-0.1-2.1L8.9,13.2
		z M5,9.2c0,0.1,0,0.1-0.1,0.1c-0.1,0-0.1,0-0.1,0l0.1,0.1v0.1c0,0,0,0-0.1,0c-0.1,0-0.1,0.1-0.1,0.1c0,0,0.1,0,0.1,0
		c0.1,0,0.1,0.1,0.1,0.1V10c0,0.1,0,0.1-0.1,0.1c-0.1,0-0.3,0-0.4-0.2C4.2,9.7,4.2,9.3,4.3,9.3c0-0.1,0.3-0.2,0.4-0.2
		c0.1,0,0.1-0.2,0.1-0.2c0-0.1-0.3-0.1-0.3-0.1C4.3,8.6,4.9,8.3,4.9,8.3c0.1,0,0.4,0.3,0.4,0.3S5,8.7,5,8.8C4.9,8.8,5,9.1,5,9.2
		L5,9.2z M5.3,9.5C5.2,9.6,5,9.1,5.1,9.1c0,0,0.3,0,0.3,0.1C5.4,9.3,5.3,9.5,5.3,9.5L5.3,9.5z M5.1,8.2c-0.1,0-0.3-0.1-0.4,0
		C4.6,8.3,4.2,8.5,4.1,8.6C3.9,8.7,3.9,8.4,3.9,8.4c0.1-0.3,0.5-0.4,0.7-0.5c0.2,0,0.4,0,0.5,0.1c0.1,0,0.3,0,0.4,0.1
		c0.1,0.1,0.2,0.4,0.2,0.4C5.7,8.6,5.2,8.2,5.1,8.2L5.1,8.2z M5.1,8.2"/>
</g>
</svg>
