<?xml version="1.0" encoding="utf-8"?>
<!-- Generator: Adobe Illustrator 19.0.0, SVG Export Plug-In . SVG Version: 6.00 Build 0)  -->
<svg version="1.1" id="Layer_1" xmlns="http://www.w3.org/2000/svg" xmlns:xlink="http://www.w3.org/1999/xlink" x="0px" y="0px"
	 viewBox="192 382 30 30" style="enable-background:new 192 382 30 30;" xml:space="preserve">
<style type="text/css">
	.{{$ctrl.id}}{fill:{{$ctrl.fill}};}
</style>
<path ng-class="{ '{{$ctrl.id}}': true}" d="M208.5,398c0-0.8-0.6-1.5-1.5-1.5s-1.5,0.6-1.5,1.5c0,0.8,0.7,1.5,1.5,1.5S208.5,398.8,208.5,398z M206.5,398
	c0-0.3,0.2-0.5,0.5-0.5s0.5,0.2,0.5,0.5s-0.2,0.5-0.5,0.5S206.5,398.3,206.5,398z"/>
<path ng-class="{ '{{$ctrl.id}}': true}" d="M221.5,411H221v-6.5V402h-8.5v-1h2.5v-2c0-0.3,0.2-0.5,0.5-0.5s0.5,0.2,0.5,0.5v2h1v-2c0-0.3,0.2-0.5,0.5-0.5
	s0.5,0.2,0.5,0.5v2h3v-6v-1v-9.5c0-0.3-0.2-0.5-0.5-0.5H220v-1.5c0-0.3-0.2-0.5-0.5-0.5H213c-0.3,0-0.5,0.2-0.5,0.5v1.5H212
	c-0.3,0-0.5,0.2-0.5,0.5v8.9l-4-3.6V388h0.5c0.3,0,0.5-0.2,0.5-0.5s-0.2-0.5-0.5-0.5h-0.5v-0.5c0-0.3-0.2-0.5-0.5-0.5
	s-0.5,0.2-0.5,0.5v0.5H206c-0.3,0-0.5,0.2-0.5,0.5s0.2,0.5,0.5,0.5h0.5v1.8l-4,3.6v-8.9c0-0.3-0.2-0.5-0.5-0.5h-0.5v-1.5
	c0-0.3-0.2-0.5-0.5-0.5h-6.5c-0.3,0-0.5,0.2-0.5,0.5v1.5h-0.5c-0.3,0-0.5,0.2-0.5,0.5v9.5v1v6h3v-2c0-0.3,0.2-0.5,0.5-0.5
	s0.5,0.2,0.5,0.5v2h1v-2c0-0.3,0.2-0.5,0.5-0.5s0.5,0.2,0.5,0.5v2h2.5v1H193v2.5v6.5h-0.5c-0.3,0-0.5,0.2-0.5,0.5s0.2,0.5,0.5,0.5h1
	h2.5h1h4h1h2h1h4h1h2h1h4h1h2.5h1c0.3,0,0.5-0.2,0.5-0.5S221.8,411,221.5,411z M215,394v-7c0-0.3,0.2-0.5,0.5-0.5s0.5,0.2,0.5,0.5v7
	H215z M216.5,397.5c-0.3,0-0.5-0.2-0.5-0.5s0.2-0.5,0.5-0.5s0.5,0.2,0.5,0.5S216.8,397.5,216.5,397.5z M218,394h-1v-7
	c0-0.3,0.2-0.5,0.5-0.5s0.5,0.2,0.5,0.5V394z M213.5,383h5.5v1h-5.5V383z M196,394v-7c0-0.3,0.2-0.5,0.5-0.5s0.5,0.2,0.5,0.5v7H196z
	 M197.5,397.5c-0.3,0-0.5-0.2-0.5-0.5s0.2-0.5,0.5-0.5s0.5,0.2,0.5,0.5S197.8,397.5,197.5,397.5z M199,394h-1v-7
	c0-0.3,0.2-0.5,0.5-0.5s0.5,0.2,0.5,0.5V394z M200.5,384H195v-1h5.5V384z M199.5,411h-1v-1c0-0.3,0.2-0.5,0.5-0.5s0.5,0.2,0.5,0.5
	V411z M202,411h-1v-0.4c0-1.2-0.6-2.3-1.5-3l-0.5-0.4l-0.5,0.4c-0.9,0.8-1.5,1.9-1.5,3v0.4h-1v-0.4c0-1.5,0.6-2.9,1.9-3.9l0.8-0.6
	c0.2-0.1,0.4-0.1,0.6,0l0.8,0.6c1.2,1,1.9,2.4,1.9,3.9V411z M207.5,411h-1v-1c0-0.3,0.2-0.5,0.5-0.5s0.5,0.2,0.5,0.5V411z M210,411
	h-1v-0.4c0-1.2-0.6-2.3-1.5-3l-0.5-0.4l-0.5,0.4c-0.9,0.8-1.5,1.9-1.5,3v0.4h-1v-0.4c0-1.5,0.6-2.9,1.9-3.9l0.8-0.6
	c0.2-0.1,0.4-0.1,0.6,0l0.9,0.6c1.2,1,1.8,2.4,1.8,3.9V411L210,411z M204.5,398c0-1.4,1.1-2.5,2.5-2.5s2.5,1.1,2.5,2.5
	s-1.1,2.5-2.5,2.5S204.5,399.4,204.5,398z M203.3,394l3.7-3.4l3.7,3.4H203.3z M215.5,411h-1v-1c0-0.3,0.2-0.5,0.5-0.5
	s0.5,0.2,0.5,0.5V411z M218,411h-1v-0.4c0-1.2-0.6-2.3-1.5-3l-0.5-0.4l-0.5,0.4c-0.9,0.8-1.5,1.9-1.5,3v0.4h-1v-0.4
	c0-1.5,0.6-2.9,1.9-3.9l0.8-0.6c0.2-0.1,0.5-0.1,0.6,0l0.9,0.6c1.2,1,1.8,2.4,1.8,3.9V411L218,411z"/>
</svg>
