<?xml version="1.0" encoding="utf-8"?>
<!-- Generator: Adobe Illustrator 19.0.0, SVG Export Plug-In . SVG Version: 6.00 Build 0)  -->
<svg version="1.1" id="Layer_1" xmlns="http://www.w3.org/2000/svg" xmlns:xlink="http://www.w3.org/1999/xlink" x="0px" y="0px"
	 viewBox="0 0 23.9 30" style="enable-background:new 0 0 23.9 30;" xml:space="preserve">
<style type="text/css">
	.{{$ctrl.id}}{fill:{{$ctrl.fill}};}
</style>
<g>
	<g>
		<path ng-class="{ '{{$ctrl.id}}': true}" d="M11.5,0C5.6,0.2,0.6,4.9,0.1,10.8c-0.1,1.2,0,2.3,0.2,3.4c0,0,0,0.1,0.1,0.4c0.2,0.8,0.5,1.6,0.8,2.4
			c1.2,2.8,4,7.6,10.2,12.8c0.4,0.3,0.9,0.3,1.3,0c6.2-5.2,9-9.9,10.2-12.8c0.4-0.8,0.6-1.5,0.8-2.4c0.1-0.2,0.1-0.4,0.1-0.4
			c0.1-0.7,0.2-1.5,0.2-2.3C23.9,5.2,18.3-0.2,11.5,0L11.5,0z M12,17.9c-3.2,0-5.8-2.6-5.8-5.8c0-3.2,2.6-5.8,5.8-5.8
			c3.2,0,5.8,2.6,5.8,5.8C17.8,15.3,15.2,17.9,12,17.9L12,17.9z M12,17.9"/>
	</g>
</g>
</svg>
