<?xml version="1.0" encoding="utf-8"?>
<!-- Generator: Adobe Illustrator 19.0.0, SVG Export Plug-In . SVG Version: 6.00 Build 0)  -->
<svg version="1.1" id="Layer_1" xmlns="http://www.w3.org/2000/svg" xmlns:xlink="http://www.w3.org/1999/xlink" x="0px" y="0px"
	 viewBox="190 382.1 34 30" style="enable-background:new 190 382.1 34 30;" xml:space="preserve">
<style type="text/css">
	.{{$ctrl.id}}{fill:{{$ctrl.fill}};}
</style>
<g>
	<path ng-class="{ '{{$ctrl.id}}': true}" d="M206.4,396.9l0.1,0.1h0l0.4,0.3l0.3-0.2l8.1-4.7l0,0l0.4-0.2l-8.4-9.8c0,0,0,0,0,0c0,0,0,0-0.1-0.1
		c0,0,0,0-0.1,0c0,0,0,0-0.1,0c0,0,0,0,0,0c0,0-0.1,0-0.1,0c0,0-0.1,0-0.1,0c0,0-0.1,0-0.1,0c0,0-0.1,0-0.1,0c0,0,0,0,0,0
		c0,0,0,0,0,0c0,0-0.1,0-0.1,0c0,0,0,0-0.1,0.1c0,0,0,0,0,0l-8.4,9.8L206.4,396.9L206.4,396.9z"/>
	<path ng-class="{ '{{$ctrl.id}}': true}" d="M223.8,401.5l-7.3-8.5l-9,5.3v0l-0.2,0.1l0,0l0,0c0,0,0,0,0,0c-0.1,0-0.2,0.1-0.3,0.1c-0.1,0-0.2,0-0.3-0.1
		l-0.3-0.2l-8.4-4.9l0,0l-0.6-0.3l-7.3,8.6c-0.1,0.1-0.2,0.3-0.1,0.5c0,0.2,0.1,0.3,0.3,0.4l4.6,2.7l3.1-5.7
		c0.1-0.1,0.2-0.2,0.3-0.3c0.1,0,0.3,0,0.4,0.1l4,2.3c0.2,0.1,0.3,0.4,0.2,0.7l-2.5,6.3l6.2,3.6c0,0,0,0,0,0c0,0,0,0,0,0
		c0,0,0.1,0,0.1,0c0,0,0,0,0,0c0,0,0.1,0,0.1,0c0,0,0.1,0,0.1,0c0,0,0,0,0,0c0,0,0.1,0,0.1,0c0,0,0,0,0,0c0,0,0,0,0,0l16.4-9.6
		c0.1-0.1,0.2-0.2,0.3-0.4C224,401.8,224,401.6,223.8,401.5"/>
	<polygon ng-class="{ '{{$ctrl.id}}': true}" points="198.7,400.4 195.9,405.6 199.5,407.8 201.8,402.1 	"/>
</g>
</svg>
