<?xml version="1.0" encoding="utf-8"?>
<!-- Generator: Adobe Illustrator 19.0.0, SVG Export Plug-In . SVG Version: 6.00 Build 0)  -->
<svg version="1.1" id="Layer_1" xmlns="http://www.w3.org/2000/svg" xmlns:xlink="http://www.w3.org/1999/xlink" x="0px" y="0px"
	 viewBox="0 0 29.7 30" style="enable-background:new 0 0 29.7 30;" xml:space="preserve">
<style type="text/css">
	.{{$ctrl.id}}{fill:{{$ctrl.fill}};}
</style>
<g>
	<path ng-class="{ '{{$ctrl.id}}': true}" d="M7.9,23.5L8,23.6c0.3,0.2,0.6,0.3,0.9,0.4c0.2,0.1,0.5,0.1,0.7,0.2c1.4,0.4,2.9,0.2,4.2-0.5l0.8-0.4
		c1.5-0.8,3.3-0.8,4.8,0.1c1.8,1.1,4,1.1,5.8,0.1l0.3-0.2c0.7-0.4,1.6-0.6,2.4-0.6l1.1-3.8L0,17.4l4.8,5.4C5.8,22.7,6.9,23,7.9,23.5
		L7.9,23.5z M7.9,23.5"/>
	<path ng-class="{ '{{$ctrl.id}}': true}" d="M17.1,0v16.5l8.5,0.4C26.4,5.4,17.1,0,17.1,0L17.1,0z M17.1,0"/>
	<path ng-class="{ '{{$ctrl.id}}': true}" d="M15.2,1.4L8.7,16.1l6.4,0.3V1.4z M15.2,1.4"/>
	<path ng-class="{ '{{$ctrl.id}}': true}" d="M27.8,24.1c-0.8,0-1.6,0.2-2.3,0.6l-0.3,0.2c-0.9,0.5-1.9,0.7-2.8,0.7c-1,0-2.1-0.3-3-0.8
		c-0.8-0.5-1.6-0.7-2.5-0.7c-0.8,0-1.6,0.2-2.3,0.6l-0.9,0.5c-0.8,0.5-1.8,0.7-2.7,0.7c-1,0-2-0.3-2.9-0.8c-0.8-0.5-1.8-0.8-2.7-0.8
		c-0.5,0-1.1,0.1-1.6,0.2V26c0.5-0.2,1-0.3,1.6-0.3c0.7,0,1.4,0.2,2,0.6c1.1,0.6,2.3,1,3.6,1c1.2,0,2.3-0.3,3.4-0.9l0.9-0.5
		c0.5-0.3,1.1-0.4,1.7-0.4c0.6,0,1.2,0.2,1.8,0.5c1.1,0.7,2.4,1,3.7,1c1.2,0,2.4-0.3,3.5-0.9l0.3-0.1c0.5-0.3,1.1-0.4,1.6-0.4
		c0.7,0,1.3,0.2,1.8,0.5l0.1,0v-1.6C29.1,24.2,28.5,24.1,27.8,24.1L27.8,24.1z M27.8,24.1"/>
	<path ng-class="{ '{{$ctrl.id}}': true}" d="M25.5,27.4l-0.3,0.2c-0.9,0.5-1.9,0.7-2.8,0.7c-1,0-2.1-0.3-3-0.8c-0.8-0.5-1.6-0.7-2.5-0.7
		c-0.8,0-1.6,0.2-2.3,0.6l-0.9,0.5c-0.8,0.5-1.8,0.7-2.7,0.7c-1,0-2-0.3-2.9-0.8C7.3,27.3,6.3,27,5.4,27c-0.5,0-1.1,0.1-1.6,0.2v1.5
		c0.5-0.2,1-0.3,1.6-0.3c0.7,0,1.4,0.2,2,0.6c1.1,0.6,2.3,1,3.6,1c1.2,0,2.3-0.3,3.4-0.9l0.9-0.5c0.5-0.3,1.1-0.4,1.7-0.4
		c0.6,0,1.2,0.2,1.8,0.5c1.1,0.7,2.4,1,3.7,1c1.2,0,2.4-0.3,3.5-0.9l0.3-0.1c0.5-0.3,1.1-0.4,1.6-0.4c0.7,0,1.3,0.2,1.8,0.5l0.1,0
		v-1.6c-0.6-0.3-1.2-0.4-1.9-0.4C27,26.8,26.2,27,25.5,27.4L25.5,27.4z M25.5,27.4"/>
</g>
</svg>
