<?xml version="1.0" encoding="utf-8"?>
<!-- Generator: Adobe Illustrator 19.0.0, SVG Export Plug-In . SVG Version: 6.00 Build 0)  -->
<svg version="1.1" id="Layer_1" xmlns="http://www.w3.org/2000/svg" xmlns:xlink="http://www.w3.org/1999/xlink" x="0px" y="0px"
	 viewBox="0 0 55.4 30" style="enable-background:new 0 0 55.4 30;" xml:space="preserve">
<style type="text/css">
	.{{$ctrl.id}}{fill:{{$ctrl.fill}};}
</style>
<g>
	<g>
		<path ng-class="{ '{{$ctrl.id}}': true}" d="M55.3,4.5C55.3,4.5,55.3,4.5,55.3,4.5c-0.5-0.4-3.5-0.2-3.5-0.2s0,0.1-0.1,0.2c-0.1,0.2-0.3,0.5-0.8,0.6
			C50.2,5.3,40,5.5,39.7,4.7c0-0.1-0.1-0.2-0.2-0.3C39,4.1,38,4.2,38,4.2S38,4.3,37.8,4.5c-0.3,0.3-0.8,0.9-1.2,1
			c-0.5,0.1-0.6-0.5-0.5-1c0-0.2,0-0.3,0.1-0.4c0.1-0.4-1.1-1.7-2.1-2.3c-0.4-0.3-0.8-0.4-1.1-0.4C32.2,1.6,28,0,28,0H2
			c0,0-0.1,0.6-0.1,1.1c0,0,0,0.1,0,0.1c0,0.2-0.1,0.4-0.2,0.5c0,0.1-0.1,0.1-0.1,0.1c0,0-0.1,0-0.2-0.1C1,1.4,0.2,0.8,0,1.2
			c0,0.1,0,0.3,0.1,0.5c0.2,0.6,0.8,1.4,0.8,2v8.9c0,0.3,0.2,0.6,0.5,0.8c0.5,0.4,1.2,0.8,1.1,1.6c0,0,0,0,0,0.1c-0.1,1,1.1,2,2,2.8
			C4.8,18,5,18.2,5.1,18.3c0.3,0.3,0.6,0.7,1,1.2c0.5,0.6,1.1,1.2,1.4,1.2c0.5-0.1,1.5-0.4,2.1,0.3c0.5,0.6,2.9,1.2,4.1,1.3h0.7
			c0.7-0.1,2.5-0.3,3.5,0c0.4,0.1,0.7,0.3,0.8,0.6c0.1,0.4,0.3,0.7,0.5,1.1c0.5,0.8,1.2,1.4,1.2,1.4s0.4-0.7,0.7-1.3
			c0,0,0-0.1,0.1-0.1c0.2-0.1,0.4-0.2,0.7,0c0.5,0.2,1,0.9,1.3,2.1c0.1,0.2,0.2,0.5,0.3,0.7c0.4,0.7,1,1.3,1.6,1.7
			c0.7,0.5,1.4,0.8,1.4,0.8s0-0.3,0-0.8c0-0.5,0-1.2,0-1.7c0-0.2,0-0.3,0-0.5c0.1-1,3-1.9,3.6-2c0.5-0.1,4.1,1.5,4.1,1
			c0-0.5,0.6-0.8,1.2-1.3c0.1-0.1,0.3-0.2,0.4-0.3c0.3-0.2,0.6,0,1,0.3c0.6,0.5,1.2,1.3,1.3,1c0.1-0.5,1.8-0.3,2,0.4
			c0.1,0.4,0.2,0.9,0.3,1.4c0.1,0.3,0.1,0.7,0,0.9c0,0.2,0.1,0.5,0.3,0.8c0.5,0.8,1.4,1.8,1.6,1.6c0.1-0.1,0.3-0.8,0.3-1.6
			c0-0.6,0-1.2-0.1-1.7c-0.1-0.3-0.2-0.6-0.3-0.8c-0.3-0.3-0.6-1.1-0.7-2c-0.1-0.6-0.1-1.2,0-1.7c0.1-0.4,0.2-0.7,0.3-0.9
			c0.3-0.2,1.3-1,2.3-1.9c0.7-0.6,1.3-1.2,1.9-1.7c0.8-0.8,1.2-1.4,0.9-1.5c-0.6-0.2-0.7-0.6-0.6-1.2c0-0.4,0.2-1,0.2-1.6
			c0,0,0,0,0-0.1c0.2-1.5,1.3,0.3,1.7-1.7c0.1-0.4,0.3-0.8,0.6-1c1.2-1,3.5-1,3.1-1.3c-0.1-0.1-0.2-0.2-0.3-0.4
			c-0.2-0.5,0-1.3,0.5-1.7c0.3-0.2,0.8-0.6,1.4-1C54.6,5.5,55.5,4.7,55.3,4.5L55.3,4.5z M55.3,4.5"/>
	</g>
</g>
</svg>
