<?xml version="1.0" encoding="utf-8"?>
<!-- Generator: Adobe Illustrator 19.0.0, SVG Export Plug-In . SVG Version: 6.00 Build 0)  -->
<svg version="1.1" id="Layer_1" xmlns="http://www.w3.org/2000/svg" xmlns:xlink="http://www.w3.org/1999/xlink" x="0px" y="0px"
	 viewBox="0 0 49.9 30" style="enable-background:new 0 0 49.9 30;" xml:space="preserve">
<style type="text/css">
	.{{$ctrl.id}}{fill:{{$ctrl.fill}};}
</style>
<path ng-class="{ '{{$ctrl.id}}': true}" d="M49.8,25.2c-0.4-1.1-2-2.8-1.8-5c0.2-2.2,2-7.3,1.5-9.5c-0.5-2.2-2.8-8.5-8.7-9.5c-5.9-1-10.2,0.6-12.5,0.5
	C26.1,1.7,25.7,0,23.1,0c-3.2,0-3.8,1.4-6.1,2.1c-1.7,0.5-7,0.5-7,0.5s-1.5-2-2-1.2c-0.5,0.7-1,2.6-1,2.6S4.2,4.9,4,5.4
	C3.7,6,3.4,6.8,3.4,6.8S0.4,7.6,0,8.3c-0.3,0.7,1.3,2.4,1.8,3c0.5,0.6,6.6,0.7,7.6,1.4c1,0.7,3.7,1.2,5.2,1.5
	c2.8,0.5,4.1,6.1,4.8,12.4C18.6,27.4,17.1,28,17,30h9.3c0,0,0.1-1.3,0.3-3c0.2-1.6,3-7.9,3-7.9s2,1.6,3.4,1.6
	c-0.1,1.2,0.5,2.6,0.5,2.6s1.2,1.4,2.3,2.6c-2.1,0.9-2.1,2.4-2.1,2.4l7.9,0.1c0,0,0.8-1.6,0.8-3c1.1,1.5,3.1,2.1,3.1,2.1L44.1,30
	h4.8C48.9,30,50.2,26.4,49.8,25.2L49.8,25.2z M5.7,7.2c-0.3,0-0.6-0.3-0.6-0.6c0-0.3,0.3-0.6,0.6-0.6c0.3,0,0.6,0.3,0.6,0.6
	C6.3,6.9,6,7.2,5.7,7.2L5.7,7.2z M5.7,7.2"/>
</svg>
