<?xml version="1.0" encoding="utf-8"?>
<!-- Generator: Adobe Illustrator 19.0.0, SVG Export Plug-In . SVG Version: 6.00 Build 0)  -->
<svg version="1.1" id="Layer_1" xmlns="http://www.w3.org/2000/svg" xmlns:xlink="http://www.w3.org/1999/xlink" x="0px" y="0px"
	 viewBox="0 0 25.9 30" style="enable-background:new 0 0 25.9 30;" xml:space="preserve">
<style type="text/css">
	.{{$ctrl.id}}{fill:{{$ctrl.fill}};}
</style>
<g>
	<g>
		<path ng-class="{ '{{$ctrl.id}}': true}" d="M13.8,7.6c2.4,0.3,8.1,1.4,11.5,4.5C27,10.1,25.9,1.3,13,1.2c0,0-1.4-1.2-3.7-1.2C6.2,0,2.2,4.6,2.2,10.4
			c-1.1,0-2.3,1-2.2,4.5c0.1,2.6,0.7,7.9,6.1,10.6v2.6H3.4c-0.5,0-0.9,0.4-0.9,0.9c0,0.5,0.4,0.9,0.9,0.9H13c0.5,0,0.9-0.4,0.9-0.9
			c0-0.5-0.4-0.9-0.9-0.9H12v-1c0.7,0.1,1.4,0.1,2.1,0.1c1.8,1,3.3,3.3,4.6,2.6c0.3-0.1,0.4-1.1,0.4-2.6h2.6v0c0.6,0,1-0.5,1-1.1
			c0-0.6-0.4-1.1-1-1.1c0.6,0,1-0.5,1-1.1c0-0.6-0.4-1.1-1-1.1h-2.9c-0.8-6.4-2.9-14.6-6.6-12.5C11.4,9.9,11.4,7.4,13.8,7.6
			L13.8,7.6z M10.1,28.2H8v-1.9c0.7,0.2,1.4,0.4,2.2,0.6V28.2z M10.1,28.2"/>
	</g>
</g>
</svg>
