<?xml version="1.0" encoding="utf-8"?>
<!-- Generator: Adobe Illustrator 19.0.0, SVG Export Plug-In . SVG Version: 6.00 Build 0)  -->
<svg version="1.1" id="Layer_1" xmlns="http://www.w3.org/2000/svg" xmlns:xlink="http://www.w3.org/1999/xlink" x="0px" y="0px"
	 viewBox="0 0 19.5 30" style="enable-background:new 0 0 19.5 30;" xml:space="preserve">
<style type="text/css">
	.{{$ctrl.id}}{fill:{{$ctrl.fill}};}
</style>
<g>
	<g>
		<path ng-class="{ '{{$ctrl.id}}': true}" d="M17.4,7.4c-0.2-1-0.2-2-0.3-2.9c-0.2-1.3-0.7-2.6-1.6-3.6c-1.2-1.1-3-1.3-4.3-0.3C11.1,0.7,11.1,1,11,1.1
			c0,0.1,0,0.1-0.1,0.2c0,0.1-0.1,0.2-0.1,0.2c0,0,0,0-0.1,0c0,0,0,0,0,0c0,0-0.1,0.1-0.2,0.1c-0.4,0.2-0.7,0.4-1,0.6
			C9.3,2.5,9.2,2.7,9,3C9,3.1,8.9,3.1,8.9,3.2c0,0,0.1,0,0.3,0c0.1,0,0.2,0,0.2-0.1c1.4-0.6,3,0.3,3,1.9c0,0.9-0.4,1.8-0.8,2.6
			c-0.3,0.6-0.8,1.6-1.4,2c-0.5,0.4-1,0.3-1.5,0.6c-1.2,0.7-2,2.3-2.7,3.4c-0.7,1.1-1.3,2.3-2,3.4c-0.7,1-1.6,1.9-2.3,2.8
			c-0.1,0.1-0.1,0.3,0,0.4c0,0.1,0.1,0.2,0.1,0.3c0,0.1,0.1,0.2,0.2,0.3c0.6,0.4-1.4,2-2,2.5C0,23.3,0,23.4,0.1,23.4
			c1.6,0.2,3.4-0.3,4.8-0.9c0.1-0.1,0.3-0.1,0.4-0.2C5.6,22.1,5.8,22,6,21.8c0.3-0.2,2.5-0.2,2.3,0.3c-0.6,1.2,0,2.5,0.2,3.8
			c0.1,0.5,0,0.9-0.1,1.3c0,0.1-0.1,0.2-0.3,0.2c-0.4,0.1-0.8,0.2-0.5,0.4c0.2,0.1,0.4,0.3,0.5,0.4c0.1,0.1,0.1,0.3,0.2,0.4
			c0.1,0.4,0.2,0.9,0.4,1.3c0,0.1,0.1,0.1,0.2,0c0.5-0.9,0.6-1.4,1.7-1.1c0.7,0.2,1.4,0.4,2.1,0.5c0.1,0,0.1,0,0-0.1
			c-0.3-0.3-0.7-0.5-1-0.7c-0.1-0.1-0.1-0.1,0-0.1c0.6,0.1,0.8-0.4,1.1-0.6c0.1-0.1,0.1-0.1,0,0c-0.5,0.1-1,0.2-1.6,0.1
			c-1.5-0.2-2-1.4-1.8-2.9c0.1-0.8,0.8-3.3,1.6-3.6c0.4-0.1,0.8,0.1,1,0.5c0.2,0.4,0.1,0.8,0.1,1.2c0,0.4,0,0.9,0.1,1.2
			c0.2,0.3,0.5,0.6,0.7,0.8c0.3,0.3,0.5,0.7,0.4,1c-0.1,0.3-0.4,0.5-0.8,0.6c-0.3,0-0.5,0-0.8,0c-0.1,0-0.2,0-0.1,0.1
			c0.6,0.5,2.2,0,1.9,1.2c-0.1,0.2-0.1,0.5-0.2,0.7c0,0.1,0,0.2,0.1,0.1c0.4-0.2,0.7-0.6,0.6-1.1c0-0.1,2.5,0.7,2.7,0.7
			c0.2,0.1,0.4,0.1,0.6,0.1c0.1,0,0.2-0.1,0.1-0.2c-0.1-0.3-0.3-0.5-0.6-0.6c-0.4-0.1-0.7-0.2-1-0.3c-0.1,0-0.1-0.1,0-0.1
			c0.6,0,2,0.2,2-0.5c0-0.1-0.1-0.2-0.2-0.2c-0.2,0-0.4,0.1-0.7,0.1c-0.8,0-1.8,0.1-2.4-0.4c-0.6-0.5-0.8-1.8-0.7-2.5
			c0.3-3.9,4.2-6,5.3-9.7c0.5-1.8,0.1-3.3-0.8-4.9C18,8.7,17.6,8.3,17.4,7.4L17.4,7.4z M17.4,7.4"/>
	</g>
</g>
</svg>
