<?xml version="1.0" encoding="utf-8"?>
<!-- Generator: Adobe Illustrator 19.0.0, SVG Export Plug-In . SVG Version: 6.00 Build 0)  -->
<svg version="1.1" id="Layer_1" xmlns="http://www.w3.org/2000/svg" xmlns:xlink="http://www.w3.org/1999/xlink" x="0px" y="0px"
	 viewBox="0 0 27.2 30" style="enable-background:new 0 0 27.2 30;" xml:space="preserve">
<style type="text/css">
	.{{$ctrl.id}}{fill:{{$ctrl.fill}};}
</style>
<g>
	<g>
		<path ng-class="{ '{{$ctrl.id}}': true}" d="M22.1,19.6c4.5-2.9,5.1-6.3,5.1-7.9c0-0.1-0.1-0.3-0.2-0.3c-0.1-0.1-0.3,0-0.4,0c-1.7,0.7-4.5-3-10-4.4
			c-2.6-0.7-4.4-4.6-4.4-4.6l0,0C11.4,1,10.2,0,8.5,0C5.4,0,1.7,3.1,1.7,5.4c0,0.1,0,0.2,0,0.3L0.1,7.2C0,7.3,0,7.5,0,7.6
			c0.1,0.1,0.2,0.2,0.4,0.2h2.3c0,0,0,0,0,0c-1.9,9.6,3.9,12.7,8.1,13.6l0.2,1.1l-1.7,3.2c0,0,0,0,0,0.1l-1.6-0.5
			c-0.3-0.1-0.5,0.1-0.6,0.3C7,26,7.2,26.3,7.4,26.4l1,0.3l-1.1,0.8c-0.2,0.2-0.3,0.5-0.1,0.7c0.1,0.1,0.2,0.2,0.4,0.2
			c0.1,0,0.2,0,0.3-0.1L9.6,27h2.2c0.3,0,0.5-0.2,0.5-0.5c0-0.3-0.2-0.5-0.5-0.5h-0.9l1.7-3.1l1.4-1c0.7,0,1.1,0,1.1,0l0,0
			c0.4,0,0.8,0,1.1-0.1l1.1,1.3l-0.2,4.1h-1.9c-0.3,0-0.5,0.2-0.5,0.5c0,0.3,0.2,0.5,0.5,0.5h1.7l-0.2,1.1c0,0.3,0.1,0.5,0.4,0.6
			c0,0,0,0,0.1,0c0.2,0,0.5-0.2,0.5-0.4l0.2-1.3l1.9-0.6c0.3-0.1,0.4-0.4,0.3-0.6c-0.1-0.3-0.4-0.4-0.6-0.3L18.6,27l0.2-3.6
			L22.1,19.6z M22.1,19.6"/>
	</g>
</g>
</svg>
