<?xml version="1.0" encoding="utf-8"?>
<!-- Generator: Adobe Illustrator 19.0.0, SVG Export Plug-In . SVG Version: 6.00 Build 0)  -->
<svg version="1.1" id="Layer_1" xmlns="http://www.w3.org/2000/svg" xmlns:xlink="http://www.w3.org/1999/xlink" x="0px" y="0px"
	 viewBox="0 0 27.3 30" style="enable-background:new 0 0 27.3 30;" xml:space="preserve">
<style type="text/css">
	.{{$ctrl.id}}{fill:{{$ctrl.fill}};}
</style>
<g>
	<g>
		<path ng-class="{ '{{$ctrl.id}}': true}" d="M24.2,3.1C23.4,1.3,21.6,0,19.5,0c-2.8,0-5.1,2.3-5.1,5.1c0,0.3,0,0.6,0.1,0.9L4.8,20c0,0-0.1,0.1-0.1,0.1
			c0,0,0,0,0,0.1l-4.5,6.6c-0.1,0.2-0.1,0.4,0,0.6c0.1,0.2,0.3,0.3,0.5,0.3h7c0.2,0,0.4-0.1,0.5-0.3l1.1-1.7c1,0.6,2.2,1,3.4,1.2
			l1.4,0.2c0.2,0,0.4,0,0.5,0c0.3,0,0.6,0,0.9,0l1.4,2.6c0.1,0.2,0.3,0.3,0.5,0.3h3.3c0.3,0,0.5-0.2,0.5-0.5c0-0.3-0.2-0.5-0.5-0.5
			h-2.8l-1.1-2.1c4.9-1,8.7-5.4,8.7-10.6c0-2.7-1-5.2-2.7-7.2c0.7-0.5,1.2-1.2,1.6-2l3.1-1.9c0,0,0.1-0.1,0.1-0.1
			c0-0.1,0-0.1-0.1-0.1L24.2,3.1z M24.2,3.1"/>
	</g>
</g>
</svg>
