<?xml version="1.0" encoding="utf-8"?>
<!-- Generator: Adobe Illustrator 19.0.0, SVG Export Plug-In . SVG Version: 6.00 Build 0)  -->
<svg version="1.1" id="Layer_1" xmlns="http://www.w3.org/2000/svg" xmlns:xlink="http://www.w3.org/1999/xlink" x="0px" y="0px"
	 viewBox="0 0 23.7 30" style="enable-background:new 0 0 23.7 30;" xml:space="preserve">
<style type="text/css">
	.{{$ctrl.id}}{fill:{{$ctrl.fill}};}
</style>
<g>
	<g>
		<path ng-class="{ '{{$ctrl.id}}': true}" d="M5.9,14.8c-0.2,0-0.3-0.1-0.5-0.1c-0.5-0.1-0.9-0.2-1.1,0c0,0,0,0,0,0.1c0,0-0.1,0.1-0.1,0.1
			c-0.4,0.3-0.6,1-0.8,1.7c-0.3,0.7-0.6,1.5-0.9,1.9C2.2,18.8,2,18.7,2,19c0,0,0,0.1,0,0.1c0,0,0,0.1-0.1,0.1c-0.4,0-0.6,0-0.8,0.2
			c0,0-0.1,0.1-0.2,0.1c-0.2,0-0.4,0.1-0.7,0.4C-0.1,20.4,0,21,0.1,21c0.1,0,0-0.3,0.3-0.6c0.2-0.2,0.5-0.2,0.7-0.3
			c0.1,0,0.1-0.1,0.2-0.1c0.2,0,0.6-0.2,0.9-0.3c0.1,0,0.1,0,0.2,0c0.1,0,0.2,0,0.3,0c0.4-0.2,0.8-1.6,1-2.3
			c0.2-0.8,0.3-1.3,0.7-1.7c0,0,0.1,0,0.2,0c0,0,0.1,0,0.1,0.1c0.3,0.1,0.8,0,1.3-0.1c0.1,0,0.1,0,0.1,0.1c0,0.8,0,1.7,0,2.3
			c0,0.7,0,1.6,0.1,2.6c0,0.1,0,0.1-0.1,0.1c-0.4,0-0.7,0-1-0.1c-0.5-0.1-0.9-0.1-1.1,0.1c0,0-0.1,0.1-0.1,0.1c0,0.1,0,0.1-0.1,0.2
			c-0.7,1-0.9,3.4-1,4.1c-0.1,0.8-0.3,1.5-0.4,1.9C2.2,27.5,2,27.5,2,27.8c0,0.1,0,0.1,0,0.2c0,0.1,0,0.1,0,0.1
			c-0.4,0-0.7,0-0.8,0.3c0,0-0.1,0.1-0.1,0.1c-0.2,0.1-0.4,0.2-0.6,0.5C0,29.4,0.3,30,0.3,30c0.1,0-0.1-0.3,0.2-0.6
			C0.8,29.1,1,29.2,1.3,29c0.1,0,0.1-0.1,0.2-0.1c0.3-0.1,0.8-0.3,1.1-0.5c0,0,0.1-0.1,0.2-0.1c0.1,0,0.1,0,0.2-0.1
			c0.4-0.5,0.3-1.6,0.4-2.3c0.2-1.1,0.5-3.2,0.9-4.2c0-0.1,0.1-0.1,0.1-0.1c0,0,0.1,0,0.1,0c0.4,0.1,1.1-0.2,1.7-0.3
			c0.1,0,0.1,0,0.1,0.1c0,0.3,0.1,0.6,0.2,0.9c0,0.2,0.1,0.3,0.2,0.4c0,0,0.1,0.1,0.1,0.2c0.1,0.3,0.2,1,0.5,1.3
			c0,0.1,0.1,0.1,0.2,0.1c0.1,0,0.1,0,0.1,0.1c0.1,0.2,0.4,0.9,0.7,1.4c0.1,0.2,0.2,0.2,0.3,0.2c0.1,0,0.1,0,0.2,0.1
			c0.2,0.3,0.5,0.8,0.8,1c0.1,0.1,0.3,0.1,0.4,0.1c0.1,0,0.1,0,0.2,0.1c0.3,0.5,0.6,0.8,0.9,0.7c0.1,0,0.1,0,0.2,0.1
			c0.2,0.2,0.5,0.3,0.7,0.3c0.1,0,0.2,0,0.2,0c0.3,0,0.6-0.2,0.7-0.3c0,0,0.1-0.1,0.2-0.1c0.4,0,0.6-0.3,0.9-0.7
			c0,0,0.1-0.1,0.2-0.1c0.1,0,0.2,0,0.4-0.1c0.2-0.1,0.6-0.6,0.8-1c0,0,0.1-0.1,0.2-0.1c0.1,0,0.2-0.1,0.3-0.2
			c0.4-0.5,0.6-1.2,0.7-1.4c0-0.1,0.1-0.1,0.1-0.1c0,0,0.1,0,0.2-0.1c0.2-0.3,0.4-1,0.5-1.3c0-0.1,0.1-0.1,0.1-0.2
			c0.1-0.1,0.1-0.2,0.2-0.4c0.1-0.3,0.1-0.6,0.2-0.9c0-0.1,0.1-0.1,0.1-0.1c0.6,0.1,1.3,0.4,1.7,0.3c0,0,0.1,0,0.1,0
			c0,0,0.1,0,0.1,0.1c0.4,1,0.7,3.1,0.9,4.2c0.1,0.7,0,1.7,0.4,2.3c0,0.1,0.1,0.1,0.2,0.1c0.1,0,0.1,0,0.2,0.1
			c0.3,0.2,0.8,0.4,1.1,0.5c0.1,0,0.1,0.1,0.2,0.1c0.2,0.1,0.5,0.1,0.7,0.3c0.3,0.4,0.2,0.6,0.2,0.6c0.1,0,0.3-0.6,0-1.1
			c-0.2-0.3-0.5-0.4-0.6-0.5c-0.1,0-0.1-0.1-0.1-0.1c-0.1-0.2-0.4-0.2-0.8-0.3c-0.1,0-0.1-0.1,0-0.1c0-0.1,0-0.1,0-0.2
			c0-0.3-0.2-0.3-0.4-0.7c-0.2-0.4-0.3-1.1-0.4-1.9c-0.1-0.7-0.3-3.1-1-4.1c0,0-0.1-0.1-0.1-0.2c0-0.1-0.1-0.1-0.1-0.1
			c-0.2-0.2-0.6-0.2-1.1-0.1c-0.3,0-0.6,0.1-1,0.1c-0.1,0-0.1,0-0.1-0.1c0.1-0.9,0.1-1.9,0.1-2.6c0-0.6,0-1.5,0-2.3
			c0-0.1,0-0.1,0.1-0.1c0.5,0.1,1,0.1,1.3,0.1c0,0,0.1,0,0.1-0.1c0,0,0.1,0,0.2,0c0.4,0.4,0.5,0.9,0.7,1.7c0.2,0.7,0.5,2.1,1,2.3
			c0.1,0,0.2,0,0.3,0c0.1,0,0.1,0,0.2,0c0.3,0.2,0.7,0.3,0.9,0.3c0.1,0,0.1,0,0.2,0.1c0.2,0.1,0.5,0.1,0.7,0.3
			c0.3,0.3,0.2,0.6,0.3,0.6c0.1,0,0.3-0.6-0.1-1.1c-0.2-0.3-0.5-0.4-0.7-0.4c-0.1,0-0.1-0.1-0.2-0.1c-0.2-0.2-0.4-0.2-0.8-0.2
			c-0.1,0-0.1,0-0.1-0.1c0,0,0-0.1,0-0.1c-0.1-0.3-0.3-0.2-0.5-0.6c-0.3-0.4-0.6-1.1-0.9-1.9c-0.2-0.6-0.4-1.3-0.8-1.7
			c0,0-0.1-0.1-0.1-0.1c0,0,0,0,0-0.1c-0.2-0.2-0.7-0.1-1.1,0c-0.2,0-0.3,0.1-0.5,0.1c-0.1,0-0.1,0-0.1-0.1c0-0.3,0-0.7,0-1
			c0-0.5,0.5-0.8,0.4-1.2c0-0.4-1.1-1.2-1.6-1.4c-0.5-0.2-0.7-0.3-0.9-0.5c0,0,0-0.1,0-0.1c0.3-0.2,0.5-0.3,0.7-0.4
			c0.4-0.2,0.8-0.5,0.9-0.7c0,0,0,0,0,0c0,0,0.1,0,0.1,0c0.2,0,0.4,0.1,0.6,0.2c0.6,0.2,1.9,0.8,2.1,0.8c0.1,0,0.2-0.1,0.2-0.2
			c0-0.1,0.1-0.1,0.1-0.1c0.4,0,1-0.1,1.2-0.2c0.3-0.1,0.6-0.1,0.8-0.1c0.2,0.1,0.4,0.2,0.5,0.2c0-0.1-0.3-0.6-0.7-0.7
			c-0.3-0.1-0.5,0-0.6,0c-0.1,0-0.1,0-0.2,0c-0.3-0.1-0.6,0.1-1,0.3c-0.1,0-0.1,0-0.1,0c0,0,0,0,0-0.1c-0.1-0.1-0.4,0-0.8-0.1
			c-0.5,0-0.9-0.1-1.3-0.3c-0.3-0.1-0.6-0.2-1.1-0.3c-0.1,0-0.1,0-0.2,0c-0.1,0-0.2,0-0.4,0.1c-0.3,0.2-0.9,0.8-1.5,1.3
			c0,0-0.1,0.1-0.2,0c-0.5-0.2-0.9-0.2-1-0.6c-0.1-0.3-0.3-0.4-0.4-0.5c-0.1-0.1-0.1-0.4-0.1-0.7c0-0.1,0-0.2-0.1-0.2
			c0,0-0.1-0.1-0.1-0.2c0.5-2.1,2.1-3.9,2.3-4.2c0.1-0.1,0.1-0.3,0.1-0.4c0-0.1,0.1-0.1,0.1-0.1c0.1,0,0.2-0.1,0.2-0.1
			c0.2-0.2,0.5-0.6,0.7-0.9c0.1-0.1,0.2-0.2,0.2-0.3c0-0.1,0-0.1,0.1-0.1c0.1-0.1,0.3-0.2,0.4-0.3c0.3-0.3,0.9-0.7,1.1-1
			C18.6,0.2,18.3-0.1,18,0c-0.3,0.1-1,0.9-1.2,1.1c-0.1,0.1-0.2,0.3-0.2,0.4c0,0.1-0.1,0.1-0.1,0.1c-0.1,0-0.1,0-0.2,0.1
			c-0.1,0.1-0.6,0.8-0.8,0.9c-0.1,0.2-0.2,0.2-0.2,0.4c0,0.1,0,0.1-0.1,0.1c-0.4,0.2-0.8,0.9-1.2,1.8c-0.5,1-1,2.2-1.1,3.2
			c0,0,0,0,0,0.1c0,0,0,0.1-0.1,0.1c-0.1,0-0.1,0-0.1-0.2c0-0.2-0.3-0.5-0.8-0.4c0,0,0,0,0,0c0,0,0,0,0,0c-0.4,0-0.8,0.2-0.8,0.4
			c0,0.2-0.1,0.2-0.1,0.2c-0.1,0-0.1-0.1-0.1-0.1l0-0.1c-0.1-1-0.6-2.2-1.1-3.2C9.3,4.1,8.9,3.3,8.5,3.2C8.4,3.2,8.4,3.1,8.4,3
			c0-0.2-0.1-0.3-0.2-0.4C8.1,2.4,7.6,1.8,7.5,1.7c-0.1,0-0.2-0.1-0.2-0.1c-0.1,0-0.1,0-0.1-0.1c0-0.1-0.1-0.3-0.2-0.4
			C6.8,0.9,6,0.1,5.8,0C5.4-0.1,5.2,0.2,5.4,0.5c0.2,0.3,0.8,0.7,1.1,1c0.1,0.1,0.3,0.2,0.4,0.3c0.1,0,0.1,0.1,0.1,0.1
			c0,0.1,0.1,0.2,0.2,0.3C7.2,2.5,7.6,3,7.8,3.2c0.1,0,0.2,0.1,0.2,0.1c0.1,0,0.1,0.1,0.1,0.1c0,0.1,0,0.2,0.1,0.4
			C8.4,4.1,10,5.9,10.5,8c0,0.1,0,0.1-0.1,0.2c0,0-0.1,0.1-0.1,0.2c0,0.3,0,0.6-0.1,0.7c0,0.1-0.2,0.1-0.4,0.5
			c-0.2,0.4-0.5,0.4-1,0.6c-0.1,0-0.1,0-0.2,0C8.1,9.6,7.5,9.1,7.2,8.8C7,8.7,6.9,8.7,6.8,8.7c-0.1,0-0.1,0-0.2,0
			c-0.5,0-0.7,0.1-1.1,0.3C5.2,9.2,4.7,9.3,4.3,9.3c-0.4,0-0.7-0.1-0.8,0.1c0,0,0,0,0,0.1c0,0-0.1,0.1-0.1,0C2.8,9.3,2.5,9,2.2,9.2
			c-0.1,0-0.1,0-0.2,0c-0.2,0-0.4-0.1-0.6,0C1.1,9.3,0.7,9.9,0.7,9.9C0.8,10,1,9.8,1.2,9.8c0.2-0.1,0.5,0,0.8,0.1
			C2.2,9.9,2.8,10,3.2,10c0.1,0,0.1,0,0.1,0.1c0.1,0.1,0.1,0.2,0.2,0.2c0.2,0,1.5-0.5,2.1-0.8c0.2-0.1,0.5-0.2,0.6-0.2
			c0.1,0,0.1,0,0.1,0c0,0,0,0,0,0c0.1,0.3,0.5,0.5,0.9,0.7c0.2,0.1,0.5,0.2,0.7,0.4c0,0,0.1,0.1,0,0.1c-0.2,0.2-0.3,0.3-0.9,0.5
			c-0.5,0.2-1.6,1-1.6,1.4C5.6,13,6,13.2,6,13.7C6,14,6,14.4,5.9,14.8C6,14.8,6,14.8,5.9,14.8L5.9,14.8z M5.9,14.8"/>
	</g>
</g>
</svg>
