<?xml version="1.0" encoding="utf-8"?>
<!-- Generator: Adobe Illustrator 19.0.0, SVG Export Plug-In . SVG Version: 6.00 Build 0)  -->
<svg version="1.1" id="Layer_1" xmlns="http://www.w3.org/2000/svg" xmlns:xlink="http://www.w3.org/1999/xlink" x="0px" y="0px"
	 viewBox="0 0 37.1 30" style="enable-background:new 0 0 37.1 30;" xml:space="preserve">
<style type="text/css">
	.{{$ctrl.id}}{fill:{{$ctrl.fill}};}
</style>
<g>
	<g>
		<path ng-class="{ '{{$ctrl.id}}': true}" d="M35.9,3.7c-0.2-0.1-0.5-0.1-0.7-0.2c-0.5-0.3-1.1-0.1-1.6-0.4c-0.3-0.2-0.6-0.3-0.8-0.6
			c-0.2-0.2-0.4-0.2-0.7-0.3c-0.1,0-0.2-0.1-0.3-0.1c-0.1,0-0.2,0-0.3,0c-0.3,0.1-0.5,0.1-0.7-0.1c-0.3-0.2-0.5,0.1-0.7,0
			c0,0-0.1,0.1-0.1,0.2c0.1,0.4-0.1,0.8-0.4,1.1c-0.1,0.1-0.1,0.3-0.2,0.4c0,0,0.1,0,0.2,0c-0.1,0.2-0.1,0.4-0.2,0.6
			c-0.1,0.3-0.2,0.5-0.3,0.8c-0.1,0.2-0.1,0.2-0.3,0.1c0,0.3-0.1,0.5-0.4,0.6c-0.3,0.1-0.4,0.4-0.3,0.7c0,0,0,0.1,0,0.1
			C28,7,28,7.3,27.9,7.6c-0.1,0.5-0.5,0.8-0.9,1c-0.2,0.1-0.4,0.2-0.6,0.3C26.3,9,26,9,25.8,9c-0.4,0-0.8-0.1-1.2-0.3
			c-0.5-0.2-0.8-0.5-1.2-0.8c-0.1-0.1-0.2-0.2-0.4-0.3c-0.5-0.2-0.6-0.7-1-1.1c-0.3-0.3-0.5-0.6-0.8-0.9c0.1-0.1,0.2-0.1,0.3-0.2
			c-0.1-0.1-0.2-0.3-0.4-0.4c0,0-0.1-0.1-0.2-0.1c-0.2,0-0.2,0-0.2-0.2c0.1,0,0.2,0,0.3,0c0,0,0,0,0-0.1c-0.5,0-0.5-0.5-0.8-0.7
			c-0.2-0.1-0.5-0.2-0.8-0.4c-0.1,0-0.1-0.1-0.2-0.1c-0.1-0.2-0.3-0.2-0.6-0.2c-0.4,0.1-0.8,0-1.2-0.1C17.3,3.2,17,3,16.7,2.8
			c-0.1-0.1-0.2-0.2-0.2-0.3c0-0.2-0.1-0.3-0.2-0.3c-0.1-0.1-0.1-0.2-0.1-0.2c0-0.1,0.1-0.2,0.1-0.3c0,0-0.1,0-0.2-0.1
			c0.1-0.1,0.1-0.2,0.2-0.3c-0.2-0.2-0.3-0.4-0.5-0.6c-0.2,0.2-0.3,0.2-0.4,0c-0.1-0.1-0.2-0.2-0.4-0.3c-0.1-0.1-0.3-0.2-0.4,0
			c0,0-0.1,0-0.2,0c-0.2-0.1-0.4-0.2-0.7-0.1c-0.1,0-0.2,0-0.3,0C13,0.1,12.8,0.1,12.5,0c0,0-0.1,0-0.1,0c-0.1,0-0.1,0-0.2,0
			c-0.3,0-0.7-0.1-1-0.1c-0.1,0-0.2,0-0.3,0c-0.3,0.1-0.5,0.1-0.7,0.2c0.1,0.1,0,0.2-0.2,0.2c-0.1,0-0.3,0-0.4,0.1
			c0,0.1,0.1,0.2,0.1,0.2c-0.1,0-0.1,0-0.2,0.1c0,0,0,0-0.1,0C9.2,0.9,9,1,8.8,1c-0.3,0-0.4,0.2-0.5,0.4c0,0.1-0.1,0.2-0.2,0.2
			C7.8,1.9,7.4,2.1,7.2,2.4c-0.3,0.3-0.7,0.4-1,0.7c0,0-0.1,0-0.1,0C5.7,3.1,5.5,3.3,5.2,3.4C4.9,3.5,4.6,3.5,4.3,3.6
			C4,3.7,3.7,3.8,3.5,3.9C3.2,4,2.8,4.2,2.6,4.4C2.4,4.8,2.7,5.2,2.3,5.5C2,5.7,1.8,6.1,1.6,6.5C1.5,6.7,1.4,6.9,1.2,7
			C0.9,7.3,0.8,7.7,0.8,8.1C0.7,8.7,0.7,9.3,0.7,9.9c0,0.6,0.1,1.3,0.1,1.9c0,0.4,0,0.8-0.3,1.1c0,0.1-0.1,0.2-0.1,0.2
			c0.1,0.2,0.1,0.3,0,0.5c-0.1,0.2-0.1,0.4-0.1,0.7c0-0.1,0.1-0.1,0.1-0.2c0,0,0,0,0,0c-0.1,0.2-0.1,0.4-0.2,0.7c0,0,0,0.1,0,0.1
			c0.3,0.2,0.1,0.5,0.1,0.7c0,0.1,0,0.2,0.1,0.3c0.2,0.2,0.2,0.2,0.2,0.3c0,0,0,0,0.1,0c0-0.3,0.1-0.7,0.1-1c0-0.1,0-0.2,0.2-0.2
			c0,0.6,0.1,1.2,0.1,1.7c0,0.4-0.1,0.8-0.2,1.2c-0.2,0.7-0.4,1.5-0.6,2.2c-0.1,0.2-0.2,0.4-0.2,0.5c0,0.1-0.1,0.4,0,0.5
			c0.3,0.4,0.5,0.8,0.6,1.3C0.8,23,1,23.6,1.1,24.2c0.1,0.6,0.2,1.3,0.4,1.9c0.2,0.8,0.3,1.6,0.3,2.4c0,0.1,0.1,0.2,0.2,0.3
			c0.2,0.2,0.3,0.4,0.2,0.7c-0.1,0.3,0,0.4,0.3,0.5c0.5,0,1.1,0,1.6,0c0.1,0,0.3-0.1,0.4-0.2c0.1-0.1,0.1-0.3,0-0.3
			c-0.2-0.1-0.3-0.2-0.5-0.2c-0.5-0.1-0.8-0.5-0.9-1c-0.1-0.2-0.2-0.4-0.3-0.6c-0.1-0.3-0.2-0.5-0.2-0.8C2.2,26,2.1,25.2,2,24.3
			c-0.1-0.6,0-1.3,0.1-1.9c0-0.3,0-0.6,0-0.9c0-0.2,0-0.3,0-0.5c0-0.1,0-0.1,0-0.2c-0.1-0.5,0.1-0.9,0.2-1.3
			c0.2-0.4,0.3-0.9,0.3-1.4c0-0.3,0.1-0.6,0.2-0.9c0-0.1,0.1-0.1,0.2-0.2c0,0.1,0.1,0.1,0.1,0.2c0,0.4,0,0.8,0,1.2
			c0,0.3,0,0.7-0.1,1c0,0.4-0.1,0.9-0.2,1.3c-0.1,0.3,0,0.5,0.1,0.7c0.4,0.7,0.9,1.4,1.2,2.1c0.5,1,0.8,2,1.3,3
			c0.2,0.4,0.3,0.9,0.5,1.3c0.1,0.1,0.2,0.2,0.3,0.3c0.1,0.1,0.2,0.3,0.2,0.4c-0.1,0.3,0,0.4,0.3,0.4c0.6,0,1.3,0,1.9-0.1
			c0,0,0.1,0,0.1,0c0.1-0.4-0.1-0.6-0.5-0.6c-0.6,0-1-0.3-1.3-0.8c-0.1-0.3-0.4-0.5-0.5-0.7c-0.2-0.4-0.4-0.9-0.5-1.3
			c-0.3-0.8-0.5-1.6-0.7-2.4c0,0,0-0.1,0-0.1c0.1-0.6-0.2-1.1-0.3-1.6c-0.1-0.7-0.3-1.4,0-2.1c0.1-0.2,0.1-0.5,0.1-0.8
			c0-0.5,0-1,0-1.5c0-0.3,0.1-0.6,0.3-0.8c0.2-0.4,0.4-0.7,0.6-1.1c0.1-0.2,0.1-0.5,0.3-0.7c0.2-0.4,0.2-0.7,0-1.1
			c-0.1-0.2,0-0.3,0-0.5c0.1-0.3,0-0.7,0-1c0-0.1,0-0.1,0-0.2c0.1,0,0.2,0,0.2,0c0.1,0.1,0.3,0.2,0.4,0.3c0.7,0.7,1.5,1.3,2.4,1.7
			c0.7,0.3,1.4,0.5,2.1,0.6c0.7,0.2,1.4,0.1,2.1,0.1c0.4,0,0.9,0,1.3,0c0,0,0,0,0,0c0.4-0.2,0.8,0.1,1.2,0.1c0.5,0,1,0.1,1.4-0.2
			c0,0,0.2,0,0.2,0.1c0.1,0.2,0.1,0.3,0.1,0.5c0,0.5-0.1,0.9-0.1,1.4c0,0.4-0.1,0.7-0.1,1.1c0,0.7-0.1,1.3-0.3,2
			c-0.1,0.3-0.2,0.6-0.3,0.9c0,0.3,0,0.6,0,1c0,0.8,0.1,1.6,0.1,2.4c0,0.8,0,1.6-0.1,2.4c0,0.4-0.1,0.8-0.1,1.2c0,0.1,0,0.3,0.1,0.3
			c0.2,0.2,0.2,0.6,0,0.8c-0.3,0.3-0.2,0.5,0.2,0.6c0.3,0.1,0.6,0.1,0.9,0.1c0.2,0,0.3,0.1,0.2,0.3c-0.1,0.2,0,0.3,0.2,0.4
			c0.5,0.2,0.9,0.2,1.4,0.2c0.2,0,0.4,0,0.6,0c0.2,0,0.4-0.1,0.7-0.2c-0.1-0.4-0.2-0.6-0.6-0.6c-0.4,0-0.9-0.6-1-1
			c0-0.2,0-0.5-0.2-0.6c-0.2-0.3-0.3-0.7-0.4-1.1c-0.2-0.9-0.2-1.8-0.2-2.7c0-0.5,0.1-1,0.3-1.4c0.3-0.6,0.2-1.2,0.2-1.9
			c0-0.4,0-0.8,0-1.2c0-0.1,0-0.1,0-0.2c0-1,0.2-1.9,0.4-2.8c0.2-0.6,0.3-1.3,0.4-2c0-0.2,0.2-0.3,0.4-0.4c0.5-0.2,0.8-0.6,1-1
			c0.1-0.2,0.3-0.2,0.5-0.2c0.4,0.1,0.8,0.3,1.2,0.4c0.4,0.1,0.9,0.2,1.3,0.2c0.3,0,0.6,0.1,0.9,0.1c0.5,0,1-0.1,1.5-0.2
			c1.1-0.1,1.9-0.7,2.7-1.3c0.3-0.2,0.5-0.5,0.8-0.8c0.6-0.6,0.8-1.5,1.1-2.2c0.1-0.3,0.4-0.5,0.4-0.8c0-0.1,0.1-0.1,0.2-0.2
			c-0.1-0.1-0.2-0.2,0.1-0.2c0-0.3,0-0.5,0.3-0.7c0.1-0.1,0.1-0.3,0.1-0.4c0-0.3,0.1-0.4,0.4-0.4c0.4-0.1,0.9-0.1,1.3-0.2
			c0.2,0,0.3,0,0.5-0.1c0.1,0,0.2-0.1,0.3-0.1c0.2-0.1,0.5-0.2,0.7-0.2c0.1,0,0.2,0.1,0.3,0.1c0.2,0.1,0.4,0.1,0.6,0
			c0.1-0.1,0.3-0.1,0.5-0.2c0.1,0,0.2-0.1,0.2-0.1C37.1,4.8,36.4,3.9,35.9,3.7L35.9,3.7z M35.9,3.7"/>
	</g>
</g>
</svg>
