<?xml version="1.0" encoding="utf-8"?>
<!-- Generator: Adobe Illustrator 19.0.0, SVG Export Plug-In . SVG Version: 6.00 Build 0)  -->
<svg version="1.1" id="Layer_1" xmlns="http://www.w3.org/2000/svg" xmlns:xlink="http://www.w3.org/1999/xlink" x="0px" y="0px"
	 viewBox="0 0 36.6 30" style="enable-background:new 0 0 36.6 30;" xml:space="preserve">
<style type="text/css">
	.{{$ctrl.id}}{fill:{{$ctrl.fill}};}
</style>
<g>
	<path ng-class="{ '{{$ctrl.id}}': true}" d="M34.4,9.2c-1.6-2.4-3.6-3.6-6.2-3.6c-2.4,0-3.6,0.6-3.6,1.8c0,0.9,0.4,1.4,1.3,1.4c0.3,0,0.6-0.1,1.1-0.2
		c0.5-0.2,0.9-0.2,1.2-0.2c1.7,0,3.2,0.9,4.2,2.8c0.9,1.5,1.4,3.3,1.4,5.2c0,2.8-0.9,5.1-2.8,7.1c-1.9,2-4.2,3-6.9,3l-0.2,0
		c0.2-0.6,0.4-1.4,0.6-2c0.2-0.7,0.3-1.3,0.3-1.9c0-1.9-0.3-4.1-1.2-6.5c-1.1-2.7-4-5.7-8.4-6.1c-1.8-0.2-2.7-0.3-3-1.1
		c-0.5-1.3-1.7-2.4-2.8-2.6C9.3,6,8.1,6,8.2,4.3C8.4,1.3,7.7,0,7.7,0S5.8,2.7,4,2.7c-0.3,0-0.6-0.1-0.9-0.2C1.5,2.1,0,0.6,0,0.6
		c0,0.5,0.3,1.8,0.8,3.8C0.4,5.3,0.2,6,0.2,6.5c0,0.7,0.5,1.7,1.4,2.9c0.9,1.2,1.6,2,1.1,4.5C2.5,15,3.2,16,4.2,17.1
		c0.8,0.9,1.7,1.8,2.5,2.7C7,20.2,7.2,20.9,7.2,22c0,0.4-0.1,1.1-0.2,2.2c-0.1,1.2-0.3,1.9-0.4,2c-0.3,0.2-0.6,0.4-1,0.5
		c-0.5,0.3-0.8,0.7-0.8,1.1c0,0.5,0.5,0.7,1.4,0.7c1.3,0,2.1-0.3,2.5-0.8c0.3-0.4,0.6-1.2,0.9-2.5C10,27.7,11,30,17,30
		c0.7,0,1.7,0,2.9-0.3c1.2-0.3,2.1-0.6,2.8-0.6h0.8c3.7,0.1,6.8-1.1,9.3-3.6c2.5-2.5,3.8-5.5,3.8-9.2C36.6,13.6,35.9,11.2,34.4,9.2
		L34.4,9.2z M2.8,7.6c0,0,0.2-0.2,0.6,0C3.3,7.8,3.2,7.9,3.1,7.9C2.9,7.9,2.8,7.6,2.8,7.6L2.8,7.6z M4.7,7C4.4,7,4,6.9,3.7,6.7
		c0.1-0.5,0.7-0.8,0.7-0.8l0.3,0.8l0-0.9c0.4,0,0.8,0.3,0.8,0.3S5.3,7,4.7,7L4.7,7z M0.9,6.1c0,0,0.4-0.3,0.8-0.3l0,0.9l0.3-0.8
		c0,0,0.5,0.3,0.7,0.8C2.5,6.9,2.2,7,1.9,7C1.3,7,0.9,6.1,0.9,6.1L0.9,6.1z M0.9,6.1"/>
</g>
</svg>
