<?xml version="1.0" encoding="utf-8"?>
<!-- Generator: Adobe Illustrator 19.0.0, SVG Export Plug-In . SVG Version: 6.00 Build 0)  -->
<svg version="1.1" id="Layer_1" xmlns="http://www.w3.org/2000/svg" xmlns:xlink="http://www.w3.org/1999/xlink" x="0px" y="0px"
	 viewBox="0 0 34.3 30" style="enable-background:new 0 0 34.3 30;" xml:space="preserve">
<style type="text/css">
	.{{$ctrl.id}}{fill:{{$ctrl.fill}};}
</style>
<g>
	<path ng-class="{ '{{$ctrl.id}}': true}" d="M32.4,15.2c0,1.3-1.1,2.4-2.4,2.4h-1.7c-0.3-1.1-0.9-2.1-1.8-3c0.8-0.6,1.4-1.4,1.7-2.4c3.8-0.7,6-4.1,6-7.5
		C34.3,1,31.4,0,31.4,0c0,2.9-1.9,4.8-1.9,4.8V1c-4.8,1-4.8,7.6-4.8,9.5c0,0.8-0.6,1.4-1.4,1.4h-1c-0.6-0.2-1.3-0.4-2-0.6
		c0.3-0.7,0.4-1.5,0.5-2.5c0.6-0.3,1-0.9,1-1.7c0-1.1-0.9-1.9-1.9-1.9c-1.1,0-1.9,0.9-1.9,1.9c0,0.7,0.4,1.3,0.9,1.6
		c-0.1,1-0.3,1.7-0.6,2.2C18,11,17.6,11,17.1,11c-0.4,0-0.9,0-1.3,0.1c-0.3-0.5-0.5-1.2-0.6-2.2c0.6-0.3,0.9-0.9,0.9-1.6
		c0-1.1-0.9-1.9-1.9-1.9s-1.9,0.9-1.9,1.9c0,0.7,0.4,1.3,1,1.7c0.1,1,0.3,1.8,0.5,2.5c-0.7,0.2-1.3,0.4-2,0.6h-1
		c-0.8,0-1.4-0.6-1.4-1.4c0-1.9,0-8.6-4.8-9.5v3.8c0,0-1.9-1.9-1.9-4.8C2.9,0,0,1,0,4.8c0,3.4,2.2,6.7,6,7.5c0.3,1,1,1.8,1.7,2.4
		c-0.8,0.9-1.4,1.9-1.8,3H4.3c-1.3,0-2.4-1.1-2.4-2.4v-2.4H0v2.4c0,2.4,1.9,4.3,4.3,4.3h1.4c0,0.7,0.1,1.3,0.3,1.9H4.3
		c-2.4,0-4.3,1.9-4.3,4.3v2.4h1.9v-2.4c0-1.3,1.1-2.4,2.4-2.4h2.6c0.3,0.4,0.6,0.8,0.9,1.1c-1.8,0.5-3,2.2-3,4.1V30h1.9v-1.4
		c0-1.3,1.1-2.4,2.4-2.4H10c2,1.2,4.5,1.9,7.2,1.9s5.2-0.7,7.2-1.9h0.9c1.3,0,2.4,1.1,2.4,2.4V30h1.9v-1.4c0-1.9-1.3-3.6-3-4.1
		c0.3-0.4,0.6-0.7,0.9-1.1H30c1.3,0,2.4,1.1,2.4,2.4v2.4h1.9v-2.4c0-2.4-1.9-4.3-4.3-4.3h-1.7c0.2-0.6,0.3-1.2,0.3-1.9H30
		c2.4,0,4.3-1.9,4.3-4.3v-2.4h-1.9V15.2z M32.4,15.2"/>
</g>
</svg>
