<?xml version="1.0" encoding="utf-8"?>
<!-- Generator: Adobe Illustrator 19.0.0, SVG Export Plug-In . SVG Version: 6.00 Build 0)  -->
<svg version="1.1" id="Layer_1" xmlns="http://www.w3.org/2000/svg" xmlns:xlink="http://www.w3.org/1999/xlink" x="0px" y="0px"
	 viewBox="0 0 32.7 30" style="enable-background:new 0 0 32.7 30;" xml:space="preserve">
<style type="text/css">
	.{{$ctrl.id}}{fill:{{$ctrl.fill}};}
</style>
<g>
	<g>
		<path ng-class="{ '{{$ctrl.id}}': true}" d="M0.2,3.6c0,0,0-0.1,0.1-0.1c0-0.1,0.1-0.2,0.2-0.3C0.7,3,0.8,2.9,1,2.8c0.2-0.2,0.4-0.4,0.6-0.5
			C1.8,2.1,2,1.9,2.4,1.8c0,0,0,0,0,0c0.2-0.1,0.3-0.2,0.5-0.3c0,0,0.1-0.1,0.1-0.1c0-0.1,0-0.1,0-0.2c0-0.2,0.1-0.4,0.2-0.6
			c0,0,0.1-0.1,0.2-0.1c0,0,0.1,0,0.1,0c0.2,0,0.3,0.1,0.5,0.1c0.1,0,0.3,0,0.4,0c0.3,0,0.9-0.1,1.2-0.1c0,0,0.1,0,0.1-0.1
			C5.7,0.1,5.8,0,5.8,0C6,0.1,6.4,0.3,6.5,0.3c0.3,0,0.4,0,0.7,0c0.3,0,0.6,0.2,0.9,0.3C8.5,0.7,8.7,0.8,8.8,1c0,0,0,0,0,0
			c0.4,0.3,0.8,0.6,1.1,0.9C10,2,10.1,2.1,10.2,2.1c0.5,0.5,0.8,1.1,1.1,1.7c0.1,0.3,0.2,0.5,0.4,0.8c0,0,0.1,0,0.1,0
			c0.5-0.3,1-0.5,1.5-0.7c0.7-0.2,1.5-0.2,2.2-0.2c0.6,0,1.2,0.1,1.9,0.1c0.4,0,0.7,0,1.1-0.1c0.2,0,0.3,0,0.5-0.1
			c0.4,0,0.8,0.1,1.2,0.2c0.1,0,0.3,0.1,0.4,0.1c0.5,0,0.9,0.1,1.4,0.1c0.7,0,1.3,0.1,1.9,0.4c0.4,0.2,0.7,0.5,1,0.8
			c0.1,0.2,0.3,0.3,0.4,0.5c0,0.1,0.1,0.1,0.2,0.1c0.2,0,0.4,0,0.6,0c0.7-0.1,1.4-0.1,2.2-0.2c0.4,0,0.8-0.1,1.1-0.1
			c0.4,0,0.8,0,1.2,0c0.4,0,0.8,0.2,1.1,0.3c0.1,0,0.2,0.1,0.2,0.1c0.1,0.1,0.3,0.2,0.4,0.3c0.2,0.1,0.3,0.4,0.4,0.6
			c0.1,0.4-0.1,0.7-0.2,1c-0.2,0.4-0.5,0.8-0.8,1c0,0-0.1,0-0.1,0.1c0,0-0.1,0-0.1,0c0,0,0,0,0-0.1c0,0,0,0,0-0.1
			c0.1-0.3,0.3-0.6,0.3-1c0-0.3,0.1-0.4-0.3-0.4c-0.5,0-1-0.1-1.5,0.1c-0.3,0.1-0.7,0.1-1,0.3c-0.9,0.4-1.8,0.8-2.7,1.2
			c0,0-0.1,0.1-0.1,0.1c0,0.2-0.1,0.4-0.1,0.6c-0.1,0.3-0.1,0.7-0.2,1c-0.1,0.4-0.2,0.7-0.3,1.1c-0.3,1-0.6,2.1-0.9,3.1
			c-0.2,0.6-0.4,1.2-0.7,1.7C24.1,16.9,24,17,24,17.2c-0.1,0.1-0.1,0.3,0,0.4c0.1,0.3,0.2,0.6,0.3,0.9c0.2,0.3,0.3,0.7,0.3,1.1
			c0,0.3,0,0.5,0,0.8c0,0.8,0.1,1.7,0.1,2.5c0,0.4,0,0.7-0.2,1c-0.2,0.4-0.4,0.9-0.5,1.3c-0.2,0.7-0.3,1.3-0.5,2
			c-0.1,0.2-0.1,0.5-0.2,0.7c0,0.1,0,0.1,0,0.2c0.1,0.3,0.2,0.6,0.1,0.9c0,0.1-0.1,0.2-0.1,0.3c0,0.2-0.1,0.4-0.2,0.6
			c0,0.1-0.1,0.2-0.2,0.2c0,0,0,0,0,0c0,0-0.1,0-0.1,0c0,0,0,0,0,0c-0.1-0.1-0.1-0.2-0.1-0.3c0-0.1,0-0.2,0-0.3c0-0.1,0-0.3,0-0.4
			c0,0,0-0.1,0-0.1c0,0,0,0,0,0.1c-0.1,0.3-0.3,0.5-0.5,0.7c-0.1,0.1-0.2,0.2-0.4,0.2c0,0-0.1,0-0.1,0C21.6,30,21.5,30,21.4,30
			c-0.1,0-0.1-0.1-0.2-0.1c0,0-0.1,0-0.1,0c0,0,0,0-0.1,0.1c0,0,0,0,0,0c0-0.2,0-0.4,0.1-0.6c0,0,0-0.1,0-0.1c-0.1,0-0.1,0-0.1,0
			c-0.1,0-0.1,0-0.2,0.1c-0.2,0.1-0.4,0.1-0.6-0.1c0,0-0.1-0.1-0.1,0c-0.1,0-0.1,0.1-0.2,0.1c0,0-0.1,0-0.1,0c0-0.2,0.1-0.4,0.3-0.5
			c0.1-0.1,0.3-0.1,0.4-0.2c0.3-0.1,0.5-0.3,0.7-0.5c0.3-0.3,0.5-0.5,0.8-0.8c0,0,0.1-0.1,0.1-0.1c0.1-0.2,0.1-0.4,0.2-0.6
			c0,0,0-0.1,0-0.1c0,0,0,0,0,0c-0.2,0.1-0.2,0.1-0.4,0c0,0-0.1,0-0.1,0c0,0-0.1,0.1-0.1,0.1c0,0-0.1,0-0.1,0c0-0.1,0-0.2,0.1-0.2
			c0.1-0.1,0.1-0.2,0.2-0.2c0.1-0.1,0.2-0.2,0.4-0.2c0.2-0.2,0.5-0.3,0.5-0.6c0,0,0,0,0,0c0.1-0.4,0.3-0.7,0.3-1.1
			c0-0.4-0.1-0.8-0.3-1.2c-0.2-0.4-0.4-0.8-0.6-1.2c-0.2-0.4-0.4-0.8-0.6-1.3c-0.4-0.9-0.5-1.8-0.6-2.8c0-0.4-0.1-0.8-0.2-1.1
			c-0.1-0.3-0.1-0.6-0.2-0.9c0-0.1,0-0.1,0-0.2c0,0,0-0.1-0.1,0c-0.3,0.1-0.5,0.3-0.8,0.4c-0.3,0.1-0.5,0.2-0.8,0.2c0,0-0.1,0-0.1,0
			c0,0-0.1,0,0,0.1c0,0,0.1,0.1,0.1,0.1c0.1,0.2,0.3,0.3,0.4,0.5c0.2,0.3,0.2,0.6,0.3,0.9c0.1,0.4,0.1,0.8,0.2,1.3
			c0.1,0.6,0.3,1.1,0.5,1.7c0.1,0.3,0.1,0.6-0.1,0.8c-0.1,0.3-0.2,0.5-0.3,0.8c-0.1,0.4-0.2,0.7-0.3,1.1c0,0.2,0,0.3,0.1,0.4
			c0.1,0.2,0.3,0.3,0.4,0.5c0.1,0.1,0.1,0.2,0,0.3c0,0,0,0-0.1,0c0,0,0-0.1-0.1-0.1c0,0-0.1,0-0.1,0c-0.1,0-0.1,0-0.2,0
			c0,0-0.1-0.1-0.1-0.1c0,0,0,0-0.1-0.1c0,0-0.1,0-0.1,0c0,0,0,0,0,0c-0.1,0.4-0.2,0.7-0.3,1.1c0,0,0,0,0,0.1c0,0.1,0.1,0.3,0.1,0.4
			c0.1,0.2,0,0.4,0,0.6c0,0.1,0,0.1,0,0.2c0,0.2-0.2,0.4-0.3,0.5c0,0-0.1,0-0.2,0.1c0,0,0,0-0.1,0c0,0-0.1,0-0.1-0.1
			c-0.1-0.2,0-0.4,0.1-0.6c0,0,0-0.1,0-0.1c0,0,0,0-0.1,0c0,0-0.1,0.1-0.1,0.1c-0.1,0.2-0.3,0.4-0.5,0.5c-0.1,0.1-0.2,0.1-0.3,0.1
			c0,0-0.1,0-0.1,0c-0.2,0.1-0.4,0.1-0.5-0.1c0,0-0.1,0-0.1,0c0,0,0,0,0,0c0,0-0.1,0.1-0.1,0.1c0,0,0,0,0-0.1c0-0.1,0-0.2,0-0.2
			c0,0,0-0.1,0-0.1c0,0,0,0-0.1,0c-0.2,0-0.3,0-0.4-0.2c0,0-0.1,0-0.1,0c0,0-0.1,0-0.1,0.1c0,0-0.1,0-0.1,0c0-0.2,0.1-0.3,0.3-0.4
			c0.1-0.1,0.3-0.1,0.4-0.1c0.3-0.1,0.5-0.2,0.7-0.4c0.1-0.2,0.3-0.3,0.4-0.5c0.1-0.1,0.2-0.2,0.2-0.3c0.2-0.6,0.4-1.1,0.5-1.6
			c0.1-0.4,0.3-0.8,0.3-1.3c0-0.2,0-0.4-0.2-0.6c-0.3-0.3-0.6-0.7-0.9-1c-0.3-0.4-0.7-0.8-0.9-1.3c-0.2-0.4-0.3-0.8-0.5-1.1
			c-0.1-0.2-0.1-0.4-0.3-0.6c-0.1-0.1-0.1-0.1-0.1-0.2c-0.1-0.2-0.1-0.4-0.2-0.6c0,0,0-0.1,0-0.1c0,0,0-0.1-0.1-0.1c0,0,0,0,0,0.1
			c0,0.1,0,0.2,0,0.3c0,0.1,0.1,0.2,0,0.3c0,0,0,0,0,0c0,0.2,0,0.4-0.1,0.6c-0.1,0.1-0.2,0.2-0.3,0.2c0,0-0.1,0,0,0c0,0,0,0,0-0.1
			c0-0.1,0.1-0.2,0.1-0.3c0,0-0.1-0.1-0.1-0.1c0,0,0-0.1-0.1-0.1c-0.1-0.2-0.1-0.4,0-0.6c0-0.1,0-0.1,0-0.2c0,0,0,0-0.1,0
			c0,0.1-0.1,0.2-0.1,0.3c-0.1,0.2-0.1,0.4-0.3,0.5c-0.1,0.1-0.1,0.1-0.2,0.1c0,0-0.1,0,0-0.1c0.1-0.1,0.1-0.1,0.1-0.2
			c0,0,0-0.1,0-0.1c-0.1-0.2-0.1-0.4,0-0.6c0.1-0.1,0.1-0.2,0.1-0.3c0-0.1,0-0.2,0-0.3c0-0.1,0.1-0.2,0.1-0.2c0-0.2,0-0.4,0.1-0.6
			c0-0.1,0-0.2-0.1-0.2c-0.1,0-0.2,0-0.3-0.1c-0.7-0.2-1.3-0.5-2-0.7c-0.3-0.1-0.6-0.3-0.8-0.5c0,0-0.1-0.1-0.1-0.1
			c-0.6-0.2-1.1-0.5-1.6-0.8c0,0,0,0-0.1,0c0,0,0,0,0,0c0,0.1,0.1,0.2,0.1,0.3c0.1,0.2,0,0.4-0.1,0.6c-0.1,0.1-0.2,0.2-0.3,0.2
			c-0.2,0.1-0.4,0.2-0.7,0.3c-0.1,0-0.2,0.1-0.3,0.1c0,0-0.1,0.1-0.1,0.1c0,0.1,0,0.3,0.1,0.4C9,14.7,9,14.8,9,14.9
			c0,0.1,0,0.3,0.1,0.4c0,0,0,0.1,0.1,0.1c0.1,0.2,0.1,0.4,0,0.6c0,0,0,0.1,0,0.1c0.1,0.1,0.1,0.2,0.2,0.3c0,0,0,0.1,0,0.1
			c-0.1,0-0.2-0.1-0.2-0.1c-0.1-0.2-0.2-0.4-0.3-0.6c0-0.1-0.1-0.1-0.1-0.2c0,0,0,0-0.1,0c0,0.1-0.1,0.1-0.1,0.1
			c-0.1,0.1-0.1,0.2-0.1,0.3c0,0,0,0.1,0,0.1c0,0,0,0.1,0,0c-0.1,0-0.1-0.1-0.2-0.2c0-0.1-0.1-0.2-0.1-0.3c0-0.1,0-0.2,0-0.3
			c0-0.1,0-0.2,0-0.2c0-0.1,0-0.1,0-0.2c0-0.1,0-0.3,0.1-0.4c0,0,0-0.1,0-0.1c0-0.1,0-0.2,0-0.3c0-0.3,0.2-0.5,0.4-0.7
			C8.8,13.2,8.9,13.1,9,13c0,0,0-0.1,0-0.1c-0.1-0.3-0.3-0.5-0.4-0.8c-0.3-0.5-0.3-1.1-0.1-1.6c0-0.1,0.1-0.3,0.1-0.4
			c0-0.3,0.1-0.6,0.1-0.9c0-0.1,0-0.1,0-0.2C8.3,8.4,7.9,7.9,7.5,7.3c0,0-0.1,0-0.1,0c-0.1,0-0.2,0-0.3,0.1c-0.2,0-0.3,0-0.4-0.1
			C6.4,7,6.3,6.8,6.2,6.5c0,0,0-0.1-0.1-0.1c-0.2,0-0.3,0-0.5,0c-0.4,0-0.8,0-1.2,0.1c-0.1,0-0.2,0-0.3,0c-0.3,0-0.6,0.1-0.8,0.1
			c-0.4,0-0.8,0.1-1.2,0.1c-0.2,0-0.5,0-0.7,0c-0.3,0-0.6-0.1-0.8-0.4C0.5,6.1,0.4,5.9,0.4,5.6c0-0.1,0-0.2-0.1-0.2c0,0,0,0,0-0.1
			C0.1,5,0,4.6,0.1,4.3c0,0,0,0,0-0.1C0,4.2,0,4.1,0,4.1C0.1,3.9,0.1,3.8,0.2,3.6L0.2,3.6z M0.2,3.6"/>
	</g>
</g>
</svg>
