<?xml version="1.0" encoding="utf-8"?>
<!-- Generator: Adobe Illustrator 19.0.0, SVG Export Plug-In . SVG Version: 6.00 Build 0)  -->
<svg version="1.1" id="Layer_1" xmlns="http://www.w3.org/2000/svg" xmlns:xlink="http://www.w3.org/1999/xlink" x="0px" y="0px"
	 viewBox="0 0 21.9 30" style="enable-background:new 0 0 21.9 30;" xml:space="preserve">
<style type="text/css">
	.{{$ctrl.id}}{fill:{{$ctrl.fill}};}
</style>
<g>
	<g>
		<path ng-class="{ '{{$ctrl.id}}': true}" d="M21.8,1c0.1-0.2,0.2-0.4,0.1-0.5c-0.1-0.2-0.2-0.3-0.4-0.4c-2.9-0.6-5.2,1.2-5.9,1.9
			c-2.2-1.2-4.6-1.3-6.4-1.3c-2.5,0-5,1.7-5.6,3.9c-0.2,0.7-0.8,1-1.5,0.9l0,0c-0.4-0.1-0.9,0-1.3,0.2c-0.4,0.2-0.7,0.6-0.8,1
			c-0.2,0.9,0.3,1.8,1.2,2l5.5,1.4c0.2,1,0.5,2.5,1.4,3c0.1,0,0.2,0,0.2,0c0.1,0,0.1-0.1,0.1-0.2c0-0.5,0.3-1.5,0.8-2.1
			c0.3,1.2,1.3,4.2,2.9,4.9c0.1,0.1,0.2,0,0.4,0c0.1-0.1,0.2-0.2,0.1-0.3c-0.1-0.7-0.1-2.1,0.6-3c0.7,0.5,1.3,1,1.8,1.8
			c1.4,2.3,1.1,6,0.7,8.6c-2,0-4.6,1.4-5.4,2.9c0,0,0,0.1,0,0.1c0,0,0.1,0,0.1,0c0.7-0.3,1.5-0.3,2.2,0.1c0.6,0.3,1,0.9,1.2,1.5
			c0.1,0.2,0.2,0.4,0.5,0.6c0.2,0.1,0.5,0.1,0.7,0.1c0.6-0.2,1.3-0.1,1.9,0.2c0.7,0.4,1.2,1.1,1.3,1.8c0,0,0,0.1,0.1,0.1
			c0,0,0.1,0,0.1,0c0.8-1.5,0.5-4.8-0.7-6.3c3.9-4.4,5.2-11.4,2.3-17c-0.1-0.2-0.2-0.3-0.3-0.5C19.5,4.1,20.9,2,21.8,1L21.8,1z
			 M21.8,1"/>
	</g>
</g>
</svg>
