<?xml version="1.0" encoding="utf-8"?>
<!-- Generator: Adobe Illustrator 19.0.0, SVG Export Plug-In . SVG Version: 6.00 Build 0)  -->
<svg version="1.1" id="Layer_1" xmlns="http://www.w3.org/2000/svg" xmlns:xlink="http://www.w3.org/1999/xlink" x="0px" y="0px"
	 viewBox="0 0 42.2 30" style="enable-background:new 0 0 42.2 30;" xml:space="preserve">
<style type="text/css">
	.{{$ctrl.id}}{fill:{{$ctrl.fill}};}
</style>
<g>
	<g>
		<path ng-class="{ '{{$ctrl.id}}': true}" d="M38.1,17.5c1.3-3.7-1.3-13.6-4.5-14.8c-3.2-1.2-5.2-1.3-5.2-1.3s-8.6-4.6-10.6,2.7c0,0-5.6,0.2-10.2,5.4
			C3,10.6-0.1,15.7,0,17c0.4-0.1,2-0.9,2-0.9c0.8-2.5,2.4-3,3-3l0.1-0.1C2.9,16.9,1.3,22.3,1.2,30h5.9c0,0,0-1.3-0.9-2.2
			c0.7-2.5,1.6-5.6,2.1-5.5C8.9,22.4,8,30,8,30h5.9c0,0,0-1.3-0.9-2.2c0.1-4.8,1.6-7.3,6.3-6.6c1.1,0.2-2.2,8.8-2.2,8.8h6.7
			c0,0,0-1.9-1.6-2.7c0-0.9,0.3-3.6,1-3.7c0.8-0.1,3.2,6.4,3.2,6.4H32c0,0-0.1-2.6-2.4-3c-0.4-0.8-0.6-1.6-0.8-2.4
			c-0.6-1.9-2.2-7.7-2.2-7.7s-0.2-0.7,0.6-1c1.1-0.5,1.3-0.5,1.5,0c0.3,0.5,0.6,0.9,1.2,0.7c0.6-0.3,0.8-0.1,1.2,0.3
			c0.3,0.4,2.4,2.6,2.4,2.6s0.1,0,0.2,0.1c0.1,0.1,0.2,0.4,0,0.7c-0.4,0.5-0.6,0.7-0.9,0.8c-0.4,0-1.1-0.2-0.7-0.6
			c0.4-0.4,0.1-0.7-0.3-1c-0.4-0.4-0.8-0.7-1.2,0.1c-0.4,0.8-1.8,4.1,1.9,4c1.5-0.1,2.7-0.8,3.7-2.2c1.7,0.8,3.9,1.5,6,0.7
			c-2.2-0.5-3.7-0.9-5.1-2C37.4,19.2,37.8,18.4,38.1,17.5L38.1,17.5z M38.1,17.5"/>
	</g>
</g>
</svg>
