<?xml version="1.0" encoding="utf-8"?>
<!-- Generator: Adobe Illustrator 19.0.0, SVG Export Plug-In . SVG Version: 6.00 Build 0)  -->
<svg version="1.1" id="Layer_1" xmlns="http://www.w3.org/2000/svg" xmlns:xlink="http://www.w3.org/1999/xlink" x="0px" y="0px"
	 viewBox="0 0 37.3 30" style="enable-background:new 0 0 37.3 30;" xml:space="preserve">
<style type="text/css">
	.{{$ctrl.id}}{fill:{{$ctrl.fill}};}
</style>
<g>
	<g>
		<path ng-class="{ '{{$ctrl.id}}': true}" d="M36.1,27.3c-2.6-2-0.2-6.9-0.2-6.9c4.7-11.9-3.4-17.9-4.8-18.7C28.3,0,21.6-1.5,18.2,2.8
			c-1,1.2-0.6,2.7-0.2,3.8c1.1,2.7,4.2,5.1,6.8,5.4c0.7,0.1,1.3-0.1,1.7-0.5c1.2-1.4,0.6-4.9,0.2-6.2c-0.1-0.3,0.1-0.7,0.5-0.8
			c0.1,0,0.2,0,0.3,0c0.2,0,0.4,0.2,0.5,0.5c0.1,0.5,1.3,5.2-0.5,7.4c-0.4,0.5-1.1,1-2.3,1c-0.2,0-0.3,0-0.5,0
			c-3.1-0.3-6.5-3.1-7.8-6.2c-0.3-0.8-0.5-1.6-0.5-2.3C9,4.8,0.5,8.9,0,16.3c0,0.2,0.1,0.5,0.4,0.5c0.2,0.1,0.5,0,0.6-0.2
			c0.5-0.7,1-1.5,1.6-2c0.1,1.2,0.4,2.3,1,3.3c1.2,2,1.9,4.4,1.9,6.7l0,4.4c0.1,0.5,1.3,1,2.9,1c1.6,0,2.8-0.4,2.9-1l0-2.8
			c0-0.7,0.3-1.5,0.9-2c0.5-0.5,1.3-0.7,2-0.7c0.5,0,1.4,0,1.5,0c0.7,0,1.4,0.3,1.9,0.8c0.5,0.5,0.8,1.2,0.8,1.9l0,2.8
			c0.1,0.5,1.3,1,2.9,1c1.6,0,2.8-0.4,2.9-1l0-2.5c0-7.3,5.3-10.5,6-10.9c3.2-1.9,1.8,3.9,1.8,3.9c-2.1,6.5,2.7,9.5,2.7,9.5l0,0
			c0,0,0,0,0,0.1c0.3,0.2,0.9,0,1.3-0.5C36.3,28.1,36.4,27.6,36.1,27.3L36.1,27.3z M36.1,27.3"/>
	</g>
</g>
</svg>
