<?xml version="1.0" encoding="utf-8"?>
<!-- Generator: Adobe Illustrator 19.0.0, SVG Export Plug-In . SVG Version: 6.00 Build 0)  -->
<svg version="1.1" id="Layer_1" xmlns="http://www.w3.org/2000/svg" xmlns:xlink="http://www.w3.org/1999/xlink" x="0px" y="0px"
	 viewBox="0 0 59.1 30" style="enable-background:new 0 0 59.1 30;" xml:space="preserve">
<style type="text/css">
	.{{$ctrl.id}}{fill:{{$ctrl.fill}};}
</style>
<g>
	<g>
		<path ng-class="{ '{{$ctrl.id}}': true}" d="M45.9,5.7c-1.6-0.9-2.2-1-3-1.5l-5-3.3C37.2,0.4,35.8,0,34.9,0h-15c-0.9,0-1.7,0.8-1.7,1.7l0,5.4
			c0,0.9-0.6,2.2-1.2,2.8L11.2,15c-0.7,0.6-1.6,0.4-2-0.4l-1.3-2.5c-0.4-0.8-1.5-1.6-2.4-1.8L1.1,9.4c-0.9-0.2-1.3,0.3-0.9,1.2
			l3,6.1c0.4,0.8,0.4,2.2,0.1,3l-2.9,6.5c-0.4,0.8,0,1.3,0.9,1.1l3.3-1c0.9-0.3,2.1-1.1,2.7-1.8l1.6-1.9c0.6-0.7,1.8-1,2.6-0.6
			l6,2.8c0.8,0.4,1.3,1.4,1,2.3l-0.5,1.8c-0.3,0.9,0.2,1.3,1.1,1l4.5-1.8c0.9-0.3,2.3-0.5,3.2-0.3c0,0,5.6,1.6,9.6,1.6
			c13.2,0,22.6-11,22.6-11.2C59.1,17.9,53.6,9.9,45.9,5.7L45.9,5.7z M45.9,5.7"/>
	</g>
</g>
</svg>
