<?xml version="1.0" encoding="utf-8"?>
<!-- Generator: Adobe Illustrator 19.0.0, SVG Export Plug-In . SVG Version: 6.00 Build 0)  -->
<svg version="1.1" id="Layer_1" xmlns="http://www.w3.org/2000/svg" xmlns:xlink="http://www.w3.org/1999/xlink" x="0px" y="0px"
	 viewBox="0 0 28 30" style="enable-background:new 0 0 28 30;" xml:space="preserve">
<style type="text/css">
	.{{$ctrl.id}}{fill:{{$ctrl.fill}};}
</style>
<g>
	<g>
		<path ng-class="{ '{{$ctrl.id}}': true}" d="M15.2,7.4h-0.3c0,0,0,0,0,0C15,7.4,15.1,7.4,15.2,7.4C15.2,7.4,15.2,7.4,15.2,7.4L15.2,7.4z M15.2,7.4"/>
		<path ng-class="{ '{{$ctrl.id}}': true}" d="M27.9,25.8C27.9,25.8,27.9,25.8,27.9,25.8C27.9,25.8,27.9,25.8,27.9,25.8C28,25.8,28,25.8,27.9,25.8
			c-0.1-0.8-0.5-1.4-0.8-2.1c0,0,0,0,0,0c0.1,0.1,0.1,0.1,0.2,0.2c0,0,0,0.1,0.1,0c0,0,0,0,0-0.1c-0.3-0.5-0.6-1-0.9-1.5
			c0,0,0-0.1,0-0.1c0,0,0,0,0.1,0c0.1,0.1,0.1,0.2,0.2,0.3c0,0,0,0.1,0.1,0.1c0,0,0,0,0-0.1c0,0,0-0.1,0-0.1c0,0,0,0,0.1,0
			c0.1,0.1,0.3,0.3,0.4,0.4c0,0,0,0,0,0c0-0.1-0.1-0.1-0.1-0.2c0,0,0-0.1,0-0.1c0,0,0,0,0.1,0c0.2,0.1,0.3,0.2,0.5,0.3c0,0,0,0,0,0
			c0,0,0.1-0.1,0-0.1c-0.2,0-0.3-0.3-0.3-0.3c-0.2-0.4-0.6-0.8-0.8-1.2c-0.3-0.5-0.6-1.1-0.7-1.8c0-0.1,0-0.2,0-0.2c0,0,0,0,0,0
			c0,0,0,0,0,0c-0.2-0.4-0.3-0.9-0.5-1.3c0,0,0-0.1,0-0.1c0,0,0,0,0,0.1c0.1,0.1,0.1,0.3,0.2,0.4c0,0,0,0.1,0,0.1c0,0,0,0,0-0.1
			c0,0,0,0,0-0.1c-0.4-0.8-0.8-1.5-1.2-2.3c-0.1-0.1-0.2-0.3-0.3-0.4c-0.4-0.4-0.8-0.7-1.1-1c-0.1-0.1-0.3-0.3-0.4-0.4
			c-0.1-0.1-0.1-0.1-0.2-0.2c-0.5-0.3-1-0.7-1.3-1.2c-0.5-0.6-1.2-1.1-1.9-1.5c-0.2-0.1-0.3-0.2-0.5-0.3C18.5,11.1,18.3,11,18,11
			c-0.4-0.1-0.7,0-1.1-0.1c-0.3,0-0.5-0.1-0.8-0.2c-0.6-0.2-1.2-0.4-1.8-0.6c-0.4-0.1-0.6-0.5-0.9-0.7c0,0,0,0,0-0.1
			c0,0,0-0.1,0-0.1c0,0,0,0,0.1,0c0.1,0,0.2,0.1,0.3,0.1c0,0,0,0,0,0c0,0,0-0.1-0.1-0.1c0,0,0-0.1,0-0.1c0,0,0,0,0.1,0
			c0.2,0.1,0.3,0.1,0.5,0.2c0,0,0.1,0,0.1,0c0,0,0,0,0-0.1c0,0,0-0.1-0.1-0.1c0,0,0,0,0,0c0.3,0.1,0.5,0.2,0.7,0.3c0,0,0.1,0,0.1,0
			c0,0,0,0-0.1,0c-0.2-0.1-0.4-0.2-0.6-0.3c0,0-0.1,0-0.1-0.1c0,0,0,0,0.1,0c0.1,0,0.2,0.1,0.2,0.1c0,0,0.1,0,0.1,0c0,0,0,0,0-0.1
			c0,0,0,0-0.1,0c0,0-0.1-0.1,0-0.1c0,0,0,0,0.1,0c0.1,0,0.1,0,0.2,0c0,0,0,0,0,0c0,0,0,0-0.1,0c0,0,0-0.1,0-0.1
			c0.2-0.1,0.4,0,0.6,0.1c0,0,0,0,0,0c-0.2-0.1-0.4-0.3-0.6-0.4c0,0-0.1,0-0.1,0c0,0,0,0,0.1,0l0.4,0.1c0,0,0.1,0,0.1,0
			c0,0,0,0-0.1-0.1c-0.1-0.1-0.3-0.2-0.4-0.3c0,0-0.1,0-0.1-0.1c0,0,0,0,0.1,0c0,0,0.1,0,0.1,0c0,0,0.1,0,0,0
			c-0.2-0.2-0.4-0.3-0.6-0.4c0,0,0,0,0,0c0,0,0.1,0,0.1,0c0,0,0,0,0,0c0,0,0,0-0.1,0c0,0,0,0,0,0c0.1,0,0.1,0,0.2,0c0,0,0,0,0,0
			c-0.1,0-0.1,0-0.2-0.1c0,0-0.1,0-0.1,0c0,0,0,0,0.1,0c0.1,0,0.2,0,0.3,0c0,0,0,0,0.1,0c0,0,0-0.1,0-0.1c0,0,0,0,0-0.1
			c-0.2,0-0.3-0.1-0.4-0.2c0,0,0,0,0,0c0,0,0.1,0,0.1,0c0,0,0,0,0,0c0,0,0,0,0,0c0,0,0,0,0-0.1C14.7,7,14.8,6.9,15,6.9
			c0,0,0.1,0,0.1,0c0,0,0,0-0.1,0c0,0,0,0,0,0c0,0-0.1,0,0-0.1c0-0.1,0.1-0.1,0.1-0.2c0,0,0-0.1,0-0.1c0,0,0,0,0-0.1
			c0,0,0.1-0.1,0.1-0.1c0.1,0,0.2,0,0.3-0.1c0,0,0,0,0,0c-0.2,0-0.5,0-0.7,0c0,0-0.1,0-0.1,0c0,0,0,0,0,0c0,0,0,0,0,0
			c0,0-0.1,0-0.1,0c0,0-0.1,0-0.1,0c0,0,0,0,0.1,0c0.1,0,0.2,0,0.3,0c0,0,0,0,0,0c-0.2,0-0.3-0.1-0.5-0.1c0,0-0.1,0-0.1,0
			c0,0,0,0,0.1,0l0,0c0,0,0,0,0-0.1c-0.3-0.2-0.6-0.3-0.9-0.5c0,0,0,0,0,0c0.2,0,0.5,0.1,0.7,0c0,0,0,0,0,0c-0.1,0-0.1,0-0.2,0
			c0,0-0.1,0-0.1,0c0,0,0,0-0.1,0c-0.1,0-0.2-0.1-0.3-0.1c0,0-0.1,0-0.1,0c0,0,0,0,0.1,0c0.1,0,0.2,0,0.3,0c0,0,0.1,0,0.1,0
			c0,0,0,0-0.1,0c-0.1,0-0.2,0-0.3,0c0,0-0.1,0-0.1,0c0,0,0,0,0.1,0c0.1,0,0.1,0,0.2,0c0,0,0.1,0,0,0c0,0,0,0,0-0.1c0,0,0,0,0.1,0
			c0.3-0.1,0.5-0.1,0.8-0.2c0,0,0,0,0,0c-0.3,0-0.4,0-0.5,0c0,0,0-0.1,0-0.1c0.1,0,0.2-0.1,0.1-0.2c0,0,0-0.1-0.1-0.1
			c-0.1,0-0.1,0-0.2,0c-0.3,0-0.3,0-0.4-0.2c0,0,0-0.1,0-0.1c0.1-0.1,0.2-0.1,0.4-0.2c0,0,0.1,0,0.1,0c0,0,0,0-0.1,0
			c-0.1,0-0.2,0.1-0.3,0.1c-0.1,0-0.3,0.1-0.4,0c0,0,0,0,0,0c-0.5-0.2-1.1-0.4-1.6-0.5c-0.1,0-0.2-0.1-0.3-0.1c0,0,0,0,0,0l0,0
			c0,0,0.1,0,0.1,0c0,0,0,0-0.1,0c-0.1-0.1-0.3-0.1-0.4-0.2c0,0-0.1,0-0.1,0c0,0,0,0,0.1,0c0,0,0,0,0,0c0,0,0,0,0,0
			c-0.3-0.1-0.6-0.3-1-0.4C10.1,2,10,2,10,2c0,0,0,0,0.1,0c0.1,0,0.2,0,0.3,0c0,0,0,0,0,0c-0.1,0-0.1,0-0.2,0c0,0,0,0,0,0
			c0.2-0.1,0.3-0.2,0.5-0.2c0,0,0,0,0,0c-0.2,0-0.4,0.1-0.6,0.1c0,0-0.1,0-0.1,0c0,0,0,0,0-0.1c0,0,0,0,0-0.1
			c-0.1,0-0.2-0.1-0.3-0.1c0,0,0.3-0.1-0.1-0.1C9.3,1.3,9,1.2,8.7,1C8.5,0.9,8.2,0.8,7.9,0.7c-0.3-0.1-0.7-0.2-1-0.3
			c-0.1,0-0.2-0.1-0.4-0.1c-0.2,0-0.3,0-0.5,0c0,0-0.1,0-0.1,0c0,0-0.1,0-0.1,0c-0.7,0-1.4,0-2,0.2c-0.1,0-0.3,0.1-0.4,0.2
			c-0.1,0-0.1,0-0.2,0C3.1,0.4,3,0.3,2.9,0.2C2.8,0.1,2.7,0.1,2.7,0c0,0-0.1,0-0.1,0c0,0,0,0,0,0.1c0,0,0,0,0,0.1
			c0,0.1,0.1,0.2,0.1,0.4c0.1,0.3,0.1,0.3-0.2,0.3C2.4,0.9,2.3,0.9,2.2,1C2.1,1.1,2,1.1,1.9,1.1c-0.1,0-0.2,0-0.3,0
			c-0.4,0-0.7-0.1-1-0.2c0,0,0,0-0.1,0c0,0-0.1,0-0.1,0.1c0,0,0,0,0,0.1c0.1,0.2,0.3,0.4,0.5,0.5c0.1,0.1,0.3,0.1,0.4,0.2
			C1.6,1.9,1.6,2,1.5,2.3C1.4,2.7,1.3,3.1,1.2,3.5c0,0.2,0,0.4,0.1,0.6c0,0.1,0.1,0.2,0.1,0.3C1.3,5.2,1.2,6,1,6.7
			c0,0.1-0.1,0.3-0.1,0.4c0,0,0,0.1,0,0.1c0,0,0,0,0,0c0,0,0,0,0,0c0,0,0,0.1,0,0.1c0,0,0,0,0,0.1c0,0,0,0,0,0C1,7.5,1,7.6,1.1,7.6
			c0,0,0,0.1,0,0.1c0,0,0,0-0.1,0.1c0,0,0,0,0,0.1c0,0,0,0.1,0,0.1c0,0,0,0,0,0C1,8,1,8.1,1,8.1c0.1,0.1,0.3,0.2,0.5,0.3
			c0,0,0,0.1,0,0.1c0,0,0,0,0,0c0,0,0,0.1,0,0.1C1.6,8.7,1.8,8.6,2,8.6c0.1,0,0.2,0,0.3,0c0,0,0.1,0,0.1,0c0.1-0.1,0.3-0.1,0.5-0.2
			c0.2,0,0.4-0.3,0.4-0.5c0-0.3,0-0.5,0.3-0.8c0.2-0.2,0.3-0.5,0.4-0.7c0-0.1,0.1-0.1,0.2-0.1c0.1,0,0.2,0,0.2,0.1
			C4.4,6.7,4.5,7,4.5,7.3c0,0.4,0,0.9-0.1,1.3C4.3,9.1,4.1,9.5,3.8,9.9c-0.3,0.5-0.5,1-0.4,1.5c0.1,0.3,0.1,0.6,0.1,0.9
			c0,0.1,0,0.2-0.1,0.2c-0.9,0.5-1.7,1.2-2.4,1.8c-0.1,0.1-0.3,0.2-0.4,0.3c-0.3,0.3-0.4,0.7-0.3,1.1c0,0.1,0,0.2,0.1,0.3
			c0.2,0.4,0.2,0.7,0.1,1.2c-0.2,0.6-0.3,1.3-0.5,1.9c0,0.2,0,0.3,0.1,0.5c0.2,0.3,0.4,0.7,0.4,1.1c0.1,0.3,0.2,0.6,0.4,0.9
			c0.1,0.2,0.3,0.4,0.4,0.6c0.1,0.2,0.2,0.2,0.4,0.1c0.2-0.1,0.3-0.2,0.4-0.3c0.3-0.4,0.3-0.8,0.2-1.3c0-0.1-0.1-0.2-0.1-0.3
			c-0.2-0.2-0.5-0.5-0.7-0.7c-0.2-0.1-0.2-0.4-0.1-0.5c0.1-0.1,0.1-0.2,0.1-0.4c0-0.1,0-0.3,0-0.5c0,0,0-0.1,0.1,0
			C1.9,18.6,2,18.7,2.1,19c0.1,0.5,0.4,0.7,0.8,0.8c0.7,0.2,1.5,0.4,2.3,0.4c0.4,0,0.4,0,0.3-0.4c0-0.5-0.3-1-0.6-1.4
			c0,0-0.1-0.1-0.2-0.1c-0.2,0-0.4,0-0.5,0c-0.1,0-0.1,0.1-0.2,0.1c-0.1,0.1-0.2,0.2-0.3,0.2c0,0-0.1,0-0.1,0c0,0,0,0,0-0.1
			c-0.1-0.3-0.1-0.3-0.4-0.3c-0.2,0-0.4-0.1-0.5-0.3c-0.2-0.4-0.5-0.8-0.7-1.3c0-0.1,0-0.2,0-0.2c0.1-0.1,0.1-0.2,0.2-0.3
			c0.1-0.1,0.2-0.1,0.2-0.1c0.7,0,1.4,0,2.2-0.1c0.7,0,1.3-0.1,1.9-0.2c0.1,0,0.2,0,0.2-0.1c0.2-0.2,0.4-0.2,0.6-0.1
			c0.4,0.2,0.8,0.4,1.2,0.6c0.6,0.3,1.2,0.5,1.8,0.7c1.2,0.5,2.4,0.6,3.6,0.9c0.3,0.1,0.5,0.1,0.8,0.1c0.1,0,0.2,0.1,0.2,0.2
			c0,0.2,0.1,0.3,0.1,0.5c0,0.6,0.2,1.1,0.5,1.6c0.1,0.2,0.2,0.4,0.3,0.5c0.2,0.4,0.1,0.8-0.2,1.1c-0.5,0.7-1.2,1.2-1.8,1.8
			c-0.2,0.2-0.4,0.3-0.6,0.5c-0.1,0.1-0.1,0.2-0.1,0.3c0,0.5-0.1,1-0.2,1.5c-0.1,0.4,0,0.7,0.2,1c0.1,0.3,0.3,0.5,0.4,0.8
			c0,0,0.1,0,0.1,0c0.2-0.2,0.3-0.3,0.5-0.5c0.3-0.3,0.5-0.7,0.6-1.2c0-0.1,0-0.3,0-0.4c0-0.2-0.1-0.3-0.2-0.5
			c0-0.1,0.1-0.2,0.1-0.2c0.2-0.1,0.3-0.3,0.4-0.4c0.2-0.3,0.5-0.6,0.8-0.9c0.3-0.3,0.6-0.5,1-0.7c0.4-0.2,0.8-0.5,1.2-0.7
			c0.1-0.1,0.2-0.2,0.2-0.3c0,0,0.1,0,0.1,0c0.3,0.1,0.5,0.4,0.7,0.8c0.3,0.7,0.2,1.4-0.1,2c-0.3,0.6-0.6,1.2-0.9,1.7
			c-0.2,0.4-0.5,0.6-0.8,0.8c-0.1,0.1-0.2,0.1-0.2,0.2c-0.4,0.6-0.7,1.3-1,2c-0.1,0.2-0.1,0.2,0.1,0.3c0.2,0,0.5,0,0.8,0
			c0.4,0,0.8-0.1,1.2-0.4c0.3-0.2,0.4-0.5,0.4-0.8c0,0,0,0,0-0.1c-0.1-0.3,0-0.5,0.4-0.6c0.3-0.1,0.4-0.3,0.5-0.6
			c0.3-0.7,0.6-1.4,1-2c0.3-0.5,0.6-1,0.9-1.5c0.2-0.3,0.4-0.7,0.6-1c0.2-0.3,0.2-0.6,0-0.9c-0.3-0.4-0.5-0.8-0.7-1.2
			c-0.2-0.4-0.1-0.7,0.1-1c0.6-0.7,0.8-1.5,1.2-2.3c0-0.1,0-0.1,0.1-0.2c0,0,0,0,0,0c0,0,0,0.1,0,0.1c0,0.5,0.1,1.1,0.1,1.6
			c0,0.3,0,0.5,0,0.8c0,0.4,0.1,0.8,0.2,1.1c0,0.1,0,0.2,0.1,0.3c0,0,0,0,0,0l0-0.1c0,0,0,0,0,0c0.2,0.6,0.3,1.2,0.6,1.8
			c0,0,0,0,0,0c0,0,0,0,0,0c0,0,0,0,0,0c0.2,0.2,0.4,0.5,0.6,0.7c0,0,0.1,0,0.1,0c0,0,0,0,0-0.1c0,0,0-0.1,0.1,0
			c0.1,0,0.2,0.1,0.3,0.1c0.1,0.1,0.2,0.1,0.3,0.2c0,0,0.1,0,0.1,0c0,0,0,0,0,0c0,0,0,0,0,0c0.4,0.4,0.8,0.7,1.1,1.2
			c0.2,0.3,0.5,0.6,0.7,0.8c0.1,0.1,0.2,0.2,0.3,0.3c0,0,0,0,0,0c0,0-0.1-0.1-0.1-0.1c0,0,0-0.1,0-0.1c0,0,0,0,0.1,0
			c0.1,0.1,0.2,0.2,0.2,0.3c0,0,0,0,0,0c0,0,0,0,0,0c0,0,0-0.1,0,0c0.2,0.1,0.4,0.3,0.6,0.4c0,0,0.1,0,0.1,0c0-0.1,0-0.1,0-0.2
			c0,0,0-0.1,0-0.1c0,0,0,0,0.1,0.1c0,0,0,0,0,0c0,0,0,0.1,0.1,0.1c0,0,0,0,0-0.1c0-0.1-0.1-0.1-0.1-0.2c0,0,0-0.1,0-0.1
			c0,0,0,0,0.1,0c0,0.1,0.1,0.1,0.1,0.2c0,0,0,0.1,0.1,0.1c0,0,0,0,0-0.1C28,26.1,27.9,26,27.9,25.8L27.9,25.8z M27.9,25.8"/>
	</g>
</g>
</svg>
