<?xml version="1.0" encoding="utf-8"?>
<!-- Generator: Adobe Illustrator 19.0.0, SVG Export Plug-In . SVG Version: 6.00 Build 0)  -->
<svg version="1.1" id="Layer_1" xmlns="http://www.w3.org/2000/svg" xmlns:xlink="http://www.w3.org/1999/xlink" x="0px" y="0px"
	 viewBox="0 0 32.4 30" style="enable-background:new 0 0 32.4 30;" xml:space="preserve">
<style type="text/css">
	.{{$ctrl.id}}{fill:{{$ctrl.fill}};}
</style>
<g>
	<g>
		<path ng-class="{ '{{$ctrl.id}}': true}" d="M28.8,3.4c0,0,0-3.5-1.3-3.4c-1.3,0.1,0,3.4,0,3.4s-1.5,1.7-2,3.3c-0.5,1.6-2.1,2.6-4.2,3.3
			c-2,0.6-8.3,4.4-8.3,11.3c0.1,4.7-0.8,7.2-12.6,6.7c-0.9,0-0.3,0.4,1.8,1.1C4.9,29.9,7,30,8.2,30c2.8-0.1,6.3-0.7,7.9-3.4
			c0.7-1,1-1,1.2-1c0.3,0,0.8,0.2,1.2,0.5c0.4,0.4,0.8,0.8,0.8,1.2c0,0.4-0.5,0.8-0.8,1.4c-0.2,0.4-0.3,1.2,1.1,1.2
			c1.4,0,8.7,0,8.7,0s1-0.2,1.1-0.9c0.1-0.7-0.8-1.1-1.7-1c-0.9,0.1-5.8,0.4-6.3-0.2c-0.5-0.6-0.6-2.3,0.2-2.9
			c0.9-0.6,3.2-3.3,2.9-6.4c-0.2-2.5,0.2-2.8,0.6-2.9c0.5-0.1,1,0,1.3,0.7c0.4,0.7,0.5,2.3,1.2,2.4c0.7,0,0.8-0.9,0.8-1.1
			c0-0.2,0.1-2-2.1-3.8c-0.2-0.2-0.5-0.6,0-1.4c0.5-0.8,1.4-2,1.8-4.4c0.1-0.5,0.2-0.7,0.8-0.7s2.7,0,2.7,0s0.8-0.1,0.8-0.6
			C32.4,6.3,30.3,3.8,28.8,3.4L28.8,3.4z M28.8,3.4"/>
	</g>
</g>
</svg>
