<?xml version="1.0" encoding="utf-8"?>
<!-- Generator: Adobe Illustrator 19.0.0, SVG Export Plug-In . SVG Version: 6.00 Build 0)  -->
<svg version="1.1" id="Layer_1" xmlns="http://www.w3.org/2000/svg" xmlns:xlink="http://www.w3.org/1999/xlink" x="0px" y="0px"
	 viewBox="0 0 29.9 30" style="enable-background:new 0 0 29.9 30;" xml:space="preserve">
<style type="text/css">
	.{{$ctrl.id}}{fill:{{$ctrl.fill}};}
</style>
<g>
	<g>
		<path ng-class="{ '{{$ctrl.id}}': true}" d="M15.4,12.3c-1.2,2.8,4.9,3.1,7.7,4.5c2.8,1.4,4,4.3,4.7,4.3c3.4-4.6-1.9-10.8-1.9-10.8s-2-0.6-2.5-2.6
			c-0.4-2,1.4-4.9,1.1-3.4c-0.3,1.5,1.9,2.3,2.1,3.3c0.2,1-0.1,2.7-0.1,2.7s5.8,3.6,2.2,11.9c1.4,5.6-1.7,5.6-1.7,5.6s1,2-1.9,2
			h-7.2c-2.6,0-0.7-2.2,0.4-2.2c1.1,0,2.1,0,2.5,0c-0.2,0-3.5-0.3-2.8-2.5c-4.2,0.3-9.7-1.4-9.7-1.4S5.8,30.1,3.8,30
			c-2-0.1-3.6,0.1-3.4-1c0.3-2.1,3.3-0.1,3.5-4.2c0.2-2.3,1.5-4.1,1.5-4.1S1.8,18.3,3,11.2c-0.4,0-1.6,0.2-1.9-0.5
			C0.7,10,1,9.2,1,9.2s-1.5-2.1-0.9-3.3c0.7-1.2,3.4-1.6,4.6-1.7c0.5-4.9,2.7-4.8,6.1-3.4C16.4,0.2,17.8,8.7,15.4,12.3L15.4,12.3z
			 M15.4,12.3"/>
	</g>
</g>
</svg>
