<?xml version="1.0" encoding="utf-8"?>
<!-- Generator: Adobe Illustrator 19.0.0, SVG Export Plug-In . SVG Version: 6.00 Build 0)  -->
<svg version="1.1" id="Layer_1" xmlns="http://www.w3.org/2000/svg" xmlns:xlink="http://www.w3.org/1999/xlink" x="0px" y="0px"
	 viewBox="0 0 35.5 30" style="enable-background:new 0 0 35.5 30;" xml:space="preserve">
<style type="text/css">
	.{{$ctrl.id}}{fill:{{$ctrl.fill}};}
</style>
<g>
	<path ng-class="{ '{{$ctrl.id}}': true}" d="M15.5,22.3c-0.6,0-1.1,0.5-1.1,1.1c0,0.6,0.5,1.1,1.1,1.1c0.6,0,1.1-0.5,1.1-1.1
		C16.6,22.8,16.1,22.3,15.5,22.3L15.5,22.3z M15.5,22.3"/>
	<path ng-class="{ '{{$ctrl.id}}': true}" d="M20,22.3c-0.6,0-1.1,0.5-1.1,1.1c0,0.6,0.5,1.1,1.1,1.1c0.6,0,1.1-0.5,1.1-1.1C21.1,22.8,20.6,22.3,20,22.3
		L20,22.3z M20,22.3"/>
	<path ng-class="{ '{{$ctrl.id}}': true}" d="M14.8,14.8c0-0.8-0.6-1.4-1.4-1.4c-0.8,0-1.4,0.6-1.4,1.4c0,0.8,0.6,1.4,1.4,1.4
		C14.2,16.3,14.8,15.6,14.8,14.8L14.8,14.8z M14.8,14.8"/>
	<g>
		<path ng-class="{ '{{$ctrl.id}}': true}" d="M22,13.4c-0.8,0-1.4,0.6-1.4,1.4c0,0.8,0.6,1.4,1.4,1.4c0.8,0,1.4-0.6,1.4-1.4C23.5,14.1,22.8,13.4,22,13.4
			L22,13.4z M22,13.4"/>
		<path ng-class="{ '{{$ctrl.id}}': true}" d="M34.1,11.2c-0.8-0.9-1.8-1.5-3-1.7C29.2,4,23.9,0,17.7,0C11.6,0,6.3,4,4.4,9.4c-1.2,0.2-2.2,0.8-3,1.7
			c-1,1.1-1.4,2.5-1.3,3.9c0.2,2.7,2.3,4.8,5,5c1.4,2.9,3.7,5.3,6.8,6.7c1.3,1.9,3.5,3.2,6,3.2c2.5,0,4.7-1.3,6-3.2
			c3-1.4,5.4-3.8,6.8-6.7c2.6-0.2,4.8-2.3,5-5C35.6,13.7,35.1,12.3,34.1,11.2L34.1,11.2z M23.1,18.8l-1.6,0.2l0.7,1.5
			c0.4,0.7,0.5,1.4,0.5,2.2c0,2.7-2.2,5-5,5c-2.8,0-5-2.2-5-5c0-0.8,0.2-1.5,0.5-2.2l0.7-1.5l-1.6-0.2c-2.1-0.3-3.6-2-3.6-4.1
			c0-2.3,1.9-4.1,4.2-4.1c1.6,0,3,0.9,3.7,2.3l1,2l1-2c0.7-1.4,2.1-2.3,3.7-2.3c2.3,0,4.2,1.9,4.2,4.1
			C26.7,16.8,25.1,18.6,23.1,18.8L23.1,18.8z M23.1,18.8"/>
	</g>
</g>
</svg>
