<?xml version="1.0" encoding="utf-8"?>
<!-- Generator: Adobe Illustrator 19.0.0, SVG Export Plug-In . SVG Version: 6.00 Build 0)  -->
<svg version="1.1" id="Layer_1" xmlns="http://www.w3.org/2000/svg" xmlns:xlink="http://www.w3.org/1999/xlink" x="0px" y="0px"
	 viewBox="194.6 382 24.7 30" style="enable-background:new 194.6 382 24.7 30;" xml:space="preserve">
<style type="text/css">
	.{{$ctrl.id}}{fill:{{$ctrl.fill}};}
</style>
<g>
	<path ng-class="{ '{{$ctrl.id}}': true}" d="M219.4,391.4c0-3.4-2.8-6.2-6.2-6.2h0l2.1-3.1c0,0-6.2-1-8.2,3.1c-2.1-4.1-8.2-3.1-8.2-3.1l2.1,3.1h0
		c-3.4,0-6.2,2.8-6.2,6.2c0,2.2,1.2,4.1,2.9,5.2c-0.5,1.2-0.8,2.6-0.8,4c0,3.4,1.6,6.4,4.1,8.2h-4.1h0v2.1h0h5.7
		c0.1,0.6,0.6,1,1.2,1s1.1-0.5,1.2-1h0c0.1,0.6,0.6,1,1.2,1s1.1-0.5,1.2-1h0h0l0,0h0c0.1,0.6,0.6,1,1.2,1s1.1-0.5,1.2-1h0
		c0.1,0.6,0.6,1,1.2,1s1.1-0.5,1.2-1h5.7v-2.1h-4.1c2.5-1.9,4.1-4.9,4.1-8.2c0-1.4-0.3-2.8-0.8-4
		C218.2,395.5,219.4,393.6,219.4,391.4z M207,400.7L207,400.7L207,400.7L207,400.7L207,400.7l-3.1-3.1l3.1-3.1v0h0l0,0v0l3.1,3.1
		L207,400.7z M196.7,391.4c0-2.3,1.8-4.1,4.1-4.1c2.3,0,4.1,1.8,4.1,4.1c0,2.3-1.8,4.1-4.1,4.1C198.5,395.5,196.7,393.7,196.7,391.4
		z M213.2,395.5c-2.3,0-4.1-1.8-4.1-4.1c0-2.3,1.8-4.1,4.1-4.1c2.3,0,4.1,1.8,4.1,4.1C217.3,393.7,215.5,395.5,213.2,395.5z"/>
	<circle ng-class="{ '{{$ctrl.id}}': true}" cx="200.8" cy="391.4" r="2.1"/>
	<circle ng-class="{ '{{$ctrl.id}}': true}" cx="213.2" cy="391.4" r="2.1"/>
</g>
</svg>
