<?xml version="1.0" encoding="utf-8"?>
<!-- Generator: Adobe Illustrator 19.0.0, SVG Export Plug-In . SVG Version: 6.00 Build 0)  -->
<svg version="1.1" id="Layer_1" xmlns="http://www.w3.org/2000/svg" xmlns:xlink="http://www.w3.org/1999/xlink" x="0px" y="0px"
	 viewBox="0 0 49.2 30" style="enable-background:new 0 0 49.2 30;" xml:space="preserve">
<style type="text/css">
	.{{$ctrl.id}}{fill:{{$ctrl.fill}};}
</style>
<g>
	<g>
		<path ng-class="{ '{{$ctrl.id}}': true}" d="M48.6,11.9c-1.1-0.9-2.4-1.2-3.7-1.4c-2.1-0.4-4.2-0.4-6.3-0.3c-1.5,0.1-2.9,0.2-4.4,0.4
			c-0.2,0-0.4,0-0.6,0.1c-2.3,0.3-4.7,0.6-7,1c-0.1,0-0.2,0-0.3,0c0,0-0.1,0-0.1,0c-0.6,0.1-1-0.1-1.3-0.6c-0.7-0.9-1.4-1.8-2.1-2.7
			c-0.4-0.5-0.9-0.9-1.4-1.3C21.3,7,21.1,6.9,21,6.9c-0.2-0.1-0.5-0.1-0.6-0.1c-0.2,0-0.4,0.1-0.5,0.4c-0.1,0.2-0.1,0.3-0.1,0.5
			c-0.1,0.3-0.1,0.7-0.1,1c0,0.7,0.1,1.5,0,2.2c0,0.8-0.2,1.6-0.8,2.1c0,0,0,0,0,0c-1.5,0.3-3,0.7-4.6,1.1c-0.2,0-0.4-0.2-0.6-0.4
			c-0.4-0.4-0.8-0.7-1.2-1c-0.3-0.2-0.5-0.1-0.5,0.3c0,0.2,0,0.5-0.1,0.6c-0.1,0-0.1,0.1-0.2,0.1c0,0-0.1,0-0.1,0
			c-0.2,0.1-0.4,0.1-0.7,0.2c0,0,0,0,0,0c-0.7-0.3-1.3-0.6-2-0.8c-0.3-0.1-0.6-0.3-0.9-0.4c-0.1-0.1-0.3-0.1-0.4-0.2
			c-0.1-0.1-0.2-0.2-0.3-0.4c-0.1-0.6-0.3-1.3-0.4-1.9C6.8,9.3,6.7,8.5,6.5,7.7C6.2,6,5.8,4.3,5.1,2.7c0-0.1,0-0.1-0.1-0.2
			c0-0.1-0.1-0.2-0.2-0.3C4.5,1.6,4.2,1,3.8,0.3C3.7,0.2,3.5,0.1,3.3,0c0,0.2-0.1,0.4-0.1,0.6c0,0.6,0.2,1.2,0.2,1.8
			c0,1.1-0.1,2.1-0.1,3.2c0,1.3,0,2.6,0.2,3.8c0,0.3,0.1,0.7,0.1,1c0,0.2,0,0.3-0.1,0.4c-0.1,0.1-0.2,0.3-0.3,0.4
			c-0.1,0.2-0.3,0.3-0.5,0.5C2,12.3,1.3,13,0.4,13.3C0.2,13.3,0,13.5,0,13.6c0,0.2,0.2,0.4,0.3,0.5c0.9,0.6,1.8,0.6,2.8,0.6
			c0.6,0,1.2-0.1,1.9-0.2c0.4,0,0.8,0,1.2,0.1c0.2,0.1,0.5,0.3,0.7,0.5c0.9,1.3,1.9,2.5,3.2,3.4c0.2,0.1,0.3,0.3,0.4,0.5
			c0.1,0.1,0.1,0.2,0.2,0.2c0.3,0.2,0.4,0.3,0.3,0.7c-0.1,0.3,0.2,0.5,0.6,0.5c0.4,0,0.8-0.1,1.2-0.1c0.2,0,0.3,0,0.5,0
			c1.5,0.7,3,1.3,4.5,1.6c0.6,0.2,1.1,0.3,1.7,0.4c0.1,0,0.1,0,0.2,0.1c0.1,0.1,0.2,0.1,0.2,0.3c0,0.1,0,0.2,0,0.3
			c-0.1,0.4,0,0.6,0.3,0.7c0.1,0,0.2,0.1,0.3,0.1c0,0,0.1,0,0.1,0c0.4,0,0.8-0.2,1.2-0.3c0,0,0,0,0,0c0.5-0.2,1-0.3,1.5-0.5
			c0.2,0,0.5-0.1,0.7-0.1c0.3,0,0.5,0,0.8,0c0,0,0,0,0,0c1.7,0,3.4,0,5.1,0c0.2,0,0.5-0.1,0.7-0.1c0,0,0,0,0,0
			c0.1,0.4,0.1,0.7,0.2,0.9c0,0.1,0.1,0.2,0.1,0.2c0,0.1,0,0.1,0.1,0.2c0.2,0.5,0.1,1,0,1.6c-0.1,0.9-0.4,1.8-1,2.5
			c-0.1,0.2-0.2,0.4-0.3,0.6c-0.1,0.5,0.1,0.8,0.4,0.9c0.1,0.1,0.3,0.1,0.5,0c0.1-0.1,0.3-0.1,0.4-0.2c0.9-0.3,1.8-0.9,2.5-1.7
			c0.5-0.6,1-1.2,1.4-1.8c0.4-0.6,0.7-1.2,1-1.9c0.1-0.2,0.2-0.4,0.3-0.7c0.2-0.4,0.3-0.8,0.5-1.3c0.1-0.3,0.3-0.5,0.6-0.6
			c0.4-0.2,0.9-0.4,1.3-0.6c0.9-0.4,1.8-0.4,2.7-0.8c1.4-0.7,2.8,0,4.1-0.9c0.2-0.1,0.3-0.2,0.5-0.3c0.2-0.2,0.5-0.7,0.7-0.8
			c0.1,0,0.2-0.1,0.3-0.2c0,0,0,0,0,0c0,0,0.1,0,0.1-0.1c0.1-0.1,0.2-0.1,0.3-0.2c0.1,0,0.2-0.1,0.2-0.2c0-0.1,0.1-0.1,0.1-0.2
			c0.4-0.4,0.7-0.8,1-1.3c0.1-0.2,0.2-0.5,0.1-0.8c0-0.1,0-0.3,0-0.4C49.3,14.3,49.2,12.4,48.6,11.9L48.6,11.9z M48.6,11.9"/>
	</g>
</g>
</svg>
