<?xml version="1.0" encoding="utf-8"?>
<!-- Generator: Adobe Illustrator 19.0.0, SVG Export Plug-In . SVG Version: 6.00 Build 0)  -->
<svg version="1.1" id="Layer_1" xmlns="http://www.w3.org/2000/svg" xmlns:xlink="http://www.w3.org/1999/xlink" x="0px" y="0px"
	 viewBox="0 0 62.6 30" style="enable-background:new 0 0 62.6 30;" xml:space="preserve">
<style type="text/css">
	.{{$ctrl.id}}{fill:{{$ctrl.fill}};}
</style>
<g>
	<g>
		<path ng-class="{ '{{$ctrl.id}}': true}" d="M60.4,3c-1.2,0-2.2,1-2.2,2.2c0,0.5,0.2,1,0.4,1.3L55.4,12c-0.4,0-0.8,0-1.2,0.1V7.3c0.8-0.3,1.4-1.1,1.4-2
			c0-1.2-1-2.2-2.2-2.2c-1.2,0-2.2,1-2.2,2.2c0,0.9,0.6,1.7,1.4,2v5.2c-2.1,0.7-5.1,2.1-9.5,5.1c0.5-0.9,2.2-4.2-2.9-4.9
			C39,5.5,32.8,0,25.3,0c-8.3,0-15,6.7-15,15c0,0.5,0,1,0.1,1.5c0,0-6.8,2.9-1.3,5.9c-2.4,1.2-6.9,4.5-6.9,4.5S-3.3,30,3.2,30h39.9
			c0,0,4.2,0,7.9-5.4c4.1-6,9.7-6.5,9.7-9.1c0-1.9-1.6-2.9-3.4-3.3l2.8-4.9c0.1,0,0.2,0,0.3,0c1.2,0,2.2-1,2.2-2.2
			C62.6,4,61.6,3,60.4,3L60.4,3z M60.4,3"/>
	</g>
</g>
</svg>
