<?xml version="1.0" encoding="utf-8"?>
<!-- Generator: Adobe Illustrator 19.0.0, SVG Export Plug-In . SVG Version: 6.00 Build 0)  -->
<svg version="1.1" id="Layer_1" xmlns="http://www.w3.org/2000/svg" xmlns:xlink="http://www.w3.org/1999/xlink" x="0px" y="0px"
	 viewBox="0 0 43.4 30" style="enable-background:new 0 0 43.4 30;" xml:space="preserve">
<style type="text/css">
	.{{$ctrl.id}}{fill:{{$ctrl.fill}};}
</style>
<g>
	<g>
		<path ng-class="{ '{{$ctrl.id}}': true}" d="M43.3,13.6c-0.3-0.4-0.5-0.7-0.8-1.1c-0.3-0.3-0.6-0.7-0.7-1.2c-0.4-1.2-1-2.1-2.1-2.8
			c-0.2-0.1-0.5-0.2-0.7-0.4c-0.2-0.1-0.4-0.2-0.6-0.3c-0.3-0.1-0.6-0.2-0.8-0.4c-0.2-0.2-0.3-0.4-0.4-0.6c-0.3-0.6-0.6-1.1-0.9-1.7
			C36.2,5,36,4.9,35.7,5.1c-0.3,0.3-0.6,0.6-0.9,1c-0.2,0.3-0.3,0.7-0.2,1.1c0,0.2,0,0.3-0.3,0.4c-0.5,0.1-1.1,0.3-1.5,0.8
			c-0.2,0.3-0.4,0.5-0.6,0.7c-0.3,0.5-0.6,1-1,1.3c-0.5,0.4-1.3,0.7-2,0.1c-0.6-0.5-1.2-0.8-1.9-0.9c-0.8-0.2-1.6-0.3-2.4-0.4
			c-0.2,0-0.4-0.1-0.5-0.1c0,0,0.1,0.1,0.1,0.2c-0.1,0-0.2,0.1-0.3,0.1c-0.5,0-1.1,0-1.6,0c-0.3,0-0.8,0-0.9,0.5
			c0,0-0.1,0.1-0.1,0.1c-0.6,0.2-1.2,0.5-1.7,1c-0.4,0.4-0.9,0.8-1.3,1.2c0.3,0.1,0.2,0.2,0.1,0.4c-0.1,0.2-0.3,0.3-0.4,0.5
			c-0.1,0.2-0.2,0.3-0.4,0.5c-0.3-0.3,0.1-0.5,0.1-0.7c-0.3-0.2-0.3-0.3,0-0.6c0.2-0.2,0.3-0.4,0.5-0.7c0.1-0.2,0.2-0.3,0-0.5
			c0-0.1,0-0.2,0-0.3c0-0.1,0.1-0.2,0.1-0.3c0.1-0.2,0.1-0.4-0.1-0.5c-0.2-0.1-0.2-0.2-0.1-0.4c0.1-0.2,0.2-0.4,0.3-0.6
			c0-0.1,0-0.2,0-0.4c0-0.1-0.1-0.2-0.1-0.3c0-0.3,0.1-0.6,0.1-0.9c-0.1,0-0.2,0-0.2,0c-0.4,0-0.4,0-0.4-0.4c0-0.3,0.1-0.6,0.1-0.8
			c0-0.1-0.1-0.2-0.1-0.2c-0.2,0-0.2-0.2-0.2-0.3c0-0.1-0.1-0.2-0.1-0.2c-0.2-0.1-0.2-0.2-0.3-0.3c0-0.2,0-0.4-0.3-0.4
			c-0.2,0-0.3-0.1-0.3-0.3c0-0.4-0.1-0.8-0.2-1.2c-0.2,0.2-0.3,0.1-0.3,0c-0.1-0.2-0.3-0.4-0.4-0.7c-0.1-0.1-0.2-0.2-0.3-0.1
			c-0.1,0-0.3,0.1-0.3,0c-0.3-0.3-0.5-0.6-0.9-0.9c0,0-0.1-0.1-0.1-0.1c-0.1-0.1-0.2-0.2-0.3-0.3c-0.4-0.2-0.8-0.5-1.2-0.7
			c0,0.1-0.1,0.1-0.1,0.2c0,0-0.1,0-0.1-0.1c-0.3-0.4-0.7-0.5-1.1-0.7c0,0.1,0,0.2-0.1,0.3c0,0-0.1,0-0.2,0C10.9,0.3,10.5,0.1,10,0
			c0,0.1,0,0.2,0,0.3c0,0-0.1,0.1-0.1,0.1c-0.3,0-0.5-0.1-0.8-0.2C8.8,0.2,8.6,0.1,8.3,0.1c0.1,0.4,0,0.4-0.4,0.4
			c-0.4,0-0.9,0-1.3,0c0.1,0.4-0.2,0.3-0.4,0.4c0.1,0.3,0,0.4-0.3,0.3c-0.1,0-0.3,0-0.4-0.1c0.2,0.3,0.1,0.4-0.2,0.5
			C5,1.6,4.6,1.7,4.3,1.8C4.2,1.8,4,1.9,4,2c0,0.3-0.2,0.3-0.4,0.4c-0.1,0-0.2,0.1-0.3,0.1c-0.1,0-0.2,0.1-0.1,0.2
			C3.4,2.9,3.4,3,3.1,3.1C2.9,3.2,2.7,3.3,2.5,3.4c-0.1,0-0.1,0.2-0.2,0.3C2.2,3.7,2.2,3.8,2.1,3.9C1.8,4.1,1.6,4.3,1.3,4.5
			c0.1,0.1,0.1,0.1,0.2,0.2c0.2,0.2,0.2,0.2,0,0.4C1.3,5.3,1.1,5.4,0.9,5.6c-0.1,0.1-0.2,0.2,0,0.3c0,0,0,0.2,0,0.3
			c-0.1,0.1-0.1,0.2,0,0.3c0,0.1,0.1,0.2,0,0.3C0.7,7,0.6,7.1,0.5,7.3C0.3,7.5,0.2,7.7,0,8l0,0c0.2,0,0.4-0.1,0.6-0.1
			c0,0,0,0,0.1,0.1C0.5,8.4,0.3,8.8,0.1,9.2c0.1,0,0.2-0.1,0.2-0.1c0.1,0,0.1,0,0.2,0c0,0,0,0.1,0,0.2c-0.2,0.4-0.2,0.8-0.2,1.3
			c0-0.1,0.1-0.2,0.1-0.2c0-0.1,0.1-0.1,0.2-0.1c0,0.1,0.1,0.2,0.1,0.2c0,0.5,0,1,0,1.5c0.3,0.1,0.5,0.2,0.7,0.5
			c0.1,0.2,0.2,0.4,0.3,0.6c0.1,0.1,0.2,0.2,0.2,0.2c0.3,0,0.3,0.2,0.4,0.3C2.4,14,2.6,14,2.8,13.9c0.3-0.1,0.4-0.1,0.6,0.2
			c0,0.1,0.1,0.1,0.1,0.2c0.1-0.1,0.1-0.2,0.2-0.2c0.3-0.3,0.4-0.2,0.6,0.1c0.1,0.2,0.2,0.3,0.4,0.5C4.8,14.5,5,14.2,5.1,14
			c0-0.1,0.1-0.1,0.2-0.2c0.1,0.1,0.2,0.1,0.2,0.2c0.1,0.2,0.1,0.4,0.2,0.7c0.1-0.2,0.1-0.3,0.1-0.4c0.1-0.2,0.2-0.2,0.3-0.1
			c0.1,0.1,0.3,0.2,0.4,0.4C6.8,14.3,7,14,7.3,13.8c0.1-0.1,0.2-0.1,0.3,0c0.1,0.1,0.2,0.2,0.3,0.3c0-0.1,0-0.3,0.1-0.3
			c0.1-0.2,0.2-0.4,0.3-0.4c0.2,0,0.1,0.2,0.1,0.3c0,0,0,0,0,0c0.3-0.1,0.3-0.1,0.4,0.2c0,0.2,0.1,0.4,0.1,0.7
			c0,0.4-0.1,0.4-0.4,0.3c0,0.1-0.1,0.2-0.1,0.4c0,0.2,0,0.4,0,0.6c0,0.1,0,0.2,0,0.3c-0.1,0.2-0.2,0.4-0.2,0.6c0,0.2,0,0.3-0.2,0.3
			c0,0.3,0,0.5,0,0.8c0.1,0.6,0.5,1,0.9,1.3c0.1,0.1,0.1,0.2,0.1,0.3c0,0-0.1,0.1-0.2,0.1c-0.2,0-0.4,0-0.6,0
			c0.2,0.2,0.4,0.5,0.7,0.7c-0.1,0-0.2,0-0.2-0.1c0,0,0,0,0,0c0.1,0,0.1,0.1,0.2,0.1c-0.1,0-0.1,0-0.2,0c-0.1,0-0.1,0-0.2-0.1
			c0.1,0.1,0.1,0.2,0.1,0.2c0.2,0.4,0.5,0.7,0.9,0.8c0.1,0.1,0.2,0.2,0.1,0.3c-0.2,0.1-0.1,0.2,0,0.3c0,0.1,0.1,0.2,0.1,0.2
			c0,0.1-0.2,0.1-0.3,0.2c0.2,0.2,0.3,0.3,0.5,0.5c0.1,0.1,0.1,0.2,0.1,0.2c0,0.1-0.1,0.2-0.1,0.3c0.2,0.2,0.6,0.5,0.9,0.8
			c0,0,0.1,0.1,0.1,0.2c-0.1,0-0.1,0.1-0.2,0.1c0,0-0.1,0-0.1,0c0.1,0.1,0.3,0.3,0.4,0.4c0.2,0.2,0.5,0.4,0.7,0.6c0,0,0,0.1,0.1,0.2
			c0.1,0,0.2,0.1,0.3,0.2c0.4,0.3,0.8,0.5,1.3,0.4c0.2,0,0.2,0.1,0.2,0.2c0,0.2-0.1,0.3-0.1,0.5c0.2,0,0.3,0.1,0.5,0.1
			c0.1,0,0.1,0.1,0.2,0.1c0,0.1-0.1,0.1-0.1,0.2c-0.1,0.1-0.2,0.1-0.2,0.2c0.3,0.1,0.6,0.1,0.9,0.2c0.2,0,0.2,0.2,0.2,0.3
			c0,0.1,0,0.2,0.1,0.3c0.1,0.1,0.3,0.1,0.5,0.2c0.1,0,0.2,0.1,0.3,0.1c-0.1,0.1-0.1,0.2-0.2,0.3c0,0,0,0,0,0c0.3,0,0.5-0.1,0.8-0.1
			c0.2,0,0.5,0,0.6,0.3c0.1,0.2,0.2,0.1,0.3,0.1c0.1,0,0.3,0,0.4,0c0.1,0,0.1,0.2,0.1,0.2c0.3-0.1,0.7-0.2,1-0.2
			c0.2,0,0.4,0,0.4,0.2c0,0.3,0.2,0.2,0.3,0.2c0.1,0,0.2-0.1,0.3-0.1c0.2,0,0.3,0,0.3,0.2c0.1,0,0.2-0.1,0.3-0.1
			c0.5-0.2,1-0.3,1.5-0.5c0.2-0.1,0.4-0.2,0.6-0.1c0.3,0.1,0.6,0.2,0.9,0.3c0.5,0,1.1,0,1.7-0.1c0.5-0.1,1-0.3,1.5-0.4
			c0.4-0.1,0.7-0.1,1,0.2c0.1,0.1,0.2,0.2,0.4,0.2c0.6,0,1.2,0,1.8,0c0.5,0,0.9-0.1,1.4-0.1c0.5,0,1.1,0.1,1.6,0.1
			c0.1,0,0.3-0.1,0.4-0.2c0.1-0.1,0-0.3-0.1-0.4c-0.2-0.4-0.5-0.5-0.9-0.6c-0.1,0-0.1-0.1-0.2-0.1c0.1-0.1,0.1-0.2,0.2-0.2
			c0.4-0.4,0.9-0.7,1.2-1.1c0.6-0.6,1.1-1.3,1-2.2c0-0.5-0.1-0.9-0.2-1.4c-0.1-0.4-0.2-0.7-0.6-1c-0.2-0.1,0-0.2,0.1-0.2
			c0.4-0.2,0.9-0.4,1.3-0.6c0.4-0.2,0.9-0.5,1.2-0.8c0.3-0.2,0.4-0.2,0.7-0.1c0.3,0.1,0.6,0.3,0.9,0.4c0.8,0.2,1.5,0,2.2-0.4
			c1.4-0.7,2.5-1.8,3.4-3c0-0.1-0.1-0.1-0.1-0.2c-0.1-0.3-0.4-0.4-0.7-0.3C42.2,16.9,42,17,41.8,17c-0.1,0-0.2,0-0.2-0.1
			c0,0,0-0.1,0.1-0.3c-0.4,0.2-0.7,0.3-1,0.5c-0.4,0.3-0.7,0.5-1.2,0.7c-0.3,0.1-0.4,0-0.6-0.2c-0.1-0.1-0.1-0.2-0.2-0.2
			c-0.2-0.2-0.1-0.3,0.1-0.3c0.2-0.1,0.4-0.1,0.6-0.2c0.6-0.2,1.2-0.5,1.5-1.1c0.2-0.5,0.6-0.6,1.1-0.6c0.5,0,1-0.2,1.2-0.7
			c0.1-0.2,0.2-0.3,0.3-0.4c0,0,0-0.1,0-0.2C43.4,13.7,43.3,13.7,43.3,13.6L43.3,13.6z M43.3,13.6"/>
	</g>
</g>
</svg>
