<?xml version="1.0" encoding="utf-8"?>
<!-- Generator: Adobe Illustrator 19.0.0, SVG Export Plug-In . SVG Version: 6.00 Build 0)  -->
<svg version="1.1" id="Shapes" xmlns="http://www.w3.org/2000/svg" xmlns:xlink="http://www.w3.org/1999/xlink" x="0px" y="0px"
	 viewBox="0 0 40 30" style="enable-background:new 0 0 40 30;" xml:space="preserve">
<style type="text/css">
	.{{$ctrl.id}}{fill:{{$ctrl.fill}};}
</style>
<g>
	<path ng-class="{ '{{$ctrl.id}}': true}" d="M37.4,0.9h-2.8C32.5,0.3,30.4,0,28.2,0c-2.2,0-4.4,0.3-6.4,0.9h-2.7C17,0.3,14.9,0,12.6,0
		c-2.2,0-4.5,0.3-6.7,0.9H3.6c-0.8,0-1.8,0.2-2.4,0.8C0.6,2.3,0,3,0,3.8v20.6c0,0.8,0.6,1.8,1.2,2.4c0.6,0.6,1.6,1.1,2.4,1.1h14.2
		c0.2,1.2,1.4,2.1,2.9,2.1c1.5,0,2.7-0.9,2.9-2.1h13.9c0.8,0,1.3-0.5,1.9-1.1c0.6-0.6,0.7-1.6,0.7-2.4V3.8c0-0.8-0.1-1.5-0.7-2.1
		C38.8,1.1,38.2,0.9,37.4,0.9z M21.2,24.7V2.8c4.3-1.5,9.5-1.5,13.9,0v21.9c-2.2-0.7-4.6-1-6.9-1C25.8,23.6,23.4,24,21.2,24.7z
		 M19.6,24.7c-2.2-0.7-4.6-1-7-1c-2.5,0-4.9,0.4-7.3,1.1V2.8c2.4-0.8,4.8-1.2,7.3-1.2c2.4,0,4.8,0.4,7,1.2V24.7z"/>
</g>
</svg>
