<?xml version="1.0" encoding="utf-8"?>
<!-- Generator: Adobe Illustrator 19.0.0, SVG Export Plug-In . SVG Version: 6.00 Build 0)  -->
<svg version="1.1" id="Layer_1" xmlns="http://www.w3.org/2000/svg" xmlns:xlink="http://www.w3.org/1999/xlink" x="0px" y="0px"
	 viewBox="0 0 32.5 30" style="enable-background:new 0 0 32.5 30;" xml:space="preserve">
<style type="text/css">
	.{{$ctrl.id}}{fill:{{$ctrl.fill}};}
</style>
<g>
	<g>
		<g>
			<path ng-class="{ '{{$ctrl.id}}': true}" d="M27.8,4.1c0-0.2-0.3-0.4-0.5-0.3l-6.9,1.3c-0.2,0-0.4,0.3-0.3,0.5l4.7,24.1c0,0.2,0.3,0.4,0.5,0.3l6.9-1.3
				c0.2,0,0.4-0.3,0.3-0.5L27.8,4.1z M29.6,23.6l0.1,0.6l-3.7,0.7l-0.1-0.6L29.6,23.6z M22.1,8l4.8-0.9l0.1,0.8l-4.8,0.9L22.1,8z
				 M23.1,10.2L23,9.6l3.7-0.7l0.1,0.6L23.1,10.2z M25.7,26.7L25.6,26l4.8-0.9l0.1,0.8L25.7,26.7z"/>
		</g>
	</g>
	<g>
		<g>
			<path ng-class="{ '{{$ctrl.id}}': true}" d="M19.8,0h-8.7c-0.2,0-0.3,0.1-0.3,0.3v29.3c0,0.2,0.1,0.3,0.3,0.3h8.7c0.2,0,0.3-0.1,0.3-0.3V0.3
				C20.1,0.1,19.9,0,19.8,0z M19.3,27.6h-7.8v-1.2h7.8V27.6z M15.4,16.5l2.8,3.3l-2.8,3.3l-2.8-3.3L15.4,16.5z M12.7,10.4l2.8-3.3
				l2.8,3.3l-2.8,3.3L12.7,10.4z M19.3,3.4h-7.8V2.2h7.8V3.4z"/>
		</g>
	</g>
	<g>
		<g>
			<path ng-class="{ '{{$ctrl.id}}': true}" d="M9.4,0H0.3C0.1,0,0,0.1,0,0.3v29.3C0,29.9,0.1,30,0.3,30h9.1c0.2,0,0.3-0.1,0.3-0.3V0.3C9.7,0.1,9.6,0,9.4,0
				z M8.8,27.6H1v-1.2h7.8V27.6z M8.1,24.1v1.2H1.7v-1.2H8.1z M2.4,18.7c0-1.3,1.1-2.4,2.4-2.4s2.4,1.1,2.4,2.4
				c0,1.3-1.1,2.4-2.4,2.4S2.4,20,2.4,18.7z M8.8,5.5H1V4.4h7.8V5.5z"/>
		</g>
	</g>
</g>
</svg>
