<?xml version="1.0" encoding="utf-8"?>
<!-- Generator: Adobe Illustrator 19.0.0, SVG Export Plug-In . SVG Version: 6.00 Build 0)  -->
<svg version="1.1" id="Layer_1" xmlns="http://www.w3.org/2000/svg" xmlns:xlink="http://www.w3.org/1999/xlink" x="0px" y="0px"
	 viewBox="0 0 33 30" style="enable-background:new 0 0 33 30;" xml:space="preserve">
<style type="text/css">
	.{{$ctrl.id}}{fill:{{$ctrl.fill}};}
</style>
<g>
	<path ng-class="{ '{{$ctrl.id}}': true}" d="M4.4,17.6l13.9,3.9c0.8-0.2,0.9-0.4,0.9-0.4L32.8,5.4c0.7-1.5-0.3-1.7-0.3-1.7L16.2,0h-1L1.8,14.9
		C0.2,17.1,0,19.7,0,19.7c-0.2,3.9,2.5,5.7,2.5,5.7s15.4,4.7,16.2,4.6c0.9-0.1,1.3-0.4,1.3-0.4l12.5-15l-0.1-4.3c0,0,0.4-1-1-1
		c-1.4,0-1.5,1.3-1.5,1.3v3.7L18.3,27.5L4,23.4c0,0-1.6-0.7-1.5-3.2C2.6,17.7,4.4,17.6,4.4,17.6z M13.5,6.7l1.2-1.4
		c0.1-0.3,0.5-0.4,0.8-0.4l9.6,2.5c0.4,0.1,0.6,0.4,0.5,0.7l-1.2,1.7c-0.1,0.3-0.5,0.5-0.8,0.4l-9.8-2.8C13.5,7.2,13.3,6.9,13.5,6.7
		z"/>
</g>
</svg>
