<?xml version="1.0" encoding="utf-8"?>
<!-- Generator: Adobe Illustrator 19.0.0, SVG Export Plug-In . SVG Version: 6.00 Build 0)  -->
<svg version="1.1" id="icons" xmlns="http://www.w3.org/2000/svg" xmlns:xlink="http://www.w3.org/1999/xlink" x="0px" y="0px"
	 viewBox="0 0 35.6 30" style="enable-background:new 0 0 35.6 30;" xml:space="preserve">
<style type="text/css">
	.{{$ctrl.id}}{fill:{{$ctrl.fill}};}
</style>
<g>
	<path ng-class="{ '{{$ctrl.id}}': true}" d="M30.6,17.7c-1.4,1-3,1.9-4.6,2.5l0,4.1c-4.9,0.4-9,1.8-10.7,2.4c-1.7-0.6-5.8-2-10.7-2.4l0-16.5
		c5.1,0.4,9.3,1.8,9.9,2l0.6,3.9h0.5l0.6-3.9c0.3-0.1,2.1-0.7,4.5-1.2c0.4-0.7,0.9-1.3,1.4-1.9c-3.4,0.6-6,1.4-6.6,1.6h-0.4
		C14.2,8,9,6.3,2.9,6.1l0,2C2,8.1,1,8,0,8l0,19.6c5,0.1,9.5,0.9,12.3,1.6c0.2,0.5,0.7,0.9,1.3,0.9h3.5c0.6,0,1.1-0.4,1.3-0.9
		c2.8-0.6,7.3-1.5,12.3-1.6L30.6,17.7z"/>
	<path ng-class="{ '{{$ctrl.id}}': true}" d="M27.1,16.1c2.1-0.5,3.8-0.6,5.7-3.2c0.6-0.9,1.2-2.1,1.7-3.4c-0.6,0.2-1.3,0.3-2.1,0.3c1.3-0.9,2.5-1.5,3-3.7
		c0.4-2.2,0.4-4.3-0.4-6c-1.9,2.5-4.6,3.4-7.4,4.7c-0.7,0.3-1.4,0.7-2,1.1c-1.7,1.4-1.8,2.7-2.1,4.3c-0.3-0.6-0.5-1.2-0.6-1.8
		c-2.7,3.2-3.7,7.2-2.8,9.7c2.3-4.1,5.3-8,10.6-10.9c-4.9,4.2-9.5,11.3-11.1,15.1c-0.2,0.5,0.3,1,0.8,0.7l0,0
		c0.6-0.5,2.3-3.2,2.5-3.5c2.2-0.5,4.2-1.4,6-2.6C28.2,16.6,27.6,16.4,27.1,16.1z"/>
</g>
</svg>
