<?xml version="1.0" encoding="utf-8"?>
<!-- Generator: Adobe Illustrator 19.0.0, SVG Export Plug-In . SVG Version: 6.00 Build 0)  -->
<svg version="1.1" id="Layer_1" xmlns="http://www.w3.org/2000/svg" xmlns:xlink="http://www.w3.org/1999/xlink" x="0px" y="0px"
	 viewBox="0 0 37.3 30" style="enable-background:new 0 0 37.3 30;" xml:space="preserve">
<style type="text/css">
	.{{$ctrl.id}}{fill:{{$ctrl.fill}};}
</style>
<g>
	<path ng-class="{ '{{$ctrl.id}}': true}" d="M19.3,24.7c0.1,0,0.1,0,0.2,0c0.1,0,0.3,0,0.4-0.1l17.1-10.5c0.4-0.2,0.5-0.7,0.2-1.1
		c-0.2-0.4-0.7-0.5-1.1-0.2L19.3,23.2l-17-3.8c-0.3-0.3-0.8-1-0.8-1.9c0-0.6,0.3-1.2,0.9-1.8l16.9,3.8c0.1,0,0.1,0,0.2,0
		c0.1,0,0.3,0,0.4-0.1L36.9,8.9c0.4-0.2,0.5-0.7,0.2-1.1c-0.2-0.4-0.7-0.5-1.1-0.2L19.3,17.9l-17-3.8c-0.3-0.3-0.8-1-0.8-1.9
		c0-0.6,0.3-1.3,0.9-1.8l16.8,3.4L36.1,3.7V2.9L17.6,0L2,8.9l0,0l0,0L1.6,9.1c-0.1,0-0.2,0.1-0.2,0.2C0.5,10.1,0,11.1,0,12.2
		c0,1.2,0.6,2.2,1,2.7c-0.7,0.8-1,1.6-1,2.6c0,1.2,0.6,2.2,1,2.7c-0.7,0.8-1,1.6-1,2.6c0,1.8,1.3,3.1,1.4,3.1
		C1.5,25.9,1.6,26,1.8,26l17.5,4c0.1,0,0.1,0,0.2,0c0.1,0,0.3,0,0.4-0.1l17.1-10.5c0.4-0.2,0.5-0.7,0.2-1.1
		c-0.2-0.4-0.7-0.5-1.1-0.2L19.3,28.4l-17-3.8c-0.3-0.3-0.8-1-0.8-1.9c0-0.6,0.3-1.2,0.9-1.8L19.3,24.7z"/>
</g>
</svg>
