<?xml version="1.0" encoding="utf-8"?>
<!-- Generator: Adobe Illustrator 19.0.0, SVG Export Plug-In . SVG Version: 6.00 Build 0)  -->
<svg version="1.1" id="Layer_1" xmlns="http://www.w3.org/2000/svg" xmlns:xlink="http://www.w3.org/1999/xlink" x="0px" y="0px"
	 viewBox="0 0 28.3 30" style="enable-background:new 0 0 28.3 30;" xml:space="preserve">
<style type="text/css">
	.{{$ctrl.id}}{fill:{{$ctrl.fill}};}
</style>
<g>
	<path ng-class="{ '{{$ctrl.id}}': true}" d="M16,25.7c0.7-0.1,1.1-0.3,1.1-0.3l10.7-12.8l0-2.7c0,0,0-1.2-1-1.2c-1.2,0-1.2,1.1-1.2,1.1v2.5l-9.9,11.3
		l-3.3-1v2.2C14.3,25.3,15.8,25.7,16,25.7z"/>
	<path ng-class="{ '{{$ctrl.id}}': true}" d="M3.8,15l11.9,3.3c0.7-0.2,0.7-0.3,0.7-0.3L28.1,4.6c0.6-1.3-0.3-1.4-0.3-1.4L13.9,0H13L1.6,12.7
		C0.1,14.6,0,16.8,0,16.8c-0.2,3.3,2.1,4.9,2.1,4.9S3,22,4.4,22.4v-2.1l-1-0.3c0,0-1.4-0.6-1.3-2.7C2.2,15.2,3.8,15,3.8,15z"/>
	<path ng-class="{ '{{$ctrl.id}}': true}" d="M10.2,19.2l-3.6-1c-0.8,0-1.4,0.6-1.4,1.3v1.1v2.1v6.2l3.1-2l3.1,3.1v-5.5v-2.2v-1.7
		C11.5,19.9,10.9,19.4,10.2,19.2z"/>
</g>
</svg>
