<?xml version="1.0" encoding="utf-8"?>
<!-- Generator: Adobe Illustrator 19.0.0, SVG Export Plug-In . SVG Version: 6.00 Build 0)  -->
<svg version="1.1" id="Layer_1" xmlns="http://www.w3.org/2000/svg" xmlns:xlink="http://www.w3.org/1999/xlink" x="0px" y="0px"
	 viewBox="0 0 36.3 30" style="enable-background:new 0 0 36.3 30;" xml:space="preserve">
<style type="text/css">
	.{{$ctrl.id}}{fill:{{$ctrl.fill}};}
</style>
<g>
	<path ng-class="{ '{{$ctrl.id}}': true}" d="M18.2,0C8.1,0,0,6.7,0,15c0,8.3,8.1,15,18.2,15c1.5,0,2.9-0.1,4.3-0.4c1.2-0.2,1.6-1.4,1-2.4l-2.3-3.9
		c-1.2-2.1-0.2-3.8,2.2-3.8h9.9c1.2,0,2.5-0.9,2.7-2.1c0.1-0.8,0.2-1.6,0.2-2.4C36.3,6.7,28.2,0,18.2,0z M5.9,17.2
		c-1.7,0-3.1-1-3.1-2.2c0-1.2,1.4-2.2,3.1-2.2c1.7,0,3.1,1,3.1,2.2C9,16.2,7.6,17.2,5.9,17.2z M8.7,9.5C7.5,8.3,7.2,6.6,8.1,5.7
		c0.9-0.9,2.5-0.6,3.7,0.6c1.2,1.2,1.5,2.9,0.6,3.7C11.6,10.9,9.9,10.7,8.7,9.5z M19.5,25.3c-0.2,1.4-1.9,2.4-3.9,2.1
		c-2-0.2-3.5-1.6-3.3-3c0.2-1.4,1.9-2.4,3.9-2.1C18.2,22.5,19.6,23.8,19.5,25.3z M18.2,8.1C17,8.1,16,6.7,16,5c0-1.7,1-3.1,2.2-3.1
		c1.2,0,2.2,1.4,2.2,3.1C20.4,6.7,19.4,8.1,18.2,8.1z M23.9,10.1c-0.9-0.9-0.6-2.5,0.6-3.7c1.2-1.2,2.9-1.5,3.7-0.6
		c0.9,0.9,0.6,2.5-0.6,3.7C26.4,10.7,24.8,10.9,23.9,10.1z M30.4,17.2c-1.7,0-3.1-1-3.1-2.2c0-1.2,1.4-2.2,3.1-2.2
		c1.7,0,3.1,1,3.1,2.2C33.5,16.2,32.1,17.2,30.4,17.2z"/>
</g>
</svg>
