<?xml version="1.0" encoding="utf-8"?>
<!-- Generator: Adobe Illustrator 19.0.0, SVG Export Plug-In . SVG Version: 6.00 Build 0)  -->
<svg version="1.1" id="icons" xmlns="http://www.w3.org/2000/svg" xmlns:xlink="http://www.w3.org/1999/xlink" x="0px" y="0px"
	 viewBox="0 0 28.6 30" style="enable-background:new 0 0 28.6 30;" xml:space="preserve">
<style type="text/css">
	.{{$ctrl.id}}{fill:{{$ctrl.fill}};}
</style>
<g>
	<path ng-class="{ '{{$ctrl.id}}': true}" d="M10.2,19.4c2.6-0.4,4.8-0.3,7.4-3.5c0.9-1.1,1.7-2.6,2.5-4.2c-0.8,0.1-1.7,0.2-2.7,0.1c1.7-1,3.3-1.7,4.2-4.3
		c0.7-2.7,0.9-5.4,0-7.6c-2.7,3-6.1,3.8-9.7,5.1C11,5.5,10.1,5.9,9.3,6.4C7,8,6.8,9.6,6.2,11.5c-0.3-0.8-0.5-1.6-0.6-2.3
		C2,12.9,0.3,17.9,1.1,21.1c3.3-5,7.5-9.5,14.4-12.6C9,13.3,2.5,21.8,0.1,26.3C-0.2,27,0.4,27.6,1,27.2l0,0c0.8-0.5,3.2-3.8,3.5-4.2
		c2.8-0.5,5.4-1.3,7.7-2.7C11.6,20.2,10.9,19.8,10.2,19.4z"/>
	<path ng-class="{ '{{$ctrl.id}}': true}" d="M28.6,25.1c-0.1-0.4-0.5-0.5-0.9-0.4c-0.4,0.1-4.2,2.1-5.4,2.5c-0.4,0.2-0.7,0.1-1.5-0.7
		c-0.6-0.6-1.5-1.5-2.7-1.4c-1.4,0.1-2.8,0.9-4,1.6c-0.6,0.3-1.2,0.7-1.6,0.8c-0.5,0.2-0.8,0-1.5-0.7c-0.8-0.8-1.9-2-3.7-1.2
		c-1.1,0.4-4.6,2.7-5,3c-0.4,0.3-0.6,0.6-0.4,1C1.9,30,2.2,30.1,2.7,30s4.2-2.1,5.4-2.5c0.4-0.2,0.7-0.1,1.5,0.8
		c0.7,0.7,1.9,1.8,3.7,1.2c0.6-0.2,1.2-0.6,1.9-1c1.1-0.6,2.3-1.3,3.2-1.3c0.3,0,0.6,0.3,1.1,0.8c0.8,0.8,1.9,2,3.7,1.2
		c1.1-0.4,4.6-2.7,5-3C28.5,25.8,28.7,25.5,28.6,25.1z"/>
</g>
</svg>
