<?xml version="1.0" encoding="utf-8"?>
<!-- Generator: Adobe Illustrator 19.0.0, SVG Export Plug-In . SVG Version: 6.00 Build 0)  -->
<svg version="1.1" id="Layer_1" xmlns="http://www.w3.org/2000/svg" xmlns:xlink="http://www.w3.org/1999/xlink" x="0px" y="0px"
	 viewBox="0 0 23.5 30" style="enable-background:new 0 0 23.5 30;" xml:space="preserve">
<style type="text/css">
	.{{$ctrl.id}}{fill:{{$ctrl.fill}};}
</style>
<g>
	<rect x="7.1" y="8.1" ng-class="{ '{{$ctrl.id}}': true}" width="0.5" height="17.7"/>
	<rect x="8.9" y="8.1" ng-class="{ '{{$ctrl.id}}': true}" width="0.5" height="17.7"/>
	<rect x="10.6" y="8.1" ng-class="{ '{{$ctrl.id}}': true}" width="0.5" height="17.7"/>
	<rect x="12.4" y="8.1" ng-class="{ '{{$ctrl.id}}': true}" width="0.5" height="17.7"/>
	<rect x="14.1" y="8.1" ng-class="{ '{{$ctrl.id}}': true}" width="0.5" height="17.7"/>
	<rect x="15.9" y="8.1" ng-class="{ '{{$ctrl.id}}': true}" width="0.5" height="17.7"/>
	<rect x="3.6" y="7.2" ng-class="{ '{{$ctrl.id}}': true}" width="16.3" height="1.7"/>
	<path ng-class="{ '{{$ctrl.id}}': true}" d="M22.2,12.1c-0.9-3.5-2.2-6.4-2.8-7.8h-1.6c0.4,0.7,1.6,4.1,2.6,8.2c0.9,3.5,1.3,6.3-0.4,9.7
		c-1.2,2.3-3.2,3-6.4,3.2c-1.2,0.1-2.5,0.1-3.8,0c-3.2-0.2-5.2-0.9-6.4-3.2c-1.7-3.4-1.3-6.2-0.4-9.7c1.1-4.1,2.2-7.4,2.6-8.2H4.1
		c-0.7,1.4-1.9,4.3-2.8,7.8c-1.4,5.4-1.3,9.7,0.2,12.8c1.4,2.7,4.5,4.8,8.2,5.1c1.3,0.1,2.7,0.1,4,0c3.7-0.3,6.8-2.3,8.2-5.1
		C23.5,21.9,23.6,17.6,22.2,12.1z"/>
	<path ng-class="{ '{{$ctrl.id}}': true}" d="M3,0C1.3,0,0,1.3,0,3c0,1.7,1.3,3,3,3c1.7,0,3-1.3,3-3C6,1.3,4.7,0,3,0z M3,4.3C2.3,4.3,1.7,3.7,1.7,3
		c0-0.7,0.6-1.3,1.3-1.3c0.7,0,1.3,0.6,1.3,1.3C4.3,3.7,3.7,4.3,3,4.3z"/>
	<path ng-class="{ '{{$ctrl.id}}': true}" d="M20.5,0c-1.7,0-3,1.3-3,3c0,1.7,1.3,3,3,3c1.7,0,3-1.3,3-3C23.5,1.3,22.2,0,20.5,0z M20.5,4.3
		c-0.7,0-1.3-0.6-1.3-1.3c0-0.7,0.6-1.3,1.3-1.3c0.7,0,1.3,0.6,1.3,1.3C21.8,3.7,21.2,4.3,20.5,4.3z"/>
</g>
</svg>
