<?xml version="1.0" encoding="utf-8"?>
<!-- Generator: Adobe Illustrator 19.0.0, SVG Export Plug-In . SVG Version: 6.00 Build 0)  -->
<svg version="1.1" id="Layer_1" xmlns="http://www.w3.org/2000/svg" xmlns:xlink="http://www.w3.org/1999/xlink" x="0px" y="0px"
	 viewBox="0 0 22.7 30" style="enable-background:new 0 0 22.7 30;" xml:space="preserve">
<style type="text/css">
	.{{$ctrl.id}}{fill:{{$ctrl.fill}};}
</style>
<g>
	<path ng-class="{ '{{$ctrl.id}}': true}" d="M4.8,15.2c0.2,2.5,2.4,1.9,1.6,4.6l-0.8,1v3.3h1.1v-0.8c0.1-1.9,1.4-2.8,1.4-2.8s1.5,1.9,1.5,3.6h1
		c0-2.5-1.4-4.8-1.4-4.8c1.5-0.9,1.6-2.1,1.6-2.1c2.8-0.4,4.4-1.1,5.7-2.9c0.8,4,3.5,6,3.5,6l1.3-0.6c-3.7-3.4-3.2-5.5-3.2-5.5
		c5.1-4,1.6,1.7,1.6,1.7l1.3,0.8c3.9-7.3-1.8-5.1-1.8-5.1c0.6-4.6-4.1-3.4-2.7-7.1c1.1,1.9,1.9,1.2,1.8,2.6c0,0.6,2.3,0.2,1.7-1.2
		c-0.6-1.2-0.5-2.3-0.2-3c0.2-0.4,1.6-0.8,0.7-1.6c-4-3.7-9.8-0.3-7.8,8.5c-1,2.2-6-0.7-8,4.2c0,0-4,1-3.3,5.8
		c0.1,1,2.8-0.6,3.2-0.8C3.5,16.9,4.1,15.5,4.8,15.2z"/>
	<path ng-class="{ '{{$ctrl.id}}': true}" d="M14,27.1v-0.7c0-1-0.8-1.8-1.8-1.8H4.7c-1,0-1.8,0.8-1.8,1.8v0.7H14z"/>
	<rect y="27.5" ng-class="{ '{{$ctrl.id}}': true}" width="16.8" height="2.5"/>
</g>
</svg>
