<?xml version="1.0" encoding="utf-8"?>
<!-- Generator: Adobe Illustrator 19.0.0, SVG Export Plug-In . SVG Version: 6.00 Build 0)  -->
<svg version="1.1" id="Shapes" xmlns="http://www.w3.org/2000/svg" xmlns:xlink="http://www.w3.org/1999/xlink" x="0px" y="0px"
	 viewBox="0 0 19.6 30" style="enable-background:new 0 0 19.6 30;" xml:space="preserve">
<style type="text/css">
	.{{$ctrl.id}}{fill:{{$ctrl.fill}};}
</style>
<g>
	<path ng-class="{ '{{$ctrl.id}}': true}" d="M11.8,0H8.1C7.6,0,7.2,0.4,7.2,0.9v0.7H3.1C1.4,1.6,0,3,0,4.7v22.2C0,28.6,1.4,30,3.1,30h13.4
		c1.7,0,3.1-1.4,3.1-3.1V4.7c0-1.7-1.4-3.1-3.1-3.1h-3.8V0.9C12.7,0.4,12.3,0,11.8,0z M17.8,4.7v22.2c0,0.2-0.1,0.4-0.2,0.6
		c-0.4-2.8-0.7-5-1.1-5.6c-0.9-1.5-5.1,0.3-6.3,1.1c-2.7,1.7-4.7,1.1-4.7-0.4c0-0.5,0.2-1.1,0.3-1.5c0.2-0.5-0.2-0.5-0.5-0.2
		c-1.5,1.4-2.6,3.3-3.4,5.4V4.7c0-0.7,0.6-1.2,1.2-1.2h13.4C17.2,3.5,17.8,4,17.8,4.7z"/>
	<path ng-class="{ '{{$ctrl.id}}': true}" d="M14.7,11.6c-0.1-1.7-0.8-5.3-5-5.2c-4.3,0-5.1,3-5.2,4.7c-0.1,1.6-0.7,5,0.6,7.8c0.1,0.3,0.6,1.1,1.1,1.1
		c0.8,0.1,1-1,1.1-1.5c0.1-0.7,0-1.4-0.2-2.1c-0.1-0.4-0.3-0.8-0.4-1.1C6,13.6,5.3,12,5.5,10.2c0.1-0.6,0.3-1.4,0.9-1.8
		c1-0.7,2.4-0.2,3.1,0.5c2.5,2.3,1.8,5.3,1.9,8.1c0,1.1,0.2,2.4,1.1,3.3c1.8,1.7,6-0.4,3.9-2.3C15,16.8,14.7,13.4,14.7,11.6z"/>
</g>
</svg>
