<?xml version="1.0" encoding="utf-8"?>
<!-- Generator: Adobe Illustrator 19.0.0, SVG Export Plug-In . SVG Version: 6.00 Build 0)  -->
<svg version="1.1" id="Layer_1" xmlns="http://www.w3.org/2000/svg" xmlns:xlink="http://www.w3.org/1999/xlink" x="0px" y="0px"
	 viewBox="0 0 18.8 30" style="enable-background:new 0 0 18.8 30;" xml:space="preserve">
<style type="text/css">
	.{{$ctrl.id}}{fill:{{$ctrl.fill}};}
</style>
<g>
	<g>
		<g>
			<g>
				<polygon ng-class="{ '{{$ctrl.id}}': true}" points="2.8,30 16.1,30 16.1,26.8 2.8,26.8 				"/>
			</g>
		</g>
	</g>
	<path ng-class="{ '{{$ctrl.id}}': true}" d="M4,24.8c0-3.4-4-3.8-4-8C0,11.7,7.2,11.1,7.2,0h1.4v14C7.7,14.3,7,15.2,7,16.3c0,1.3,1.1,2.4,2.4,2.4
		c1.3,0,2.4-1.1,2.4-2.4c0-1-0.7-1.9-1.6-2.3V0h1.4c0,11.1,7.2,11.7,7.2,16.8c0,4.3-4,4.6-4,8H4z"/>
</g>
</svg>
