<?xml version="1.0" encoding="utf-8"?>
<!-- Generator: Adobe Illustrator 19.0.0, SVG Export Plug-In . SVG Version: 6.00 Build 0)  -->
<svg version="1.1" id="Layer_1" xmlns="http://www.w3.org/2000/svg" xmlns:xlink="http://www.w3.org/1999/xlink" x="0px" y="0px"
	 viewBox="0 0 34.7 30" style="enable-background:new 0 0 34.7 30;" xml:space="preserve">
<style type="text/css">
	.{{$ctrl.id}}{fill:{{$ctrl.fill}};}
</style>
<g>
	<path ng-class="{ '{{$ctrl.id}}': true}" d="M14.4,5.2c0,0.4-0.3,0.8-0.7,0.8H6.1C5.7,6,5.4,5.6,5.4,5.2l0.4-2.4C5.8,2.4,6.1,2,6.5,2h6.8
		C13.7,2,14,2.4,14,2.8L14.4,5.2z"/>
	<path ng-class="{ '{{$ctrl.id}}': true}" d="M24.3,18.5c0.3-0.4,0.2-1-0.2-1.3l-2.2-1.6c-0.4-0.3-1-0.2-1.3,0.2l-0.3,0.5c-0.3,0.4-0.2,1,0.2,1.3l2.2,1.6
		c0.4,0.3,1,0.2,1.3-0.2L24.3,18.5z"/>
	<g>
		<path ng-class="{ '{{$ctrl.id}}': true}" d="M18.2,23.3c0.5,0.4,0.6,1.1,0.2,1.7c-0.3,0.4-0.8,0.6-1.2,0.6L14.1,30c0,0,2.2-1.5,3.9-2.3
			c1.7-0.8,4-1.7,4-1.7s-0.1-0.6,0.1-2.5c0.2-2,0.7-3.5,0.7-3.5l-3.2-2.2c0,0-1.2,1-3,1.9c-1.7,0.9-2.3,1-2.3,1s0,2.5-0.2,4.3
			c-0.2,1.8-0.8,4.4-0.8,4.4l3.1-4.5c-0.2-0.4-0.2-0.9,0.1-1.3C16.9,23.1,17.7,22.9,18.2,23.3z"/>
		<path ng-class="{ '{{$ctrl.id}}': true}" d="M27.7,5.9c-4.4,6.2-7.1,11.8-6.1,12.5c1,0.7,5.3-3.8,9.7-9.9C35.6,2.2,35,1,34,0.3C33-0.4,32.1-0.3,27.7,5.9z
			"/>
		<path ng-class="{ '{{$ctrl.id}}': true}" d="M24.1,18.4c0.3-0.4,0.2-0.9-0.2-1.1l-2-1.4c-0.4-0.3-0.9-0.2-1.1,0.2l-0.3,0.4c-0.3,0.4-0.2,0.9,0.2,1.1
			l2,1.4c0.4,0.3,0.9,0.2,1.1-0.2L24.1,18.4z"/>
	</g>
	<g>
		<path ng-class="{ '{{$ctrl.id}}': true}" d="M13.6,20.1c0,0,0.7-0.1,2.7-1.1c0.9-0.5,1.7-1,2.3-1.4l1.1-6.1c0,0,0,0,0,0c-3,0-5.4-1.6-5.4-4.6c0,0,0,0,0,0
			h-9c0,0,0,0,0,0c0,3-2.4,4.6-5.4,4.6c0,0,0,0-0.1,0l1.7,8.6c0,1.6,1.1,2.9,2.5,2.9h9.4C13.6,21.4,13.6,20.1,13.6,20.1z"/>
	</g>
</g>
</svg>
