<?xml version="1.0" encoding="utf-8"?>
<!-- Generator: Adobe Illustrator 19.0.0, SVG Export Plug-In . SVG Version: 6.00 Build 0)  -->
<svg version="1.1" id="Ñëîé_2" xmlns="http://www.w3.org/2000/svg" xmlns:xlink="http://www.w3.org/1999/xlink" x="0px" y="0px"
	 viewBox="0 0 31 30" style="enable-background:new 0 0 31 30;" xml:space="preserve">
<style type="text/css">
	.st0{fill:{{$ctrl.fill}};}
</style>

<g>
	<g>
		<path ng-class="{ '{{$ctrl.id}}': true}" d="M8.2,22.2l-0.5,0.5l0,0C7.9,22.6,8,22.4,8.2,22.2z"/>
		<path ng-class="{ '{{$ctrl.id}}': true}" d="M2.6,27.5c0,0,0.1-0.1,0.4-0.3c0,0,0-0.1,0-0.1L2.6,27.5z"/>
		<g>
			<path ng-class="{ '{{$ctrl.id}}': true}" d="M10.1,25.8c0.1-0.3,0.3-1.1,0.5-1.8l-3.5-3.5c-0.5,0.1-1.4,0.3-2.7,0.7c-1.2,0.6-2.4,1.6-2.4,3.8
				c0,4.3-2.1,4.5-2.1,4.5S7.8,32.1,10.1,25.8z M3,27.2c0,0,0-0.1,0-0.1c0.1-0.6,0.2-1.4,0.2-2.2c0-1.3,0.5-2.2,1.6-2.7
				c0.8-0.2,1.4-0.4,1.9-0.5l0.9,0.9l0,0C5.4,25.3,3.7,26.7,3,27.2z"/>
		</g>
	</g>
	<polygon ng-class="{ '{{$ctrl.id}}': true}" points="11.5,22.3 8.7,19.5 7.5,20 11,23.5 	"/>
	<path ng-class="{ '{{$ctrl.id}}': true}" d="M30.2,3.6c0,0-1.6,4.9-7.5,10.6c-5.7,5.9-10.6,7.5-10.6,7.5l-2.8-2.8c0,0,1.6-4.9,7.5-10.6
		c5.7-5.9,10.6-7.5,10.6-7.5L30.2,3.6z"/>
	<polygon ng-class="{ '{{$ctrl.id}}': true}" points="31,1.8 29.2,0 27.9,0.4 30.6,3.1 	"/>
</g>
</svg>
