<?xml version="1.0" encoding="utf-8"?>
<!-- Generator: Adobe Illustrator 19.0.0, SVG Export Plug-In . SVG Version: 6.00 Build 0)  -->
<svg version="1.1" id="Vrstva_1" xmlns="http://www.w3.org/2000/svg" xmlns:xlink="http://www.w3.org/1999/xlink" x="0px" y="0px"
	 viewBox="0 0 16.7 30" style="enable-background:new 0 0 16.7 30;" xml:space="preserve">
<style type="text/css">
	.{{$ctrl.id}}{fill:{{$ctrl.fill}};}
</style>
<g>
	<path ng-class="{ '{{$ctrl.id}}': true}" d="M2.6,0.9H14c0.2-0.2,0.4-0.4,0.4-0.4C14.7,0.2,14.6,0,14.1,0H8.3h0H2.5C2.1,0,2,0.2,2.3,0.5
		C2.3,0.5,2.4,0.7,2.6,0.9z"/>
	<path ng-class="{ '{{$ctrl.id}}': true}" d="M14,27h-1.1h-9H2.7c-0.4,0-0.8,0.3-0.8,0.8v1.4c0,0.4,0.4,0.8,0.8,0.8H14c0.4,0,0.8-0.4,0.8-0.8v-1.4
		C14.8,27.4,14.4,27,14,27z"/>
	<path ng-class="{ '{{$ctrl.id}}': true}" d="M16.7,18.6c0-0.1,0-0.1,0-0.2c0-0.1,0-0.1,0-0.2c0,0,0,0,0,0c0-0.1,0-0.1,0-0.2c0-0.2,0-0.4,0-0.6h0
		c0,0,0,0,0,0c-0.1-1-0.3-2-0.6-2.9c0,0,0,0,0,0c-0.7-2.1-1.9-3.6-3.2-5.7c-1.7-2.7-0.6-5.2,0.4-6.7H3.4c1,1.5,2.1,4.1,0.4,6.7
		c-1.2,2-2.4,3.4-3.1,5.4C0.3,15.3,0,16.7,0,18.2c0,0,0,0,0,0l0,0c0,0.1,0,0.1,0,0.2c0,0.1,0,0.2,0,0.3c0,0,0,0,0,0
		c0,0.3,0,0.6,0.1,0.9c0.2,2.6,1.2,4.8,2.7,6.5h11.1c1.3-1.4,2.2-3.3,2.6-5.4c0,0,0-0.1,0-0.1c0,0,0,0,0,0c0-0.1,0-0.3,0.1-0.4l0,0
		C16.6,19.6,16.7,19.1,16.7,18.6C16.7,18.6,16.7,18.6,16.7,18.6z M9.4,5.8c0.3-0.3,0.7-0.5,1.1-0.6C10.4,5.6,10.3,6,10,6.4
		C9.8,6.7,9.4,6.9,9.3,6.7C9,6.5,9.2,6.1,9.4,5.8z M7.7,7.4c0.2-0.5,0.7-0.9,1.2-1.2c0,0.5,0,1.1-0.2,1.5C8.6,8,8.3,8.5,7.9,8.4
		C7.6,8.3,7.6,7.7,7.7,7.4z M7,7.2c0.3,0.6,0.6,1.3,0.6,1.9c0,0.4,0,1.2-0.5,1.3c-0.5,0.1-0.9-0.7-0.9-1.1C6.2,8.6,6.6,7.8,7,7.2z
		 M5.8,9.3c0.3,0.6,0.7,1.2,0.7,1.8c0,0.4,0,1.2-0.5,1.3c-0.5,0.1-0.9-0.6-0.9-1C5,10.7,5.4,9.9,5.8,9.3z M4.6,11.6
		c0.4,0.5,0.8,1.2,0.8,1.8c0.1,0.4,0.1,1.2-0.4,1.3c-0.5,0.1-0.9-0.5-1-1C3.9,13,4.3,12.2,4.6,11.6z M3.6,13.7
		c0.4,0.5,0.8,1.1,1,1.7c0.1,0.4,0.2,1.2-0.3,1.4c-0.5,0.2-1-0.5-1.1-0.9C3.1,15.2,3.4,14.4,3.6,13.7z M2.9,25c-0.1,0-0.1,0-0.2,0
		c0-1.8,0-1.7,0.4-3.3c0-0.1,0.2-0.1,0.2-0.1s0.1,0.1,0.1,0.2C2.9,23.2,2.9,23.3,2.9,25z M3.2,21.3c-0.5,0.2-1-0.3-1.2-0.8
		C1.8,19.9,2,19,2.1,18.3c0.5,0.4,1,1,1.2,1.6C3.4,20.3,3.6,21.1,3.2,21.3z M2.5,18.2c-0.2-0.7,0-1.5,0.2-2.2c0.4,0.5,0.9,1,1.1,1.7
		c0.1,0.4,0.3,1.2-0.2,1.4C3.2,19.3,2.7,18.6,2.5,18.2z M4.6,21.5c-0.3,0.2-0.8,0.3-1,0.1c-0.2-0.2,0.3-0.7,0.5-0.8
		c0.4-0.2,0.9-0.4,1.4-0.4C5.2,20.8,4.9,21.2,4.6,21.5z M5,20c-0.3,0.3-1,0.6-1.4,0.2c-0.3-0.4,0.2-1,0.5-1.3
		c0.4-0.4,1.2-0.6,1.8-0.8C5.7,18.8,5.5,19.6,5,20z M5.6,17.9c-0.3,0.3-1.1,0.5-1.4,0.1c-0.3-0.4,0.3-1,0.6-1.2
		c0.5-0.4,1.2-0.6,1.8-0.6C6.3,16.8,6.1,17.5,5.6,17.9z M6.3,15.8c-0.3,0.3-1.1,0.5-1.4,0c-0.3-0.4,0.3-1,0.6-1.2
		c0.5-0.4,1.2-0.5,1.9-0.5C7.1,14.7,6.8,15.4,6.3,15.8z M7.1,13.8c-0.4,0.2-1.1,0.4-1.4,0c-0.3-0.4,0.4-1,0.7-1.2
		c0.5-0.3,1.3-0.4,1.9-0.4C8,12.7,7.6,13.4,7.1,13.8z M8.1,11.7C7.8,11.9,7,12,6.7,11.5c-0.2-0.5,0.5-0.9,0.8-1.1
		c0.5-0.3,1.3-0.3,1.9-0.3C9.1,10.7,8.7,11.4,8.1,11.7z M9.2,9.8C8.8,10,8,10,7.8,9.5C7.7,9.1,8.4,8.7,8.7,8.5
		c0.6-0.3,1.3-0.2,1.9-0.1C10.3,8.8,9.8,9.5,9.2,9.8z M10.1,7.9C9.9,8.1,9.3,8.3,9.1,8C8.8,7.7,9.2,7.3,9.5,7
		c0.4-0.3,0.9-0.5,1.4-0.6C10.7,6.9,10.5,7.5,10.1,7.9z"/>
</g>
</svg>
