<?xml version="1.0" encoding="utf-8"?>
<!-- Generator: Adobe Illustrator 19.0.0, SVG Export Plug-In . SVG Version: 6.00 Build 0)  -->
<svg version="1.1" id="Layer_3" xmlns="http://www.w3.org/2000/svg" xmlns:xlink="http://www.w3.org/1999/xlink" x="0px" y="0px"
	 viewBox="0 0 30 30" style="enable-background:new 0 0 30 30;" xml:space="preserve">
<style type="text/css">
	.{{$ctrl.id}}{fill:{{$ctrl.fill}};}
</style>
<g>
	<path ng-class="{ '{{$ctrl.id}}': true}" d="M16.4,15.8l2.1-2c0.2,0.5,0.3,1,0.3,1.6c0,2.4-1.9,4.3-4.3,4.3c-2.4,0-4.3-1.9-4.3-4.3c0-2.4,1.9-4.3,4.3-4.3
		c0.6,0,1.1,0.1,1.7,0.3l-2,2.1c-0.9,0.1-1.5,0.9-1.5,1.8c0,1,0.8,1.9,1.9,1.9C15.5,17.3,16.2,16.6,16.4,15.8z M24.6,8.8
		c1.3,1.9,2,4.2,2,6.7c0,6.6-5.4,12-12,12c-6.6,0-12-5.4-12-12c0-6.6,5.4-12,12-12c2.5,0,4.8,0.8,6.7,2c0.1-1.1,0.3-2,0.5-2.7
		c-2.1-1.2-4.6-1.9-7.2-1.9C6.5,0.8,0,7.3,0,15.4C0,23.5,6.5,30,14.6,30c8.1,0,14.6-6.5,14.6-14.6c0-2.6-0.7-5-1.9-7.2
		C26.6,8.4,25.7,8.6,24.6,8.8z M14.6,6c-5.2,0-9.4,4.2-9.4,9.4c0,5.2,4.2,9.4,9.4,9.4s9.4-4.2,9.4-9.4c0-1.9-0.6-3.7-1.6-5.2
		L20.5,12c0.6,1,0.9,2.2,0.9,3.4c0,3.8-3.1,6.8-6.8,6.8c-3.8,0-6.8-3.1-6.8-6.8c0-3.8,3.1-6.8,6.8-6.8c1.3,0,2.5,0.4,3.5,1l1.8-1.9
		C18.4,6.6,16.6,6,14.6,6z M29.8,0.2C29.6,0,29.3,0,29.3,0l-2.5,2.3c-0.2-1.4-1.2-2.5-2.6-2c-1.4,0.5-1.9,4.9-2.1,6.3l-7.6,8.2
		l-0.2,0.9l0.9-0.1l8.2-7.6c1.5-0.1,5.9-0.7,6.3-2.1c0.5-1.4-0.6-2.4-2-2.6L30,0.7C30,0.7,30.1,0.4,29.8,0.2z"/>
</g>
</svg>
