<?xml version="1.0" encoding="utf-8"?>
<!-- Generator: Adobe Illustrator 19.0.0, SVG Export Plug-In . SVG Version: 6.00 Build 0)  -->
<svg version="1.1" id="Layer_3" xmlns="http://www.w3.org/2000/svg" xmlns:xlink="http://www.w3.org/1999/xlink" x="0px" y="0px"
	 viewBox="0 0 30 30" style="enable-background:new 0 0 30 30;" xml:space="preserve">
<style type="text/css">
	.{{$ctrl.id}}{fill:{{$ctrl.fill}};}
</style>
<path ng-class="{ '{{$ctrl.id}}': true}" d="M3.4,18.4l8.2,8.2c0,0.3-0.2,0.6-0.4,0.8l-0.9,0.9C9.2,29.4,7.7,30,6.1,30c-1.6,0-3.2-0.6-4.3-1.8
	c-2.4-2.4-2.4-6.2,0-8.6l0.9-0.9C2.9,18.5,3.1,18.4,3.4,18.4z M30,11.5v3.3c0,0.6-0.4,1.1-0.9,1.3c-9.3,3.7-15.8,9.2-15.9,9.2
	c-0.2,0.2-0.5,0.3-0.8,0.3l-8-8c0-0.3,0.1-0.6,0.3-0.8c0.1-0.1,5.5-6.6,9.2-15.9C14.1,0.4,14.6,0,15.2,0h3.3C19.3,0,20,0.6,20,1.4
	l0,1.1l1.1,0c0,0,0,0,0,0c0.4,0,0.7,0.1,1,0.4c0.3,0.3,0.4,0.6,0.4,1l0,1.1l1.1,0c0,0,0,0,0,0c0.4,0,0.7,0.1,1,0.4
	c0.3,0.3,0.4,0.6,0.4,1l0,1.1l1.1,0c0.8,0,1.4,0.6,1.4,1.4l0,1.1l1.1,0C29.4,10.1,30,10.7,30,11.5z M16.6,14.4l1.5,1.6l3.2-4.7
	L16.6,14.4z M13.5,17.3l1.6,1.6l2.1-2l-1.7-1.7L13.5,17.3z M14.8,14.5l-1.7-1.7l0,0l-2,2.1l1.6,1.6L14.8,14.5z M14.1,11.9l1.6,1.5
	l3.1-4.7L14.1,11.9z M12.1,10.4l1,0.8L15.8,7L12.1,10.4z M9.7,13.7l0.6,0.5l1.9-2.1l-1-0.8L9.7,13.7z M7.3,17.7l2.3-2.5l0,0
	l-0.5-0.4L7.3,17.7z M9.8,19.5l2.1-2.1l-1.6-1.6l-2,2.2L9.8,19.5z M12,21.7l2.2-2l-1.6-1.6l-2.1,2.1L12,21.7z M15.3,20.9l-0.4-0.5
	l0,0l-2.5,2.3L15.3,20.9z M18.7,18.8l-0.8-1l-2.1,1.9l0.5,0.6L18.7,18.8z M23,14.2L18.9,17l0.8,1L23,14.2z"/>
</svg>
