<?xml version="1.0" encoding="utf-8"?>
<!-- Generator: Adobe Illustrator 19.0.0, SVG Export Plug-In . SVG Version: 6.00 Build 0)  -->
<svg version="1.1" id="Layer_3" xmlns="http://www.w3.org/2000/svg" xmlns:xlink="http://www.w3.org/1999/xlink" x="0px" y="0px"
	 viewBox="0 0 30 30" style="enable-background:new 0 0 30 30;" xml:space="preserve">
<style type="text/css">
	.{{$ctrl.id}}{fill:{{$ctrl.fill}};}
</style>
<path ng-class="{ '{{$ctrl.id}}': true}" d="M15,0C6.7,0,0,6.7,0,15c0,8.3,6.7,15,15,15c8.3,0,15-6.7,15-15C30,6.7,23.3,0,15,0z M22.7,4.5
	c0-0.2,0.5,0.1,0.5,0.1c0.1,0.1,0.3,0.2,0.3,0.4c0,0.2,0,0.4,0,0.6c0,0,0,0,0,0c-0.1,0.1-0.8-0.2-0.8-0.6
	C22.6,4.9,22.7,4.7,22.7,4.5z M22,6.9c0.1-0.3,0.2-0.5,0.3-0.8c0.1-0.3,0.6,0.1,0.6,0.1c0.1,0.1,0.3,0.3,0.2,0.5
	C23,7,22.9,7.2,22.8,7.5c0,0,0,0.1-0.1,0.1C22.5,7.7,21.9,7.3,22,6.9z M20.7,9.2c0.2-0.3,0.4-0.6,0.6-0.9c0.3-0.3,0.6,0,0.6,0.1
	C22,8.5,22.1,8.7,22,8.9c-0.2,0.3-0.4,0.6-0.6,0.9c-0.1,0.1-0.1,0.1-0.2,0.1C20.9,10.1,20.5,9.7,20.7,9.2z M18.7,12
	c0.2-0.3,0.5-0.6,0.7-0.9c0-0.1,0.1-0.1,0.1-0.2c0.4-0.4,0.7,0,0.7,0c0.1,0.1,0.2,0.3,0,0.6c0,0.1-0.1,0.1-0.1,0.2
	c-0.2,0.3-0.5,0.6-0.7,0.9c-0.1,0.1-0.1,0.1-0.2,0.1C18.8,12.8,18.4,12.4,18.7,12z M16.3,14.7c0.3-0.3,0.6-0.7,0.9-1
	c0.4-0.4,0.7,0.1,0.7,0.1c0.1,0.1,0.2,0.3,0,0.6c-0.3,0.3-0.6,0.7-0.9,1c-0.1,0-0.1,0.1-0.2,0.1C16.4,15.6,16,15.1,16.3,14.7z
	 M13.7,17.2c0.3-0.3,0.7-0.6,1-0.9c0.4-0.3,0.7,0.1,0.7,0.1c0.1,0.1,0.2,0.3-0.1,0.6c-0.3,0.3-0.7,0.6-1,0.9c-0.1,0-0.1,0.1-0.2,0.1
	C13.7,18.1,13.3,17.6,13.7,17.2z M11,19.4c0.3-0.2,0.7-0.5,1-0.8c0.4-0.3,0.7,0.2,0.7,0.2c0.1,0.1,0.1,0.3-0.1,0.6
	c-0.3,0.3-0.7,0.5-1,0.8c-0.1,0-0.1,0.1-0.2,0.1C11.1,20.2,10.7,19.7,11,19.4z M8.5,21.1c0.3-0.2,0.6-0.4,0.9-0.6
	c0.3-0.2,0.6,0.1,0.7,0.2c0.1,0.1,0.1,0.3-0.1,0.5c-0.3,0.2-0.6,0.4-0.9,0.6c-0.1,0-0.1,0.1-0.2,0C8.5,21.9,8.2,21.4,8.5,21.1z
	 M6.3,22.2c0.3-0.1,0.5-0.2,0.8-0.3c0.3-0.1,0.5,0.2,0.6,0.3c0.1,0.1,0.1,0.3,0,0.4c-0.3,0.1-0.6,0.2-0.8,0.3c0,0-0.1,0-0.1,0
	C6.4,23,6,22.4,6.3,22.2z M4.5,22.6c0.2,0,0.4,0,0.6-0.1c0.3,0,0.5,0.4,0.5,0.4c0.1,0.1,0.1,0.3,0,0.4c-0.2,0-0.4,0.1-0.6,0.1
	c0,0-0.1,0-0.1,0C4.7,23.2,4.3,22.7,4.5,22.6z M9,26.6c-0.2,0-0.4,0.1-0.6,0.1c-0.2,0-0.8-0.4-0.8-0.5c0,0,0,0,0,0
	c0.2,0,0.4,0,0.6-0.1c0.3,0,0.6,0.2,0.7,0.3C9.1,26.5,9.1,26.6,9,26.6z M11,25.9c-0.3,0.1-0.5,0.2-0.8,0.3c-0.1,0-0.1,0-0.3,0
	c-0.3-0.1-0.7-0.4-0.4-0.5c0.3-0.1,0.5-0.2,0.8-0.3c0.3-0.1,0.6,0.1,0.7,0.2C11.2,25.7,11.2,25.8,11,25.9z M13.4,24.6
	c-0.3,0.2-0.6,0.4-0.9,0.6c-0.1,0-0.2,0.1-0.3,0c-0.3,0-0.7-0.4-0.4-0.6c0.3-0.2,0.6-0.4,0.9-0.6c0.4-0.2,0.7,0,0.7,0.1
	C13.5,24.2,13.6,24.4,13.4,24.6z M16,22.6c-0.3,0.3-0.7,0.5-1,0.8c-0.1,0.1-0.2,0.1-0.3,0.1c-0.3,0-0.7-0.3-0.3-0.7
	c0.3-0.3,0.7-0.5,1-0.8c0.4-0.2,0.7,0,0.7,0.1C16.2,22.3,16.2,22.4,16,22.6z M18.7,20.3c-0.3,0.3-0.7,0.6-1,0.9
	c-0.1,0.1-0.2,0.1-0.3,0.1c-0.3,0-0.7-0.3-0.3-0.7c0.3-0.3,0.7-0.6,1-0.9c0.4-0.3,0.6,0,0.7,0.1C18.8,19.8,18.9,20.1,18.7,20.3z
	 M21.2,17.7c-0.3,0.3-0.6,0.7-0.9,1c-0.1,0.1-0.2,0.1-0.3,0.1c-0.3,0-0.6-0.3-0.3-0.8c0.3-0.3,0.6-0.7,1-1c0.3-0.3,0.6-0.1,0.7,0
	C21.3,17.2,21.4,17.4,21.2,17.7z M7.9,25.1c-1,0.3-1.7,0.2-2.1-0.2l-0.4-0.4L4.8,24c0.4,0.4,1.1,0.5,2.2,0.2c3.7-1,10-6.2,14.1-11.6
	c2.9-3.8,3.9-6.7,3-7.7c0.3,0.3,0.7,0.6,1,1c0.8,1.1-0.3,3.9-3.1,7.7C17.8,18.9,11.5,24.1,7.9,25.1z M23.5,14.9
	c0,0.1-0.1,0.1-0.1,0.2c-0.2,0.3-0.5,0.6-0.7,0.9c-0.1,0.1-0.1,0.1-0.2,0.1c-0.3,0.1-0.7-0.4-0.4-0.8c0.2-0.3,0.5-0.6,0.7-0.9
	c0-0.1,0.1-0.1,0.1-0.2c0.3-0.4,0.6,0.1,0.6,0.1C23.6,14.4,23.7,14.6,23.5,14.9z M25.3,12.3c-0.2,0.3-0.4,0.6-0.6,0.9
	c-0.1,0.1-0.1,0.1-0.2,0.1c-0.3,0.1-0.6-0.4-0.4-0.8c0.2-0.3,0.4-0.6,0.6-0.9c0.2-0.3,0.4,0,0.5,0.1C25.3,11.8,25.4,12,25.3,12.3z
	 M26.3,10.1c-0.1,0.2-0.2,0.5-0.3,0.8c0,0,0,0.1-0.1,0.1c-0.2,0.1-0.6-0.4-0.5-0.8c0.1-0.3,0.2-0.5,0.3-0.8c0.1-0.2,0.4,0.2,0.4,0.2
	C26.3,9.7,26.4,9.9,26.3,10.1z M26.6,9c-0.1,0.1-0.5-0.4-0.5-0.8c0-0.2,0-0.4,0-0.6c0,0,0,0,0,0c0,0,0,0,0,0c0.1,0,0.2,0.2,0.3,0.3
	c0.1,0.1,0.2,0.3,0.2,0.5C26.7,8.6,26.7,8.8,26.6,9C26.6,9,26.6,9,26.6,9z"/>
</svg>
