<?xml version="1.0" encoding="utf-8"?>
<!-- Generator: Adobe Illustrator 19.0.0, SVG Export Plug-In . SVG Version: 6.00 Build 0)  -->
<svg version="1.1" id="Layer_3" xmlns="http://www.w3.org/2000/svg" xmlns:xlink="http://www.w3.org/1999/xlink" x="0px" y="0px"
	 viewBox="0 0 30 30" style="enable-background:new 0 0 30 30;" xml:space="preserve">
<style type="text/css">
	.{{$ctrl.id}}{fill:{{$ctrl.fill}};}
</style>
<path ng-class="{ '{{$ctrl.id}}': true}" d="M15,0C6.7,0,0,6.7,0,15c0,8.3,6.7,15,15,15c8.3,0,15-6.7,15-15C30,6.7,23.3,0,15,0z M1.7,12
	c0.2-0.8,0.4-1.6,0.7-2.3c0.1,0.1,0.1,0.1,0.1,0.2c0,0,0.1,0.4,0.4,1.1c0.2,0.4-0.1,0.9-0.5,1.1c-0.1,0-0.2,0.1-0.3,0.1
	C2,12.1,1.9,12,1.7,12z M3.1,16.2c-0.3-0.7-0.5-1.4-0.8-2.1c-0.2-0.4,0.1-0.9,0.5-1.1c0.4-0.2,0.9,0.1,1.1,0.5
	c0.2,0.7,0.5,1.4,0.8,2.1c0.2,0.4-0.1,0.9-0.5,1.1c-0.1,0-0.2,0.1-0.3,0.1C3.5,16.8,3.2,16.6,3.1,16.2z M4.9,21
	c-0.3-0.6-0.5-1.2-0.8-1.9l-0.1-0.2c-0.2-0.4,0.1-0.9,0.5-1.1c0.4-0.2,0.9,0.1,1.1,0.5l0.1,0.2c0.2,0.6,0.5,1.2,0.7,1.8
	c0.2,0.4,0,0.9-0.5,1.1c-0.1,0-0.2,0.1-0.3,0.1C5.4,21.5,5,21.3,4.9,21z M8.4,25.8C8.2,25.9,8.1,26,7.9,26c-0.3,0-0.6-0.2-0.7-0.4
	c-0.4-0.6-0.7-1.3-1.1-2c-0.2-0.4,0-0.9,0.4-1.2c0.4-0.2,0.9,0,1.2,0.4c0.3,0.7,0.7,1.3,1,1.9C8.9,25.1,8.8,25.6,8.4,25.8z
	 M8.7,27.1c0.1-0.1,0.1-0.2,0.3-0.3c0.4-0.3,0.9-0.2,1.2,0.2c0.2,0.3,0.5,0.6,0.7,0.8c0.1,0.1,0.1,0.2,0.2,0.3
	C10.2,27.8,9.4,27.5,8.7,27.1z M11.7,2.5c0-0.3,0-0.5,0-0.8c0.6-0.1,1.2-0.2,1.8-0.3c0,0,0,0,0,0c-0.1,0.3-0.1,0.6-0.1,0.9
	c0,0.5-0.3,0.9-0.8,0.9c0,0-0.1,0-0.1,0C12.1,3.3,11.7,3,11.7,2.5z M15.4,7.1c-0.2,0.2-0.4,0.2-0.6,0.2c-0.2,0-0.5-0.1-0.6-0.3
	c-0.6-0.6-1-1.2-1.4-1.8C12.5,5,12.6,4.4,13,4.2c0.4-0.3,0.9-0.1,1.2,0.3c0.3,0.5,0.7,1,1.2,1.5C15.7,6.3,15.7,6.8,15.4,7.1z
	 M19.1,10c-0.2,0.2-0.4,0.4-0.7,0.4c-0.2,0-0.4-0.1-0.5-0.2C17.6,10,17.3,9.8,17,9.6c-0.3-0.2-0.5-0.4-0.8-0.6
	c-0.4-0.3-0.4-0.8-0.1-1.2c0.3-0.4,0.8-0.4,1.2-0.1C17.5,7.8,17.7,8,18,8.2c0.3,0.2,0.6,0.4,0.9,0.6C19.2,9.1,19.3,9.7,19.1,10z
	 M22.9,12.7c-0.2,0.2-0.4,0.4-0.7,0.4c-0.2,0-0.3,0-0.5-0.2c-0.6-0.4-1.1-0.8-1.7-1.2c-0.4-0.3-0.5-0.8-0.2-1.2
	c0.3-0.4,0.8-0.5,1.2-0.2c0.6,0.4,1.2,0.8,1.7,1.2C23.1,11.8,23.2,12.3,22.9,12.7z M26.7,15.5c-0.2,0.2-0.4,0.3-0.7,0.3
	c-0.2,0-0.4-0.1-0.5-0.2c-0.5-0.4-1-0.7-1.7-1.2c-0.4-0.3-0.5-0.8-0.2-1.2c0.3-0.4,0.8-0.5,1.2-0.2c0.7,0.5,1.2,0.9,1.7,1.3
	C26.9,14.6,27,15.1,26.7,15.5z M28,18c-0.2-0.2-0.4-0.5-0.6-0.8c-0.3-0.3-0.3-0.9,0-1.2c0.3-0.3,0.9-0.3,1.2,0
	c-0.1,0.8-0.2,1.5-0.4,2.2C28.1,18.2,28.1,18.1,28,18z"/>
</svg>
