<?xml version="1.0" encoding="utf-8"?>
<!-- Generator: Adobe Illustrator 19.0.0, SVG Export Plug-In . SVG Version: 6.00 Build 0)  -->
<svg version="1.1" id="Layer_3" xmlns="http://www.w3.org/2000/svg" xmlns:xlink="http://www.w3.org/1999/xlink" x="0px" y="0px"
	 viewBox="0 0 30 30" style="enable-background:new 0 0 30 30;" xml:space="preserve">
<style type="text/css">
	.{{$ctrl.id}}{fill:{{$ctrl.fill}};}
</style>
<path ng-class="{ '{{$ctrl.id}}': true}" d="M15,0C6.7,0,0,6.7,0,15c0,8.3,6.7,15,15,15c8.3,0,15-6.7,15-15C30,6.7,23.3,0,15,0z M25.5,12.3
	c1.7,4.2,2.4,6.8,1.3,10.3l-0.4,0.2c1.5-4.5-0.7-7.7-2.2-12c0-0.1,0-0.2-0.1-0.2c-0.4-0.1-0.9-0.1-1.3-0.2c1.4,7.2-1.2,15.7-5.4,18
	l-0.8,0.2c4.3-2.9,6.3-11.3,5-18.3c-0.5,0-1.1,0-1.7,0c0.7,4.1-5,12.1-14,15L5.5,25c5.6-1.3,13.4-9.4,13-14.6
	c-7.3,0.4-15.8,3.2-17.3,6.3l-0.2-0.9c1.9-3.1,10.2-5.9,17.2-6.4c-1.2-3.8-7.1-6.7-13.6-3.8L5.2,5c3.9-2,12.6-1.8,14.5,4.3
	c0.6,0,1.2,0,1.7,0c-0.8-3.3-2.4-6.3-5-8l0.7,0c2.8,1.8,4.5,4.8,5.3,8c0.4,0,0.9,0.1,1.3,0.2c-0.6-3.1,0.7-5.2,0.7-5.2l0.4,0.5
	c0,0-0.6,2-0.1,4.9c1.6,0.4,2.9,1,3.7,2l0.2,1.1c-0.7-1-2-1.6-3.7-2C25.1,11.3,25.3,11.8,25.5,12.3z"/>
</svg>
