<?xml version="1.0" encoding="utf-8"?>
<!-- Generator: Adobe Illustrator 19.0.0, SVG Export Plug-In . SVG Version: 6.00 Build 0)  -->
<svg version="1.1" id="Layer_1" xmlns="http://www.w3.org/2000/svg" xmlns:xlink="http://www.w3.org/1999/xlink" x="0px" y="0px"
	 viewBox="0 0 35.7 30" style="enable-background:new 0 0 35.7 30;" xml:space="preserve">
<style type="text/css">
	.{{$ctrl.id}}{fill:{{$ctrl.fill}};}
</style>
<g>
	<path ng-class="{ '{{$ctrl.id}}': true}" d="M7.4,24.1l-1.5-0.9l3.2-5.3c-0.6-0.2-1.3-0.4-2-0.4c-3,0-5.4,2.4-5.4,5.4s2.4,5.4,5.4,5.4c3,0,5.4-2.4,5.4-5.4
		c0-1.6-0.7-3.1-1.9-4.1L7.4,24.1L7.4,24.1z M21,0c1.5-0.1,2.7,1.3,2.8,3c0.1,1.7-1.1,3.2-2.6,3.2c-1.5,0.1-2.7-1.3-2.8-3
		C18.4,1.5,19.6,0.1,21,0L21,0z M23.2,22.9c0,3,2.4,5.4,5.4,5.4s5.4-2.4,5.4-5.4s-2.4-5.4-5.4-5.4c-0.3,0-0.6,0-0.9,0.1
		c0.7,1.9,1.3,3.9,2,5.8L28,24c-0.7-1.9-1.3-3.9-2-5.8C24.3,19.1,23.2,20.8,23.2,22.9L23.2,22.9z M17.1,9.4L14,12.3
		c0.6,0.4,1.2,0.9,1.8,1.5c3.1,2.9,5.4,6.7,3.7,11l-2.9-0.8c1.5-3.8-2.7-7.4-5.5-9.3c-1.4-0.9-2-2.7-0.5-4.1l6.2-5.7
		c0.3,0.2,0.5,0.4,0.8,0.6c1.1,1,1.9,1.9,3.2,2.4c1.5,0.6,3,0.1,4.2-1.4L27.2,8c-1.4,1.8-2.8,2.8-4.4,3.1
		C20.7,11.6,18.7,10.7,17.1,9.4L17.1,9.4z M35.7,22.9c0,3.9-3.2,7.1-7.1,7.1c-3.9,0-7.1-3.2-7.1-7.1c0-2.8,1.6-5.3,4-6.4
		c-0.5-1.6-1.1-3.1-1.6-4.7l1.7-0.6c0.5,1.6,1.1,3.1,1.6,4.7c0.5-0.1,0.9-0.1,1.4-0.1C32.5,15.7,35.7,18.9,35.7,22.9L35.7,22.9z
		 M10,16.3l0.5-0.8l1.5,0.9l-0.5,0.8c1.7,1.3,2.7,3.3,2.7,5.6c0,3.9-3.2,7.1-7.1,7.1C3.2,30,0,26.8,0,22.9c0-3.9,3.2-7.1,7.1-7.1
		C8.2,15.7,9.1,16,10,16.3z"/>
</g>
</svg>
