<?xml version="1.0" encoding="utf-8"?>
<!-- Generator: Adobe Illustrator 19.0.0, SVG Export Plug-In . SVG Version: 6.00 Build 0)  -->
<svg version="1.1" id="Layer_3" xmlns="http://www.w3.org/2000/svg" xmlns:xlink="http://www.w3.org/1999/xlink" x="0px" y="0px"
	 viewBox="0 0 30 30" style="enable-background:new 0 0 30 30;" xml:space="preserve">
<style type="text/css">
	.{{$ctrl.id}}{fill:{{$ctrl.fill}};}
</style>
<path ng-class="{ '{{$ctrl.id}}': true}" d="M15,0C6.7,0,0,6.7,0,15c0,8.3,6.7,15,15,15c8.3,0,15-6.7,15-15C30,6.7,23.3,0,15,0z M10.6,15.5
	c-0.5,1.4-2.2,1.6-2.9,0.4c-0.7-1.3,0.2-3.1,1.8-2.8C10.7,13.5,10.9,14.7,10.6,15.5z M11,7.2c-0.7,1.2-2.3,1.5-2.6,0.4
	c-0.3-0.9,1-2.3,2.2-2.2C11.4,5.7,11.3,6.6,11,7.2z M15.1,8c-0.5,1.2-2.3,1.5-2.9,0.4c-0.5-1,0.5-2.4,1.9-2.2
	C15.2,6.4,15.3,7.4,15.1,8z"/>
</svg>
