<?xml version="1.0" encoding="utf-8"?>
<!-- Generator: Adobe Illustrator 19.0.0, SVG Export Plug-In . SVG Version: 6.00 Build 0)  -->
<svg version="1.1" id="Layer_3" xmlns="http://www.w3.org/2000/svg" xmlns:xlink="http://www.w3.org/1999/xlink" x="0px" y="0px"
	 viewBox="0 0 37.1 30" style="enable-background:new 0 0 37.1 30;" xml:space="preserve">
<style type="text/css">
	.{{$ctrl.id}}{fill:{{$ctrl.fill}};}
</style>
<path ng-class="{ '{{$ctrl.id}}': true}" d="M15.1,16.1c0.6-2.1,2.6-3.9,5.5-4.4c-4.6-2.4-5.9-6.6-5-7c0.1,1.1,2.3,4,5.3,5.6c2.9,1.5,6.3-0.1,6.7-1.7
	c0.6-2.5-1.8-5.1-3.4-6.2C22.6,1.2,19.8,0,18.4,0c-0.7,0-1.5,0.2-2.3,0.5c-2.5,1-4.5,3.3-5.4,6.5c-0.3,1.1-2,2.3-3.4,2.2
	c-0.9-0.5-2-0.4-2.6-0.3C1.4,9.3,0,10.6,0,13.1C0,15.7,1.5,23.2,2.2,25c0.9,2.4,2.9,2.4,3.6,2.5c1,0.1,3.7-0.3,4.1-0.9
	c1.1,0.2,3.2,0.2,7.1,0C15.3,23.9,14.2,19.4,15.1,16.1z M13,20.5c-0.1,0.1-0.3,0.1-0.5,0.1c-0.2,0-0.5-0.1-0.6-0.3
	c-0.6-0.8-1.3-1.5-2.1-2.1c-0.7,1.2-1.3,2.5-1.6,3.7c-0.1,0.3-0.4,0.6-0.7,0.6c-0.1,0-0.1,0-0.2,0c-0.4-0.1-0.6-0.5-0.5-0.9
	c0.4-1.3,1.1-2.8,1.8-4.2c-0.7-0.5-1.3-0.8-1.8-1c-0.2-0.1-0.3-0.2-0.5-0.2c-0.4-0.2-0.5-0.7-0.3-1c0.2-0.4,0.7-0.5,1-0.3
	c0.1,0.1,0.2,0.1,0.4,0.2c0.5,0.2,1.1,0.6,1.9,1.1c0.7-1.1,1.4-1.9,1.8-2.3c0.3-0.3,0.8-0.2,1.1,0.1c0.3,0.3,0.2,0.8-0.1,1.1
	c-0.4,0.3-0.9,1.1-1.6,2c0.9,0.7,1.7,1.5,2.5,2.5C13.5,19.8,13.4,20.2,13,20.5z M37.1,17.5c-0.2,6.5-3.2,10.5-9,12
	c-1.3,0.3-2.5,0.5-3.5,0.5c-2.7,0-4.6-0.6-6.3-3.5c-1.1-1.8-1.7-4.6-1.8-5c-0.5-2.6-0.4-6,2.6-7.7c2.3-1.3,10.4-2.6,13.1-2
	c-0.1-0.7-1.3-1-2.3-1c-0.6,0-1.2,0-1.8,0c0,0,0.1-0.1,0.1-0.1c2-2.3,0.8-4.8-0.5-6.5c1.1,0.1,2.2,0.3,3,0.7
	C33.9,6.1,37.2,10.6,37.1,17.5z"/>
</svg>
