<?xml version="1.0" encoding="utf-8"?>
<!-- Generator: Adobe Illustrator 19.0.0, SVG Export Plug-In . SVG Version: 6.00 Build 0)  -->
<svg version="1.1" id="Layer_3" xmlns="http://www.w3.org/2000/svg" xmlns:xlink="http://www.w3.org/1999/xlink" x="0px" y="0px"
	 viewBox="0 0 19.9 30" style="enable-background:new 0 0 19.9 30;" xml:space="preserve">
<style type="text/css">
	.{{$ctrl.id}}{fill:{{$ctrl.fill}};}
</style>
<path ng-class="{ '{{$ctrl.id}}': true}" d="M19.9,27.5c0,0.5,0,2.5,0,2.5H1.6c0,0,0-2,0-2.5c0-0.9,0.7-1.6,1.6-1.6h0c0-0.9,0.7-1.5,1.6-1.5h12.1
	c0.9,0,1.6,0.7,1.6,1.6C19.3,26,20,26.6,19.9,27.5z M2.1,13.3C1.8,13.5,1.2,14,1,13.5c-0.2-0.4-0.5-0.7-0.8-1
	c-0.2-0.2-0.4-0.8,0-1.6c0.4-0.8-0.2-0.7,0.9-1.8c0.9-1,2.6-2.2,3.6-3.4c0.2-0.2,0-0.6,0.6-0.9C6,4.5,7.2,4,7.5,3C7.7,2,9,2,9.3,2.1
	c0.2-0.5,0.2-1,0.3-1.6c0-0.7,0.4-0.6,0.9,0c0.3,0.4,0.8,1.1,1,1.9c2.2,0.6,4.7,2,6.2,4.7l-3.8,6.2l4.7-3.9c0.2,0.7,0.3,1.4,0.3,2.1
	l-4.3,4.6l4.2-2.3c0,0.3-0.1,0.6-0.1,0.8l-3.7,3.9l3-1c-0.6,1.8-1.2,3.2-1,5.1l-12.5,0c-2.4-3.8,4.2-8.3,5.8-10.2
	c0,0-1.7,0.6-2.9-0.1c-1.2-0.7-2.1-0.3-2,0.4c0.1,0.7-0.9,1.3-1.2,1.6c-0.4,0.4-0.9,0.3-1.5,0.2c-0.2,0-0.7,0-0.1-0.7
	C2.9,13.5,2.5,13,2.1,13.3z M5.8,6.2c0.4,0.2,0.8,0.1,1.1-0.5c0,0-0.7-0.3-1-0.3C5.9,5.4,5.4,6,5.8,6.2z"/>
</svg>
