<?xml version="1.0" encoding="utf-8"?>
<!-- Generator: Adobe Illustrator 19.0.0, SVG Export Plug-In . SVG Version: 6.00 Build 0)  -->
<svg version="1.1" id="Layer_3" xmlns="http://www.w3.org/2000/svg" xmlns:xlink="http://www.w3.org/1999/xlink" x="0px" y="0px"
	 viewBox="0 0 44.1 30" style="enable-background:new 0 0 44.1 30;" xml:space="preserve">
<style type="text/css">
	.{{$ctrl.id}}{fill:{{$ctrl.fill}};}
</style>
<path ng-class="{ '{{$ctrl.id}}': true}" d="M9.4,7.4c0-0.9,2.2-1.8,3.9-1.8h11.6c0.5,0,1.1-0.2,1.1-1c0-0.6-0.5-1-1.1-1.5c-0.6-0.4-1.6-1.1-3.2-1
	c-1.8,0.1-5.6,0.3-7.2-0.2C12.8,1.4,13.4,0,14.3,0c0.8,0,7.3,0,10,0c0.6,0,1.2-0.1,2.2,0.7c1,0.9,3.6,3.2,4,3.6
	c0.4,0.4,1.7,1.1,2.5,1.4c1.4,0.3,2.6,1,2.6,1.6c0,0.5-0.9,0.5-3,0.5h-20C10.4,7.9,9.4,7.9,9.4,7.4z M44.1,17.8v2.7
	c0,5.1-5.8,9.6-10.5,9.6H10.5C5.8,30,0,25.5,0,20.4v-2.7C0,13,3.9,9,8.7,9h26.7C40.2,9,44.1,13,44.1,17.8z M42.3,17.8H1.9v2.6h40.4
	V17.8z"/>
</svg>
