<?xml version="1.0" encoding="utf-8"?>
<!-- Generator: Adobe Illustrator 19.0.0, SVG Export Plug-In . SVG Version: 6.00 Build 0)  -->
<svg version="1.1" id="Layer_3" xmlns="http://www.w3.org/2000/svg" xmlns:xlink="http://www.w3.org/1999/xlink" x="0px" y="0px"
	 viewBox="0 0 30 30" style="enable-background:new 0 0 30 30;" xml:space="preserve">
<style type="text/css">
	.{{$ctrl.id}}{fill:{{$ctrl.fill}};}
</style>
<path ng-class="{ '{{$ctrl.id}}': true}" d="M15,0C6.7,0,0,6.7,0,15c0,8.3,6.7,15,15,15c8.3,0,15-6.7,15-15C30,6.7,23.3,0,15,0z M3.5,12.4
	c-0.7,1.9-0.8,3.6-1,4.9c0,0.3-0.2,0.2-0.3,0.2c-0.1-0.1-0.6-0.3-0.6-0.3c-0.8-4.7,0.7-7.4,1.6-8.9c-0.1,1.6,0.1,2.7,0.3,3.5
	C3.6,12.1,3.5,12.3,3.5,12.4z M21,3.1c0.3,0.1,1,0.2,1.2,0.4C24.7,4.9,27,8,27.3,9.2c0,0-1,0.9-1.2,1c-0.1,0.1-0.2,0.1-0.3-0.1
	c-0.8-1-2.3-2.5-3.7-3.4c-0.2-0.1-0.3-0.1-0.5-0.7c-0.2-0.6-0.5-2-0.8-2.6C20.8,3.4,20.6,3,21,3.1z M15.9,1.4c0,0-2.4,0.4-4.7,1.5
	C11,3.1,11,3.1,10.5,3.2c-0.6,0.1-1,0.1-3.8,1C9.2,2.3,12.7,1.1,15.9,1.4z M14.2,25.4c-0.4,0.9-0.8,1.6-1.4,2.3
	c-0.1,0.1-0.2,0.2-0.6,0.2c-0.4-0.1-2.8-0.7-4.7-1.7c-0.1-0.1-0.3-0.2-0.5-0.5c-0.7-1-1.7-3.1-1.5-3.7c0,0,2.4-0.1,3.8-0.5
	c0.2,0,0.3-0.1,0.7,0.2c0.9,0.7,1.9,1.7,4,3.2C14,25.1,14.2,25.2,14.2,25.4z M17.2,8.7c0,1-0.2,3.8-0.3,5.3c0,0.2-0.1,0.4-0.4,0.5
	c-1.3,0.5-4.5,1.4-5.3,1.6c-0.4,0.1-0.6,0-0.7-0.2c-1.4-1.9-2.2-3.3-2.8-4.3c-0.2-0.3-0.1-0.5,0-0.6c1.4-1.9,2.5-3.4,3.5-4.2
	c0.3-0.3,0.4-0.2,0.6-0.2c2,0.4,3.7,1,5,1.5C17.2,8.2,17.2,8.5,17.2,8.7z M27,20.4c-0.8,1.2-2,2.9-3.2,4.1c-0.1,0.1-0.2,0.3-0.7,0.2
	c-1-0.2-2-0.5-3-0.9c-0.1,0-0.3-0.1-0.2-0.5c0.6-1.7,0.9-2.8,1.2-4.8c0-0.2,0-0.4,0.5-0.6c1.5-0.7,2.4-1,3.9-1.8
	c0.1-0.1,0.4-0.2,0.6,0.1c0.6,1,0.7,2.1,1.1,3.6C27.1,19.9,27.2,20.1,27,20.4z"/>
</svg>
