<?xml version="1.0" encoding="utf-8"?>
<!-- Generator: Adobe Illustrator 19.0.0, SVG Export Plug-In . SVG Version: 6.00 Build 0)  -->
<svg version="1.1" id="Layer_3" xmlns="http://www.w3.org/2000/svg" xmlns:xlink="http://www.w3.org/1999/xlink" x="0px" y="0px"
	 viewBox="0 0 30 30" style="enable-background:new 0 0 30 30;" xml:space="preserve">
<style type="text/css">
	.{{$ctrl.id}}{fill:{{$ctrl.fill}};}
</style>
<path ng-class="{ '{{$ctrl.id}}': true}" d="M15,0C6.7,0,0,6.7,0,15c0,8.3,6.7,15,15,15c8.3,0,15-6.7,15-15C30,6.7,23.3,0,15,0z M27.2,11.7
	c0.4,0,0.8,0.7,0.9,1.5c0.1,0.8-0.2,1.5-0.6,1.5c-0.4,0-0.8-0.7-0.9-1.5C26.5,12.4,26.8,11.7,27.2,11.7z M25.1,7.8
	c0.5,0,1.2,0.7,1.4,1.4c0.2,0.8,0,1.4-0.5,1.4c-0.5,0-1.2-0.6-1.4-1.4C24.3,8.4,24.5,7.8,25.1,7.8z M21,12.7c0,1-0.8,1.9-1.8,1.9
	c-1,0-1.9-0.8-1.9-1.9c0-1,0.8-1.9,1.8-1.9C20.1,10.8,21,11.7,21,12.7z M21.3,6.9c0.9,0,1.7,0.7,1.9,1.6c0.2,0.9-0.4,1.6-1.3,1.6
	c-0.9,0-1.7-0.7-1.9-1.6C19.8,7.6,20.4,6.9,21.3,6.9z M16.4,9.9c-1,0-1.9-0.8-1.9-1.7s0.8-1.7,1.9-1.7c1,0,1.9,0.8,1.9,1.7
	S17.4,9.9,16.4,9.9z M15.4,12.7c0,1.1-0.9,1.9-1.9,1.9c-1.1,0-1.9-0.9-1.9-1.9s0.9-1.9,1.9-1.9C14.6,10.8,15.4,11.6,15.4,12.7z
	 M12.7,8.4c-0.2,0.9-1.1,1.6-2,1.6c-1,0-1.6-0.8-1.5-1.7c0.1-0.9,1-1.7,2-1.6C12.2,6.7,12.9,7.5,12.7,8.4z M9.8,12.8
	c-0.1,1-0.9,1.9-1.8,1.9c-0.9,0-1.6-0.8-1.5-1.8c0.1-1,0.9-1.9,1.8-1.9C9.2,10.9,9.9,11.8,9.8,12.8z M7.3,17.3c0,1-0.6,1.7-1.4,1.6
	c-0.8-0.1-1.4-0.9-1.5-1.8c-0.1-0.9,0.5-1.7,1.3-1.7C6.5,15.4,7.2,16.3,7.3,17.3z M8.1,19.8c0.9,0,1.7,0.8,1.8,1.6
	c0.2,0.9-0.4,1.6-1.2,1.6c-0.9,0-1.7-0.7-1.8-1.6C6.7,20.6,7.3,19.8,8.1,19.8z M8.9,17.3c-0.1-1,0.7-1.9,1.8-1.9
	c1.1,0,1.9,0.9,1.9,2c0,1-0.8,1.8-1.8,1.8C9.8,19.1,9,18.3,8.9,17.3z M13.6,20.1c1,0,1.8,0.8,1.9,1.7c0,0.9-0.8,1.7-1.8,1.7
	c-1,0-1.9-0.8-1.9-1.7C11.7,20.8,12.6,20.1,13.6,20.1z M14.6,17.3c0-1.1,0.9-1.9,1.9-1.9c1.1,0,1.9,0.9,1.9,1.9
	c0,1.1-0.9,1.9-1.9,1.9C15.4,19.2,14.6,18.4,14.6,17.3z M19.2,20c1-0.1,1.7,0.6,1.6,1.5c-0.1,0.9-0.9,1.8-1.9,1.8
	c-1,0.1-1.7-0.6-1.6-1.6C17.4,20.9,18.2,20.1,19.2,20z M20.2,17.2c0-1,0.8-1.8,1.7-1.9c0.9,0,1.6,0.8,1.6,1.8c0,1-0.8,1.8-1.7,1.9
	C20.9,19,20.2,18.2,20.2,17.2z M22.7,12.9c-0.1-1,0.5-1.7,1.3-1.7c0.8,0,1.5,0.8,1.6,1.8c0.1,1-0.5,1.7-1.3,1.7
	C23.5,14.6,22.8,13.9,22.7,12.9z M22.1,4.5c0.5-0.1,1.4,0.3,1.9,1c0.5,0.7,0.4,1.2-0.1,1.3c-0.5,0-1.2-0.4-1.7-1
	C21.7,5.3,21.6,4.7,22.1,4.5z M20.4,2.5c0.6,0.3,1,0.6,1.1,0.9c0,0.3-0.4,0.3-1.1,0.1C19.6,3.3,19,2.8,19,2.5
	C19.1,2.2,19.8,2.3,20.4,2.5z M18.6,3.6c0.8,0.1,1.5,0.6,1.7,1.2c0.2,0.7-0.3,1.2-1.2,1.2c-1,0-2-0.7-2-1.5
	C17.1,3.9,17.8,3.5,18.6,3.6z M16.2,1.6c0.7,0.1,1.3,0.4,1.4,0.7C17.6,2.7,17.1,3,16.3,3c-0.9,0-1.7-0.4-1.6-0.8
	C14.7,1.8,15.4,1.6,16.2,1.6z M15.2,4c0.4,0.6,0.2,1.4-0.7,1.8c-0.9,0.4-2.1,0.2-2.4-0.5c-0.3-0.7,0.2-1.4,1-1.7
	C13.9,3.3,14.8,3.5,15.2,4z M11.5,1.9C12.1,1.7,12.8,1.8,13,2c0.2,0.3-0.1,0.7-0.8,1c-0.8,0.3-1.6,0.2-1.8-0.1
	C10.3,2.6,10.8,2.1,11.5,1.9z M10.1,4.1c0.5,0.3,0.5,1.1-0.2,1.7C9.1,6.4,8.1,6.6,7.7,6.1C7.3,5.8,7.5,5,8.1,4.5
	C8.7,4,9.6,3.8,10.1,4.1z M7.9,3.4C8.5,3,9,2.9,9.1,3c0.1,0.1-0.3,0.5-0.9,0.8C7.6,4.1,7.1,4.3,7,4.2C6.9,4.1,7.3,3.7,7.9,3.4z
	 M7.5,8.9c-0.3,0.8-1,1.4-1.7,1.4c-0.7,0-1.1-0.7-0.9-1.5C5.2,8,6,7.3,6.7,7.3C7.5,7.3,7.8,8.1,7.5,8.9z M4.8,6.1
	c0.4-0.5,1-0.9,1.3-0.9c0.3,0,0.3,0.4,0,1C5.6,6.8,4.9,7.4,4.6,7.3C4.2,7.3,4.3,6.7,4.8,6.1z M5.1,13c-0.1,0.9-0.7,1.6-1.3,1.6
	c-0.6,0-1-0.7-0.9-1.6c0.1-0.9,0.7-1.6,1.3-1.6C4.8,11.4,5.2,12.1,5.1,13z M2.6,9.6c0.2-0.6,0.6-1.1,1-1.2c0.3,0,0.5,0.4,0.3,1
	c-0.2,0.7-0.7,1.5-1.1,1.5C2.4,11,2.3,10.3,2.6,9.6z M2.7,18.3c-0.4-0.1-0.8-0.7-0.9-1.5C1.8,16,2,15.4,2.4,15.4
	c0.4,0,0.9,0.7,1,1.6C3.4,17.8,3.1,18.4,2.7,18.3z M5.1,22.2c-0.5,0.1-1.1-0.3-1.5-1.1c-0.4-0.8-0.3-1.5,0.2-1.7
	c0.5-0.2,1.2,0.4,1.5,1.2C5.7,21.3,5.6,22,5.1,22.2z M7.8,25.5c-0.5,0-1.2-0.4-1.7-1C5.6,24,5.6,23.4,6,23.3c0.5-0.1,1.4,0.3,1.9,1
	C8.4,24.9,8.3,25.5,7.8,25.5z M9.9,27.6c-0.8-0.3-1.4-0.8-1.4-1.1c0.1-0.3,0.7-0.2,1.4,0.1c0.6,0.3,1,0.6,1.1,0.9
	C11,27.7,10.5,27.8,9.9,27.6z M9.7,24.9c0-0.7,0.7-1.1,1.5-1c0.8,0.1,1.5,0.6,1.7,1.2c0.2,0.7-0.3,1.3-1.2,1.3
	C10.6,26.4,9.7,25.7,9.7,24.9z M14.1,28.4c-0.9,0-1.7-0.4-1.6-0.8c0-0.4,0.7-0.6,1.5-0.5c0.7,0.1,1.3,0.4,1.4,0.7
	C15.4,28.1,14.9,28.4,14.1,28.4z M14.7,25.9c-0.3-0.6,0.2-1.4,1-1.7c0.8-0.3,1.7-0.1,2.1,0.4c0.4,0.6,0.2,1.4-0.6,1.8
	C16.2,26.8,15.1,26.6,14.7,25.9z M18.7,28c-0.8,0.3-1.6,0.2-1.8-0.1c-0.1-0.3,0.4-0.8,1.1-1c0.7-0.2,1.3-0.1,1.5,0.1
	C19.8,27.3,19.4,27.7,18.7,28z M19.8,25.8c-0.4-0.4-0.2-1.1,0.5-1.6c0.6-0.5,1.4-0.7,1.9-0.4c0.5,0.3,0.5,1.1-0.2,1.7
	C21.2,26.1,20.2,26.2,19.8,25.8z M22.2,26.5c-0.6,0.3-1.1,0.5-1.2,0.4c-0.1-0.1,0.3-0.5,0.9-0.8c0.6-0.3,1.1-0.5,1.2-0.4
	C23.2,25.8,22.8,26.2,22.2,26.5z M22.4,21.5c0.1-0.8,0.7-1.6,1.4-1.8c0.8-0.2,1.4,0.3,1.2,1.2c-0.1,0.9-0.9,1.7-1.6,1.8
	C22.8,22.8,22.3,22.3,22.4,21.5z M25.3,23.7c-0.4,0.6-1.1,1.2-1.5,1.2c-0.4,0-0.2-0.6,0.2-1.2c0.4-0.5,1-0.9,1.3-0.9
	C25.7,22.7,25.7,23.1,25.3,23.7z M25,17c0.1-0.9,0.6-1.6,1.2-1.6c0.6,0,1,0.7,0.9,1.6c-0.1,0.9-0.6,1.6-1.2,1.6
	C25.3,18.6,24.9,17.9,25,17z M27.5,20.1c-0.2,0.8-0.7,1.5-1.1,1.5c-0.4,0-0.5-0.6-0.2-1.4c0.2-0.6,0.7-1.2,1-1.2
	C27.5,19,27.7,19.4,27.5,20.1z M28,18.1c-0.2,0-0.2-0.6-0.1-1.4c0.1-0.8,0.3-1.4,0.5-1.4c0.2,0,0.2,0.6,0.1,1.4
	C28.4,17.5,28.2,18.1,28,18.1z"/>
</svg>
