<?xml version="1.0" encoding="utf-8"?>
<!-- Generator: Adobe Illustrator 19.0.0, SVG Export Plug-In . SVG Version: 6.00 Build 0)  -->
<svg version="1.1" id="Layer_1" xmlns="http://www.w3.org/2000/svg" xmlns:xlink="http://www.w3.org/1999/xlink" x="0px" y="0px"
	 viewBox="0 0 41.7 30" style="enable-background:new 0 0 41.7 30;" xml:space="preserve">
<style type="text/css">
	.{{$ctrl.id}}{fill:{{$ctrl.fill}};}
</style>
<path ng-class="{ '{{$ctrl.id}}': true}" d="M41.1,24.4c-0.3-0.6-0.7-1.7-0.8-2.3c-0.1-0.6-0.5-1.6-0.8-2.1c-0.3-0.5-1-1.1-1.6-1.2c-0.5-0.1-1.2-0.1-1.5,0
	c-0.3,0.1-1.1,0.4-1.7,0.6c-0.6,0.2-1.5,0.4-2,0.4c-0.4,0-1,0-1.2,0c-0.2,0-0.7-0.6-1-1.3c-0.3-0.7-1-2-1.5-2.9
	c-0.2-0.4-0.5-0.9-0.7-1.4c0.6-0.6,1.4-1.2,2.1-1.6c1.5-1,2.8-2,2.8-2.3c0-0.3-0.4-0.5-0.9-0.5c-0.5,0-1.6-1-2.5-2.2
	c-0.9-1.2-2.4-2.9-3.4-3.8c-1-0.9-2.9-2-4.1-2.5c-1.2-0.5-3.1-1.1-4.3-1.2c-1.1-0.2-3.1-0.1-4.4,0.1c-1.3,0.2-3.3,0.7-4.4,1.1
	C8,1.7,6.2,2.7,5.2,3.6c-1,0.9-2.3,2.2-2.8,3c-0.5,0.8-1.3,2.4-1.7,3.5C0.3,11.2,0,13.3,0,14.6c0,1.3,0.3,3.7,0.6,5.3
	C1,21.5,1.7,23.8,2.3,25c0.6,1.2,1.2,2.7,1.4,3.4c0.2,0.7,1,1.2,1.8,1.2c0.8,0,2.4-0.6,3.4-1.2c1.1-0.7,2.3-1.2,2.7-1.2
	c0.4,0,2.4,0.6,4.3,1.4l0.8,0.3c1.9,0.8,4.1,1.3,4.9,1.1c0.8-0.2,1.9-0.5,2.5-0.8c0.5-0.3,1.4-1.1,1.9-1.9c0.3-0.5,0.6-1.4,0.8-2.2
	c0.8,0.1,1.7,0.1,2.4,0.1c1.4,0,2.8,0,3-0.1c0.2,0,0.7,0.4,0.9,0.9c0.3,0.5,1.1,1.3,1.9,1.8c0.8,0.5,2,1,2.8,1.2
	c0.7,0.2,1.8,0.1,2.4-0.2c0.6-0.3,1.2-0.7,1.3-1c0.2-0.3,0.3-0.9,0.3-1.4C41.7,25.9,41.5,25,41.1,24.4z M29.7,19.8c0,0-0.2,0-0.5,0
	c-0.3,0-0.8-0.3-1.1-0.6c-0.2-0.2-1.1-0.7-1.8-1.1c0-0.8,0.2-1.7,0.4-2.2c0.1-0.2,0.3-0.4,0.4-0.6c0.4,0.6,1,1.3,1.2,1.6
	c0.3,0.6,0.8,1.5,1,2C29.5,19.4,29.7,19.8,29.7,19.8z M28.3,20.9c0.7,0.3,1.6,0.5,1.8,0.5c0.3,0,0.6,0.2,0.7,0.4
	c0.1,0.2,0.4,0.7,0.7,1.1c0.2,0.4,0.1,0.8-0.3,0.8c-0.4,0-1.3,0-1.9-0.1c-0.6-0.1-1.5-0.2-2-0.2c-0.2,0-0.3,0-0.5,0
	c0-1-0.2-2.5-0.4-3.5C27.1,20.3,27.9,20.7,28.3,20.9z M34.8,23.5c-0.5,0.1-1.1,0.2-1.4,0.2c-0.3,0-0.7-0.3-0.9-0.7
	c-0.2-0.4-0.5-0.9-0.6-1.1c-0.1-0.2,0.2-0.3,0.6-0.3c0.4,0,1.2-0.1,1.8-0.3c0.6-0.2,1.4-0.4,1.8-0.6c0.4-0.2,1.1-0.3,1.5-0.2
	c0.4,0,0.9,0.4,1,0.9c0.1,0.5,0,1-0.3,1.2c-0.3,0.2-1,0.5-1.5,0.7C36.1,23.2,35.3,23.4,34.8,23.5z M17.9,22.9c-1.2,0-2.2-1-2.2-2.2
	s1-2.2,2.2-2.2c1.2,0,2.2,1,2.2,2.2S19.2,22.9,17.9,22.9z M37.1,27.8c-0.4-0.2-1.1-0.6-1.5-0.9c-0.4-0.3-0.9-0.6-1.1-0.8
	c-0.2-0.2-0.5-0.5-0.7-0.7c-0.1-0.3,0.2-0.5,0.7-0.6c0.5-0.1,1.8-0.4,2.8-0.7c1-0.3,2.1,0.1,2.4,0.9c0.4,0.8,0.5,1.7,0.3,2
	c-0.2,0.3-0.8,0.7-1.3,0.9C38.3,28,37.6,28,37.1,27.8z"/>
</svg>
