<?xml version="1.0" encoding="utf-8"?>
<!-- Generator: Adobe Illustrator 19.0.0, SVG Export Plug-In . SVG Version: 6.00 Build 0)  -->
<svg version="1.1" id="Layer_3" xmlns="http://www.w3.org/2000/svg" xmlns:xlink="http://www.w3.org/1999/xlink" x="0px" y="0px"
	 viewBox="0 0 30 30" style="enable-background:new 0 0 30 30;" xml:space="preserve">
<style type="text/css">
	.{{$ctrl.id}}{fill:{{$ctrl.fill}};}
</style>
<path ng-class="{ '{{$ctrl.id}}': true}" d="M15,0C6.7,0,0,6.7,0,15c0,8.3,6.7,15,15,15c8.3,0,15-6.7,15-15C30,6.7,23.3,0,15,0z M17.4,11
	c-2.5,4.7-9.3,3.9-10.3-0.2c-1.2-4.6,5.1-8.5,9.4-5.9C18.4,6.2,18.5,9.1,17.4,11z M15,6c-1.7-1.1-3.5,0.3-3.3,1.3
	c0,0.1,0.1,0.2,0.1,0.3C10,7.3,8.4,9.4,9.5,10.9c1.5,2,4.1,0.8,4.4-1c0.1-0.5-0.1-0.9-0.3-1.2c1.6,0.3,2.6-1.3,1.9-2.3
	C15.5,6.3,15.3,6.1,15,6z M12.4,10c-0.6,0.8-1.2,0.8-1.6,0.5c-0.9-0.6,0-1.9,0.9-2.1C12.3,8.4,13.1,9.1,12.4,10z M14.4,7.5
	c-0.3,0.4-0.8,0.7-1.4,0.3c-0.7-0.5,0-1.2,0.6-1.3C14.2,6.4,14.9,6.9,14.4,7.5z"/>
</svg>
