<?xml version="1.0" encoding="utf-8"?>
<!-- Generator: Adobe Illustrator 19.0.0, SVG Export Plug-In . SVG Version: 6.00 Build 0)  -->
<svg version="1.1" id="Layer_1" xmlns="http://www.w3.org/2000/svg" xmlns:xlink="http://www.w3.org/1999/xlink" x="0px" y="0px"
	 viewBox="0 0 30 30" style="enable-background:new 0 0 30 30;" xml:space="preserve">
<style type="text/css">
	.{{$ctrl.id}}{fill:{{$ctrl.fill}};}
</style>
<g>
	<path ng-class="{ '{{$ctrl.id}}': true}" d="M15,30C6.7,30,0,23.3,0,15C0,6.7,6.7,0,15,0c8.3,0,15,6.7,15,15C30,23.3,23.3,30,15,30z M3.7,17
		c0.8,4.6,4.3,8.3,8.9,9.2c-0.1-0.7-0.1-1.4-0.1-2.1v-0.3c0-1.6-0.5-3.4-1.1-4c-0.7-0.7-1.8-1.5-2.7-2C8,17.4,6.3,17,5.1,17
		C4.6,17,4.2,17,3.7,17z M26.3,17c-0.4,0-0.9,0.1-1.3,0.1c-1.3,0-2.9,0.3-3.7,0.8c-0.8,0.5-2,1.3-2.7,2c-0.6,0.6-1.1,2.4-1.1,4v0.3
		c0,0.8,0,1.4-0.1,2.1C21.9,25.2,25.5,21.6,26.3,17z M15,13.3c-1.3,0-2.3,1-2.3,2.3c0,1.3,1,2.3,2.3,2.3c1.3,0,2.3-1,2.3-2.3
		C17.3,14.3,16.3,13.3,15,13.3z M15,3.6c-5.4,0-10,3.8-11.2,9c0.4,0,0.8,0,1.3,0c1.2,0,2.8-0.4,3.4-0.8c0.7-0.5,1.8-1,2.4-1.2
		c0.6-0.1,2.5-0.3,4.1-0.3l0,0c1.6,0,3.4,0.1,4.1,0.3c0.6,0.1,1.7,0.7,2.4,1.2c0.6,0.4,2.2,0.8,3.4,0.8c0.4,0,0.9,0,1.3,0
		C25,7.3,20.4,3.6,15,3.6z"/>
	<path ng-class="{ '{{$ctrl.id}}': true}" d="M15,0.3C6.9,0.3,0.3,6.9,0.3,15c0,8.1,6.6,14.7,14.7,14.7c8.1,0,14.7-6.6,14.7-14.7C29.7,6.9,23.1,0.3,15,0.3z
		 M15,3.3c5.7,0,10.5,4.1,11.5,9.6c-0.5,0-1,0-1.6,0c-1.3,0-2.9-0.4-3.6-0.9c-0.7-0.5-1.7-1-2.3-1.1c-0.6-0.1-2.4-0.2-4-0.2
		c-1.6,0-3.4,0.1-4,0.2c-0.6,0.1-1.7,0.6-2.3,1.1c-0.7,0.5-2.3,0.9-3.6,0.9c-0.6,0-1.1,0-1.6,0C4.5,7.4,9.3,3.3,15,3.3z M5.1,16.7
		c1.3,0,3,0.3,3.9,0.8c0.8,0.5,2.1,1.4,2.7,2c0.7,0.7,1.2,2.6,1.2,4.2v0.3c0,0.9,0,1.6,0.1,2.5c-5-0.9-8.9-4.9-9.6-9.9
		C3.9,16.7,4.4,16.7,5.1,16.7z M15,13c1.4,0,2.6,1.2,2.6,2.6c0,1.4-1.2,2.6-2.6,2.6c-1.4,0-2.6-1.2-2.6-2.6C12.4,14.2,13.6,13,15,13
		z M17,26.5c0.1-0.9,0.1-1.6,0.1-2.5v-0.3c0-1.6,0.5-3.5,1.2-4.2c0.7-0.7,1.9-1.6,2.7-2c0.8-0.5,2.6-0.8,3.8-0.8
		c0.7,0,1.2,0,1.7-0.1C25.9,21.7,22,25.7,17,26.5z"/>
</g>
</svg>
