<?xml version="1.0" encoding="utf-8"?>
<!-- Generator: Adobe Illustrator 19.0.0, SVG Export Plug-In . SVG Version: 6.00 Build 0)  -->
<svg version="1.1" id="Layer_3" xmlns="http://www.w3.org/2000/svg" xmlns:xlink="http://www.w3.org/1999/xlink" x="0px" y="0px"
	 viewBox="0 0 39.2 30" style="enable-background:new 0 0 39.2 30;" xml:space="preserve">
<style type="text/css">
	.{{$ctrl.id}}{fill:{{$ctrl.fill}};}
</style>
<g>
	<path ng-class="{ '{{$ctrl.id}}': true}" d="M29.2,4.3c-2.1,0-4.3,0.3-6.8,0.9c-1.2,0.3-2.3,0.4-3.4,0.4c-5.7,0-9.2-3.8-9.9-4.5L2.7,23.1
		c0.7,0.7,4.1,4.5,9.9,4.5c1,0,2.2-0.1,3.4-0.4c2.4-0.6,4.7-0.9,6.8-0.9c3.8,0,7.1,1.1,10,3.8l6.5-21.9C36.3,5.5,33,4.3,29.2,4.3z
		 M21.2,24.7l1.7-5.7c-1.5,0.1-3.1,0.4-4.8,0.8c-0.6,0.1-1.1,0.2-1.6,0.3l-1.7,5.6C14,26,13.3,26,12.5,26c-1.3,0-2.5-0.2-3.7-0.6
		l1.7-5.8c-1.9-0.7-3.4-1.8-4.4-2.6l2.2-7.3c1,0.8,2.4,1.9,4.4,2.6l1.7-5.8c1.7,0.6,3.4,0.8,4.7,0.8c0.4,0,0.8,0,1.2-0.1l-1.7,5.7
		c0.5-0.1,1.1-0.2,1.6-0.3c1.7-0.4,3.3-0.7,4.8-0.8l1.7-5.7c0.8-0.1,1.7-0.1,2.4-0.1c1.3,0,2.5,0.1,3.6,0.4L31,12.1
		c-1.8-0.5-3.8-0.6-6-0.4L22.9,19c2.2-0.2,4.2-0.1,6,0.4l2.1-7.3c1.7,0.4,3.2,1.1,4.7,2.2l-2.2,7.3c-1.4-1-3-1.8-4.6-2.2l-1.7,5.8
		c-1.4-0.4-2.9-0.6-4.5-0.6C22.2,24.7,21.7,24.7,21.2,24.7z M18.6,12.9l-2.2,7.3c-2.3,0.3-4.3,0-5.9-0.6l2.2-7.3
		C14.3,12.9,16.3,13.2,18.6,12.9z M0,22.1L6.6,0C7,0.4,7.4,0.8,7.8,1.2L1.2,23.3C0.7,22.8,0.4,22.5,0,22.1z"/>
</g>
</svg>
