<?xml version="1.0" encoding="utf-8"?>
<!-- Generator: Adobe Illustrator 19.0.0, SVG Export Plug-In . SVG Version: 6.00 Build 0)  -->
<svg version="1.1" id="Layer_3" xmlns="http://www.w3.org/2000/svg" xmlns:xlink="http://www.w3.org/1999/xlink" x="0px" y="0px"
	 viewBox="0 0 35.8 30" style="enable-background:new 0 0 35.8 30;" xml:space="preserve">
<style type="text/css">
	.{{$ctrl.id}}{fill:{{$ctrl.fill}};}
</style>
<path ng-class="{ '{{$ctrl.id}}': true}" d="M34.4,4.7c-1.7-2.6-5-4.1-10.1-4.6C23.7,0,22.9,0,22.2,0h0C13.1,0,4.3,6.2,1.3,14.8c-1.2,3.4-2.1,7.3-0.1,10.5
	c1.7,2.6,5,4.1,10.2,4.6c0.6,0.1,1.3,0.1,2,0.1C21.7,30,32,25.1,35,14.3C35.8,11.4,36.5,7.7,34.4,4.7z M13.1,28.6
	c-3-6.3-7.5-12.7-9.7-15C4,12.3,4.7,11,5.6,9.9c2.9,1.8,9.1,10.4,12.2,18.2C16.2,28.4,14.6,28.6,13.1,28.6z M26.5,6
	c-0.1,0.1-0.2,0.1-0.4,0.1c-0.2,0-0.3-0.1-0.5-0.2c-0.3-0.4-0.6-0.7-0.8-0.9c-0.6,0.2-1.2,0.4-1.8,0.6c0.2,0.2,0.4,0.5,0.6,0.8
	c0.2,0.3,0.2,0.6-0.1,0.8c-0.1,0.1-0.2,0.1-0.4,0.1c-0.2,0-0.4-0.1-0.5-0.2c-0.3-0.4-0.6-0.7-0.9-1C21.2,6.4,20.6,6.7,20,7
	c0.2,0.3,0.5,0.6,0.7,0.9c0.2,0.3,0.1,0.6-0.1,0.8c-0.1,0.1-0.2,0.1-0.4,0.1c-0.2,0-0.4-0.1-0.5-0.2c-0.3-0.4-0.6-0.7-0.9-1.1
	c-0.6,0.3-1.2,0.7-1.8,1.1c0.3,0.3,0.5,0.7,0.8,1c0.2,0.3,0.1,0.6-0.1,0.8c-0.1,0.1-0.2,0.1-0.3,0.1c-0.2,0-0.4-0.1-0.5-0.3
	c-0.3-0.4-0.5-0.7-0.8-1.1c-0.6,0.4-1.1,0.8-1.7,1.3c0.3,0.4,0.6,0.8,0.9,1.2c0.2,0.3,0.1,0.6-0.1,0.8c-0.1,0.1-0.2,0.1-0.4,0.1
	c-0.2,0-0.4-0.1-0.5-0.3c-0.3-0.4-0.6-0.8-0.8-1.1c0,0-0.1,0-0.1,0.1c-0.1,0.1-0.3,0.2-0.4,0.2c-0.2,0-0.3-0.1-0.5-0.2
	c-0.2-0.2-0.2-0.6,0.1-0.9c0,0,0.1-0.1,0.1-0.1c-0.3-0.3-0.6-0.6-0.8-0.9c-0.2-0.2-0.2-0.6,0-0.9c0.2-0.2,0.6-0.2,0.9,0
	c0.3,0.3,0.6,0.6,0.9,1c0.5-0.4,1.1-0.8,1.7-1.2c-0.2-0.2-0.4-0.5-0.7-0.7c-0.2-0.2-0.2-0.6,0-0.9c0.2-0.2,0.6-0.2,0.9,0
	c0.3,0.3,0.6,0.6,0.8,0.9c0.6-0.4,1.1-0.7,1.7-1c-0.2-0.2-0.4-0.3-0.5-0.5c-0.2-0.2-0.3-0.6,0-0.9c0.2-0.2,0.6-0.3,0.9,0
	c0.3,0.3,0.6,0.5,0.8,0.8c0.6-0.3,1.2-0.6,1.7-0.8c-0.1-0.1-0.3-0.2-0.4-0.4c-0.3-0.2-0.3-0.6-0.1-0.8c0.2-0.3,0.6-0.3,0.8-0.1
	c0.3,0.2,0.6,0.5,0.8,0.8c0.5-0.2,1.1-0.4,1.6-0.6c-0.1-0.1-0.2-0.2-0.3-0.2c-0.3-0.2-0.3-0.6-0.1-0.8c0.2-0.3,0.6-0.3,0.8-0.1
	c0.9,0.7,1.6,1.3,2.4,2.3C26.8,5.4,26.8,5.8,26.5,6z M33.6,13.9c-0.2,0.8-0.5,1.6-0.8,2.3c0.1-4.5-2.5-12.2-8.3-14.6
	C25.8,1.7,27,2,28,2.2c4,2,5.8,6.5,6,10.5C33.9,13.1,33.8,13.5,33.6,13.9z"/>
</svg>
