<?xml version="1.0" encoding="utf-8"?>
<!-- Generator: Adobe Illustrator 19.0.0, SVG Export Plug-In . SVG Version: 6.00 Build 0)  -->
<svg version="1.1" id="Layer_1" xmlns="http://www.w3.org/2000/svg" xmlns:xlink="http://www.w3.org/1999/xlink" x="0px" y="0px"
	 viewBox="0 0 24.3 30" style="enable-background:new 0 0 24.3 30;" xml:space="preserve">
<style type="text/css">
	.{{$ctrl.id}}{fill:{{$ctrl.fill}};}
</style>
<g>
	<path ng-class="{ '{{$ctrl.id}}': true}" d="M1.7,30L1.7,30C0.5,29.3,0,28.7,0,27.9c0-0.3,0.4-0.4,1.9-0.4c1,0,2.4,0.1,4.1,0.1c2.1,0.1,4.5,0.2,6.7,0.2
		c2.3,0,4.5-0.1,6.5-0.2c1.4-0.1,2.6-0.1,3.5-0.1c1.2,0,1.7,0.1,1.7,0.4c0,0.8-0.6,1.4-1.1,1.9L23.1,30H1.7z"/>
	<path ng-class="{ '{{$ctrl.id}}': true}" d="M12.6,28C7,28,0.2,27.4,0.2,27.9c0,0.7,0.6,1.3,1.6,1.9H23c0.5-0.5,1.1-1.1,1.1-1.9C24.1,27.4,18.3,28,12.6,28
		z"/>
	<path ng-class="{ '{{$ctrl.id}}': true}" d="M8.4,18.6l0.1-0.3c0.9-2.9,2.1-6.2,3.4-10l2.8-6.9C15.1,0.6,15.9,0,16.5,0c0.6,0,1.3,0.7,1.4,1.5l1.4,7
		c0.2,0.8,0.4,2,0.4,2.8l0.8,6.6c0,0.2,0.1,0.5,0.1,0.7l0,0.3L8.4,18.6z"/>
	<path ng-class="{ '{{$ctrl.id}}': true}" d="M20.4,18l-0.8-6.6c-0.1-0.8-0.3-2-0.4-2.7l-1.4-7c-0.2-0.7-0.7-1.4-1.2-1.4c-0.5,0-1.2,0.6-1.6,1.2l-2.8,6.9
		c-1.6,4.4-2.6,7.6-3.4,10l11.8,0.3C20.4,18.4,20.4,18.2,20.4,18z"/>
	<path ng-class="{ '{{$ctrl.id}}': true}" d="M7.8,27.7c-0.5,0-0.9-0.2-1.2-0.5c-0.5-0.6-0.2-1.7,0-2.3c0-0.2,0.1-0.3,0.1-0.4c0-0.1,0.3-1.3,1.4-4.9
		l0.1-0.2l12.7,0.4l0,0.2c0,0.2,0,0.5,0,0.7v1c0,0.8-0.6,1.8-1.4,2.2l-9.2,3.1C9.2,27.5,8.4,27.7,7.8,27.7
		C7.8,27.7,7.8,27.7,7.8,27.7z"/>
	<path ng-class="{ '{{$ctrl.id}}': true}" d="M10.1,26.9l9.2-3.1c0.7-0.3,1.3-1.2,1.3-2v-1c0-0.2,0-0.4,0-0.7L8.3,19.7c-1.1,3.6-1.4,4.9-1.4,4.9
		C6.8,25.3,5.2,28.8,10.1,26.9z"/>
</g>
</svg>
