<?xml version="1.0" encoding="utf-8"?>
<!-- Generator: Adobe Illustrator 19.0.0, SVG Export Plug-In . SVG Version: 6.00 Build 0)  -->
<svg version="1.1" id="Layer_3" xmlns="http://www.w3.org/2000/svg" xmlns:xlink="http://www.w3.org/1999/xlink" x="0px" y="0px"
	 viewBox="0 0 22.8 30" style="enable-background:new 0 0 22.8 30;" xml:space="preserve">
<style type="text/css">
	.{{$ctrl.id}}{fill:{{$ctrl.fill}};}
</style>
<g>
	<path ng-class="{ '{{$ctrl.id}}': true}" d="M11.4,0C9.7,0,8.2,1.4,8.2,3.2c0,1.8,1.4,3.2,3.2,3.2c1.8,0,3.2-1.4,3.2-3.2C14.6,1.4,13.2,0,11.4,0z
		 M12.6,4.8V4c0-0.3-0.2-0.5-0.5-0.5h-1.4c-0.3,0-0.5,0.2-0.5,0.5v0.8c-0.5-0.4-0.9-1-0.9-1.7c0-1.1,0.9-2,2-2c1.1,0,2,0.9,2,2
		C13.4,3.9,13.1,4.5,12.6,4.8z M21.4,10.5c-0.2,0.2-0.5,0.2-0.6,0l-1.4-1.4c-0.2-0.2-0.2-0.4,0-0.6l0.7-0.7c0.2-0.2,0.5-0.2,0.6,0
		l1.4,1.4c0.2,0.2,0.2,0.4,0,0.6L21.4,10.5z M11.4,7.2C5.1,7.2,0,12.3,0,18.6C0,24.9,5.1,30,11.4,30c6.3,0,11.4-5.1,11.4-11.4
		C22.8,12.3,17.7,7.2,11.4,7.2z M10.9,9.5c0-0.3,0.2-0.5,0.5-0.5c0.3,0,0.5,0.2,0.5,0.5v1.6c0,0.3-0.2,0.5-0.5,0.5
		c-0.3,0-0.5-0.2-0.5-0.5V9.5z M4,19.1H2.3c-0.3,0-0.5-0.2-0.5-0.5s0.2-0.5,0.5-0.5H4c0.3,0,0.5,0.2,0.5,0.5S4.2,19.1,4,19.1z
		 M11.9,27.7c0,0.3-0.2,0.5-0.5,0.5c-0.3,0-0.5-0.2-0.5-0.5V26c0-0.3,0.2-0.5,0.5-0.5c0.3,0,0.5,0.2,0.5,0.5V27.7z M11.4,20.4
		c-1,0-1.8-0.8-1.8-1.8c0-0.3,0.1-0.5,0.2-0.8L5,13.1c-0.2-0.2-0.2-0.6,0-0.9c0.2-0.2,0.6-0.2,0.9,0l4.8,4.8
		c0.2-0.1,0.5-0.2,0.8-0.2c1,0,1.8,0.8,1.8,1.8C13.2,19.6,12.4,20.4,11.4,20.4z M20.5,19.1h-1.6c-0.3,0-0.5-0.2-0.5-0.5
		s0.2-0.5,0.5-0.5h1.6c0.3,0,0.5,0.2,0.5,0.5S20.8,19.1,20.5,19.1z M3.4,8.6c0.2,0.2,0.2,0.5,0,0.6L2,10.6c-0.2,0.2-0.4,0.2-0.6,0
		L0.7,9.9c-0.2-0.2-0.2-0.5,0-0.6l1.4-1.4c0.2-0.2,0.4-0.2,0.6,0L3.4,8.6z"/>
</g>
</svg>
