<?xml version="1.0" encoding="utf-8"?>
<!-- Generator: Adobe Illustrator 19.0.0, SVG Export Plug-In . SVG Version: 6.00 Build 0)  -->
<svg version="1.1" id="Layer_3" xmlns="http://www.w3.org/2000/svg" xmlns:xlink="http://www.w3.org/1999/xlink" x="0px" y="0px"
	 viewBox="0 0 30 30" style="enable-background:new 0 0 30 30;" xml:space="preserve">
<style type="text/css">
	.{{$ctrl.id}}{fill:{{$ctrl.fill}};}
</style>
<path ng-class="{ '{{$ctrl.id}}': true}" d="M28.2,28.2C26.9,29.5,26,30,25.2,30c-0.2,0-0.3,0-0.4-0.1c-0.3-0.1-0.5-0.3-0.7-0.5c0,0-3.4-4.3-5.7-6.5
	l-0.1-0.1c-0.4-0.4-0.6-0.6-1.1-0.6c-0.2,0-0.5,0-0.7,0.1c-0.2,0.1-0.5,0.1-0.7,0.2c-1.2,0.3-2.6,0.7-4.1,0.7c-0.4,0-0.7,0-1.1-0.1
	l12.6-12.6c0.3,1.9-0.2,3.7-0.6,5.2c-0.1,0.3-0.1,0.5-0.2,0.7c-0.3,1.1,0,1.4,0.5,1.9l0.1,0.1c2.3,2.3,6.5,5.7,6.5,5.7
	c0.2,0.2,0.4,0.4,0.5,0.7C30.2,25.7,29.7,26.6,28.2,28.2z M8.5,22.5c-2.9-1.3-6.4-4.5-7.8-8.6C-0.7,9.9,0.1,5.8,3,3
	C4.9,1,7.4,0,10.1,0c1.3,0,2.6,0.2,3.8,0.7c4.1,1.4,7.3,5,8.6,7.9c0.1,0.1,0.1,0.2,0.1,0.4L8.9,22.7C8.8,22.6,8.6,22.6,8.5,22.5z
	 M7,9.8C6,8.9,4.5,8.9,3.6,9.8c-0.9,0.9-0.9,2.5,0,3.4c0.9,0.9,2.5,0.9,3.4,0C7.9,12.3,7.9,10.7,7,9.8z"/>
</svg>
