<?xml version="1.0" encoding="utf-8"?>
<!-- Generator: Adobe Illustrator 19.0.0, SVG Export Plug-In . SVG Version: 6.00 Build 0)  -->
<svg version="1.1" id="Layer_3" xmlns="http://www.w3.org/2000/svg" xmlns:xlink="http://www.w3.org/1999/xlink" x="0px" y="0px"
	 viewBox="0 0 30 30" style="enable-background:new 0 0 30 30;" xml:space="preserve">
<style type="text/css">
	.{{$ctrl.id}}{fill:{{$ctrl.fill}};}
</style>
<path ng-class="{ '{{$ctrl.id}}': true}" d="M15,0C6.7,0,0,6.7,0,15c0,8.3,6.7,15,15,15c8.3,0,15-6.7,15-15C30,6.7,23.3,0,15,0z M24.2,23.5
	C18.6,29.2,7.2,28.7,4,19.9c-1.6-4.4,0.5-8.1,8-13.2c4.4-2.9,4.3-4.9,4.2-5.3c0.6,0.1,1.2,0.1,1.7,0.3C18,6.3,10.5,9.2,7.1,13
	c-2.6,2.9-2.3,6.7-1.2,8.6c4.1,6.9,12.3,5.8,16.9,1.5c2.2-2,4.5-5.6,5.6-10.3c0.1,0.7,0.2,1.4,0.2,2.2c0,0.6,0,1.2-0.1,1.8
	C27.2,20.1,25.4,22.2,24.2,23.5z"/>
</svg>
