<?xml version="1.0" encoding="utf-8"?>
<!-- Generator: Adobe Illustrator 19.0.0, SVG Export Plug-In . SVG Version: 6.00 Build 0)  -->
<svg version="1.1" id="Layer_3" xmlns="http://www.w3.org/2000/svg" xmlns:xlink="http://www.w3.org/1999/xlink" x="0px" y="0px"
	 viewBox="0 0 30 30" style="enable-background:new 0 0 30 30;" xml:space="preserve">
<style type="text/css">
	.{{$ctrl.id}}{fill:{{$ctrl.fill}};}
</style>
<path ng-class="{ '{{$ctrl.id}}': true}" d="M15,0C6.7,0,0,6.7,0,15c0,8.3,6.7,15,15,15c8.3,0,15-6.7,15-15C30,6.7,23.3,0,15,0z M19.8,26.1
	c0.5,0.3,1.1,0.6,1.8,0.8l0.2,0.5L21,27.3c-6.5-2.3-5.4-8.3-5-11.6c-2.4-1.2-4.4-2-6.1-2.3c-0.4,1.5-2.8,11.3,4.6,15.4l-0.6,0
	c-7.4-3.8-5.3-13.5-4.9-15.5c-2-0.2-3.6,0.1-4.9,0.7c-0.2,1.2-1.3,7.2,2,11.6l0.2,0.6c-4-4.4-3.2-10.4-3-11.7
	c-0.8,0.5-1.5,1-2.1,1.6l-0.5,0.5l-0.1-0.7l0.6-0.2c5.2-5.9,12.6-2.2,15.3-0.9c1.3-1,3.1-2.4,4.4-4.2C12.2,4.1,5.6,6.6,2.3,9.4
	l0.6-0.8c8.5-6.2,17.7,0.7,18.5,1.3c0.7-1.2,1.1-2.6,1-4.2C21.4,5,17.1,2.1,10.7,2l-0.4-0.1c6.6-0.3,11,2.6,11.9,3.2
	c-0.1-0.7-0.4-1.4-0.8-2.2l0.4-0.3l0.1,0.6c3.2,6-2.3,10.3-4.8,12.3c-0.5,2.7-0.6,4.8-0.2,6.5c6.7-3.8,10.4-9.1,10.5-13l0.3,0.6
	c-0.1,6.2-7.8,12.1-10.5,13.5c0.4,1.1,1,1.9,1.9,2.6c5-2.6,8.3-6.1,9.7-10.4v0.6C27.1,21.9,21.3,25.4,19.8,26.1z"/>
</svg>
