<?xml version="1.0" encoding="utf-8"?>
<!-- Generator: Adobe Illustrator 19.0.0, SVG Export Plug-In . SVG Version: 6.00 Build 0)  -->
<svg version="1.1" id="Layer_3" xmlns="http://www.w3.org/2000/svg" xmlns:xlink="http://www.w3.org/1999/xlink" x="0px" y="0px"
	 viewBox="0 0 63.9 30" style="enable-background:new 0 0 63.9 30;" xml:space="preserve">
<style type="text/css">
	.{{$ctrl.id}}{fill:{{$ctrl.fill}};}
</style>
<g>
	<path ng-class="{ '{{$ctrl.id}}': true}" d="M15.5,3.5v22.9c0,2-1.6,3.5-3.5,3.5c-2,0-3.5-1.6-3.5-3.5V3.5C8.4,1.6,10,0,12,0C13.9,0,15.5,1.6,15.5,3.5z
		 M4.9,6.7c-1.2,0-2.2,1-2.2,2.2v3.9H2.2C1,12.8,0,13.8,0,15c0,1.2,1,2.2,2.2,2.2h0.4v4c0,1.2,1,2.2,2.2,2.2c1.2,0,2.2-1,2.2-2.2
		V8.9C7.1,7.7,6.1,6.7,4.9,6.7z M61.6,12.8h-0.4V8.9c0-1.2-1-2.2-2.2-2.2c-1.2,0-2.2,1-2.2,2.2v12.3c0,1.2,1,2.2,2.2,2.2
		c1.2,0,2.2-1,2.2-2.2v-4h0.4c1.2,0,2.2-1,2.2-2.2C63.9,13.8,62.9,12.8,61.6,12.8z M51.9,0c-2,0-3.5,1.6-3.5,3.5v22.9
		c0,2,1.6,3.5,3.5,3.5c2,0,3.5-1.6,3.5-3.5V3.5C55.4,1.6,53.8,0,51.9,0z M43.4,0c-2,0-3.5,1.6-3.5,3.5v9.3h-16V3.5
		c0-2-1.6-3.5-3.5-3.5c-2,0-3.5,1.6-3.5,3.5v22.9c0,2,1.6,3.5,3.5,3.5c2,0,3.5-1.6,3.5-3.5v-9.2h16v9.2c0,2,1.6,3.5,3.5,3.5
		c2,0,3.5-1.6,3.5-3.5V3.5C47,1.6,45.4,0,43.4,0z"/>
</g>
</svg>
