<?xml version="1.0" encoding="utf-8"?>
<!-- Generator: Adobe Illustrator 19.0.0, SVG Export Plug-In . SVG Version: 6.00 Build 0)  -->
<svg version="1.1" id="Layer_3" xmlns="http://www.w3.org/2000/svg" xmlns:xlink="http://www.w3.org/1999/xlink" x="0px" y="0px"
	 viewBox="0 0 39.2 30" style="enable-background:new 0 0 39.2 30;" xml:space="preserve">
<style type="text/css">
	.{{$ctrl.id}}{fill:{{$ctrl.fill}};}
</style>
<path ng-class="{ '{{$ctrl.id}}': true}" d="M38.7,14.5C38.7,14.5,39,14.8,38.7,14.5L38.7,14.5z M39.2,15.7v4.3c0,0.4-0.2,0.8-0.5,1.1l-9.9,8.5
	c-0.1,0.1-0.3,0.2-0.4,0.3c0,0-0.1,0-0.1,0c0,0-0.1,0-0.1,0c0,0-0.1,0-0.1,0c-0.1,0-0.1,0-0.2,0c0,0,0,0-0.1,0c0,0,0,0,0,0s0,0,0,0
	c0,0,0,0,0,0c-0.1,0-0.1,0-0.2,0c0,0-0.1,0-0.1,0c0,0-0.1,0-0.1,0c0,0-0.1,0-0.1,0c-0.2-0.1-0.3-0.2-0.4-0.3c-0.6-0.5-5-4.3-6.5-5.4
	c-0.3-0.3-0.7-0.4-1.2-0.4c-1.4,0-3.2,0.9-5.1,2.5c-1.1,0.9-2.4,1.4-3.9,1.4c-0.1,0-0.2,0-0.2,0c-4.1-0.2-8.2-4.1-9.5-9.3
	c-0.8-3.2-0.3-6.5,1.2-8.6C2.1,9,2.7,8.5,3.3,8.1c0.3-0.2,1.3-0.8,1.3-0.8C4.4,6.9,4.2,6.5,4.1,6.1C3.8,5,4,3.8,4.6,2.9
	C4.8,2.6,5,2.4,5.3,2.2c0,0,0,0,0,0c0,0,0,0,0,0C5.4,2.1,5.5,2.1,5.6,2c0,0,0,0,0.1,0l2.5-1.5c0.5-0.3,1-0.4,1.3-0.4
	c0.1,0,0.2,0,0.3,0c0.8,0,1.7,0.3,2.4,0.8c0,0,0,0,0,0l1.2,1l0.9-0.5c0.3-0.2,0.5-0.3,0.8-0.4l0.1-0.1l0,0c0.6-0.2,1.3-0.4,2-0.5
	c0.2,0,0.4,0,0.5,0c1.7,0,3.4,0.6,5,1.8c0,0,0,0,0,0l15.9,12.3c0,0,0,0,0,0C39,14.8,39.2,15.2,39.2,15.7z M15.3,8.8l3.1,2.5l6.2-4.4
	l-3-2.3L15.3,8.8z M5.6,5.8C5.6,6,5.7,6.2,5.9,6.5l3.5-2.1C9.1,4.1,8.8,3.8,8.6,3.7C8.2,3.2,7.5,3.1,6.9,3.1
	C5.7,3.2,5.2,4.5,5.6,5.8z M11.5,18.4c-0.4-2.9-2.8-5.3-5-5.2c-2.2,0.2-3.2,2.6-2.6,5.3c0.6,2.5,2.6,4.5,4.6,4.5
	C10.5,23.2,12,21.2,11.5,18.4z M37.8,15.7l-9.4,8.1L11.9,9.8c-0.3-0.2-0.6-0.5-0.9-0.7C10.3,8.7,8.1,7.4,6.3,8L5.2,8.7
	c3-0.4,5.9,2.4,5.9,2.4l0,0l17.1,14.4v2.7l9.6-8.3V15.7z"/>
</svg>
