<?xml version="1.0" encoding="utf-8"?>
<!-- Generator: Adobe Illustrator 19.0.0, SVG Export Plug-In . SVG Version: 6.00 Build 0)  -->
<svg version="1.1" id="Layer_1" xmlns="http://www.w3.org/2000/svg" xmlns:xlink="http://www.w3.org/1999/xlink" x="0px" y="0px"
	 viewBox="0 0 25 30" style="enable-background:new 0 0 25 30;" xml:space="preserve">
<style type="text/css">
	.{{$ctrl.id}}{fill:{{$ctrl.fill}};}
</style>
<g>
	<path ng-class="{ '{{$ctrl.id}}': true}" d="M7.9,8c0.6,0.3,1.3,0.5,1.9,0.5c0.1,0,0.2,0,0.3,0c0.4,0,0.7-0.2,1-0.4c0-1.1,0.2-2,0.5-2.8
		c-0.1-0.2-0.1-0.3-0.3-0.4c-0.3-0.3-0.7-0.4-1.3-0.4c-1.6,0-3.8,1.1-4.6,1.5C6.1,6.8,7,7.6,7.9,8L7.9,8z M7.9,8"/>
	<path ng-class="{ '{{$ctrl.id}}': true}" d="M11.6,9c0,0.3,0,0.6,0.1,0.9c0.1,0.5,0.4,0.5,0.6,0.5c0.2,0,0.5-0.1,0.6-0.3c0.1-0.2,0.2-0.4,0.2-0.6
		c0-0.2,0-0.3-0.1-0.5c-0.3-3.1,1-4.7,2.8-6.8c0.2-0.3,0.5-0.6,0.7-0.9c0.3-0.3,0.2-0.7,0.1-0.8C16.5,0.2,16.3,0,16.1,0
		c-0.1,0-0.3,0.1-0.4,0.2l-0.5,0.6c-1.3,1.6-2.4,3-3,4.5C12.1,5.4,12,5.6,12,5.7c-0.2,0.7-0.4,1.4-0.4,2.2c0,0.2,0,0.3,0,0.5
		C11.6,8.6,11.6,8.8,11.6,9L11.6,9z M11.6,9"/>
	<path ng-class="{ '{{$ctrl.id}}': true}" d="M11.1,29c0,0,0.5-0.6,1.4-0.6c0.9,0.1,1.4,0.6,1.4,0.6c8.1,5.4,13.5-13.7,10-17.9c-3.6-4.2-7.3-3.2-9.2-2.5
		c-0.4,0.2-0.8,0.3-1.1,0.3c0,0.2,0,0.3,0.1,0.5c0.1,0.4,0,0.7-0.3,1c-0.3,0.3-0.6,0.5-1,0.5c-0.6,0-1-0.4-1.1-1
		c-0.1-0.4-0.1-0.7-0.1-1.1c0,0-0.1,0-0.1,0C10.6,9,10.3,9.1,9.8,9.1c-1,0-2-0.4-3-1.1c-1.7,0.1-3.8,0.8-5.7,3.1
		C-2.4,15.3,3,34.5,11.1,29L11.1,29z M11.1,29"/>
</g>
</svg>
