<?xml version="1.0" encoding="utf-8"?>
<!-- Generator: Adobe Illustrator 19.0.0, SVG Export Plug-In . SVG Version: 6.00 Build 0)  -->
<svg version="1.1" id="Layer_1" xmlns="http://www.w3.org/2000/svg" xmlns:xlink="http://www.w3.org/1999/xlink" x="0px" y="0px"
	 viewBox="0 0 25.3 30" style="enable-background:new 0 0 25.3 30;" xml:space="preserve">
<style type="text/css">
	.{{$ctrl.id}}{fill:{{$ctrl.fill}};}
</style>
<g>
	<path ng-class="{ '{{$ctrl.id}}': true}" d="M21.8,11.6h-3.2v-0.5c1-0.8,1.7-2,1.7-3.4c0-2-1.5-3.7-3.4-4.1C16.4,1.5,14.5,0,12.3,0C11,0,9.9,0.5,9,1.3
		C8.6,1.2,8.3,1.2,8,1.2c-1.6,0-3,1-3.6,2.3c-0.1,0-0.2,0-0.2,0C1.9,3.5,0,5.4,0,7.7c0,1.3,0.6,2.4,1.5,3.2v17.3
		c0,1,0.8,1.8,1.8,1.8h13.6c1,0,1.8-0.8,1.8-1.8v-2.7h3.2c1.9,0,3.4-1.5,3.4-3.4V15C25.3,13.1,23.7,11.6,21.8,11.6L21.8,11.6z
		 M16.2,9.6H5.5v3.7c0,0.6-0.5,1.2-1.2,1.2c-0.6,0-1.2-0.5-1.2-1.2v-4C2.7,8.9,2.3,8.3,2.3,7.7c0-1,0.8-1.9,1.9-1.9
		c0.2,0,0.5,0,0.7,0.1c0.3,0.1,0.7,0.1,1-0.1C6.2,5.7,6.4,5.3,6.4,5C6.5,4.1,7.2,3.5,8,3.5c0.3,0,0.5,0.1,0.7,0.2
		C9.2,4,9.9,3.8,10.2,3.4c0.5-0.7,1.2-1,2.1-1c1.4,0,2.5,1.1,2.5,2.4c0,0.3,0.2,0.6,0.4,0.8c0.2,0.2,0.5,0.3,0.9,0.3
		c0.1,0,0.1,0,0.1,0c1,0,1.9,0.8,1.9,1.9C18.1,8.7,17.2,9.6,16.2,9.6L16.2,9.6z M22.1,22.1c0,0.1-0.1,0.2-0.2,0.2h-3.2v-7.6h3.2
		c0.1,0,0.2,0.1,0.2,0.2V22.1z M22.1,22.1"/>
</g>
</svg>
