<?xml version="1.0" encoding="utf-8"?>
<!-- Generator: Adobe Illustrator 19.0.0, SVG Export Plug-In . SVG Version: 6.00 Build 0)  -->
<svg version="1.1" id="Layer_1" xmlns="http://www.w3.org/2000/svg" xmlns:xlink="http://www.w3.org/1999/xlink" x="0px" y="0px"
	 viewBox="199 382 16 30" style="enable-background:new 199 382 16 30;" xml:space="preserve">
<style type="text/css">
	.{{$ctrl.id}}{fill:{{$ctrl.fill}};}
</style>
<g>
	<path ng-class="{ '{{$ctrl.id}}': true}" d="M203.4,385h0.6v0.6c0,0.7-0.1,1.3-0.3,1.9h6.6c-0.2-0.6-0.3-1.2-0.3-1.9V385h0.5c0.5,0,1-0.4,1-0.9v-1.2
		c0-0.5-0.5-0.9-1-0.9h-7.1c-0.5,0-0.9,0.4-0.9,0.9v1.2C202.5,384.6,202.9,385,203.4,385"/>
	<path ng-class="{ '{{$ctrl.id}}': true}" d="M212.5,397.5c-0.3,0-0.5-0.2-0.5-0.5c0-0.8-0.2-1.6-0.6-2.2l-1.8-2.5c-0.2-0.2-0.1-0.5,0.1-0.7
		c0.2-0.2,0.5-0.1,0.7,0.1l1.8,2.5c0.5,0.8,0.8,1.8,0.8,2.8C213,397.3,212.8,397.5,212.5,397.5 M213.9,393.1l-2.9-4.4
		c-0.1-0.1-0.1-0.2-0.2-0.3h-7.6c-0.1,0.1-0.1,0.2-0.2,0.3l-2.9,4.4c-0.7,1.1-1.1,2.4-1.1,3.7v11.6h16v-11.6
		C215,395.6,214.6,394.3,213.9,393.1"/>
	<path ng-class="{ '{{$ctrl.id}}': true}" d="M199,410.5c0,0.8,0.7,1.5,1.5,1.5h13c0.8,0,1.5-0.7,1.5-1.5v-1h-16V410.5z"/>
</g>
</svg>
