<?xml version="1.0" encoding="utf-8"?>
<!-- Generator: Adobe Illustrator 19.0.0, SVG Export Plug-In . SVG Version: 6.00 Build 0)  -->
<svg version="1.1" id="Layer_1" xmlns="http://www.w3.org/2000/svg" xmlns:xlink="http://www.w3.org/1999/xlink" x="0px" y="0px"
	 viewBox="0 0 10 30" style="enable-background:new 0 0 10 30;" xml:space="preserve">
<style type="text/css">
	.{{$ctrl.id}}{fill:{{$ctrl.fill}};}
</style>
<g>
	<rect y="13.8" ng-class="{ '{{$ctrl.id}}': true}" width="10" height="11.2"/>
	<path ng-class="{ '{{$ctrl.id}}': true}" d="M0,12.6h10c-0.1-1.9-1.5-3.4-3.2-3.9V2.2c0.4,0,0.7-0.4,0.7-0.7V0.7C7.4,0.3,7.1,0,6.7,0H3.3
		C2.9,0,2.6,0.3,2.6,0.7v0.7c0,0.4,0.3,0.7,0.7,0.7v6.6C1.5,9.2,0.2,10.7,0,12.6L0,12.6z M0,12.6"/>
	<path ng-class="{ '{{$ctrl.id}}': true}" d="M0,26.2v2.9C0,29.6,0.4,30,0.9,30h8.2c0.5,0,0.9-0.4,0.9-0.9v-2.9H0z M0,26.2"/>
</g>
</svg>
