<?xml version="1.0" encoding="utf-8"?>
<!-- Generator: Adobe Illustrator 19.0.0, SVG Export Plug-In . SVG Version: 6.00 Build 0)  -->
<svg version="1.1" id="Layer_1" xmlns="http://www.w3.org/2000/svg" xmlns:xlink="http://www.w3.org/1999/xlink" x="0px" y="0px"
	 viewBox="0 0 69.2 30" style="enable-background:new 0 0 69.2 30;" xml:space="preserve">
<style type="text/css">
	.{{$ctrl.id}}{fill:{{$ctrl.fill}};}
</style>
<g>
	<g>
		<path ng-class="{ '{{$ctrl.id}}': true}" d="M56.3,5.6c-3.3,3-5.5,6.7-6.4,10.4c-0.2,1.1-1.2,1.8-2.3,1.8c-0.2,0-0.3,0-0.5-0.1c-1.3-0.3-2.1-1.5-1.8-2.8
			c0.9-4,3.1-8.1,6.5-11.6c-2.2-0.9-4.5-1.7-6.9-2.2c-1.6,0.8-3,1.6-4.1,2.5C36.2,6.9,33,11.4,32,16c-0.2,1.1-1.2,1.8-2.3,1.8
			c-0.2,0-0.3,0-0.5-0.1c-1.3-0.3-2.1-1.5-1.8-2.8c1.2-5.4,4.8-10.8,10.3-14.9C36.7,0,35.7,0,34.6,0c-1.2,0-2.4,0-3.5,0.1
			c-2.7,1-4.9,2.3-6.5,3.5C20,6.9,16.8,11.4,15.8,16c-0.2,1.1-1.2,1.8-2.3,1.8c-0.2,0-0.3,0-0.5-0.1c-1.3-0.3-2.1-1.5-1.8-2.8
			c0.9-4.1,3.3-8.3,6.8-11.8C10.1,6.4,4,11.8,0.7,18.7c-1.2,2.5-1,5.3,0.5,7.6c1.5,2.3,4,3.7,6.7,3.7h53.3c2.7,0,5.2-1.4,6.7-3.7
			c1.5-2.3,1.6-5.2,0.5-7.6C66,13.3,61.7,8.9,56.3,5.6L56.3,5.6z M56.3,5.6"/>
	</g>
</g>
</svg>
