<?xml version="1.0" encoding="utf-8"?>
<!-- Generator: Adobe Illustrator 19.0.0, SVG Export Plug-In . SVG Version: 6.00 Build 0)  -->
<svg version="1.1" id="Layer_1" xmlns="http://www.w3.org/2000/svg" xmlns:xlink="http://www.w3.org/1999/xlink" x="0px" y="0px"
	 viewBox="0 0 31.4 30" style="enable-background:new 0 0 31.4 30;" xml:space="preserve">
<style type="text/css">
	.{{$ctrl.id}}{fill:{{$ctrl.fill}};}
</style>
<g>
	<path ng-class="{ '{{$ctrl.id}}': true}" d="M21.1,19.3c-1.2,0.4-2.5,0.6-3.9,0.6c-2,0-4-0.5-5.7-1.5c-1.4,1.2-3.2,1.9-5,1.9c-0.6,0-1.3-0.1-1.8-0.2
		L6.5,30H25l1.7-9.2c-0.4,0.1-0.8,0.1-1.2,0.1C23.9,20.9,22.3,20.4,21.1,19.3L21.1,19.3z M12.1,28.2C12.1,28.2,12,28.2,12.1,28.2
		c-0.4,0-0.6-0.2-0.6-0.5l-0.7-4.9c0-0.3,0.2-0.6,0.5-0.6c0.3,0,0.6,0.2,0.6,0.5l0.7,5C12.6,27.8,12.4,28.1,12.1,28.2L12.1,28.2z
		 M16.8,27.6c0,0.3-0.3,0.6-0.6,0.6c-0.3,0-0.6-0.3-0.6-0.6v-5c0-0.3,0.3-0.6,0.6-0.6c0.3,0,0.6,0.3,0.6,0.6V27.6z M21,27.7
		c0,0.3-0.3,0.5-0.6,0.5c0,0-0.1,0-0.1,0c-0.3,0-0.5-0.3-0.5-0.6l0.7-5c0-0.3,0.3-0.5,0.6-0.5c0.3,0,0.5,0.3,0.5,0.6L21,27.7z
		 M21,27.7"/>
	<path ng-class="{ '{{$ctrl.id}}': true}" d="M3.8,18.6c0.1,0.1,0.2,0.1,0.3,0.1c0.1,0,0.2,0.1,0.3,0.1c0.7,0.2,1.3,0.3,2.1,0.3c1.9,0,3.6-0.8,4.8-2.2
		c1.7,1.1,3.7,1.7,5.9,1.7c1.5,0,2.9-0.3,4.1-0.8c1.1,1.1,2.6,1.8,4.2,1.8c0.5,0,0.9-0.1,1.4-0.2c0.1,0,0.2-0.1,0.3-0.1
		c0.1,0,0.2-0.1,0.3-0.1c2.2-0.8,3.8-3,3.8-5.5c0-2.6-1.7-4.8-4.1-5.6C26.8,3.7,22.5,0,17.2,0c-4.5,0-8.3,2.7-9.7,6.4
		C7.2,6.3,6.8,6.3,6.5,6.3C2.9,6.3,0,9.2,0,12.7C0,15.4,1.5,17.6,3.8,18.6L3.8,18.6z M3.8,18.6"/>
</g>
</svg>
