<?xml version="1.0" encoding="utf-8"?>
<!-- Generator: Adobe Illustrator 19.0.0, SVG Export Plug-In . SVG Version: 6.00 Build 0)  -->
<svg version="1.1" id="Layer_1" xmlns="http://www.w3.org/2000/svg" xmlns:xlink="http://www.w3.org/1999/xlink" x="0px" y="0px"
	 viewBox="192 382 30 30" style="enable-background:new 192 382 30 30;" xml:space="preserve">
<style type="text/css">
	.{{$ctrl.id}}{fill:{{$ctrl.fill}};}
</style>
<g transform="translate(-1)">
	<path ng-class="{ '{{$ctrl.id}}': true}" d="M209,400.4c0-3.6,2.9-6.4,6.5-6.4c3.2,0,5.5-2.1,5.5-5v-1c-0.6-0.3-1.3-0.5-2-0.5h-0.5
		c-5.8,0-10.5,4.7-10.5,10.5c0,1,0.4,1.9,1,2.6V400.4z"/>
	<path ng-class="{ '{{$ctrl.id}}': true}" d="M222,388.8v0.2c0,3.5-2.7,6-6.5,6c-3,0-5.5,2.4-5.5,5.4v1c0.6,0.3,1.3,0.5,2,0.5h0.5c5.8,0,10.5-4.7,10.5-10.5
		C223,390.5,222.6,389.5,222,388.8"/>
	<path ng-class="{ '{{$ctrl.id}}': true}" d="M197.1,382.2c3.4,1.6,4.8,5.2,3.3,8.5c0,0,0,0.1,0,0.1c-0.8,1.2-1.1,2.7-0.7,4.1c0.4,1.3,1.3,2.4,2.6,3l1,0.4
		c0.6-0.4,1.1-0.9,1.4-1.5l0.2-0.4c1.3-2.5,1.5-5.2,0.6-7.8c-0.9-2.7-2.9-4.9-5.6-6.1c-1-0.4-2-0.5-3-0.2L197.1,382.2z"/>
	<path ng-class="{ '{{$ctrl.id}}': true}" d="M201.9,398.8c-1.6-0.8-2.7-2.1-3.2-3.7c-0.4-1.6-0.1-3.4,0.8-4.8c1.2-2.7,0-5.8-2.9-7.1l-0.9-0.5
		c-0.6,0.4-1.1,0.9-1.4,1.5l-0.2,0.4c-1.3,2.5-1.5,5.2-0.6,7.8c0.9,2.7,2.9,4.9,5.6,6.1c0.6,0.3,1.2,0.4,1.8,0.4
		c0.4,0,0.7-0.1,1.1-0.1L201.9,398.8z"/>
	<path ng-class="{ '{{$ctrl.id}}': true}" d="M193.2,405.7c3.2-2.9,6.5-2.9,9.3-0.1c2.5,2.5,5.2,2.6,7.6,0.2c0,0,0,0,0,0l0.7-0.5c-0.2-0.7-0.6-1.4-1.2-1.9
		l-0.4-0.3c-4.4-4.1-11.2-3.9-15.2,0.4c-0.7,0.7-1.1,1.6-1.1,2.5L193.2,405.7z"/>
	<path ng-class="{ '{{$ctrl.id}}': true}" d="M210.8,406.5c-2.9,2.8-6.1,2.7-9-0.2c-2.4-2.4-5.1-2.4-8,0.2l-0.7,0.6c0.2,0.7,0.6,1.4,1.2,1.9l0.4,0.3
		c0,0,0,0,0,0c2.1,1.8,4.8,2.7,7.4,2.7c2.8,0,5.7-1,7.8-3.1c0.7-0.7,1.1-1.6,1.1-2.5L210.8,406.5z"/>
</g>
</svg>
