<?xml version="1.0" encoding="utf-8"?>
<!-- Generator: Adobe Illustrator 19.0.0, SVG Export Plug-In . SVG Version: 6.00 Build 0)  -->
<svg version="1.1" id="Layer_1" xmlns="http://www.w3.org/2000/svg" xmlns:xlink="http://www.w3.org/1999/xlink" x="0px" y="0px"
	 viewBox="0 0 29 30" style="enable-background:new 0 0 29 30;" xml:space="preserve">
<style type="text/css">
	.{{$ctrl.id}}{fill:{{$ctrl.fill}};}
</style>
<g>
	<g>
		<path ng-class="{ '{{$ctrl.id}}': true}" d="M29,18.8c0-2.4-1.6-4.5-5.4-5.1c0-0.9,0-1.7,0-2.5H0C0,18.4,0,30,11.8,30c5.5,0,8.5-2.5,10-5.9
			C27,23.9,29,21.6,29,18.8L29,18.8z M5.8,25.5c-2.2-3.3-3.1-7.2-3.1-11.1c0-1.7,2.6-1.7,2.6,0c0,3.5,0.7,6.9,2.7,9.8
			C9,25.5,6.8,26.8,5.8,25.5L5.8,25.5z M22.7,21.7c0.5-1.8,0.7-3.8,0.9-5.7c2,0.5,2.4,1.5,2.4,2.8C26,20.3,25.4,21.4,22.7,21.7
			L22.7,21.7z M22.7,21.7"/>
		<path ng-class="{ '{{$ctrl.id}}': true}" d="M9.1,8.8c0.4-1.2,0.3-2.3-0.1-3.5C8.4,4,7.8,3.1,8.7,1.9c1-1.3-1.3-2.6-2.2-1.3C5.6,1.7,5.4,2.9,5.8,4.3
			c0.3,1.3,1.3,2.4,0.8,3.8C6.1,9.6,8.5,10.3,9.1,8.8L9.1,8.8z M9.1,8.8"/>
		<path ng-class="{ '{{$ctrl.id}}': true}" d="M13.7,8.8c0.4-1.2,0.3-2.3-0.1-3.5c-0.5-1.3-1.2-2.1-0.2-3.4c1-1.3-1.3-2.6-2.2-1.3c-0.8,1.1-1.1,2.4-0.7,3.7
			c0.3,1.3,1.3,2.4,0.8,3.8C10.7,9.6,13.2,10.3,13.7,8.8L13.7,8.8z M13.7,8.8"/>
		<path ng-class="{ '{{$ctrl.id}}': true}" d="M18.4,8.8c0.4-1.2,0.3-2.3-0.1-3.5C17.7,4,17,3.1,18,1.9c1-1.3-1.3-2.6-2.2-1.3c-0.8,1.1-1.1,2.4-0.7,3.7
			c0.3,1.3,1.3,2.4,0.8,3.8C15.3,9.6,17.8,10.3,18.4,8.8L18.4,8.8z M18.4,8.8"/>
	</g>
</g>
</svg>
