<?xml version="1.0" encoding="utf-8"?>
<!-- Generator: Adobe Illustrator 19.0.0, SVG Export Plug-In . SVG Version: 6.00 Build 0)  -->
<svg version="1.1" id="Layer_1" xmlns="http://www.w3.org/2000/svg" xmlns:xlink="http://www.w3.org/1999/xlink" x="0px" y="0px"
	 viewBox="180.6 377.8 52.9 30" style="enable-background:new 180.6 377.8 52.9 30;" xml:space="preserve">
<style type="text/css">
	.{{$ctrl.id}}{fill:{{$ctrl.fill}};}
</style>
<g transform="translate(-1)">
	<path ng-class="{ '{{$ctrl.id}}': true}" d="M216.7,379.9c-1-1.3-2.4-2.1-4-2.1h-9.3c-1.6,0-3,0.8-4,2.1c-1,1.4-1.3,3.2-0.8,4.8l5.9,18.7
		c0.5,1.6,1.9,2.6,3.5,2.6s3-1,3.5-2.6l5.9-18.7C218,383.1,217.7,381.3,216.7,379.9"/>
	<path ng-class="{ '{{$ctrl.id}}': true}" d="M196.9,385.2c-0.4-1.4-0.4-2.9,0-4.3c-2.4,0.6-4.6,1.9-6.2,3.7c-2.8,3.1-2.7,7.9,0.2,10.9l6,6.2
		c1.8,1.5,3.9,2.4,6.2,2.5c0-0.1-0.1-0.2-0.2-0.4L196.9,385.2z"/>
	<path ng-class="{ '{{$ctrl.id}}': true}" d="M195.6,403.1l-6-6.3c-1.5-1.5-2.3-3.4-2.6-5.4c-1.7,2-3.2,4.2-4.4,6.5c-1.3,2.1-1.2,4.8,0.1,6.9
		c1.2,1.9,3.5,3.1,5.8,3.1c0.8,0,1.6-0.1,2.3-0.4l7.1-2.8C197,404.2,196.3,403.7,195.6,403.1L195.6,403.1z"/>
	<path ng-class="{ '{{$ctrl.id}}': true}" d="M233.6,397.9c-1.2-2.3-2.7-4.5-4.5-6.5c-0.3,2-1.1,3.9-2.6,5.4l-6,6.2l-0.1,0.1c-0.7,0.6-1.4,1.1-2.2,1.5
		l7.1,2.8c0.7,0.3,1.5,0.4,2.3,0.4c2.2,0,4.5-1,5.8-3C234.8,402.6,234.8,400,233.6,397.9"/>
	<path ng-class="{ '{{$ctrl.id}}': true}" d="M225.2,395.6c2.9-3,3-7.8,0.2-10.9c-1.7-1.8-3.9-3.1-6.2-3.7c0.4,1.4,0.4,2.9,0,4.3l-5.9,18.7
		c0,0.1-0.1,0.2-0.2,0.4c2.3-0.1,4.5-1,6.3-2.6L225.2,395.6z"/>
</g>
</svg>
