<?xml version="1.0" encoding="utf-8"?>
<!-- Generator: Adobe Illustrator 19.0.0, SVG Export Plug-In . SVG Version: 6.00 Build 0)  -->
<svg version="1.1" id="Layer_1" xmlns="http://www.w3.org/2000/svg" xmlns:xlink="http://www.w3.org/1999/xlink" x="0px" y="0px"
	 viewBox="0 0 22.9 30" style="enable-background:new 0 0 22.9 30;" xml:space="preserve">
<style type="text/css">
	.{{$ctrl.id}}{fill:{{$ctrl.fill}};}
</style>
<g>
	<path ng-class="{ '{{$ctrl.id}}': true}" d="M15.6,16.7H2.4c-0.2,0-0.5,0.1-0.6,0.3c-0.2,0.2-0.2,0.4-0.2,0.7c0.6,3.2,3.2,5.8,6.4,6.2v3.7
		c-1.9,0.1-3.4,0.6-3.4,1.2c0,0.7,2,1.2,4.4,1.2s4.4-0.5,4.4-1.2c0-0.6-1.4-1.1-3.4-1.2v-3.7c3.3-0.4,5.9-3,6.4-6.2
		c0-0.2,0-0.5-0.2-0.7C16.1,16.8,15.9,16.7,15.6,16.7L15.6,16.7z M15.6,16.7"/>
	<path ng-class="{ '{{$ctrl.id}}': true}" d="M22.4,5.8l-4.6-3c-0.5-0.3-1-0.4-1.5-0.2c-0.5,0.2-0.9,0.5-1.2,1l-2.7,6c0,0,0,0-0.1,0c-0.2,0-0.4,0-0.6,0
		c-0.6-0.6-1.2-1.2-2-1.6c0.9-0.4,1.5-1.3,1.5-2.4c0-1.4-1.2-2.6-2.6-2.6c-0.2,0-0.4,0-0.5,0.1C6.7,0.4,2.7,0,2.5,0
		C2.2,0,2,0.2,1.9,0.5C1.9,0.7,2.1,1,2.4,1c0,0,3.5,0.3,4.8,2.5C6.5,4,6.1,4.8,6.1,5.7c0,0.6,0.2,1.2,0.6,1.6C3,7.3,0,10.1,0,13.5
		c0,0.7,0.1,1.4,0.4,2c0.5-0.5,1.2-0.8,1.9-0.8C2.1,14.3,2,13.9,2,13.5c0-2.3,2.1-4.2,4.6-4.2c1.6,0,3.1,0.7,3.9,2
		c0.2,0.3,0.7,0.5,1.1,0.4c0.3-0.1,0.5-0.1,0.8-0.1c1.7,0,3.1,1.2,3.1,2.8c0,0.1,0,0.2,0,0.3h0.2c0.6,0,1.2,0.2,1.7,0.6
		c0.1-0.3,0.1-0.6,0.1-0.9c0-1.9-1.2-3.6-3-4.4l2.4-5.4l4.4,2.9c0.5,0.3,1.1,0.2,1.4-0.3C23,6.7,22.9,6.1,22.4,5.8L22.4,5.8z
		 M22.4,5.8"/>
</g>
</svg>
