<?xml version="1.0" encoding="utf-8"?>
<!-- Generator: Adobe Illustrator 19.0.0, SVG Export Plug-In . SVG Version: 6.00 Build 0)  -->
<svg version="1.1" id="Layer_1" xmlns="http://www.w3.org/2000/svg" xmlns:xlink="http://www.w3.org/1999/xlink" x="0px" y="0px"
	 viewBox="0 0 21.7 30" style="enable-background:new 0 0 21.7 30;" xml:space="preserve">
<style type="text/css">
	.{{$ctrl.id}}{fill:{{$ctrl.fill}};}
</style>
<g>
	<path ng-class="{ '{{$ctrl.id}}': true}" d="M21.7,28.6c0,0,0-8.4,0-9.3c0-0.8,0-19.2,0-19.2h-0.4c0,0-3.4,1.9-3.4,16.3c2.6,0.7,1.5,3.6,1.3,4
		c0,0.7,0.1,8.2,0.1,8.2h0c0,0,0,0,0,0c0,0.7,0.6,1.2,1.2,1.2C21.2,29.9,21.7,29.3,21.7,28.6C21.7,28.6,21.7,28.6,21.7,28.6
		L21.7,28.6z M21.7,28.6"/>
	<path ng-class="{ '{{$ctrl.id}}': true}" d="M15.6,0.7h-0.7l0.2,7.8h-0.9V0.7h-0.7v7.8h-0.7V0.7h-0.7v7.8h-0.9l0.2-7.9h-0.7L10,7.3c0,0,0,0.2,0,0.3
		c0,1,0.5,1.9,1.2,2.5c2.4,2.8,0.8,5.6,0.8,6.2c0,0.7,0,12.1,0,12.1c0,0,0,0,0,0c0,0.7,0.6,1.3,1.3,1.3c0.7,0,1.3-0.6,1.3-1.3
		c0,0,0,0,0,0h0c0,0,0-11.3,0-12.1c0-0.8-1.4-4,0.9-6.4c0,0,0,0,0,0c0.6-0.5,1-1.3,1-2.1c0-0.1,0-0.2,0-0.2L15.6,0.7z M15.6,0.7"/>
	<path ng-class="{ '{{$ctrl.id}}': true}" d="M4.4,0L4.4,0C1.5,0,0,2.7,0,5.5c0,2.9,1.7,4.9,3.2,5.4c0.8,1.2,0.3,3.9-0.3,5.5v12.3c0,0,0,0,0,0
		c0,0.7,0.6,1.3,1.3,1.3h0.2c0.7,0,1.3-0.6,1.3-1.3c0,0,0,0,0,0V16.4c-0.6-1.6-1.1-4.3-0.3-5.5c1.5-0.5,3.2-2.5,3.2-5.4
		C8.6,2.7,7.1,0,4.4,0L4.4,0z M2.9,9.8C2.8,9.7,2.5,9.4,2.3,9.2c-0.2-0.3-0.5-0.6-0.7-1C1.5,8,1.4,7.7,1.3,7.5
		C1.2,7.3,1.1,7.1,1.1,6.8C1,6.3,1,5.8,1.1,5.3c0-0.4,0.1-0.9,0.3-1.2c0.1-0.3,0.2-0.6,0.3-0.8C1.7,3.1,1.8,3,1.8,3s0,0.1,0,0.3
		c0,0.2,0,0.5,0,0.8c0,0.7-0.1,1.6,0.1,2.5c0,0.2,0.1,0.4,0.2,0.6C2,7.5,2.1,7.7,2.2,7.9c0.2,0.4,0.3,0.8,0.5,1.1
		C2.8,9.3,2.9,9.5,3,9.7C3.1,9.9,3.2,10,3.2,9.9C3.2,10,3.1,9.9,2.9,9.8L2.9,9.8z M2.9,9.8"/>
</g>
</svg>
