<?xml version="1.0" encoding="utf-8"?>
<!-- Generator: Adobe Illustrator 19.0.0, SVG Export Plug-In . SVG Version: 6.00 Build 0)  -->
<svg version="1.1" id="Layer_1" xmlns="http://www.w3.org/2000/svg" xmlns:xlink="http://www.w3.org/1999/xlink" x="0px" y="0px"
	 viewBox="0 0 37.1 30" style="enable-background:new 0 0 37.1 30;" xml:space="preserve">
<style type="text/css">
	.{{$ctrl.id}}{fill:{{$ctrl.fill}};}
</style>
<g>
	<g>
		<path ng-class="{ '{{$ctrl.id}}': true}" d="M35.4,24.4H1.7c-0.4,0-0.8,0.2-1,0.6c-0.2,0.3-0.2,0.8-0.1,1.1l1.1,2.2c0.5,1,1.5,1.7,2.7,1.7h28.4
			c1.1,0,2.2-0.7,2.7-1.7l1.1-2.2c0.2-0.4,0.2-0.8-0.1-1.1C36.2,24.6,35.8,24.4,35.4,24.4L35.4,24.4z M35.4,24.4"/>
		<path ng-class="{ '{{$ctrl.id}}': true}" d="M37.1,20.8c-0.7-8-8.2-14.4-17.5-14.8V4.8c0.9-0.4,1.5-1.3,1.5-2.3c0-1.4-1.1-2.5-2.5-2.5
			c-1.4,0-2.5,1.1-2.5,2.5c0,1,0.6,1.9,1.5,2.3V6C8.2,6.4,0.7,12.8,0,20.8c0,0.3,0.1,0.7,0.3,0.9c0.2,0.2,0.5,0.4,0.9,0.4h34.8
			c0.3,0,0.7-0.1,0.9-0.4C37,21.5,37.1,21.1,37.1,20.8L37.1,20.8z M11,12.3c-2.6,1.5-4.4,3.7-5.1,6.4c-0.1,0.5-0.5,0.8-1,0.8
			c-0.1,0-0.2,0-0.3,0c-0.5-0.1-0.9-0.7-0.7-1.2c0.8-3.1,3-5.8,6.1-7.6c0.5-0.3,1.1-0.1,1.4,0.4C11.6,11.4,11.5,12,11,12.3L11,12.3z
			 M11,12.3"/>
	</g>
</g>
</svg>
