<?xml version="1.0" encoding="utf-8"?>
<!-- Generator: Adobe Illustrator 19.0.0, SVG Export Plug-In . SVG Version: 6.00 Build 0)  -->
<svg version="1.1" id="Layer_1" xmlns="http://www.w3.org/2000/svg" xmlns:xlink="http://www.w3.org/1999/xlink" x="0px" y="0px"
	 viewBox="0 0 36.2 30" style="enable-background:new 0 0 36.2 30;" xml:space="preserve">
<style type="text/css">
	.{{$ctrl.id}}{fill:{{$ctrl.fill}};}
</style>
<g>
	<path ng-class="{ '{{$ctrl.id}}': true}" d="M22.2,17.4c-0.5-0.2-1-0.5-1.4-1c-0.2-0.2-0.3-0.4-0.4-0.6c-0.2,0.2-0.4,0.3-0.6,0.6c-0.2,0.3-0.4,0.6-0.5,1
		H22.2z M22.2,17.4"/>
	<path ng-class="{ '{{$ctrl.id}}': true}" d="M25.2,17.4C25.1,17.3,25.1,17.3,25.2,17.4c-0.1,0-0.1,0-0.2,0H25.2z M25.2,17.4"/>
	<path ng-class="{ '{{$ctrl.id}}': true}" d="M24.6,12.3c-0.4,0.2-0.8,0.4-1.3,0.5c-0.2,0-0.4,0-0.6,0c-0.5,0-1-0.1-1.5-0.3c-0.1,0.1-0.2,0.2-0.2,0.4
		c-0.2,0.5-0.3,1.1-0.2,1.7c0,0.1,0,0.1,0,0.2c0,0.1,0.1,0.2,0.1,0.4c0,0.1,0.1,0.1,0.1,0.2c0,0.1,0,0.1,0.1,0.2
		c0.5,0.9,1.4,1.5,2.4,1.5c0.2,0,0.3,0,0.5,0c0.2,0,0.4-0.1,0.6-0.2c0.1,0,0.2-0.1,0.3-0.1c0-0.1,0-0.1,0-0.2c0,0,0,0,0,0
		c0-0.2,0-0.4,0-0.7c0-0.7,0.2-1.4,0.6-1.9C25,13.3,24.8,12.8,24.6,12.3L24.6,12.3z M24.6,12.3"/>
	<path ng-class="{ '{{$ctrl.id}}': true}" d="M25.5,16.2c0,0,0,0.1,0,0.1c0,0,0,0.1,0,0.1c0,0.1,0,0.2,0.1,0.2c0,0,0,0.1,0.1,0.1c0,0.1,0.1,0.1,0.1,0.2
		c0.1,0.1,0.1,0.2,0.2,0.3h4.5c0-0.1,0.1-0.1,0.1-0.2c-0.8-0.5-1.4-1.4-1.6-2.4c0,0,0-0.1,0-0.2c-0.2,0.1-0.3,0.1-0.5,0.1
		c-0.2,0-0.4,0-0.6,0c-0.3,0-0.7-0.1-1-0.2c-0.1,0-0.2-0.1-0.4-0.1c-0.1-0.1-0.2-0.1-0.3-0.2c-0.1-0.1-0.2-0.1-0.3-0.2
		c-0.4,0.5-0.5,1.2-0.4,1.8C25.5,16.1,25.5,16.1,25.5,16.2L25.5,16.2z M25.5,16.2"/>
	<path ng-class="{ '{{$ctrl.id}}': true}" d="M24.5,10.7c0.1-0.7,0.5-1.4,1-1.9c-0.2-1.3-1.4-2.3-2.7-2.3c-0.2,0-0.3,0-0.5,0c-0.7,0.1-1.4,0.5-1.8,1.1
		C20.2,8,20.1,8.4,20,8.8c-0.1,0.3-0.1,0.6,0,0.9c0.1,0.6,0.4,1.2,0.9,1.6c0.1,0.1,0.2,0.1,0.2,0.2c0.1,0.1,0.2,0.1,0.3,0.2
		c0.1,0.1,0.2,0.1,0.4,0.2c0.3,0.1,0.6,0.2,1,0.2c0.2,0,0.3,0,0.5,0c0.5-0.1,0.9-0.3,1.3-0.6c0,0,0,0,0,0c0-0.1,0-0.3,0-0.4
		C24.5,10.9,24.5,10.8,24.5,10.7L24.5,10.7z M24.5,10.7"/>
	<path ng-class="{ '{{$ctrl.id}}': true}" d="M26.1,13.4C26.2,13.4,26.2,13.4,26.1,13.4c0.2,0.1,0.2,0.2,0.3,0.2c0.1,0,0.1,0.1,0.2,0.1
		c0.1,0.1,0.2,0.1,0.4,0.2c0.3,0.1,0.6,0.2,0.9,0.2c0.2,0,0.3,0,0.5,0c0.2,0,0.4-0.1,0.6-0.2c0-0.3,0.1-0.5,0.2-0.8
		c0-0.1,0.1-0.2,0.1-0.3c0.1-0.1,0.1-0.2,0.2-0.3c0.1-0.1,0.1-0.2,0.2-0.3c0.3-0.4,0.7-0.7,1.1-1c0-0.1,0-0.2,0-0.3
		c-0.2-1-0.8-1.7-1.7-2.1c0-0.1,0.1-0.2,0.1-0.4c0-0.1,0.1-0.2,0.1-0.4c0.8-2,2.5-3.5,4.4-4.7c0.8-0.5,0.2-1.8-0.6-1.3
		c-2.3,1.4-4.3,3.2-5.2,5.7c0,0.1-0.1,0.3-0.1,0.4c0,0.1-0.1,0.2-0.1,0.4c0,0-0.1,0-0.1,0c-0.5,0.1-0.9,0.3-1.3,0.6
		c-0.1,0.1-0.3,0.2-0.4,0.3c-0.4,0.4-0.6,0.9-0.7,1.5c0,0.1,0,0.2,0,0.3c0,0,0,0.1,0,0.1c0,0.1,0,0.2,0,0.3c0,0,0,0,0,0
		c0,0,0,0.1,0,0.1c0.1,0.5,0.3,0.9,0.6,1.3C26,13.2,26.1,13.3,26.1,13.4L26.1,13.4z M26.1,13.4"/>
	<path ng-class="{ '{{$ctrl.id}}': true}" d="M17.6,30c9.7,0,17.6-2.3,17.6-12H0C0,27.7,7.9,30,17.6,30L17.6,30z M17.6,30"/>
	<g>
		<path ng-class="{ '{{$ctrl.id}}': true}" d="M18.6,17.4c0.1-0.5,0.3-1,0.6-1.4c0.2-0.3,0.6-0.6,0.9-0.9c0-0.1-0.1-0.3-0.1-0.4c-0.2-0.9,0.1-1.8,0.6-2.5
			c-0.7-0.5-1.2-1.3-1.3-2.2c-0.1-0.6,0-1.2,0.2-1.7l0,0c-3.4-2.9-6.2-1.6-7.6-0.8c-0.8,0.4-1.3,0.6-1.6,0.7C9.8,8,9.2,8,8.4,7.9
			c-1.6-0.3-4.7-0.6-7,3.2c-0.8,1.3-0.5,3.8,0.4,6.3L18.6,17.4L18.6,17.4z M5.5,10.2c1.1-0.6,2,1,0.9,1.6c-1.6,0.9-1.8,2.4-0.6,3.8
			c0.8,0.9-0.5,2.2-1.3,1.3C2.6,14.7,2.8,11.7,5.5,10.2L5.5,10.2z M5.5,10.2"/>
		<path ng-class="{ '{{$ctrl.id}}': true}" d="M5.1,0.1C4.3-0.4,3.6,1,4.5,1.5c2.4,1.5,4.1,2.3,4.6,5.2c0.2,1,1.7,0.8,1.5-0.2c-0.1-0.3-0.1-0.6-0.2-0.9
			C10,5.5,9.4,5.1,9,4C8.9,3.6,8.8,3.2,8.9,2.9C7.9,1.9,6.7,1.1,5.1,0.1L5.1,0.1z M5.1,0.1"/>
		<path ng-class="{ '{{$ctrl.id}}': true}" d="M14,2.1c-0.4-0.1-1.2-0.2-2-0.2c-1.3,0-2.1,0.2-2.4,0.7C9.4,2.9,9.4,3.3,9.6,3.7c0,0,0,0.1,0,0.1
			c0.1,0.4,0.3,0.7,0.5,0.9C10.4,5,10.7,5.1,11,5.1C12.2,5.1,13.6,3.7,14,2.1L14,2.1z M14,2.1"/>
	</g>
	<path ng-class="{ '{{$ctrl.id}}': true}" d="M31.3,16.7c0.1,0.1,0.2,0.1,0.3,0.1c0.3,0.1,0.6,0.2,0.9,0.2c0.2,0,0.3,0,0.5,0c0.7-0.1,1.4-0.5,1.8-1.1
		c0.4-0.6,0.6-1.3,0.5-2.1c-0.2-1.4-1.4-2.3-2.8-2.3c-0.2,0-0.3,0-0.5,0c-0.2,0-0.4,0.1-0.6,0.2c-0.1,0.1-0.3,0.1-0.4,0.2
		c-0.2,0.1-0.3,0.2-0.5,0.4c-0.1,0.1-0.2,0.2-0.3,0.3c0,0.1-0.1,0.1-0.1,0.2C30.1,12.9,30,13,30,13.1c0,0.1,0,0.1-0.1,0.2
		c0,0.1,0,0.1-0.1,0.2c0,0.1-0.1,0.3-0.1,0.4c0,0.2,0,0.3,0,0.5c0,0.1,0,0.2,0,0.3c0.1,0.8,0.6,1.4,1.2,1.8
		C31.1,16.6,31.2,16.6,31.3,16.7L31.3,16.7z M31.3,16.7"/>
	<path ng-class="{ '{{$ctrl.id}}': true}" d="M30.9,6.8c-2.1,3.6,3.7,4,5.3,2.5C36.2,9.2,33,3.2,30.9,6.8L30.9,6.8z M30.9,6.8"/>
</g>
</svg>
