<?xml version="1.0" encoding="utf-8"?>
<!-- Generator: Adobe Illustrator 19.0.0, SVG Export Plug-In . SVG Version: 6.00 Build 0)  -->
<svg version="1.1" id="Layer_1" xmlns="http://www.w3.org/2000/svg" xmlns:xlink="http://www.w3.org/1999/xlink" x="0px" y="0px"
	 viewBox="0 0 20.5 30" style="enable-background:new 0 0 20.5 30;" xml:space="preserve">
<style type="text/css">
	.{{$ctrl.id}}{fill:{{$ctrl.fill}};}
</style>
<g>
	<path ng-class="{ '{{$ctrl.id}}': true}" d="M18.5,0H2.1L1.8,0.4C0.6,2.9,0,5.7,0,8.7c0,6.9,3.5,12.7,8.1,14.1v4.9h-3c-0.6,0-1.1,0.5-1.1,1.1
		S4.5,30,5.1,30h10.2c0.6,0,1.1-0.5,1.1-1.1s-0.5-1.1-1.1-1.1h-3v-4.9c4.6-1.4,8.1-7.2,8.1-14.1c0-3-0.6-5.8-1.8-8.3L18.5,0z
		 M10.3,21.6c-4.8,0-8.7-5.8-8.7-12.9c0-2.6,0.5-5,1.5-7.1h14.4c1,2.1,1.5,4.6,1.5,7.1C19,15.8,15.1,21.6,10.3,21.6L10.3,21.6z
		 M10.3,21.6"/>
	<path ng-class="{ '{{$ctrl.id}}': true}" d="M16.7,10c0,0-0.1,0-0.2-0.3l-0.1-0.1H4.7c0,0.1,0,0.2,0,0.3c0,0.1,0,0.2,0,0.3c0.1,1.3,0.5,2.6,1.2,3.9
		c0.3,0.6-0.9,0.9-1.2,0.3c-0.6-1.3-1.1-2.6-1.2-3.9c0-0.1,0-0.3,0-0.4c0-0.2,0-0.4,0-0.7C3.4,9.3,3.4,9.1,3.3,9
		C3.2,8.6,3.1,8.4,2.9,8.4c-0.3,0-0.3,0.3-0.3,0.9c0,6,3.5,11,7.7,11c4.3,0,7.7-4.9,7.7-11c0-0.6,0-0.9-0.3-0.9
		c-0.2,0-0.3,0.2-0.4,0.6C17.1,9.3,16.9,10,16.7,10L16.7,10z M16.7,10"/>
</g>
</svg>
