<?xml version="1.0" encoding="utf-8"?>
<!-- Generator: Adobe Illustrator 19.0.0, SVG Export Plug-In . SVG Version: 6.00 Build 0)  -->
<svg version="1.1" id="Layer_1" xmlns="http://www.w3.org/2000/svg" xmlns:xlink="http://www.w3.org/1999/xlink" x="0px" y="0px"
	 viewBox="0 0 32.6 30" style="enable-background:new 0 0 32.6 30;" xml:space="preserve">
<style type="text/css">
	.{{$ctrl.id}}{fill:{{$ctrl.fill}};}
</style>
<g>
	<g>
		<path ng-class="{ '{{$ctrl.id}}': true}" d="M22.3,27.3h-4.7v-11c0,0,0,0,0.1-0.1l7.2-7.3H7.7l7.2,7.3c0,0,0,0,0.1,0.1v11h-4.7c-0.8,0-1.4,0.6-1.4,1.4
			c0,0.8,0.6,1.4,1.4,1.4h12c0.8,0,1.4-0.6,1.4-1.4C23.7,27.9,23.1,27.3,22.3,27.3L22.3,27.3z M22.3,27.3"/>
		<path ng-class="{ '{{$ctrl.id}}': true}" d="M31.5,0H1.1c-1.1,0-1.4,0.7-0.6,1.5l5.3,5.4h21.2l5.3-5.4C32.9,0.7,32.6,0,31.5,0L31.5,0z M31.5,0"/>
	</g>
</g>
</svg>
