<?xml version="1.0" encoding="utf-8"?>
<!-- Generator: Adobe Illustrator 19.0.0, SVG Export Plug-In . SVG Version: 6.00 Build 0)  -->
<svg version="1.1" id="Layer_1" xmlns="http://www.w3.org/2000/svg" xmlns:xlink="http://www.w3.org/1999/xlink" x="0px" y="0px"
	 viewBox="0 0 29 30" style="enable-background:new 0 0 29 30;" xml:space="preserve">
<style type="text/css">
	.{{$ctrl.id}}{fill:{{$ctrl.fill}};}
</style>
<g>
	<path ng-class="{ '{{$ctrl.id}}': true}" d="M4.3,30c1.6,0,3.1-0.9,3.8-2.3c-0.7-0.6-1.2-1.5-1.5-2.4c-0.3,0.1-0.7,0.1-1.1,0.1c-1.9,0-3.5-1-4.4-2.5
		C0.4,23.7,0,24.7,0,25.7C0,28.1,1.9,30,4.3,30L4.3,30z M4.3,30"/>
	<path ng-class="{ '{{$ctrl.id}}': true}" d="M1.5,22c0.1,0.1,0.1,0.2,0.2,0.4c0.7,1.4,2.1,2.3,3.8,2.3c0.3,0,0.6,0,0.9-0.1c0-0.2,0-0.4,0-0.6
		c0-0.6,0.1-1.2,0.3-1.7c0-0.1,0.1-0.2,0.2-0.4c0.1-0.1,0.1-0.2,0.2-0.3c0.3-0.5,0.7-1,1.2-1.4C6,20,4.2,18.5,3.6,16.6
		c-1.4,0.7-2.4,2.1-2.4,3.8c0,0.4,0.1,0.8,0.2,1.2C1.4,21.8,1.4,21.9,1.5,22L1.5,22z M1.5,22"/>
	<path ng-class="{ '{{$ctrl.id}}': true}" d="M10.5,20.9c-0.2-0.3-0.3-0.7-0.4-1c0,0,0,0,0,0c-0.1,0-0.3,0.1-0.4,0.1c-0.9,0.4-1.6,1.1-2.1,1.9
		c-0.1,0.1-0.1,0.2-0.2,0.4c-0.1,0.1-0.1,0.3-0.1,0.4c-0.1,0.4-0.2,0.8-0.2,1.2c0,0.1,0,0.2,0,0.3c0,0.1,0,0.3,0.1,0.4
		c0,0.1,0.1,0.3,0.1,0.4c0.2,0.7,0.6,1.3,1.1,1.8c0.1,0.1,0.2,0.2,0.3,0.3c0.1,0.1,0.2,0.2,0.3,0.2c0.7,0.5,1.5,0.7,2.4,0.7
		c2.3,0,4.3-1.9,4.3-4.3c0-0.1,0-0.2,0-0.4c-0.2,0-0.4,0.1-0.7,0.1C13,23.7,11.3,22.6,10.5,20.9L10.5,20.9z M10.5,20.9"/>
	<path ng-class="{ '{{$ctrl.id}}': true}" d="M4.2,15.9c0,0.1,0.1,0.3,0.1,0.4c0.5,1.7,2.2,3,4.1,3c0.4,0,0.8-0.1,1.1-0.2c0.1,0,0.3-0.1,0.4-0.1
		c0,0,0,0,0,0c0-0.1,0-0.3,0-0.4c0-0.2,0-0.3,0-0.5c0.1-1.2,0.7-2.3,1.5-3.1c-0.5-0.7-0.8-1.6-0.9-2.5C9.9,12.8,9.2,13,8.4,13
		c-1.1,0-2.1-0.4-3-1c-0.8,0.8-1.3,1.9-1.3,3c0,0.2,0,0.3,0,0.5C4.2,15.7,4.2,15.8,4.2,15.9L4.2,15.9z M4.2,15.9"/>
	<path ng-class="{ '{{$ctrl.id}}': true}" d="M16.2,22.7c0.8-0.3,1.5-0.7,2-1.4c-1.1-0.9-1.8-2.3-1.8-3.9c0-0.1,0-0.3,0-0.4c-0.3,0.1-0.6,0.1-0.9,0.1
		c-0.8,0-1.6-0.2-2.3-0.6c-0.1-0.1-0.2-0.1-0.4-0.2c-0.1-0.1-0.2-0.2-0.3-0.2c-0.2-0.2-0.4-0.3-0.6-0.5c-0.8,0.8-1.2,1.8-1.2,3
		c0,0,0,0,0,0c0,0.1,0,0.2,0,0.3c0,0,0,0.1,0,0.1c0,0.1,0,0.2,0,0.3c0,0.1,0,0.1,0,0.2c0,0.1,0,0.2,0.1,0.2c0.5,1.8,2.1,3.1,4.1,3.1
		c0.2,0,0.4,0,0.5,0c0.1,0,0.3,0,0.4-0.1C16,22.7,16.1,22.7,16.2,22.7L16.2,22.7z M16.2,22.7"/>
	<path ng-class="{ '{{$ctrl.id}}': true}" d="M18.7,20.7c0.1,0.1,0.2,0.2,0.3,0.2c0.1,0.1,0.2,0.1,0.3,0.2c0.6,0.4,1.4,0.6,2.1,0.6c2.3,0,4.3-1.9,4.3-4.3
		s-1.9-4.3-4.3-4.3c-0.4,0-0.7,0.1-1,0.1c-0.2,0-0.3,0.1-0.4,0.1c-0.2,0.1-0.3,0.1-0.5,0.2c-0.5,0.3-1,0.6-1.3,1.1
		c-0.1,0.1-0.2,0.2-0.2,0.3c-0.1,0.1-0.1,0.2-0.2,0.3c-0.1,0.1-0.1,0.3-0.2,0.4c-0.1,0.2-0.1,0.3-0.2,0.5c0,0.1-0.1,0.3-0.1,0.5
		c0,0.2-0.1,0.4-0.1,0.6C17.2,18.7,17.8,19.9,18.7,20.7L18.7,20.7z M18.7,20.7"/>
	<path ng-class="{ '{{$ctrl.id}}': true}" d="M29,11.2c0,0-3.3-9.6-7.1-4.8C18,11.1,26.3,13.1,29,11.2L29,11.2z M29,11.2"/>
	<path ng-class="{ '{{$ctrl.id}}': true}" d="M5.7,11.3c0.1,0.1,0.2,0.2,0.3,0.2c0.7,0.4,1.5,0.7,2.3,0.7c0.8,0,1.5-0.2,2.1-0.6c0-0.1,0-0.2,0-0.2
		c0-0.1,0-0.3,0.1-0.4c0-0.1,0.1-0.3,0.1-0.4c0.3-1.1,1-2,1.9-2.6c0,0,0,0,0,0c0-2.3-1.9-4.3-4.3-4.3C6.1,3.7,4.2,5.6,4.2,8
		c0,1.2,0.5,2.3,1.3,3C5.5,11.1,5.6,11.2,5.7,11.3L5.7,11.3z M5.7,11.3"/>
	<path ng-class="{ '{{$ctrl.id}}': true}" d="M11.4,10.9c0,0,0,0.1,0,0.1c0,0.1-0.1,0.3-0.1,0.4c0,0,0,0.1,0,0.1c0,0.1,0,0.2,0,0.4c0,0,0,0.1,0,0.1
		c0,0,0,0,0,0c0,0.9,0.3,1.7,0.8,2.4c0.1,0.1,0.2,0.2,0.2,0.3c0.1,0.1,0.2,0.2,0.3,0.3c0,0,0.1,0.1,0.1,0.1c0.1,0.1,0.2,0.2,0.4,0.3
		c0.1,0.1,0.2,0.2,0.4,0.2c0.6,0.4,1.4,0.6,2.1,0.6c0.4,0,0.7-0.1,1-0.1c0.1-0.4,0.3-0.9,0.5-1.3c0.1-0.1,0.1-0.2,0.2-0.3
		c0.1-0.1,0.2-0.2,0.2-0.3c0.6-0.7,1.3-1.3,2.2-1.6c0-0.2,0-0.4,0-0.6c0-1.1-0.5-2.2-1.2-2.9c0.1-0.1,0.1-0.3,0.2-0.4
		c0.1-0.1,0.1-0.2,0.2-0.4c1.5-3.1,4.6-5,7.7-6.3c1.2-0.5,0.7-2.5-0.6-2c-3.8,1.6-7.1,3.7-9,7.3C17.1,7.5,17,7.6,17,7.7
		c-0.1,0.1-0.1,0.2-0.2,0.4c-0.4-0.1-0.8-0.2-1.3-0.2c-0.8,0-1.5,0.2-2.1,0.6c-0.2,0.1-0.3,0.2-0.4,0.3c-0.2,0.1-0.3,0.3-0.5,0.4
		C12,9.6,11.6,10.2,11.4,10.9L11.4,10.9z M11.4,10.9"/>
</g>
</svg>
