<?xml version="1.0" encoding="utf-8"?>
<!-- Generator: Adobe Illustrator 19.0.0, SVG Export Plug-In . SVG Version: 6.00 Build 0)  -->
<svg version="1.1" id="Layer_1" xmlns="http://www.w3.org/2000/svg" xmlns:xlink="http://www.w3.org/1999/xlink" x="0px" y="0px"
	 viewBox="0 0 38.2 30" style="enable-background:new 0 0 38.2 30;" xml:space="preserve">
<style type="text/css">
	.{{$ctrl.id}}{fill:{{$ctrl.fill}};}
</style>
<g>
	<g>
		<path ng-class="{ '{{$ctrl.id}}': true}" d="M24.5,6.7c0-0.3,0.1-0.5,0.1-0.7l1.6-1.1c0.6-0.3,1.3-0.3,1.6-0.2c0,0,1,0.2,1.5-0.2c0.7-0.4,0.8-1.3,0.4-2
			c-0.3-0.4-0.7-0.6-1.1-0.6c0.1-0.4,0.1-0.9-0.2-1.2c-0.4-0.7-1.3-0.8-2-0.4c-0.4,0.2-0.6,0.9-0.7,1.5c0,0.2-0.2,1-0.8,1.6
			l-1.6,1.1c-1-0.3-2.7-0.1-4.4,0.4c1.7,0.3,3.5,0.9,5.2,1.7L24.5,6.7z M24.5,6.7"/>
		<path ng-class="{ '{{$ctrl.id}}': true}" d="M3.2,21.8h13.1c-0.4-0.3-0.7-0.7-1-1.1c-1.2-1.8-1.4-4-0.6-6.2c0.7-1.9,2.2-3.6,4.2-4.9
			c0.9-0.6,2-1.2,3.1-1.6c-1.5-0.6-3.1-1-4.8-1.2c-1.2-0.1-2.4-0.2-3.5-0.2c-7.3,0-13,2.8-13,10.2C0.7,19.3,2,21.8,3.2,21.8
			L3.2,21.8z M3.2,21.8"/>
		<path ng-class="{ '{{$ctrl.id}}': true}" d="M20.1,11.4c-3.3,2.2-4.8,5.6-3,8.2c0.9,1.3,2.4,2,4.1,2c1.6,0,3.3-0.6,4.9-1.6c2.8-1.9,5.7-6.6,5.6-9.3l2-1.4
			c0.6-0.3,1.3-0.4,2-0.3C36.2,9,37,9.1,37.5,8.8c0.8-0.5,1-1.6,0.5-2.4c-0.3-0.5-0.8-0.7-1.3-0.7c0.1-0.5,0.1-1-0.2-1.5
			c-0.5-0.8-1.6-1-2.4-0.5c-0.4,0.3-0.7,1.1-0.8,1.8c0,0.3-0.2,1.3-1,2l-1.9,1.3c-0.4-0.1-0.9-0.2-1.4-0.2
			C26.3,8.6,22.4,9.8,20.1,11.4L20.1,11.4z M20.1,11.4"/>
		<path ng-class="{ '{{$ctrl.id}}': true}" d="M36.7,19.2l-3.1-0.6c0,0,0,0,0,0c-0.1-0.7-0.5-1.7-1.2-2.9c-0.2,0.3-0.4,0.7-0.5,0.9c-1.3,2.1-2.9,3.9-4.5,5
			c0,0-0.1,0.1-0.1,0.1h9.3c0.7,0,1.3-0.6,1.3-1.3C37.7,19.8,37.2,19.3,36.7,19.2L36.7,19.2z M36.7,19.2"/>
		<path ng-class="{ '{{$ctrl.id}}': true}" d="M36.9,24.1H1.3c-0.4,0-0.8,0.2-1.1,0.6c-0.2,0.4-0.3,0.8-0.1,1.2l1.1,2.3C1.8,29.3,2.9,30,4.1,30h30
			c1.2,0,2.3-0.7,2.8-1.8l1.1-2.3c0.2-0.4,0.2-0.8-0.1-1.2C37.7,24.3,37.3,24.1,36.9,24.1L36.9,24.1z M36.9,24.1"/>
	</g>
</g>
</svg>
