<?xml version="1.0" encoding="utf-8"?>
<!-- Generator: Adobe Illustrator 19.0.0, SVG Export Plug-In . SVG Version: 6.00 Build 0)  -->
<svg version="1.1" id="Layer_1" xmlns="http://www.w3.org/2000/svg" xmlns:xlink="http://www.w3.org/1999/xlink" x="0px" y="0px"
	 viewBox="0 0 28.1 30" style="enable-background:new 0 0 28.1 30;" xml:space="preserve">
<style type="text/css">
	.{{$ctrl.id}}{fill:{{$ctrl.fill}};}
</style>
<g>
	<path ng-class="{ '{{$ctrl.id}}': true}" d="M25,21.5c-0.6,0-1.1,0.2-1.6,0.5l-1-1l-3.2,3.2l0.9,0.9c-0.4,0.5-0.5,1.1-0.5,1.8c0,1.7,1.4,3.1,3.1,3.1
		c1.4,0,2.5-1.3,2.9-2.6c1.4-0.3,2.5-1.3,2.5-2.8C28.1,22.9,26.7,21.5,25,21.5L25,21.5z M25,26.1l-0.9-0.2l0.1,1
		c0,0.8-0.7,1.5-1.5,1.5c-0.8,0-1.5-0.7-1.5-1.5c0-0.4,0.2-0.9,0.6-1.2l0.7-0.6l-1-1l0.9-0.9l0.9,0.9l0.6-0.6
		c0.3-0.3,0.7-0.5,1.1-0.5c0.8,0,1.5,0.7,1.5,1.5C26.5,25.4,25.9,26.1,25,26.1L25,26.1z M25,26.1"/>
	<path ng-class="{ '{{$ctrl.id}}': true}" d="M10.1,21.1c0.1,0,0.1,0,0.2,0.1c3.8,0.9,5.7,1.5,6.6,1.8c0.6,0.2,1.2,0.2,1.7-0.2l2.8-2.6
		c0.4-0.4,0.4-1,0.1-1.5c-1.1-1.6-1.4-3.9-1.4-5.2c0-0.1,0-0.2,0-0.2c0.3-2.6-0.5-5.5-2.2-8C14.3,0.1,8-1.5,3.7,1.5
		C-0.6,4.5-1.2,11,2.3,16C4.3,18.9,7.2,20.6,10.1,21.1L10.1,21.1z M10.4,2.4c4.6,1.5,6.4,5.5,7.4,9.9c0.3,1.5-2,2.1-2.4,0.5
		c-0.8-3.6-2-6.9-5.8-8.1C8.2,4.2,8.9,1.9,10.4,2.4L10.4,2.4z M10.4,2.4"/>
</g>
</svg>
