<?xml version="1.0" encoding="utf-8"?>
<!-- Generator: Adobe Illustrator 19.0.0, SVG Export Plug-In . SVG Version: 6.00 Build 0)  -->
<svg version="1.1" id="Layer_1" xmlns="http://www.w3.org/2000/svg" xmlns:xlink="http://www.w3.org/1999/xlink" x="0px" y="0px"
	 viewBox="0 0 38 30" style="enable-background:new 0 0 38 30;" xml:space="preserve">
<style type="text/css">
	.{{$ctrl.id}}{fill:{{$ctrl.fill}};}
</style>
<g>
	<path ng-class="{ '{{$ctrl.id}}': true}" d="M6.1,10.3h3C9.4,9.8,9.7,9.4,10,9c0.5-1.7,1.4-3.3,2.5-4.7C9.5,5.1,7.1,7.4,6.1,10.3L6.1,10.3z M6.1,10.3"/>
	<path ng-class="{ '{{$ctrl.id}}': true}" d="M13.9,2.9c1.1-1,2.4-1.9,3.8-2.5c-1-0.2-2-0.4-3.1-0.4C8.4,0,3.2,4.4,2,10.3h2.9C6,6.2,9.6,3.2,13.9,2.9
		L13.9,2.9z M13.9,2.9"/>
	<path ng-class="{ '{{$ctrl.id}}': true}" d="M14.4,4.1c-0.9,1-1.7,2.1-2.3,3.4c-0.4,0.9-0.8,1.9-1,2.9H14c0.3-1.2,0.9-2.4,1.6-3.4c0.6-0.9,1.4-1.6,2.3-2.3
		c0.4-0.3,0.8-0.5,1.3-0.8c1.1-0.5,2.3-0.9,3.6-1c0.3,0,0.7-0.1,1-0.1c4.7,0,8.6,3.2,9.8,7.5h2.9C35.3,4.4,30.1,0,23.8,0
		c-1.6,0-3.1,0.3-4.6,0.8c-1.3,0.5-2.5,1.2-3.5,2C15.2,3.2,14.8,3.6,14.4,4.1L14.4,4.1z M14.4,4.1"/>
	<path ng-class="{ '{{$ctrl.id}}': true}" d="M24.1,4.1c-0.1,0-0.2,0-0.3,0c-1.2,0-2.3,0.2-3.3,0.6c-0.4,0.2-0.9,0.4-1.3,0.6c-0.9,0.5-1.7,1.2-2.3,2
		c-0.7,0.9-1.3,1.9-1.7,3h3c0.3-0.5,0.6-1,1-1.4c0.6-0.7,1.4-1.3,2.3-1.6C22,7.1,22.4,7,22.9,6.9c0.3-0.1,0.6-0.1,1-0.1
		c0.9,0,1.8,0.2,2.6,0.6c1.3,0.6,2.3,1.6,2.9,2.9h3C31.2,6.8,28,4.2,24.1,4.1L24.1,4.1z M24.1,4.1"/>
	<path ng-class="{ '{{$ctrl.id}}': true}" d="M19,30c10.5,0,19-8.5,19-19H0C0,21.5,8.5,30,19,30L19,30z M19,30"/>
</g>
</svg>
