<?xml version="1.0" encoding="utf-8"?>
<!-- Generator: Adobe Illustrator 19.0.0, SVG Export Plug-In . SVG Version: 6.00 Build 0)  -->
<svg version="1.1" id="Layer_1" xmlns="http://www.w3.org/2000/svg" xmlns:xlink="http://www.w3.org/1999/xlink" x="0px" y="0px"
	 viewBox="0 0 30.6 30" style="enable-background:new 0 0 30.6 30;" xml:space="preserve">
<style type="text/css">
	.{{$ctrl.id}}{fill:{{$ctrl.fill}};}
</style>
<g>
	<path ng-class="{ '{{$ctrl.id}}': true}" d="M25.6,15.8c-0.1-0.2-0.3-0.3-0.4-0.5c0,4.9-4.1,8.9-9,8.9c-5,0-9-4-9-9c0-5,4-9,9-9c4.3,0,7.9,3,8.8,7l0.8-6.1
		l0-0.1c-2.3-2.7-5.8-4.4-9.6-4.4c-3,0-5.7,1-7.9,2.8v2.9c0,1.7-0.9,3.3-2.3,4.2v10.2c2.3,3.1,6,5.2,10.2,5.2
		c4.4,0,8.3-2.3,10.5-5.7v-5.6C26.4,16.4,25.9,16.1,25.6,15.8L25.6,15.8z M25.6,15.8"/>
	<path ng-class="{ '{{$ctrl.id}}': true}" d="M16.3,7.7c-4.1,0-7.5,3.3-7.5,7.5c0,4.1,3.3,7.5,7.5,7.5c4.1,0,7.5-3.3,7.5-7.5C23.7,11,20.4,7.7,16.3,7.7
		L16.3,7.7z M16.3,7.7"/>
	<path ng-class="{ '{{$ctrl.id}}': true}" d="M30.6,1.2C30.6,0.5,30,0,29.4,0c-0.6,0-1.1,0.4-1.2,1l-1.7,12.8c0,0.3,0.1,0.7,0.3,0.9
		c0.2,0.3,0.5,0.4,0.9,0.4h0.7v13.7c0,0.6,0.5,1.1,1.1,1.1c0.6,0,1.1-0.5,1.1-1.1L30.6,1.2z M30.6,1.2"/>
	<path ng-class="{ '{{$ctrl.id}}': true}" d="M6.8,1.4c0-0.4-0.3-0.8-0.8-0.8C5.6,0.7,5.3,1,5.3,1.4v4.2H4.2V1.4c0-0.4-0.3-0.8-0.8-0.8C3,0.7,2.7,1,2.7,1.4
		v4.2H1.5V1.4c0-0.4-0.3-0.8-0.8-0.8S0,1,0,1.4v6.9c0,1.5,1,2.8,2.3,3.2v17.3c0,0.6,0.5,1.1,1.1,1.1c0.6,0,1.1-0.5,1.1-1.1V11.5
		c1.3-0.5,2.3-1.7,2.3-3.2V1.4z M6.8,1.4"/>
</g>
</svg>
