<?xml version="1.0" encoding="utf-8"?>
<!-- Generator: Adobe Illustrator 19.0.0, SVG Export Plug-In . SVG Version: 6.00 Build 0)  -->
<svg version="1.1" id="Layer_1" xmlns="http://www.w3.org/2000/svg" xmlns:xlink="http://www.w3.org/1999/xlink" x="0px" y="0px"
	 viewBox="0 0 29.1 30" style="enable-background:new 0 0 29.1 30;" xml:space="preserve">
<style type="text/css">
	.{{$ctrl.id}}{fill:{{$ctrl.fill}};}
</style>
<g>
	<path ng-class="{ '{{$ctrl.id}}': true}" d="M4.4,23.7c-1.8,0.7-2.9,1.5-2.9,2.4c0,2.2,5.8,3.9,13,3.9c7.2,0,13-1.7,13-3.9c0-0.9-1.1-1.8-2.9-2.4
		c-0.6,0.6-1.3,1.1-2,1.5c1.1,0.3,1.9,0.6,2.4,0.9c-1.3,0.8-5,1.9-10.6,1.9c-5.7,0-9.3-1.1-10.6-1.9c0.5-0.3,1.3-0.6,2.4-0.9
		C5.6,24.7,5,24.2,4.4,23.7L4.4,23.7z M4.4,23.7"/>
	<g>
		<path ng-class="{ '{{$ctrl.id}}': true}" d="M0,12.5c0,4.3,1.9,8.2,4.9,10.9C5.6,24,6.3,24.5,7,25c2.2,1.3,4.8,2.1,7.6,2.1c2.8,0,5.4-0.8,7.6-2.1
			c0.7-0.5,1.4-1,2.1-1.5c3-2.7,4.9-6.6,4.9-10.9H0z M0,12.5"/>
		<path ng-class="{ '{{$ctrl.id}}': true}" d="M7.4,0.2c-1.4,1-1.9,2.4-1.2,4c0.4,0.9,2.3,3.1,1.5,4c-1.1,1.2,0.7,3,1.8,1.8C10.6,8.9,10.7,7.4,10,6
			C9.6,5.2,7.8,3.1,8.7,2.5C10,1.5,8.7-0.7,7.4,0.2L7.4,0.2z M7.4,0.2"/>
		<path ng-class="{ '{{$ctrl.id}}': true}" d="M13.5,0.2c-1.4,1-1.9,2.4-1.2,4c0.4,0.9,2.3,3.1,1.5,4c-1.1,1.2,0.7,3,1.8,1.8c1.1-1.2,1.2-2.6,0.5-4.1
			c-0.3-0.7-2.2-2.8-1.3-3.5C16.1,1.5,14.9-0.7,13.5,0.2L13.5,0.2z M13.5,0.2"/>
		<path ng-class="{ '{{$ctrl.id}}': true}" d="M19.7,0.2c-1.4,1-1.9,2.4-1.2,4c0.4,0.9,2.3,3.1,1.5,4c-1.1,1.2,0.7,3,1.8,1.8c1.1-1.2,1.2-2.6,0.5-4.1
			c-0.3-0.7-2.2-2.8-1.3-3.5C22.3,1.5,21-0.7,19.7,0.2L19.7,0.2z M19.7,0.2"/>
	</g>
</g>
</svg>
