<?xml version="1.0" encoding="utf-8"?>
<!-- Generator: Adobe Illustrator 19.0.0, SVG Export Plug-In . SVG Version: 6.00 Build 0)  -->
<svg version="1.1" id="Layer_1" xmlns="http://www.w3.org/2000/svg" xmlns:xlink="http://www.w3.org/1999/xlink" x="0px" y="0px"
	 viewBox="0 0 49.1 30" style="enable-background:new 0 0 49.1 30;" xml:space="preserve">
<style type="text/css">
	.{{$ctrl.id}}{fill:{{$ctrl.fill}};}
</style>
<g>
	<path ng-class="{ '{{$ctrl.id}}': true}" d="M8.7,21.7h22c3.6,0,6.5-2.9,6.5-6.5v-2h8.4c1.7,0,3-1.4,3-3V4.6c0-1.7-1.4-3-3-3h-8.4V0h-35v15.3
		C2.3,18.8,5.2,21.7,8.7,21.7L8.7,21.7z M42.1,4.5h0.3c1.7,0,3,1.3,3,2.9c0,1.6-1.4,2.9-3,2.9h-0.3c-1.7,0-3-1.3-3-2.9
		C39.1,5.8,40.5,4.5,42.1,4.5L42.1,4.5z M42.1,4.5"/>
	<path ng-class="{ '{{$ctrl.id}}': true}" d="M46.1,24.3H3c-1.7,0-3,1.3-3,2.8C0,28.7,1.4,30,3,30h43.1c1.7,0,3-1.3,3-2.8C49.1,25.6,47.8,24.3,46.1,24.3
		L46.1,24.3z M46.1,24.3"/>
</g>
</svg>
