<?xml version="1.0" encoding="utf-8"?>
<!-- Generator: Adobe Illustrator 19.0.0, SVG Export Plug-In . SVG Version: 6.00 Build 0)  -->
<svg version="1.1" id="Layer_1" xmlns="http://www.w3.org/2000/svg" xmlns:xlink="http://www.w3.org/1999/xlink" x="0px" y="0px"
	 viewBox="0 0 19.4 30" style="enable-background:new 0 0 19.4 30;" xml:space="preserve">
<style type="text/css">
	.{{$ctrl.id}}{fill:{{$ctrl.fill}};}
</style>
<g>
	<path ng-class="{ '{{$ctrl.id}}': true}" d="M9.8,8.3H0v0.3c0,8.6,1.3,13,4.2,13.6c0.2,0.1,0.5,0.1,0.7,0.1c0.3,0,0.5,0,0.7-0.1c2.8-0.6,4.2-5,4.2-13.6
		V8.3z M7.8,19.1c-0.1,0.2-0.1,0.3-0.2,0.5C7,21,6,21.8,4.9,21.8c-1.1,0-2-0.7-2.7-2.2C2.1,19.4,2,19.3,2,19.1
		C1.1,17,0.7,13.7,0.7,9h8.4C9.1,13.7,8.7,16.9,7.8,19.1L7.8,19.1z M7.8,19.1"/>
	<path ng-class="{ '{{$ctrl.id}}': true}" d="M4.9,20.9c1.4,0,2.7-1.3,3.3-6.7H1.7C2.1,19.4,3.5,20.9,4.9,20.9L4.9,20.9z M4.9,20.9"/>
	<path ng-class="{ '{{$ctrl.id}}': true}" d="M4.9,22.9c-0.3,0-0.5,0-0.7-0.1v5.1H2.3c-0.3,0-0.5,0.2-0.5,0.4v0.4c0,0.2,0.2,0.4,0.5,0.4h5.1
		c0.3,0,0.5-0.2,0.5-0.4v-0.4c0-0.2-0.2-0.4-0.5-0.4H5.7v-5.1C5.4,22.9,5.2,22.9,4.9,22.9L4.9,22.9z M4.9,22.9"/>
	<path ng-class="{ '{{$ctrl.id}}': true}" d="M10.9,10.1v1.7c0,0.1,0,0.2,0,0.3v16.7h0c0,0.1,0,0.1,0,0.2c0,0.6,2.3,1,4.5,1c2.1,0,4-0.5,4-1
		c0-0.1,0-0.1,0-0.2h0v-4h-3.5V12.4h3.5v-2.3c0-0.2-0.1-1.7-2.3-3.2c0,0-0.6-4.5-0.6-4.5h-3L13,7C11,7.9,10.9,9.9,10.9,10.1
		L10.9,10.1z M10.9,10.1"/>
	<path ng-class="{ '{{$ctrl.id}}': true}" d="M14.1,2h1.7c0.4,0,0.7-0.5,0.7-0.9V0.9c0-0.4-0.3-0.9-0.7-0.9h-1.7c-0.4,0-0.7,0.5-0.7,0.9v0.2
		C13.4,1.5,13.7,2,14.1,2L14.1,2z M14.1,2"/>
</g>
</svg>
